P2 
32 30
143
10 4 8 41 36 35 34 33 31 30 29 28 26 25 24 24 27 24 24 24 
22 21 24 24 24 24 25 26 26 27 27 27 28 10 13 39 35 34 33 32 
31 30 28 28 26 25 25 24 27 24 24 24 22 20 24 24 24 24 25 25 
26 27 27 27 27 18 24 30 33 34 33 32 31 30 29 28 27 26 25 24 
28 25 25 25 24 22 25 25 25 26 26 26 27 27 28 27 28 37 33 21 
16 18 34 33 32 31 30 29 30 27 24 22 24 20 27 27 25 23 26 27 
27 28 28 28 28 28 28 28 27 11 27 41 46 23 36 38 40 36 33 32 
33 21 6 8 7 5 4 13 24 25 28 28 28 28 28 29 29 28 28 28 
28 2 17 4 15 20 23 23 7 16 3 14 15 14 8 8 7 7 5 0 
4 23 30 30 30 30 30 30 30 30 29 29 29 5 15 2 6 16 2 4 
0 13 4 8 9 16 22 26 40 85 80 31 0 15 30 31 30 31 31 31 
31 31 30 30 30 24 33 23 25 16 2 12 16 26 12 8 3 22 67 70 
101 114 104 76 15 13 29 31 31 31 31 31 31 31 30 29 27 1 30 16 
24 23 31 31 38 35 10 6 40 94 116 120 120 116 107 84 36 10 21 30 
30 29 28 25 23 21 21 16 18 2 24 2 14 24 34 32 0 17 6 17 
71 109 123 123 121 122 114 83 51 15 9 22 21 23 25 27 27 24 15 25 
29 11 29 2 3 24 5 11 2 13 1 26 71 108 120 120 125 98 66 66 
53 25 13 31 32 32 32 33 32 26 14 25 30 8 26 18 26 27 6 11 
29 25 3 25 72 76 69 79 111 77 68 68 59 24 20 33 33 33 33 33 
33 31 26 31 31 19 24 8 27 26 7 15 39 40 38 25 81 86 64 90 
107 84 97 92 89 33 26 32 33 33 33 32 32 31 31 31 28 0 23 6 
19 26 43 46 22 30 32 24 88 118 122 119 106 85 120 117 100 46 42 32 
33 33 31 31 29 24 30 30 23 25 34 15 24 28 38 38 5 13 7 48 
78 119 130 126 103 87 120 118 90 44 47 32 28 7 3 20 16 3 28 26 
7 30 25 23 22 22 22 32 7 9 6 52 72 111 133 109 86 67 98 118 
83 48 41 32 28 2 1 18 19 6 22 22 28 16 0 0 0 0 0 25 
30 30 36 54 77 98 119 112 97 93 90 102 82 39 31 32 28 1 2 17 
18 4 18 30 22 18 0 0 0 0 0 19 16 15 32 34 38 90 111 91 
99 95 62 101 76 38 32 32 29 2 1 15 21 9 18 29 21 20 0 0 
0 0 0 16 6 3 33 13 0 66 115 102 90 80 80 94 65 42 34 32 
32 5 3 18 30 27 10 10 0 19 0 0 0 0 0 14 5 5 34 16 
4 48 99 100 99 92 79 81 54 43 36 27 31 25 13 27 29 16 2 5 
1 19 0 0 0 0 0 12 28 35 35 18 27 48 77 97 100 91 95 63 
48 40 38 26 28 27 18 26 26 15 0 0 0 20 0 0 0 0 1 13 
12 14 24 28 31 48 75 65 89 89 76 48 47 29 35 31 16 16 17 23 
26 8 0 0 0 24 15 15 14 16 15 14 15 18 22 27 30 53 98 73 
63 63 47 66 57 41 25 18 14 9 17 20 23 2 0 0 0 9 6 11 
15 14 3 10 15 19 24 38 53 66 104 103 110 100 84 102 76 53 43 61 
57 39 24 20 15 0 0 0 0 6 12 23 29 27 11 9 22 43 68 81 
66 80 96 111 112 118 103 109 82 62 42 74 79 75 60 30 5 0 0 0 
0 18 15 7 11 20 19 53 79 83 88 82 66 42 71 119 110 104 120 113 
60 45 46 76 83 80 78 77 63 20 0 0 0 25 27 27 27 35 72 85 
85 86 85 83 69 39 67 102 128 126 131 110 57 45 64 79 83 81 82 82 
78 58 7 0 0 31 35 31 27 74 79 88 87 88 86 86 81 67 71 77 
133 138 124 76 44 70 72 81 82 84 85 84 82 69 52 1 0 11 2 0 
42 83 81 88 89 88 88 87 89 87 82 79 92 132 81 65 76 79 79 80 
83 86 85 84 80 74 65 17 0 0 0 11 74 79 83 87 90 91 91 89 
89 92 92 91 83 71 74 87 83 82 84 82 82 85 87 83 76 85 62 44 
