P2 
32 30
145
10 3 8 41 36 35 34 33 31 30 28 27 26 25 23 23 27 24 23 23 
22 19 23 23 24 24 25 25 26 27 27 27 28 11 13 40 36 35 34 33 
31 30 29 28 27 26 25 24 28 25 25 25 22 21 25 25 25 25 26 26 
27 28 28 28 28 19 25 31 34 35 34 33 32 31 30 29 28 26 26 25 
29 26 26 26 24 22 26 26 26 26 26 27 28 29 29 28 28 37 33 21 
16 18 34 33 33 31 30 29 30 28 27 26 30 27 28 27 25 23 27 27 
27 28 27 28 28 28 29 28 28 11 28 41 46 23 36 38 40 36 33 32 
33 32 28 27 27 24 25 28 26 25 28 28 28 28 29 29 29 28 29 29 
28 2 18 4 15 20 23 23 7 16 3 15 9 13 18 10 3 1 6 27 
28 26 30 30 30 30 30 30 30 30 29 29 29 5 15 2 6 16 2 4 
0 13 4 9 6 7 18 37 49 43 18 12 27 27 30 31 31 31 31 31 
31 31 30 30 30 23 34 23 25 15 2 12 16 25 13 15 22 20 87 98 
98 94 76 31 11 27 30 31 31 31 31 30 31 31 30 29 27 1 30 16 
24 23 31 31 37 35 11 10 13 65 79 95 124 113 88 58 10 23 30 30 
29 30 28 25 23 20 21 15 18 2 25 2 15 25 34 32 0 17 4 8 
31 83 83 87 102 88 82 82 31 12 22 23 21 24 26 28 28 25 15 25 
30 11 29 3 3 23 5 11 2 13 0 13 47 104 107 98 100 87 92 91 
60 7 26 30 32 32 33 33 33 27 14 25 30 7 26 18 26 27 6 11 
28 25 3 7 55 109 114 111 81 68 86 100 74 7 24 33 33 33 33 33 
33 31 26 31 31 19 24 8 28 27 7 15 39 41 39 15 60 109 124 109 
102 90 97 101 75 14 20 33 34 34 33 33 33 32 31 31 29 0 24 6 
20 27 45 47 23 31 33 17 62 112 125 106 99 89 89 99 75 19 23 34 
34 34 32 33 30 26 32 32 24 25 35 16 25 29 39 39 5 14 7 32 
75 106 123 105 116 106 90 100 66 43 31 33 29 8 4 21 16 3 28 26 
6 30 26 25 24 22 23 33 7 9 6 56 79 93 117 113 116 109 94 94 
57 52 36 32 28 2 1 18 19 6 22 22 28 17 0 0 0 0 0 27 
31 31 37 63 78 75 102 108 121 117 90 81 45 57 33 33 29 1 2 18 
19 4 19 30 22 21 0 0 0 0 0 21 17 16 33 35 13 63 70 83 
95 98 80 52 33 32 33 33 30 2 1 15 21 9 18 29 21 23 0 0 
0 0 0 16 6 2 33 12 0 78 65 75 83 77 53 39 46 42 34 31 
31 5 2 17 29 27 9 10 0 24 0 0 0 0 0 14 5 5 35 16 
4 82 81 91 98 90 68 57 63 43 36 27 31 26 13 27 29 15 2 6 
1 24 0 0 0 0 0 13 27 36 36 19 28 78 93 101 119 109 78 83 
71 42 38 26 29 27 18 26 26 15 0 0 0 24 0 0 0 0 1 13 
11 13 24 29 32 75 103 101 128 111 82 97 72 52 35 32 17 17 18 23 
25 8 0 0 0 29 18 17 16 16 15 14 14 16 21 26 34 80 112 102 
121 106 94 108 71 59 23 18 14 10 17 20 23 2 0 0 0 11 8 13 
17 15 4 11 13 17 23 29 49 86 119 109 117 112 107 116 76 58 48 68 
56 40 25 20 15 0 0 0 0 7 14 25 30 28 12 10 18 30 54 75 
67 65 110 120 125 119 121 112 55 45 59 82 81 77 68 37 8 0 0 0 
0 19 18 9 12 20 13 35 67 82 88 81 62 24 81 129 130 125 131 101 
44 47 72 83 83 83 82 80 68 21 0 0 0 26 30 29 28 31 67 82 
86 84 85 79 72 56 69 109 136 135 128 61 51 76 74 83 82 85 85 83 
80 56 8 0 0 32 37 34 25 64 80 87 87 86 85 84 85 75 79 82 
130 134 74 67 77 86 76 82 84 87 88 85 78 72 53 0 0 12 3 0 
22 84 81 89 90 88 88 87 88 91 89 87 90 81 80 88 86 86 83 81 
82 89 89 87 73 81 65 19 0 0 0 1 55 81 82 88 89 86 89 89 
91 92 91 95 71 88 87 88 87 86 88 86 83 86 87 82 75 83 61 51 
