P2 
32 30
155
10 4 8 42 37 36 35 34 32 31 30 29 28 27 25 24 28 25 24 24 
22 20 24 24 24 25 26 26 27 27 28 28 29 11 14 41 37 36 35 34 
33 32 31 30 29 28 26 25 29 26 25 25 23 21 25 26 26 26 26 26 
27 28 29 29 29 20 26 33 37 37 36 35 34 33 32 31 31 29 28 27 
31 29 28 28 26 24 28 28 28 28 28 29 30 31 30 30 30 40 35 24 
19 21 37 36 35 34 33 32 33 30 26 25 29 29 30 29 27 25 29 29 
30 30 30 30 31 31 31 31 30 11 29 43 49 25 39 40 42 38 35 34 
33 12 9 9 7 9 16 29 28 26 30 30 30 31 30 31 31 31 30 30 
30 2 19 5 16 22 24 24 8 17 3 16 16 12 8 7 4 1 1 6 
26 27 31 32 32 31 31 32 31 31 31 31 30 6 15 3 6 17 2 4 
0 14 6 9 15 20 26 25 62 75 34 1 11 29 32 32 32 32 32 32 
32 32 32 32 31 25 35 25 26 17 2 12 17 27 9 6 9 62 69 83 
112 111 84 21 8 27 32 32 32 32 32 32 32 32 31 30 28 2 32 17 
25 25 33 32 39 37 5 32 86 120 125 125 123 113 97 47 15 21 32 31 
31 31 29 27 24 22 23 17 20 3 26 3 16 27 36 34 0 18 13 55 
107 127 128 124 127 122 100 55 23 9 24 24 23 25 27 28 29 26 16 26 
31 12 31 3 4 25 5 12 3 14 15 53 92 111 120 134 125 87 76 47 
27 7 29 32 33 34 34 34 34 28 15 26 32 8 28 20 28 29 7 11 
30 26 13 22 52 31 48 78 66 12 42 2 6 13 34 34 35 35 35 34 
34 33 27 32 32 20 26 9 30 28 8 16 41 42 28 41 14 11 6 42 
43 2 15 0 19 19 34 35 35 35 35 34 34 33 32 32 30 0 25 7 
20 29 46 48 24 32 40 53 2 0 2 76 73 2 1 5 40 38 35 35 
36 36 34 34 31 27 33 33 25 27 37 17 27 31 41 41 6 15 59 75 
65 34 72 103 93 57 34 46 45 46 35 35 31 10 5 23 18 4 30 28 
7 32 27 25 24 24 24 35 8 10 55 76 111 127 118 95 85 85 113 90 
47 43 34 35 30 4 2 20 21 8 24 24 30 17 0 0 0 0 0 29 
33 33 53 86 104 127 118 104 91 99 113 87 50 29 33 35 31 3 3 19 
21 5 21 32 23 20 0 0 0 0 0 23 18 17 36 44 91 124 109 112 
108 92 105 80 44 40 34 35 32 4 3 17 23 11 19 31 22 19 0 0 
0 0 0 18 7 3 36 14 60 120 104 91 89 81 108 68 50 45 36 33 
33 6 3 18 31 28 10 10 0 19 0 0 0 0 0 14 5 6 37 18 
41 106 113 108 98 97 92 59 51 44 37 28 32 26 13 27 29 16 2 6 
1 19 0 0 0 0 0 13 31 39 37 21 44 83 109 118 117 98 77 55 
37 44 39 27 30 28 18 27 27 16 0 0 0 19 0 0 0 0 1 14 
16 17 27 31 40 76 75 104 109 83 55 61 27 45 37 33 18 18 18 24 
26 9 0 0 0 24 15 16 16 18 17 16 19 21 25 29 44 87 80 71 
64 52 70 76 44 47 24 18 15 10 18 22 24 2 0 0 0 9 6 12 
17 16 4 13 19 23 26 35 72 87 103 105 105 86 109 94 65 47 70 68 
57 41 27 21 16 0 0 0 0 6 12 23 31 30 13 11 24 40 69 71 
79 76 117 110 108 110 121 68 53 50 75 86 81 77 68 41 7 0 0 0 
0 18 15 7 11 22 29 60 82 86 87 73 42 51 102 123 124 124 120 60 
50 68 77 86 83 82 83 77 61 16 0 0 0 26 27 27 29 46 84 88 
87 82 85 76 62 59 77 132 135 136 101 45 66 81 81 85 84 86 89 85 
74 58 4 0 0 33 35 31 35 80 87 91 90 87 86 87 82 76 76 99 
140 116 61 73 89 84 80 83 88 89 90 87 76 73 38 0 0 12 2 0 
57 87 86 93 94 90 90 91 91 91 92 88 97 74 89 92 89 89 85 87 
86 91 91 88 81 76 59 5 0 0 0 18 72 86 88 93 92 90 92 93 
96 95 97 93 71 93 93 91 91 89 89 88 87 87 88 86 80 70 66 30 
