P2 
32 30
141
10 3 7 39 35 34 33 32 30 29 28 27 25 24 23 22 26 23 23 22 
21 19 22 23 23 23 24 24 25 25 26 26 26 10 13 39 35 34 33 32 
31 30 29 28 26 25 24 24 27 25 24 24 22 20 24 24 24 25 25 25 
26 27 27 27 27 17 24 30 33 34 33 32 31 30 29 28 27 26 25 24 
28 25 25 25 23 21 24 25 25 25 25 26 27 27 27 27 27 36 32 20 
16 18 33 32 32 30 29 29 29 27 24 22 26 25 27 26 24 23 26 26 
26 27 27 27 27 27 28 27 27 11 26 40 45 22 35 37 39 35 33 31 
30 10 7 7 5 6 11 24 26 24 27 27 27 27 27 28 28 27 27 27 
27 2 17 4 15 20 23 23 7 15 3 16 13 9 4 4 3 0 1 3 
20 25 28 28 28 28 28 28 28 28 28 28 27 5 14 2 5 15 1 3 
0 12 5 7 15 14 15 12 30 57 33 1 6 25 28 29 29 28 29 29 
29 29 28 28 28 23 33 23 25 15 2 12 16 25 9 6 6 38 50 56 
97 108 85 28 7 23 30 30 31 31 30 30 31 30 30 28 26 1 30 16 
25 23 30 31 38 35 4 15 48 99 106 116 121 113 98 55 13 16 30 30 
29 30 27 25 22 20 21 16 18 2 25 2 15 24 34 32 0 17 9 48 
103 123 126 123 123 120 103 58 24 5 22 22 21 23 25 26 27 24 14 24 
28 11 29 2 3 23 5 11 2 12 13 53 99 125 132 130 127 102 85 57 
36 6 26 29 30 31 32 32 31 25 13 24 29 7 26 18 25 26 5 10 
28 25 17 54 85 83 73 112 108 65 61 50 35 11 31 32 32 32 32 32 
31 30 25 29 29 18 24 7 27 26 7 14 38 40 25 62 82 63 65 96 
95 90 55 73 46 13 32 32 32 32 32 31 31 30 30 30 28 0 23 6 
19 26 42 45 22 30 32 62 111 109 112 106 101 99 115 104 61 35 31 31 
32 32 31 31 28 24 29 30 22 24 33 15 24 28 38 38 5 14 44 69 
117 129 132 107 105 90 120 106 55 47 31 32 28 7 3 20 15 2 27 25 
6 30 25 23 22 22 23 33 7 9 48 73 106 125 131 100 114 74 115 99 
49 47 31 32 27 3 1 18 19 6 21 21 28 15 0 0 0 0 0 27 
30 30 50 81 94 123 124 93 84 72 113 97 51 35 29 32 28 1 2 17 
18 4 18 29 22 17 0 0 0 0 0 20 17 15 33 58 75 117 113 112 
116 95 100 93 44 36 31 31 28 1 0 14 20 7 16 28 20 17 0 0 
0 0 0 16 6 2 33 12 43 113 106 87 93 68 97 86 46 41 33 30 
30 4 2 16 28 25 9 9 0 16 0 0 0 0 0 14 5 5 34 16 
26 101 116 105 99 91 98 71 47 42 35 27 30 25 12 26 28 15 2 6 
0 16 0 0 0 0 0 12 29 36 35 19 32 81 105 111 112 102 87 58 
29 42 36 25 28 27 17 25 25 15 0 0 0 17 0 0 0 0 1 12 
14 16 25 29 31 70 77 106 110 100 66 57 19 42 34 31 16 16 17 22 
24 8 0 0 0 22 13 14 15 16 15 14 17 20 23 27 39 64 71 69 
73 60 56 65 34 56 24 18 14 10 17 20 23 2 0 0 0 8 6 10 
15 14 3 12 18 21 24 33 62 67 97 94 99 75 82 89 52 59 49 67 
55 37 24 20 15 0 0 0 0 4 9 20 27 26 10 8 19 33 55 69 
72 66 109 101 100 95 112 102 68 45 57 78 77 73 61 33 6 0 0 0 
0 15 12 6 10 19 16 44 72 77 83 73 59 41 93 117 115 114 119 93 
42 40 68 81 81 79 78 74 64 19 0 0 0 23 24 25 25 33 72 81 
84 80 81 71 58 41 74 126 127 128 123 78 41 61 74 82 81 80 82 80 
78 53 6 0 0 29 32 28 24 70 78 86 86 84 82 81 75 68 63 103 
136 134 89 50 65 80 77 81 81 83 83 83 77 68 50 0 0 11 2 0 
30 82 80 88 88 87 86 87 87 84 83 77 109 100 65 82 83 81 81 81 
81 86 85 84 72 79 65 17 0 0 0 3 60 80 83 88 87 85 90 89 
89 87 89 89 71 74 84 87 83 84 86 82 82 83 85 81 74 82 60 49 
