P2 
32 30
139
10 3 7 38 34 33 32 31 30 28 28 27 25 24 22 21 24 21 21 21 
19 17 21 22 22 22 22 23 24 25 25 25 26 10 13 38 34 33 33 31 
31 29 28 28 27 25 24 22 26 23 23 23 21 19 23 24 23 23 24 24 
25 26 27 26 27 17 23 30 33 33 33 31 30 30 29 28 27 26 24 23 
27 24 24 24 22 20 23 24 24 24 25 25 26 26 26 26 26 35 31 19 
15 17 32 31 31 29 29 27 28 26 24 23 26 24 24 24 22 21 24 24 
24 25 25 25 26 26 26 26 25 10 25 39 44 21 34 36 38 34 31 30 
25 24 22 15 14 7 11 24 24 22 26 26 25 26 26 26 26 26 26 26 
26 2 17 4 14 19 22 22 7 15 3 10 7 24 22 8 2 4 0 12 
24 24 27 27 27 27 27 27 27 27 27 27 26 5 14 2 5 15 2 3 
0 13 2 7 28 37 14 3 0 0 0 1 12 23 28 28 28 28 28 28 
28 29 28 28 28 23 33 22 24 15 2 11 15 14 10 77 107 89 20 4 
1 3 9 2 8 17 29 29 29 29 29 29 29 29 28 27 25 1 30 16 
23 23 30 29 36 12 56 105 116 97 20 5 2 3 4 4 5 7 28 28 
28 28 26 24 21 19 20 15 17 2 24 2 14 24 32 31 0 19 92 115 
126 102 27 11 10 7 5 6 5 4 18 21 20 22 24 25 26 23 14 23 
27 11 28 2 3 23 4 11 2 47 111 128 132 105 50 24 15 14 11 4 
3 0 19 28 29 30 30 30 30 24 13 23 28 7 25 18 25 26 5 10 
27 82 110 128 131 126 88 38 22 19 15 11 3 3 22 30 31 30 30 30 
30 29 23 28 28 18 24 8 27 26 7 14 37 51 66 117 132 133 100 56 
46 30 19 8 6 2 26 31 31 31 31 30 30 29 29 29 27 0 23 6 
19 26 42 45 22 76 92 101 123 134 120 83 80 94 94 13 4 4 28 31 
31 31 30 30 27 23 29 29 22 24 33 15 24 28 38 38 13 117 109 109 
125 131 125 122 123 101 113 26 4 4 30 30 27 7 2 19 14 2 26 24 
6 29 24 23 22 22 23 34 68 124 111 112 124 123 119 118 124 112 105 11 
3 11 29 30 26 2 1 17 18 5 20 20 26 15 0 0 0 0 0 29 
90 105 97 117 121 121 116 108 112 119 81 6 3 18 28 30 26 1 1 16 
18 2 16 27 20 16 0 0 0 0 0 22 18 60 100 114 126 120 110 99 
98 93 61 6 10 35 29 30 27 0 0 14 19 7 15 26 18 15 0 0 
0 0 0 17 7 50 88 113 125 117 107 90 109 116 62 21 42 38 31 28 
28 3 1 15 26 23 8 9 0 15 0 0 0 0 0 15 6 29 89 103 
120 112 100 94 121 114 58 45 39 41 34 26 29 24 12 25 27 14 2 5 
0 14 0 0 0 0 0 13 30 41 96 100 111 105 100 110 123 110 56 61 
21 48 35 24 27 26 16 24 24 14 0 0 0 14 0 0 0 0 1 13 
16 21 91 107 104 96 106 111 120 107 57 78 38 57 33 29 15 15 16 21 
23 8 0 0 0 17 11 13 14 15 15 14 17 20 60 82 76 90 102 110 
117 109 58 88 65 61 30 25 13 8 16 19 21 1 0 0 0 6 4 9 
15 14 3 11 17 20 28 44 45 52 99 114 116 108 61 91 83 56 50 71 
61 46 27 19 13 0 0 0 0 3 8 19 27 26 11 9 30 54 72 70 
62 47 59 93 112 109 73 86 63 40 60 76 78 76 72 53 20 0 0 0 
0 9 9 5 10 19 22 58 78 77 81 74 56 23 67 100 98 109 94 82 
39 44 71 79 79 78 76 71 69 32 0 0 0 17 20 22 25 38 71 81 
81 81 80 78 64 54 63 91 106 110 103 63 44 71 74 80 78 77 79 78 
76 62 22 0 0 24 26 25 29 77 79 82 84 84 83 84 80 72 73 81 
99 108 66 53 73 81 76 81 80 83 83 81 73 73 61 3 0 7 1 0 
47 80 78 86 88 87 86 82 85 87 85 79 84 74 69 84 82 82 80 79 
81 83 83 82 70 81 61 25 0 0 0 16 67 77 78 86 88 85 86 87 
91 88 87 88 65 82 84 84 84 82 86 85 83 81 83 79 72 79 59 50 
