P2 
32 30
139
10 2 7 37 33 32 31 30 28 27 27 25 24 23 21 20 24 20 20 20 
18 17 20 21 21 21 21 22 23 24 24 24 24 10 12 38 34 33 32 31 
30 29 28 28 26 25 24 22 26 23 23 23 21 19 23 23 23 23 24 24 
25 26 26 26 26 17 23 29 32 33 32 31 30 29 28 28 27 25 24 23 
27 24 24 24 22 20 23 23 23 24 24 25 25 26 26 26 26 35 31 20 
15 17 32 31 31 30 29 28 29 26 25 24 27 25 25 25 23 21 25 25 
25 26 25 26 26 26 26 26 26 10 25 38 43 21 34 36 37 34 31 30 
29 28 24 15 9 6 9 24 24 22 26 26 26 26 26 26 26 26 26 26 
26 2 16 4 14 19 22 22 6 14 3 12 8 20 12 4 0 2 0 8 
22 23 26 27 27 27 27 27 27 27 27 27 26 4 13 2 5 15 2 3 
0 12 3 5 22 44 17 2 0 0 2 1 10 22 27 28 27 27 28 28 
28 28 27 27 27 22 32 22 24 14 1 11 15 20 3 52 100 95 30 6 
1 1 6 1 3 11 28 28 28 28 28 28 28 28 27 27 24 1 29 15 
22 22 30 29 35 20 28 98 112 112 45 9 6 5 2 6 4 4 25 28 
27 27 26 23 21 19 20 14 17 2 24 2 14 23 32 31 0 5 77 111 
124 115 58 25 13 13 6 6 3 0 14 20 19 21 23 25 26 22 13 23 
27 10 27 2 3 22 4 10 2 27 99 120 127 124 93 53 18 15 16 9 
3 1 17 27 28 29 29 30 29 24 12 22 27 7 24 17 24 25 5 10 
26 50 57 100 126 125 120 67 39 29 19 9 5 2 20 29 30 30 30 30 
29 28 23 27 28 18 23 7 27 25 7 14 37 53 90 81 118 130 127 89 
61 75 92 42 6 2 22 30 30 30 30 30 30 29 28 28 26 0 23 6 
18 25 42 44 22 38 122 84 112 130 130 125 116 110 113 80 4 2 24 30 
31 31 29 29 27 23 28 28 21 24 33 15 24 28 37 38 6 70 124 104 
120 131 126 121 122 112 119 67 4 2 29 31 27 7 3 19 15 2 26 24 
6 29 24 23 22 22 23 33 19 111 121 111 120 120 124 116 114 114 116 41 
3 7 30 30 26 2 1 17 18 6 20 21 27 15 0 0 0 0 0 29 
52 101 107 108 126 127 121 112 102 104 79 30 3 15 29 31 27 1 1 16 
18 3 17 28 21 16 0 0 0 0 0 21 17 26 99 109 126 129 119 105 
91 111 91 26 9 34 29 30 26 0 0 13 18 7 15 26 18 15 0 0 
0 0 0 16 6 15 90 93 121 125 114 101 89 118 82 35 38 38 30 27 
27 3 1 15 26 23 8 9 0 15 0 0 0 0 0 13 5 8 86 108 
109 118 106 94 101 119 76 48 40 40 33 24 28 23 11 24 26 14 2 5 
0 14 0 0 0 0 0 12 28 36 60 102 106 112 100 103 110 117 72 59 
23 44 34 23 26 25 16 23 23 13 0 0 0 14 0 0 0 0 1 12 
14 16 37 99 113 99 99 106 109 114 69 70 41 53 33 28 15 15 16 20 
22 7 0 0 0 17 11 13 14 15 15 13 16 19 25 67 78 84 96 104 
112 114 70 79 66 61 27 19 12 8 15 19 21 1 0 0 0 6 4 10 
15 14 3 11 16 20 25 39 51 40 88 112 113 115 70 82 87 61 44 68 
59 42 24 18 14 0 0 0 0 4 8 19 27 26 10 9 22 45 67 72 
61 58 78 88 113 119 73 91 84 53 48 74 76 76 69 46 15 0 0 0 
0 9 9 5 9 18 14 46 74 79 82 76 61 23 68 107 102 117 84 92 
45 38 61 78 81 79 76 75 68 29 0 0 0 17 20 22 25 31 65 80 
80 83 78 76 63 42 67 100 111 115 95 90 49 50 71 78 80 77 78 78 
76 63 18 0 0 25 26 24 23 68 76 84 83 84 82 79 76 66 67 83 
114 114 84 55 51 78 74 80 79 82 82 81 80 68 60 4 0 8 1 0 
37 80 80 84 86 84 84 82 85 85 80 75 86 101 61 69 79 80 79 80 
80 83 82 82 75 75 62 28 0 0 0 9 70 74 79 84 87 84 85 85 
87 89 86 87 72 66 77 83 82 81 81 81 81 81 81 79 70 80 59 53 
