P2 
32 30
156
10 4 8 43 38 37 36 35 33 32 31 29 28 27 26 25 29 26 25 25 
23 21 25 25 26 26 26 27 27 28 29 29 29 12 15 42 38 37 36 35 
34 33 31 30 29 28 27 26 30 27 26 27 24 23 26 27 26 27 27 28 
28 30 30 30 30 20 27 33 36 37 36 35 34 33 32 31 30 29 28 27 
31 29 28 27 26 24 27 27 28 28 28 29 30 30 30 30 30 40 35 23 
18 20 36 35 35 33 33 31 32 29 27 25 29 27 29 29 27 25 28 29 
29 30 29 30 30 30 30 30 29 11 29 43 49 25 38 40 42 38 35 34 
34 25 8 11 9 6 11 23 28 26 30 30 30 30 30 31 30 30 30 30 
30 2 19 5 16 23 25 25 9 18 3 16 16 16 11 10 8 4 1 1 
14 29 33 33 33 33 33 33 33 33 32 33 32 6 16 3 6 18 2 4 
0 15 5 9 9 17 28 28 46 83 63 14 1 21 33 33 33 33 33 33 
33 33 33 33 32 26 36 25 27 17 2 13 17 28 15 8 4 36 76 81 
110 116 103 63 5 16 32 33 33 33 33 33 33 33 32 31 29 2 32 18 
26 26 33 33 40 38 13 10 60 111 123 124 124 119 108 79 25 13 31 32 
32 32 30 27 25 22 23 18 21 3 26 3 16 27 36 35 0 19 6 23 
78 116 129 128 127 121 111 76 41 11 16 24 23 26 27 29 30 26 16 27 
31 12 31 3 4 26 5 12 3 14 1 24 60 71 68 112 128 65 42 44 
37 11 16 32 34 34 35 35 34 28 15 27 32 8 28 20 28 29 7 12 
30 27 4 13 11 62 11 61 68 40 36 15 9 4 26 35 36 36 36 35 
35 33 28 33 33 20 26 8 30 29 8 16 42 43 41 33 12 8 2 25 
87 10 7 2 27 6 32 36 36 36 36 35 35 34 34 33 31 0 25 7 
21 29 47 49 25 33 35 44 35 2 2 62 98 23 1 3 42 41 36 35 
36 36 34 35 32 28 33 34 26 27 37 17 26 30 41 41 6 15 8 70 
89 81 99 100 112 74 74 66 56 51 38 35 31 9 5 22 18 4 30 28 
7 33 27 25 24 23 23 34 8 10 7 67 87 120 129 89 82 78 121 104 
56 57 34 35 30 4 3 21 22 8 23 24 31 18 0 0 0 0 0 27 
33 33 40 63 83 120 120 112 113 99 112 103 51 49 33 35 31 3 3 19 
22 6 21 33 24 21 0 0 0 0 0 22 18 17 36 37 48 116 109 95 
98 83 103 95 45 41 35 35 32 4 3 17 24 11 20 32 22 22 0 0 
0 0 0 17 7 3 36 14 11 105 117 107 103 97 105 80 48 45 36 33 
33 6 4 19 32 29 10 10 0 23 0 0 0 0 0 16 6 6 37 18 
8 87 107 111 111 97 92 66 52 46 39 30 33 28 14 29 32 17 2 6 
1 23 0 0 0 0 0 14 30 38 38 22 31 73 91 113 110 100 79 59 
44 47 41 29 31 31 20 29 29 17 0 0 0 22 0 0 0 0 1 14 
14 16 26 31 34 73 67 75 88 75 49 67 36 52 38 33 18 18 19 25 
27 9 0 0 0 26 16 17 16 17 17 16 16 19 24 28 45 71 94 85 
85 66 76 96 51 57 26 19 15 10 18 22 25 2 0 0 0 10 7 13 
18 16 4 12 17 21 25 33 62 78 109 99 110 91 104 106 70 54 56 74 
62 44 28 22 16 0 0 0 0 7 14 25 32 30 14 11 21 35 59 77 
73 69 111 113 113 111 120 99 50 43 68 84 82 79 72 45 12 0 0 0 
0 20 16 8 12 22 20 49 79 83 89 81 61 27 88 125 125 124 126 93 
46 55 74 86 83 82 83 80 69 18 0 0 0 28 30 29 30 38 78 88 
89 85 86 82 70 56 73 113 136 136 121 60 56 83 76 88 82 86 90 85 
79 59 8 0 0 34 38 33 31 78 83 92 91 90 86 88 86 77 82 84 
129 134 73 73 83 87 80 86 85 91 90 89 77 74 45 0 0 12 3 0 
43 88 83 91 93 91 92 92 91 92 93 91 89 83 84 91 91 88 86 84 
85 89 90 88 79 81 63 7 0 0 0 10 71 87 86 92 92 91 95 94 
95 95 95 96 75 90 90 92 91 91 90 87 80 89 90 85 82 77 63 33 
