P2 
32 30
151
10 4 8 43 38 37 36 34 33 32 30 28 27 26 24 24 28 25 24 24 
23 21 25 25 25 26 26 27 27 28 29 29 29 12 15 42 38 37 36 35 
34 32 31 30 28 27 26 25 30 27 26 26 24 22 26 27 27 27 28 28 
28 30 30 30 30 20 27 33 37 37 36 35 34 33 31 30 29 28 27 27 
31 28 28 28 26 24 27 28 28 28 28 29 30 31 31 30 31 40 36 23 
18 20 36 36 35 33 32 31 32 29 28 28 32 29 29 29 27 25 29 29 
29 30 30 31 31 31 31 31 30 12 29 44 49 25 39 40 43 38 35 34 
35 34 30 29 33 29 27 30 29 27 31 31 31 31 31 31 31 31 31 31 
31 2 19 5 16 22 24 25 8 17 3 16 9 15 31 31 35 32 32 30 
30 28 31 32 32 32 31 32 32 32 31 32 31 6 16 3 6 17 2 4 
0 14 4 10 6 13 32 32 36 34 34 29 30 29 32 33 32 32 33 33 
33 33 32 32 32 25 36 25 26 16 2 13 17 27 14 16 34 35 32 32 
27 14 17 28 31 29 32 33 33 33 33 33 33 33 33 32 29 2 32 17 
25 25 33 33 39 37 12 10 14 25 34 13 38 86 24 15 27 30 33 33 
32 32 30 28 25 23 24 18 21 3 26 3 16 27 36 35 0 18 4 4 
2 23 5 2 60 78 18 1 15 17 25 25 24 26 28 30 31 28 17 28 
33 12 31 3 4 25 5 12 2 13 0 12 1 25 68 84 98 90 66 31 
30 16 29 33 34 34 35 35 35 29 15 27 33 8 27 20 27 28 6 11 
29 26 3 6 1 43 103 101 102 96 85 86 59 10 33 34 35 35 34 34 
34 33 28 32 33 20 25 8 29 28 8 15 41 43 40 36 24 69 101 99 
109 100 80 81 64 15 21 34 35 35 35 34 34 33 33 33 31 0 25 7 
20 28 46 48 24 32 34 29 21 75 99 104 111 112 92 83 56 23 12 35 
35 36 33 34 31 27 33 33 25 27 37 17 27 31 41 41 6 14 8 11 
28 68 90 99 111 107 91 75 48 29 7 34 31 8 4 22 18 4 30 28 
7 33 28 27 27 26 26 38 7 10 7 9 75 75 83 103 117 111 93 67 
42 51 13 35 31 4 3 21 22 9 24 25 32 19 0 0 0 0 0 33 
35 34 40 43 77 77 80 107 122 115 95 58 49 87 34 36 32 3 4 20 
23 7 22 34 27 23 0 0 0 0 0 26 19 17 36 36 20 60 84 107 
130 119 90 60 57 34 28 35 32 4 3 17 24 11 21 34 25 25 0 0 
0 0 0 19 7 3 36 14 0 58 93 108 136 119 88 72 60 4 24 33 
34 6 4 19 32 29 10 11 0 27 0 0 0 0 0 15 6 6 37 17 
5 55 103 109 139 119 87 83 63 13 38 29 33 28 14 29 32 17 2 6 
3 27 0 0 0 0 0 14 29 37 37 20 29 62 111 113 131 114 97 95 
67 36 40 28 31 30 19 28 29 17 0 0 0 27 0 0 0 0 1 14 
12 13 24 30 34 77 120 118 135 120 108 103 74 49 38 33 18 18 19 24 
28 9 0 0 0 33 24 25 22 19 17 16 15 15 21 27 37 72 102 126 
143 125 119 103 52 45 26 20 16 11 19 23 25 2 0 0 0 12 12 20 
23 18 4 13 15 16 23 41 62 43 73 116 145 132 132 93 47 48 67 70 
62 48 30 22 16 0 0 0 0 9 19 32 36 32 14 11 30 51 75 83 
74 53 72 99 145 140 128 54 60 73 73 80 78 81 75 53 12 0 0 0 
0 22 21 12 15 24 37 68 86 83 86 83 86 74 81 82 126 142 81 73 
78 84 74 83 81 84 85 80 64 17 0 0 0 29 34 35 34 63 83 91 
90 87 85 87 91 91 93 95 91 87 83 92 89 86 84 82 84 89 92 86 
75 64 7 0 0 35 41 39 56 91 85 92 93 90 92 92 94 97 98 102 
86 86 93 93 94 90 92 83 86 90 92 86 76 74 34 0 0 13 3 7 
72 92 87 93 92 91 95 96 97 101 98 100 83 96 93 93 95 92 93 89 
83 90 92 87 82 76 52 3 0 0 0 44 71 90 87 94 94 90 94 98 
97 98 96 95 95 95 92 91 96 92 94 88 82 86 90 87 81 72 60 21 
