P2 
32 30
151
10 4 8 43 38 37 36 35 34 32 31 29 28 26 25 24 28 25 25 25 
23 21 25 26 26 26 27 27 28 28 29 30 30 12 15 42 38 37 36 35 
33 32 31 30 28 27 26 26 30 27 26 26 24 23 26 27 27 27 28 28 
28 30 30 30 31 20 26 33 36 37 36 35 34 33 31 30 29 28 27 26 
30 28 28 27 25 23 27 27 28 28 28 29 30 30 31 30 30 40 35 23 
18 20 36 35 35 33 32 31 32 29 28 28 32 29 29 29 27 25 29 29 
29 30 30 30 31 31 31 31 30 11 29 44 49 25 38 40 42 38 35 34 
35 34 29 29 33 29 27 30 28 27 30 30 30 31 30 31 31 31 31 31 
31 2 19 5 16 22 24 24 8 17 3 16 9 15 31 31 34 31 32 30 
30 28 31 32 32 32 32 32 32 32 31 32 31 6 16 3 6 17 2 4 
0 14 4 10 6 13 30 21 9 1 5 26 30 28 32 32 32 32 32 33 
33 33 32 32 32 25 35 25 26 16 2 12 17 27 14 16 33 31 15 33 
64 63 37 21 30 29 32 33 33 33 33 33 33 33 32 31 29 2 32 17 
26 25 33 33 40 37 12 10 14 11 3 0 19 71 5 3 10 27 33 33 
32 33 30 28 26 23 24 19 21 3 26 3 16 26 36 34 0 18 4 4 
3 11 24 29 56 88 9 7 11 14 25 25 24 26 28 30 31 27 17 28 
32 12 31 3 4 25 5 12 3 13 0 12 8 51 71 84 93 83 66 38 
24 6 28 33 34 35 35 36 35 29 15 27 33 8 28 20 28 29 6 12 
30 27 3 7 9 84 115 104 106 99 81 96 72 10 22 35 36 35 35 35 
35 34 28 33 34 21 26 8 30 29 8 16 42 43 41 36 20 96 113 111 
108 94 94 91 77 21 15 36 36 36 36 36 35 35 34 34 32 0 25 7 
21 29 46 49 24 32 35 29 22 90 112 109 107 97 93 98 68 27 10 35 
36 36 34 34 31 27 33 34 25 27 37 17 27 31 41 41 6 14 8 12 
61 79 105 108 117 114 101 88 61 38 11 35 31 8 4 22 18 4 30 28 
7 33 28 27 27 26 26 36 8 10 7 13 99 69 84 86 102 102 87 70 
46 51 38 35 30 4 3 21 22 8 24 25 32 19 0 0 0 0 0 29 
33 33 39 44 63 68 67 90 104 101 79 52 40 63 44 35 31 3 3 19 
22 6 21 33 25 23 0 0 0 0 0 22 18 17 35 36 16 64 75 96 
109 105 83 53 49 13 35 35 32 3 3 17 23 11 20 33 23 25 0 0 
0 0 0 17 7 3 36 14 0 63 84 98 120 113 86 66 65 21 36 33 
34 6 3 19 32 29 10 11 0 27 0 0 0 0 0 15 5 6 37 18 
5 58 97 100 132 119 86 80 74 36 39 30 34 28 14 29 32 17 2 6 
3 27 0 0 0 0 0 14 29 36 37 20 29 59 107 101 134 119 89 92 
84 45 40 28 31 30 19 28 29 17 0 0 0 27 0 0 0 0 1 14 
12 12 24 30 33 65 115 107 125 113 98 108 87 50 38 34 19 18 19 25 
28 9 0 0 0 32 23 22 20 18 17 16 15 16 22 27 33 79 121 113 
127 121 109 120 85 57 29 23 16 12 19 22 25 2 0 0 0 12 11 18 
22 17 4 13 15 17 23 31 52 75 105 125 135 125 125 118 56 51 55 76 
67 52 31 23 17 0 0 0 0 9 19 30 35 31 14 11 20 34 58 80 
70 36 72 122 138 131 139 109 47 52 72 82 81 82 80 59 24 0 0 0 
0 21 20 11 14 23 19 49 78 83 90 83 76 54 71 97 142 141 137 69 
53 80 77 83 82 85 88 81 76 27 0 0 0 28 34 34 33 38 75 88 
88 88 84 86 87 77 80 80 121 143 89 75 80 89 81 83 85 88 90 87 
80 68 19 0 0 34 40 38 31 78 84 91 93 89 89 89 92 93 91 93 
89 89 82 92 92 88 90 81 84 92 92 89 78 78 55 1 0 13 3 1 
37 87 85 91 94 91 94 94 95 96 98 99 86 85 95 93 94 92 92 85 
82 92 92 88 79 87 63 14 0 0 0 6 71 82 86 91 93 92 92 95 
99 98 97 98 85 92 96 91 94 91 90 87 83 90 94 87 83 80 64 39 
