P2 
32 30
123
10 25 23 22 21 19 18 17 16 15 13 10 8 12 10 11 7 4 7 9 
12 13 14 15 17 18 20 21 22 23 23 23 23 25 24 23 22 21 20 18 
17 16 14 13 13 15 12 14 11 8 10 14 15 16 17 18 19 20 22 22 
23 23 23 24 25 26 24 23 22 21 20 20 19 18 16 14 15 17 13 15 
14 11 14 16 17 18 19 20 21 22 22 23 23 24 24 25 25 24 23 23 
22 21 20 19 18 17 16 15 16 18 12 16 15 12 15 16 17 18 19 20 
20 21 22 23 23 23 23 24 24 25 24 24 23 22 22 21 20 19 18 17 
18 20 15 19 17 15 17 19 19 20 21 22 22 23 24 24 24 24 24 25 
25 25 25 24 24 23 23 22 21 20 19 18 19 21 17 20 19 17 19 21 
21 21 23 24 24 24 25 25 25 25 25 25 25 25 25 25 25 24 23 22 
19 13 6 4 5 10 14 20 20 19 20 22 22 23 24 24 25 26 26 26 
26 25 26 25 25 26 26 26 26 25 23 15 19 2 0 0 0 0 0 4 
18 20 21 23 24 25 25 26 27 27 27 27 26 26 26 26 26 18 27 28 
27 24 7 17 23 14 4 0 0 0 1 1 3 16 22 24 25 26 27 27 
27 27 27 27 27 27 26 26 26 22 28 28 31 11 4 23 57 71 48 4 
4 4 8 12 5 8 24 25 26 26 26 27 27 27 27 27 27 26 26 26 
26 9 16 11 4 5 24 77 106 106 92 20 17 16 19 17 13 12 22 26 
26 26 27 27 28 27 27 27 27 27 26 26 26 4 1 2 0 9 58 104 
111 112 106 35 16 13 15 8 13 14 20 26 26 27 27 27 28 28 28 27 
27 27 27 27 26 4 0 15 9 28 87 111 115 115 110 42 15 12 11 8 
7 4 13 27 28 28 28 29 28 29 28 26 23 20 18 16 14 22 26 25 
26 56 85 109 116 115 104 43 10 8 11 6 11 3 7 27 26 25 25 23 
22 20 19 19 20 22 23 23 22 18 27 17 0 55 87 101 114 113 105 61 
18 5 9 61 17 2 4 20 20 21 24 26 26 25 19 11 27 26 26 26 
24 8 3 5 2 55 96 98 114 116 115 96 47 13 48 104 64 0 8 26 
26 28 28 29 29 27 24 11 27 27 26 26 24 8 3 13 24 49 63 57 
80 91 72 95 61 46 99 93 80 1 11 28 28 29 29 29 29 29 26 25 
27 26 26 25 23 14 4 20 27 18 38 29 40 65 106 116 86 84 110 101 
60 1 16 28 28 29 29 29 29 29 28 27 26 25 23 22 21 24 35 32 
17 15 74 63 60 102 116 115 108 99 112 111 46 4 22 28 28 29 28 27 
28 23 23 27 25 23 21 19 18 25 30 25 1 39 106 81 70 111 118 115 
106 100 104 96 62 7 27 29 29 13 7 7 27 5 13 28 25 21 19 18 
17 20 19 16 0 49 108 82 68 112 117 113 106 101 90 102 85 38 36 29 
29 10 3 5 28 7 8 19 23 20 17 16 15 3 23 15 23 39 48 78 
76 81 107 110 105 100 76 101 89 67 67 58 30 9 1 4 27 4 2 8 
16 18 16 14 13 1 25 21 10 22 34 65 80 66 97 103 102 91 72 103 
91 72 69 99 68 37 13 4 28 7 6 13 15 16 15 14 13 0 25 22 
0 10 24 51 96 94 83 95 89 67 81 106 93 84 79 105 110 115 114 91 
65 20 1 6 9 22 14 13 12 0 23 14 0 19 61 64 90 102 83 79 
64 68 93 111 97 93 82 108 113 115 115 114 114 105 38 9 1 10 11 15 
14 0 21 21 59 91 92 73 84 86 68 61 63 95 110 114 101 99 76 114 
110 114 115 114 114 115 108 29 1 2 31 30 30 0 20 53 112 109 90 95 
70 65 50 39 61 107 112 115 103 99 89 105 111 115 115 115 115 114 114 100 
8 4 31 29 29 17 24 105 116 118 99 102 107 89 87 89 83 88 104 114 
107 103 114 109 114 115 115 115 115 114 114 114 44 3 29 29 29 3 44 115 
115 118 118 118 118 105 90 109 107 113 106 113 114 114 108 113 114 114 113 114 
114 114 113 113 96 8 22 27 27 9 81 115 114 118 118 117 117 117 98 98 
106 117 117 116 115 106 104 115 114 114 114 114 114 109 113 113 112 32 7 24 
