P2 
32 30
136
10 27 26 24 22 21 20 18 17 16 14 12 11 14 14 14 11 8 10 12 
15 16 16 18 19 21 22 23 25 26 25 26 26 27 26 25 23 22 21 19 
18 17 16 15 16 18 14 17 14 11 13 16 17 18 19 20 21 22 24 24 
25 25 26 26 27 27 26 25 24 23 22 21 19 18 17 17 18 20 15 18 
17 15 16 18 20 21 21 22 23 24 24 25 26 26 27 27 27 27 27 26 
25 24 22 21 21 20 19 18 20 22 16 20 19 17 20 21 21 22 22 24 
25 25 26 27 27 27 27 27 28 28 27 27 26 25 24 23 22 21 20 20 
22 24 19 22 21 20 21 23 23 24 25 26 26 27 27 28 28 28 28 28 
28 28 27 27 26 26 25 24 23 22 21 20 20 24 21 22 19 20 22 24 
25 25 26 27 27 28 28 28 28 28 28 28 28 27 27 27 26 26 25 25 
24 23 22 13 11 14 17 13 5 14 23 25 25 26 27 27 28 29 29 29 
29 28 28 28 28 27 27 27 27 27 26 26 25 24 17 2 5 15 22 13 
20 22 14 25 26 27 27 28 29 30 30 30 29 28 28 28 28 19 28 30 
29 28 27 26 29 26 6 0 3 18 46 71 94 73 25 24 28 28 28 29 
30 30 29 29 29 29 28 28 27 22 30 30 33 29 27 29 26 23 2 13 
49 106 117 117 115 91 54 15 27 28 28 29 29 29 28 28 29 28 27 27 
27 10 17 11 4 12 0 8 8 2 23 76 108 119 119 118 118 105 70 12 
26 29 29 29 30 30 30 29 29 29 29 29 28 4 1 3 0 13 4 8 
6 3 12 69 109 120 120 120 119 113 78 12 21 31 31 32 32 32 32 31 
31 30 30 30 30 5 0 17 18 25 13 14 31 26 2 44 59 58 101 115 
62 65 37 6 23 31 32 32 32 32 32 29 25 22 20 18 16 23 28 27 
32 26 9 8 10 23 3 11 45 2 22 44 3 55 7 6 24 29 28 27 
25 24 22 22 23 25 26 26 25 19 30 18 0 15 2 3 1 37 27 2 
0 0 22 80 2 1 0 13 35 25 28 29 30 28 21 14 30 30 30 29 
27 9 3 5 2 11 0 9 1 42 54 16 0 2 61 98 26 1 5 53 
47 33 33 33 33 32 28 13 30 29 29 28 26 8 3 14 26 20 3 6 
1 34 56 86 83 83 89 106 83 92 104 83 43 32 32 32 33 32 29 28 
30 29 27 25 23 15 4 22 35 35 34 31 29 33 58 91 104 93 82 90 
87 99 106 73 33 33 33 32 32 32 32 31 30 28 25 23 20 26 37 35 
17 30 26 25 24 25 34 86 88 77 96 102 94 79 99 57 33 33 32 32 
32 27 27 31 29 27 23 20 18 25 31 26 0 17 2 11 10 7 7 74 
115 87 94 106 86 98 101 44 32 15 8 9 30 6 15 31 28 25 20 18 
17 16 18 17 0 13 1 9 10 5 6 41 94 99 104 111 106 96 73 33 
32 11 4 6 30 9 10 23 27 23 19 17 16 2 19 15 24 32 31 34 
30 37 26 29 60 88 111 115 110 78 51 34 32 11 2 6 31 6 3 10 
21 22 19 16 15 0 20 23 11 23 29 30 24 32 29 38 52 56 96 115 
99 61 48 48 33 13 4 6 31 9 8 17 21 22 18 17 16 0 20 23 
0 10 26 10 0 28 35 49 56 61 52 53 59 85 47 88 99 78 52 28 
26 15 1 8 12 28 19 16 15 0 17 14 0 12 29 32 70 105 98 82 
56 81 83 101 97 107 60 114 114 120 119 118 110 69 18 11 2 11 14 18 
17 0 16 21 32 63 101 123 124 123 106 109 72 108 96 106 113 114 81 118 
116 121 120 120 120 120 93 19 1 2 35 34 33 0 16 21 70 122 124 124 
124 124 112 107 92 109 114 115 117 92 92 110 120 121 121 121 121 120 120 86 
6 5 34 33 33 10 15 56 121 122 123 123 123 123 116 102 98 91 119 119 
118 101 106 116 120 120 120 119 119 119 118 117 35 4 31 31 31 1 11 97 
123 123 123 123 122 122 121 111 104 103 120 121 111 107 104 120 119 119 118 119 
119 118 118 118 93 9 24 30 30 5 35 113 123 123 122 123 123 122 122 121 
116 96 116 121 120 121 119 120 119 119 119 119 119 111 118 118 115 34 8 26 
