P2 
32 30
123
10 24 22 21 20 18 17 15 13 12 11 9 7 11 10 11 8 4 7 10 
13 14 15 16 17 18 20 20 21 22 23 23 23 23 23 21 20 19 17 16 
15 13 12 10 11 14 11 13 10 7 10 14 15 16 17 18 19 20 20 21 
22 22 22 23 23 24 22 21 20 19 18 17 15 15 14 13 14 16 11 15 
14 11 14 16 18 19 19 20 20 21 21 22 23 23 23 24 24 25 24 23 
22 22 20 19 18 17 16 15 17 19 14 18 17 15 18 20 21 22 22 23 
23 24 25 25 25 25 25 26 26 24 24 24 23 22 21 20 19 18 17 17 
18 20 16 20 19 17 19 21 21 22 23 24 24 25 25 26 26 26 25 25 
25 25 24 24 23 22 22 21 20 19 18 18 19 22 17 20 17 16 15 17 
21 23 24 25 25 25 26 26 26 26 26 25 25 25 24 24 24 23 22 22 
21 20 19 18 21 24 15 12 16 14 7 6 5 10 22 25 26 26 27 27 
26 26 26 26 25 25 25 24 24 24 23 23 22 21 21 19 22 18 7 8 
12 10 8 6 7 2 5 23 27 27 27 28 27 26 26 26 26 17 25 26 
26 25 24 23 26 23 22 21 15 10 4 7 8 7 14 18 11 4 2 12 
28 28 27 27 27 27 26 26 26 20 27 27 30 26 25 26 23 24 23 15 
13 10 5 13 17 17 41 29 20 9 1 1 22 28 27 27 28 27 26 26 
26 9 15 10 3 10 0 8 7 7 24 12 11 12 8 17 20 19 68 105 
79 52 29 19 20 28 29 28 28 27 27 27 26 3 1 2 0 10 3 6 
5 7 25 9 6 12 11 9 13 24 54 109 114 114 110 75 30 29 29 28 
28 28 28 27 27 3 0 14 16 21 10 11 27 28 26 10 6 12 7 4 
2 16 31 97 114 113 112 88 33 29 29 26 23 20 18 16 14 20 25 24 
29 22 6 5 8 22 25 6 11 8 37 24 9 16 42 105 113 113 105 97 
35 21 20 20 21 23 24 24 22 16 26 16 0 13 2 2 1 24 22 3 
8 13 107 76 33 35 81 77 88 87 55 61 39 26 20 12 28 28 28 27 
25 8 3 5 1 10 0 8 1 25 13 3 4 25 112 96 54 66 113 111 
65 64 36 50 21 30 26 12 29 28 28 27 26 7 3 13 24 18 3 5 
1 18 5 8 2 19 105 105 105 96 115 115 110 75 64 80 33 31 28 27 
29 29 28 27 25 13 4 20 32 32 32 29 27 29 22 18 2 17 90 107 
112 97 111 115 115 87 76 102 73 31 30 30 30 28 27 26 24 25 35 32 
16 29 25 24 22 23 25 29 4 18 78 104 105 101 112 116 116 112 75 93 
88 26 27 31 30 29 27 26 23 22 27 24 0 15 2 10 9 6 4 17 
10 42 99 97 79 101 113 115 114 91 86 67 35 6 14 30 28 27 25 23 
20 14 15 14 0 11 1 9 9 4 5 15 24 67 102 103 65 102 113 111 
107 73 87 53 29 8 12 22 28 26 24 21 16 1 16 14 22 30 29 31 
28 35 24 41 34 79 105 107 66 87 106 106 96 95 98 38 29 7 4 11 
22 26 24 20 15 0 16 20 10 20 26 27 22 30 29 72 43 87 105 112 
80 58 76 93 91 100 100 29 29 9 11 16 22 25 22 18 15 0 14 20 
0 10 24 24 50 85 85 71 71 93 104 113 98 78 59 58 74 86 95 48 
32 17 2 8 13 29 19 15 14 0 12 12 1 43 96 117 118 118 99 82 
84 97 106 117 110 105 81 46 48 55 79 96 100 76 23 10 2 11 13 16 
16 0 10 23 92 119 119 118 118 118 96 104 83 105 105 116 114 111 80 62 
78 78 114 108 112 115 95 18 1 2 32 31 31 0 11 84 117 119 118 118 
118 118 103 113 84 113 107 116 114 96 88 103 101 113 115 115 115 114 114 78 
5 4 31 30 29 7 33 115 117 118 118 118 118 118 110 94 94 109 110 116 
110 108 103 115 110 114 115 114 114 114 113 113 23 3 29 29 29 0 65 119 
116 119 118 118 118 118 106 100 110 112 114 116 116 116 108 113 115 115 114 114 
114 114 114 114 86 8 22 29 28 8 104 117 115 119 118 118 118 118 117 102 
102 107 118 117 117 115 95 115 115 115 115 114 115 108 114 113 110 12 7 25 
