P2 
32 30
124
10 25 23 22 20 19 18 16 15 14 13 11 9 12 10 11 8 4 6 9 
12 13 14 15 16 18 19 21 21 22 23 23 24 24 23 22 21 20 18 17 
16 15 14 12 13 15 12 13 11 7 10 13 14 15 16 17 19 20 21 21 
22 23 23 23 24 24 24 23 21 21 19 18 17 16 15 14 16 17 12 15 
13 11 13 15 17 17 18 19 20 21 21 22 23 24 24 24 24 25 24 23 
23 22 20 19 18 17 17 16 17 19 13 17 16 14 16 18 18 19 20 21 
21 22 23 24 24 24 24 25 25 25 25 24 24 23 22 21 20 19 18 17 
19 21 16 19 18 16 18 19 20 20 22 22 23 24 24 25 25 25 25 25 
25 25 25 24 23 22 22 21 20 19 19 18 20 22 16 20 19 17 19 20 
21 21 22 23 23 24 25 25 25 25 25 25 25 25 25 24 24 23 23 22 
22 19 18 19 9 4 7 16 19 19 20 22 22 22 23 24 25 25 26 26 
25 26 25 25 25 26 26 26 25 25 24 24 18 9 17 36 29 5 0 0 
6 17 22 23 24 24 25 26 27 27 27 27 26 26 26 25 26 18 26 27 
27 26 25 21 13 38 83 94 86 32 1 0 0 1 17 24 25 26 26 27 
27 27 27 27 27 26 26 26 25 21 28 29 31 28 26 12 36 90 104 104 
103 40 6 3 3 1 2 20 26 26 26 27 28 28 27 27 27 27 26 26 
26 9 16 11 4 11 0 10 76 102 108 108 100 31 12 12 12 13 6 7 
26 27 27 28 28 28 28 27 27 27 27 27 27 4 1 2 0 11 4 35 
87 104 112 112 98 35 14 9 12 11 13 4 26 28 28 29 29 29 29 28 
28 28 28 28 27 4 0 16 16 23 11 49 74 46 55 67 71 30 7 6 
11 10 15 11 26 28 29 29 29 29 29 26 23 20 18 16 14 21 26 24 
29 22 6 35 2 2 53 89 91 58 6 3 47 15 7 4 23 25 24 22 
21 19 19 18 19 21 22 22 21 17 27 17 0 14 1 4 0 1 59 113 
115 72 20 57 99 50 10 4 18 21 24 26 26 25 18 11 27 26 27 26 
24 8 3 5 2 10 1 63 9 0 68 112 116 90 66 104 94 65 3 3 
27 28 29 29 29 28 25 11 27 26 26 25 24 8 3 13 25 19 31 101 
62 46 106 117 117 111 102 105 100 41 3 8 29 29 29 29 30 29 26 25 
27 26 24 23 22 13 4 21 33 33 51 79 95 88 117 117 116 104 104 111 
102 16 2 18 28 29 30 29 30 29 28 27 26 24 22 20 20 25 35 33 
16 29 26 60 100 89 113 118 115 103 99 102 90 23 5 25 29 30 30 29 
29 24 24 27 25 22 19 18 17 24 29 25 0 16 2 57 96 88 111 116 
113 103 87 102 104 30 9 29 29 13 6 7 28 4 12 27 23 19 17 16 
15 18 18 16 0 12 1 43 103 99 104 111 108 99 76 107 103 45 19 28 
29 9 3 4 28 7 7 19 22 18 15 14 14 2 20 14 23 31 30 51 
91 93 94 96 88 73 88 112 101 64 49 44 29 9 1 3 28 4 2 8 
16 17 15 14 13 1 21 22 10 21 27 36 66 74 78 69 68 85 103 115 
102 72 74 84 31 11 2 4 28 6 6 13 15 17 15 14 13 0 19 21 
0 9 24 9 16 39 44 45 90 111 112 117 103 78 71 106 99 87 65 40 
32 11 1 6 9 23 14 14 13 0 17 13 0 11 26 19 44 78 72 52 
76 112 117 117 103 87 67 112 112 116 115 114 112 83 22 9 1 10 11 15 
14 0 16 19 30 50 86 112 113 111 86 97 69 91 115 117 104 92 76 113 
112 116 115 115 115 115 100 22 1 2 31 30 30 0 14 18 50 113 119 119 
118 115 96 107 85 96 102 113 106 87 103 94 115 116 115 115 115 115 114 95 
9 4 30 30 29 9 14 42 115 117 119 118 118 115 101 95 104 105 110 106 
104 106 107 113 115 115 115 115 115 114 114 113 47 3 28 28 28 1 10 81 
117 118 118 118 118 117 110 99 104 97 116 109 104 102 102 115 115 115 114 114 
114 114 114 114 97 12 21 27 27 5 23 105 119 119 118 119 119 119 118 115 
113 98 113 117 117 117 116 117 116 116 115 115 116 109 115 115 113 44 7 25 
