P2 
32 30
128
10 26 25 23 21 20 18 17 16 14 13 11 9 13 12 12 9 6 8 11 
13 14 15 17 18 19 21 22 23 24 24 25 25 27 25 24 22 22 20 18 
17 16 15 14 14 17 13 16 13 10 12 15 17 18 19 20 21 22 23 24 
25 25 26 26 26 27 26 25 23 22 21 20 19 18 16 15 17 19 15 17 
16 13 16 19 19 20 21 22 23 24 24 25 26 26 26 26 27 27 26 25 
24 23 22 21 19 19 18 17 19 21 15 20 18 16 19 20 21 22 22 23 
24 25 26 26 26 26 27 27 27 27 26 26 25 24 23 22 21 21 19 19 
20 23 18 22 20 18 21 22 23 23 24 25 26 26 27 27 27 27 27 28 
27 27 27 27 26 25 24 24 23 22 21 20 22 25 19 23 22 20 23 24 
24 25 26 27 27 27 28 28 28 28 28 28 28 28 27 27 26 26 25 24 
23 23 22 21 23 25 21 25 23 21 23 25 25 26 27 27 28 28 29 29 
28 28 28 28 27 26 26 26 26 25 25 24 23 22 22 21 23 24 19 16 
15 21 23 25 25 26 27 27 28 28 28 28 27 27 27 26 27 18 27 28 
27 26 26 25 28 25 23 23 20 27 54 58 42 26 24 26 27 27 28 28 
29 29 28 28 28 28 28 27 27 22 29 29 33 29 27 28 25 26 25 22 
15 73 77 83 74 71 31 28 28 28 28 29 29 30 29 28 29 28 28 28 
27 10 17 11 4 11 0 9 7 8 26 21 42 58 59 80 75 48 44 35 
29 29 29 30 30 30 30 29 29 29 29 29 28 4 1 2 0 12 4 7 
6 7 26 20 54 65 69 85 92 64 53 31 30 30 30 31 31 31 31 30 
30 29 29 30 28 4 0 16 17 24 12 13 31 31 16 13 75 87 88 71 
74 81 81 34 29 30 31 31 31 31 31 28 24 22 20 18 15 22 27 26 
31 25 8 7 10 24 12 21 95 113 86 94 94 88 113 56 24 28 27 26 
23 22 21 21 22 24 25 25 24 18 28 18 0 15 2 3 1 26 10 32 
103 111 79 101 102 79 109 86 17 24 26 28 29 27 21 13 29 29 29 28 
26 8 3 6 2 11 0 9 1 27 13 35 96 104 95 104 99 91 104 83 
16 31 32 32 33 31 27 13 30 29 29 28 27 8 4 14 26 20 3 6 
1 21 43 54 89 89 76 102 111 86 81 79 33 33 33 33 33 32 30 28 
30 30 29 28 26 14 4 22 34 34 33 30 29 31 51 59 76 79 70 80 
86 74 63 71 54 32 32 32 32 32 31 31 30 29 27 25 23 26 36 34 
17 29 26 25 23 24 40 53 62 59 64 77 86 73 64 61 49 32 31 31 
31 26 27 31 29 26 23 21 19 25 30 26 0 17 2 11 10 7 6 5 
47 55 69 89 89 72 56 37 33 15 8 9 30 6 15 31 28 25 21 19 
18 17 17 16 0 12 1 9 10 5 5 7 67 66 77 103 101 79 59 35 
32 11 4 6 30 9 10 22 27 23 19 16 16 1 18 15 24 32 31 33 
30 37 26 28 87 80 85 118 112 86 77 49 32 12 2 5 29 6 2 10 
20 21 18 16 14 0 17 22 10 22 28 29 24 32 29 60 98 95 91 115 
110 92 96 96 64 34 3 5 30 8 7 15 18 19 17 15 14 0 16 23 
0 10 26 12 25 72 79 97 107 107 98 111 113 102 101 118 108 119 94 59 
41 14 1 8 12 26 17 16 15 0 13 14 0 17 71 106 122 122 110 110 
111 107 108 120 117 107 91 116 117 119 119 118 118 88 25 11 2 11 13 17 
17 0 11 20 58 115 122 122 122 122 117 112 96 93 109 117 114 94 93 115 
115 119 118 119 118 118 99 18 1 2 34 32 33 0 10 45 115 123 122 122 
122 122 121 109 110 85 93 117 115 103 84 116 119 119 119 119 118 118 118 79 
5 4 33 32 32 8 11 97 122 122 122 122 122 122 121 119 117 99 101 108 
102 119 106 119 119 119 118 118 118 118 118 115 19 4 31 31 31 0 29 116 
122 120 122 122 122 121 121 121 120 111 111 94 115 119 118 119 119 118 117 118 
118 117 117 117 87 8 24 30 30 3 70 119 122 119 122 122 121 121 121 121 
121 119 118 104 120 119 119 119 118 118 118 118 118 111 118 117 113 14 8 26 
