P2 
32 30
122
10 23 21 20 18 17 16 14 13 12 10 8 7 10 10 10 7 5 8 10 
12 13 14 15 16 17 19 20 21 22 22 22 22 24 23 21 20 19 18 16 
15 14 13 12 12 14 11 13 12 9 11 15 16 17 17 18 19 20 21 22 
22 23 23 23 24 23 22 21 20 19 18 17 16 15 14 13 14 16 12 15 
14 12 14 17 18 18 19 19 20 21 21 22 23 23 23 23 24 23 22 21 
21 19 18 18 17 16 15 14 16 18 12 17 16 14 17 18 19 19 20 21 
21 22 23 23 24 24 23 23 24 23 22 22 21 21 20 19 18 17 16 15 
17 20 15 19 15 10 14 15 20 21 21 22 23 24 24 24 24 24 24 24 
24 23 23 22 22 21 20 19 19 18 17 16 18 21 15 11 8 10 6 4 
9 21 23 24 24 24 25 25 25 25 25 24 24 23 23 22 22 22 21 20 
20 19 18 18 19 11 9 9 13 15 11 10 7 9 24 24 25 25 26 26 
25 25 25 24 24 23 23 23 23 23 22 21 21 20 20 19 8 6 8 16 
19 19 18 11 13 6 16 25 26 27 27 26 26 26 25 25 24 15 24 25 
24 23 23 23 25 22 21 12 2 10 15 24 84 99 97 100 100 76 32 26 
26 26 26 26 26 26 25 24 24 18 25 26 29 25 24 25 22 23 18 5 
2 8 17 21 80 109 111 111 110 95 50 27 27 27 26 26 26 25 25 25 
25 8 14 10 3 10 0 7 6 7 13 2 1 5 10 13 47 106 111 111 
111 103 64 27 27 27 27 26 26 26 26 25 25 2 0 2 0 10 2 6 
5 6 10 1 7 5 4 10 47 103 104 91 69 83 79 30 28 28 28 27 
27 27 27 27 25 3 0 14 15 21 10 11 27 28 14 2 18 39 9 18 
62 61 57 59 37 52 43 16 28 29 29 26 23 20 18 16 14 19 24 23 
28 21 6 5 7 22 18 3 75 98 54 39 101 107 91 86 65 88 53 20 
28 21 19 19 21 22 23 23 21 15 25 16 0 13 1 1 1 23 15 1 
80 101 80 57 99 106 107 81 80 83 99 27 47 25 19 12 28 26 26 26 
24 7 2 5 1 10 0 7 1 24 9 0 50 105 100 77 92 107 112 105 
78 99 105 67 39 29 25 12 28 27 27 26 24 6 2 12 22 17 2 5 
0 18 5 4 11 102 104 84 92 109 113 107 91 93 69 60 31 30 27 27 
29 28 27 25 22 11 3 18 29 30 29 26 24 27 20 14 1 56 88 73 
92 105 109 83 91 98 70 50 29 29 28 28 27 26 24 22 19 21 31 29 
14 25 22 21 20 20 22 26 4 61 76 60 95 103 103 101 103 85 73 39 
29 23 24 28 27 26 23 20 17 20 25 22 0 14 1 9 8 6 4 16 
17 60 81 59 90 101 101 101 112 108 65 9 27 6 14 29 27 25 22 19 
15 12 13 14 0 11 0 8 9 4 5 14 26 62 90 61 64 87 96 100 
109 107 45 6 28 8 10 21 27 25 21 17 14 1 14 12 20 27 27 30 
26 33 22 22 34 64 101 83 57 55 71 84 94 104 59 6 28 6 3 10 
21 24 20 16 13 0 15 19 9 19 25 25 21 28 26 37 47 68 100 103 
79 75 62 62 60 68 63 28 31 10 9 16 20 24 19 15 13 0 14 18 
0 8 22 8 1 43 64 87 56 75 98 110 101 105 70 36 69 102 102 100 
101 86 37 9 12 27 17 13 13 0 11 10 0 9 33 61 101 115 101 102 
67 86 91 111 102 107 82 87 105 110 113 112 112 112 112 85 9 10 12 15 
15 0 9 15 27 63 110 115 116 116 103 104 75 97 89 112 107 94 83 110 
105 112 112 112 112 112 112 111 89 11 31 29 29 0 9 14 44 109 116 116 
116 116 105 105 93 96 94 111 110 98 94 90 108 113 113 112 112 112 112 112 
112 63 31 29 29 5 8 15 98 114 116 116 116 116 105 100 107 96 104 112 
112 102 111 107 112 113 113 112 112 112 112 112 111 104 34 29 28 0 4 33 
114 113 116 115 116 115 110 103 107 109 112 110 110 102 98 113 113 112 111 112 
112 111 111 111 111 111 57 28 27 1 4 64 114 112 116 115 115 115 114 109 
107 86 114 114 113 113 112 112 112 112 112 111 111 111 105 111 110 110 88 25 
