P2 
32 30
126
10 25 24 22 21 19 17 16 15 13 12 10 8 12 11 12 8 6 8 11 
13 14 15 16 18 19 21 22 23 23 24 24 24 25 24 22 21 20 18 17 
16 15 14 12 13 16 12 14 12 9 12 15 17 17 18 19 20 21 22 23 
24 24 24 24 25 25 24 23 22 21 19 18 17 16 15 14 15 18 13 16 
15 13 15 18 19 20 20 21 22 23 23 24 25 25 25 25 25 25 25 24 
23 22 20 20 19 17 16 16 17 20 14 18 17 15 18 20 20 21 21 23 
23 24 25 25 26 25 25 26 26 25 25 24 23 22 22 21 19 18 18 17 
19 21 16 20 19 17 19 21 21 22 23 24 24 25 25 26 26 26 25 26 
26 25 25 24 24 23 22 21 20 20 19 18 20 23 18 21 16 15 20 23 
23 23 24 25 25 26 26 26 26 27 27 26 26 25 25 25 25 24 23 23 
22 21 20 19 22 21 17 13 8 6 5 6 19 25 25 26 27 27 28 28 
27 27 27 27 26 26 26 26 26 25 24 24 23 22 22 21 15 10 13 8 
9 10 8 4 5 23 27 27 28 28 29 28 28 27 27 27 27 18 26 27 
27 25 25 24 27 24 22 16 4 5 5 9 20 24 13 8 2 5 27 28 
28 29 28 28 28 28 27 27 26 21 28 28 31 27 25 27 24 25 19 7 
1 9 13 16 59 64 52 36 29 21 24 28 28 29 28 28 28 27 27 27 
27 9 15 11 3 10 0 8 7 7 11 5 3 11 17 19 69 111 115 115 
108 73 30 29 29 29 29 28 28 28 27 27 27 3 0 2 0 11 3 6 
5 4 5 4 4 6 9 17 34 91 116 116 112 88 37 29 29 29 29 29 
28 28 28 28 27 3 0 14 16 22 11 11 28 25 3 1 10 4 3 7 
16 58 63 55 51 81 46 29 29 30 29 27 23 20 18 16 14 21 26 24 
30 23 6 5 8 23 4 7 10 43 7 11 56 92 85 38 2 5 34 22 
23 22 20 20 21 24 24 24 23 18 28 18 0 14 2 2 1 25 3 8 
60 103 70 30 101 117 112 43 0 3 5 18 29 27 21 13 30 29 29 28 
26 8 3 5 1 11 0 8 1 26 3 3 69 108 91 53 110 116 114 52 
1 30 63 23 32 31 27 13 29 29 28 28 26 7 3 13 24 18 2 5 
0 19 2 0 41 109 102 95 106 116 116 104 50 88 104 47 32 31 28 27 
30 29 27 26 24 13 4 20 33 33 32 29 27 29 18 1 15 101 111 96 
101 117 116 116 102 101 82 45 31 31 30 30 29 28 26 24 21 24 35 32 
16 29 25 23 22 23 24 6 10 78 98 85 99 116 117 116 102 97 61 30 
31 26 26 30 28 27 24 21 18 23 29 24 0 15 2 11 9 6 4 10 
19 93 99 67 102 115 117 113 92 99 56 9 29 6 14 30 28 25 22 19 
17 14 15 15 0 12 1 9 9 5 5 16 35 88 106 63 94 108 112 106 
103 109 47 6 29 9 10 22 27 24 20 17 15 1 16 14 23 30 30 32 
29 36 24 26 48 87 113 80 60 79 94 95 96 99 45 6 29 6 3 11 
22 23 19 16 14 0 17 21 10 21 27 28 23 30 27 48 58 83 115 104 
82 63 56 73 81 74 19 5 29 8 8 16 20 22 18 15 14 0 15 20 
0 10 24 9 0 29 44 71 77 83 115 111 105 101 42 36 68 68 44 24 
24 14 1 8 12 26 17 15 13 0 12 12 0 10 28 40 87 113 99 92 
81 87 114 117 112 95 50 91 100 111 107 111 108 65 15 10 2 11 12 16 
15 0 10 18 30 65 104 121 120 120 101 109 84 97 109 119 112 93 73 113 
107 117 117 117 117 117 85 16 1 2 33 31 31 0 10 19 77 120 121 121 
121 121 108 102 93 103 108 118 110 102 89 100 113 118 117 117 117 117 116 75 
5 4 32 31 31 7 9 66 119 120 121 121 120 120 113 99 96 98 108 118 
117 103 116 110 117 117 117 117 117 116 116 113 23 4 30 30 30 0 10 104 
121 121 121 120 120 120 119 109 103 106 110 118 115 105 101 117 118 117 116 117 
117 116 116 116 86 8 23 30 29 2 44 112 121 121 120 120 121 120 120 119 
114 96 115 119 118 118 117 118 117 117 117 117 117 110 116 116 111 24 8 26 
