P2 
32 30
120
10 23 22 21 19 18 17 16 15 13 12 10 9 12 10 10 7 4 6 9 
11 12 13 14 16 17 19 20 21 21 21 22 23 22 21 20 19 18 16 15 
14 13 13 12 12 13 10 12 10 6 8 11 13 13 14 15 17 17 18 19 
20 20 20 20 21 22 21 20 19 18 17 16 15 15 13 13 14 16 11 13 
12 10 11 14 14 15 16 17 18 18 19 20 21 21 21 21 22 23 22 21 
20 20 19 18 17 16 15 15 16 18 12 16 14 12 15 16 17 17 18 19 
19 21 21 22 22 22 22 22 22 23 23 22 22 21 20 19 18 17 16 16 
17 19 15 18 17 15 16 18 18 19 20 21 21 22 22 23 23 23 23 23 
23 23 23 22 22 21 21 20 19 18 13 18 16 4 3 9 16 16 18 20 
20 20 21 22 22 22 23 23 23 23 23 23 23 24 24 24 23 23 22 21 
20 7 10 21 32 20 3 0 1 8 19 21 21 22 23 23 24 24 25 25 
24 24 25 24 24 24 24 24 23 23 22 22 8 24 46 87 95 82 28 0 
0 0 4 19 22 23 23 24 24 25 25 25 24 24 24 23 23 17 25 26 
25 24 23 18 9 67 98 106 106 101 48 6 2 3 1 6 22 24 24 24 
25 25 25 24 24 24 24 24 23 19 26 26 30 26 24 19 49 91 106 109 
108 105 44 16 12 13 9 3 14 24 24 25 25 25 25 24 24 24 24 23 
23 8 15 10 3 10 0 11 76 99 109 111 110 101 44 18 14 15 11 10 
8 25 25 25 26 26 26 25 25 25 25 24 24 3 0 2 0 11 3 19 
84 104 110 112 111 96 42 13 9 8 9 13 11 26 26 26 27 27 27 26 
26 25 25 26 24 3 0 14 15 21 10 28 68 50 72 97 111 109 60 13 
6 5 8 9 10 26 26 26 26 27 26 24 20 18 16 14 12 20 24 23 
28 22 13 11 43 44 49 53 57 71 61 15 6 54 32 8 6 24 23 22 
20 19 18 17 18 20 21 21 20 16 25 16 0 13 25 15 67 70 40 84 
108 111 72 26 81 100 71 5 6 20 22 24 25 23 17 10 25 25 24 24 
22 7 3 5 1 9 29 47 84 81 72 101 112 111 99 73 100 88 77 1 
11 26 27 27 27 26 22 10 25 24 23 22 21 7 2 12 22 17 17 92 
105 74 86 110 112 111 103 96 103 102 38 1 18 26 27 26 27 27 24 23 
25 23 22 20 18 12 4 19 30 31 30 53 78 93 90 113 112 110 97 97 
111 95 9 4 26 27 27 27 28 27 26 26 25 23 21 19 16 23 33 31 
15 27 24 35 79 106 90 111 113 109 98 90 93 81 12 14 28 29 28 27 
27 23 23 27 25 23 20 17 15 23 27 23 0 15 2 13 65 89 87 110 
112 108 98 76 95 93 17 23 28 12 6 6 26 4 12 26 24 21 17 15 
13 16 17 14 0 11 1 10 70 111 100 104 107 102 90 68 101 91 36 30 
27 8 2 3 26 6 7 19 23 19 16 13 12 2 18 13 21 29 28 31 
76 106 98 91 90 77 62 83 106 89 61 59 28 9 1 3 26 4 2 8 
18 19 16 13 12 0 20 20 9 19 25 26 59 79 67 64 57 63 82 98 
109 89 67 81 69 40 28 10 26 7 6 13 17 18 14 12 11 0 18 19 
0 9 22 8 12 51 53 23 51 95 105 106 112 90 75 79 107 109 111 107 
87 54 5 6 9 22 13 12 11 0 16 12 0 11 48 65 82 88 81 46 
56 95 108 112 112 93 77 86 110 111 111 111 111 111 93 20 1 10 10 14 
13 0 15 18 48 101 112 114 114 113 84 84 64 76 101 112 112 97 70 102 
109 110 111 111 111 111 110 94 10 1 29 28 28 0 14 30 101 115 115 114 
114 114 95 108 63 102 91 104 111 100 84 108 102 111 111 111 111 111 110 110 
61 3 28 27 27 9 14 84 111 115 114 114 114 113 103 91 85 103 109 105 
110 100 108 110 109 110 111 111 111 110 110 109 100 6 27 26 26 1 19 106 
113 113 114 114 114 113 101 96 110 107 113 112 111 107 93 110 111 111 110 110 
111 110 109 110 110 43 20 26 26 5 45 111 115 111 115 114 114 114 113 99 
101 92 113 114 113 109 106 112 111 112 111 110 111 111 108 110 110 82 7 23 
