P2 
32 30
125
10 24 23 21 20 18 17 16 15 14 12 10 9 12 10 11 7 4 6 9 
11 12 14 15 16 18 19 20 21 22 22 23 23 24 23 22 21 20 19 17 
16 15 14 13 13 15 12 14 11 8 10 13 15 15 16 18 19 20 21 22 
22 23 23 23 24 24 23 23 21 20 19 18 17 16 15 14 15 17 13 15 
14 11 13 15 16 18 18 19 20 21 21 23 23 23 24 24 24 25 24 23 
22 21 20 19 18 17 16 15 17 19 13 17 16 14 16 17 18 19 19 21 
21 22 23 23 24 24 24 24 25 25 24 24 23 22 21 20 19 18 17 17 
19 21 16 19 18 16 18 19 20 20 21 22 23 23 24 25 24 25 25 25 
25 25 25 24 24 23 22 22 21 20 19 19 20 21 17 21 20 18 20 21 
22 22 23 24 24 24 25 25 26 25 25 25 25 25 25 25 24 24 23 22 
22 20 11 13 18 7 0 6 15 18 20 22 23 23 24 24 25 26 26 26 
26 25 26 25 25 25 25 25 25 24 24 23 22 15 18 46 63 50 10 0 
0 5 18 23 24 24 25 25 26 26 26 26 26 25 25 25 25 17 26 27 
26 25 25 24 10 25 73 97 99 92 34 1 0 0 2 20 24 25 25 26 
26 26 26 26 26 25 25 25 25 20 27 28 31 27 25 26 12 72 100 106 
105 102 32 8 4 4 1 5 24 25 26 26 27 27 26 26 26 26 25 25 
25 9 15 10 3 10 0 8 44 88 104 109 108 94 25 11 10 12 12 3 
15 25 26 26 27 27 27 26 26 26 25 26 25 3 0 2 0 11 3 6 
63 95 87 96 110 91 30 11 5 10 9 9 10 26 27 27 27 27 27 26 
26 26 26 26 25 4 0 16 17 23 12 13 58 13 3 26 44 50 19 5 
7 11 9 17 14 29 29 30 30 30 29 26 23 21 19 16 15 22 26 25 
30 23 7 1 12 0 3 73 112 114 66 7 12 59 11 8 12 27 25 24 
22 21 20 20 21 22 23 24 22 17 27 17 0 14 2 1 39 1 1 76 
113 113 52 39 85 108 33 8 9 21 24 26 27 25 19 11 27 27 27 26 
25 7 3 5 2 10 0 38 96 18 22 99 115 115 99 83 98 99 36 3 
15 28 29 29 29 28 24 11 27 26 25 25 23 7 3 13 24 18 2 70 
90 83 102 116 116 114 100 107 102 96 8 3 21 29 29 29 29 29 26 25 
27 25 24 22 21 13 4 20 32 32 32 36 82 95 100 116 116 112 99 108 
113 67 4 5 28 29 29 29 29 29 28 27 26 23 21 19 18 24 35 32 
16 28 25 29 73 91 104 115 116 112 99 94 94 67 5 15 29 30 29 28 
28 23 24 27 25 22 18 16 16 24 28 24 0 16 2 13 79 105 103 114 
115 112 97 81 105 79 4 25 29 13 6 6 27 4 12 27 24 20 16 15 
14 16 16 15 0 11 1 9 69 109 99 107 110 102 81 83 109 79 18 28 
29 9 2 4 27 7 8 19 23 18 16 14 13 1 17 14 22 29 29 31 
74 99 90 88 80 67 70 101 110 79 46 47 29 9 1 3 27 4 2 8 
17 18 15 14 12 0 18 21 10 21 26 27 38 59 59 61 67 86 95 110 
112 78 66 87 32 10 1 3 27 6 6 13 16 17 15 13 12 0 17 20 
0 9 23 9 0 27 38 29 68 108 111 116 112 81 64 102 98 95 68 38 
29 11 1 7 9 23 14 13 12 0 15 12 0 11 28 35 60 89 86 70 
62 104 115 117 112 90 67 110 112 115 115 114 110 75 19 9 1 10 11 15 
14 0 14 18 30 64 103 118 118 117 93 103 69 83 111 116 108 98 75 113 
112 115 115 115 114 114 94 18 1 2 31 30 30 0 13 19 74 117 119 119 
118 118 101 101 85 101 103 114 109 91 101 94 115 116 115 115 115 115 114 88 
7 4 30 30 29 8 13 59 118 118 119 119 119 119 108 96 103 97 115 112 
108 105 111 112 116 116 115 115 115 115 114 114 40 4 29 30 29 1 11 97 
118 118 118 118 118 117 115 105 103 98 116 113 105 99 102 115 115 115 114 114 
114 114 113 114 93 10 21 28 27 3 35 108 118 117 117 117 117 117 117 115 
111 95 110 116 115 115 114 115 114 114 113 113 114 106 113 113 110 36 6 24 
