P2 
32 30
154
10 34 32 31 29 27 25 24 22 21 19 18 22 17 21 20 17 16 20 21 
22 23 25 26 27 28 30 30 31 32 32 33 33 33 32 30 29 28 25 24 
22 20 19 18 23 19 21 20 19 18 21 22 23 24 25 25 27 28 29 30 
31 31 31 32 32 32 31 30 29 27 26 24 22 21 20 19 24 21 21 21 
20 19 22 23 24 25 26 27 28 30 30 31 31 31 32 32 33 33 32 31 
29 28 27 26 24 23 21 21 27 23 23 23 22 22 25 25 26 27 28 29 
30 31 31 31 32 32 33 33 33 32 32 31 30 29 27 26 25 24 23 23 
29 25 25 25 23 23 26 27 27 29 29 30 31 32 33 33 33 34 33 33 
33 31 34 36 32 30 29 30 28 25 24 24 30 27 27 26 24 25 28 28 
29 30 31 32 33 33 34 33 34 34 34 34 34 32 38 20 34 22 29 28 
26 27 25 26 31 24 19 32 27 20 25 30 30 31 32 33 34 34 34 34 
34 34 34 34 34 0 10 0 14 0 1 13 2 29 26 27 32 43 101 119 
110 38 18 31 31 32 33 33 34 34 34 34 34 34 34 34 34 2 4 0 
15 1 8 11 1 30 27 28 39 86 111 133 127 108 29 30 31 32 33 34 
34 34 34 35 34 34 34 34 34 16 18 39 36 18 14 30 35 31 28 22 
56 60 90 128 112 106 76 25 32 33 34 34 35 35 35 35 35 35 35 35 
34 40 38 11 27 9 6 9 26 29 28 13 69 75 83 128 100 83 100 25 
34 34 35 35 36 36 36 36 35 37 37 36 36 14 21 0 14 1 5 1 
27 27 30 23 84 92 89 118 116 127 115 31 29 29 29 28 27 29 24 24 
23 22 21 20 20 4 6 10 12 0 9 1 29 15 30 35 102 117 106 132 
137 139 117 32 28 29 30 31 30 23 28 32 33 33 33 33 33 1 17 41 
37 15 13 5 21 9 33 52 103 105 116 134 131 141 123 38 34 34 35 35 
26 14 31 35 35 35 34 35 34 38 38 34 39 41 34 37 34 26 54 80 
98 100 120 137 132 139 114 67 34 34 35 35 34 25 34 34 34 34 34 34 
34 34 30 1 22 10 21 12 22 24 67 91 82 92 130 132 136 131 101 113 
44 34 34 34 33 33 34 34 34 34 34 33 33 28 25 1 15 0 17 4 
9 3 40 67 60 75 104 120 124 123 107 119 38 30 33 30 30 34 34 34 
33 33 33 32 30 26 20 11 22 12 22 12 16 0 27 31 51 56 85 94 
101 99 67 59 8 3 29 13 11 35 34 34 33 33 32 31 28 26 25 25 
31 35 37 35 39 30 30 33 62 62 90 104 100 88 53 23 6 4 31 15 
14 35 35 34 34 34 33 30 25 24 28 0 18 29 20 23 33 31 30 35 
73 68 99 111 100 99 51 19 4 4 31 13 12 35 34 34 34 32 30 26 
21 22 13 1 18 16 9 8 33 30 29 32 79 77 110 119 106 109 54 18 
3 3 30 16 15 34 33 33 33 31 28 23 18 22 23 26 35 20 15 13 
30 29 28 18 84 84 111 127 115 128 39 8 7 5 31 33 33 33 33 33 
32 30 27 22 18 21 19 16 23 12 26 27 28 28 25 8 86 110 110 129 
131 134 74 5 17 13 31 32 31 29 32 37 34 31 27 22 18 24 19 16 
20 28 26 27 27 27 13 34 88 121 120 136 141 132 114 35 13 18 29 30 
28 9 29 52 52 50 46 40 34 17 18 18 21 23 24 25 25 13 5 52 
114 129 132 138 143 137 114 23 11 22 34 29 24 5 36 51 51 50 47 42 
37 17 23 23 24 23 24 24 14 4 4 37 145 143 143 139 144 144 90 14 
13 16 32 24 30 4 42 50 50 50 47 42 38 9 23 18 20 23 29 25 
15 5 1 7 88 147 146 144 143 109 21 14 16 19 31 12 18 33 46 49 
49 49 47 43 38 29 23 20 19 29 59 43 30 12 5 1 16 118 147 142 
66 34 16 12 16 31 48 34 31 42 37 47 48 48 46 43 38 36 35 35 
19 40 29 21 16 15 25 7 6 41 142 99 40 44 32 15 14 21 29 17 
25 62 35 45 46 47 45 42 36 30 29 20 20 32 23 21 15 16 32 21 
23 16 70 71 52 47 31 18 21 25 29 17 19 37 52 38 44 44 43 39 
