P2 
32 30
157
10 34 32 31 29 27 25 23 22 20 19 18 22 17 21 20 18 16 20 21 
22 23 24 25 27 29 29 30 31 32 32 32 33 33 32 31 29 28 26 24 
23 21 20 19 24 20 22 21 20 19 22 23 24 24 25 27 28 29 30 31 
32 32 33 33 33 34 32 31 30 29 27 25 24 23 21 21 26 22 23 23 
22 21 24 25 25 27 28 28 30 31 32 33 33 33 33 33 34 34 33 32 
31 29 28 27 25 24 23 23 29 24 24 25 23 23 27 27 27 29 30 30 
31 32 33 33 34 34 34 34 34 32 33 32 31 29 28 27 26 25 23 24 
29 25 25 25 24 24 27 28 28 29 30 31 32 33 33 34 34 34 34 34 
34 32 34 37 32 30 29 31 28 25 24 24 29 23 25 23 23 25 28 29 
29 30 31 32 33 34 34 34 34 34 34 34 34 32 39 20 34 22 29 28 
26 27 25 26 21 11 13 23 20 22 28 30 31 32 32 33 34 34 35 34 
34 34 34 34 34 0 10 1 14 0 1 13 2 29 27 19 20 53 76 66 
42 34 28 30 31 32 33 34 34 34 34 35 35 34 34 34 34 2 4 0 
15 1 8 12 1 30 26 10 54 100 133 137 126 90 28 22 31 32 33 33 
34 34 34 35 34 34 34 34 34 16 18 40 36 18 14 30 34 31 23 6 
68 109 139 142 142 139 55 3 30 33 34 34 35 35 35 35 35 36 35 35 
35 41 39 12 28 11 7 10 27 30 26 4 78 115 143 144 144 144 126 28 
34 35 36 37 37 37 37 37 36 38 38 37 37 14 21 0 14 2 5 1 
28 28 27 13 80 68 111 145 144 142 133 42 31 30 29 28 27 29 24 24 
24 23 22 21 20 5 7 10 12 0 9 1 30 16 55 33 31 4 3 81 
56 17 84 48 31 31 32 32 32 24 30 34 34 34 34 34 34 1 18 43 
38 16 13 5 22 10 77 57 3 0 2 78 23 2 18 45 52 36 37 37 
27 15 32 37 36 36 36 36 35 39 39 35 40 42 35 37 35 27 66 84 
19 2 31 125 57 3 11 65 52 36 36 36 35 26 35 36 35 35 35 36 
35 35 31 1 23 11 22 12 22 24 47 90 98 95 89 140 117 68 60 103 
35 35 35 35 35 34 35 35 35 35 35 34 33 29 26 1 15 0 17 4 
9 4 29 50 95 75 80 105 110 118 120 76 32 31 35 32 32 35 35 35 
35 35 34 33 30 27 21 11 23 12 23 12 16 0 29 40 93 92 111 132 
120 108 98 24 9 4 30 13 12 36 35 35 34 34 33 32 27 26 25 25 
31 34 36 35 39 30 29 34 80 109 113 132 120 130 65 22 5 3 30 15 
13 35 35 34 34 34 32 29 23 23 28 0 18 29 20 22 33 31 30 34 
60 105 121 122 123 106 42 19 3 3 30 12 11 35 34 33 33 32 30 26 
21 22 13 0 18 16 9 8 33 31 29 32 61 71 129 139 109 86 43 18 
3 3 31 16 15 34 34 33 33 31 29 25 20 23 24 27 35 21 16 13 
31 30 29 24 69 65 65 81 85 103 34 13 9 6 32 34 34 34 34 34 
34 32 30 26 21 22 19 17 23 13 27 27 29 29 26 5 78 86 101 111 
116 126 67 6 20 14 32 33 32 30 33 38 36 33 31 27 21 25 20 17 
21 28 27 27 27 27 15 34 87 110 102 128 137 136 109 21 15 17 31 31 
30 9 30 53 54 52 50 45 38 18 19 19 22 24 25 26 26 17 6 57 
102 125 131 137 145 138 95 17 13 24 32 30 25 6 37 53 53 53 51 48 
43 18 24 24 25 25 24 25 18 5 6 58 137 134 147 145 146 144 62 14 
15 17 34 30 30 2 44 52 53 52 51 48 44 9 23 19 21 23 27 21 
13 4 2 24 131 146 147 145 145 104 19 14 17 18 29 11 27 19 47 49 
50 50 50 47 44 29 23 20 21 32 54 41 33 11 1 2 45 142 147 140 
60 28 14 15 16 38 41 23 38 37 40 47 48 49 48 46 42 36 36 35 
33 40 31 20 15 14 15 3 6 80 146 84 39 44 28 12 17 20 23 20 
50 60 33 46 47 47 46 44 40 30 29 27 24 30 25 20 15 20 26 11 
10 15 102 60 41 44 27 17 24 22 25 11 39 40 49 36 45 44 43 40 
