P2 
32 30
152
10 33 32 31 29 28 26 24 22 20 19 18 17 20 17 18 18 16 15 19 
20 20 21 22 23 25 25 26 27 28 29 29 29 33 32 31 29 28 27 25 
23 22 20 19 18 22 19 20 20 19 18 21 22 22 23 23 24 25 26 27 
28 29 30 29 30 33 32 31 30 28 27 25 24 23 22 21 20 25 22 22 
22 21 20 23 24 24 25 25 26 27 28 29 30 30 30 31 31 33 32 31 
30 28 27 26 25 23 22 21 21 26 23 23 23 22 21 24 25 25 25 26 
27 28 28 29 30 30 30 30 30 18 28 31 30 29 28 27 26 24 23 23 
22 28 24 24 24 23 22 25 26 26 27 27 28 29 30 30 31 31 31 30 
31 30 26 32 36 32 29 28 29 28 25 24 24 28 18 17 27 21 22 26 
28 28 29 29 30 31 32 32 31 31 31 31 31 26 26 37 21 33 22 27 
29 25 27 25 16 11 15 19 21 22 22 19 20 30 30 31 32 32 32 33 
32 32 32 32 32 16 2 5 4 10 3 1 13 1 26 19 19 22 27 55 
95 88 80 55 15 28 31 32 32 32 32 32 33 32 32 32 32 20 3 2 
4 12 3 9 12 0 22 12 17 23 31 65 129 138 138 132 47 25 31 32 
32 33 33 32 33 32 33 33 32 26 18 13 41 39 20 15 27 34 12 6 
15 22 26 59 120 140 140 139 93 31 33 33 34 34 34 34 34 34 34 34 
33 22 35 42 10 24 13 5 8 23 5 4 15 27 34 59 129 140 140 139 
122 37 33 34 34 35 34 34 34 33 34 34 33 19 10 20 0 11 2 4 
1 22 1 5 17 43 62 122 138 129 121 117 134 52 27 26 25 24 26 21 
21 20 19 18 18 27 4 6 11 14 0 7 1 22 1 50 108 108 113 139 
137 116 87 109 113 29 29 29 30 28 20 27 30 30 30 30 30 27 3 9 
39 40 19 16 7 22 4 98 133 133 114 140 140 139 127 135 133 43 33 34 
34 25 12 29 32 32 32 32 32 25 39 39 32 37 40 34 37 35 19 57 
138 129 108 132 140 140 139 138 132 83 33 33 33 32 24 32 33 32 32 32 
31 23 33 34 3 15 12 16 13 18 21 13 111 137 102 125 139 140 140 128 
118 97 34 33 33 33 32 33 33 32 32 31 29 34 30 28 3 13 2 12 
8 9 3 16 43 101 86 114 133 141 140 135 96 29 27 32 28 28 33 33 
33 32 31 29 27 1 16 26 16 22 19 24 18 21 4 24 30 96 75 96 
123 136 132 126 76 8 4 28 11 11 34 33 32 31 30 28 25 0 15 28 
18 27 31 34 33 36 29 28 35 105 91 72 98 128 133 128 49 5 3 28 
13 12 32 32 31 30 29 25 21 0 14 29 1 12 26 17 13 34 30 29 
42 105 116 83 73 82 116 124 43 3 4 29 10 11 33 32 31 30 27 23 
18 0 13 19 0 14 21 10 3 33 30 23 43 102 121 104 99 67 46 59 
24 4 3 29 18 17 32 32 31 29 26 21 17 0 13 25 30 37 23 16 
13 29 28 7 62 98 121 113 118 94 32 10 22 10 6 30 32 31 31 31 
30 28 25 20 17 0 14 20 13 16 19 24 26 26 14 15 95 102 121 123 
112 106 72 6 24 20 13 29 30 29 24 30 36 32 28 23 18 21 23 20 
17 18 24 25 26 20 5 14 115 115 122 141 131 128 97 25 14 26 15 28 
28 27 6 31 49 48 45 40 36 7 14 17 17 20 23 24 24 17 4 9 
103 137 128 142 139 133 118 23 10 24 21 26 26 22 3 37 48 47 45 42 
38 18 13 22 22 24 25 24 13 10 5 3 40 133 142 141 141 139 110 14 
12 20 20 14 27 24 1 42 47 46 45 42 38 14 11 20 16 26 27 37 
26 24 13 2 5 33 121 143 143 123 50 9 14 28 44 30 36 20 3 44 
45 46 45 43 39 31 33 32 20 28 57 53 35 21 17 21 9 10 53 145 
137 60 35 16 11 16 29 14 43 28 9 45 45 46 45 43 39 34 33 29 
12 41 35 29 19 17 23 34 16 15 11 95 115 40 40 23 17 24 29 13 
23 40 15 43 43 44 43 41 37 30 30 17 15 27 36 22 19 15 24 37 
32 20 34 49 49 47 47 33 24 35 36 14 27 32 26 40 41 40 39 36 
