P2 
32 30
153
10 33 32 30 29 27 25 23 21 20 18 17 22 17 20 19 17 16 20 20 
21 22 24 25 27 28 29 29 30 31 32 32 32 33 32 30 29 27 26 24 
22 21 19 19 23 19 21 21 19 19 22 22 23 24 25 26 27 28 30 31 
31 32 32 33 33 33 31 30 29 28 26 25 23 22 20 20 25 21 22 22 
20 20 23 24 25 26 27 28 29 30 31 32 32 32 33 33 33 33 31 31 
29 28 27 26 24 23 21 21 27 23 23 23 22 22 25 26 26 27 28 29 
30 31 31 32 32 32 33 33 33 31 32 31 30 29 28 27 25 24 23 23 
28 25 25 25 24 23 26 27 27 29 30 30 31 32 33 33 33 33 33 33 
33 32 34 37 32 30 29 30 28 25 24 24 30 27 28 26 26 25 28 28 
29 30 31 32 33 33 34 33 34 34 34 34 34 32 38 20 34 21 29 28 
26 27 25 25 31 23 21 38 25 18 26 29 30 31 32 33 33 33 34 33 
33 33 33 33 33 0 10 1 13 0 1 12 2 28 26 27 30 52 108 121 
110 35 19 30 30 31 32 33 33 33 33 34 33 33 33 33 33 2 4 0 
15 1 8 11 1 30 27 28 45 77 112 129 124 107 29 31 31 32 33 34 
34 34 34 35 34 34 34 34 34 16 18 40 36 18 14 31 35 31 28 22 
65 93 105 126 125 97 66 27 32 33 34 34 35 35 35 35 35 36 35 35 
34 40 38 11 27 10 6 9 26 29 27 17 74 77 83 127 98 87 94 26 
34 34 35 35 36 36 36 35 35 36 37 35 35 13 21 0 14 2 5 1 
27 27 28 28 83 91 83 111 118 125 109 27 29 29 29 28 27 29 23 23 
23 22 21 20 20 5 7 10 12 0 9 1 30 16 30 39 104 128 99 133 
137 139 112 27 29 30 31 32 31 23 29 33 33 33 34 34 34 1 17 42 
38 16 13 5 21 10 35 58 102 115 115 133 132 142 119 37 35 35 36 36 
26 14 31 36 36 35 35 35 35 37 37 34 38 40 33 36 33 25 61 78 
93 109 125 138 131 137 109 79 33 33 33 34 33 24 33 33 33 34 33 33 
33 34 30 1 22 10 21 12 22 24 72 90 81 94 128 135 135 129 100 120 
38 34 34 34 33 33 34 34 34 34 33 32 32 29 25 1 15 0 17 4 
9 4 42 63 60 74 114 126 121 120 106 105 32 31 34 31 31 35 35 34 
34 34 33 32 30 27 20 11 22 12 22 12 16 0 28 31 52 52 75 88 
94 93 56 40 9 4 30 13 12 36 35 34 34 34 33 31 28 25 24 24 
31 34 36 34 38 29 29 32 64 62 89 104 100 87 50 21 5 4 30 15 
13 35 34 33 33 33 32 28 23 24 28 0 17 29 20 23 33 31 30 34 
73 71 105 116 104 100 52 19 4 4 31 12 12 35 34 34 33 32 29 25 
20 22 13 0 18 16 9 8 32 30 29 32 79 79 115 127 110 110 57 18 
3 2 30 16 15 33 33 33 32 30 27 21 18 22 23 25 35 20 15 13 
30 29 28 20 84 86 107 129 116 129 47 8 8 5 30 33 32 33 33 33 
32 29 26 21 18 21 19 17 23 12 27 27 28 28 26 10 86 113 112 133 
132 136 79 5 18 13 31 32 31 29 32 37 34 31 26 21 17 25 20 17 
21 28 27 27 27 27 14 34 89 121 121 138 143 135 114 40 14 18 30 31 
29 9 29 53 52 50 45 39 35 18 18 18 21 23 24 25 26 13 5 47 
117 127 134 140 144 140 117 26 11 22 34 29 24 5 36 51 51 49 46 41 
37 16 22 22 24 23 23 24 15 3 4 32 144 142 144 141 144 144 95 15 
12 16 31 24 30 4 41 50 50 49 46 41 37 8 23 18 20 23 29 25 
16 5 1 5 81 147 146 144 144 112 24 13 16 18 31 12 17 32 46 48 
49 48 47 42 37 29 23 20 19 27 60 42 31 12 5 1 13 113 147 144 
70 34 17 12 16 31 47 34 30 42 37 47 48 47 46 43 38 35 35 34 
19 39 30 20 16 14 24 8 6 36 140 102 40 43 32 14 14 22 28 18 
24 62 34 45 45 46 44 41 36 29 28 21 19 30 21 21 14 14 29 21 
22 16 64 73 51 46 30 17 19 25 28 15 19 35 51 37 43 43 41 38 
