P2 
32 30
155
10 35 33 31 30 28 26 24 23 21 20 19 23 18 21 20 18 16 21 22 
22 24 25 26 28 29 30 31 32 32 33 33 34 35 33 32 31 29 27 26 
24 23 22 21 26 21 23 22 20 20 23 24 25 26 27 28 29 30 32 33 
33 34 34 35 35 34 33 32 31 29 28 26 25 24 23 22 27 23 24 23 
21 21 24 25 26 26 28 29 30 32 32 33 33 33 34 34 35 33 32 31 
30 28 27 26 25 24 23 22 28 24 23 23 21 22 25 25 26 27 28 29 
30 31 32 32 33 33 33 33 33 33 33 32 31 30 29 28 26 26 25 25 
30 26 26 26 24 24 27 27 28 29 30 31 32 33 34 34 34 34 34 34 
34 33 35 38 34 31 30 32 29 26 26 26 25 19 26 24 21 23 28 29 
30 31 32 33 34 34 35 34 34 35 34 35 35 34 40 22 35 23 30 29 
27 28 21 15 20 24 28 29 28 25 15 30 31 32 33 34 34 35 35 35 
35 35 35 35 34 0 11 1 15 0 1 14 2 23 20 24 28 75 111 115 
113 79 22 27 32 33 34 34 34 34 35 35 35 35 35 35 35 3 4 1 
16 1 9 12 2 11 20 25 33 73 128 140 142 139 60 26 33 34 34 35 
35 35 35 36 35 35 36 35 35 16 19 41 37 19 15 32 12 7 16 20 
25 71 128 144 143 141 109 31 33 34 35 35 36 36 36 36 36 37 36 36 
36 41 39 12 28 11 7 10 4 6 17 29 28 39 53 48 51 104 134 49 
35 35 36 37 37 37 37 37 36 38 37 36 37 14 22 0 14 2 6 1 
2 7 13 31 64 114 93 54 4 2 91 34 28 30 30 29 28 30 24 24 
24 23 22 21 21 6 7 11 13 0 10 3 3 87 116 117 121 131 99 46 
2 3 58 1 14 31 33 33 32 24 31 34 34 35 35 35 35 2 18 44 
39 16 14 7 6 129 135 128 116 137 120 73 9 53 134 32 22 36 37 37 
27 14 31 36 37 36 36 36 35 39 40 36 40 43 35 39 16 81 139 129 
108 135 144 141 125 127 131 90 29 35 35 35 34 26 34 35 35 35 34 34 
33 36 32 2 24 11 23 13 21 23 126 134 101 126 143 145 144 129 106 63 
35 35 35 36 35 34 35 35 35 35 33 31 31 30 26 1 16 0 18 4 
10 9 49 96 87 116 136 145 136 131 107 34 32 31 35 32 32 36 35 35 
34 33 31 29 27 28 22 12 24 13 23 13 16 2 27 91 76 99 123 139 
134 133 87 23 8 3 29 12 11 36 35 34 33 32 29 25 22 26 25 26 
32 35 37 35 39 30 31 100 87 76 104 128 133 129 79 21 5 3 29 15 
12 34 34 33 31 30 26 21 18 26 30 0 20 31 21 24 35 33 37 106 
105 90 79 83 113 114 58 21 5 5 32 13 13 36 36 34 33 29 24 21 
18 24 14 1 20 17 10 9 35 32 42 106 109 103 97 79 52 47 36 20 
4 4 32 17 16 35 35 33 31 27 22 18 17 24 25 27 37 21 17 14 
31 15 43 106 115 116 118 96 48 17 31 23 9 6 32 34 34 34 34 32 
30 25 20 18 17 23 21 19 25 13 28 28 24 11 83 109 123 124 117 104 
71 7 29 28 22 15 32 33 32 30 32 36 32 26 21 19 17 26 21 19 
22 29 28 25 10 27 115 118 130 142 130 124 100 14 19 22 26 17 31 31 
30 9 29 52 50 45 40 36 34 19 20 19 23 25 26 16 6 17 130 136 
138 146 142 136 113 25 10 23 28 17 31 30 24 6 36 51 50 46 42 38 
36 18 24 24 26 25 19 14 3 9 86 148 147 146 146 141 115 16 12 14 
20 21 31 29 27 2 43 50 50 47 43 39 36 10 25 21 26 22 16 16 
9 3 15 62 130 148 148 130 54 10 16 19 42 20 33 29 26 1 48 50 
50 48 45 40 37 30 26 22 52 41 41 25 18 8 6 22 55 149 146 69 
34 20 9 19 31 25 49 42 22 5 49 49 49 47 45 40 36 37 26 47 
43 36 19 16 20 32 13 14 8 109 124 39 42 27 15 24 29 11 28 38 
23 11 47 47 47 45 43 38 34 22 26 38 30 30 17 16 26 34 19 19 
32 25 64 50 52 42 26 33 31 10 26 30 22 17 45 45 44 43 39 35 
