P2 
32 30
155
10 33 32 30 29 27 25 23 21 20 19 18 22 17 20 19 17 16 19 21 
22 23 23 25 26 28 29 29 30 31 32 32 32 33 31 30 29 27 25 24 
22 21 20 19 24 19 21 20 18 17 21 22 23 23 25 25 27 28 29 30 
31 31 31 32 32 33 31 30 29 27 26 25 24 22 21 20 25 21 22 21 
20 19 23 23 24 25 26 27 28 29 31 31 32 32 32 32 33 35 33 32 
31 30 28 27 26 25 24 24 29 25 25 25 23 23 26 27 27 28 29 31 
31 32 33 33 34 34 34 34 35 33 33 33 32 30 29 28 26 26 25 25 
30 27 26 26 24 24 28 28 28 29 30 31 32 33 34 34 34 34 34 34 
34 32 35 37 33 31 29 31 29 26 25 25 20 15 24 20 17 21 28 28 
29 31 31 32 33 34 34 34 34 34 34 34 34 33 39 21 35 22 30 29 
27 27 15 12 20 25 32 32 29 26 13 30 31 32 32 34 34 34 35 34 
34 34 34 34 34 0 10 1 14 0 1 13 2 18 20 23 26 69 115 118 
118 91 26 25 31 31 33 33 33 33 34 34 34 34 34 34 33 2 4 1 
15 1 9 12 2 12 19 24 32 62 124 140 141 139 73 25 31 32 33 33 
34 34 34 35 34 34 34 34 34 16 19 40 36 19 14 31 7 7 16 21 
25 60 117 142 142 140 116 32 33 33 34 35 35 35 35 35 35 36 35 35 
34 40 39 12 28 10 7 9 1 6 17 30 36 41 78 71 76 107 128 55 
34 35 35 36 36 36 36 36 35 36 37 36 36 14 22 0 14 2 5 1 
1 7 16 30 48 100 92 66 14 2 75 50 27 30 29 28 27 29 23 24 
23 22 22 21 20 5 7 10 12 0 10 2 2 77 125 124 122 140 121 73 
5 0 39 3 14 30 30 31 30 23 28 32 32 32 33 33 33 1 18 43 
38 16 13 6 3 110 138 135 113 140 136 102 8 27 113 59 22 34 35 35 
26 14 30 35 35 35 34 34 34 39 39 36 40 42 35 38 15 61 141 132 
108 128 142 141 116 103 134 114 29 35 35 35 34 25 35 35 35 34 34 34 
33 36 32 2 23 11 23 13 20 13 112 141 105 115 137 144 130 131 112 96 
36 35 35 35 35 34 35 36 35 34 33 31 30 30 27 1 16 0 18 4 
10 9 41 97 89 105 124 135 125 134 105 47 32 31 34 32 32 35 35 35 
34 33 31 29 26 28 21 12 24 13 23 13 16 2 24 96 81 93 114 138 
136 117 107 24 9 4 30 14 12 36 35 34 33 32 29 25 22 27 26 27 
33 36 38 36 40 31 30 105 96 80 105 130 141 132 68 23 6 4 31 15 
14 35 35 34 33 31 26 22 19 24 29 0 18 30 20 23 33 31 33 104 
118 87 83 90 122 126 56 20 3 3 30 11 11 34 34 32 31 27 21 18 
16 22 13 1 18 16 9 8 32 30 38 102 122 99 96 81 67 87 52 17 
2 2 30 15 14 33 33 31 29 24 19 17 15 22 24 27 36 21 16 13 
31 20 42 102 123 117 115 95 47 18 30 22 8 5 31 33 33 33 33 31 
29 24 19 17 16 23 20 18 24 13 27 27 26 8 78 105 124 121 121 103 
71 4 28 27 21 14 32 32 32 29 31 35 31 25 20 17 16 25 21 18 
21 29 27 26 12 22 112 113 125 137 120 119 104 12 18 21 26 17 31 31 
29 9 29 51 49 45 40 36 33 19 19 19 22 24 26 18 6 17 123 126 
133 144 138 137 108 26 10 23 26 17 31 30 24 5 36 51 49 46 42 38 
36 18 24 24 25 25 21 15 3 10 99 143 143 146 145 141 124 21 10 14 
22 23 31 29 27 2 42 50 49 47 43 39 36 10 24 20 26 23 14 14 
7 4 29 111 146 146 145 143 93 12 13 16 31 16 28 29 25 1 47 49 
49 47 45 40 36 30 25 23 40 37 35 29 16 3 5 27 87 147 147 95 
33 11 11 20 39 28 45 34 22 5 48 48 48 47 45 40 36 37 25 43 
53 44 23 16 18 22 11 11 19 137 130 43 39 23 14 22 25 12 33 49 
25 11 46 47 47 45 43 38 34 26 23 44 30 31 18 17 26 30 20 14 
16 52 91 51 43 27 16 26 28 11 28 30 22 17 45 45 44 43 40 35 
