P2 
32 30
159
10 36 34 33 32 30 27 25 24 22 21 19 24 18 22 21 19 17 21 23 
24 25 26 27 29 31 32 32 33 34 35 35 35 36 34 33 31 30 28 26 
25 22 21 20 25 21 23 22 21 20 23 24 25 26 27 28 30 31 33 34 
34 35 35 35 36 36 35 34 32 30 29 27 25 24 23 22 28 23 24 25 
23 22 25 26 27 28 30 30 32 33 34 35 35 35 35 36 36 36 35 34 
33 31 29 28 27 25 24 24 29 26 25 26 24 25 27 28 28 30 30 32 
33 34 34 35 35 36 36 36 36 34 35 34 33 31 30 28 27 26 25 25 
31 27 26 27 25 25 28 29 29 31 32 32 33 34 35 35 35 36 35 36 
36 34 37 39 35 32 31 33 30 27 25 26 32 28 29 29 27 27 30 31 
32 32 33 34 35 36 36 36 36 36 36 36 37 36 42 23 38 24 32 31 
29 30 29 29 34 28 22 26 25 23 30 33 34 35 36 37 38 38 38 38 
38 38 38 38 37 0 11 1 15 1 1 15 3 32 29 30 36 34 92 118 
105 32 21 34 34 35 37 37 37 37 37 38 38 37 38 38 38 3 5 1 
17 2 10 13 2 33 30 28 36 30 71 127 110 82 24 34 35 36 37 37 
37 37 37 38 37 38 38 38 38 17 20 43 38 20 16 33 37 33 31 21 
31 6 24 59 6 11 3 23 36 37 38 38 39 39 39 39 39 40 39 38 
38 43 42 13 29 11 7 10 28 31 30 14 6 9 50 139 20 8 1 18 
37 37 38 39 39 39 39 39 38 40 40 39 39 15 23 0 15 2 6 1 
29 29 32 13 55 44 73 112 88 31 36 19 32 31 31 30 29 31 26 26 
25 24 23 23 22 6 7 11 13 0 10 1 31 17 33 25 95 124 104 139 
138 143 118 30 30 32 34 34 34 25 31 35 36 35 36 36 36 1 19 46 
40 17 15 6 24 11 34 41 98 116 120 140 139 146 129 42 37 38 39 39 
29 16 34 39 39 38 38 38 38 41 42 38 43 45 37 40 37 29 46 86 
90 109 124 142 144 144 119 76 39 38 38 38 37 29 37 38 38 38 37 38 
37 37 33 2 24 12 23 14 24 27 62 99 79 88 133 139 137 136 106 118 
57 37 37 38 37 36 37 37 37 38 37 37 36 31 28 1 17 0 19 4 
10 4 40 85 58 65 99 117 121 126 107 127 49 33 37 34 34 38 38 38 
37 38 37 36 33 29 23 12 25 14 25 14 18 1 31 33 52 61 88 97 
100 100 67 61 11 5 33 15 14 39 39 38 37 37 37 35 32 28 27 27 
34 38 40 38 41 32 32 36 59 68 99 116 114 98 67 24 7 5 33 17 
16 38 38 37 37 36 35 32 27 26 31 0 20 32 22 25 36 34 33 37 
69 78 115 131 117 110 72 22 5 5 34 14 14 38 38 37 37 36 33 29 
24 25 15 1 20 18 11 10 36 34 32 35 74 84 121 140 123 120 80 21 
5 5 34 19 18 38 37 37 36 34 31 26 22 25 27 29 39 23 18 16 
34 33 32 30 76 95 109 140 129 142 84 10 11 8 35 37 37 38 37 37 
36 34 30 25 22 24 21 19 25 14 29 29 31 31 30 7 77 119 119 146 
144 147 109 15 19 15 34 35 34 32 35 40 38 34 29 24 20 26 22 19 
23 30 29 29 29 29 22 27 88 123 125 146 149 146 124 40 14 21 33 33 
31 9 31 56 56 53 49 42 37 20 21 20 24 26 27 28 28 23 8 48 
110 131 140 148 149 147 108 21 14 24 38 33 27 6 39 56 55 54 50 45 
40 19 26 25 27 26 26 27 19 5 6 45 146 145 149 147 149 148 64 17 
17 18 32 28 34 3 46 55 55 54 51 46 41 11 26 22 24 26 31 28 
16 6 3 16 115 152 151 150 135 82 19 19 19 24 34 13 25 33 51 54 
54 54 52 47 42 32 27 23 24 34 58 45 32 13 5 2 35 138 152 130 
45 33 22 13 19 38 48 31 42 46 40 53 53 53 52 48 43 40 39 39 
34 40 33 23 18 17 22 6 7 67 150 73 43 48 33 18 20 27 27 22 
46 72 42 47 51 51 50 47 42 33 32 30 24 33 27 24 17 19 31 18 
22 18 85 61 55 50 31 21 25 28 29 12 39 42 62 35 49 49 47 43 
