P2 
32 30
158
10 36 35 33 32 30 27 25 24 22 20 19 24 18 22 21 19 18 22 23 
24 25 26 27 29 31 32 33 34 34 35 35 36 36 35 33 32 30 28 26 
25 23 22 21 25 21 23 23 21 20 24 25 26 27 28 28 30 31 33 34 
35 35 35 36 36 36 35 33 32 30 29 27 26 24 23 22 28 23 24 25 
23 22 26 26 27 28 30 30 32 33 34 35 35 35 36 36 36 36 35 34 
33 31 30 29 27 26 24 24 30 26 26 27 25 25 28 29 29 30 31 33 
33 34 35 36 36 36 37 37 37 35 36 35 34 32 31 30 28 27 26 26 
32 28 28 29 27 27 30 30 31 32 33 34 35 36 37 37 37 37 37 37 
37 34 37 40 35 33 31 33 31 27 26 27 32 29 29 29 27 28 31 31 
32 33 34 35 36 37 37 36 37 37 37 37 37 35 41 22 37 24 32 30 
28 29 28 28 33 27 24 23 32 23 23 32 33 34 35 36 36 37 37 37 
37 37 37 36 36 0 11 1 15 0 1 14 3 31 29 29 35 29 90 123 
126 73 12 32 34 34 36 36 36 37 37 37 37 37 37 37 36 3 5 1 
16 1 9 12 1 32 30 30 31 36 62 128 127 111 56 27 34 35 36 36 
37 37 37 37 37 37 37 37 37 17 20 42 38 20 15 32 37 33 30 26 
30 1 36 47 24 22 3 15 35 36 37 37 38 38 38 38 38 39 38 38 
37 43 41 13 29 11 7 10 27 31 30 21 3 8 23 127 32 13 1 7 
33 37 37 38 39 39 39 38 38 40 40 38 39 15 23 0 15 2 7 1 
30 30 33 16 42 34 59 110 90 21 19 26 29 33 32 32 30 33 27 27 
27 26 25 24 24 6 8 11 13 0 11 1 32 17 34 22 83 119 99 138 
140 134 115 61 29 33 34 35 34 26 32 36 36 36 37 37 37 1 19 46 
40 17 15 5 24 11 34 35 93 113 113 140 137 148 140 73 31 38 39 39 
29 16 34 39 39 39 38 38 38 41 41 38 43 45 37 40 38 29 36 90 
95 114 119 138 141 148 133 93 46 38 38 38 37 28 37 38 38 38 38 38 
37 38 33 2 25 12 24 14 25 27 41 107 87 93 123 141 140 144 121 112 
86 38 37 38 37 37 38 38 38 38 37 37 37 32 28 1 17 0 18 4 
10 4 32 82 60 72 105 122 132 139 110 130 82 33 37 34 34 38 38 38 
37 37 37 36 35 29 23 12 24 14 24 13 17 1 31 38 44 55 81 95 
101 109 86 77 23 6 33 15 14 39 38 37 37 38 37 36 33 28 27 27 
34 37 40 38 41 32 32 36 49 65 83 105 107 96 80 23 7 5 33 17 
16 38 37 37 37 37 36 34 29 26 31 0 19 32 22 25 36 34 32 36 
53 70 91 112 110 102 78 22 5 5 33 14 14 38 37 37 37 36 34 31 
25 24 14 1 20 17 10 9 35 33 31 34 54 79 98 124 117 111 83 20 
4 4 33 18 17 37 36 36 35 34 32 27 22 24 25 28 38 22 17 14 
33 32 31 30 51 89 98 133 122 133 85 7 10 7 34 36 36 36 36 36 
36 34 32 27 22 24 22 19 26 14 30 30 31 31 30 11 52 108 106 131 
136 145 110 18 19 16 35 35 35 33 36 41 39 36 33 28 22 27 22 20 
23 31 30 30 30 30 25 14 84 112 120 137 146 143 125 55 15 22 34 34 
32 10 32 57 57 56 52 46 39 21 21 21 24 26 27 28 28 24 10 28 
116 122 137 138 149 144 125 29 15 22 38 33 28 6 39 56 56 56 54 49 
43 20 26 26 27 27 27 28 21 6 6 29 145 142 150 142 148 149 90 19 
17 20 32 27 35 3 46 56 56 55 54 49 44 12 27 22 24 27 30 30 
19 7 5 10 100 152 152 149 144 105 23 19 20 24 34 15 22 33 52 55 
55 55 54 51 45 32 26 22 24 30 57 46 35 14 5 1 21 127 151 143 
59 34 22 13 18 33 48 32 33 46 38 52 53 53 52 49 44 38 38 37 
33 39 34 24 18 16 20 8 6 47 147 93 44 48 36 18 15 28 27 25 
36 73 45 43 51 51 50 48 42 33 32 30 24 33 28 25 18 19 27 21 
19 17 77 71 54 50 35 21 21 32 30 14 28 45 63 37 49 49 48 45 
