P2 
32 30
155
10 35 34 33 31 29 27 25 23 22 20 19 17 22 18 19 19 18 16 20 
21 21 22 23 24 26 27 28 29 30 30 31 31 35 34 33 31 29 28 26 
25 23 22 20 19 23 20 21 21 20 19 22 23 23 24 25 25 26 28 29 
30 31 31 31 32 36 34 33 32 30 29 27 26 25 23 21 20 25 23 23 
23 22 21 24 25 25 26 27 28 29 30 32 32 32 32 33 33 35 34 33 
32 31 29 28 27 25 24 22 22 27 24 24 24 22 23 26 26 26 27 29 
29 30 31 31 32 32 32 32 33 20 30 33 32 31 30 28 27 25 24 23 
23 28 25 25 25 24 24 27 27 28 28 29 30 31 32 32 32 32 32 32 
33 32 27 34 38 33 31 29 30 29 26 24 24 29 24 22 23 23 27 28 
28 29 30 30 32 32 33 33 32 33 33 33 33 27 27 39 22 34 22 28 
29 25 27 25 25 27 12 10 21 18 19 28 30 31 31 32 32 33 33 33 
33 33 33 33 33 16 3 5 4 10 3 1 13 1 26 26 24 16 36 60 
59 41 35 29 29 31 31 32 32 33 33 33 34 33 33 33 33 20 3 2 
3 12 3 8 12 0 27 27 13 28 88 125 135 126 98 31 16 29 31 32 
33 33 33 33 33 33 33 33 33 28 19 13 42 40 21 16 28 35 33 29 
10 38 99 132 144 143 142 71 3 24 34 34 35 35 35 35 35 35 35 35 
35 24 37 44 10 25 14 5 9 24 31 28 14 38 101 136 144 144 144 135 
50 28 35 35 36 36 36 35 35 35 36 36 35 22 11 22 0 12 2 5 
1 25 26 30 14 53 86 109 140 143 140 135 59 26 29 28 28 27 28 23 
23 22 22 21 20 29 5 6 12 14 0 8 1 27 15 31 61 68 58 67 
111 126 70 88 65 35 31 31 31 29 22 29 32 33 32 33 33 28 3 9 
40 42 19 16 7 21 8 30 89 82 100 100 110 130 108 111 109 77 35 35 
35 27 13 31 35 35 34 34 34 25 40 41 33 38 41 35 38 36 28 30 
81 81 129 107 117 137 143 140 112 64 34 35 34 34 25 34 34 34 33 33 
33 24 34 35 3 15 12 16 13 18 22 32 53 79 105 107 126 134 142 132 
108 43 34 34 35 34 33 34 34 34 34 33 32 35 31 30 3 13 2 13 
8 9 3 26 34 62 97 103 105 126 142 123 64 30 28 33 30 30 35 34 
34 34 34 33 31 2 17 27 16 23 20 25 19 21 4 25 35 53 94 81 
117 124 133 105 25 8 4 29 12 12 35 35 34 33 33 32 30 0 16 29 
19 27 32 35 34 37 30 29 32 42 98 92 109 108 123 73 22 5 3 29 
13 13 34 33 32 32 32 31 27 0 14 30 1 13 27 18 13 35 30 29 
32 30 67 84 124 114 107 58 20 3 3 30 11 12 34 33 33 32 31 29 
26 0 14 20 0 14 21 10 4 34 30 29 31 21 60 60 74 83 85 58 
12 3 3 30 18 18 34 33 33 32 31 29 25 0 14 26 32 39 24 17 
13 30 29 28 22 21 82 84 108 111 117 80 2 9 7 31 33 33 33 33 
32 32 31 29 26 0 15 21 14 17 20 26 28 28 28 26 10 47 101 117 
121 134 140 116 58 14 16 31 32 31 26 32 39 37 34 32 27 23 24 22 
18 19 25 26 27 27 27 11 8 77 119 137 138 145 142 131 61 12 20 32 
30 29 6 33 52 53 52 50 46 8 15 19 19 22 24 25 27 26 15 7 
7 69 146 144 147 146 145 136 37 13 17 34 28 29 3 41 52 52 52 51 
48 20 14 23 24 25 24 23 32 23 13 6 1 17 110 148 147 147 137 78 
15 15 18 30 13 18 24 45 50 51 51 50 47 15 12 20 16 17 21 33 
58 42 26 11 5 1 29 137 146 129 45 23 12 16 26 49 32 29 39 41 
47 48 49 48 46 32 34 32 27 28 17 39 30 21 16 16 28 8 7 72 
145 67 38 42 20 11 22 29 17 22 59 37 46 47 48 47 45 34 34 32 
31 20 22 34 24 22 14 17 42 19 26 18 84 57 51 45 21 17 28 30 
16 18 34 47 43 46 46 45 42 30 31 30 28 16 8 32 25 25 21 20 
31 6 16 37 39 44 38 47 28 26 42 37 17 20 33 34 37 43 43 41 
