P2 
32 30
155
10 45 43 41 39 36 35 32 30 29 25 26 25 31 27 22 19 22 27 30 
31 33 35 36 39 42 43 45 46 47 47 48 48 45 44 42 40 37 36 34 
32 30 29 32 29 33 31 27 23 28 32 33 35 37 38 40 42 44 45 46 
46 47 47 48 49 46 44 43 41 39 37 36 34 32 31 36 33 33 33 30 
28 32 35 36 37 39 40 42 43 45 46 47 48 48 48 49 50 47 45 44 
42 41 39 37 36 34 34 38 35 34 36 34 32 37 37 39 40 41 43 44 
46 47 48 48 49 49 49 50 50 47 46 45 44 42 40 38 38 36 35 41 
38 38 38 37 34 38 40 41 42 44 45 46 47 49 50 49 49 50 50 50 
50 48 47 46 45 43 42 40 39 38 37 42 39 40 41 40 37 41 42 43 
44 45 47 47 49 49 50 51 51 50 51 51 50 48 47 46 45 44 43 41 
40 39 38 43 39 41 43 42 29 30 41 44 45 47 47 48 50 51 51 51 
51 51 50 51 50 48 48 47 46 45 44 43 42 41 39 42 32 37 25 16 
16 20 23 27 44 48 49 51 51 52 52 51 51 51 51 51 51 50 51 49 
48 47 47 48 43 42 39 33 23 35 26 17 27 30 30 23 35 50 51 52 
52 52 52 52 52 52 52 51 51 54 52 59 47 50 50 45 47 42 24 14 
28 59 39 17 20 39 36 27 25 45 52 53 53 52 53 53 52 52 52 52 
52 38 9 22 11 5 28 7 26 20 18 51 41 36 45 12 12 39 46 40 
25 46 53 53 54 53 53 53 53 53 53 53 52 4 6 11 12 16 22 0 
14 13 42 112 83 20 43 17 26 34 52 55 44 40 59 53 54 54 54 54 
53 54 54 53 51 4 36 33 37 24 37 46 12 12 25 56 77 44 31 32 
56 41 60 68 62 41 52 55 55 54 51 47 43 41 37 34 32 43 46 57 
34 18 19 29 26 10 23 122 142 140 66 43 66 57 41 65 50 37 35 43 
41 42 36 41 44 45 46 43 37 55 11 5 28 5 7 16 43 26 13 111 
149 150 111 62 57 52 42 43 37 33 22 45 43 33 40 51 51 51 49 49 
27 10 9 6 18 7 17 13 42 25 18 133 151 152 135 78 33 52 56 36 
57 33 19 50 46 33 38 52 51 51 51 47 37 9 38 41 23 4 12 7 
32 76 53 147 152 151 144 87 42 64 68 36 30 27 34 42 47 46 50 52 
51 51 51 46 34 6 52 57 55 52 47 44 71 117 96 138 150 151 145 102 
56 68 39 21 13 54 31 38 49 51 52 52 51 50 49 44 37 61 47 32 
55 41 46 35 63 93 94 107 146 152 149 98 40 41 40 15 16 35 31 36 
45 51 52 52 50 49 46 41 36 50 30 3 31 0 34 2 18 10 66 96 
146 150 143 88 38 42 46 24 32 31 35 26 27 47 53 51 49 46 43 38 
31 18 28 3 22 0 30 3 16 3 61 108 144 147 134 99 36 31 42 35 
26 38 14 15 27 36 48 49 47 43 39 33 28 18 37 43 49 48 53 48 
57 33 49 122 143 145 129 84 44 25 41 34 29 34 16 13 30 8 34 45 
45 40 35 31 25 27 34 24 42 49 42 45 47 46 48 107 123 134 109 52 
44 26 31 29 27 11 2 7 34 14 47 39 44 37 33 31 25 33 25 0 
32 30 15 8 51 46 45 48 51 37 7 10 66 30 22 28 33 25 4 5 
21 7 28 33 42 35 32 31 25 26 15 4 32 32 16 7 48 44 44 45 
35 21 3 3 25 29 37 20 11 8 4 9 10 14 10 17 20 33 32 32 
26 26 35 50 60 32 32 31 41 43 43 40 14 6 2 2 9 6 11 13 
8 9 8 8 10 9 8 8 11 26 55 57 50 24 25 26 37 38 41 42 
42 36 25 12 2 1 0 3 8 6 8 18 8 9 9 9 7 6 6 9 
11 11 34 56 50 21 26 30 38 37 39 41 30 9 9 9 8 3 7 2 
4 9 18 12 10 9 9 8 8 7 6 9 8 10 12 52 49 16 24 30 
38 37 37 36 4 7 8 8 7 6 20 6 6 8 19 10 10 10 9 9 
9 9 6 6 6 8 9 30 48 17 27 34 36 36 37 20 4 7 8 9 
6 8 19 7 6 13 12 10 9 9 9 9 9 8 6 5 4 7 9 10 
