P2 
32 30
157
10 42 40 38 36 33 31 29 28 26 22 24 23 29 25 21 18 21 26 27 
29 31 33 34 36 38 40 42 43 43 43 44 44 42 41 39 37 34 33 31 
29 28 27 30 27 30 29 26 22 27 30 32 33 34 36 37 39 41 41 43 
43 44 44 45 45 42 41 39 38 36 34 33 31 30 29 33 30 30 31 29 
27 32 34 34 36 37 38 39 40 42 43 43 44 44 45 45 46 43 42 40 
39 37 36 35 33 32 31 36 32 32 35 33 31 36 37 37 38 39 40 41 
43 44 45 45 45 46 46 46 46 44 43 42 41 39 38 36 35 34 33 38 
36 36 37 36 35 38 39 39 40 41 42 43 44 46 46 46 46 46 47 47 
47 44 43 42 41 40 39 37 36 35 34 39 37 38 40 43 42 40 40 40 
41 42 44 44 46 46 46 46 47 46 47 47 46 44 44 43 42 41 40 39 
38 37 36 43 50 47 39 31 49 49 43 42 43 44 45 46 47 47 47 47 
47 47 47 47 47 45 44 44 43 42 41 40 39 38 39 64 59 43 30 22 
29 45 48 43 44 45 47 47 48 48 48 48 48 47 47 47 47 45 47 45 
44 43 43 44 40 38 46 61 52 34 24 19 19 43 41 40 46 46 47 48 
48 48 48 48 48 47 47 47 47 49 47 54 43 45 46 41 42 40 43 58 
57 51 18 23 33 48 36 37 45 46 48 48 48 48 48 48 47 47 47 47 
47 35 8 19 11 4 26 6 28 42 50 76 71 65 56 60 79 68 38 18 
46 48 49 49 50 50 50 49 49 49 49 49 48 3 5 10 12 15 21 2 
28 30 53 56 45 84 111 113 96 74 31 13 43 49 50 51 51 51 50 50 
50 51 50 49 48 3 33 31 34 22 34 44 37 15 38 27 56 122 149 148 
128 79 31 14 22 46 50 51 51 50 47 43 39 36 33 30 29 40 43 54 
32 16 18 30 26 12 34 88 111 150 150 144 93 76 47 15 5 39 43 40 
38 40 35 38 41 43 43 40 34 52 10 5 27 5 9 26 30 7 37 86 
39 31 109 69 8 75 34 12 12 43 46 47 41 32 38 49 49 49 47 46 
25 10 8 6 17 6 21 36 30 13 8 30 17 1 55 60 0 6 6 22 
30 44 50 51 46 33 37 50 49 48 48 44 34 7 35 38 21 3 19 33 
27 16 13 1 0 1 84 109 13 5 4 43 34 36 46 50 50 45 48 50 
49 49 48 44 32 5 48 53 51 48 42 40 28 16 28 2 1 25 113 139 
98 80 101 87 16 32 33 49 50 49 49 49 48 48 46 42 35 57 43 29 
51 38 41 38 28 19 49 81 103 112 91 120 124 127 121 69 8 29 23 46 
43 47 49 49 47 46 44 40 34 46 27 2 28 4 30 26 24 24 29 85 
127 127 127 139 124 137 143 42 11 32 27 34 14 40 49 47 46 44 42 37 
29 18 26 2 20 5 23 25 28 31 2 76 141 114 116 132 125 147 136 12 
8 19 31 37 15 30 45 47 45 42 38 32 25 20 34 40 46 46 46 45 
45 30 16 33 114 139 138 143 147 142 86 4 23 12 36 35 12 6 33 43 
44 41 35 30 23 31 33 23 40 46 39 42 49 31 15 9 60 118 150 152 
146 119 20 12 29 21 62 40 20 9 44 37 43 37 33 29 23 38 25 0 
29 28 15 22 48 31 12 7 10 57 109 120 111 44 10 24 29 26 30 26 
20 0 26 31 40 32 30 29 22 33 16 4 30 31 18 20 53 28 6 13 
1 1 25 41 18 9 14 12 40 23 38 23 18 22 12 14 18 31 31 30 
24 33 38 49 58 31 31 33 41 40 11 15 4 3 4 6 8 13 11 6 
18 9 29 12 10 8 10 8 26 54 54 54 47 31 29 27 36 37 38 40 
30 39 19 7 1 1 7 10 12 10 9 12 8 11 10 9 8 8 10 11 
12 48 53 53 47 25 29 30 36 34 35 25 14 28 19 6 2 2 1 3 
5 6 12 12 10 8 8 7 5 5 8 6 8 21 50 50 45 22 28 31 
37 35 19 3 6 15 13 3 3 13 2 3 5 8 20 10 10 9 9 7 
8 6 7 5 5 7 41 49 45 21 31 35 36 32 6 3 7 5 6 5 
6 16 4 5 6 10 15 10 10 9 8 7 8 6 6 3 4 6 17 48 
