P2 
32 30
156
10 43 40 38 36 34 32 30 28 27 23 24 24 29 25 19 16 20 24 26 
29 30 32 34 36 38 40 42 43 43 44 44 44 43 41 39 37 35 34 32 
31 29 28 30 27 30 28 25 21 26 29 31 33 34 36 38 40 41 42 43 
44 44 45 45 46 44 42 41 39 37 35 34 32 31 30 34 31 31 31 29 
26 31 33 35 36 37 38 40 41 42 43 44 45 46 46 46 47 44 43 42 
40 38 37 36 34 33 32 37 33 32 34 32 30 34 36 37 38 39 40 41 
43 45 46 46 46 46 47 47 47 45 44 43 42 40 39 38 36 35 34 39 
36 36 37 35 33 36 38 39 40 41 43 44 45 46 47 47 47 47 48 47 
48 46 45 44 43 41 40 39 38 36 36 41 38 38 40 38 36 39 40 41 
42 43 44 45 46 47 47 48 48 48 48 48 48 46 45 45 44 42 42 40 
39 38 36 42 40 40 33 21 33 41 42 42 43 44 45 47 48 49 49 49 
49 48 48 49 48 47 46 45 44 43 43 42 40 37 31 33 26 12 16 19 
26 28 36 43 45 46 47 48 49 50 49 49 49 49 48 49 48 48 49 46 
46 45 45 46 41 34 19 34 47 25 29 30 32 33 25 43 48 47 48 49 
49 49 49 49 50 49 49 49 48 52 50 57 46 48 48 43 25 13 20 41 
61 39 22 35 48 42 26 36 49 48 49 50 50 50 50 50 50 50 50 50 
49 36 9 20 11 5 26 16 17 32 57 46 52 35 10 17 49 50 46 35 
52 49 50 50 50 50 50 50 50 50 51 50 49 4 6 10 12 15 20 14 
25 52 94 66 30 39 23 14 39 63 61 41 54 51 50 50 51 51 51 51 
50 51 51 49 48 3 34 32 35 23 24 17 32 64 83 98 55 43 27 32 
38 60 67 56 36 51 50 50 52 50 48 43 40 38 34 31 30 42 45 55 
33 17 10 12 43 64 125 150 125 42 29 62 56 57 66 48 34 46 46 41 
38 40 34 39 42 43 43 40 35 53 11 5 27 4 6 11 61 79 132 151 
147 76 45 63 60 44 45 31 32 34 47 46 41 30 37 48 49 48 46 46 
26 10 8 6 17 6 16 18 130 100 142 151 150 126 64 51 54 52 35 33 
29 27 52 49 45 31 35 49 49 48 48 44 34 9 38 40 23 4 13 85 
146 114 149 152 152 139 81 31 51 56 49 47 29 29 50 51 51 46 49 51 
50 50 49 44 33 6 51 55 53 51 56 144 137 124 151 152 151 149 96 40 
62 60 48 24 40 38 40 51 49 49 50 49 49 48 46 41 35 59 46 31 
53 39 52 92 116 113 147 152 151 149 94 52 69 37 26 10 45 23 36 46 
43 48 50 49 47 45 42 38 33 49 30 3 30 0 32 2 84 104 147 152 
152 150 90 51 37 32 33 22 38 32 33 39 17 40 50 47 45 42 39 34 
29 19 28 3 21 0 29 3 45 110 139 152 150 140 105 62 42 31 46 32 
39 25 25 36 19 27 45 46 44 39 35 31 25 20 36 41 47 46 51 46 
60 110 136 140 136 146 116 65 35 33 47 24 49 7 23 34 15 3 32 42 
41 36 31 28 23 30 34 24 41 48 40 43 46 98 121 122 136 143 111 42 
32 29 39 23 19 11 26 36 18 8 43 35 39 33 30 28 23 37 26 0 
31 29 14 7 48 44 52 70 90 61 8 27 38 28 32 31 16 3 15 27 
23 0 25 30 38 32 29 29 23 31 17 5 31 31 16 6 46 40 32 27 
6 1 1 25 61 21 49 23 16 5 10 15 21 25 12 14 18 31 30 30 
24 30 38 50 59 31 30 31 40 38 15 19 3 0 2 4 30 13 39 4 
1 7 9 8 7 7 9 4 24 54 53 54 47 28 29 28 37 37 39 39 
24 15 7 1 0 0 0 0 7 5 10 3 6 8 8 6 6 6 10 11 
26 53 53 53 47 25 31 32 38 36 36 12 8 8 7 2 7 1 1 3 
5 15 7 8 9 8 7 6 4 8 9 11 10 45 53 53 48 22 29 33 
39 37 17 4 7 7 8 5 12 12 4 6 12 17 11 10 10 9 9 9 
7 9 7 9 9 17 51 51 47 20 32 36 37 33 4 3 8 7 8 6 
8 17 5 5 16 9 10 9 9 9 8 9 9 7 5 5 8 8 34 50 
