P2 
32 30
155
10 39 37 35 33 31 29 27 26 24 20 21 21 26 23 19 17 20 25 27 
28 30 31 32 35 36 38 39 41 41 41 42 41 39 38 36 34 32 31 29 
27 26 24 27 24 28 27 24 21 26 29 31 32 33 35 36 38 39 40 41 
41 41 42 42 43 40 39 37 35 34 32 31 29 28 27 31 28 28 29 28 
25 30 33 34 35 36 37 38 39 40 41 41 42 43 43 44 44 40 38 37 
35 33 32 31 29 28 27 31 28 28 30 29 28 32 33 34 35 36 37 37 
39 40 41 41 42 42 42 43 43 40 39 38 37 35 34 33 32 30 30 34 
31 31 33 32 31 35 36 37 37 39 40 40 41 43 43 43 43 43 43 43 
43 40 40 39 38 37 36 34 33 32 31 35 33 33 36 36 37 39 30 37 
38 41 42 42 43 44 44 44 44 44 44 44 43 41 41 40 39 38 37 36 
35 33 33 38 35 38 40 22 38 39 24 18 25 42 42 44 45 46 45 45 
45 45 45 44 44 42 41 41 40 39 38 37 36 35 35 39 45 58 42 29 
63 62 28 15 14 19 35 46 46 46 46 46 45 45 45 45 44 43 44 42 
41 40 40 41 38 37 36 47 55 66 19 36 56 58 65 57 49 38 17 42 
46 46 46 46 46 45 45 45 45 46 45 51 40 42 43 38 40 38 40 51 
54 50 19 43 50 50 74 94 74 42 21 33 41 46 46 46 46 46 46 46 
45 32 7 17 10 3 23 5 25 40 42 45 28 21 31 52 64 96 107 148 
137 125 34 28 33 47 46 46 46 46 46 45 45 3 4 8 11 12 18 0 
25 41 33 31 22 13 25 47 100 115 117 129 142 138 63 14 34 47 47 47 
47 48 47 45 45 2 31 28 31 20 31 42 46 43 35 42 25 10 29 51 
84 36 22 18 6 51 87 20 44 48 46 42 38 36 33 29 28 37 40 50 
29 14 16 26 39 42 42 46 39 25 8 36 95 122 91 23 1 1 14 3 
26 39 33 37 40 41 41 38 33 48 9 4 23 3 4 14 41 45 37 48 
48 56 40 103 148 148 116 30 0 8 110 9 27 29 35 46 46 46 44 44 
24 8 7 4 15 5 13 11 40 38 33 50 38 52 104 138 148 148 134 51 
0 48 144 94 31 30 34 47 46 46 45 41 32 6 32 34 18 2 9 6 
34 33 44 33 39 45 102 140 147 148 147 134 96 123 125 99 43 42 45 47 
45 45 45 41 30 4 43 48 47 44 40 38 40 24 36 30 45 45 93 135 
147 147 147 147 146 146 128 51 47 45 46 46 45 45 44 40 34 51 39 26 
46 34 39 31 37 22 28 34 38 47 79 114 140 148 148 147 140 129 95 46 
41 45 46 46 45 44 42 39 33 43 25 2 26 0 29 4 32 29 19 33 
32 51 79 97 129 149 149 149 142 138 90 35 15 39 48 46 45 44 43 39 
32 15 24 2 19 0 27 6 32 43 21 33 44 49 79 117 111 132 149 149 
149 142 74 37 16 32 44 46 46 44 41 36 28 16 31 36 42 42 46 40 
42 23 24 36 53 51 69 136 135 115 118 137 147 136 52 35 13 9 32 42 
44 42 39 32 24 23 29 20 36 42 36 39 32 27 13 21 60 57 44 105 
143 145 124 103 76 37 27 35 21 11 42 37 43 38 35 31 23 29 22 0 
27 25 12 11 40 35 21 26 58 39 20 10 18 50 63 33 8 21 11 38 
22 0 25 31 39 31 31 30 22 23 13 3 27 27 13 5 33 23 29 26 
55 21 14 7 9 8 7 6 5 13 16 26 19 23 11 14 17 29 31 30 
23 23 32 44 53 27 27 27 25 27 19 26 39 15 10 5 11 11 11 10 
5 7 7 11 10 10 8 5 23 50 52 51 45 22 23 22 32 33 33 29 
17 8 27 44 35 15 7 3 6 6 5 5 9 9 7 9 7 10 8 9 
12 47 49 49 44 19 25 26 33 28 9 4 0 2 26 30 35 17 0 3 
8 6 5 18 9 10 7 8 5 8 7 7 5 23 48 49 43 17 24 27 
33 7 4 6 3 0 1 3 6 13 5 8 9 10 11 22 11 9 9 7 
5 7 6 5 3 4 41 47 42 15 26 31 20 0 2 5 4 4 3 2 
6 8 31 8 8 9 21 12 10 9 8 7 5 6 4 4 2 3 20 45 
