P2 
32 30
157
10 43 40 38 36 34 32 30 28 26 23 24 23 29 26 21 19 22 27 28 
30 32 33 35 37 39 40 42 43 44 44 45 45 43 41 39 37 35 34 32 
30 29 27 29 27 30 29 26 23 28 31 33 34 35 37 38 40 42 42 44 
44 45 45 46 46 44 42 40 39 37 35 33 32 31 30 33 30 31 32 30 
28 33 35 36 37 39 39 40 42 43 44 45 46 46 46 47 47 43 41 40 
38 37 35 34 32 31 30 34 31 31 33 32 30 35 36 37 38 39 39 41 
42 44 45 45 45 45 46 46 46 44 42 41 40 38 37 35 34 33 32 36 
34 34 36 35 33 37 38 39 40 41 42 43 44 45 46 46 46 46 46 46 
46 44 43 42 41 40 39 37 36 35 34 39 36 37 38 37 36 40 42 41 
42 43 44 45 46 47 46 47 48 47 47 47 47 44 44 43 42 41 40 39 
38 36 36 40 38 38 38 43 27 17 34 42 45 45 45 46 48 49 48 48 
49 48 48 48 48 45 45 44 43 42 41 40 39 38 38 42 39 40 38 16 
14 18 12 28 46 47 47 48 49 49 49 49 49 48 48 48 48 46 47 45 
44 43 44 44 41 39 39 43 40 22 29 95 125 109 75 47 41 48 49 49 
49 49 49 49 49 48 48 48 48 49 48 55 43 46 47 42 44 41 40 44 
25 16 74 118 147 144 109 70 39 29 45 49 49 49 49 49 48 48 48 48 
48 35 8 19 10 4 25 6 27 42 42 46 21 37 4 19 54 46 7 3 
12 10 35 50 51 50 50 50 49 50 50 49 48 3 5 9 11 14 20 0 
26 43 43 45 12 23 1 19 113 56 23 2 0 4 26 50 51 51 51 51 
50 51 51 49 48 3 33 30 33 21 34 44 49 44 43 44 13 9 17 55 
113 85 23 16 6 18 37 51 52 51 48 44 40 38 35 32 30 40 43 53 
31 16 18 28 41 42 44 41 11 75 106 128 145 141 131 95 88 31 29 40 
38 40 35 39 42 43 43 40 35 51 10 4 25 4 6 15 42 42 42 25 
30 122 150 136 143 147 150 150 126 40 19 42 41 30 37 48 48 48 46 46 
25 9 7 5 16 5 15 12 39 31 39 13 41 118 145 130 141 136 146 150 
129 51 10 25 45 32 36 49 48 48 47 43 34 7 34 37 20 2 10 6 
31 32 49 14 72 109 144 150 151 150 150 149 124 90 36 28 50 44 47 49 
49 48 48 44 32 5 47 51 50 47 43 41 45 45 49 16 69 103 135 149 
151 150 150 148 115 111 38 53 49 48 48 49 48 47 47 44 37 55 42 28 
50 36 42 31 38 39 45 23 58 82 103 131 137 142 140 130 102 120 18 66 
41 47 48 48 47 47 46 42 37 46 27 2 28 0 31 1 21 26 43 15 
1 25 57 87 115 112 93 78 75 22 10 47 20 41 51 49 48 48 47 43 
36 17 27 2 20 0 28 3 26 31 39 25 2 27 86 97 115 128 127 124 
85 2 13 45 15 35 48 49 49 47 45 41 33 17 34 39 46 45 49 46 
52 43 40 39 19 12 74 116 151 150 118 58 11 2 8 14 24 12 34 45 
48 46 43 38 29 25 31 23 39 46 39 40 42 46 36 32 15 4 4 14 
35 24 12 9 11 11 11 13 33 20 46 39 46 42 40 36 28 30 24 0 
29 26 13 10 48 47 27 22 4 9 4 5 9 11 12 13 11 34 21 22 
34 43 27 33 42 34 35 34 25 24 14 3 29 29 15 9 47 47 32 20 
6 3 4 7 9 11 12 12 8 26 26 14 30 16 9 19 19 31 34 32 
25 23 33 46 56 29 29 29 38 40 25 13 15 0 3 5 8 9 9 10 
11 13 13 14 33 11 9 10 11 31 56 54 47 21 23 23 34 35 37 31 
15 21 22 9 6 8 2 4 7 8 8 10 16 11 8 9 7 5 8 10 
9 9 42 53 46 19 24 28 35 35 28 6 8 8 8 6 4 11 11 6 
7 9 10 23 12 10 9 9 7 8 7 10 6 7 19 52 46 14 22 28 
35 34 9 2 7 6 6 6 6 8 25 8 8 9 16 14 11 10 9 9 
7 9 8 7 5 5 6 41 46 15 25 32 33 28 2 2 6 5 6 5 
7 8 20 10 10 11 21 12 10 10 9 8 7 9 7 5 3 4 6 19 
