P2 
32 30
155
10 45 42 40 38 35 34 32 30 28 23 25 25 31 27 21 18 22 27 29 
30 32 34 36 39 40 42 44 46 46 46 47 47 45 43 41 39 37 35 33 
32 30 28 31 29 32 31 27 23 28 31 33 35 36 38 40 42 43 44 46 
46 47 47 48 48 46 44 43 41 39 37 35 33 32 31 35 33 33 34 31 
28 33 35 36 38 40 40 42 43 45 46 47 48 48 48 49 49 47 45 44 
42 40 39 37 35 34 33 38 35 35 37 34 32 37 38 39 40 41 43 44 
45 47 48 48 49 49 49 50 50 48 46 45 43 42 41 39 38 36 35 40 
38 38 39 37 35 39 40 41 42 44 45 46 47 49 49 49 50 50 50 50 
50 48 47 45 45 43 42 40 39 38 37 42 39 40 41 39 38 42 43 43 
44 46 47 48 49 50 50 51 51 50 51 51 50 48 47 46 45 44 43 42 
41 39 39 44 40 41 34 41 39 39 27 33 45 47 48 49 51 52 52 51 
51 51 51 51 51 48 48 47 46 45 44 43 42 41 40 44 41 33 30 28 
12 16 18 19 20 37 49 51 52 52 52 52 52 51 51 51 51 49 50 48 
47 46 46 47 43 42 42 35 21 16 35 48 22 25 30 27 28 23 42 52 
52 52 52 52 52 52 52 51 51 53 52 59 47 49 50 45 46 41 26 16 
27 37 49 51 21 16 32 38 28 18 35 52 52 53 53 53 52 52 52 52 
52 38 9 21 11 5 28 8 29 32 13 19 85 82 26 45 22 9 29 42 
43 22 30 48 54 53 53 53 53 53 53 53 52 4 6 10 12 16 22 0 
28 18 11 20 58 116 71 34 27 22 28 48 52 38 31 52 54 54 53 53 
53 54 54 52 51 3 36 33 36 23 36 47 51 35 15 10 77 80 71 30 
29 52 39 54 60 56 44 54 54 52 50 46 42 39 36 33 31 43 46 57 
34 17 20 29 43 43 31 12 100 150 149 77 41 64 64 46 76 66 44 43 
46 44 37 41 44 45 46 43 37 55 11 5 28 5 7 16 45 44 41 17 
118 150 151 116 67 61 53 41 50 42 38 31 39 34 41 51 51 51 49 49 
27 10 9 6 17 6 16 13 42 40 88 39 144 151 151 133 75 37 53 49 
38 46 38 21 40 34 39 52 51 51 50 46 37 8 38 41 22 4 12 8 
33 102 119 112 151 152 151 141 74 40 62 70 34 51 31 20 46 45 50 53 
52 52 51 47 35 6 52 57 55 53 48 45 49 73 104 114 151 152 152 137 
93 60 68 53 28 26 35 36 42 46 51 53 52 52 51 46 39 61 47 32 
55 41 46 35 43 45 70 102 150 152 151 135 91 44 46 35 14 6 50 28 
38 49 52 52 51 50 47 43 37 49 30 3 31 0 34 2 18 9 61 105 
143 152 150 126 93 34 39 46 21 21 46 27 32 45 52 51 49 48 46 40 
33 17 28 3 22 0 30 3 16 3 44 112 138 142 148 130 101 34 31 47 
31 30 40 24 22 36 49 50 49 46 41 36 29 17 36 42 49 48 53 48 
57 33 43 101 121 134 147 131 79 40 27 48 23 31 56 9 13 36 36 46 
48 44 38 33 26 25 33 24 42 49 42 44 47 46 45 49 60 82 94 55 
26 37 29 45 24 26 20 13 13 31 45 41 47 41 36 33 26 30 24 0 
31 29 14 7 50 45 45 47 31 28 5 3 18 53 25 33 32 19 15 3 
6 24 32 34 43 35 34 32 25 24 13 4 31 32 17 6 48 44 44 45 
32 20 10 2 10 46 41 28 13 29 16 6 10 11 9 13 15 24 35 34 
27 24 33 48 59 32 32 32 41 43 43 42 19 10 3 1 5 13 11 25 
7 4 7 8 9 8 7 7 11 13 35 57 50 22 22 23 35 37 40 42 
42 41 30 15 6 1 0 0 2 5 4 11 4 7 8 9 8 6 5 9 
10 12 12 50 49 20 24 28 37 37 39 41 40 18 9 9 7 2 14 2 
2 7 10 22 11 10 10 10 10 9 7 10 7 11 11 26 50 15 22 29 
38 37 38 39 25 5 9 9 8 7 15 12 6 7 19 11 11 11 11 10 
10 11 9 9 6 8 11 10 43 17 26 32 36 36 37 37 9 3 9 8 
8 7 10 21 8 10 18 11 10 10 10 10 10 10 9 6 6 6 10 10 
