P2 
32 30
155
10 41 39 37 35 33 31 29 28 26 22 23 23 28 25 20 18 21 26 27 
29 30 32 33 36 38 39 41 42 43 43 43 43 41 39 38 36 33 32 30 
29 27 25 28 26 30 28 25 22 26 29 31 32 33 35 36 38 40 41 42 
42 43 43 43 44 42 41 39 37 35 34 33 30 29 28 32 30 30 31 30 
27 31 33 34 35 37 38 39 40 41 42 43 44 44 44 45 45 43 42 40 
39 37 36 34 33 31 31 35 32 32 34 33 31 36 36 37 38 39 40 41 
43 43 45 45 45 45 45 46 46 44 42 41 40 39 37 36 35 33 32 37 
35 35 37 37 39 40 38 39 39 41 42 43 44 45 45 46 46 46 46 46 
46 44 43 42 41 40 39 37 36 35 34 39 38 45 43 30 43 54 45 41 
42 43 44 44 45 46 46 47 47 46 46 47 46 44 44 43 42 41 40 39 
38 37 36 44 66 54 46 35 22 42 47 45 43 44 45 46 47 48 48 48 
48 47 47 48 47 45 45 44 43 42 41 41 40 38 38 54 63 54 36 21 
27 28 46 40 43 46 47 48 49 49 49 48 48 48 47 48 47 45 46 44 
43 43 43 44 40 39 41 54 60 53 42 16 22 30 49 38 42 46 47 48 
48 48 48 47 47 47 47 46 46 48 47 54 43 45 45 40 42 40 44 50 
67 64 49 36 45 54 64 35 21 46 48 48 48 47 48 48 47 47 47 47 
46 35 8 19 10 4 26 6 30 41 33 37 43 61 95 95 87 76 61 27 
22 46 48 49 49 49 49 49 48 48 49 48 47 3 5 9 11 14 20 0 
29 26 24 19 47 100 144 147 142 119 72 24 15 31 48 49 50 49 49 49 
49 49 49 47 46 2 32 30 33 21 33 44 38 20 18 37 101 139 150 150 
150 142 113 40 4 15 47 49 50 49 46 42 39 36 33 30 28 39 42 53 
31 16 18 29 37 21 14 55 108 114 141 151 112 79 104 70 3 31 44 40 
38 40 34 38 41 42 42 39 34 51 10 4 26 4 9 23 40 19 3 70 
81 72 100 147 116 91 100 97 18 52 45 46 41 30 37 48 48 48 45 45 
25 9 8 5 16 6 20 28 44 29 14 89 102 130 124 135 137 145 145 116 
34 60 44 49 44 31 35 48 47 47 47 42 33 7 34 37 20 3 17 18 
47 37 17 83 139 150 129 139 134 150 149 119 27 55 35 46 48 43 47 48 
47 47 46 41 29 5 47 52 50 48 45 41 49 32 24 57 135 150 104 136 
117 145 149 116 27 36 25 43 49 48 48 49 48 47 45 40 33 56 42 29 
50 38 46 34 45 27 34 32 110 140 107 108 134 149 138 83 2 40 18 43 
42 47 49 49 47 46 43 38 32 45 27 2 28 4 32 14 33 30 33 2 
88 132 110 121 120 126 142 71 6 27 23 35 14 39 49 47 45 44 42 35 
28 17 26 2 19 1 28 10 30 41 37 8 60 136 113 121 126 143 136 37 
20 15 33 36 15 30 45 46 45 42 38 32 25 18 34 39 45 45 49 42 
47 45 28 11 17 101 128 144 147 141 85 9 22 20 40 31 12 6 33 42 
44 40 35 29 23 28 31 22 38 45 39 40 47 47 21 11 3 23 96 128 
124 77 10 5 29 33 55 30 20 9 44 36 42 37 33 29 22 34 24 0 
28 26 13 9 44 54 19 6 10 1 9 24 26 7 9 7 11 40 21 13 
20 0 25 30 39 31 29 28 21 28 15 4 29 29 15 8 43 43 28 6 
13 4 7 5 6 11 12 6 8 29 25 13 18 21 11 14 18 30 30 29 
24 29 37 49 57 30 30 31 42 41 30 13 4 2 7 12 12 11 9 11 
7 10 12 11 11 10 10 8 25 53 54 54 47 26 27 26 35 35 37 36 
33 31 28 10 6 7 4 5 5 6 8 17 8 9 7 9 6 9 9 10 
10 46 52 52 46 22 28 30 36 34 24 7 3 19 25 4 6 12 13 6 
7 8 10 19 10 8 8 5 6 7 8 6 7 20 51 51 45 20 27 31 
37 29 4 5 5 4 6 6 6 9 21 10 10 11 18 12 10 9 8 6 
7 8 6 5 5 6 38 49 45 18 29 33 35 12 4 4 6 5 5 5 
7 9 10 20 10 11 19 10 9 8 7 7 7 7 5 5 2 5 13 47 
