P2 
32 30
152
10 39 37 35 33 31 29 27 26 24 20 21 21 27 24 19 18 20 25 26 
28 29 31 32 34 36 37 39 40 40 41 41 41 39 38 36 34 32 31 29 
28 26 24 27 25 29 27 24 21 26 29 31 32 33 34 36 37 38 39 40 
40 41 42 42 43 40 38 37 36 34 32 31 29 28 27 31 28 28 30 28 
26 30 33 33 35 36 36 37 38 40 41 41 42 42 43 43 43 40 39 37 
36 34 33 32 31 29 28 32 29 29 32 30 29 33 34 35 36 36 38 38 
40 41 42 42 42 42 43 43 43 40 39 38 37 36 35 33 32 30 30 34 
31 32 34 33 31 35 36 37 37 39 40 40 41 42 43 43 43 43 43 43 
43 41 40 39 38 37 36 35 34 33 32 36 34 34 36 37 35 34 42 43 
43 41 41 42 43 44 43 44 44 43 44 44 43 41 41 40 39 38 37 36 
35 34 34 38 36 47 44 42 42 9 26 43 46 43 42 43 44 45 45 45 
45 44 44 44 44 41 41 40 39 39 38 37 36 35 35 39 47 57 45 48 
33 30 27 40 46 45 42 44 45 45 45 45 45 44 44 44 43 42 43 41 
41 40 40 41 38 36 36 40 46 57 50 89 128 131 88 54 44 32 43 45 
45 45 45 45 45 44 44 44 43 47 45 52 41 43 44 40 42 39 39 40 
39 42 87 126 147 147 137 93 45 27 40 46 47 47 47 47 46 46 46 46 
45 33 7 17 10 4 24 6 25 40 40 34 33 71 99 115 145 146 117 101 
44 15 36 47 47 47 47 46 46 46 46 46 44 3 4 8 11 13 19 0 
25 41 41 32 28 74 93 107 127 131 104 99 81 14 40 47 48 47 47 47 
46 47 46 46 44 2 30 28 31 19 31 41 45 41 40 19 40 100 121 127 
113 127 118 119 102 24 44 47 48 47 44 40 37 34 31 28 26 37 40 50 
28 14 16 25 38 40 32 6 50 115 142 129 97 107 128 144 111 32 31 38 
36 37 32 36 38 40 39 37 32 47 9 3 23 3 5 14 41 42 34 4 
57 124 148 143 135 138 144 147 125 30 4 38 38 28 35 45 45 45 43 43 
23 8 7 4 15 5 13 11 40 45 36 15 65 121 149 146 139 141 145 147 
129 47 11 39 43 30 33 46 45 45 44 40 32 6 32 34 19 2 9 6 
35 41 42 15 69 112 144 127 128 131 128 147 123 55 30 52 47 42 45 46 
45 45 45 41 30 4 44 48 47 45 40 38 42 48 31 21 73 100 140 142 
148 147 144 145 116 72 36 53 45 46 46 46 45 44 44 40 35 52 39 26 
47 34 39 32 36 38 37 31 64 79 125 142 148 148 146 142 105 59 28 37 
32 44 46 45 44 44 43 39 34 42 25 2 26 0 29 6 24 29 42 26 
1 42 91 120 135 136 128 106 41 0 23 26 14 38 47 45 44 44 43 39 
32 15 24 2 18 0 26 3 19 29 44 31 4 40 69 69 89 92 78 84 
43 0 22 29 17 31 44 46 45 43 41 37 29 16 31 37 43 42 46 42 
50 33 40 40 19 26 95 102 113 121 126 84 10 2 8 18 24 10 31 42 
44 42 39 34 25 23 29 21 36 43 36 39 43 33 45 34 24 3 31 77 
118 105 50 9 7 6 23 21 42 14 43 36 43 38 36 32 24 29 22 0 
27 25 12 7 45 44 43 16 16 4 2 5 9 9 8 11 9 29 22 18 
46 15 25 31 39 31 32 31 22 24 13 3 28 28 14 7 44 38 46 6 
19 2 5 7 7 9 12 12 7 19 23 32 19 17 10 15 17 30 31 30 
24 22 31 44 52 27 26 27 40 25 38 10 20 4 1 4 7 9 8 8 
8 10 16 22 25 6 7 7 12 41 51 50 43 20 22 21 31 32 34 34 
34 14 40 14 10 4 1 4 5 6 6 6 15 6 7 6 6 5 6 8 
8 11 46 48 43 17 23 26 33 31 31 11 8 35 20 13 5 7 8 2 
4 4 7 16 11 9 7 7 4 6 5 8 5 5 26 48 42 14 22 27 
33 32 14 2 5 6 10 5 4 6 22 8 8 8 9 20 10 9 8 7 
5 7 6 6 3 4 7 44 42 14 25 30 32 29 2 1 6 5 5 5 
6 8 19 8 8 9 18 12 10 9 8 6 5 7 5 3 2 3 4 25 
