P2 
32 30
158
10 43 41 39 37 35 33 31 29 27 23 24 24 30 27 22 20 23 27 29 
31 32 34 36 38 40 42 43 45 45 45 46 46 43 41 39 37 35 34 32 
30 29 27 30 27 31 30 26 23 28 31 33 34 35 37 38 41 42 43 44 
44 45 45 46 46 43 42 40 38 36 35 33 32 30 29 33 31 31 32 30 
28 32 35 36 37 38 39 40 42 43 44 45 45 46 46 46 47 44 43 41 
40 38 36 35 34 32 31 36 33 33 35 33 32 37 37 38 39 40 41 42 
44 45 46 46 46 46 47 47 47 44 43 42 41 39 38 36 35 34 33 38 
35 35 37 36 34 38 39 40 41 42 43 44 45 46 47 47 47 47 47 47 
47 45 44 43 42 40 39 38 37 35 35 39 37 37 39 38 37 40 42 42 
43 44 45 46 46 47 47 48 48 47 47 48 48 45 44 44 43 41 40 40 
39 37 37 41 38 39 44 35 14 29 38 45 45 46 46 47 49 49 49 49 
49 48 49 48 48 46 45 44 44 42 42 41 40 39 38 42 40 41 43 5 
2 15 32 45 47 48 48 49 50 50 50 49 49 49 48 48 48 46 47 45 
45 44 44 45 41 40 39 43 42 42 38 61 92 75 35 36 32 47 48 49 
49 49 49 49 49 48 48 48 47 50 48 55 44 46 47 42 44 40 40 44 
34 23 40 95 116 68 37 29 18 46 49 49 49 49 49 49 48 49 48 48 
48 36 8 20 11 4 26 7 28 43 42 42 7 5 3 115 58 0 1 9 
17 34 51 51 51 51 51 51 50 51 50 50 49 3 5 10 12 14 21 0 
27 44 44 42 7 32 37 115 91 19 35 2 16 16 51 52 52 52 51 51 
51 51 52 50 49 3 33 31 34 22 35 45 49 44 44 43 16 73 118 145 
147 134 96 82 58 21 48 51 52 51 48 44 40 37 34 31 30 41 44 54 
32 16 19 29 42 43 44 38 57 147 130 139 145 150 151 132 70 23 40 41 
39 41 36 40 42 44 44 41 36 52 10 5 27 5 7 16 44 43 45 28 
86 143 134 152 145 146 151 144 81 17 41 48 42 32 38 50 50 49 47 47 
26 10 8 5 17 6 16 13 40 32 41 21 83 137 147 152 152 151 151 142 
85 25 18 44 47 33 37 50 49 49 49 45 35 7 34 37 20 3 11 6 
30 24 35 6 88 126 150 151 151 150 150 133 100 100 17 37 50 44 48 49 
49 48 48 44 33 5 48 52 51 48 44 41 45 47 34 10 85 105 126 142 
143 142 139 118 116 105 33 49 50 49 49 49 49 48 47 43 37 57 43 29 
51 38 43 32 39 43 36 10 81 63 88 121 129 118 104 99 114 73 29 66 
43 48 50 49 48 48 46 43 37 46 27 2 28 0 32 2 22 29 38 4 
3 60 96 126 146 146 126 127 43 3 24 46 19 41 51 49 48 47 46 41 
34 17 26 2 20 0 28 3 22 35 36 15 2 68 109 147 152 151 149 131 
36 2 31 38 17 34 47 49 48 46 44 39 31 17 35 40 46 45 50 45 
49 40 40 35 8 31 69 108 111 90 55 17 9 3 12 27 25 11 35 45 
48 46 42 37 28 26 32 23 40 46 40 41 38 39 33 33 2 1 5 11 
13 13 11 12 10 9 14 16 37 13 46 40 47 42 40 35 26 31 24 0 
29 27 13 6 37 45 27 20 1 3 6 10 11 13 13 13 17 36 24 17 
57 13 27 33 42 34 34 33 24 25 14 4 30 30 15 9 46 42 34 18 
6 3 6 11 13 13 13 12 9 39 17 27 36 24 10 17 19 32 33 32 
25 24 34 48 57 30 30 31 41 39 30 14 12 4 6 9 11 12 12 12 
12 41 7 37 35 11 10 12 19 52 56 55 48 22 24 24 35 36 38 31 
19 21 21 11 4 7 3 6 7 8 8 19 7 10 11 21 16 10 9 11 
10 25 53 53 47 19 24 28 35 35 22 7 8 8 9 5 5 18 8 8 
9 10 14 21 12 10 9 8 8 9 8 9 6 7 43 52 46 14 23 29 
36 29 2 6 7 6 6 6 7 21 12 10 10 11 22 12 11 11 10 9 
9 9 7 8 5 6 20 50 46 15 25 32 34 16 1 4 7 6 6 7 
8 10 22 11 11 18 16 13 11 10 9 9 9 9 6 6 3 5 5 42 
