P2 
32 30
155
10 42 40 38 35 33 32 30 28 26 22 23 23 29 25 20 18 21 25 27 
28 31 32 34 36 38 40 42 43 43 43 44 44 42 41 39 37 35 33 31 
29 28 26 29 27 30 29 26 22 27 30 31 32 34 35 37 39 41 42 43 
43 44 44 45 45 43 42 40 38 36 35 33 31 30 29 33 31 31 32 30 
27 31 33 34 36 37 38 40 41 42 43 44 44 45 45 46 46 44 43 41 
40 38 36 35 33 32 31 36 33 33 35 33 31 35 36 37 38 39 40 42 
43 44 46 45 46 46 47 47 47 44 43 42 40 38 37 36 34 33 32 37 
35 35 37 37 33 37 37 38 39 41 42 43 44 45 46 46 46 46 46 46 
46 44 43 42 41 40 38 37 36 35 34 39 38 38 36 46 45 42 40 40 
41 42 44 44 45 46 46 46 47 46 46 47 47 44 44 43 42 41 40 38 
38 36 39 56 50 47 29 26 48 53 45 42 43 44 44 46 47 47 47 47 
47 47 47 47 47 45 44 43 43 42 41 40 39 39 50 55 47 23 17 16 
27 38 38 42 44 45 46 47 48 48 48 47 48 47 47 47 47 45 47 44 
43 42 43 44 40 40 51 60 39 33 11 16 28 38 31 43 45 46 47 48 
47 48 48 48 48 47 47 47 46 49 48 55 44 46 46 41 43 40 52 64 
63 38 37 48 51 53 33 44 48 47 48 49 49 48 48 49 48 48 48 48 
48 36 8 20 11 4 26 9 29 49 59 61 67 64 71 93 72 65 25 33 
49 49 50 50 51 50 50 50 50 50 50 50 49 3 5 10 11 15 21 4 
25 28 24 33 66 86 120 114 69 43 29 26 40 50 50 50 51 50 50 50 
49 50 51 49 48 3 33 30 33 22 34 44 26 8 18 76 97 122 146 138 
75 33 26 15 16 49 50 50 51 49 47 43 39 37 33 30 29 40 43 53 
32 16 20 27 24 8 57 92 95 142 142 83 68 95 70 3 20 48 43 40 
38 39 34 39 41 42 43 40 35 51 10 5 26 5 13 30 23 1 61 77 
86 111 139 132 119 117 99 13 43 45 44 46 41 30 37 48 48 48 46 46 
25 9 8 5 17 8 31 33 31 6 76 106 140 114 137 146 150 149 114 34 
58 48 50 49 44 31 35 48 47 48 47 43 33 7 35 37 21 5 24 26 
40 15 80 137 148 120 144 139 150 149 116 33 54 54 43 48 49 44 47 49 
48 48 47 42 30 5 48 53 51 49 43 49 39 14 54 136 139 95 117 125 
151 149 110 59 38 42 32 48 49 48 48 49 48 47 45 41 33 56 43 29 
51 39 40 40 29 27 33 114 143 119 141 150 150 140 94 18 21 23 27 46 
43 47 48 48 47 45 42 37 31 46 27 2 28 6 26 28 26 31 7 90 
131 104 120 117 138 144 73 1 22 36 31 35 14 39 49 47 45 43 40 34 
28 18 26 2 20 3 25 27 32 29 5 66 136 118 133 140 150 136 64 3 
14 24 30 37 16 29 45 47 45 42 37 31 25 20 35 40 46 47 48 42 
45 25 13 19 104 133 150 151 140 93 31 7 15 19 41 35 11 5 33 42 
44 40 34 29 23 30 33 23 40 46 39 39 45 26 12 4 37 100 126 116 
78 21 7 20 17 37 51 36 20 8 44 37 42 36 32 29 23 38 25 0 
30 28 15 21 52 21 9 6 0 15 36 38 11 8 11 12 29 32 38 19 
18 0 26 31 40 32 30 29 23 33 16 4 30 30 18 21 48 22 7 12 
2 2 4 6 9 13 10 7 25 24 25 17 21 25 12 14 19 31 31 30 
25 32 38 50 58 31 31 33 44 29 7 7 1 6 8 11 13 10 10 8 
8 10 13 10 12 14 10 2 25 54 54 54 48 29 28 26 35 36 36 23 
28 21 9 6 2 0 3 6 6 8 15 8 9 7 7 6 7 7 9 8 
27 52 52 52 46 25 30 30 36 33 13 9 5 13 3 4 15 1 4 4 
6 12 15 9 9 8 7 5 5 7 8 8 11 48 51 51 46 22 28 31 
37 20 2 5 6 5 5 5 15 11 8 9 10 21 11 10 10 9 8 6 
8 7 6 7 7 24 50 50 46 21 31 35 36 6 3 5 5 6 5 6 
8 19 9 9 16 15 11 10 9 8 7 7 9 6 4 4 5 6 41 49 
