P2 
32 30
157
10 41 39 36 34 32 30 29 27 25 21 22 22 27 24 19 18 21 26 27 
29 31 32 33 36 38 39 41 42 42 43 43 43 41 40 37 36 34 32 30 
29 27 25 28 25 29 28 25 22 27 31 32 33 34 36 37 39 40 41 42 
42 43 44 44 45 42 40 39 37 35 34 32 30 29 28 32 29 30 31 29 
27 32 34 35 37 37 38 39 40 42 43 43 44 44 45 45 45 41 40 39 
37 35 34 32 31 30 29 33 30 30 33 31 30 34 36 36 37 38 39 39 
41 42 43 43 43 44 44 44 45 42 41 40 38 37 35 34 32 31 30 35 
32 32 35 34 32 36 38 38 39 40 41 42 43 44 44 44 44 44 45 45 
45 42 42 40 39 38 37 36 35 33 32 37 34 35 37 36 35 40 45 42 
42 42 43 43 44 45 45 46 46 45 45 46 45 43 42 41 40 39 38 37 
36 35 34 39 36 37 40 40 41 38 46 51 48 44 44 45 46 47 47 46 
47 46 46 46 46 43 43 42 41 40 39 38 37 36 36 41 38 42 60 53 
44 30 22 42 49 47 46 47 47 48 47 47 47 46 46 46 46 44 46 43 
43 42 42 43 39 38 38 42 40 57 69 52 35 13 17 32 52 44 47 48 
48 48 48 48 47 47 47 46 46 48 47 53 42 44 45 40 42 39 39 43 
41 65 62 55 34 28 39 47 55 41 47 48 48 48 48 48 47 47 47 47 
47 34 7 18 10 4 24 6 26 41 40 45 42 51 61 63 65 67 105 79 
61 27 28 49 49 49 48 48 48 48 48 47 47 3 5 9 11 13 19 0 
25 42 41 44 19 29 27 76 105 117 121 118 59 18 18 46 50 49 49 49 
48 49 49 47 46 2 32 29 32 20 32 43 47 42 42 39 9 17 55 120 
148 147 134 109 73 44 12 23 48 49 46 43 39 36 33 30 28 39 42 52 
30 15 17 27 40 41 43 38 16 41 106 146 151 150 108 34 31 38 7 7 
37 40 35 39 41 42 42 40 34 50 10 4 25 4 5 15 41 41 43 27 
12 36 58 46 61 107 85 12 49 44 15 8 42 31 37 48 48 48 45 46 
25 9 8 5 16 5 14 12 38 30 41 31 6 6 43 51 12 96 40 4 
7 14 38 25 44 33 36 49 48 48 47 43 34 6 34 36 19 2 10 6 
29 23 44 30 6 8 3 5 9 124 86 12 9 38 64 35 46 43 47 49 
48 48 47 44 33 5 46 50 48 46 42 40 44 36 45 27 14 10 0 2 
31 133 120 123 116 130 81 25 45 36 47 48 48 47 47 43 38 54 41 27 
48 35 40 31 39 40 42 31 10 17 47 87 101 94 129 148 149 131 104 16 
36 22 46 47 46 46 45 42 38 44 25 2 27 0 30 1 16 17 39 30 
17 16 86 139 141 135 140 140 149 134 30 14 41 21 48 47 47 46 46 43 
37 16 26 2 19 0 27 2 17 11 38 31 37 3 61 126 116 113 128 130 
151 131 13 9 33 24 46 48 48 47 45 42 36 17 33 38 44 43 48 43 
53 32 40 35 43 9 21 117 127 128 140 150 148 108 15 25 19 31 35 44 
47 46 43 40 31 24 30 21 37 44 37 40 43 41 43 39 38 26 5 68 
121 142 150 148 126 67 5 26 25 38 39 39 45 41 41 38 29 29 22 0 
27 26 12 6 46 42 41 37 44 23 5 14 88 121 132 135 88 9 7 27 
28 54 23 33 41 33 36 35 26 23 13 3 28 28 14 5 43 40 41 42 
35 19 14 5 11 58 76 44 8 9 9 35 38 23 5 14 18 31 36 34 
26 22 32 45 55 28 27 28 37 40 43 51 38 11 25 9 8 5 5 6 
10 10 4 24 25 33 13 1 22 52 57 56 47 21 22 22 33 34 36 37 
37 38 42 36 43 21 16 2 5 10 11 12 10 6 8 6 8 14 8 9 
8 13 37 51 46 17 23 26 34 33 35 36 29 15 17 12 40 28 12 6 
3 4 5 5 6 6 14 9 7 8 8 7 7 9 7 39 45 13 21 27 
34 33 33 27 6 9 21 7 26 31 8 12 9 4 6 5 7 15 12 8 
7 7 4 7 5 6 3 13 44 13 23 29 32 32 32 6 4 6 6 10 
8 7 7 9 22 9 8 8 8 16 8 7 7 5 3 6 3 3 2 2 
