P2 
32 30
155
10 44 41 39 37 34 33 31 29 27 23 24 24 30 26 21 18 21 26 28 
30 32 34 35 37 40 42 43 45 45 45 45 46 44 42 40 38 36 34 33 
31 29 27 30 27 31 29 26 22 27 31 33 34 36 37 39 41 42 44 45 
45 46 46 47 47 45 43 41 39 37 36 34 32 31 30 34 31 31 32 30 
27 32 34 35 37 38 39 40 42 43 45 45 46 46 47 47 47 45 43 42 
40 38 37 35 33 32 31 36 33 32 35 33 31 35 36 37 38 40 41 42 
44 45 46 46 46 47 47 48 48 45 44 43 42 40 38 37 36 34 33 38 
36 36 38 36 34 37 39 39 41 42 44 44 46 47 48 48 48 48 48 48 
49 47 46 45 44 42 41 40 39 37 36 41 39 39 41 39 37 41 43 43 
44 45 47 47 48 49 49 50 51 50 50 50 50 47 46 45 44 43 42 41 
40 38 38 42 40 40 42 40 41 35 33 42 45 46 47 48 50 50 50 50 
50 50 50 50 50 47 46 46 44 44 43 42 40 39 39 44 42 33 44 35 
24 18 16 22 27 44 48 50 50 51 51 50 50 50 50 50 49 48 49 47 
46 45 45 46 42 41 40 44 37 26 30 15 15 21 26 30 26 31 46 50 
50 51 51 51 51 50 50 50 50 52 50 57 45 47 48 43 45 42 41 37 
19 20 46 50 25 31 38 36 31 24 43 51 51 50 51 51 50 50 50 51 
50 36 8 20 11 4 27 7 28 43 32 15 17 31 57 56 23 21 38 51 
47 28 44 52 52 51 52 51 51 51 51 51 50 3 5 10 12 15 21 0 
27 37 13 18 45 43 42 49 24 13 27 58 60 48 43 59 53 52 52 52 
52 53 53 51 50 3 34 31 35 22 35 46 49 19 11 25 55 66 31 34 
36 18 29 58 69 68 52 50 55 51 49 45 41 39 36 32 31 42 45 56 
32 16 19 29 39 10 11 35 64 104 95 27 36 35 57 56 66 67 51 36 
51 44 37 41 43 45 45 42 37 53 11 5 27 4 6 16 43 30 11 11 
65 100 110 81 38 53 76 49 59 57 35 34 39 34 41 50 50 50 48 48 
27 10 8 6 17 6 16 13 41 31 30 12 73 143 151 134 64 63 71 59 
45 35 32 28 37 36 38 51 51 50 49 46 36 8 37 39 22 4 12 7 
31 23 39 13 75 146 151 149 111 60 52 60 53 35 55 26 35 47 48 52 
51 51 51 47 35 6 50 55 53 51 46 44 47 38 88 16 91 152 151 150 
130 58 40 60 68 26 38 33 36 49 50 51 51 51 50 46 40 59 45 31 
54 40 46 34 43 59 128 88 124 151 151 151 130 76 53 68 44 19 25 48 
27 39 51 51 50 50 48 45 39 48 29 3 30 0 34 2 18 29 95 100 
116 151 152 152 133 87 46 51 27 16 16 36 25 36 54 51 50 49 48 43 
37 18 28 3 22 0 30 3 16 4 41 86 109 152 153 152 140 97 35 40 
38 25 31 46 27 35 49 51 50 48 46 40 33 18 35 41 48 47 52 47 
56 32 42 70 104 145 151 148 135 110 33 41 40 33 30 33 6 20 41 45 
47 45 41 35 27 26 33 23 40 48 40 43 46 44 44 49 102 129 135 146 
137 108 42 27 41 33 38 36 5 25 44 39 45 41 37 33 25 31 24 0 
30 28 14 7 49 44 43 46 78 110 135 138 83 28 28 39 38 26 26 11 
9 12 23 35 42 34 34 33 24 25 14 4 31 31 16 6 47 43 43 44 
37 41 49 16 4 7 45 34 29 30 23 17 3 11 9 16 19 33 35 33 
26 25 33 48 58 31 31 31 41 42 42 42 39 11 15 2 1 5 37 52 
31 17 23 8 6 7 6 6 9 20 52 57 50 23 24 25 36 37 40 41 
41 41 37 26 14 6 2 1 1 3 9 15 19 2 5 7 7 6 8 6 
10 11 18 54 49 20 25 28 37 36 38 40 40 29 10 9 9 5 1 1 
0 1 4 8 11 5 10 8 8 6 5 7 8 9 10 36 49 15 22 28 
37 36 37 38 34 6 8 7 8 6 5 13 2 3 7 18 13 11 9 10 
9 8 7 8 4 7 9 13 47 16 25 31 35 35 35 36 17 5 8 7 
8 4 8 17 6 4 5 17 10 9 9 9 8 9 7 6 4 4 9 8 
