P2 
32 30
157
10 44 32 42 43 38 38 36 35 33 32 30 29 27 25 23 21 20 24 17 
21 18 16 20 20 21 22 23 24 26 28 29 29 28 3 19 25 16 39 36 
35 34 33 32 30 28 26 25 23 22 26 20 24 21 18 21 22 23 23 25 
26 27 29 30 30 33 3 15 22 4 31 36 35 34 33 32 30 29 27 26 
24 23 27 22 25 22 20 23 24 25 25 26 27 28 29 30 31 23 22 27 
25 15 34 36 35 34 33 33 31 31 29 28 29 25 28 24 25 23 21 24 
25 26 26 27 28 29 30 30 30 25 21 25 24 20 23 27 30 35 34 33 
34 31 25 17 27 30 24 25 26 25 24 26 27 27 28 29 29 30 31 31 
31 21 6 21 42 37 36 35 23 35 39 37 29 17 20 18 19 14 19 24 
26 27 26 28 29 30 30 30 31 31 31 31 32 13 13 16 23 4 23 27 
27 33 27 43 14 32 86 100 105 82 19 23 27 27 26 28 30 30 30 30 
31 31 31 32 32 11 19 15 25 5 14 3 18 1 23 44 15 111 141 141 
137 121 76 10 24 21 27 30 31 31 31 32 32 33 32 33 33 13 16 17 
28 22 30 20 21 2 15 25 54 142 142 142 141 135 111 47 10 8 28 31 
32 32 33 33 33 33 32 28 25 28 19 12 23 3 34 19 27 22 3 22 
106 143 143 142 141 134 118 94 14 0 19 29 28 25 22 24 23 23 23 22 
27 24 26 13 25 0 23 7 23 9 1 42 132 142 142 141 141 137 120 100 
44 0 9 21 24 22 19 19 22 14 12 22 32 3 15 31 31 13 25 8 
24 4 5 87 110 100 107 141 124 44 31 51 37 0 19 29 29 16 18 13 
2 3 15 28 33 44 26 13 14 12 24 20 32 4 11 70 20 2 6 73 
55 1 12 86 21 6 24 31 25 33 33 25 1 23 32 33 33 8 24 6 
11 6 24 7 32 24 9 44 12 0 0 44 63 0 1 8 16 40 34 31 
28 34 33 14 0 18 32 34 33 26 25 5 18 15 26 7 31 39 49 17 
7 0 1 77 108 14 2 9 24 75 39 30 23 20 9 3 0 2 23 34 
33 2 40 36 30 36 32 31 30 36 97 43 10 0 15 104 119 69 31 45 
83 96 32 10 5 4 7 5 3 6 21 32 33 2 15 7 17 25 0 0 
0 0 77 96 83 75 106 114 125 102 118 120 98 96 19 6 0 0 8 17 
38 48 50 25 15 15 15 12 16 28 0 0 0 0 37 108 118 141 119 87 
86 95 119 116 95 64 33 3 0 0 10 9 25 19 24 21 8 5 15 12 
15 27 1 0 0 0 13 60 103 127 132 129 124 122 118 109 89 50 27 1 
0 2 9 13 17 17 24 10 4 8 18 8 14 26 1 0 0 0 11 25 
97 118 99 102 101 89 92 105 79 50 18 1 1 5 7 29 17 20 25 11 
1 17 19 9 11 25 2 0 0 0 9 28 75 113 130 117 109 104 112 98 
53 42 15 26 20 16 8 24 18 21 25 11 0 17 13 2 8 23 16 17 
19 19 21 26 54 100 118 131 125 120 107 90 50 31 66 115 68 12 47 30 
7 12 22 11 0 20 10 0 1 8 9 15 28 1 2 5 49 102 112 137 
138 122 96 92 48 17 30 30 36 78 82 47 5 2 10 4 0 9 4 0 
3 5 11 22 21 11 4 15 41 112 99 96 93 81 88 103 52 32 119 82 
77 142 76 22 11 1 0 0 0 8 1 0 2 7 14 25 12 36 28 38 
39 111 111 104 95 97 97 99 55 21 56 50 70 140 80 20 12 2 0 0 
0 10 1 0 7 7 15 13 30 44 42 34 48 94 118 115 112 94 100 98 
43 30 38 25 43 75 65 18 11 2 0 0 0 0 8 1 2 3 31 52 
50 58 48 37 49 57 123 123 121 111 114 89 39 24 27 34 27 38 35 40 
17 3 0 0 0 0 0 0 14 44 47 47 47 47 49 29 72 45 72 123 
113 113 112 47 41 34 38 31 30 42 51 47 49 11 0 0 0 2 1 9 
48 42 44 46 49 53 47 32 34 34 48 94 118 122 78 47 36 24 27 31 
35 53 46 38 42 40 6 0 0 4 1 30 49 45 55 56 47 51 48 51 
32 23 39 73 110 130 63 29 30 36 37 34 38 51 49 45 43 38 19 0 
