P2 
32 30
156
10 44 33 42 43 38 37 36 35 33 32 30 28 26 25 23 21 20 24 17 
21 18 16 19 20 21 22 23 24 26 27 29 30 28 3 19 25 16 38 36 
35 34 33 31 30 28 27 25 23 22 26 20 24 21 18 22 22 23 24 25 
26 27 29 30 30 33 3 15 22 3 32 35 35 34 33 32 31 29 27 26 
24 23 27 21 25 23 20 24 24 25 25 26 27 29 30 30 31 24 22 28 
26 16 35 36 35 34 33 33 32 30 30 29 26 26 28 24 26 24 22 25 
25 26 27 28 29 30 31 31 31 25 21 26 24 20 23 27 30 35 34 34 
33 35 30 25 25 31 27 26 26 26 24 26 27 28 29 29 30 31 31 31 
31 21 6 20 41 36 36 35 23 35 38 37 37 22 18 19 13 13 18 23 
26 27 25 27 28 29 29 30 30 30 30 31 31 12 12 16 23 4 24 27 
26 33 24 33 34 14 49 80 83 73 26 20 28 28 26 28 30 30 30 30 
31 31 31 32 32 11 19 15 25 5 14 3 19 1 6 40 30 52 136 141 
138 126 94 21 23 24 27 30 31 31 32 32 32 33 33 32 33 13 16 17 
28 22 30 20 21 2 15 28 33 110 142 142 142 137 120 68 15 13 27 30 
31 32 32 33 32 33 32 27 25 28 19 12 22 2 34 19 26 33 8 11 
57 141 143 143 142 139 121 108 29 3 19 29 28 25 22 25 24 23 23 22 
28 25 28 14 26 0 23 7 25 20 2 11 102 143 144 143 142 141 127 110 
63 2 5 23 26 24 21 21 23 15 13 23 33 4 15 32 32 14 26 9 
25 4 4 40 117 120 107 136 142 95 55 57 51 10 7 31 31 17 19 14 
2 3 16 29 34 43 26 13 14 12 24 20 32 5 2 46 24 4 4 45 
102 13 5 74 28 7 13 31 25 33 33 25 1 23 32 33 33 8 24 6 
11 6 24 7 32 25 0 52 33 1 0 15 74 13 1 21 12 14 23 31 
28 34 33 14 0 17 32 34 33 26 25 5 18 15 26 7 31 32 40 24 
14 0 0 30 128 36 0 5 5 41 44 30 23 20 9 3 0 2 23 34 
33 2 40 36 30 36 32 31 29 30 88 66 13 0 2 68 125 82 19 21 
52 87 47 10 5 4 7 6 3 6 21 33 33 2 15 7 17 25 0 0 
0 0 76 96 89 64 85 108 132 102 114 118 105 95 35 6 0 0 8 18 
39 49 50 26 16 16 16 12 17 28 0 0 0 0 38 105 113 141 133 91 
92 81 116 118 106 93 35 4 0 0 10 9 26 20 25 21 8 5 16 12 
16 28 1 0 0 0 14 82 99 130 134 131 128 123 117 117 103 53 28 1 
0 2 9 14 18 18 25 10 4 8 18 8 13 26 2 0 0 0 11 18 
84 126 118 113 116 101 90 113 97 53 18 1 1 5 7 29 17 20 25 11 
1 17 19 9 10 24 2 0 0 0 9 27 69 119 126 114 110 104 109 111 
83 42 15 26 20 17 8 24 18 21 25 11 0 17 14 2 8 23 16 18 
19 19 22 26 49 100 123 132 127 118 112 96 58 32 66 116 68 12 47 31 
8 12 23 12 0 21 10 0 2 9 10 16 29 1 3 5 40 101 110 131 
136 117 110 84 57 17 31 31 37 79 83 48 6 3 11 5 0 10 4 1 
4 6 11 23 21 11 4 4 33 110 96 110 107 95 79 97 64 28 119 83 
78 143 77 23 11 2 0 0 0 8 1 0 2 7 14 25 12 31 17 27 
34 109 110 94 71 73 93 100 68 20 61 60 71 141 81 21 12 2 0 0 
0 10 2 0 7 8 15 10 16 28 45 37 34 101 112 110 117 100 95 99 
62 22 35 27 44 93 74 19 12 3 0 0 0 0 8 1 2 0 14 44 
52 61 47 39 53 61 118 114 109 98 106 101 42 30 36 29 34 35 31 33 
15 2 0 0 0 0 0 0 5 31 49 41 46 44 36 21 63 44 94 117 
113 108 113 72 44 34 28 24 25 36 36 46 43 9 0 0 0 1 0 2 
43 43 56 46 54 57 57 29 55 43 39 111 113 117 100 37 33 31 34 37 
37 57 48 50 43 39 8 0 0 3 1 22 52 39 54 51 39 46 41 30 
29 24 56 78 113 128 75 46 40 37 34 27 25 40 37 46 49 41 22 0 
