P2 
32 30
124
10 30 21 28 28 24 23 22 21 20 18 17 16 14 13 12 10 9 12 6 
11 9 8 11 12 13 14 16 19 46 66 84 94 17 0 12 16 10 24 21 
21 20 19 18 17 15 14 13 11 9 11 6 10 9 9 12 13 14 15 20 
67 94 95 97 102 21 1 9 14 0 20 22 21 20 19 18 17 16 15 14 
11 9 11 7 10 8 9 12 15 16 19 63 95 96 93 103 106 12 11 15 
15 8 21 22 21 20 20 19 18 17 17 16 13 11 13 9 11 10 9 13 
16 18 53 79 63 68 82 106 109 13 10 13 12 9 11 14 17 21 20 19 
19 19 21 19 16 15 15 14 12 11 9 13 17 42 85 66 75 71 84 108 
111 10 2 11 26 22 22 20 11 21 23 22 20 10 13 12 19 18 12 16 
12 12 11 13 19 79 100 91 77 104 110 111 112 7 6 7 14 1 13 16 
14 20 14 13 11 5 13 55 68 52 17 4 15 13 12 15 32 89 102 105 
100 108 112 112 112 6 11 8 15 1 7 1 8 0 1 2 14 9 65 88 
92 69 43 6 14 13 14 17 36 90 101 104 99 110 112 112 112 8 9 9 
15 11 18 11 9 0 8 8 7 28 0 22 52 1 2 1 2 14 15 19 
36 90 101 100 102 111 112 112 112 16 8 4 12 0 20 11 13 21 18 14 
13 7 12 73 93 13 26 1 0 12 15 18 49 89 100 96 104 111 111 107 
104 14 16 7 15 0 14 3 12 15 13 5 17 2 10 75 74 64 11 8 
22 10 13 15 73 89 99 96 104 110 106 97 92 1 8 19 19 6 15 4 
13 1 2 1 52 73 89 105 108 84 88 80 56 6 7 32 83 88 93 97 
102 103 93 90 91 27 14 6 7 5 13 10 18 2 3 8 74 103 103 96 
92 100 90 93 72 7 3 62 83 85 89 94 91 78 75 80 90 5 14 3 
6 3 14 3 18 21 19 11 89 105 104 114 114 93 101 93 80 9 2 80 
82 79 82 83 78 74 81 87 90 14 15 2 10 9 15 3 17 19 14 3 
87 103 113 112 106 106 99 92 78 22 7 67 64 67 86 82 68 70 83 87 
91 0 24 21 16 21 18 17 17 16 14 52 85 95 106 115 113 96 91 88 
77 65 37 64 49 66 84 76 62 63 75 88 89 1 9 1 6 14 0 0 
0 0 12 85 88 85 99 101 95 87 73 79 72 83 47 56 46 65 77 66 
61 77 89 93 95 9 9 2 5 15 0 0 0 0 12 74 70 63 56 46 
43 44 44 58 54 50 29 31 41 65 82 72 70 82 94 96 93 2 8 2 
5 14 0 0 0 0 6 8 24 42 49 63 72 65 52 38 51 0 3 3 
28 47 42 46 44 46 87 97 95 3 9 0 3 13 0 0 0 0 4 7 
16 63 71 84 94 83 71 64 55 1 2 0 8 45 37 17 27 43 65 88 
92 7 8 2 1 12 0 0 0 0 3 4 13 80 80 102 108 91 75 76 
60 0 1 9 10 45 63 42 50 59 56 62 64 8 5 0 0 11 8 9 
10 9 7 4 10 88 88 104 112 97 81 82 67 1 34 59 23 29 28 4 
2 2 4 13 25 10 4 0 0 4 4 7 18 0 0 0 15 89 98 109 
117 100 86 88 68 9 10 10 6 3 1 0 0 0 1 3 2 4 1 0 
0 1 4 13 11 6 2 1 29 86 102 103 105 90 87 88 64 23 90 51 
5 1 1 0 0 0 0 1 2 2 0 0 0 1 6 16 5 20 19 17 
38 72 103 106 107 93 93 86 48 24 23 29 6 5 3 1 1 1 1 0 
0 3 0 0 2 4 8 6 15 37 36 27 40 40 100 104 106 92 97 78 
26 17 28 19 25 17 16 1 1 1 1 0 0 0 4 0 1 0 10 28 
36 43 32 26 29 48 64 103 98 95 100 47 20 20 13 16 21 30 29 26 
4 0 0 0 0 0 0 0 1 19 31 31 31 28 33 25 37 35 25 82 
101 101 73 24 21 24 25 21 26 26 26 39 32 8 0 0 0 0 0 0 
23 30 36 31 36 33 33 19 17 22 30 53 85 100 36 11 27 25 16 17 
26 35 25 32 25 29 8 0 0 0 0 8 30 32 42 37 36 25 40 37 
30 18 10 30 64 87 27 16 13 18 29 24 32 35 30 38 35 26 17 0 
