P2 
32 30
156
10 44 33 42 43 38 37 36 35 33 32 30 28 27 25 23 21 20 24 17 
21 18 16 19 20 21 22 23 24 26 28 29 29 28 3 19 25 16 38 36 
35 34 32 31 29 28 26 25 23 22 26 20 24 21 19 21 22 23 24 25 
26 27 29 29 30 33 3 15 22 4 31 36 35 34 33 31 30 29 27 26 
24 23 27 22 25 22 20 24 25 25 26 26 27 29 30 30 31 24 22 27 
25 15 34 36 35 34 33 32 31 29 30 29 27 26 28 25 26 24 22 25 
25 26 27 27 28 30 31 31 31 25 20 25 23 19 22 26 29 34 33 32 
32 34 30 22 25 29 25 25 26 25 23 26 27 28 28 28 29 30 30 31 
31 21 6 20 42 36 36 34 23 35 39 36 35 22 18 19 13 17 19 23 
27 27 25 28 29 29 29 30 30 31 31 32 32 12 13 15 23 4 23 27 
27 34 24 35 31 15 41 68 72 63 21 23 27 28 26 29 30 31 31 31 
31 31 32 32 32 11 19 15 25 4 14 3 18 1 10 48 24 54 136 142 
138 124 89 15 25 23 27 29 31 31 31 32 32 33 33 33 33 13 16 17 
28 22 30 20 20 2 15 29 32 114 143 142 142 138 117 59 15 9 27 31 
32 32 33 33 33 33 32 28 25 28 19 12 22 3 34 19 27 31 5 13 
62 142 143 143 142 140 124 106 25 2 18 29 28 26 22 25 24 23 23 23 
28 24 27 13 26 0 23 7 24 15 1 14 108 143 143 143 142 141 128 113 
59 1 4 21 25 23 21 20 23 14 12 23 33 3 14 31 31 12 24 8 
23 3 2 46 124 138 136 141 141 122 89 86 73 7 9 29 29 16 18 13 
2 3 14 27 32 43 25 12 14 12 24 20 32 4 1 57 48 25 22 93 
128 24 9 79 30 6 15 31 25 33 33 25 1 23 32 33 33 9 24 6 
11 6 24 7 32 23 1 27 16 0 0 14 46 7 3 28 13 21 30 31 
28 34 33 14 0 18 32 34 33 26 25 5 17 15 26 7 31 34 45 16 
9 0 0 23 122 17 0 2 4 44 47 30 23 20 9 3 0 2 23 34 
33 2 40 36 30 36 32 31 30 35 94 42 10 0 0 58 128 60 6 9 
23 89 46 11 5 4 7 6 3 7 22 33 33 2 15 7 17 25 0 0 
0 0 82 87 45 12 45 101 129 101 91 96 103 100 29 6 0 0 8 18 
39 49 50 26 16 15 15 11 16 27 0 0 0 0 40 106 118 141 126 94 
117 86 113 119 106 85 34 3 0 0 10 9 26 19 24 21 8 5 15 12 
15 27 1 0 0 0 14 80 101 126 124 115 96 111 115 108 99 54 27 1 
0 2 9 14 17 17 24 10 4 8 18 8 13 26 1 0 0 0 10 21 
92 115 108 124 125 114 94 98 94 52 18 1 1 5 7 29 17 19 25 11 
1 17 19 9 11 24 2 0 0 0 9 28 76 115 125 105 101 90 106 103 
82 43 16 27 21 17 8 25 19 22 26 12 0 17 13 2 8 23 16 18 
19 19 21 25 53 100 121 125 112 108 109 98 57 32 66 116 68 13 47 31 
8 12 23 11 0 20 9 0 1 8 9 15 29 1 2 4 44 97 114 141 
140 133 109 87 53 16 31 30 37 78 83 47 5 2 10 4 0 10 4 0 
3 5 11 22 20 11 4 8 38 108 96 122 129 115 84 94 58 33 119 83 
77 143 77 22 10 1 0 0 0 8 1 0 2 7 14 25 11 32 21 33 
36 110 107 87 64 65 88 100 62 23 58 56 71 141 81 21 12 2 0 0 
0 10 2 0 7 8 15 11 25 36 45 36 30 107 112 110 114 103 97 98 
56 23 36 26 44 85 71 19 11 2 0 0 0 0 8 1 2 1 24 53 
51 64 46 39 54 73 118 112 107 94 103 100 38 29 34 32 32 35 29 34 
15 2 0 0 0 0 0 0 10 39 45 42 46 45 35 25 57 45 108 119 
116 110 113 74 47 33 30 24 26 36 38 46 45 10 0 0 0 1 1 5 
48 46 52 45 54 58 57 31 63 42 45 114 108 113 99 37 35 30 33 36 
41 57 50 48 47 38 6 0 0 3 1 29 49 42 53 52 40 44 41 26 
26 28 49 81 116 126 71 47 39 37 33 26 27 41 37 40 48 40 19 0 
