P2 
32 30
156
10 49 36 46 48 42 41 40 38 36 35 33 30 28 26 25 23 22 26 19 
24 22 20 24 25 25 26 27 28 30 32 33 34 31 4 22 28 17 42 40 
39 37 35 34 32 30 28 26 25 24 28 22 27 25 22 26 27 28 28 29 
31 32 33 34 35 37 4 16 24 4 35 39 38 36 35 33 32 30 29 28 
26 25 30 24 28 26 24 28 28 29 30 30 31 33 33 35 35 26 25 30 
28 17 37 38 38 36 35 34 33 31 30 29 27 26 30 26 28 27 25 28 
29 30 31 31 32 34 35 35 35 28 24 28 26 22 25 29 32 37 36 35 
34 32 31 30 29 27 27 22 24 26 26 30 30 32 33 33 34 35 35 35 
35 23 6 22 45 39 39 37 24 37 41 39 36 33 38 35 25 9 6 4 
4 5 8 16 27 32 33 34 34 35 35 35 36 14 15 17 24 4 25 28 
28 35 25 26 13 16 20 23 11 8 7 6 5 4 4 4 4 15 33 35 
35 35 35 36 35 12 21 16 27 5 15 3 19 1 4 5 8 10 28 22 
20 23 13 11 9 8 9 9 8 18 29 37 37 37 37 37 38 14 18 19 
30 24 32 21 22 3 17 22 26 21 39 27 26 36 22 26 18 16 16 18 
27 20 25 37 38 39 38 33 30 30 21 13 24 3 36 21 28 37 34 36 
33 26 31 29 23 28 29 31 27 23 25 30 61 53 19 29 28 27 28 27 
32 27 30 15 28 0 24 7 26 30 25 1 37 23 29 32 28 23 26 34 
24 20 28 42 100 91 22 24 28 17 16 27 39 4 16 35 34 14 27 9 
26 3 6 14 28 17 27 34 28 27 27 24 22 30 63 102 123 110 25 16 
3 4 18 33 39 46 28 14 15 13 26 21 35 6 21 40 36 15 27 35 
26 21 23 20 53 112 113 109 93 100 57 29 2 27 37 38 39 10 27 7 
12 7 27 8 34 38 42 28 33 20 25 33 68 31 24 21 47 75 59 31 
11 7 49 17 1 21 37 39 39 31 29 6 19 17 29 8 34 37 36 7 
18 15 9 60 125 92 59 42 100 149 143 78 20 6 13 4 0 4 27 39 
38 3 44 40 32 39 35 34 33 33 36 8 22 15 5 76 137 114 132 106 
143 149 148 87 11 25 78 9 4 10 26 38 38 2 17 8 19 28 0 0 
0 0 21 26 10 5 21 57 138 118 150 146 147 149 149 106 12 67 118 45 
45 55 56 31 19 16 17 13 18 30 0 0 1 1 17 17 12 18 20 54 
122 145 139 145 147 149 149 143 91 122 126 95 31 24 29 25 10 5 17 13 
16 30 1 0 0 0 14 14 8 12 15 46 96 128 122 144 148 148 148 146 
127 115 93 48 23 22 29 13 7 9 20 10 15 29 2 0 0 0 12 30 
19 13 10 16 98 135 125 137 148 146 145 146 133 121 54 36 22 25 30 14 
2 18 22 10 12 27 2 0 0 0 10 31 27 12 31 77 131 137 112 131 
145 143 142 144 113 86 23 30 24 26 30 14 0 18 15 2 10 26 19 20 
22 22 25 29 27 11 86 127 141 147 130 115 131 136 140 132 119 103 55 37 
10 16 28 14 0 20 10 0 2 9 11 18 32 1 3 5 30 29 112 129 
143 148 141 115 101 119 134 133 117 101 90 54 8 5 14 6 1 10 5 1 
5 7 14 26 24 13 5 1 46 53 118 125 141 146 140 132 115 94 104 121 
114 121 85 28 16 5 2 0 0 8 1 0 3 9 16 27 14 35 32 30 
60 48 119 121 136 144 145 146 126 55 40 62 76 134 88 25 16 5 0 0 
0 10 2 0 9 9 17 13 29 55 60 48 48 58 97 121 135 142 139 133 
104 25 25 27 43 86 77 24 16 6 0 0 0 0 6 1 3 0 24 50 
60 68 58 54 49 56 50 117 130 140 133 109 84 34 33 32 31 39 39 42 
19 6 1 0 0 0 0 0 5 42 55 45 49 46 43 46 49 68 55 72 
122 134 118 105 62 51 35 26 25 33 41 54 50 12 1 0 0 0 0 2 
44 54 60 60 57 56 62 59 42 49 50 53 87 122 115 95 54 33 28 40 
32 49 47 56 46 48 8 0 0 0 0 25 52 50 57 52 47 37 52 53 
47 41 26 58 57 111 139 67 49 45 38 33 21 38 50 53 57 42 24 0 
