P2 
32 30
146
10 42 31 40 41 36 35 34 33 31 30 28 27 25 24 22 20 19 22 15 
20 17 15 18 19 20 20 22 23 25 26 27 28 26 3 19 24 15 37 34 
33 32 31 29 28 27 25 24 22 21 24 18 22 19 18 20 21 22 23 24 
25 26 28 28 29 31 3 14 20 3 29 33 32 32 31 29 28 27 25 24 
22 21 25 19 23 20 18 21 22 22 23 24 25 26 27 28 28 21 20 25 
23 13 31 33 32 31 30 29 28 28 28 24 28 23 25 21 23 21 19 22 
22 23 24 25 26 27 28 28 28 23 19 23 22 17 21 24 28 32 31 31 
28 32 23 15 19 29 22 22 24 23 21 24 25 25 26 27 27 28 29 29 
29 19 5 19 39 34 33 32 21 33 36 30 30 22 12 15 16 11 18 22 
24 25 23 25 26 27 27 27 28 28 29 29 29 11 12 14 21 3 21 25 
25 31 25 31 34 16 48 90 95 82 18 25 24 26 24 26 27 27 28 28 
29 29 29 29 29 10 17 14 23 4 12 2 17 1 19 44 38 51 124 137 
135 122 79 14 19 15 24 27 28 28 29 29 30 30 30 30 31 12 15 15 
25 20 28 19 19 2 14 28 41 80 138 137 137 134 114 40 8 4 24 28 
29 29 30 30 31 31 29 25 23 25 17 10 20 2 32 18 25 20 3 7 
39 104 138 138 137 134 118 94 5 0 14 26 25 23 20 22 21 20 21 20 
25 22 25 12 24 0 21 7 22 9 3 3 48 129 138 138 137 137 124 104 
31 0 6 19 23 22 18 18 21 13 11 21 30 3 13 29 29 12 23 8 
23 3 9 9 77 118 115 136 135 103 67 77 62 1 15 28 28 15 17 12 
2 3 14 26 31 40 23 11 13 11 23 18 30 4 4 55 74 67 80 120 
127 78 64 62 71 7 21 29 24 31 32 24 1 22 30 31 32 8 23 6 
10 6 23 6 30 18 7 85 92 70 77 110 125 91 77 81 92 35 34 28 
25 31 30 12 0 16 30 31 31 23 24 5 16 14 24 6 28 37 69 85 
120 124 117 122 123 103 123 116 100 70 39 27 20 17 7 2 0 1 20 31 
30 2 36 33 27 33 30 29 28 31 96 93 129 139 137 118 121 104 118 127 
99 90 30 8 3 3 5 4 2 5 19 29 30 1 14 5 15 23 0 0 
0 0 62 97 125 139 135 111 126 97 116 119 98 90 17 5 0 0 6 15 
35 45 47 23 14 14 14 9 14 25 0 0 0 0 27 108 112 137 123 89 
92 81 115 114 96 58 31 3 0 0 8 8 23 16 21 18 7 4 14 10 
13 25 1 0 0 0 12 36 99 126 133 124 112 116 115 107 90 47 25 1 
0 2 7 12 15 15 22 9 3 7 17 7 13 25 1 0 0 0 10 26 
91 116 101 108 111 94 86 100 81 48 17 0 0 4 6 28 16 18 23 10 
1 16 18 8 9 23 2 0 0 0 8 25 63 108 128 114 101 97 106 94 
51 40 14 24 18 15 7 23 17 19 23 10 0 15 11 1 7 21 15 16 
18 17 20 23 48 97 115 129 122 119 104 86 48 30 63 112 65 10 45 29 
7 11 21 10 0 18 8 0 1 7 8 14 27 0 2 5 35 103 106 134 
136 123 92 89 53 16 29 28 35 75 79 45 5 2 9 4 0 9 4 0 
2 4 9 21 19 11 4 16 20 110 102 92 82 74 84 102 60 30 110 80 
73 138 73 20 9 1 0 0 0 7 1 0 1 6 13 23 11 33 27 39 
18 107 112 109 104 99 95 98 54 21 31 39 60 135 76 18 11 1 0 0 
0 9 1 0 6 7 14 13 26 44 42 35 41 87 117 113 111 94 99 98 
35 30 40 23 36 39 46 18 10 2 0 0 0 0 7 1 2 3 28 47 
48 57 45 34 48 43 118 120 118 110 113 74 37 21 21 27 29 38 35 50 
25 3 0 0 0 0 0 0 9 44 49 44 50 48 45 26 67 36 67 122 
113 113 103 41 30 33 35 35 40 50 43 53 53 26 1 0 0 2 1 3 
38 40 33 42 39 52 45 27 39 26 45 94 120 121 65 34 40 23 23 25 
35 43 32 37 33 48 19 0 0 0 6 16 47 52 48 55 48 51 52 45 
33 19 38 72 122 123 49 26 21 31 35 37 46 53 42 51 50 31 28 6 
