P2 
32 30
157
10 48 35 46 47 41 40 39 37 35 34 32 29 27 25 24 22 21 25 18 
24 22 20 23 24 25 25 27 27 29 31 33 33 30 4 21 27 17 41 39 
37 36 34 33 31 29 28 26 24 23 28 21 26 24 22 26 26 27 28 28 
30 31 32 33 34 36 4 16 23 4 34 38 37 36 35 33 32 30 29 27 
26 25 29 23 27 26 24 27 28 29 29 30 31 32 33 34 35 27 25 30 
27 17 36 38 37 36 35 34 33 31 30 29 27 26 30 26 28 28 26 28 
29 30 31 31 32 34 34 35 35 28 23 28 26 21 24 29 32 36 36 34 
33 32 31 30 28 22 21 18 20 21 24 29 30 31 32 33 33 34 35 35 
35 23 6 22 44 39 38 37 24 37 40 39 36 33 37 30 10 5 5 3 
3 4 4 10 17 30 33 34 34 34 34 35 35 14 14 17 24 4 25 28 
28 35 25 26 13 16 24 13 9 8 7 6 7 6 7 6 11 29 35 35 
35 35 36 36 36 12 20 16 27 5 15 3 19 1 5 6 8 17 25 16 
25 17 13 12 10 9 11 12 20 23 35 37 37 37 37 37 38 14 18 18 
29 22 31 20 21 2 16 22 24 31 27 26 31 29 27 21 17 16 20 26 
55 22 36 37 37 37 36 32 29 30 20 12 23 3 35 20 27 36 33 36 
23 34 30 25 24 24 30 28 19 18 24 49 106 38 25 28 27 26 27 26 
31 26 29 14 27 0 24 7 25 29 24 18 20 30 29 30 22 27 27 29 
15 20 55 106 115 59 24 23 26 16 15 26 37 4 15 33 33 14 26 9 
25 3 6 27 19 25 26 30 26 34 32 21 50 116 130 119 94 72 21 15 
2 4 17 32 37 45 27 13 15 12 25 20 34 6 20 39 28 16 33 33 
23 19 16 15 39 50 33 17 9 23 37 29 2 27 36 38 38 10 26 7 
12 7 26 7 34 38 41 30 35 22 29 35 93 52 29 34 91 147 139 66 
18 9 37 16 1 21 36 38 38 30 29 6 19 17 29 8 34 38 37 16 
23 18 11 65 136 107 88 60 122 149 143 85 11 48 38 5 1 4 27 39 
38 3 43 39 32 39 35 33 32 33 35 16 28 17 8 64 136 113 147 141 
147 148 147 110 10 77 103 14 4 9 25 37 37 2 17 7 18 28 0 0 
1 1 21 20 12 7 25 51 130 126 144 147 147 149 148 143 83 117 125 74 
44 54 55 30 18 17 17 13 18 30 0 0 1 1 18 15 14 19 21 57 
108 143 137 147 149 149 148 145 122 116 99 47 31 24 29 25 10 5 17 13 
17 30 1 0 0 0 14 17 8 13 15 49 98 125 122 142 148 148 147 147 
126 118 51 18 22 22 29 13 6 8 19 9 14 28 2 0 0 0 11 29 
10 13 10 15 93 141 124 134 147 147 144 146 113 95 27 34 21 23 29 14 
2 18 21 10 12 26 2 0 0 0 10 30 23 14 32 84 132 142 118 121 
136 140 140 136 116 106 16 29 23 26 29 13 0 17 15 2 9 25 18 19 
21 21 24 28 25 11 91 131 142 148 142 114 115 125 131 134 116 88 52 36 
10 15 27 14 0 20 9 0 2 9 11 17 31 1 3 4 29 45 116 131 
143 146 141 128 111 101 113 126 116 106 89 53 7 4 13 6 1 9 5 1 
4 6 12 25 23 13 5 1 48 63 121 127 139 144 141 138 126 97 81 86 
84 122 83 27 15 4 1 0 0 8 2 0 3 9 16 27 14 39 42 38 
52 58 123 124 136 143 145 146 124 45 38 57 76 146 87 25 16 5 1 0 
0 10 2 0 10 10 17 16 39 61 61 49 46 67 91 124 134 143 139 134 
103 29 36 27 44 98 82 24 16 7 0 0 0 0 6 1 3 2 32 55 
56 70 53 58 46 57 49 115 129 140 135 110 86 29 38 32 35 39 39 35 
19 6 1 0 0 0 0 0 9 46 52 45 48 46 41 51 53 60 60 68 
120 134 120 104 65 53 31 28 28 29 42 51 42 8 1 0 0 0 0 4 
49 55 61 60 59 55 59 60 41 44 57 50 81 126 106 99 50 34 33 39 
35 44 53 53 51 40 3 0 0 0 0 33 50 48 54 50 45 35 51 54 
53 42 26 58 55 107 126 72 58 42 38 29 20 34 37 48 53 43 17 0 
