P2 
32 30
153
10 48 36 46 47 42 41 40 39 37 35 33 31 28 26 24 22 21 24 17 
22 20 18 21 22 23 24 26 27 29 31 32 33 31 4 22 28 18 43 40 
39 38 36 34 32 30 28 26 24 22 27 20 24 22 20 24 25 26 26 28 
29 30 32 33 34 36 4 16 23 5 34 39 38 37 36 34 32 30 28 26 
24 23 27 20 24 22 20 24 25 26 27 27 29 30 31 32 33 26 25 30 
28 17 37 39 38 37 36 34 33 31 30 28 25 24 28 23 25 24 22 25 
26 27 28 29 30 32 33 33 33 28 23 28 26 22 26 30 33 38 36 34 
33 31 31 30 27 26 29 26 26 26 24 27 28 29 30 31 32 33 33 34 
33 23 6 23 45 39 39 38 25 25 13 12 12 7 12 13 21 27 30 24 
27 27 26 28 30 30 31 32 32 33 33 34 34 14 15 18 25 5 28 25 
12 8 7 6 6 9 6 10 10 14 26 28 28 29 27 30 31 32 32 33 
34 34 34 35 34 12 21 16 27 7 16 21 9 8 9 10 7 11 10 12 
18 20 14 24 29 30 28 31 32 33 33 34 35 36 36 36 36 14 18 19 
30 24 18 30 13 10 11 17 18 16 21 21 16 19 25 14 28 32 29 32 
33 34 35 35 36 36 35 31 28 31 22 14 24 8 25 74 35 16 16 21 
25 23 32 27 24 18 28 28 16 26 27 30 29 26 23 26 25 25 26 25 
30 28 31 16 28 3 39 119 80 24 21 31 37 25 21 24 25 26 28 22 
15 22 21 23 26 25 22 21 25 16 14 25 36 4 17 35 35 17 55 125 
125 65 28 34 31 22 21 27 28 31 29 33 23 26 28 31 31 17 19 14 
2 3 16 31 36 47 29 15 17 15 65 123 148 140 96 40 17 16 17 22 
29 24 20 16 14 23 28 33 27 36 36 27 2 26 35 36 37 11 28 7 
13 8 52 69 126 147 146 83 30 21 22 64 34 20 15 6 6 9 23 32 
29 36 34 15 0 18 35 36 36 31 29 6 20 18 68 97 116 143 149 111 
32 32 88 107 103 11 8 6 1 5 22 31 23 21 9 3 0 2 24 36 
35 4 45 41 34 41 101 117 140 146 149 135 85 83 106 124 114 15 3 3 
4 3 21 10 5 5 7 6 3 7 23 35 35 2 18 9 21 56 147 128 
138 149 148 144 136 144 120 128 80 22 11 1 0 6 19 6 0 0 8 19 
40 51 52 27 17 17 18 16 21 111 137 126 140 147 146 140 138 136 138 134 
36 18 3 0 0 19 34 3 0 0 10 9 27 20 26 22 9 6 19 17 
21 97 115 119 140 148 144 142 137 123 118 114 61 19 1 1 0 27 28 1 
0 2 9 14 19 19 26 12 5 10 22 12 19 36 95 129 145 149 145 145 
139 116 120 131 91 30 11 4 2 40 19 0 0 5 8 31 19 22 28 13 
1 22 24 13 15 29 49 108 136 145 141 143 132 103 110 129 102 41 14 7 
5 43 15 27 21 18 8 26 20 23 27 12 0 22 17 4 13 28 32 110 
122 139 137 130 115 91 113 133 110 91 31 14 11 33 69 120 71 13 49 33 
8 13 25 13 0 25 13 1 3 11 14 86 127 134 127 105 82 94 121 133 
118 114 101 48 18 11 32 32 39 81 86 50 6 3 12 5 0 12 6 1 
6 9 16 94 129 127 97 78 102 120 134 132 118 113 108 86 29 44 123 87 
80 147 80 24 12 2 0 0 0 13 3 1 6 11 18 45 89 65 51 72 
120 139 141 137 116 107 104 87 31 33 61 55 73 145 85 22 13 3 0 0 
0 14 4 0 11 11 19 19 37 42 50 14 94 135 129 133 115 105 103 82 
23 34 39 32 48 78 65 21 14 5 0 0 0 1 10 2 4 3 34 52 
46 54 46 49 63 108 124 132 118 105 104 57 36 34 34 39 39 56 44 46 
19 4 0 0 0 0 0 0 11 44 44 42 48 41 32 43 47 98 126 133 
117 101 92 48 37 35 24 28 37 47 56 46 47 12 0 0 0 2 2 8 
49 58 53 50 56 58 43 48 49 52 105 121 112 100 57 41 38 31 38 33 
57 60 59 56 52 36 4 0 0 0 8 26 50 57 50 47 39 48 35 27 
28 45 82 111 116 72 51 38 45 34 31 23 45 44 43 41 37 47 22 0 
