P2 
32 30
154
10 48 36 46 47 42 41 40 39 37 35 33 30 28 26 24 22 21 24 17 
22 19 18 21 22 23 24 26 27 29 30 32 32 30 4 21 27 17 42 40 
39 37 35 33 31 29 27 25 23 22 26 19 24 21 19 23 24 25 25 27 
28 30 31 32 33 36 4 16 23 5 34 39 38 37 36 34 32 30 28 26 
24 23 27 20 25 23 21 24 26 26 27 28 29 30 32 32 33 26 25 30 
28 18 38 39 39 37 36 35 33 31 29 28 26 25 28 23 25 24 22 25 
26 27 29 29 30 32 33 33 34 28 23 28 26 22 26 30 33 38 37 35 
34 33 30 29 27 26 29 26 26 26 24 27 28 29 30 31 32 33 33 33 
33 23 6 22 44 39 39 37 26 32 27 24 14 16 14 20 26 27 30 23 
27 27 25 28 29 30 30 31 32 32 32 33 33 14 14 17 24 5 26 30 
19 9 7 5 6 9 9 13 18 20 31 27 27 28 27 29 31 31 32 32 
33 33 34 34 34 12 21 16 28 10 18 12 10 10 10 9 9 14 12 17 
22 25 20 28 30 31 29 32 33 34 34 35 35 36 36 36 36 14 18 19 
30 14 26 16 9 10 17 19 14 21 25 24 22 20 32 21 30 32 30 33 
34 35 35 35 36 36 35 31 28 31 21 14 27 8 19 48 17 18 18 22 
24 23 31 25 25 23 26 20 24 26 27 31 30 27 24 26 25 25 25 25 
30 28 31 16 33 11 30 102 32 24 29 33 32 25 20 26 27 29 32 27 
22 23 21 23 27 25 22 22 25 16 14 25 36 4 17 35 37 19 67 129 
83 32 30 39 27 17 22 29 29 27 16 16 18 26 28 31 32 17 19 14 
2 3 17 31 36 46 28 14 18 16 82 136 132 72 31 31 18 13 20 22 
31 24 13 7 5 23 27 32 26 35 35 27 2 25 34 36 36 11 28 7 
13 10 94 138 148 141 118 67 28 21 20 22 45 23 8 3 0 11 23 32 
29 35 34 15 0 19 34 36 36 32 30 6 20 18 99 111 133 143 147 136 
50 26 29 74 114 66 6 1 2 7 23 31 24 21 9 3 0 2 24 36 
35 4 45 41 34 41 73 54 93 128 149 147 83 33 63 98 143 90 12 0 
0 10 21 10 5 5 7 6 3 8 23 35 36 2 18 10 21 30 70 114 
118 145 149 148 134 109 130 109 130 76 13 2 0 9 19 6 0 0 8 19 
41 51 53 27 17 17 18 15 21 34 117 136 117 146 149 144 137 133 143 130 
134 32 8 0 0 23 34 3 0 0 10 9 27 20 26 23 9 6 19 16 
20 62 143 142 129 149 147 144 137 132 125 133 114 40 5 0 1 32 28 1 
0 2 9 14 19 19 26 12 5 10 21 12 18 97 134 131 131 150 150 146 
142 131 116 111 116 58 12 8 3 43 19 0 1 5 7 30 18 21 27 12 
1 22 24 13 15 46 69 126 130 147 145 141 140 129 105 108 120 77 23 7 
8 44 15 27 21 17 8 26 20 23 27 12 0 22 18 5 13 29 29 120 
114 133 137 134 133 119 93 97 120 97 61 10 10 33 69 121 71 14 49 33 
8 14 25 13 0 25 13 1 4 10 14 60 112 121 128 127 118 98 85 99 
121 112 101 50 19 11 33 32 39 82 87 51 6 3 12 5 0 12 7 1 
6 9 15 33 111 129 128 120 89 74 91 107 119 113 104 83 22 42 122 87 
80 147 81 23 11 2 0 0 0 12 3 1 5 11 18 29 115 134 118 84 
66 86 109 124 119 110 100 84 28 30 60 54 72 145 84 22 13 3 0 0 
0 14 4 0 11 11 19 15 74 84 61 19 34 119 124 126 121 110 98 70 
27 35 37 32 55 67 66 21 13 4 0 0 0 1 9 1 4 3 29 41 
44 55 47 15 14 107 115 124 122 112 97 41 34 34 33 43 43 58 49 54 
25 4 0 0 0 1 1 0 13 37 34 41 47 38 35 47 39 98 117 126 
119 106 73 48 38 38 25 31 44 47 51 47 54 25 0 0 0 7 6 10 
50 58 55 43 63 55 41 54 39 67 108 116 115 102 48 37 38 31 35 45 
60 64 59 53 50 44 21 0 0 10 6 30 50 56 58 47 41 47 33 37 
23 44 99 118 119 80 40 43 46 36 30 31 43 45 45 44 41 49 31 2 
