P2 
32 30
155
10 50 37 48 50 44 43 42 41 39 37 35 32 30 27 26 24 22 26 18 
23 21 19 22 24 25 26 27 29 31 33 34 35 32 4 22 29 18 44 42 
41 39 38 35 34 31 29 27 25 24 28 21 25 23 21 25 26 26 28 29 
30 32 34 35 35 38 5 17 24 5 36 41 40 39 37 36 34 32 30 28 
26 25 29 22 27 25 22 26 27 28 29 30 31 33 34 35 35 28 26 32 
29 19 39 41 40 39 39 37 35 33 32 30 28 27 31 25 27 26 24 27 
29 30 31 31 33 34 35 36 36 30 25 30 28 24 27 32 35 40 39 37 
35 35 33 32 30 28 32 28 28 28 26 30 31 32 33 33 34 36 36 36 
36 25 7 24 47 42 42 40 28 37 30 21 19 16 16 18 21 28 33 26 
29 30 28 31 32 33 34 34 35 35 36 37 37 15 16 19 26 5 28 33 
24 17 10 8 6 5 11 9 12 16 21 29 31 32 30 33 34 34 35 35 
37 37 37 37 37 14 22 17 29 7 20 18 13 9 11 10 10 9 13 13 
16 21 22 18 31 33 31 34 35 36 37 37 38 38 38 38 39 15 19 20 
32 26 30 19 26 12 11 17 18 15 19 23 21 22 22 27 19 34 32 35 
37 37 38 38 38 39 37 33 30 32 23 14 26 3 36 11 75 26 18 15 
20 21 18 32 28 26 22 34 24 26 29 32 31 29 25 28 27 26 27 26 
32 29 32 16 29 0 28 44 112 70 28 25 33 33 27 25 26 28 27 29 
18 21 22 24 28 27 23 23 26 16 15 26 38 5 18 36 36 16 30 69 
126 102 58 29 39 32 23 23 29 30 35 31 29 26 30 33 34 19 21 15 
2 4 18 33 38 49 30 15 17 15 30 92 134 140 115 64 33 18 15 18 
27 27 20 13 8 12 30 35 29 37 37 28 2 27 37 38 39 12 30 8 
14 8 30 78 37 53 63 58 25 21 19 20 24 27 21 14 4 4 25 35 
32 39 37 16 1 21 38 39 39 33 31 7 21 19 32 28 17 48 125 134 
74 27 23 52 91 37 16 7 3 0 21 34 26 23 11 4 0 3 27 39 
38 5 48 43 36 43 40 30 13 54 141 152 106 42 61 104 139 75 7 1 
1 1 16 12 6 5 9 8 3 8 25 38 38 2 19 10 23 32 45 82 
8 63 149 151 144 118 129 103 140 69 13 4 1 0 17 7 0 0 10 21 
44 55 56 30 18 19 19 17 23 39 116 109 43 92 151 148 143 141 147 117 
139 34 17 2 0 0 27 4 0 0 13 11 29 23 28 25 10 7 20 18 
21 54 119 124 122 142 145 144 143 136 129 144 117 33 8 1 0 1 26 1 
0 2 11 16 21 21 29 13 6 11 23 13 20 34 40 121 132 149 149 145 
146 134 109 120 123 70 18 4 3 8 21 1 1 6 9 33 20 23 29 14 
1 23 25 14 16 31 4 106 138 150 146 142 145 132 105 126 136 95 31 13 
6 23 17 28 22 19 9 28 21 25 29 13 0 23 19 5 13 29 22 60 
108 145 145 141 138 120 98 124 137 95 56 14 8 27 71 124 74 15 51 35 
9 15 27 14 0 27 14 1 3 11 14 37 124 131 139 134 118 94 94 129 
138 115 102 71 9 18 34 33 41 84 89 53 7 4 13 5 0 13 7 2 
6 9 16 31 120 136 137 110 78 93 120 139 135 117 114 100 43 45 119 89 
83 149 84 26 13 3 0 0 0 13 3 1 6 11 19 31 97 117 87 56 
83 133 145 145 136 113 108 99 45 39 36 48 68 146 88 24 15 4 0 0 
0 16 5 0 12 12 20 14 33 50 41 35 28 127 138 138 136 112 104 95 
34 36 51 30 55 52 68 23 16 6 0 0 0 1 10 2 4 1 15 39 
56 61 43 45 42 93 119 134 137 113 106 68 33 29 31 38 44 59 52 57 
27 7 1 0 0 1 0 0 1 30 56 44 50 47 31 31 61 51 110 135 
136 108 104 45 42 41 43 31 43 48 44 55 57 27 1 0 0 5 5 2 
34 53 62 61 60 58 57 32 58 38 75 112 129 108 73 45 41 29 34 41 
57 63 52 56 48 51 22 0 0 8 4 13 53 50 55 51 43 44 49 29 
39 28 65 103 125 91 68 30 44 40 43 35 45 49 42 49 55 47 35 3 
