P2 
32 30
145
10 41 30 39 40 35 34 33 32 30 29 27 26 24 23 21 20 18 22 15 
19 17 14 17 18 19 20 21 22 24 25 27 27 26 2 18 23 14 35 33 
32 31 30 28 27 26 24 23 21 20 23 17 21 19 16 19 20 21 21 23 
24 25 26 27 28 30 3 14 19 3 29 33 32 31 30 29 28 27 25 24 
22 21 25 19 22 20 18 21 22 22 23 24 25 26 27 28 28 22 20 25 
23 14 31 33 32 31 31 30 29 28 29 26 26 25 24 23 23 22 20 23 
23 24 25 25 26 27 28 29 29 23 18 23 21 17 20 24 27 32 31 30 
29 35 25 21 16 29 24 22 24 23 22 24 25 25 26 27 27 28 29 29 
29 18 5 18 38 33 33 32 20 32 36 34 33 25 16 16 15 13 12 22 
23 24 23 25 26 26 27 27 28 28 28 28 29 11 11 14 21 3 21 24 
24 31 22 26 38 19 35 89 98 95 56 15 24 24 23 26 27 27 28 28 
28 29 29 29 29 10 17 13 23 4 12 2 16 1 4 30 48 26 108 136 
136 128 108 40 18 17 23 27 28 28 28 29 29 30 30 30 30 12 15 15 
25 19 28 18 19 1 10 25 45 47 134 137 136 135 126 92 12 10 14 28 
29 29 29 30 30 30 29 25 23 25 16 10 20 2 31 18 25 32 9 5 
26 82 138 137 136 136 126 112 51 3 3 26 25 23 20 22 21 21 21 21 
25 22 25 12 24 0 22 7 22 23 3 3 24 115 138 137 137 137 131 113 
85 3 0 17 23 22 19 19 22 13 11 21 31 3 13 29 29 12 23 8 
22 4 5 8 47 116 105 127 137 123 82 73 84 22 1 27 28 15 17 13 
2 3 14 26 31 39 23 11 12 10 22 18 29 5 2 18 82 72 83 100 
134 101 83 74 67 33 5 28 23 30 30 23 1 21 29 30 30 8 21 6 
10 5 22 6 29 30 4 35 102 81 56 96 129 94 73 71 85 44 34 28 
24 30 29 12 0 15 29 31 30 23 23 4 15 14 24 6 28 31 49 53 
114 118 112 119 126 105 107 120 108 64 64 27 20 17 7 2 0 1 19 31 
29 1 36 33 27 33 29 28 27 27 63 88 116 137 137 127 122 106 109 130 
116 90 73 8 3 3 5 5 2 5 19 29 30 1 14 5 15 23 0 0 
0 0 31 100 114 138 137 116 121 110 100 122 117 99 59 5 0 0 6 16 
36 45 47 23 14 14 14 10 15 25 0 0 0 0 15 100 105 128 114 99 
97 85 94 88 105 83 36 3 0 0 9 8 24 18 22 19 7 4 14 10 
13 25 1 0 0 0 11 33 72 102 104 114 109 109 105 86 91 70 26 1 
0 1 8 12 16 16 22 9 3 7 16 7 11 24 1 0 0 0 9 24 
59 109 94 84 109 104 68 88 94 64 16 0 0 4 6 27 15 17 23 10 
1 14 17 7 8 22 1 0 0 0 8 24 36 100 125 113 114 109 97 107 
89 49 13 24 18 14 7 22 16 19 22 10 0 15 11 1 6 21 15 16 
17 17 19 23 23 90 110 123 112 104 107 99 75 29 63 111 65 10 45 28 
7 11 21 10 0 19 8 0 1 7 8 14 27 0 2 4 17 92 97 135 
133 128 121 85 82 15 29 28 35 75 79 45 5 2 10 4 0 8 3 0 
2 4 9 20 19 10 3 1 19 93 97 111 128 123 90 84 90 19 110 80 
73 137 72 20 8 0 0 0 0 7 1 0 1 5 12 23 10 29 22 26 
32 91 111 93 65 56 70 99 87 20 31 46 62 136 77 19 10 1 0 0 
0 8 1 0 6 7 13 10 23 36 36 35 40 69 112 116 118 113 101 98 
77 20 32 26 35 48 53 17 10 2 0 0 0 0 7 0 2 0 22 41 
52 59 36 40 51 37 111 110 114 115 92 99 48 26 25 27 29 27 29 37 
19 2 0 0 0 0 0 0 3 37 52 45 42 42 31 27 49 54 64 117 
106 94 103 80 41 34 30 22 23 26 33 45 44 26 1 0 0 2 1 2 
30 41 39 44 45 56 51 37 41 48 28 91 112 108 102 38 31 31 24 34 
38 42 52 52 44 45 22 0 0 0 6 9 47 46 57 55 52 40 38 38 
32 28 45 57 105 117 78 43 35 35 35 29 27 31 40 44 40 33 34 5 
