P2 
32 30
141
10 6 22 27 26 25 25 23 22 21 20 19 18 17 17 20 16 19 17 15 
18 19 19 20 21 22 22 23 24 25 25 25 25 12 19 23 26 25 24 23 
22 21 21 20 18 17 18 20 18 20 17 16 19 19 20 21 22 22 24 25 
25 25 25 25 25 30 21 15 9 25 25 24 23 22 22 21 19 18 19 21 
19 20 18 17 20 21 21 22 22 24 24 25 25 25 25 25 25 3 23 32 
20 27 27 28 24 23 23 22 21 19 20 21 19 20 20 18 21 22 22 23 
23 24 24 24 25 24 24 25 25 1 9 1 12 9 11 2 8 1 10 0 
21 20 22 22 22 20 21 19 22 23 23 24 24 25 25 24 25 25 25 25 
25 10 11 1 11 1 1 0 9 3 8 0 21 21 23 23 24 24 27 23 
23 24 24 24 25 25 25 25 25 25 25 25 25 9 28 27 14 6 16 26 
20 9 16 26 24 22 24 21 17 29 32 32 21 24 25 25 25 25 26 25 
25 25 25 25 25 6 13 5 19 32 23 12 16 2 4 16 24 23 20 23 
56 81 63 26 22 23 25 26 26 27 27 26 27 26 26 26 27 9 10 1 
15 9 11 0 9 3 2 17 17 24 19 57 98 107 97 78 26 20 25 27 
27 28 28 28 28 27 27 27 27 11 15 14 17 2 7 13 8 3 1 17 
7 23 53 59 79 95 83 62 51 21 29 27 28 28 28 26 28 27 27 26 
26 10 10 17 17 2 18 32 27 21 16 20 13 23 45 60 65 82 70 71 
58 29 30 27 28 28 28 28 27 27 26 26 25 9 9 14 19 33 30 17 
30 23 25 23 22 27 64 76 65 85 70 85 76 40 28 27 27 28 28 27 
27 27 26 26 26 28 18 21 20 26 21 0 13 0 14 4 7 31 88 108 
87 92 98 113 95 49 26 22 25 23 21 27 27 26 26 25 25 12 13 13 
15 18 22 1 10 1 15 5 6 33 94 98 92 102 90 113 96 46 15 13 
17 12 6 28 27 26 26 26 26 0 0 0 0 6 29 30 28 30 28 32 
16 29 89 92 101 106 96 106 95 52 11 19 18 14 8 27 27 26 26 26 
26 0 0 0 0 4 23 2 20 25 14 28 26 55 78 92 97 96 104 104 
89 73 77 20 21 13 6 27 27 26 26 25 25 0 0 0 0 3 15 1 
21 12 0 22 34 72 78 70 90 95 78 88 88 82 84 18 22 23 19 27 
26 26 26 25 25 0 0 0 0 3 24 25 32 16 9 21 31 56 76 55 
51 52 51 82 81 54 27 22 29 28 27 27 27 26 25 25 25 0 0 0 
0 4 23 20 23 16 24 24 23 16 76 83 87 93 86 85 76 49 11 23 
31 27 26 26 26 26 25 36 39 10 14 17 18 20 22 21 21 24 24 24 
20 14 77 91 103 107 103 93 83 39 14 30 16 13 22 26 27 26 25 46 
46 1 14 23 16 16 22 22 21 22 24 23 18 10 84 93 111 122 111 103 
94 32 16 35 7 2 15 26 26 24 24 46 45 8 17 26 23 12 19 23 
23 22 22 22 14 5 89 94 112 126 110 102 99 26 13 24 1 0 9 23 
24 12 7 20 22 10 12 21 22 19 22 20 21 22 22 22 19 30 95 104 
109 120 110 105 99 24 15 38 17 5 13 21 22 36 38 35 32 17 20 24 
27 23 23 21 20 22 18 56 110 99 99 113 109 120 106 109 95 49 31 31 
32 16 9 6 13 42 46 45 44 0 0 0 0 0 0 2 29 75 124 131 
131 115 105 120 109 112 106 115 95 61 96 48 43 29 15 12 6 44 45 44 
43 0 0 0 0 16 85 121 131 131 131 131 131 127 106 121 116 109 114 114 
105 74 126 115 107 88 38 3 5 43 43 42 41 0 0 0 23 118 132 132 
132 131 131 131 131 130 88 112 121 110 120 116 94 85 126 125 124 124 123 103 
46 44 43 42 40 0 0 2 113 132 132 132 132 132 131 131 131 130 124 40 
84 121 124 89 41 124 127 126 125 125 124 124 122 78 43 43 40 0 0 34 
133 132 132 132 132 132 131 131 130 130 129 111 33 18 22 34 112 128 127 126 
127 126 125 125 124 121 63 42 40 12 13 69 132 132 132 131 131 131 131 131 
130 130 129 128 127 103 100 124 125 125 124 123 123 123 122 122 121 121 105 41 
