P2 
32 30
143
10 6 22 27 27 26 25 24 23 22 21 19 18 17 18 20 16 20 18 16 
19 20 20 21 22 22 24 24 25 25 25 26 26 13 20 25 27 26 25 25 
24 22 21 20 19 18 19 21 19 21 19 17 20 21 21 22 23 23 25 25 
26 26 26 26 26 32 22 17 10 26 26 25 24 23 23 22 20 20 20 22 
20 21 20 19 22 22 23 23 24 25 26 26 26 26 26 26 26 3 24 33 
21 28 28 29 25 24 25 24 22 20 22 22 20 21 21 20 23 23 24 24 
25 25 26 26 26 26 26 26 26 2 10 1 13 9 12 2 8 1 11 1 
22 22 23 24 23 22 23 21 24 24 25 25 26 26 26 26 26 26 26 26 
26 11 11 1 12 1 2 0 10 4 9 0 23 23 24 20 16 26 35 27 
24 25 25 26 26 27 27 26 27 26 26 27 27 9 29 29 15 6 17 27 
21 10 18 27 26 23 20 18 26 31 31 38 23 16 26 27 27 27 28 27 
27 27 27 27 27 6 14 5 19 33 24 13 16 3 4 17 25 24 20 28 
54 72 66 44 30 14 24 27 27 28 28 27 28 28 27 27 27 10 10 2 
15 10 11 0 9 3 3 18 18 23 26 70 110 120 119 105 63 17 23 28 
29 28 29 29 29 28 28 28 27 12 15 15 18 2 8 13 9 3 1 17 
7 21 56 96 118 123 122 114 95 37 24 28 29 28 29 27 28 27 27 26 
26 10 10 18 18 2 18 33 28 22 17 21 14 24 71 107 120 125 125 116 
104 66 24 26 28 28 29 28 28 27 27 26 26 9 10 14 20 33 30 18 
30 24 26 25 20 18 44 36 53 110 108 66 61 52 23 24 28 29 29 28 
28 28 27 27 26 29 18 21 21 27 21 0 13 1 15 7 7 8 13 15 
1 36 34 1 10 10 10 21 27 25 23 28 28 28 27 27 26 12 13 14 
15 18 22 1 10 1 15 6 13 13 10 8 0 64 53 0 30 8 5 11 
20 13 7 29 28 27 27 27 27 0 0 0 0 6 31 31 29 32 30 34 
27 47 33 7 21 89 80 6 6 26 21 19 22 16 10 29 29 28 28 28 
28 0 0 0 0 5 23 3 21 26 14 29 35 77 81 98 97 79 79 92 
78 78 86 23 22 14 7 29 28 28 27 27 26 0 0 0 0 4 16 0 
22 13 0 23 32 75 81 114 107 94 89 117 112 79 86 25 25 24 20 29 
28 28 27 26 26 0 0 0 0 3 24 26 33 16 10 21 26 57 81 114 
92 98 94 101 112 77 60 21 34 29 28 28 28 28 27 26 26 0 0 0 
0 4 23 20 23 16 25 26 24 10 68 105 102 103 105 97 103 39 15 28 
30 28 27 27 27 27 26 37 40 10 15 17 18 19 22 21 21 24 24 26 
21 10 49 92 119 110 114 109 88 29 20 28 9 13 22 27 27 27 26 46 
47 1 15 23 16 16 22 23 22 23 24 26 29 14 39 77 85 106 105 76 
80 26 20 31 7 2 15 27 26 25 25 47 47 9 18 27 24 13 19 23 
24 22 23 30 25 17 43 90 66 64 64 73 90 21 24 30 17 0 9 24 
25 12 8 21 22 10 12 21 22 18 22 20 20 22 22 24 17 13 50 99 
104 116 116 101 96 25 19 34 30 7 14 21 23 36 38 35 33 18 21 26 
27 23 24 21 20 22 12 13 28 72 70 112 108 125 115 107 99 46 31 35 
48 28 10 7 14 43 47 47 46 0 0 0 0 0 0 0 1 17 30 66 
127 118 93 117 115 119 116 115 99 75 110 74 29 7 9 14 6 46 47 46 
45 0 0 0 0 0 6 18 47 88 130 133 133 129 107 118 120 120 118 118 
103 80 129 127 121 86 41 6 6 45 45 45 44 0 0 0 0 10 71 120 
134 134 133 133 133 133 109 121 122 118 120 117 113 84 128 127 126 125 124 108 
56 46 45 44 42 0 0 0 5 99 134 134 134 134 133 133 133 132 102 114 
127 124 127 124 78 110 127 126 125 124 124 123 123 82 45 44 42 0 0 0 
67 134 134 134 134 133 133 133 133 132 130 52 92 128 125 73 57 129 128 127 
127 126 125 124 124 117 55 44 41 12 13 12 115 134 134 134 134 133 133 133 
133 132 132 116 32 17 17 44 124 130 129 129 129 128 127 126 125 124 105 44 
