P2 
32 30
138
10 5 20 25 25 24 23 22 21 20 19 18 17 16 16 18 14 17 15 13 
16 17 17 18 19 20 21 22 22 23 23 23 24 11 17 22 24 23 23 22 
21 20 19 18 17 17 17 19 16 17 15 14 17 18 18 19 20 20 22 22 
23 23 23 23 23 29 19 14 8 23 23 22 21 21 21 20 19 18 19 19 
17 18 17 15 18 19 20 21 21 22 23 23 23 24 24 23 23 3 22 31 
18 26 26 27 23 22 23 22 21 19 20 20 18 18 19 17 20 21 21 22 
22 23 23 23 24 24 24 24 24 1 9 1 11 9 11 2 8 1 10 0 
21 20 22 22 21 19 20 18 21 22 22 23 23 24 24 24 24 24 24 24 
24 10 10 1 11 1 1 0 9 3 8 0 22 22 23 24 23 19 21 19 
22 23 23 23 24 24 24 24 25 24 24 25 24 9 27 27 14 6 16 25 
19 10 17 26 28 31 32 49 41 31 26 21 23 24 24 25 25 25 25 25 
25 25 25 25 25 5 13 5 17 31 22 12 15 2 4 14 7 13 14 34 
43 47 44 35 25 24 24 25 25 25 26 25 25 25 25 25 25 9 9 1 
13 9 10 0 8 2 2 17 20 22 29 24 28 32 32 42 34 25 23 25 
25 25 26 25 25 25 25 25 25 10 14 13 16 2 7 11 8 2 1 24 
74 67 56 31 24 23 25 28 34 32 26 26 26 26 26 25 26 25 25 25 
24 9 10 17 17 2 17 30 26 20 16 52 97 99 65 33 34 30 29 32 
35 37 26 26 26 26 26 26 26 25 25 25 24 8 9 13 19 32 29 16 
29 22 27 82 104 106 54 26 38 41 35 38 47 39 29 26 26 26 27 26 
26 26 25 25 24 27 18 21 20 26 21 0 12 1 17 22 51 78 47 21 
31 49 50 44 47 49 31 22 25 23 21 26 26 26 25 25 24 12 13 13 
15 18 21 1 10 1 13 12 91 104 68 18 24 44 58 60 48 39 32 3 
16 11 6 27 26 25 25 25 25 0 0 0 0 6 29 29 27 30 34 8 
94 119 98 47 36 42 61 67 48 41 42 9 16 13 7 26 26 25 25 25 
25 0 0 0 0 4 22 2 19 49 58 26 103 121 123 113 92 61 45 66 
67 57 36 23 17 11 5 26 25 25 25 24 24 0 0 0 0 3 15 0 
20 68 95 80 112 123 123 121 87 59 36 55 62 49 30 31 20 21 18 26 
26 25 25 24 24 0 0 0 0 3 23 25 31 19 61 90 115 124 124 115 
89 65 37 46 43 55 38 38 29 27 26 26 26 25 25 24 24 0 0 0 
0 4 22 19 22 16 51 88 118 123 124 123 120 88 42 38 44 57 45 48 
34 26 25 25 25 25 24 34 37 12 16 17 17 18 21 20 19 23 56 91 
116 119 120 123 121 94 42 39 57 53 43 44 25 12 20 25 25 24 24 43 
44 2 16 23 15 15 21 21 20 21 47 96 111 118 116 115 123 97 46 51 
67 42 37 45 26 2 13 24 24 22 22 43 43 11 18 26 23 11 17 21 
21 21 47 75 107 106 109 117 122 106 52 75 61 40 38 45 40 1 8 21 
22 11 6 19 20 12 13 20 21 17 19 18 19 20 24 33 46 42 111 125 
117 103 61 81 55 62 36 45 35 4 12 19 20 33 35 32 29 17 22 25 
26 22 22 19 18 19 10 3 14 57 101 122 115 100 66 61 45 57 37 48 
26 2 6 6 12 40 43 43 41 0 0 0 0 0 0 0 1 18 46 83 
111 124 98 112 112 103 71 67 60 57 67 96 48 4 7 13 6 43 44 43 
41 0 0 0 0 0 6 45 90 122 128 128 128 127 101 104 110 96 64 86 
79 72 119 120 117 107 72 28 6 42 43 41 39 0 0 0 0 10 86 128 
128 128 127 127 127 126 100 108 101 91 87 116 110 84 120 123 123 122 121 120 
99 52 42 40 38 0 0 0 0 74 128 128 128 128 127 127 127 126 102 99 
101 117 122 119 56 119 123 123 122 121 121 120 119 103 44 41 39 0 0 0 
8 125 128 128 128 128 127 127 126 126 125 49 81 116 94 35 91 123 123 123 
123 122 122 121 121 119 74 41 38 10 11 10 33 124 127 127 127 127 127 126 
126 126 125 105 21 12 17 84 124 124 123 123 123 123 122 122 121 121 116 55 
