P2 
32 30
141
10 6 22 27 26 26 25 24 23 21 20 19 18 17 18 19 16 19 17 15 
18 19 19 20 21 22 23 24 24 25 25 25 26 13 20 24 26 25 25 24 
23 22 21 20 19 18 19 21 18 20 18 16 19 20 20 21 22 23 24 25 
25 25 25 25 26 31 21 16 10 25 25 24 23 22 22 21 20 18 20 21 
19 20 19 18 20 21 22 22 23 24 25 25 25 25 26 25 25 3 23 32 
20 27 27 28 24 23 24 23 21 20 21 21 19 20 20 19 21 22 22 23 
23 24 25 25 25 25 25 25 25 1 9 1 13 9 11 2 8 1 10 1 
21 21 22 23 23 20 21 20 23 23 23 24 25 25 25 25 25 25 26 26 
25 11 11 1 11 1 1 0 9 3 8 0 22 22 23 24 24 21 22 20 
24 24 24 25 25 25 25 25 25 26 26 26 26 9 28 28 14 6 17 26 
20 9 16 26 24 22 24 24 25 21 22 21 24 24 24 25 25 25 26 25 
25 25 25 26 25 5 13 5 18 32 23 12 15 2 4 16 24 22 23 22 
27 26 28 22 25 25 25 26 26 27 27 26 27 27 26 26 26 10 10 2 
16 10 11 0 9 3 3 18 18 25 23 22 35 40 32 25 25 27 25 28 
28 28 29 28 29 28 28 28 27 12 15 15 18 2 8 13 8 3 1 17 
7 30 50 55 77 74 55 53 24 27 27 27 28 28 29 27 28 27 27 27 
26 10 10 18 18 2 18 33 28 21 17 20 14 28 51 57 82 60 74 44 
16 27 27 27 28 28 28 28 28 27 27 26 26 9 10 14 20 33 31 17 
30 24 25 24 23 33 56 62 80 69 47 75 30 27 27 27 28 28 28 28 
28 27 27 27 26 28 18 21 21 27 21 0 13 1 15 5 7 48 94 82 
99 87 98 86 44 30 24 22 26 24 22 27 27 27 26 26 25 12 13 14 
15 19 22 1 10 1 15 5 10 64 96 84 88 94 94 97 52 27 5 1 
17 12 6 28 27 26 26 26 26 0 0 0 0 6 30 30 29 31 29 33 
19 69 74 78 91 73 81 96 56 23 12 1 17 14 8 28 27 27 26 26 
26 0 0 0 0 5 23 3 21 26 14 28 10 64 66 55 65 64 73 95 
62 17 20 3 18 13 6 28 27 27 27 26 25 0 0 0 0 4 16 0 
21 13 0 22 26 69 93 93 106 101 95 95 74 79 25 8 19 23 19 28 
27 27 26 25 25 0 0 0 0 3 25 26 33 17 10 21 57 78 102 100 
116 110 104 93 64 51 22 13 23 28 27 27 27 26 26 25 26 0 0 0 
0 4 24 21 23 16 25 24 29 47 94 108 123 120 109 88 72 6 22 23 
24 27 27 27 26 26 25 36 39 10 15 18 19 20 23 22 21 25 25 25 
21 53 91 107 128 125 113 101 71 7 15 18 6 13 22 27 27 27 26 46 
47 1 15 24 16 17 23 23 22 23 25 26 20 68 91 103 130 126 111 104 
74 7 13 19 3 2 15 26 26 24 25 46 45 9 18 27 25 13 20 24 
24 23 24 24 17 71 99 104 128 126 110 108 79 7 16 11 0 0 9 24 
24 12 8 21 22 10 13 21 23 20 23 21 21 23 23 19 10 74 110 106 
130 127 110 115 83 14 29 12 3 4 14 21 23 36 38 35 31 18 21 26 
28 24 25 22 21 24 17 52 104 99 121 108 125 120 112 118 86 55 32 29 
9 2 11 7 14 43 47 47 44 0 0 0 0 0 0 1 20 73 118 132 
132 105 125 118 121 118 120 119 90 95 93 55 30 33 12 12 6 44 45 44 
42 0 0 0 0 15 75 116 132 132 132 131 132 113 126 126 121 120 125 123 
95 103 125 123 113 75 13 1 5 44 43 42 40 0 0 0 30 123 133 132 
133 132 132 132 132 119 104 129 123 124 126 125 69 124 125 124 124 123 119 76 
21 44 43 41 39 0 0 13 126 133 133 133 133 132 132 131 131 131 70 94 
128 127 127 78 72 128 126 126 125 124 123 123 109 53 44 42 39 0 0 61 
134 133 133 133 132 132 132 131 131 131 124 36 38 61 38 45 126 128 127 127 
127 127 126 125 125 106 46 42 39 12 14 95 133 133 132 132 132 132 131 131 
131 130 130 123 76 56 80 125 127 126 126 125 125 124 124 123 122 122 75 40 
