P2 
32 30
141
10 6 22 27 26 26 25 24 23 21 20 19 18 16 17 20 16 19 17 15 
18 18 19 20 21 22 23 23 24 25 25 25 25 12 19 24 26 25 24 23 
22 21 20 19 18 18 18 20 18 20 17 16 19 20 20 21 21 22 24 24 
25 25 25 24 25 31 21 16 10 25 25 24 23 22 22 21 19 18 20 21 
19 20 19 17 20 21 21 22 23 24 25 25 25 25 25 25 25 3 23 33 
20 27 27 29 25 24 24 23 22 20 21 22 20 20 21 19 22 23 23 23 
24 25 25 25 25 25 26 25 26 1 10 1 13 9 12 2 8 1 10 1 
21 21 23 23 23 21 22 20 23 24 24 24 25 25 25 25 26 26 26 26 
26 11 11 1 12 1 1 0 9 4 9 0 23 22 24 24 25 23 23 21 
24 25 25 25 26 26 26 26 26 26 26 26 26 9 29 29 16 6 17 27 
21 10 18 27 26 23 26 24 25 30 36 24 25 25 26 26 26 27 27 27 
26 27 27 27 26 6 13 5 19 33 24 12 16 3 4 17 25 23 22 24 
53 64 35 26 23 26 26 27 27 27 28 27 27 27 27 27 27 9 10 1 
14 9 11 0 9 2 2 17 17 23 17 67 99 103 84 37 24 26 24 27 
27 27 27 27 27 27 26 26 26 11 15 14 17 2 7 12 8 2 1 17 
7 24 62 69 80 77 85 56 38 26 26 27 27 27 28 26 28 27 27 26 
26 10 10 18 18 2 18 32 28 21 16 20 14 27 65 73 63 94 61 82 
45 25 27 27 28 28 28 28 28 27 27 26 26 9 9 14 20 34 30 18 
30 24 25 24 23 38 71 74 73 72 79 77 72 29 27 27 28 28 28 28 
28 28 27 26 26 29 19 21 21 27 22 0 13 1 15 5 12 48 92 113 
88 97 90 109 83 32 25 22 26 24 22 28 27 27 27 26 26 12 13 14 
15 19 22 1 10 1 15 5 13 49 97 95 100 102 96 100 87 28 23 3 
17 13 7 28 27 26 27 27 27 0 0 0 0 6 30 30 29 31 29 32 
11 43 84 93 100 92 103 96 78 30 19 10 18 14 8 28 27 27 27 26 
26 0 0 0 0 5 23 2 20 26 14 27 16 49 77 74 86 90 78 81 
78 74 49 16 19 13 6 28 27 27 26 26 26 0 0 0 0 4 16 0 
21 13 0 23 47 69 78 63 53 55 50 75 79 82 54 14 21 23 20 28 
27 27 26 25 25 0 0 0 0 3 25 26 33 16 10 21 49 62 83 86 
89 97 87 87 77 33 16 26 25 28 28 27 27 27 26 25 26 0 0 0 
0 4 24 21 24 16 25 25 19 27 83 100 103 108 101 93 78 29 13 27 
25 28 27 27 27 27 26 36 39 11 15 18 19 20 22 22 20 24 25 25 
18 16 85 97 111 117 108 100 86 24 16 30 7 13 22 27 27 26 25 46 
46 2 15 24 16 16 22 23 22 22 24 28 23 20 92 98 115 127 112 106 
92 21 25 28 3 2 15 26 25 24 24 46 45 9 18 27 24 12 19 23 
23 22 23 25 12 9 94 99 114 126 110 105 97 21 23 17 1 0 9 23 
24 12 7 20 22 10 13 21 22 18 22 20 20 22 22 24 11 24 98 106 
113 123 111 109 97 21 26 23 7 3 13 21 22 35 37 34 32 18 21 25 
27 23 23 20 20 22 14 43 99 99 100 113 111 122 108 113 94 43 25 38 
25 9 8 7 13 42 46 45 44 0 0 0 0 0 0 1 24 70 119 132 
132 114 106 120 112 115 112 118 95 69 97 57 50 31 17 13 6 45 46 45 
44 0 0 0 0 10 75 117 133 133 133 132 132 126 109 121 118 115 121 116 
106 78 127 119 113 85 36 4 5 45 44 44 42 0 0 0 18 114 133 133 
133 132 132 132 132 131 91 121 122 115 123 120 108 82 126 125 124 124 123 104 
44 44 43 43 40 0 0 1 107 133 133 133 133 132 132 132 131 131 110 56 
121 125 126 117 47 118 127 126 125 124 124 123 121 74 44 43 41 0 0 27 
134 133 133 132 132 132 132 131 131 131 130 78 25 60 63 25 90 128 127 127 
127 127 126 125 124 120 59 42 40 12 13 63 133 132 132 132 132 132 131 131 
130 130 130 128 96 57 57 102 126 126 125 125 125 124 123 123 122 122 103 41 
