P2 
32 30
133
10 5 19 23 23 22 21 20 20 18 18 17 16 14 15 16 13 15 13 11 
15 15 16 16 18 18 19 20 21 21 22 21 22 10 17 21 23 22 22 21 
20 19 19 18 17 16 16 18 14 17 14 13 16 17 17 18 19 19 21 21 
22 22 22 22 22 27 18 14 8 23 23 22 20 20 20 19 18 17 18 19 
16 17 16 15 18 18 19 19 20 21 22 22 22 22 22 22 22 3 21 29 
17 24 25 26 22 21 22 21 20 18 19 19 17 17 18 16 19 19 20 20 
21 22 22 22 22 22 22 22 23 1 8 1 11 8 10 2 7 1 9 0 
20 19 20 20 20 18 18 17 20 21 21 21 22 22 22 22 23 23 22 22 
22 10 10 1 10 1 1 0 9 3 8 0 21 24 26 25 23 20 20 18 
21 22 22 22 23 23 23 23 23 23 23 23 24 8 26 26 13 5 16 24 
19 9 16 31 42 51 47 39 36 32 24 19 22 22 23 23 23 23 24 24 
23 23 23 24 23 5 12 4 16 28 20 11 13 1 6 24 12 25 40 37 
39 37 39 26 22 22 21 22 23 23 23 22 23 23 23 22 22 8 9 1 
13 8 10 0 8 2 7 5 20 29 30 28 30 27 37 43 26 23 22 24 
24 24 24 24 25 24 24 24 23 10 13 13 16 2 7 11 8 2 18 41 
43 48 33 26 28 29 28 37 36 24 24 25 25 25 25 24 25 24 24 24 
23 9 9 16 16 2 16 30 25 20 49 87 88 75 42 39 42 36 37 42 
41 27 24 25 25 25 25 25 25 24 24 23 23 8 9 13 18 31 28 16 
28 22 71 97 110 80 38 44 51 49 37 42 35 35 25 25 25 25 25 25 
25 24 24 24 23 26 17 20 19 25 20 0 12 6 85 100 112 77 35 37 
45 60 50 41 50 45 24 20 24 21 20 25 24 24 24 23 23 11 12 13 
14 17 20 1 9 14 54 90 118 112 40 29 42 59 59 56 42 47 24 1 
15 10 4 25 24 23 23 23 23 0 0 0 0 5 28 28 26 29 40 53 
82 101 51 23 26 46 65 63 57 49 40 5 15 12 6 24 24 24 23 23 
23 0 0 0 0 4 21 2 19 44 67 74 109 118 95 89 77 54 45 58 
52 44 38 21 16 10 4 24 24 23 23 22 22 0 0 0 0 3 15 0 
24 89 78 95 117 122 121 119 81 62 27 45 36 45 39 32 18 21 17 25 
24 24 23 23 23 0 0 0 0 3 23 24 39 84 86 104 120 122 121 114 
98 50 20 37 37 49 53 40 27 26 25 24 24 23 23 22 23 0 0 0 
0 3 22 18 22 23 79 100 113 121 122 114 103 87 30 30 42 47 50 38 
29 24 23 23 23 23 22 31 35 14 16 17 17 18 20 20 19 23 69 92 
109 116 118 118 121 100 37 31 46 52 41 43 22 11 19 23 23 23 22 41 
41 3 16 23 15 15 20 20 20 21 61 98 107 112 111 114 121 108 46 36 
65 47 36 46 35 1 12 22 22 21 21 41 40 11 19 26 22 10 16 21 
21 20 63 86 109 108 109 118 120 114 60 46 70 52 38 42 24 0 7 20 
20 10 6 18 19 12 13 20 20 16 19 17 18 19 36 45 84 95 109 121 
118 106 66 51 57 69 30 34 19 3 10 17 18 31 33 30 27 18 22 26 
26 23 22 20 19 21 17 41 75 70 101 122 116 98 67 54 56 63 57 36 
9 1 6 6 12 39 42 42 40 0 0 0 0 0 0 3 35 81 121 125 
124 100 94 111 114 94 61 58 79 64 111 84 23 2 6 11 5 41 42 40 
39 0 0 0 0 13 72 115 125 124 124 124 124 108 103 101 111 92 58 76 
84 102 121 113 109 86 42 3 4 40 40 38 37 0 0 0 24 112 125 125 
125 124 124 124 124 119 96 112 103 94 96 109 60 119 120 120 120 119 118 103 
35 40 39 38 36 0 0 4 109 125 125 124 125 124 124 123 124 123 73 112 
106 116 121 75 70 121 120 120 120 119 118 118 112 56 39 38 36 0 0 37 
126 124 124 124 124 124 124 123 123 123 109 29 61 84 50 36 119 121 120 120 
121 120 120 120 119 107 44 38 36 10 12 70 125 125 124 124 124 123 123 123 
123 123 122 98 34 23 56 116 121 121 120 120 120 120 119 119 118 118 81 37 
