P2 
32 30
157
10 9 35 21 17 56 41 50 49 45 44 42 40 38 35 33 31 30 27 26 
32 24 29 26 24 28 28 29 30 32 33 35 36 2 28 20 3 44 8 4 
51 45 43 41 40 38 36 34 32 31 29 28 33 25 30 28 25 29 30 31 
31 33 34 35 37 34 40 31 17 42 9 7 50 44 43 42 40 38 37 35 
33 31 30 28 34 28 30 29 27 29 32 32 33 34 35 37 38 29 27 24 
25 30 29 32 46 44 42 41 40 39 37 35 33 30 28 27 30 29 30 30 
27 30 33 34 34 35 36 37 38 26 26 32 28 47 40 36 25 25 32 42 
41 39 36 32 24 13 10 6 6 7 11 19 25 31 34 35 36 36 37 38 
38 11 9 23 17 33 23 32 49 54 31 44 44 22 4 5 2 0 0 0 
0 0 0 1 10 25 33 36 37 37 38 38 39 16 1 22 12 32 8 14 
15 20 24 26 12 2 0 0 0 0 0 0 0 0 0 0 0 17 31 38 
38 39 39 40 40 12 1 33 31 39 13 11 12 9 17 3 4 0 0 0 
0 0 0 0 0 0 0 0 0 5 20 37 40 40 40 41 41 12 5 31 
6 28 27 35 44 44 20 2 7 0 0 0 0 0 0 0 0 2 1 0 
0 0 14 32 39 37 39 36 33 13 27 42 26 28 9 16 20 16 36 50 
7 0 0 0 0 0 0 0 0 2 8 1 1 0 4 20 23 29 32 33 
34 35 34 23 20 31 8 13 17 10 27 19 0 0 0 0 0 0 1 3 
7 7 16 14 16 0 0 18 17 2 10 4 6 44 35 16 35 53 26 26 
27 24 29 6 0 0 0 2 3 1 4 5 17 13 11 27 46 1 1 32 
41 41 12 9 27 26 47 52 21 9 21 20 22 30 33 3 0 0 0 1 
1 1 22 40 103 37 1 11 23 1 14 42 42 33 4 12 42 21 3 22 
11 5 13 12 23 20 36 51 5 0 4 7 7 11 93 131 131 32 0 7 
8 7 34 43 41 24 1 6 31 37 37 46 22 18 32 35 29 26 38 46 
9 0 26 46 24 37 107 135 140 50 5 44 63 8 22 21 12 8 3 2 
19 34 8 26 38 38 37 38 33 31 29 29 8 1 28 68 72 76 113 140 
139 121 59 100 109 15 4 3 5 15 12 15 22 14 0 20 4 16 32 18 
1 2 1 1 12 0 3 78 119 106 118 134 135 131 101 108 97 24 0 0 
7 16 33 59 40 20 21 28 6 19 29 23 1 2 2 1 24 1 1 30 
91 99 113 135 138 134 108 100 62 6 0 0 11 8 28 21 24 21 10 6 
17 16 26 24 1 2 2 2 23 5 2 42 105 94 116 132 138 137 118 105 
51 3 0 0 15 12 30 13 24 20 8 17 11 14 21 24 0 1 1 1 
21 23 3 64 118 90 113 128 133 130 105 81 38 2 2 3 16 20 34 17 
26 13 12 13 12 9 18 22 0 0 0 0 20 30 40 95 119 104 93 113 
121 112 99 84 27 27 32 24 14 20 40 25 36 8 11 12 5 5 15 27 
22 26 28 28 32 28 65 92 115 113 93 88 101 106 94 58 66 129 126 16 
21 66 41 23 45 16 16 23 1 0 5 11 13 37 19 1 44 38 91 95 
116 118 110 82 66 77 69 27 31 37 34 55 96 94 16 4 9 34 25 3 
4 2 5 9 15 33 32 31 81 64 104 102 118 120 100 67 33 9 39 42 
108 101 80 143 114 40 21 9 3 6 7 2 0 1 2 16 9 56 86 73 
81 82 117 111 116 119 98 93 80 40 51 47 70 88 71 137 119 39 21 11 
3 4 7 5 0 6 13 48 62 92 82 67 77 76 134 122 116 114 107 111 
87 58 63 40 58 66 61 100 106 37 18 13 2 3 2 2 4 4 80 78 
67 96 84 80 92 64 119 138 119 114 128 113 104 83 78 39 47 62 57 85 
72 35 19 13 2 0 0 0 0 52 96 82 61 87 77 60 70 51 84 131 
134 122 134 117 97 71 42 36 56 59 61 74 60 46 18 13 2 0 0 1 
12 65 114 98 72 101 89 91 61 59 83 77 113 130 130 108 61 53 45 47 
85 77 82 96 77 49 30 13 2 0 0 1 40 83 100 101 67 81 111 114 
66 71 91 85 61 119 118 66 50 54 56 75 97 71 76 109 72 77 46 13 
