P2 
32 30
156
10 8 31 19 15 51 38 46 45 41 40 38 36 34 32 30 28 26 24 23 
28 21 26 23 21 25 25 26 27 29 30 31 33 2 26 17 3 41 7 3 
48 41 40 38 36 35 33 31 29 27 25 24 29 23 28 26 23 26 28 28 
29 30 31 32 34 32 38 28 15 38 8 6 46 41 40 38 37 35 34 32 
30 26 23 21 23 19 23 24 24 27 29 29 30 32 33 34 35 27 25 22 
23 28 27 29 43 41 40 39 38 35 24 20 17 8 4 5 4 2 1 3 
9 18 28 31 32 33 34 35 36 24 24 30 26 44 37 33 23 22 30 39 
38 16 2 0 0 0 0 0 0 0 0 0 0 3 13 28 33 34 35 36 
36 10 8 21 15 31 21 30 46 51 29 41 40 8 0 0 0 0 0 0 
0 0 0 0 0 0 2 19 29 35 36 36 36 15 1 21 11 30 7 13 
13 18 22 25 11 0 0 1 0 0 0 0 0 0 0 0 0 0 0 10 
27 35 38 38 38 11 0 31 29 37 12 10 10 8 16 3 3 0 0 1 
1 0 0 0 0 0 1 0 0 0 0 4 18 33 38 39 39 11 4 28 
6 26 25 32 42 41 18 2 5 0 0 0 0 0 0 0 0 2 6 3 
0 0 0 1 18 27 36 33 31 12 25 39 25 27 8 15 19 15 33 45 
3 0 0 1 0 0 0 0 0 1 7 11 1 4 0 0 5 21 29 31 
32 32 32 21 19 29 7 12 15 9 24 16 1 0 0 1 1 0 0 1 
0 2 18 24 16 25 5 1 0 2 9 4 5 41 32 14 32 49 25 23 
24 21 27 5 0 0 0 4 4 1 0 4 5 13 37 33 24 55 26 0 
7 37 10 8 25 23 43 48 19 8 19 18 20 27 30 3 0 0 0 2 
2 2 1 3 12 63 108 107 67 61 25 0 17 30 3 11 39 19 4 20 
11 4 12 11 21 19 34 48 11 0 7 6 4 3 19 68 98 120 113 77 
53 80 47 16 33 22 1 6 30 35 35 42 20 17 29 32 28 24 35 44 
10 1 10 23 16 12 62 116 143 142 133 100 89 106 31 18 10 7 3 2 
17 31 8 24 35 35 34 35 30 29 27 27 10 2 30 59 31 43 78 124 
142 145 138 101 107 128 53 2 4 14 12 14 21 15 0 20 3 16 30 18 
1 1 1 1 16 0 8 78 95 92 87 132 141 140 135 106 111 125 82 0 
7 16 33 59 41 22 23 30 7 18 28 22 0 1 1 1 22 1 1 49 
127 104 105 130 133 136 134 109 106 119 92 0 10 8 27 22 25 24 11 7 
18 17 25 24 0 1 1 0 21 5 1 15 75 86 99 124 134 135 129 106 
100 84 33 0 14 11 28 12 24 20 7 19 12 14 22 25 0 0 0 0 
19 19 0 20 87 78 96 116 127 131 126 112 116 91 13 3 15 19 32 16 
26 12 11 13 14 11 19 24 0 0 0 0 18 25 2 43 101 75 89 111 
122 127 124 96 84 53 31 22 13 19 38 24 37 6 9 11 6 6 16 29 
21 24 25 25 28 33 25 82 106 87 78 103 117 119 111 98 101 90 122 15 
19 63 39 24 51 14 14 20 1 0 5 12 13 34 17 1 12 53 62 92 
105 105 85 77 101 110 102 92 77 36 31 53 91 90 15 4 9 31 22 3 
3 2 6 9 14 31 29 30 62 59 88 92 105 110 108 87 73 90 104 99 
70 79 78 140 110 37 19 8 2 5 6 2 0 1 3 17 8 47 73 74 
88 67 101 96 109 110 110 98 64 51 61 63 48 67 69 105 106 36 20 11 
3 3 6 5 1 6 8 25 57 92 98 91 89 65 111 103 110 113 100 78 
42 25 25 40 41 54 47 50 67 57 17 13 2 3 2 2 4 0 16 65 
76 102 84 73 80 63 115 109 105 104 103 76 90 82 54 61 35 59 64 52 
78 84 55 15 3 0 0 0 0 7 84 74 69 90 85 63 72 63 104 120 
103 102 95 93 108 78 62 74 30 51 55 59 90 79 62 33 3 0 0 1 
3 77 107 72 67 79 86 76 90 62 75 128 112 108 105 118 101 97 81 81 
47 47 61 54 77 75 62 58 6 0 0 1 30 84 94 75 59 76 80 81 
106 72 70 104 136 121 122 121 114 90 67 43 39 56 70 65 89 76 55 74 
