P2 
32 30
156
10 44 18 24 56 43 50 44 42 41 39 37 35 33 31 30 28 26 27 27 
23 26 23 23 26 27 28 29 31 32 33 35 36 39 5 4 44 3 21 44 
42 41 39 37 36 34 33 31 29 27 28 30 25 28 26 24 28 29 30 30 
32 33 34 35 36 45 16 13 42 4 20 44 41 40 39 38 36 35 34 30 
29 27 27 30 27 29 27 26 30 31 31 32 33 34 36 37 37 24 23 26 
30 27 36 43 42 41 40 39 37 36 35 30 27 22 27 28 28 31 29 27 
32 32 33 34 35 36 37 38 38 28 28 33 44 33 28 24 25 38 40 39 
38 37 29 18 14 15 16 15 22 32 30 30 34 34 35 35 36 37 37 38 
38 12 19 15 39 25 39 49 42 36 44 46 43 28 9 4 0 1 2 3 
9 30 32 31 35 36 36 36 37 37 37 38 39 2 22 13 35 2 21 12 
27 22 33 6 16 0 1 0 5 7 0 0 1 23 33 32 37 37 37 37 
37 38 39 39 39 1 38 27 36 7 16 5 16 7 4 1 4 0 0 16 
44 64 32 1 0 5 30 33 38 38 38 38 39 39 40 40 40 5 27 6 
36 28 42 34 36 9 3 12 0 0 26 76 108 111 93 55 2 0 16 32 
38 39 39 37 40 39 36 35 29 28 39 19 29 4 33 8 27 41 45 4 
0 4 75 91 91 98 83 66 32 0 3 26 32 31 27 23 30 30 33 29 
31 28 25 19 32 3 28 2 21 25 27 3 0 32 105 116 106 108 88 92 
46 0 0 18 31 35 21 14 8 12 4 9 30 17 19 39 49 20 33 19 
26 16 5 0 1 74 126 128 110 87 72 91 72 2 0 20 39 32 34 36 
29 4 13 26 38 58 42 15 16 15 28 13 39 20 2 1 7 91 132 132 
108 101 76 108 92 9 0 27 37 35 41 40 25 1 26 41 41 2 28 7 
14 5 26 5 31 37 24 0 9 92 131 130 105 102 81 80 94 12 1 29 
32 39 40 36 14 0 13 37 40 28 39 11 21 21 37 13 31 35 26 5 
39 85 126 134 121 115 87 77 80 8 7 29 28 22 17 9 4 0 3 27 
40 1 36 39 37 40 36 35 33 32 22 17 70 78 118 133 128 119 99 83 
70 7 14 24 9 4 3 6 9 7 10 24 35 0 18 5 18 35 4 1 
1 1 2 4 21 66 102 117 129 126 105 76 55 23 25 20 4 0 0 8 
16 33 44 31 29 13 19 9 17 31 8 1 2 2 1 8 1 62 68 79 
90 98 84 52 21 5 47 29 1 0 0 10 3 22 14 22 22 8 11 12 
16 27 9 1 1 1 1 26 0 74 93 83 91 83 51 43 7 12 57 19 
0 0 3 9 6 18 11 22 15 5 17 4 13 22 10 0 0 0 0 30 
12 80 109 100 100 82 56 56 12 27 56 10 0 0 6 7 19 17 14 23 
16 13 17 8 9 18 9 0 0 0 0 29 24 87 115 109 113 98 68 63 
26 34 52 15 22 17 18 6 19 20 19 25 15 9 8 2 6 15 17 17 
20 23 24 39 44 91 116 106 108 98 70 67 39 67 47 85 137 84 13 41 
33 29 27 44 16 18 11 1 1 7 11 15 42 8 23 70 51 89 116 114 
106 91 84 63 30 21 15 44 39 33 65 82 54 4 2 12 8 18 6 1 
2 3 8 14 49 69 72 78 64 102 117 119 115 97 91 62 32 41 56 115 
71 98 136 71 26 16 2 0 0 7 1 0 0 2 44 52 74 86 61 76 
65 117 118 119 115 105 90 80 52 50 53 88 67 95 140 80 23 14 3 0 
0 5 2 0 6 67 86 64 67 88 74 93 69 100 131 126 120 113 98 100 
78 60 43 52 54 89 130 78 19 13 4 0 0 3 3 2 32 91 94 67 
72 87 58 59 41 75 120 136 129 120 110 90 69 34 35 49 53 77 75 62 
19 15 5 0 0 0 0 2 58 95 111 81 67 97 98 68 67 89 71 106 
125 124 101 56 46 39 35 64 53 68 67 44 20 16 5 0 0 0 0 32 
80 82 100 72 59 91 100 64 57 87 81 60 123 114 56 54 47 66 97 77 
71 85 69 47 30 15 6 0 0 1 2 76 88 72 80 66 55 87 96 64 
59 90 99 73 90 49 52 69 39 51 90 69 68 97 68 62 58 17 7 0 
