P2 
32 30
156
10 8 31 19 15 51 38 46 45 42 40 38 36 35 33 31 29 27 25 24 
28 21 25 23 21 25 25 26 27 28 30 31 33 2 26 18 2 41 7 4 
48 41 40 39 37 35 34 33 31 29 27 26 31 23 28 25 23 26 28 28 
29 30 31 32 34 32 38 28 15 39 8 6 46 41 40 39 38 36 35 34 
32 29 28 27 32 26 28 27 25 27 29 29 30 31 32 33 35 27 24 22 
23 28 27 29 43 41 40 39 38 37 34 32 30 26 24 26 33 28 29 28 
26 29 30 31 32 32 34 35 36 24 24 30 26 44 37 34 24 23 30 39 
38 37 32 25 22 22 12 14 28 30 30 30 27 31 32 32 33 34 34 35 
35 10 8 21 15 31 21 30 46 51 30 41 43 43 21 8 6 6 2 1 
14 27 31 31 29 32 34 34 34 35 36 36 36 15 1 21 11 30 8 13 
14 18 23 25 12 13 2 0 1 5 1 0 1 16 30 33 31 35 36 36 
36 36 37 37 37 11 0 30 29 37 13 11 11 9 17 3 4 0 1 10 
49 77 74 34 5 0 10 31 31 35 36 36 37 37 37 38 38 11 4 28 
6 26 25 32 42 41 18 2 19 1 3 68 59 104 100 71 44 4 3 22 
31 35 36 36 36 34 35 32 29 12 25 40 25 27 9 15 19 15 34 37 
12 0 31 90 98 90 94 69 66 24 0 7 26 28 28 25 21 27 29 29 
30 32 32 21 19 28 7 12 16 9 25 12 1 0 64 120 115 97 95 77 
98 65 0 1 22 27 33 24 15 2 8 3 4 41 32 14 32 49 25 23 
25 21 28 2 0 8 93 128 119 103 99 89 81 92 10 0 25 33 32 29 
36 36 10 7 24 23 43 48 20 8 20 19 20 28 30 2 0 18 96 127 
122 110 117 99 75 83 21 0 23 34 29 37 38 29 3 11 37 18 5 20 
11 5 12 12 22 19 34 21 0 16 94 126 132 128 122 108 90 82 25 1 
23 36 32 40 38 22 1 5 28 35 37 41 20 17 29 32 28 24 34 6 
0 20 80 120 131 126 124 116 86 77 27 3 23 29 20 18 9 5 3 1 
15 28 8 23 35 35 34 35 30 29 27 9 2 50 70 106 112 109 114 106 
73 62 42 6 22 14 3 2 4 12 10 10 17 12 0 19 3 15 30 17 
1 2 1 1 5 66 52 80 88 95 105 95 59 49 15 5 25 9 0 0 
6 12 26 47 29 15 19 25 6 17 27 22 1 2 2 1 1 1 52 85 
90 103 111 96 63 51 0 11 40 5 0 0 8 4 17 14 18 17 9 5 
16 14 23 22 1 1 0 0 1 1 42 103 108 107 116 97 67 62 3 36 
33 2 0 0 9 5 17 7 18 17 6 16 10 12 19 22 0 0 0 0 
14 12 44 111 117 114 123 105 74 69 13 52 24 1 1 2 11 9 21 10 
20 12 11 11 11 8 16 20 0 0 0 0 18 22 50 112 121 112 123 109 
76 73 33 60 18 24 29 20 10 12 28 15 28 6 9 10 4 4 12 23 
19 23 25 26 28 52 67 110 123 112 112 100 79 78 54 50 61 123 120 13 
16 55 25 15 37 14 14 20 1 0 4 10 12 34 17 20 45 81 57 110 
124 122 119 102 91 75 25 28 28 33 30 49 80 73 12 2 6 31 22 3 
3 1 2 7 13 33 55 75 70 76 64 111 125 126 120 102 97 72 37 47 
90 96 73 139 108 32 14 4 0 5 6 2 0 0 1 16 48 65 70 74 
63 74 67 106 122 124 120 108 96 84 61 60 52 57 72 133 114 33 15 7 
1 3 6 4 0 3 13 84 86 67 54 79 76 96 77 80 129 129 122 117 
97 104 79 77 38 59 49 77 101 32 13 9 1 3 1 2 3 0 53 89 
98 79 59 75 54 45 34 66 106 137 128 123 106 100 74 40 36 46 50 56 
82 41 16 10 1 0 0 0 0 20 66 88 112 93 60 85 100 65 66 93 
73 91 121 127 111 70 55 39 27 50 48 55 74 52 23 11 1 0 0 1 
2 66 84 80 108 84 53 80 105 68 62 89 86 61 110 123 82 52 55 53 
70 105 71 78 88 50 35 11 2 0 0 1 13 86 93 84 67 82 51 67 
91 60 55 86 92 67 77 92 37 62 52 44 72 92 63 81 106 56 58 17 
