P2 
32 30
156
10 9 35 21 17 56 42 51 50 46 44 43 41 38 36 34 31 29 27 26 
31 23 28 25 24 28 29 29 30 32 33 35 37 2 29 20 4 45 9 4 
53 46 45 43 41 39 37 35 33 31 29 28 33 25 30 28 26 30 31 32 
32 34 35 36 38 35 42 32 17 43 9 8 51 46 44 42 39 30 27 22 
27 30 30 29 34 28 31 30 27 31 33 33 34 35 36 38 39 30 27 24 
25 30 30 31 45 42 37 24 12 2 2 1 1 5 15 28 34 30 30 30 
28 31 33 33 35 35 37 38 38 26 27 33 29 48 40 34 22 20 11 4 
0 0 0 0 0 0 0 13 34 31 32 32 30 33 34 35 36 37 38 38 
39 11 9 24 17 33 23 29 30 12 0 0 0 0 1 1 0 0 0 0 
24 28 33 34 32 35 37 37 37 38 39 39 39 17 1 23 12 32 9 7 
3 0 0 0 0 0 0 0 1 2 0 0 2 10 32 35 33 37 38 38 
38 39 40 40 41 12 1 34 32 40 12 3 0 0 0 0 0 0 0 0 
1 2 1 0 0 0 16 36 34 38 39 40 40 40 41 42 42 13 6 32 
7 29 17 4 0 0 0 0 0 0 0 0 0 1 2 0 0 0 10 33 
35 39 40 41 40 38 40 37 34 14 28 44 28 29 8 2 1 4 1 0 
2 1 1 1 0 1 1 0 0 0 6 25 29 32 31 29 25 30 33 33 
35 35 35 24 21 31 6 1 7 6 7 2 1 1 2 2 0 1 0 0 
0 0 6 30 31 31 37 26 17 2 10 4 6 45 36 16 36 54 14 3 
43 27 11 18 9 1 0 0 0 0 0 0 0 0 14 33 35 38 37 33 
40 41 11 8 27 28 48 54 23 10 14 3 32 66 14 4 23 28 22 0 
0 0 0 1 1 0 15 33 31 39 33 42 43 33 4 12 43 22 5 23 
12 5 13 2 3 30 0 0 60 128 128 30 1 0 0 1 0 1 35 31 
26 40 35 43 42 24 1 6 32 39 39 46 23 19 32 16 0 51 3 0 
52 136 136 76 9 25 33 25 2 8 41 33 26 31 22 20 10 7 3 1 
18 34 9 27 39 39 38 28 8 123 37 2 58 145 132 92 41 62 72 9 
2 7 36 33 24 15 4 2 4 15 12 14 21 18 0 23 6 19 34 20 
47 127 95 79 133 140 121 107 86 100 53 1 0 10 33 36 27 10 0 0 
7 16 32 58 38 25 27 34 8 22 32 25 43 100 103 120 140 136 122 112 
90 66 23 0 1 15 26 59 43 6 0 0 10 7 25 19 21 28 14 9 
22 20 29 27 5 89 123 123 135 133 123 107 84 76 61 7 7 21 22 60 
36 3 0 0 13 10 26 10 21 25 11 24 16 19 27 28 2 61 92 110 
131 129 120 101 80 83 83 29 21 25 27 57 27 2 2 3 16 19 32 15 
24 15 17 21 20 16 24 28 1 24 95 105 117 119 110 91 79 90 84 62 
28 27 34 66 21 27 32 24 14 19 39 23 34 9 15 19 10 11 21 35 
24 34 72 100 106 109 94 78 86 98 83 72 29 43 56 54 66 129 127 16 
21 66 38 21 43 18 19 24 1 1 8 15 17 39 35 94 110 94 69 77 
100 104 84 78 55 43 29 18 30 37 34 56 96 93 16 4 8 35 26 4 
5 6 10 13 18 36 34 61 62 42 35 76 101 106 86 81 85 46 52 53 
97 99 81 143 115 40 21 8 3 7 8 4 2 5 9 21 10 50 48 72 
42 84 79 86 101 109 87 92 106 68 61 57 80 82 70 124 119 39 20 10 
3 5 10 8 1 10 14 35 58 91 74 73 65 89 116 119 110 112 92 109 
116 66 65 41 77 64 63 91 82 39 17 13 2 4 2 6 6 1 51 69 
73 87 62 71 64 80 116 127 125 124 99 125 117 90 77 30 70 65 62 86 
83 49 20 13 2 0 0 0 0 52 95 74 73 79 81 99 83 69 111 135 
138 132 113 131 100 74 38 55 64 66 68 88 67 54 26 14 2 0 0 1 
18 92 90 77 74 69 61 59 43 66 83 125 135 132 132 107 57 55 41 48 
91 83 87 105 78 57 55 14 3 0 0 2 50 76 114 86 71 92 104 83 
70 96 96 55 111 131 122 67 69 49 72 97 105 77 95 117 71 88 59 15 
