P2 
32 30
156
10 45 19 25 58 45 52 45 44 42 40 38 36 34 32 30 28 26 27 28 
24 27 25 23 27 28 29 30 32 33 35 36 38 41 6 4 46 3 22 46 
43 42 40 39 37 35 33 32 30 27 29 30 26 29 27 25 29 30 31 32 
33 34 36 37 38 47 18 14 44 5 21 46 43 43 41 40 38 36 35 34 
32 30 31 33 28 31 29 27 32 33 33 34 35 36 38 39 39 26 25 29 
33 29 39 46 44 43 42 41 39 37 34 34 32 29 28 33 30 33 31 30 
34 34 36 36 37 38 40 40 40 29 29 35 46 35 30 26 27 39 42 41 
38 33 25 20 16 3 2 8 18 32 32 31 35 36 37 37 38 39 40 40 
40 13 20 16 42 27 41 51 44 38 45 47 30 8 1 0 0 0 0 0 
1 18 33 33 37 37 38 38 39 40 40 40 41 2 23 15 37 2 22 13 
28 24 34 5 3 1 0 0 0 0 0 1 1 3 32 34 39 39 39 39 
40 41 41 41 41 2 40 29 37 7 17 6 17 8 4 1 1 0 0 0 
5 2 0 1 1 0 16 34 39 40 40 41 41 41 42 42 42 5 28 7 
37 29 43 35 37 9 2 1 0 0 0 1 18 12 1 0 1 1 4 27 
40 41 41 39 42 41 38 37 31 29 40 20 30 5 34 9 27 37 13 0 
0 2 5 7 47 51 12 2 0 1 0 9 34 32 29 25 32 32 35 31 
33 29 26 20 33 3 29 2 21 24 8 0 0 2 8 22 73 94 38 7 
1 1 0 1 30 37 22 16 9 13 5 10 31 17 19 40 51 20 34 19 
27 15 1 0 0 2 17 35 83 122 79 14 1 0 0 2 37 33 35 38 
30 5 14 27 40 58 42 14 16 16 29 13 40 18 0 1 1 29 91 104 
101 108 89 98 37 1 0 11 37 36 42 41 26 1 27 42 43 3 31 8 
15 6 28 5 33 36 10 0 9 74 83 63 104 113 88 57 59 15 0 24 
34 42 43 39 15 1 15 40 43 32 44 12 23 23 39 14 33 36 9 0 
42 109 125 121 121 108 109 115 91 26 4 31 30 25 19 12 7 0 5 29 
44 1 40 42 39 43 39 36 35 32 8 12 46 114 141 136 119 116 96 136 
104 27 10 26 10 5 3 10 13 9 14 28 38 0 22 7 21 39 5 2 
2 2 1 22 57 109 144 132 107 127 84 120 106 24 14 23 5 0 0 13 
22 45 58 46 33 17 24 11 21 37 10 3 3 3 3 20 60 101 125 119 
100 87 76 101 94 23 47 30 2 0 1 17 8 32 20 25 25 8 15 15 
19 33 12 2 2 1 2 30 9 95 118 118 114 105 79 96 77 31 61 21 
0 0 4 15 15 26 16 25 17 5 20 6 15 29 12 0 0 0 0 31 
22 67 115 107 94 119 69 92 60 30 58 11 0 0 7 10 34 24 18 25 
16 13 18 9 12 25 12 0 0 0 0 30 33 53 93 108 103 105 76 74 
39 35 54 16 24 19 21 9 30 27 24 29 17 9 9 3 9 22 23 20 
23 24 26 32 39 44 70 94 99 85 82 60 42 70 50 88 140 87 16 45 
46 44 31 49 18 19 12 1 2 9 16 19 45 7 6 34 50 56 75 68 
98 101 77 60 28 25 16 45 42 35 71 97 68 6 3 13 10 19 6 1 
3 6 11 16 38 46 68 69 65 66 87 79 62 58 65 66 26 35 54 117 
75 101 137 78 32 19 5 1 0 8 1 0 1 5 32 46 68 90 74 64 
73 80 105 105 89 82 83 71 52 40 53 98 73 99 142 86 28 18 6 1 
0 6 2 0 8 30 96 78 68 91 63 65 73 86 113 115 112 105 92 88 
75 55 44 56 65 89 136 84 24 17 6 0 0 4 4 2 9 76 94 76 
52 76 79 88 89 67 119 124 123 121 98 111 87 70 32 52 46 80 85 71 
22 18 7 0 0 0 0 0 33 63 105 97 69 87 70 65 52 62 89 132 
131 126 111 105 72 54 43 52 47 72 78 53 24 18 7 0 0 0 0 1 
76 85 88 106 64 82 96 91 68 82 88 73 123 123 114 65 53 40 31 74 
57 75 68 48 38 18 8 1 0 1 2 17 95 86 85 89 61 64 94 83 
53 63 81 62 100 119 79 47 47 58 84 99 69 94 69 56 59 22 9 1 
