P2 
32 30
155
10 7 30 18 14 49 36 44 43 40 38 37 35 33 30 29 27 25 24 23 
27 21 25 22 20 23 24 25 25 27 28 29 31 2 25 17 2 39 7 3 
46 39 38 36 35 33 32 30 29 28 25 24 27 22 26 25 22 26 26 26 
27 28 29 30 32 30 36 27 14 37 8 5 44 39 38 37 36 34 33 31 
30 27 25 23 26 21 26 26 24 27 28 28 29 30 30 32 33 26 23 20 
22 26 26 28 41 39 39 38 36 35 34 32 30 25 21 18 20 12 16 26 
25 28 29 30 30 31 33 34 34 23 23 29 25 43 36 32 23 22 29 38 
37 36 35 33 27 15 7 7 3 3 5 20 27 30 31 32 32 33 34 34 
34 9 7 20 14 29 20 28 44 49 28 39 41 43 32 34 14 2 0 0 
0 0 0 8 26 31 32 33 33 33 34 34 34 13 0 20 11 28 7 12 
12 17 21 24 11 17 2 3 2 0 10 39 50 25 4 0 6 26 33 34 
34 34 35 35 36 10 0 29 27 35 11 10 10 8 15 3 4 12 5 4 
0 22 72 95 105 85 42 7 0 5 30 35 35 36 36 37 37 10 4 28 
6 25 24 31 40 40 18 2 31 38 22 1 2 69 71 89 102 81 62 50 
1 1 20 35 36 34 35 32 29 12 23 37 23 26 8 14 18 14 33 47 
29 20 8 1 22 98 109 96 92 74 82 78 15 0 5 24 20 26 28 29 
29 30 29 20 17 27 7 12 15 9 24 21 15 0 1 0 61 122 121 101 
97 78 101 105 41 0 1 17 15 2 8 3 5 39 30 13 30 47 23 22 
24 20 26 6 12 17 1 2 87 126 119 103 106 93 81 111 63 0 0 19 
35 35 9 7 23 22 42 46 18 7 18 17 19 26 29 3 26 39 1 9 
92 124 121 103 113 97 82 97 72 1 0 29 36 28 3 11 36 17 4 18 
11 4 11 10 20 17 32 45 42 15 0 7 87 121 127 124 121 111 95 93 
68 1 2 34 35 20 1 5 26 33 34 39 19 16 27 30 26 23 33 42 
33 1 0 20 77 116 127 123 121 114 95 90 64 5 5 17 8 5 3 1 
15 26 7 22 34 33 33 33 29 28 26 26 33 2 0 55 70 103 111 118 
126 118 88 76 54 36 1 2 4 13 11 13 19 11 0 17 3 14 27 16 
0 1 1 0 28 38 6 33 46 77 84 86 95 86 58 56 31 11 0 0 
6 15 31 57 38 15 17 22 4 14 23 19 0 0 1 0 24 8 2 0 
43 77 82 96 105 89 63 56 18 0 0 0 9 7 25 19 22 15 7 5 
13 11 19 18 0 0 0 0 20 7 5 1 42 100 98 102 106 89 68 69 
18 0 0 0 12 10 26 11 21 16 5 14 8 9 15 17 0 0 0 0 
18 32 40 13 50 109 113 113 119 102 76 76 21 1 1 2 13 17 29 14 
23 11 10 10 9 5 11 14 0 0 0 0 17 27 25 36 66 113 115 111 
122 106 78 80 25 23 28 19 11 17 35 21 32 5 8 9 2 3 9 16 
14 20 23 24 27 29 32 77 67 115 119 106 110 97 82 85 64 120 118 13 
18 61 37 21 43 13 13 19 0 0 2 6 7 29 15 1 33 63 67 83 
64 118 125 118 116 99 94 83 35 43 29 50 89 87 14 3 7 30 21 3 
3 1 1 4 10 25 34 53 88 82 65 84 69 118 126 121 116 97 100 76 
29 48 70 137 107 35 18 7 1 5 5 1 0 0 0 6 14 75 70 73 
83 58 67 80 63 117 120 120 114 103 99 78 54 54 56 76 99 33 17 8 
1 2 5 4 0 2 3 25 90 86 69 63 72 77 89 96 64 101 124 123 
116 108 96 95 67 63 39 53 61 47 21 11 1 2 1 1 3 0 2 49 
89 92 76 66 75 67 46 39 46 83 129 130 124 114 106 99 82 72 31 51 
42 64 75 23 1 0 0 0 0 0 24 66 88 112 95 57 89 90 72 60 
75 75 85 128 128 120 109 76 56 13 32 46 40 67 80 46 7 0 0 0 
1 0 70 85 82 111 81 53 84 105 78 63 88 93 58 103 125 124 74 55 
46 44 49 71 49 81 72 43 33 0 0 1 3 16 92 84 86 83 82 48 
69 90 55 52 74 75 73 68 126 93 48 59 48 69 84 82 73 93 89 51 
