P2 
32 30
157
10 8 31 19 15 52 38 46 45 41 40 38 36 34 32 30 28 26 24 23 
28 21 26 23 21 25 26 26 27 29 30 31 33 2 26 18 3 41 7 4 
48 41 40 38 37 35 33 31 30 27 25 24 29 22 27 25 23 26 28 28 
29 30 31 32 33 32 38 28 15 39 8 6 47 41 40 39 37 35 34 33 
30 28 23 21 24 18 20 22 23 26 29 30 31 32 33 34 36 27 25 22 
23 28 27 30 43 41 41 39 38 36 27 14 12 11 4 2 5 3 1 1 
3 13 25 31 32 33 34 35 36 24 24 30 26 44 37 33 23 22 30 39 
38 35 12 1 0 0 0 0 0 0 0 0 0 1 5 23 32 34 35 36 
36 10 8 21 15 30 21 30 46 51 29 41 43 40 2 0 0 0 0 0 
0 0 0 0 0 0 0 7 27 34 36 36 36 14 1 21 11 30 7 13 
13 18 22 25 12 8 0 0 0 0 0 0 0 0 0 0 0 0 0 2 
20 32 37 37 38 11 0 31 29 36 12 10 10 8 15 2 3 0 0 0 
0 0 0 0 0 0 0 0 0 0 0 0 12 26 37 38 39 11 4 29 
6 26 25 32 41 41 18 2 28 3 0 0 0 0 0 0 0 0 3 3 
1 0 0 0 7 19 35 33 30 13 26 41 25 27 9 15 19 15 35 50 
27 0 0 0 1 0 0 0 0 0 3 9 5 2 1 0 1 13 31 32 
33 33 32 22 19 29 7 13 16 10 25 22 16 0 0 1 1 1 0 1 
1 2 5 23 14 18 16 1 0 1 9 4 6 41 33 14 33 50 25 24 
25 22 28 7 9 0 0 1 6 6 1 1 4 11 22 35 21 38 50 1 
0 27 11 8 26 24 44 48 19 8 19 18 20 28 30 3 25 2 0 2 
2 2 1 1 9 28 90 110 81 59 45 4 4 26 3 12 39 18 5 20 
11 4 12 11 21 19 34 48 44 2 0 9 5 4 5 61 98 122 118 87 
48 88 57 29 28 22 1 5 29 35 37 42 20 16 29 32 27 24 35 43 
35 1 1 29 29 17 27 92 130 142 140 111 83 116 52 16 10 6 3 1 
16 28 8 24 35 35 34 35 30 29 27 27 34 2 0 50 53 55 52 108 
135 144 142 110 99 128 95 2 4 14 11 14 20 14 0 20 4 16 30 17 
1 1 1 1 29 22 0 19 100 111 84 111 131 135 134 115 103 122 115 4 
7 16 32 59 41 19 22 28 6 18 28 21 0 1 1 1 26 7 0 1 
63 95 100 114 127 131 132 116 97 114 94 7 10 8 27 22 26 20 11 6 
17 16 25 23 0 1 1 0 21 8 0 5 52 85 89 106 125 133 130 116 
105 100 40 0 14 11 28 12 24 18 6 16 11 13 21 23 0 0 0 0 
19 34 17 6 69 92 86 106 121 129 129 118 112 99 28 3 15 18 32 16 
26 12 11 12 12 9 18 23 0 0 0 0 18 30 22 44 95 100 76 98 
114 121 122 106 79 57 35 22 13 19 38 25 37 6 10 11 4 5 15 27 
20 24 25 26 29 45 25 80 98 106 89 81 103 111 106 93 98 83 121 15 
20 64 39 24 52 15 14 20 1 0 4 12 13 35 17 1 19 71 60 93 
103 111 107 88 84 98 101 89 73 35 32 53 92 90 15 4 9 32 23 3 
3 2 4 8 14 31 43 61 75 73 92 98 108 111 111 104 77 71 86 91 
67 91 77 141 111 38 20 9 3 6 6 2 0 1 2 16 18 68 91 93 
77 75 101 105 111 114 106 92 58 18 16 39 45 69 71 132 116 37 20 11 
3 3 6 4 0 5 14 60 68 89 93 70 72 72 105 114 110 110 107 83 
74 59 44 51 40 55 70 71 92 36 16 13 2 2 1 2 3 5 78 85 
73 81 97 63 69 70 94 126 109 107 101 92 98 80 56 59 37 62 70 57 
83 76 23 13 2 0 0 0 0 64 101 79 62 66 95 81 88 70 69 128 
118 112 107 113 100 95 75 73 28 48 55 52 84 66 57 15 2 0 0 1 
21 72 99 82 69 67 86 62 87 65 66 98 138 126 123 122 109 99 78 82 
45 45 57 55 76 80 57 32 3 0 0 1 54 65 110 95 81 68 98 85 
60 45 63 76 120 136 128 119 110 72 60 29 28 57 69 67 87 66 50 59 
