P2 
32 30
153
10 38 39 41 43 44 45 45 46 46 47 47 47 47 46 46 45 44 42 40 
39 37 36 35 34 34 34 35 36 38 40 41 44 38 40 41 43 44 45 46 
46 47 47 47 47 47 46 46 46 44 43 42 40 39 37 36 36 35 35 36 
36 38 40 42 44 37 38 40 41 42 43 44 45 45 45 45 45 45 45 45 
44 44 42 41 40 38 37 36 35 34 35 35 36 37 39 40 42 37 38 40 
41 42 43 44 44 45 45 46 45 45 45 45 44 44 43 41 40 39 37 37 
36 35 35 35 36 37 38 40 41 38 39 40 41 43 44 44 45 45 45 46 
46 46 46 45 45 44 43 42 41 40 38 38 37 36 36 36 37 38 38 39 
40 38 39 40 41 42 43 44 44 44 45 45 45 45 45 45 44 43 43 42 
41 40 39 38 37 37 37 36 36 37 38 39 40 39 40 41 42 42 43 44 
44 44 45 45 45 45 45 45 44 40 41 42 41 40 39 38 38 37 37 37 
37 37 37 38 39 27 30 33 35 38 40 43 44 45 45 45 45 45 45 42 
32 16 24 34 39 40 39 39 38 38 37 37 37 44 41 39 39 23 24 22 
23 20 19 17 19 21 24 26 43 45 38 22 8 9 12 17 26 38 40 39 
38 38 38 37 36 28 10 36 35 32 33 33 35 34 34 33 32 30 29 20 
41 40 21 21 66 88 65 20 27 33 39 39 39 41 40 37 36 31 2 23 
32 33 34 35 36 36 36 37 38 37 37 24 41 21 30 32 35 67 38 33 
21 21 37 39 42 47 46 28 27 30 25 30 30 33 35 35 36 37 38 39 
39 39 39 25 38 7 12 6 68 101 6 7 27 9 23 38 44 48 48 25 
23 35 37 27 24 33 34 34 35 38 39 39 40 40 40 25 29 16 63 39 
81 89 80 37 68 25 15 30 44 48 50 26 12 21 10 28 8 35 35 36 
37 38 38 39 39 39 39 25 23 42 100 102 105 108 104 108 100 43 12 28 
43 48 49 26 8 11 2 22 7 34 35 35 36 38 38 39 39 39 40 22 
19 60 114 107 106 105 109 114 113 65 11 31 44 48 50 28 7 10 8 17 
5 33 35 36 37 37 38 39 39 39 40 26 21 83 114 114 116 117 114 114 
119 86 12 29 44 48 53 36 18 22 15 2 0 35 35 36 37 38 38 39 
39 40 40 25 23 99 116 116 112 113 119 118 119 99 32 31 43 47 52 17 
17 9 0 0 12 34 35 36 37 37 38 39 39 39 40 25 48 107 111 94 
87 88 93 107 114 107 80 31 43 46 42 1 8 3 0 1 34 36 36 36 
37 38 39 39 40 40 40 26 68 102 94 87 92 93 90 99 107 98 87 36 
46 45 41 10 3 0 0 19 48 36 36 37 38 38 39 39 40 40 41 27 
55 62 93 96 95 105 103 108 99 65 46 42 46 49 44 53 29 3 0 24 
43 36 36 37 37 37 38 38 39 39 40 26 42 43 92 98 101 115 114 114 
107 73 16 45 45 49 42 39 23 28 27 33 29 36 35 36 36 37 37 38 
38 38 38 23 40 24 91 105 111 128 123 118 111 67 26 45 42 45 44 33 
36 31 43 44 29 36 35 35 36 36 37 37 38 37 36 20 37 21 90 113 
120 137 128 121 113 81 25 47 43 43 44 30 33 27 35 35 28 39 35 35 
35 36 35 36 34 36 48 45 44 24 97 114 118 133 129 123 115 96 32 43 
41 31 40 30 16 19 31 28 18 40 33 32 36 36 30 31 27 32 33 48 
45 37 102 114 116 119 125 121 116 106 26 9 3 1 26 17 21 22 30 22 
12 42 33 32 36 36 28 28 24 32 43 91 71 30 101 116 116 119 121 120 
120 113 54 18 20 19 25 22 18 21 38 15 5 41 34 32 35 36 27 27 
21 30 33 34 22 18 59 115 115 117 120 123 124 94 24 22 23 29 30 26 
9 11 28 23 2 33 35 31 35 36 26 25 25 27 22 17 17 16 16 43 
83 102 105 95 58 22 18 26 33 34 32 28 27 19 4 14 8 20 31 30 
34 34 26 27 26 28 27 25 17 16 15 14 15 16 17 20 18 19 22 28 
31 31 27 25 24 26 13 1 1 20 31 30 33 34 25 20 24 27 26 26 
25 21 17 13 13 15 16 17 19 22 25 27 29 27 23 23 21 21 22 3 
