P2 
32 30
155
10 40 42 43 45 46 47 48 49 49 50 50 50 49 49 48 47 46 44 43 
41 40 38 37 37 37 37 37 39 40 42 44 46 41 42 44 45 47 47 48 
49 49 49 49 49 49 49 48 48 46 45 44 43 41 40 39 38 38 38 38 
39 41 43 45 46 41 43 44 45 46 47 48 49 49 49 49 49 49 49 48 
48 47 46 45 44 42 41 40 40 39 39 39 40 41 42 45 46 40 41 43 
44 45 46 47 47 47 48 48 48 47 47 47 47 45 45 44 43 42 40 40 
39 38 38 38 39 40 41 42 44 40 41 43 44 45 46 46 47 47 48 48 
48 48 47 47 46 46 45 44 43 42 41 40 39 39 38 38 39 40 41 42 
43 40 42 43 44 45 46 46 47 47 47 48 48 47 47 47 47 46 44 42 
43 42 42 41 40 39 39 39 39 40 40 41 42 41 42 43 44 45 45 46 
46 47 47 47 47 47 47 47 42 36 23 20 27 27 28 34 37 38 39 39 
39 39 40 41 41 29 32 35 37 40 42 45 47 47 47 47 47 47 46 37 
23 14 15 13 16 9 6 16 21 34 40 39 39 47 44 41 42 25 25 24 
24 22 20 19 21 23 26 28 45 46 33 12 5 6 16 10 10 8 6 7 
6 23 40 40 39 30 12 39 37 34 35 35 38 36 36 35 34 32 31 21 
43 37 10 5 5 6 13 14 8 7 16 10 11 12 35 40 39 33 3 26 
34 36 36 37 38 38 38 39 40 39 40 26 41 12 4 11 10 10 10 17 
12 16 19 32 37 16 35 30 30 32 28 32 32 35 37 37 38 39 40 40 
41 41 41 27 19 9 17 17 13 12 6 22 45 20 41 106 105 36 37 27 
24 36 38 29 26 34 36 36 37 40 41 41 42 42 42 26 9 11 13 14 
10 11 18 25 51 39 44 54 102 45 49 28 14 23 13 30 9 38 38 39 
39 40 41 41 42 42 42 24 11 6 9 14 50 29 11 66 105 71 35 13 
16 71 52 29 10 13 3 25 9 36 38 37 38 40 40 41 41 41 42 22 
6 13 8 65 110 83 53 110 128 75 32 9 3 24 46 31 9 12 9 36 
16 36 37 38 39 40 40 41 41 42 42 27 9 12 13 86 127 113 105 125 
127 92 39 2 16 50 44 39 20 26 41 35 15 38 38 39 40 40 41 42 
42 43 43 27 11 2 12 105 128 126 132 129 128 128 93 41 72 87 65 19 
20 16 6 29 10 37 38 38 39 40 41 41 42 42 43 27 21 2 13 106 
126 130 128 126 126 129 130 124 105 104 81 2 9 21 5 30 7 37 38 38 
39 39 40 41 42 42 42 27 28 1 10 91 117 102 120 124 123 125 129 128 
103 76 48 11 9 34 18 19 40 38 39 39 39 40 41 41 42 43 43 29 
33 0 4 95 118 108 111 122 122 124 129 127 116 82 47 56 34 13 18 3 
1 39 39 39 39 40 41 41 42 43 43 28 41 1 9 96 109 96 97 103 
112 118 124 114 95 66 46 42 27 20 24 14 1 39 38 38 39 39 40 40 
41 41 42 27 43 13 53 104 112 98 100 89 101 112 118 119 110 56 48 35 
39 39 31 34 36 39 38 37 38 39 39 40 40 40 41 26 44 41 82 110 
119 118 106 95 88 102 120 128 120 50 47 33 36 36 33 35 29 41 37 37 
38 38 37 39 36 38 52 49 51 51 101 110 117 123 119 107 92 81 80 97 
85 35 43 33 21 26 1 1 1 43 36 35 38 39 32 33 30 36 35 50 
46 33 109 111 118 126 129 132 102 39 24 18 14 4 29 16 22 26 0 0 
0 45 36 35 39 38 30 30 26 34 46 83 34 25 100 109 116 124 121 123 
108 54 24 20 20 20 22 12 20 27 0 0 0 43 36 34 38 38 29 29 
23 29 26 22 20 16 34 100 115 126 120 108 115 52 21 23 23 25 26 20 
19 27 1 0 0 36 38 34 38 38 29 29 30 27 20 18 17 17 17 27 
75 101 89 66 34 19 20 24 28 29 30 29 31 29 6 5 5 22 34 33 
37 37 30 26 25 29 27 24 18 16 16 15 17 19 20 19 18 21 25 29 
33 30 26 25 26 29 26 22 20 23 34 33 36 35 22 20 25 28 27 25 
24 22 16 14 14 16 18 20 22 24 27 30 30 26 25 22 22 22 23 9 
