P2 
32 30
154
10 39 41 43 45 45 46 47 48 48 49 49 49 48 48 47 47 45 44 42 
40 39 37 36 36 35 35 36 38 39 42 43 45 40 41 43 44 46 47 48 
48 48 48 48 49 48 47 47 47 46 44 43 42 40 39 38 37 36 36 37 
38 40 42 43 45 40 41 43 44 45 46 47 47 48 48 48 48 47 48 47 
47 46 44 43 42 41 39 38 37 37 37 37 38 40 41 43 44 39 41 42 
43 44 45 46 47 47 48 48 48 47 47 47 46 45 44 43 42 41 40 39 
38 38 37 38 38 40 40 42 43 41 42 43 45 46 47 47 48 48 49 49 
49 49 48 47 47 44 35 40 43 43 42 41 40 39 39 39 40 41 42 43 
44 41 42 43 44 46 46 46 47 48 48 48 48 48 45 40 32 25 16 22 
41 43 42 41 40 40 40 39 39 40 41 42 43 41 42 43 44 45 45 46 
46 47 47 47 47 44 23 17 10 17 4 6 26 37 41 41 40 39 39 39 
39 39 40 41 41 29 32 35 37 40 42 45 47 47 47 47 46 29 12 7 
9 14 3 11 11 20 25 37 40 40 39 39 39 47 43 41 41 25 25 24 
24 22 20 19 21 23 26 27 33 18 10 7 13 19 20 35 22 25 15 27 
41 40 40 39 38 29 12 39 37 34 34 35 38 36 36 35 34 31 30 20 
25 21 14 14 27 38 66 63 57 30 18 24 35 44 43 40 38 32 3 25 
33 35 36 36 38 38 38 39 40 39 40 25 13 18 12 33 82 101 106 98 
99 50 24 22 34 48 48 30 29 31 27 30 31 35 36 37 38 39 40 41 
41 41 42 27 5 8 22 95 117 113 117 117 117 100 16 5 36 50 50 26 
24 36 38 28 25 33 35 35 37 39 40 41 41 42 42 26 7 12 45 110 
123 126 126 115 99 92 25 6 44 49 52 26 13 23 11 28 9 37 37 38 
38 39 40 41 41 41 41 26 18 19 11 2 16 83 54 4 1 8 17 10 
45 51 51 28 9 12 2 24 8 36 37 37 38 39 40 41 41 41 42 23 
37 13 12 0 0 36 20 0 1 12 35 46 46 51 53 30 8 11 9 36 
16 36 37 38 39 40 40 41 41 42 42 27 53 35 14 0 4 97 62 1 
2 20 83 75 47 52 56 38 20 26 41 34 15 38 38 39 40 40 41 41 
42 42 42 27 49 93 40 5 29 117 104 14 15 65 104 75 47 51 55 19 
20 16 5 28 10 37 38 39 39 40 40 41 41 42 42 27 49 115 113 84 
87 88 91 87 99 117 113 89 46 49 45 1 9 21 4 30 7 38 38 39 
40 40 40 41 42 42 42 27 46 96 112 93 104 95 103 111 106 120 107 68 
49 47 43 11 9 34 18 20 39 38 39 39 39 40 41 41 42 42 42 28 
46 63 107 94 54 84 78 80 113 121 79 47 49 51 46 55 34 13 18 3 
1 38 38 38 38 39 40 40 40 41 41 27 44 50 98 97 70 106 106 83 
108 117 63 47 46 51 44 40 24 18 22 10 0 38 37 37 38 38 39 39 
39 40 40 25 43 45 75 104 97 89 95 110 111 105 46 47 44 47 45 33 
37 38 29 30 33 39 37 37 37 38 38 39 39 39 40 24 43 45 60 100 
110 112 115 117 109 99 44 49 45 45 46 32 36 35 31 34 29 41 37 37 
37 38 37 38 36 37 51 49 51 50 58 98 87 61 60 85 103 103 36 45 
43 33 42 33 20 25 1 1 1 43 36 35 39 38 31 33 29 35 33 46 
44 43 31 110 101 65 43 91 117 113 45 11 3 2 28 15 21 26 0 0 
0 45 36 35 39 38 30 30 25 33 44 90 80 34 39 111 113 115 109 117 
120 116 71 24 18 20 21 11 20 26 0 0 0 43 36 34 38 38 29 29 
23 31 39 46 24 19 22 99 116 114 112 118 123 100 27 23 25 25 25 21 
21 26 1 0 0 36 38 34 37 38 29 27 25 26 23 17 17 18 17 24 
65 84 89 83 54 21 20 25 34 35 31 27 29 32 6 5 5 22 33 33 
36 36 28 28 24 27 29 27 20 16 16 14 16 17 18 20 19 21 24 30 
33 32 27 26 25 27 29 22 19 23 34 33 36 36 29 20 22 27 28 27 
26 23 18 16 14 16 16 17 22 23 26 29 30 28 24 24 23 21 25 17 
