P2 
32 30
151
10 38 40 42 43 44 45 46 47 48 48 49 49 48 47 46 46 44 42 41 
39 37 36 35 35 34 34 35 37 38 40 42 44 39 41 42 44 45 46 47 
47 48 48 49 49 48 48 47 46 45 44 42 40 39 38 37 36 36 36 37 
37 39 41 43 45 39 41 42 44 44 46 47 48 48 48 48 48 48 48 47 
46 45 44 43 41 40 38 38 37 37 36 37 38 39 41 42 44 40 41 42 
43 44 45 46 47 47 48 48 48 48 47 46 46 45 44 43 41 40 39 39 
38 37 37 37 38 39 40 42 43 40 41 43 44 44 45 46 47 47 48 48 
48 48 47 47 46 45 44 43 42 41 40 39 38 38 38 38 38 40 40 41 
43 40 42 43 44 45 45 46 47 47 47 46 47 47 47 46 46 45 45 44 
42 41 40 40 39 39 39 38 39 39 40 41 41 40 41 42 42 43 44 44 
45 45 43 40 36 33 33 34 38 36 38 41 41 40 39 38 38 37 37 37 
37 37 38 39 39 28 31 33 36 38 41 43 45 45 37 22 18 13 11 11 
11 13 17 21 35 40 40 39 38 38 38 37 37 44 41 39 39 24 25 23 
23 22 20 18 20 23 19 14 7 6 9 13 13 9 13 10 14 32 40 40 
39 39 38 38 37 29 11 38 35 33 34 34 37 35 35 34 33 26 17 23 
33 20 7 13 15 10 15 12 10 8 30 40 40 42 41 38 37 32 2 24 
32 35 36 36 37 37 38 38 39 21 15 69 93 56 15 10 11 12 11 15 
14 8 10 37 43 48 47 29 28 31 26 30 31 35 36 37 38 39 39 40 
40 25 48 112 117 109 47 11 10 5 7 15 18 23 9 26 44 49 49 26 
23 35 37 28 24 33 35 35 37 39 40 40 40 37 70 84 86 95 59 13 
14 10 7 8 16 19 22 28 44 48 51 26 12 22 11 28 9 37 37 38 
39 40 40 40 41 41 36 7 17 60 71 26 10 9 41 10 6 5 18 16 
42 50 50 27 9 12 2 23 8 36 37 37 38 40 40 40 41 32 12 9 
24 121 125 82 36 76 95 63 3 8 10 15 33 50 52 29 7 7 1 31 
16 35 37 38 39 40 40 41 41 41 28 6 36 123 124 116 110 123 118 80 
6 8 5 8 36 50 52 19 3 7 1 11 14 38 38 39 40 41 41 42 
43 88 69 31 110 128 123 122 123 96 124 58 12 6 15 9 35 49 41 10 
40 46 9 0 3 37 38 38 40 40 40 41 53 110 104 117 130 125 121 122 
124 124 127 69 11 3 10 20 37 48 26 40 66 59 36 1 0 37 38 38 
39 39 40 41 44 60 99 113 122 122 121 122 118 102 117 83 9 1 9 23 
45 45 24 56 72 61 43 5 0 37 38 38 39 39 40 41 41 43 89 82 
115 115 117 121 117 115 128 75 9 4 6 28 46 49 33 42 56 36 41 13 
10 37 37 38 38 39 39 39 39 43 92 108 106 108 109 113 106 107 119 95 
19 8 3 39 45 50 42 31 56 52 54 26 26 37 37 37 37 38 38 38 
37 38 89 118 110 105 100 97 104 111 118 116 84 12 8 44 43 46 44 42 
51 62 48 20 24 38 37 37 38 38 37 36 35 35 94 122 120 108 96 101 
113 113 119 114 117 48 28 47 44 44 45 37 25 49 39 17 17 42 38 37 
38 38 36 34 32 37 76 107 102 96 105 114 118 117 119 115 117 91 36 44 
43 33 42 34 27 36 30 14 4 42 36 35 38 38 31 31 28 34 35 60 
54 61 97 122 125 119 116 114 116 112 34 14 5 3 27 17 29 41 17 10 
4 44 35 34 38 38 30 30 26 32 42 93 73 35 62 114 121 120 115 112 
114 118 80 25 18 17 19 14 12 12 7 15 4 43 35 34 37 38 29 28 
23 30 32 33 21 17 53 109 108 116 115 113 118 107 31 22 24 25 31 27 
15 17 35 34 3 35 36 33 37 37 28 27 25 23 19 13 16 16 18 54 
87 110 116 107 73 25 17 25 31 35 33 29 29 26 13 30 3 22 32 32 
36 35 28 29 26 26 23 18 12 14 17 15 14 21 27 19 17 18 22 29 
33 32 27 25 24 25 23 5 1 22 33 32 35 35 29 20 23 27 28 27 
24 16 15 15 14 16 16 17 19 23 26 28 29 28 24 24 23 22 24 13 
