P2 
32 30
152
10 37 38 40 42 43 44 44 45 46 46 47 47 46 46 45 44 43 42 40 
38 37 35 34 33 33 34 34 35 37 39 41 42 38 39 41 42 44 45 45 
46 46 46 46 46 46 46 45 45 44 43 41 40 38 37 36 35 35 35 36 
36 38 40 41 43 38 39 40 42 43 44 45 45 46 46 46 46 46 45 45 
45 44 43 42 40 39 37 37 36 35 35 36 36 37 39 41 42 38 39 40 
41 42 43 44 45 45 46 46 45 45 45 45 44 44 43 42 41 39 38 37 
36 36 36 36 36 38 39 40 41 37 39 40 41 42 43 44 44 45 45 45 
45 46 45 45 44 43 42 42 41 39 38 38 37 36 36 36 36 37 38 39 
40 38 39 40 41 42 43 43 44 44 44 44 45 45 45 44 44 43 42 41 
40 39 38 38 37 36 36 36 36 36 37 38 39 39 40 40 41 42 42 43 
43 44 44 44 44 44 44 44 44 40 40 41 41 40 39 38 38 37 37 36 
36 36 37 38 38 27 30 32 34 37 40 42 44 44 44 44 44 44 45 41 
31 16 21 31 37 40 39 38 38 37 37 36 36 44 40 38 38 23 23 22 
22 20 19 17 19 21 24 26 43 44 38 21 9 7 10 16 24 37 40 39 
38 38 37 37 36 28 11 36 34 32 32 32 35 34 33 33 31 30 29 19 
40 41 22 15 58 93 73 22 26 32 38 38 39 41 40 37 35 31 2 23 
31 33 34 34 35 35 36 36 37 36 37 24 41 23 29 31 15 79 32 31 
20 15 36 38 41 46 45 28 27 29 24 29 29 33 34 35 36 37 37 38 
38 38 39 25 36 8 15 9 39 100 41 4 23 8 23 37 43 48 47 25 
23 34 36 26 23 32 33 34 35 37 38 39 39 40 40 25 29 12 72 51 
83 106 90 58 59 26 15 29 43 47 50 25 12 21 10 27 8 35 35 36 
37 38 39 39 39 39 40 25 21 34 114 108 106 109 102 114 115 56 12 27 
43 48 49 26 8 11 2 22 8 34 35 36 36 38 38 39 39 40 40 22 
19 58 121 87 104 102 105 91 122 88 12 31 44 48 50 28 7 10 9 24 
7 34 35 36 37 38 38 39 39 40 40 26 20 73 118 108 115 112 119 110 
122 107 13 30 45 49 53 36 18 24 24 4 1 35 36 37 38 38 39 39 
40 41 40 26 25 92 119 116 113 122 117 118 121 111 39 32 44 48 53 18 
18 13 0 0 9 34 35 35 36 37 37 38 39 39 39 24 51 110 119 114 
113 106 115 114 120 111 85 32 42 45 42 1 8 9 0 1 32 35 35 36 
37 37 38 38 38 39 40 25 67 101 111 101 81 78 86 107 115 105 89 38 
45 44 40 10 8 4 0 14 51 35 35 36 37 37 38 38 39 39 40 26 
47 55 89 85 75 85 83 94 100 85 33 43 45 48 42 51 31 2 2 18 
49 35 35 36 36 36 37 38 38 38 39 25 40 34 87 92 85 96 101 108 
105 84 17 45 44 49 41 38 23 21 34 30 35 36 35 35 36 36 37 37 
38 38 38 23 40 20 97 100 105 119 121 116 113 88 26 45 42 45 43 33 
35 27 44 43 38 36 35 35 36 36 36 37 38 37 37 20 37 19 101 113 
118 133 132 121 116 101 25 46 43 43 44 30 34 27 34 36 32 38 35 34 
35 35 35 36 34 35 48 46 47 26 104 114 117 131 131 123 116 110 37 42 
41 31 40 30 18 19 31 31 24 40 33 32 36 36 30 31 27 32 32 46 
44 37 107 113 115 118 124 121 115 113 32 9 3 1 26 16 21 18 32 25 
17 42 33 32 36 36 28 28 23 31 38 78 60 26 102 113 114 116 120 119 
117 113 58 18 18 16 24 22 19 19 40 17 7 40 34 32 36 36 27 27 
22 29 30 29 22 18 68 114 114 114 117 118 121 105 28 22 23 27 30 27 
10 11 27 29 4 33 35 31 35 36 27 25 25 27 22 17 16 17 17 54 
96 112 116 107 75 28 19 25 32 34 32 29 27 19 5 14 9 19 30 30 
34 34 26 27 25 28 27 25 16 16 15 13 13 19 20 19 18 18 21 27 
32 31 26 25 24 26 13 1 2 20 31 30 33 33 24 19 23 26 25 26 
25 20 15 12 13 15 15 16 18 20 24 26 28 26 23 23 21 20 22 3 
