P2 
32 30
147
10 36 38 39 41 42 43 44 44 45 45 46 46 45 45 45 44 42 41 39 
38 36 34 33 33 33 32 33 35 36 38 40 42 36 37 39 40 42 43 43 
44 44 44 44 44 45 44 44 43 42 41 40 38 36 35 34 33 33 33 34 
34 36 38 40 41 36 37 39 40 41 42 43 43 44 44 44 44 44 44 44 
43 42 41 40 39 37 36 35 34 34 34 34 35 36 37 39 40 36 37 39 
40 41 42 43 43 44 44 44 44 44 44 44 43 42 41 40 39 38 37 36 
35 34 34 34 35 36 37 38 40 36 37 38 39 41 41 42 43 43 43 44 
44 44 44 43 43 41 41 40 39 38 37 36 36 35 34 34 35 36 37 38 
38 36 38 38 39 40 41 42 42 43 43 43 44 44 44 43 40 32 39 39 
39 38 37 36 36 35 35 35 35 36 36 37 38 37 38 39 40 40 41 42 
42 43 43 43 43 43 43 38 22 8 17 30 33 39 38 37 36 36 35 35 
35 35 36 37 37 26 29 31 34 36 39 41 43 43 43 43 43 43 31 17 
5 8 11 13 28 36 38 37 37 36 36 35 36 42 39 37 37 22 22 21 
21 19 18 17 18 20 23 24 41 32 15 23 68 83 63 22 22 32 37 37 
37 36 36 35 34 26 10 35 33 30 30 31 34 32 32 32 30 28 28 18 
35 13 19 94 103 108 104 86 13 23 34 37 37 39 38 35 34 29 2 22 
29 32 33 33 34 35 35 36 36 36 36 23 19 12 49 61 83 110 67 64 
60 14 22 36 40 45 44 27 26 28 23 28 28 32 33 34 35 36 36 37 
38 38 38 25 16 31 78 60 71 91 78 62 85 26 16 29 42 46 46 24 
22 32 34 25 22 30 32 32 34 36 37 37 38 38 38 23 13 73 108 94 
94 104 98 108 103 46 15 30 42 45 48 24 11 20 9 26 7 34 34 35 
35 37 37 38 38 38 39 22 14 89 114 99 71 90 75 104 118 64 13 28 
42 47 47 25 8 10 2 21 7 33 34 34 35 36 37 38 38 39 39 20 
13 106 122 91 107 111 101 109 125 88 14 34 43 47 49 27 7 9 9 32 
15 32 33 35 36 36 37 38 38 39 39 23 13 114 119 112 107 107 116 117 
124 103 15 36 43 47 51 35 17 23 37 31 13 33 33 34 35 36 36 37 
37 38 38 23 58 119 122 111 110 112 114 116 122 110 60 37 41 45 49 15 
16 13 4 24 8 33 34 34 35 36 36 37 38 38 38 24 86 111 117 102 
73 69 90 112 119 110 73 42 41 45 40 1 8 18 3 26 6 33 34 34 
35 36 37 37 38 38 39 25 84 87 96 85 73 75 75 93 105 80 86 43 
44 43 39 10 7 30 16 17 36 33 34 34 35 36 36 37 37 38 38 25 
34 64 85 89 77 88 89 99 96 66 28 43 44 46 41 50 30 11 15 2 
0 34 34 34 35 36 36 37 37 37 38 25 38 52 91 94 89 98 102 109 
108 67 36 43 42 47 40 37 22 15 20 9 0 34 34 34 34 35 36 36 
37 37 37 23 40 35 103 106 110 119 116 115 115 70 32 43 40 44 42 31 
34 34 26 29 32 35 33 34 34 35 35 36 36 36 37 23 39 29 111 116 
119 131 122 121 119 90 39 45 41 42 42 28 32 31 28 30 25 37 33 33 
34 34 33 35 33 35 47 45 47 47 112 117 118 131 123 123 119 103 33 41 
40 30 38 29 17 22 0 0 0 38 32 31 34 34 28 30 26 31 31 46 
41 43 113 116 116 117 120 121 119 111 33 10 3 1 25 12 18 22 0 0 
0 40 32 31 35 35 27 28 23 30 41 63 29 37 113 117 114 113 117 119 
121 114 39 22 14 16 19 9 17 23 0 0 0 39 32 31 34 34 26 26 
21 26 20 18 18 20 94 116 113 112 115 118 123 80 21 22 21 29 33 24 
18 23 1 0 0 31 33 30 33 34 25 25 27 23 15 14 16 15 25 84 
108 111 114 104 59 19 18 25 31 30 29 26 27 28 5 4 4 19 30 29 
32 33 28 24 24 26 24 18 13 16 15 12 18 30 24 17 16 18 21 27 
30 29 24 24 23 25 25 18 16 20 30 29 31 29 19 20 24 25 25 24 
18 15 13 12 13 14 15 16 18 20 24 26 27 24 21 21 20 20 23 10 
