P2 
32 30
156
10 35 33 31 29 27 25 23 21 18 18 18 24 21 16 14 17 22 24 25 
26 28 30 32 34 36 37 38 39 39 40 40 40 35 34 32 30 28 26 24 
23 21 24 22 25 24 21 18 23 26 28 29 30 31 33 35 36 37 38 39 
39 40 40 41 41 37 35 33 32 29 28 27 25 24 28 26 26 27 25 23 
28 30 31 32 33 34 36 37 38 39 39 40 41 41 42 42 42 37 36 34 
33 31 30 28 27 26 30 27 27 30 29 27 31 32 33 34 35 36 36 38 
40 41 41 41 42 42 42 42 42 37 36 35 34 32 31 30 28 27 31 29 
29 31 30 29 32 34 34 36 36 38 39 39 41 41 42 41 42 42 42 42 
42 38 37 36 34 33 32 31 30 29 33 30 31 33 30 21 26 35 36 37 
38 39 40 41 41 42 42 43 42 42 42 42 42 38 37 36 35 35 34 32 
31 30 35 33 33 25 3 0 0 7 21 37 40 40 41 43 43 43 44 44 
43 43 43 43 42 39 38 37 36 35 34 33 33 32 36 33 31 10 0 0 
0 1 4 13 38 42 43 44 44 44 44 43 43 43 43 42 42 41 39 38 
37 37 37 35 34 33 36 19 3 1 3 2 0 1 4 5 11 42 43 44 
44 44 43 44 43 43 43 43 42 45 50 40 42 42 39 39 36 36 32 2 
2 19 76 63 26 13 6 6 1 30 45 45 45 45 45 45 44 45 45 44 
44 8 16 10 4 24 6 24 38 37 17 0 9 82 122 129 119 98 47 10 
4 14 45 45 45 46 46 45 45 45 45 44 44 5 7 11 11 17 0 24 
39 38 12 1 22 102 123 134 138 132 117 59 7 2 42 46 46 46 46 45 
46 46 44 45 41 28 24 29 17 29 38 42 39 38 14 1 47 84 91 124 
146 140 104 83 19 1 31 46 45 44 42 37 34 31 27 26 27 40 49 27 
13 14 25 36 37 39 14 1 53 38 42 81 139 104 48 43 44 1 20 35 
37 30 34 37 38 39 36 32 30 10 3 23 3 4 13 39 37 39 11 5 
28 61 12 64 86 36 15 75 13 5 18 39 29 35 45 45 45 42 43 22 
27 7 3 15 4 13 10 35 27 40 31 26 29 19 2 13 109 34 3 17 
16 24 21 39 26 34 46 45 45 44 40 29 26 29 31 17 1 7 5 26 
19 41 50 34 43 2 0 39 130 75 3 5 31 28 43 46 40 44 46 45 
45 44 40 27 20 42 47 45 42 38 35 40 31 41 53 64 79 80 92 105 
128 113 103 90 86 72 46 45 44 45 45 45 44 42 38 30 19 39 27 46 
34 39 30 37 38 41 44 72 69 124 145 109 116 108 141 136 82 70 44 41 
44 45 44 43 42 40 35 29 16 24 2 25 0 28 1 14 6 37 44 37 
45 113 136 110 112 111 133 133 61 36 30 12 37 45 44 42 41 39 33 26 
13 23 2 17 0 25 2 13 3 35 45 40 23 98 131 109 126 122 120 126 
35 26 33 14 29 44 44 43 41 37 30 24 11 28 34 40 40 45 40 48 
27 36 42 43 29 65 118 131 137 140 130 87 12 24 33 11 10 33 42 43 
40 35 28 22 11 26 20 34 40 35 39 39 39 38 42 39 38 52 71 118 
120 122 102 52 9 22 35 22 10 43 35 41 37 33 28 22 11 18 0 25 
23 11 6 43 38 38 40 25 35 70 58 58 62 60 67 65 7 18 33 21 
0 28 28 37 30 30 28 21 11 9 3 25 25 13 4 42 38 37 39 33 
36 80 83 92 107 106 96 80 11 15 17 19 22 9 14 15 27 30 28 22 
11 25 39 49 26 25 25 35 36 37 36 31 46 101 108 97 123 107 106 94 
33 23 27 29 28 12 0 25 49 53 51 44 22 14 15 27 29 32 34 34 
34 32 23 24 81 105 119 105 116 111 113 102 95 51 23 28 27 11 12 26 
47 47 47 41 20 16 20 29 28 32 33 33 26 18 20 22 65 110 121 108 
115 114 119 112 108 33 24 20 22 11 1 25 46 46 46 41 20 16 22 30 
29 31 26 19 19 19 20 23 22 70 116 115 110 119 119 104 41 24 19 17 
17 18 12 27 42 45 45 40 20 20 27 29 28 19 16 17 18 22 21 22 
23 25 34 66 78 79 56 26 24 24 19 20 18 18 17 19 25 44 44 40 
