P2 
32 30
156
10 36 33 31 29 27 25 24 22 18 18 19 24 21 17 15 17 22 24 25 
27 29 30 32 35 36 38 39 40 40 40 40 41 37 35 33 31 29 27 25 
24 23 25 23 26 26 22 19 24 27 29 30 31 33 34 36 38 39 40 40 
41 41 41 42 42 37 35 34 32 30 28 27 25 25 28 26 27 28 26 23 
28 30 31 32 33 34 36 37 38 39 40 41 41 42 42 43 42 37 35 34 
32 31 29 27 26 25 29 27 26 29 27 25 30 32 32 33 34 35 36 38 
39 40 40 41 41 41 41 42 42 38 36 35 34 32 31 30 29 28 32 29 
30 32 30 29 32 34 35 35 37 38 39 40 41 42 42 42 42 43 42 43 
42 38 37 36 35 34 32 32 30 29 34 31 32 33 27 23 33 36 37 37 
38 39 40 41 42 42 43 43 43 43 43 43 43 39 38 37 36 35 34 33 
32 31 36 33 31 15 0 0 2 14 30 39 40 41 42 43 44 44 44 45 
44 43 44 44 43 40 39 38 37 37 36 35 34 33 37 34 27 2 0 0 
0 3 6 26 42 43 44 45 45 45 45 44 44 44 44 44 43 42 40 39 
38 38 39 36 35 34 35 14 4 0 2 0 1 2 6 3 29 44 45 45 
45 45 44 45 45 44 44 44 43 45 50 41 42 42 39 40 36 35 21 1 
3 40 72 30 14 8 5 3 6 44 45 45 45 46 45 45 45 45 45 44 
44 8 16 10 4 24 6 24 37 36 6 1 31 105 125 121 104 74 20 5 
2 32 45 45 45 45 45 45 45 45 45 44 44 5 7 11 10 17 0 24 
38 36 1 3 56 114 127 135 135 126 97 24 2 15 45 46 46 46 46 46 
46 46 45 45 41 28 25 30 18 30 39 43 39 38 2 4 74 84 102 142 
146 117 85 51 5 5 46 47 46 45 42 38 35 32 28 27 28 40 50 27 
13 14 25 36 38 39 2 16 49 32 46 109 128 51 31 39 20 2 32 36 
37 31 35 37 39 39 36 32 30 10 3 23 3 4 13 39 38 39 3 18 
35 43 6 68 85 11 46 41 26 0 34 40 30 36 45 45 45 42 43 22 
27 8 3 16 4 13 10 35 27 40 20 38 8 10 0 53 101 6 5 4 
44 3 41 39 26 35 46 45 45 44 40 29 26 30 32 17 1 8 5 26 
19 41 41 46 16 2 9 95 130 38 7 17 63 39 47 46 40 44 46 45 
45 44 40 27 20 42 47 45 43 38 35 39 31 40 60 59 96 102 98 105 
121 101 118 128 79 71 46 45 44 45 45 44 44 41 37 28 18 39 27 46 
35 39 30 37 38 41 48 62 94 123 116 120 132 120 114 118 75 52 44 41 
44 45 45 43 42 39 34 27 15 25 2 26 0 29 1 14 7 39 46 34 
81 132 107 111 125 94 123 121 38 32 32 13 39 47 45 44 42 39 33 26 
14 24 2 18 0 26 2 13 3 36 46 36 48 130 120 119 133 114 137 111 
15 27 34 15 30 45 45 43 41 36 29 24 12 29 34 40 40 45 40 49 
27 37 42 43 31 92 127 131 144 130 129 63 9 24 34 10 9 33 42 42 
39 33 27 21 11 26 21 34 40 36 39 40 39 39 42 39 38 49 87 122 
130 122 80 36 8 22 34 22 10 42 35 41 36 31 27 21 11 19 0 25 
24 11 6 43 38 38 40 26 40 66 53 54 53 54 64 45 6 18 33 20 
0 28 27 37 30 29 27 20 11 9 2 25 25 12 4 41 38 37 38 32 
43 87 86 103 125 103 97 72 10 14 17 18 21 8 13 15 27 28 26 21 
11 25 40 50 26 24 25 35 36 36 36 31 59 110 109 103 121 111 112 95 
35 24 27 28 28 12 0 25 49 51 50 43 22 16 17 28 30 33 35 35 
35 33 25 30 94 113 121 111 124 115 118 108 106 41 25 29 28 12 12 27 
48 48 48 42 21 18 22 29 29 32 34 33 27 19 21 23 74 117 124 112 
120 121 122 120 96 27 24 20 22 12 1 26 47 47 47 41 21 17 23 31 
30 31 26 20 18 19 21 23 23 68 117 119 115 125 123 83 29 24 18 17 
17 18 13 27 43 46 45 41 20 21 27 29 28 20 16 17 18 22 21 22 
23 25 29 53 62 58 34 25 24 23 19 20 18 17 16 18 25 44 44 40 
