P2 
32 30
156
10 36 34 32 30 28 26 24 22 18 19 19 25 21 16 14 17 22 24 26 
28 29 31 33 35 37 38 40 40 41 41 41 42 37 35 33 31 29 27 26 
24 23 25 23 26 25 22 18 23 26 28 29 31 33 34 36 38 39 40 40 
41 41 42 42 43 38 36 34 32 31 29 27 26 25 28 26 26 27 25 23 
28 29 31 32 33 35 36 38 39 40 41 41 42 42 43 43 43 39 37 35 
34 32 30 29 28 27 30 28 27 30 28 26 31 32 33 34 35 37 38 39 
41 42 42 42 43 43 43 43 44 39 37 36 35 33 32 30 29 28 32 30 
30 32 31 29 33 34 35 36 38 39 40 41 42 43 43 43 43 43 43 44 
43 39 38 37 36 35 33 32 31 30 34 31 32 34 30 31 35 37 37 38 
40 41 41 42 43 43 44 44 43 44 44 44 44 40 39 38 37 36 35 34 
33 32 36 34 34 32 20 14 25 38 39 40 41 42 42 44 45 45 45 45 
45 45 45 45 44 40 39 39 38 37 36 35 34 33 37 35 32 11 1 0 
0 7 29 42 42 43 44 45 45 45 45 45 45 45 45 44 44 42 40 40 
39 39 39 36 35 34 38 34 12 1 16 26 17 1 3 32 43 44 45 45 
45 45 45 45 45 44 44 45 43 46 51 41 42 42 39 40 36 36 39 17 
1 53 102 103 99 67 6 4 38 45 45 45 45 45 45 45 45 45 45 45 
44 8 16 10 4 24 6 24 38 37 32 2 29 77 87 126 119 80 53 2 
21 45 45 46 46 46 45 45 45 46 45 44 45 5 7 11 10 17 0 24 
38 38 18 3 25 15 51 109 91 37 8 9 4 44 46 46 46 46 46 46 
47 47 45 46 41 28 24 30 18 29 38 43 39 38 8 8 28 22 6 39 
19 29 0 2 2 28 47 47 46 45 43 38 35 32 28 27 28 42 51 28 
14 15 26 37 38 40 7 10 4 3 11 95 71 7 7 14 16 14 39 37 
39 32 36 38 40 41 38 34 32 11 3 24 3 5 14 40 39 41 6 45 
53 53 86 107 109 86 72 78 39 7 43 40 30 36 46 46 46 44 44 23 
28 8 3 16 5 13 10 35 28 41 11 53 120 149 124 118 119 133 147 115 
41 6 47 39 26 34 46 46 45 44 41 29 26 31 32 18 1 8 6 27 
19 42 42 53 116 142 112 120 120 118 145 113 50 29 47 46 40 44 47 46 
46 45 39 26 20 43 49 46 44 39 35 40 32 41 73 61 96 127 117 135 
137 125 137 103 77 66 47 46 45 46 46 45 45 43 37 28 19 40 28 47 
36 40 31 38 39 42 57 68 75 106 128 140 143 137 119 89 86 56 45 42 
45 46 46 44 43 40 34 27 16 25 2 26 0 29 1 14 6 39 46 19 
47 69 97 117 118 110 98 57 16 31 31 12 39 47 46 43 41 38 32 25 
13 24 2 18 0 26 2 13 3 36 45 19 33 40 47 68 72 62 57 29 
4 27 34 15 29 46 45 44 40 34 29 24 12 29 35 41 40 46 41 49 
27 37 43 33 39 68 72 81 91 89 87 37 8 25 34 9 6 34 42 42 
37 32 27 22 11 26 21 35 41 36 39 40 39 39 43 39 52 97 100 123 
129 113 106 43 7 22 34 20 8 43 34 39 33 28 25 20 11 18 0 25 
24 12 6 43 39 38 41 26 58 109 105 134 145 115 113 50 6 18 33 19 
0 28 26 36 30 27 26 20 11 8 2 26 25 13 4 43 39 38 39 33 
56 116 106 116 132 114 117 63 11 15 18 19 21 9 13 15 28 27 26 21 
11 23 39 50 26 25 25 36 37 38 37 34 65 119 115 120 131 116 122 81 
36 24 28 29 29 12 0 25 50 51 50 44 22 13 15 28 30 34 36 36 
36 34 26 36 92 119 121 115 128 121 122 104 105 36 26 30 29 12 11 27 
49 49 49 43 22 16 20 30 30 33 35 35 29 20 22 24 82 121 125 115 
123 126 123 118 87 29 24 20 23 12 0 27 49 48 49 43 21 16 22 31 
31 33 28 22 20 21 23 25 26 74 120 122 122 126 119 74 29 25 20 19 
19 20 15 29 45 48 48 43 21 20 26 29 29 21 16 18 19 22 22 23 
23 26 29 51 59 53 31 27 25 22 20 20 18 18 17 19 26 45 45 41 
