P2 
32 30
156
10 36 34 32 30 28 26 24 22 19 19 19 25 21 17 15 17 22 24 26 
27 29 31 33 36 37 39 40 41 41 41 41 42 37 35 33 31 29 27 26 
24 23 25 23 26 25 22 18 23 27 28 30 31 33 34 36 38 39 40 40 
41 42 41 43 42 38 36 34 32 31 29 28 26 25 29 26 27 28 26 23 
28 30 31 33 34 35 37 38 39 40 41 42 42 43 43 43 43 39 37 36 
34 33 31 29 28 27 31 28 28 31 29 27 32 33 34 35 36 37 38 40 
41 43 43 43 43 44 44 44 44 39 38 37 35 34 32 31 30 28 33 30 
30 32 31 29 33 35 36 36 38 39 40 41 43 43 43 43 43 44 44 44 
44 39 37 36 35 34 33 31 30 29 34 31 31 33 30 30 34 36 36 37 
38 40 40 41 42 42 43 43 43 43 43 43 44 39 39 37 36 35 34 33 
32 31 36 33 34 32 19 15 27 38 39 39 40 41 42 43 44 44 44 45 
44 44 44 44 43 40 40 39 37 37 36 35 34 33 37 35 33 12 1 0 
0 10 32 42 42 43 44 45 45 45 45 45 45 45 44 44 44 43 41 40 
39 39 39 36 35 35 39 36 19 1 8 17 9 0 5 35 44 45 45 45 
45 46 45 46 45 45 45 45 44 46 51 41 42 42 40 40 37 36 40 23 
1 41 100 101 95 58 5 6 41 45 45 46 45 46 46 45 45 45 45 45 
44 8 16 10 4 24 6 24 38 37 32 2 20 91 102 119 118 95 56 3 
26 45 46 46 46 46 46 46 46 46 46 45 45 6 7 11 11 17 0 24 
39 39 17 1 29 29 38 109 127 48 19 14 9 47 47 47 47 47 47 47 
48 47 46 47 42 28 25 30 18 30 39 43 39 39 7 1 6 25 17 18 
38 40 0 1 1 34 47 48 47 46 43 39 36 33 29 27 29 41 50 27 
13 14 25 37 38 40 7 6 6 2 6 44 88 7 5 3 12 19 38 36 
38 31 35 38 40 40 37 33 31 11 3 24 3 5 14 40 38 41 8 31 
50 21 47 104 132 80 56 51 42 13 43 41 30 37 46 47 46 44 44 23 
28 8 3 16 5 13 10 35 27 41 14 39 103 137 140 100 111 121 145 120 
46 11 47 39 26 34 46 45 45 44 40 29 26 30 32 18 1 8 5 26 
19 42 40 42 102 138 135 110 111 117 142 118 58 38 47 46 40 44 46 45 
45 44 39 26 20 43 49 46 44 38 35 40 32 41 68 66 88 126 132 114 
138 115 138 114 79 60 47 46 45 46 46 45 45 43 37 28 19 40 28 47 
36 40 31 38 39 42 54 76 68 112 127 130 141 131 126 104 80 51 45 42 
45 46 45 44 42 39 33 25 15 24 2 25 0 29 1 14 6 38 45 30 
43 81 102 122 131 125 107 74 13 31 31 12 38 46 44 43 40 36 30 24 
13 23 2 18 0 26 2 13 2 35 45 27 29 42 50 69 76 70 58 33 
5 26 34 14 28 45 44 42 38 33 27 23 12 29 35 42 41 47 41 50 
28 38 43 41 33 71 76 79 92 87 84 49 9 26 35 10 6 35 43 42 
36 31 27 23 12 26 21 36 42 37 40 41 41 40 44 40 50 104 105 127 
142 123 107 63 8 23 36 21 8 43 35 40 33 29 26 22 12 17 0 25 
24 12 7 44 39 39 41 26 50 113 111 122 149 122 110 74 7 18 34 19 
0 28 26 36 29 27 27 20 11 7 2 25 25 13 4 42 39 38 39 33 
48 120 117 115 131 120 118 86 11 15 18 19 22 9 13 15 27 27 26 21 
11 22 38 49 26 25 25 36 37 38 36 34 59 121 129 120 140 121 127 97 
40 25 27 29 28 12 0 25 50 50 49 44 22 12 13 27 30 34 36 35 
36 34 26 28 90 120 134 116 131 122 131 109 105 40 25 29 29 12 11 27 
49 48 48 42 21 15 19 29 29 32 35 34 28 20 21 24 59 122 134 121 
124 128 130 119 80 28 23 19 22 12 0 26 48 48 48 42 21 15 21 30 
30 32 27 21 19 20 21 24 25 47 97 126 126 132 107 59 26 24 19 19 
19 19 15 28 44 47 47 42 21 20 26 29 28 20 17 17 19 22 22 22 
22 27 27 27 35 31 27 26 25 22 19 21 19 18 18 19 25 46 46 42 
