P2 
32 30
153
10 40 37 35 34 32 29 27 26 24 22 18 18 19 24 21 17 15 18 22 
24 25 27 28 29 32 33 35 37 38 38 38 39 40 38 37 35 33 31 29 
28 26 24 22 24 23 25 25 22 19 23 26 28 29 30 31 33 34 36 36 
38 38 38 39 40 40 38 37 36 34 32 31 29 27 26 25 28 26 26 27 
26 24 28 30 31 32 33 34 35 36 37 38 39 39 40 40 41 40 39 38 
36 35 33 32 31 29 27 26 30 28 26 30 28 27 30 32 33 34 35 35 
36 38 38 40 40 40 40 41 41 39 38 38 36 35 33 32 31 29 28 27 
31 29 29 31 30 28 31 33 34 35 36 37 37 38 39 39 39 40 40 40 
40 40 39 38 37 36 35 34 32 31 30 29 33 32 31 33 28 20 24 34 
36 37 37 39 39 40 41 40 41 41 41 41 41 40 40 39 38 37 36 35 
34 33 32 31 35 33 32 27 7 3 3 11 32 38 39 40 40 41 42 42 
42 42 42 42 42 41 40 39 39 38 37 36 36 35 34 33 36 35 27 8 
0 1 0 0 4 30 40 42 42 43 43 43 42 43 42 42 42 36 41 42 
40 39 39 38 40 36 35 34 38 28 3 5 52 73 64 30 1 5 35 42 
43 43 43 43 43 43 42 42 42 39 44 44 50 40 41 42 36 39 36 35 
36 7 2 64 104 108 108 100 48 2 14 43 43 43 43 43 43 42 43 43 
42 19 30 10 12 13 2 22 5 22 38 37 31 2 25 76 75 114 132 98 
71 27 4 41 44 44 44 44 43 43 44 44 43 5 2 5 4 15 10 18 
0 21 38 38 21 2 44 61 91 119 127 112 75 50 9 28 44 45 45 44 
44 44 44 44 42 5 1 29 25 32 18 27 41 45 39 39 20 2 60 87 
92 110 112 101 75 71 24 14 45 45 44 41 37 34 31 29 26 40 37 38 
47 30 13 14 22 37 37 40 21 12 87 125 123 108 119 119 122 127 49 7 
35 33 35 30 36 38 39 39 36 32 45 14 2 23 3 5 9 38 37 39 
18 24 97 138 136 101 112 122 142 126 59 6 42 36 26 30 43 43 43 41 
40 8 7 7 4 16 3 14 6 37 24 40 33 30 95 135 140 111 119 121 
144 119 54 6 45 42 30 29 43 42 42 41 37 9 6 28 34 22 2 8 
2 28 15 40 53 67 85 125 127 98 106 107 139 113 64 46 45 44 39 42 
44 43 42 41 36 18 5 38 47 46 45 40 39 41 32 40 45 76 69 113 
126 125 137 118 134 106 73 60 45 44 43 43 43 42 41 38 33 39 49 40 
24 44 31 36 27 34 36 42 41 43 46 96 117 130 139 127 118 91 57 46 
42 36 41 43 42 40 38 34 29 33 38 26 1 25 0 25 3 13 5 33 
42 31 26 56 82 109 116 111 94 50 3 23 32 10 33 44 42 40 36 32 
27 21 13 23 2 18 0 23 5 13 2 31 44 42 28 46 44 52 61 56 
54 30 7 22 36 15 25 41 43 41 35 30 26 8 14 25 35 42 42 46 
41 51 30 36 40 43 42 77 79 89 94 91 95 45 7 20 36 11 5 27 
37 39 34 28 24 6 19 23 15 32 39 36 35 41 39 38 41 38 46 102 
100 129 141 115 110 54 7 18 37 16 9 37 32 37 30 26 24 4 21 15 
0 21 24 12 2 43 38 38 39 27 42 108 101 117 138 112 116 63 6 13 
29 19 0 20 23 35 27 25 25 2 17 7 1 21 28 12 2 39 37 37 
37 33 40 111 109 113 126 118 124 81 23 17 19 19 23 12 6 11 26 28 
27 1 17 18 35 48 26 24 27 33 36 36 35 32 65 110 117 115 132 122 
127 101 94 41 24 27 27 13 1 18 47 46 46 1 16 12 12 26 31 32 
35 35 35 32 23 23 74 112 121 114 125 130 128 117 85 28 23 21 25 14 
9 20 46 45 45 14 13 14 18 28 27 31 33 30 24 20 21 23 24 54 
89 104 110 107 83 46 25 22 19 17 19 19 13 22 45 45 45 1 7 14 
20 29 29 29 23 18 19 20 21 21 22 26 27 25 26 27 26 24 24 20 
20 19 19 18 18 17 38 44 44 5 9 18 24 28 25 15 14 17 19 21 
22 21 20 22 22 20 20 20 22 20 19 17 17 18 19 18 15 14 18 42 
