P2 
32 30
152
10 39 37 35 33 31 29 27 25 24 22 18 18 18 24 21 16 14 17 21 
23 25 26 27 29 31 33 34 35 37 37 37 38 39 37 36 34 32 30 28 
27 25 24 22 24 22 25 24 21 18 22 26 27 28 29 30 32 34 35 36 
37 37 38 38 39 40 38 37 35 33 31 30 28 27 26 24 27 26 25 27 
25 23 27 29 31 32 32 33 34 35 36 37 38 38 39 39 40 40 38 37 
36 34 33 31 30 28 27 26 30 27 26 29 28 26 30 31 32 33 34 35 
36 37 38 39 39 39 39 40 40 39 38 38 36 35 34 32 31 29 28 27 
31 29 29 31 30 27 31 33 34 35 36 37 37 38 39 40 40 40 40 40 
40 39 39 38 37 36 35 34 32 31 30 29 33 31 30 33 26 19 26 35 
36 36 37 38 39 39 40 40 40 41 40 40 41 40 40 39 38 38 36 35 
34 33 32 31 35 34 32 23 6 3 4 14 34 39 39 40 41 42 43 43 
42 42 42 42 42 41 40 40 39 38 37 36 36 34 33 33 37 35 25 6 
0 1 0 1 6 34 41 42 43 43 43 44 42 43 42 42 42 36 41 42 
40 39 38 39 40 36 35 34 38 25 2 9 58 73 61 24 1 7 38 43 
43 43 43 43 43 43 42 42 42 40 44 44 50 40 41 42 37 39 37 36 
33 4 7 77 107 111 109 98 37 1 19 43 43 43 43 43 43 43 43 43 
43 19 30 10 13 13 2 22 5 22 38 38 25 2 37 77 76 120 131 89 
63 20 5 43 45 45 45 44 44 44 44 44 43 5 2 5 3 14 10 18 
0 21 38 37 14 3 49 66 95 125 127 111 74 48 5 31 44 45 44 44 
44 43 44 43 42 5 1 28 24 32 18 26 40 44 38 38 13 5 66 88 
98 112 112 97 82 71 18 15 44 45 44 40 36 33 30 28 25 39 36 38 
47 29 13 13 21 36 36 39 15 20 92 124 116 107 115 119 121 123 41 9 
35 32 34 30 34 37 37 38 35 32 45 14 2 23 3 4 9 38 37 39 
13 32 104 138 130 104 114 122 138 120 48 8 42 35 26 30 43 43 43 41 
40 8 7 8 4 16 3 14 6 38 24 40 28 35 101 141 128 116 123 119 
138 120 46 8 45 42 30 30 43 43 43 42 38 9 6 29 34 22 2 8 
2 28 16 41 61 62 94 135 110 104 112 97 133 115 67 47 45 44 40 42 
44 43 43 41 36 18 5 38 47 46 45 40 39 41 32 40 51 70 81 127 
121 126 136 117 137 111 77 57 45 44 43 44 43 42 41 39 33 39 50 40 
24 44 32 37 27 35 36 42 42 42 58 106 116 126 135 123 120 92 54 45 
42 36 41 44 43 41 39 35 29 34 39 27 1 25 0 25 3 13 5 34 
42 26 31 65 84 114 121 111 95 49 4 24 33 11 33 44 42 40 37 32 
27 21 13 22 2 18 0 22 5 13 2 31 44 38 27 43 44 57 63 59 
54 27 7 21 36 14 24 40 42 40 35 30 25 8 14 25 35 42 42 46 
41 51 30 36 40 43 38 71 74 84 90 87 91 40 7 20 36 11 5 27 
37 39 33 28 25 6 19 23 15 31 39 35 34 41 38 38 40 38 47 99 
97 128 139 113 109 49 6 18 37 15 9 37 32 37 30 26 23 4 20 16 
0 21 24 11 2 42 37 37 39 27 43 105 99 120 138 112 115 57 5 12 
28 19 0 19 22 34 26 24 24 2 17 8 2 22 28 12 2 39 37 37 
37 33 43 109 105 112 125 116 122 78 21 17 19 19 22 11 6 11 26 27 
27 1 18 19 36 48 26 24 27 33 36 36 35 31 62 108 114 115 128 121 
126 100 91 41 24 27 27 13 1 18 46 46 46 1 16 12 13 26 30 32 
34 34 34 32 24 24 81 110 119 112 124 129 127 117 94 29 22 21 25 14 
8 20 45 45 45 13 13 14 18 28 27 31 33 30 25 20 20 23 26 68 
104 116 121 123 99 60 27 23 19 16 18 18 12 21 45 44 45 1 8 15 
21 30 30 31 25 19 19 21 22 22 24 27 27 27 30 28 28 26 26 21 
20 21 20 19 19 19 39 45 45 5 10 19 26 29 27 17 15 18 20 22 
22 22 21 22 23 22 22 22 22 21 20 18 18 19 19 18 15 14 19 43 
