P2 
32 30
155
10 39 37 35 32 30 28 27 25 21 22 22 28 24 19 16 19 24 27 28 
30 32 34 36 38 40 42 43 43 44 45 45 45 39 37 35 33 30 29 27 
26 24 26 25 28 26 22 19 24 28 29 30 32 34 36 38 39 40 42 42 
43 43 44 44 44 39 38 36 34 32 31 29 27 27 30 28 28 29 26 24 
28 31 32 34 35 36 38 39 41 42 43 43 44 45 45 45 45 41 39 37 
36 34 32 31 29 29 33 30 29 32 30 29 33 34 35 36 37 39 40 41 
43 44 45 45 45 45 46 46 46 41 40 39 37 36 34 33 31 30 35 32 
32 35 33 32 35 36 37 38 40 41 42 43 45 46 46 46 46 46 46 46 
46 42 41 40 38 37 36 35 33 32 37 34 35 36 35 34 37 39 40 40 
42 43 44 45 46 46 47 47 46 47 47 46 47 43 42 41 39 39 37 36 
35 34 37 25 17 14 8 9 16 31 41 42 43 44 45 47 48 48 48 48 
47 48 48 48 47 43 42 41 40 40 38 37 36 32 30 3 0 0 0 0 
1 0 12 36 45 46 47 48 48 48 48 48 48 48 48 47 47 45 43 42 
41 41 42 38 37 29 9 0 0 0 0 0 1 0 0 5 42 47 48 48 
48 48 48 48 48 48 48 47 47 49 54 44 45 45 42 43 38 15 0 0 
0 0 0 0 0 0 0 0 19 48 48 48 48 49 49 49 48 48 48 48 
48 9 18 11 5 26 7 25 36 2 7 24 13 2 0 0 0 0 0 0 
6 48 50 50 50 50 50 50 50 50 49 49 49 6 8 12 13 19 0 26 
29 0 54 97 102 50 12 6 1 0 0 1 0 41 50 51 50 50 50 50 
51 50 49 49 45 30 27 32 20 32 41 46 28 2 87 110 100 99 90 83 
14 4 4 6 5 34 50 50 49 48 45 41 37 35 30 29 31 44 53 30 
15 16 27 39 37 15 86 69 14 12 37 65 30 10 9 11 5 31 40 38 
40 33 37 40 42 42 40 35 33 11 4 26 4 5 14 42 31 9 41 20 
0 7 115 151 132 13 8 31 12 35 46 42 32 39 48 49 48 46 46 24 
30 8 4 17 5 15 11 38 9 1 15 22 0 3 113 151 142 36 44 119 
67 38 50 42 28 37 49 49 48 47 43 31 28 32 34 19 1 9 6 29 
9 0 53 83 4 12 138 149 144 102 125 134 58 37 50 49 43 47 49 48 
47 46 41 28 21 46 53 50 47 42 39 44 28 1 95 141 82 128 151 148 
137 115 130 137 14 43 50 49 49 49 49 48 48 45 39 31 21 44 31 52 
40 44 35 42 43 49 75 104 116 116 148 145 131 113 99 55 8 49 50 46 
49 50 50 48 46 44 37 30 18 28 2 28 0 32 1 16 8 44 61 94 
124 104 144 146 130 105 84 16 9 34 34 14 42 50 48 46 44 40 34 27 
15 26 2 20 0 28 2 14 3 39 55 92 131 138 150 145 123 88 87 6 
8 28 36 16 31 48 47 46 42 36 30 25 13 33 37 45 44 49 44 52 
29 40 53 109 149 151 149 127 99 93 97 7 10 26 37 11 7 36 45 45 
39 34 29 23 12 30 23 39 45 39 43 43 43 42 51 109 142 139 114 97 
105 108 103 18 9 24 38 22 9 46 37 43 36 31 28 23 12 23 0 28 
27 13 7 47 42 41 45 51 64 68 84 116 119 117 108 30 8 20 36 20 
0 30 28 39 32 30 29 22 12 12 4 29 29 14 5 45 42 41 42 36 
38 48 94 139 125 118 110 60 12 16 19 20 23 10 13 17 30 29 29 23 
12 31 45 55 30 28 28 39 40 40 40 34 58 98 81 124 128 118 112 95 
34 26 30 31 31 13 0 27 53 54 53 46 24 21 22 32 34 37 38 38 
38 37 27 28 82 117 110 112 127 121 117 117 111 47 28 31 31 13 12 28 
52 51 52 45 23 23 26 34 33 35 37 37 31 21 22 24 68 122 132 116 
125 126 124 128 111 31 27 22 25 14 1 28 51 50 50 45 22 23 28 35 
34 35 31 24 22 22 23 26 26 72 130 127 120 125 130 94 34 27 22 20 
20 21 16 30 47 50 50 45 22 27 32 34 33 25 19 21 21 25 25 25 
26 29 33 62 67 63 42 29 28 27 22 24 21 21 20 21 28 49 49 45 
