P2 
32 30
156
10 42 40 38 37 34 32 30 28 26 24 20 21 21 27 23 19 16 19 23 
25 27 29 30 32 34 36 37 39 40 41 41 42 43 41 39 37 35 33 32 
30 28 26 25 27 26 28 27 24 20 25 28 30 31 32 34 35 37 38 39 
40 41 41 42 43 43 41 40 38 36 35 33 31 30 28 27 31 29 28 30 
28 25 29 32 33 34 35 36 37 38 39 40 41 42 43 43 43 44 42 41 
39 38 36 35 33 32 30 29 33 30 29 32 31 29 33 34 35 36 37 37 
38 40 41 42 42 43 43 44 44 43 42 41 40 38 37 36 34 33 31 31 
35 33 32 34 33 31 34 36 37 37 38 40 40 41 42 43 43 44 44 44 
44 44 43 42 41 40 38 37 36 34 33 32 36 33 24 17 18 16 20 30 
38 39 40 41 42 43 44 44 44 45 44 44 44 44 44 43 42 41 39 39 
38 37 35 34 38 27 5 0 0 0 0 1 15 38 43 43 44 46 46 46 
46 46 46 46 46 45 44 44 43 42 41 40 39 38 37 36 37 20 1 0 
0 1 5 4 3 5 35 45 46 47 47 47 46 46 46 46 46 39 45 46 
44 43 42 42 43 40 38 37 25 2 0 0 0 0 4 4 2 1 7 45 
47 47 47 47 47 47 46 46 46 44 48 48 54 43 45 46 40 42 39 29 
1 9 22 17 10 2 2 5 6 1 0 31 47 48 48 47 48 47 47 47 
47 21 32 11 15 15 3 24 6 24 41 19 0 48 100 104 93 51 10 6 
3 1 2 16 48 49 48 48 48 48 48 48 47 6 3 6 5 16 13 20 
0 23 42 17 1 72 116 127 135 129 75 23 9 5 7 12 48 49 48 48 
48 47 48 48 47 6 1 31 27 35 20 30 44 47 42 28 2 70 122 127 
93 85 98 107 44 9 9 11 48 48 47 44 39 36 33 31 28 44 40 42 
51 32 15 16 24 39 40 37 17 57 95 112 92 120 111 96 92 7 2 7 
38 36 37 33 38 40 41 42 39 36 49 15 3 26 4 6 10 41 41 53 
49 74 84 120 74 97 99 136 127 22 8 14 45 39 29 33 46 46 46 45 
44 10 8 9 4 18 4 16 8 41 27 48 88 87 83 137 119 123 135 143 
121 38 66 79 48 45 33 32 47 46 46 45 41 11 8 31 38 24 3 10 
3 31 17 45 77 104 103 146 126 129 149 135 114 84 120 79 49 48 43 45 
48 47 46 44 39 20 6 42 52 50 49 45 42 45 35 44 56 108 83 116 
122 122 145 127 107 87 125 35 49 48 48 47 47 46 45 42 37 44 55 44 
27 49 35 41 30 39 40 46 45 87 78 119 135 114 128 125 102 52 8 44 
46 40 45 48 47 45 43 39 34 39 43 31 2 29 0 28 4 15 6 37 
47 77 70 97 116 121 139 128 93 31 5 27 36 14 37 48 46 44 42 37 
31 24 15 25 2 20 0 25 5 14 3 34 47 52 83 119 147 149 137 113 
70 27 9 23 38 16 27 43 46 44 40 34 29 9 16 29 39 46 47 51 
46 56 33 39 44 48 80 130 150 146 120 74 81 29 9 22 39 14 8 30 
41 43 39 33 28 7 22 28 18 36 44 39 38 45 42 42 44 42 50 97 
108 96 72 94 108 34 8 20 41 19 11 41 36 42 36 31 28 4 24 21 
0 24 27 13 2 46 41 40 43 30 36 62 46 82 121 119 114 50 6 14 
31 22 0 21 26 38 30 28 28 3 21 12 3 25 32 14 4 43 40 40 
41 37 37 96 85 126 134 122 117 88 20 18 21 22 25 13 7 13 29 32 
31 2 21 26 42 54 29 27 30 37 39 39 38 33 58 108 109 106 129 128 
121 111 94 47 27 29 30 15 1 19 51 51 51 1 19 19 19 31 35 35 
38 37 38 36 26 23 67 111 129 119 134 135 128 124 117 42 27 24 28 16 
11 22 49 49 49 15 16 21 24 33 32 34 36 33 27 22 22 24 25 57 
102 120 127 128 109 75 35 27 22 19 19 20 13 22 48 48 48 1 12 21 
27 35 35 34 27 21 22 24 24 25 25 29 30 29 31 30 30 28 28 25 
22 23 23 22 22 21 43 49 49 7 13 25 31 34 32 19 18 20 23 24 
25 25 24 25 25 24 24 25 24 23 22 21 21 22 22 20 19 16 22 47 
