P2 
32 30
153
10 38 36 34 32 31 28 27 25 23 21 17 18 18 23 20 16 14 17 21 
23 24 26 27 28 30 33 34 35 37 37 37 37 39 37 35 34 32 30 28 
26 25 24 22 24 22 24 24 21 18 23 26 27 28 29 31 32 33 35 36 
36 37 38 38 39 39 38 36 35 33 31 30 28 26 25 24 27 25 24 26 
25 22 27 29 30 31 32 32 34 35 36 37 37 38 39 39 39 39 38 37 
36 34 32 31 29 28 27 25 29 27 26 29 28 26 30 31 32 33 34 34 
35 37 38 39 39 39 39 40 40 40 38 38 37 35 34 33 31 30 28 28 
31 30 29 31 30 28 31 33 34 35 36 37 38 38 39 40 40 40 40 40 
40 40 39 38 37 36 35 34 33 31 30 29 33 32 31 33 30 19 15 21 
34 36 38 39 39 40 40 40 41 41 40 41 41 40 39 38 38 37 36 35 
34 33 31 31 35 33 32 32 10 0 0 0 7 22 39 39 40 41 42 42 
41 41 41 41 41 40 40 39 38 38 36 36 35 34 33 32 36 34 27 18 
1 0 0 0 3 5 18 40 42 43 43 43 42 42 41 41 41 36 41 42 
40 39 38 38 40 36 35 34 38 27 3 4 2 14 1 1 4 6 2 22 
43 44 43 43 43 43 42 42 42 39 43 43 49 39 40 41 35 38 36 35 
38 11 1 11 67 93 58 29 12 6 3 2 40 43 43 43 43 42 42 42 
42 18 29 10 12 13 2 21 5 21 37 36 36 1 2 56 113 130 130 120 
93 31 7 1 28 43 43 43 43 43 42 43 42 5 2 5 3 14 10 17 
0 20 38 37 33 1 6 79 115 128 136 135 126 106 34 4 14 44 44 43 
44 43 44 44 42 5 1 28 25 32 18 27 40 44 38 38 35 0 16 77 
79 98 139 142 119 93 66 6 4 44 44 40 36 33 31 28 25 39 36 37 
46 28 12 13 20 35 36 38 36 0 39 85 98 105 127 136 100 85 72 34 
0 30 34 29 34 36 37 37 35 31 43 14 2 22 2 4 8 37 36 38 
30 0 45 84 75 93 114 120 97 73 70 42 0 33 25 30 42 42 42 40 
40 8 7 7 4 16 4 14 7 38 25 40 39 18 69 109 116 120 109 118 
111 104 100 66 2 42 31 31 44 43 43 43 39 10 7 29 34 22 3 8 
2 28 15 40 40 48 64 113 132 133 117 128 128 128 123 59 28 44 40 42 
43 43 43 42 39 18 5 38 47 45 45 40 39 41 32 40 41 74 57 116 
145 123 109 118 128 143 120 72 60 44 43 43 43 43 42 41 37 40 50 40 
24 44 31 36 27 35 36 42 41 55 56 98 136 124 110 113 130 142 104 72 
46 36 41 43 43 42 41 39 35 36 39 27 1 25 0 25 3 13 5 34 
42 43 28 79 131 109 101 106 118 138 92 35 33 11 33 44 42 42 40 38 
33 22 14 22 1 18 0 22 5 13 2 30 43 42 24 57 123 115 122 125 
116 132 68 22 35 14 25 39 42 41 39 36 30 8 14 26 35 42 42 45 
40 50 29 35 40 43 37 44 88 128 138 141 134 102 30 20 35 12 9 27 
38 41 38 34 28 6 19 25 16 32 40 35 34 40 38 37 40 38 32 50 
53 97 119 122 109 66 25 19 37 17 11 37 34 40 35 32 28 4 21 17 
0 21 24 11 2 42 37 37 39 27 29 47 69 55 54 54 65 84 28 13 
29 21 0 20 25 36 28 29 28 2 17 8 2 21 28 12 2 38 36 36 
37 33 32 47 82 78 105 115 100 102 40 16 19 19 22 12 7 11 26 31 
29 1 17 21 37 49 26 23 26 33 35 35 35 35 29 62 109 93 103 113 
107 115 80 57 26 26 27 13 1 18 47 50 48 1 16 14 15 27 31 32 
34 34 34 35 32 24 49 80 113 107 113 118 117 119 104 104 30 23 26 15 
11 20 46 46 46 13 13 16 19 29 28 31 33 33 31 26 20 20 24 76 
112 116 109 118 126 122 111 51 25 21 17 18 9 20 45 45 45 1 8 16 
21 30 29 30 32 23 19 19 20 22 23 24 51 90 102 110 105 76 32 24 
21 19 18 19 18 20 37 44 44 5 10 20 26 29 28 27 20 16 19 21 
22 22 21 23 26 26 24 26 25 26 23 24 20 20 19 18 17 15 16 38 
