P2 
32 30
156
10 42 40 38 36 34 32 30 28 26 24 20 20 21 26 23 18 16 19 24 
26 28 29 31 32 34 36 38 39 40 41 41 42 43 41 39 37 35 33 31 
29 27 26 24 26 25 26 26 23 19 25 28 30 31 33 34 35 37 38 39 
40 40 41 41 42 43 41 40 38 36 34 32 31 30 28 26 30 28 27 28 
27 25 29 32 33 34 36 36 37 38 39 40 41 42 42 42 43 43 42 40 
39 38 35 34 33 31 29 28 32 30 28 32 30 28 33 34 36 36 37 38 
39 40 41 43 42 43 43 44 44 43 42 41 39 38 37 35 34 33 31 30 
34 32 32 34 33 31 35 37 37 38 39 41 41 42 43 43 43 44 43 44 
44 43 42 41 40 39 38 36 35 34 32 32 35 34 33 36 35 33 35 33 
31 28 34 39 42 43 43 44 44 45 44 44 44 43 42 42 41 40 39 38 
36 35 34 33 38 36 35 37 27 11 3 2 1 1 8 32 44 45 46 46 
45 45 45 45 45 44 44 43 43 42 40 39 38 37 36 35 39 34 30 14 
1 0 0 0 0 0 3 16 45 47 47 47 46 46 46 46 46 39 44 46 
43 43 42 41 43 39 38 37 41 30 10 0 0 0 0 1 5 24 4 5 
27 47 47 47 47 47 46 46 46 43 47 47 53 43 44 45 39 41 39 38 
39 24 0 0 0 0 0 1 43 107 66 5 9 46 47 47 47 47 47 46 
46 20 32 11 14 15 2 24 6 24 41 40 42 11 1 2 6 5 6 31 
103 122 112 59 3 41 48 48 48 48 48 48 47 6 3 6 5 16 13 20 
0 23 42 42 43 9 4 5 9 10 22 104 133 119 114 93 10 37 49 49 
49 48 49 49 47 6 1 31 27 35 20 29 44 48 42 42 45 17 5 7 
8 13 82 138 120 96 62 97 36 33 48 45 40 37 35 32 29 43 39 41 
50 31 14 15 22 38 39 42 45 21 25 37 3 19 125 120 102 101 81 93 
33 33 37 33 38 40 41 41 39 35 48 15 2 25 3 5 9 41 40 43 
38 23 107 104 19 46 148 149 140 102 85 106 54 67 28 33 47 46 46 44 
44 10 8 8 4 17 4 15 7 40 27 43 43 21 101 123 104 103 147 149 
149 114 108 114 43 96 33 33 47 46 46 45 42 11 8 31 37 24 3 9 
3 30 17 44 44 25 59 137 120 116 139 149 149 137 131 137 73 66 44 46 
48 47 46 45 40 19 6 42 51 49 48 44 42 45 35 44 44 31 8 106 
107 115 135 148 150 137 119 103 65 49 48 48 48 47 46 44 39 42 53 43 
27 48 35 40 30 38 40 46 45 43 2 70 95 109 132 147 150 141 131 101 
55 40 45 48 47 46 45 41 36 37 41 29 2 27 0 28 4 15 6 37 
46 47 8 60 99 89 119 143 150 140 103 71 37 14 37 49 47 45 43 40 
34 23 14 23 2 19 0 24 5 14 3 33 47 46 19 62 114 86 90 127 
148 147 130 80 39 17 28 43 47 45 42 37 31 8 15 25 35 43 45 49 
44 55 32 39 43 47 41 76 122 114 97 89 120 144 133 79 40 14 11 30 
42 44 42 36 30 7 21 24 16 34 43 39 38 45 42 42 45 42 41 85 
123 131 129 108 66 78 76 45 41 20 12 42 37 43 38 35 31 4 23 16 
0 22 26 13 2 46 41 40 43 30 48 91 117 135 138 134 55 13 9 16 
32 23 0 22 27 39 31 31 29 3 20 8 2 23 30 13 3 42 40 40 
41 35 71 98 114 135 128 108 102 67 23 19 22 22 25 13 7 13 29 33 
32 2 20 20 37 50 28 26 30 37 39 39 37 46 103 104 111 136 132 122 
122 94 88 27 27 30 31 15 1 20 51 53 52 1 19 13 13 26 33 34 
38 37 37 33 25 40 110 118 106 140 128 140 132 100 47 27 22 23 27 16 
11 22 50 49 49 15 14 15 18 29 29 32 36 30 24 22 23 24 29 68 
77 107 102 97 63 29 26 21 20 19 20 20 15 22 49 48 48 1 9 15 
21 31 31 31 22 20 21 22 23 22 25 27 28 27 30 28 26 25 25 20 
22 21 21 20 18 20 40 47 47 7 12 21 27 31 27 17 18 20 23 24 
25 23 23 26 25 23 23 25 26 23 23 23 22 22 22 21 17 16 21 47 
