P2 
32 30
154
10 5 0 27 50 0 0 55 26 10 13 11 6 32 18 24 46 9 31 46 
55 32 42 40 34 35 25 28 22 20 22 20 21 45 56 66 52 44 45 50 
16 2 19 28 6 31 8 8 48 7 19 12 6 28 15 23 2 15 0 1 
11 6 23 21 22 40 41 43 19 5 12 55 8 5 8 16 3 31 43 41 
47 13 17 13 4 28 5 5 1 15 2 7 13 5 25 22 24 0 17 40 
40 17 20 56 7 24 39 20 14 37 17 12 38 33 43 46 44 31 3 11 
34 36 18 13 24 33 25 23 24 3 17 47 23 4 10 59 4 18 67 17 
33 56 28 16 10 16 15 20 16 32 51 47 20 33 12 5 6 21 25 23 
22 14 14 34 69 62 61 60 25 23 63 38 42 31 11 23 41 67 66 32 
20 28 26 36 0 13 3 3 1 21 16 23 20 41 32 13 20 39 19 51 
62 62 75 65 44 10 50 123 133 138 137 108 39 23 6 6 5 13 0 6 
1 20 6 22 20 45 15 7 1 28 12 60 27 18 12 37 31 24 113 143 
143 143 142 138 86 21 12 7 42 44 17 15 8 18 5 21 22 41 30 24 
5 30 9 45 24 22 8 37 16 47 133 143 143 143 143 142 124 30 30 29 
42 39 41 36 36 34 25 23 23 67 39 43 41 56 35 47 22 20 17 15 
10 66 137 144 144 143 143 143 133 42 37 43 18 8 25 9 17 5 15 22 
24 58 58 72 70 34 18 42 76 74 71 37 19 71 81 91 132 143 107 69 
58 60 33 36 18 4 14 2 18 1 7 14 25 52 52 47 51 8 14 38 
46 19 29 9 34 57 17 7 34 90 13 8 16 67 21 37 21 11 24 16 
27 19 17 17 25 1 2 30 34 48 66 63 42 14 19 7 37 69 15 0 
29 104 10 0 11 55 37 34 32 29 31 34 32 34 27 25 24 0 0 31 
28 28 35 68 41 15 13 8 51 15 3 1 70 138 42 0 6 32 60 30 
19 0 31 24 6 26 27 25 25 0 0 32 28 2 5 44 53 33 11 7 
65 51 23 54 126 139 121 59 52 87 63 24 10 1 30 13 1 20 27 25 
24 0 0 35 49 20 29 46 47 30 11 5 51 115 143 124 120 125 127 139 
142 120 46 20 29 29 38 16 13 20 26 25 23 0 0 30 13 23 49 56 
49 22 6 5 12 98 131 122 127 138 139 141 141 105 15 20 22 20 24 15 
26 25 25 23 21 0 0 29 5 20 36 31 29 16 5 4 2 61 135 109 
124 135 123 129 142 68 7 18 20 22 21 27 25 25 23 22 18 38 38 42 
4 18 35 27 27 14 4 5 4 25 127 139 138 142 142 142 136 31 9 4 
17 22 22 24 24 23 21 19 16 47 45 41 3 17 35 27 23 17 8 9 
6 2 69 134 144 144 143 140 85 14 9 14 23 25 26 24 23 22 19 18 
17 17 6 2 6 16 32 25 28 19 6 4 7 5 42 99 125 143 128 106 
65 11 4 19 19 23 21 23 22 19 18 14 12 31 19 4 7 14 34 26 
15 24 16 12 4 9 24 116 102 86 105 131 40 9 17 17 7 13 19 28 
31 20 17 19 18 3 4 7 6 16 33 27 9 18 17 18 12 15 15 98 
124 137 139 116 31 22 23 8 13 15 25 24 27 18 4 6 5 9 12 16 
22 22 28 17 8 17 14 18 10 23 27 76 116 132 136 79 29 23 13 17 
14 14 27 24 20 12 3 5 2 52 54 54 51 43 18 14 15 10 9 9 
15 23 17 44 112 126 123 64 27 23 16 6 15 14 23 21 20 8 0 0 
0 15 12 9 17 21 16 18 16 19 13 5 5 15 31 71 123 133 122 51 
18 17 11 3 21 16 20 16 20 13 0 0 0 0 0 3 15 18 15 18 
15 22 19 15 19 17 35 122 144 145 142 79 17 19 21 12 25 17 15 12 
19 17 3 0 0 0 0 3 13 18 17 15 13 21 20 21 25 26 29 32 
80 110 71 28 27 24 25 20 25 17 10 11 19 17 10 5 5 0 0 3 
15 19 18 13 13 22 19 20 24 25 25 28 29 30 26 27 24 24 25 22 
25 18 7 11 19 15 15 8 9 0 0 4 16 19 18 12 11 20 18 20 
24 24 22 27 26 26 26 25 19 25 25 23 23 17 16 11 19 14 17 13 
