P2 
32 30
157
10 6 0 29 53 0 0 58 27 11 13 12 6 33 18 25 47 10 32 48 
58 34 44 42 36 38 27 30 24 21 23 22 23 48 59 70 55 46 47 53 
17 3 19 29 6 32 8 8 50 7 21 13 7 30 16 24 3 16 0 1 
12 6 25 23 24 42 43 45 20 5 13 58 8 5 9 17 3 32 45 43 
49 15 18 15 5 29 5 5 1 16 2 8 14 5 27 24 26 0 18 42 
42 18 21 59 7 25 40 21 14 38 17 11 48 34 45 50 48 34 3 11 
36 38 19 14 26 34 27 24 26 3 17 49 23 4 10 60 4 18 69 17 
33 57 38 25 43 10 27 26 15 34 53 48 21 35 12 5 6 22 26 24 
23 15 16 37 74 67 64 63 27 25 67 41 46 35 35 23 48 22 46 40 
22 32 29 40 0 15 4 5 1 23 19 26 23 45 35 15 22 43 21 54 
66 66 80 69 48 8 27 50 78 131 145 139 87 37 9 8 6 15 0 8 
1 22 8 25 24 48 17 8 1 30 14 63 28 20 13 41 62 64 42 52 
131 148 147 147 145 79 15 9 45 47 19 17 9 20 7 23 25 45 33 28 
7 32 11 48 25 24 8 41 17 29 32 36 31 53 100 57 13 13 10 31 
46 44 46 41 40 38 29 28 27 72 44 48 46 63 38 50 23 23 18 21 
46 46 7 34 13 34 101 8 16 1 13 42 20 10 28 11 20 8 18 26 
28 62 61 75 72 31 17 43 79 77 79 78 29 30 22 2 16 82 126 81 
24 4 14 28 19 4 15 2 19 1 8 16 27 54 53 49 52 9 14 40 
48 20 21 32 5 19 45 77 118 136 146 143 123 95 89 24 22 11 25 17 
28 20 17 17 26 1 2 32 35 50 67 66 44 14 12 41 3 12 75 140 
142 138 146 145 147 146 117 24 34 30 33 36 34 36 29 27 26 0 0 33 
28 28 36 71 44 7 4 58 48 15 80 146 143 147 148 147 147 147 120 26 
21 1 33 26 6 28 29 27 27 0 0 34 27 2 4 48 57 50 57 51 
16 16 101 146 148 147 148 148 148 148 124 102 10 1 33 14 1 22 29 27 
27 0 0 37 50 20 31 48 53 65 58 23 10 27 125 142 143 145 146 148 
147 147 129 101 21 27 40 18 16 22 29 27 25 0 0 33 15 25 52 60 
60 58 40 14 4 10 115 122 112 114 123 123 129 140 108 58 9 20 27 18 
29 29 28 26 24 0 0 32 6 22 39 33 33 45 19 12 3 0 5 77 
94 106 127 129 116 113 35 1 1 20 26 30 28 28 27 25 21 41 41 45 
5 20 38 32 34 47 21 7 2 0 6 75 105 116 137 143 129 120 20 4 
2 13 23 28 28 26 25 22 19 52 49 45 4 19 39 36 33 29 19 13 
7 2 6 82 124 127 147 146 141 117 19 6 3 3 18 27 27 25 23 22 
20 20 8 2 8 19 35 30 28 23 13 18 8 7 8 78 133 133 149 148 
148 100 20 10 12 6 16 20 28 24 21 18 15 34 22 5 9 15 38 35 
27 14 12 8 11 10 23 61 136 133 149 148 148 80 16 8 4 12 25 18 
21 23 19 21 20 3 4 7 6 16 34 27 18 20 21 6 11 14 25 43 
136 135 149 149 138 45 17 11 15 14 9 14 17 19 4 7 5 10 13 17 
23 23 30 22 20 22 19 7 21 19 31 32 120 131 145 146 92 36 22 27 
19 8 9 13 18 13 3 6 3 55 58 57 54 44 24 21 16 8 10 8 
24 12 20 27 110 127 141 122 65 36 16 26 9 11 19 14 14 14 0 0 
0 16 13 9 13 15 18 18 17 13 11 5 17 10 13 45 126 146 145 121 
56 30 20 22 11 12 14 10 12 19 7 0 0 0 0 3 9 12 18 18 
21 16 16 13 7 11 17 47 131 150 149 117 30 12 8 9 12 13 10 11 
10 19 16 1 0 0 0 4 10 12 22 17 22 19 25 28 26 27 27 32 
32 59 65 34 31 26 21 23 22 26 20 14 11 21 21 10 8 0 0 3 
8 15 21 15 20 17 25 26 26 26 26 26 32 32 36 31 31 29 26 28 
26 27 22 16 12 20 21 14 12 0 0 3 9 19 17 16 19 14 25 23 
25 26 28 24 27 31 34 30 30 28 25 29 26 26 22 16 13 19 18 18 
