P2 
32 30
149
10 0 1 49 18 1 21 44 22 4 15 10 17 25 23 39 20 25 46 51 
36 36 38 36 37 27 27 24 21 20 18 19 20 29 47 62 42 31 36 40 
1 6 23 10 7 26 16 37 10 9 23 12 26 19 28 4 15 1 2 11 
1 22 19 20 23 51 50 33 5 16 40 26 2 5 19 4 7 47 34 44 
15 9 23 6 21 5 2 3 11 1 6 9 0 23 21 21 24 2 15 57 
20 13 43 17 9 24 26 9 9 34 11 37 35 34 45 35 32 6 2 29 
29 18 12 23 29 25 21 21 25 4 21 53 6 5 45 18 7 45 41 16 
39 48 28 36 12 8 40 17 29 40 39 28 33 17 4 5 16 25 21 21 
23 16 3 56 54 45 58 25 14 36 49 31 36 39 33 36 16 6 29 9 
26 26 37 8 4 12 2 1 16 14 21 18 24 35 20 24 30 38 33 64 
60 68 73 50 9 12 30 53 67 84 72 22 23 10 2 6 7 7 5 2 
16 7 19 19 25 31 8 2 1 28 31 54 18 14 21 53 53 55 36 106 
138 138 137 114 41 14 5 33 39 19 12 7 15 4 17 20 25 41 18 14 
4 30 13 51 17 7 15 34 26 44 68 111 132 136 130 116 75 28 22 38 
36 38 36 32 31 24 22 21 25 54 32 33 33 47 21 48 18 7 8 38 
32 59 76 121 122 125 130 125 95 43 42 25 6 27 7 19 4 15 20 22 
26 46 63 70 56 28 20 67 65 71 68 54 19 40 100 106 107 132 96 113 
104 39 35 24 2 14 0 18 0 7 10 23 27 50 50 42 38 3 12 63 
21 26 32 6 6 60 114 122 116 121 128 120 119 51 34 22 8 21 14 24 
16 16 13 23 26 3 10 24 47 48 57 61 16 12 28 9 3 73 138 132 
131 137 137 138 131 55 30 30 27 27 32 30 32 26 23 22 26 0 5 27 
31 30 48 64 8 5 28 46 9 85 139 118 123 122 127 139 135 60 27 25 
0 20 26 7 21 25 23 22 22 0 4 29 17 3 20 52 44 45 51 15 
25 109 139 136 139 139 138 139 135 93 38 14 1 21 15 4 15 25 23 22 
21 0 3 46 31 19 40 39 57 56 29 9 36 123 138 134 140 139 138 139 
133 119 43 25 28 35 17 16 17 25 23 21 21 0 2 29 15 29 54 51 
52 44 15 3 17 98 115 110 110 120 131 136 127 121 17 20 18 19 17 25 
24 23 21 20 20 0 1 26 9 27 27 27 38 25 11 1 1 5 85 94 
110 122 109 111 84 7 1 17 20 19 25 24 23 22 21 18 22 37 37 27 
7 25 27 28 40 23 6 2 1 6 87 110 120 132 124 112 58 7 4 9 
23 19 23 23 22 20 18 15 22 42 38 22 6 24 30 30 27 14 6 3 
1 4 95 118 125 139 126 130 44 16 5 6 22 25 23 21 20 19 16 16 
6 10 3 1 8 24 23 24 21 11 13 7 2 4 103 127 131 139 136 136 
48 20 9 4 12 21 21 21 18 16 13 11 0 21 15 2 7 20 34 29 
19 7 6 11 14 11 105 125 132 140 137 137 43 20 8 4 16 18 31 31 
22 11 15 16 11 1 8 1 8 22 27 27 18 15 8 16 18 16 94 125 
131 141 138 132 33 12 8 14 18 18 26 25 18 2 6 5 2 17 19 23 
29 21 24 20 20 12 10 17 22 27 64 120 122 136 131 97 28 15 21 19 
4 5 13 24 13 1 3 1 0 49 48 46 40 27 22 14 9 6 14 15 
14 17 41 117 118 126 126 68 31 23 18 5 14 7 21 21 10 0 0 0 
0 4 2 3 13 19 21 17 12 4 6 6 11 8 38 128 131 132 124 89 
42 19 12 15 12 7 18 17 8 0 0 0 0 0 0 3 11 16 18 17 
17 13 16 10 11 14 107 142 141 141 137 87 31 13 9 7 12 15 19 18 
5 0 1 0 0 0 0 3 10 15 15 19 22 18 23 22 17 24 66 141 
142 141 140 117 21 15 7 11 21 18 16 21 4 1 3 4 11 0 0 3 
9 14 16 16 22 18 23 21 16 24 27 53 118 137 110 37 24 22 12 12 
20 15 21 21 7 1 4 7 18 0 0 3 8 13 16 15 20 18 21 19 
17 22 23 28 25 28 23 25 21 21 16 11 15 14 22 21 9 2 12 11 
