P2 
32 30
151
10 0 1 52 19 2 22 47 24 6 17 12 19 27 26 42 23 28 50 54 
38 38 40 39 40 29 30 26 23 22 20 20 22 31 50 66 45 33 39 43 
2 7 25 11 8 28 17 40 12 10 24 13 27 20 30 4 17 1 2 12 
1 24 21 21 25 55 53 36 6 18 44 28 3 7 21 5 9 51 37 47 
17 10 25 7 23 6 4 3 13 2 8 10 0 25 22 23 27 2 17 60 
23 14 46 19 11 27 29 11 10 37 13 39 37 36 48 37 35 7 3 31 
31 20 13 24 31 27 23 24 27 5 23 55 6 6 47 19 9 48 44 17 
41 50 29 31 13 11 29 19 32 42 41 30 34 18 5 5 17 26 22 21 
25 17 4 60 58 49 62 27 16 39 52 33 39 42 31 16 9 10 8 4 
43 128 82 9 5 12 2 1 18 16 23 19 26 38 23 27 32 43 37 69 
64 72 78 55 11 15 23 43 42 28 17 9 10 58 107 7 9 8 5 2 
18 9 21 22 28 33 10 4 2 31 34 57 20 16 23 57 56 52 98 130 
123 95 64 35 11 4 36 36 42 21 13 8 17 5 19 22 27 43 22 16 
6 33 15 55 18 8 16 37 32 120 140 142 139 122 104 57 19 3 3 39 
38 40 38 34 33 26 23 22 27 58 37 37 39 53 23 51 19 9 10 41 
49 138 143 143 143 141 118 64 22 4 3 17 7 29 8 21 5 16 21 24 
28 50 67 75 58 28 24 72 69 77 73 59 43 139 145 144 143 143 134 99 
44 6 4 11 3 16 0 20 0 8 11 26 31 54 53 45 41 4 15 67 
23 28 34 8 41 135 144 126 126 142 143 138 68 10 7 18 9 23 15 27 
18 18 14 25 29 4 11 26 51 51 61 64 19 14 31 28 49 97 131 106 
124 135 134 127 63 42 53 29 31 30 35 32 34 28 26 24 28 0 5 29 
34 33 51 67 10 6 31 69 38 80 127 100 105 116 131 140 68 112 93 20 
20 26 28 8 23 28 26 24 24 0 4 31 18 4 22 55 46 48 61 50 
52 105 133 128 140 132 142 140 120 117 75 18 17 32 16 4 15 27 25 24 
23 0 3 49 32 21 42 41 60 60 36 32 65 123 144 134 135 141 142 140 
133 137 39 20 21 28 19 17 18 26 25 23 23 0 2 32 17 31 57 55 
55 51 45 41 61 115 130 141 143 143 142 142 125 77 16 30 27 29 18 28 
27 25 24 22 22 0 2 28 11 29 30 30 41 44 47 35 35 112 137 144 
144 143 142 141 91 15 20 17 30 26 29 26 26 24 23 20 24 40 40 29 
8 27 30 31 45 51 48 31 11 91 124 132 143 144 142 133 62 19 15 9 
15 23 24 25 24 22 20 17 24 45 40 24 7 26 33 32 44 80 70 24 
13 52 128 144 144 141 126 116 38 22 18 29 18 20 15 22 22 20 18 18 
7 12 4 3 10 27 25 27 45 50 45 32 11 21 131 141 122 103 112 112 
53 23 19 25 16 28 10 15 21 19 16 14 1 24 17 4 9 23 37 36 
38 36 38 18 16 5 22 26 56 116 136 112 41 19 19 17 9 11 9 18 
25 13 18 18 14 1 8 1 8 22 28 27 41 49 46 36 16 6 8 7 
66 131 118 85 38 22 18 10 22 15 6 15 20 3 7 6 2 18 21 24 
30 23 25 32 43 41 40 31 18 16 8 9 30 111 113 74 34 15 19 8 
13 26 30 26 15 1 4 2 0 52 52 49 43 29 24 23 23 21 18 14 
10 16 6 3 7 97 112 89 34 8 14 5 23 26 34 32 14 0 0 0 
0 5 3 4 16 21 24 24 23 21 18 13 10 12 8 6 37 118 122 116 
53 11 9 13 19 26 34 32 22 1 0 0 0 0 0 4 13 18 21 23 
22 19 16 11 9 10 8 12 98 135 131 136 55 12 15 11 17 23 30 30 
23 9 1 0 0 0 0 4 12 17 20 22 22 19 15 10 9 10 8 14 
87 138 136 81 20 9 14 10 16 27 25 27 25 16 10 8 12 0 0 4 
11 16 21 23 22 19 14 10 9 10 8 14 29 87 56 22 14 9 11 10 
18 27 22 26 27 17 10 9 12 0 0 3 9 15 20 22 21 17 12 13 
10 11 8 13 14 15 20 16 12 14 5 9 17 25 21 24 26 18 7 5 
