P2 
32 30
156
10 5 0 28 50 0 0 56 26 11 14 12 6 34 19 25 47 10 32 47 
57 33 43 41 35 36 26 29 23 21 23 21 23 45 55 66 51 43 44 49 
16 2 18 27 5 30 8 7 48 7 19 12 6 27 14 22 2 14 0 1 
10 5 22 20 21 39 40 42 18 5 12 54 8 4 8 16 3 30 43 41 
47 14 16 12 4 26 4 5 0 14 1 7 13 5 24 21 23 0 17 40 
39 16 20 55 6 24 39 20 13 32 19 16 37 37 43 46 44 31 2 11 
34 35 17 13 24 32 25 22 24 3 16 46 23 3 9 58 4 17 67 17 
12 11 17 27 36 36 29 27 16 32 50 46 20 33 11 4 5 20 24 22 
21 14 15 35 71 64 61 60 26 24 71 26 15 18 26 47 50 53 50 45 
23 29 26 37 0 13 3 4 1 21 17 24 21 43 33 14 22 41 20 52 
64 79 110 19 21 28 46 66 89 129 134 120 52 34 6 7 6 14 0 7 
1 21 7 23 22 46 15 7 1 28 13 60 49 105 31 14 28 51 66 94 
130 143 143 142 126 41 12 7 42 44 18 15 8 18 6 21 23 41 31 25 
6 30 10 47 113 72 9 15 15 38 76 116 142 143 143 142 141 52 32 29 
42 40 41 36 36 34 25 24 23 68 40 44 43 58 36 47 115 40 18 16 
24 48 85 125 143 143 143 143 142 64 42 44 18 8 25 9 17 6 16 23 
24 59 59 73 70 31 17 34 40 14 20 21 33 62 104 139 128 107 97 119 
141 57 20 37 19 4 14 2 18 1 7 15 26 53 52 48 51 9 12 18 
20 26 9 24 40 77 85 42 44 50 10 8 73 3 4 37 21 11 25 17 
27 20 17 17 26 1 2 30 34 47 49 21 22 25 23 25 11 22 96 118 
103 68 6 3 72 1 3 38 32 29 31 34 31 34 27 25 24 0 0 32 
26 26 29 25 25 22 28 72 85 65 134 135 104 18 4 25 131 44 4 36 
19 0 30 23 6 26 26 25 25 0 0 31 25 3 18 19 32 36 37 70 
85 112 132 138 135 42 3 84 143 129 16 32 8 1 30 12 0 20 26 24 
23 0 0 34 46 18 24 20 30 29 29 72 94 128 133 140 143 139 129 139 
137 126 31 30 26 28 37 15 12 19 25 23 21 0 0 31 14 26 29 20 
25 29 31 29 107 123 128 136 141 142 142 141 141 131 18 29 22 18 23 14 
25 25 24 22 20 0 0 31 11 26 25 19 18 33 39 14 18 71 123 140 
143 144 143 134 128 113 21 33 25 21 22 28 26 26 24 23 20 40 39 43 
17 26 17 21 22 24 37 16 14 56 115 139 144 145 144 144 141 93 26 27 
24 22 22 25 25 24 23 20 18 48 45 39 17 23 24 17 28 27 20 14 
22 35 104 113 128 140 143 143 143 102 22 24 28 27 26 25 23 22 20 19 
18 18 8 9 12 6 19 22 23 29 22 17 20 27 85 113 99 99 112 120 
119 63 19 16 29 22 21 24 22 20 19 15 12 32 19 7 13 12 20 17 
25 21 24 13 21 31 74 127 120 101 60 18 17 12 24 37 32 29 29 32 
31 20 17 19 19 3 4 7 10 9 6 16 25 20 29 17 16 30 52 125 
145 131 41 10 18 4 15 41 43 40 35 30 26 17 3 5 4 9 12 14 
14 12 17 16 18 29 16 15 17 26 45 96 127 119 17 13 19 12 18 23 
39 36 33 28 24 12 2 4 2 53 53 50 22 21 25 20 16 21 15 18 
17 20 43 93 112 83 8 17 21 15 13 11 35 36 33 28 24 8 0 0 
0 16 12 12 18 24 26 26 15 6 16 8 17 16 42 88 115 72 10 9 
13 14 8 9 24 34 30 25 22 6 0 0 0 0 0 9 18 26 22 29 
17 11 10 1 6 14 69 121 134 96 16 15 15 19 10 8 13 32 29 25 
22 4 0 0 0 0 0 12 20 26 21 25 13 15 22 7 10 18 35 86 
104 39 18 16 17 21 13 6 12 26 29 24 18 0 2 4 4 0 2 15 
22 24 23 18 12 16 25 16 15 24 27 27 28 23 20 19 19 24 13 9 
10 21 23 5 1 0 2 4 9 0 6 16 23 22 23 13 13 16 25 22 
11 21 26 25 26 24 21 20 21 25 11 13 8 17 30 23 0 0 4 11 
