P2 
32 30
150
10 0 1 51 18 2 22 45 23 6 17 12 19 26 25 41 21 27 48 52 
37 37 39 37 38 28 28 25 21 21 19 19 21 30 49 63 43 32 38 41 
1 7 24 11 8 28 17 38 11 9 24 12 26 19 29 4 16 1 2 11 
1 22 19 20 24 52 51 34 6 17 41 27 3 7 20 5 8 48 35 44 
16 10 23 6 21 5 3 2 11 2 6 9 0 23 20 21 24 2 15 58 
21 13 44 18 10 25 28 10 10 36 13 11 13 15 29 33 32 6 2 29 
30 18 11 23 29 24 19 20 24 5 22 54 6 6 46 19 8 47 43 16 
39 24 11 12 17 14 13 21 30 40 39 28 33 17 5 5 16 23 18 19 
22 17 4 58 56 48 61 26 16 38 51 32 27 10 36 52 76 79 44 17 
25 28 38 9 5 12 2 1 17 14 20 17 24 37 22 25 31 41 35 66 
62 70 75 43 13 65 130 133 137 137 115 48 16 10 3 6 8 7 5 2 
17 7 17 17 23 32 10 3 2 30 33 55 19 15 23 37 21 111 139 140 
140 139 136 89 19 14 5 33 40 19 12 8 15 4 15 18 23 42 20 15 
6 32 15 53 18 9 16 15 40 130 140 140 140 139 139 116 24 26 22 38 
37 39 36 33 31 23 19 19 23 55 34 35 36 50 22 49 18 9 14 6 
62 133 140 140 140 139 139 126 38 29 42 26 7 27 8 19 4 13 18 19 
24 47 63 71 56 27 21 68 65 66 15 7 99 103 107 133 139 115 106 114 
74 16 34 24 2 14 0 17 0 5 9 20 24 51 50 43 39 4 12 64 
22 24 9 25 105 111 99 112 127 114 105 129 72 44 31 23 9 21 14 24 
15 15 11 20 24 4 10 25 50 51 60 63 20 24 10 28 111 111 96 108 
128 112 110 114 88 56 28 31 28 28 33 30 29 24 21 21 25 0 5 28 
33 32 51 66 17 23 4 35 107 135 132 122 138 128 139 134 109 40 18 23 
0 21 27 7 19 22 21 20 20 0 4 30 19 4 20 53 39 19 10 13 
116 136 120 124 134 126 132 132 119 22 15 18 1 21 15 4 13 21 20 19 
19 0 3 47 32 20 41 40 40 17 4 2 78 122 109 124 118 130 135 130 
69 5 20 26 27 35 18 14 14 21 20 19 19 0 3 30 16 31 55 49 
30 14 2 5 54 113 99 124 131 121 130 131 25 9 9 25 21 20 17 24 
21 21 20 18 18 0 2 27 10 28 29 28 23 12 3 6 19 124 122 122 
128 127 139 117 11 10 9 20 21 18 25 22 20 20 19 15 19 39 39 28 
8 27 29 28 21 17 6 5 2 72 135 135 138 140 135 66 15 8 17 21 
15 19 23 21 18 19 18 14 20 43 39 23 8 26 31 31 21 29 9 6 
8 34 118 141 142 136 119 56 11 12 22 21 12 23 24 20 17 18 16 17 
6 11 3 2 10 26 25 26 24 14 11 10 6 20 117 107 104 107 134 34 
17 21 13 5 12 20 21 18 15 16 13 12 0 22 16 3 8 21 35 33 
29 14 18 8 7 13 100 120 122 136 115 27 19 18 10 13 14 17 21 13 
4 11 16 17 14 1 7 1 8 22 27 20 9 11 16 14 14 18 71 116 
125 137 99 40 23 11 12 7 13 19 23 17 6 2 12 29 22 18 20 23 
29 22 22 16 14 11 6 15 11 11 44 122 127 138 98 35 25 21 3 12 
17 20 17 23 5 1 15 22 19 50 49 47 42 28 18 21 16 21 13 13 
15 32 121 136 139 141 119 70 13 13 12 15 21 18 15 22 13 9 7 10 
11 4 3 3 17 20 19 23 17 21 23 23 25 26 110 143 143 143 138 50 
24 20 17 21 21 17 16 21 17 8 6 9 7 0 0 6 17 19 19 22 
16 21 25 24 25 25 35 82 123 113 52 26 26 24 16 22 21 18 16 21 
18 12 8 10 7 0 0 7 16 20 20 21 15 22 22 25 25 22 30 26 
30 27 26 26 25 25 16 24 18 18 16 20 16 19 14 12 8 0 0 6 
16 17 18 19 14 21 18 22 22 24 29 28 28 23 25 23 22 24 15 23 
15 14 15 18 12 19 12 6 6 0 0 6 17 15 20 18 18 17 16 21 
22 23 21 34 25 24 21 21 21 24 18 20 13 13 15 15 10 20 14 16 
