P2 
32 30
144
10 0 1 46 16 1 20 40 19 4 13 9 15 23 21 37 18 24 44 49 
34 34 36 34 35 25 25 22 18 18 16 16 19 27 44 58 39 29 34 37 
1 5 20 9 5 24 14 34 9 8 21 11 25 18 27 3 14 1 2 10 
0 20 17 18 21 48 46 30 5 14 37 24 2 4 18 3 6 44 31 40 
15 11 12 10 74 45 3 2 10 1 5 8 0 21 18 19 22 1 13 53 
19 11 40 16 8 22 24 8 8 32 10 26 7 5 3 2 6 58 12 27 
27 16 10 20 26 23 19 19 22 3 18 48 4 4 41 16 5 41 38 13 
35 43 21 8 8 10 5 10 4 6 15 26 30 14 3 3 14 21 18 17 
20 14 3 53 51 43 55 23 13 34 46 28 33 37 13 8 15 21 24 29 
17 13 9 5 4 10 2 1 16 13 20 16 23 33 19 23 28 37 32 61 
57 66 70 48 9 12 15 48 86 82 85 100 76 41 15 8 8 6 5 2 
16 7 18 19 24 29 8 2 1 27 29 51 16 13 20 51 46 18 22 96 
131 132 132 131 127 91 38 16 37 18 11 7 14 4 16 19 24 38 18 13 
4 29 12 49 15 7 14 32 21 9 44 119 133 133 132 133 132 112 57 14 
34 36 34 31 30 23 20 20 24 51 32 32 34 46 20 45 17 7 9 30 
10 11 71 127 133 133 133 133 132 121 57 14 8 26 7 18 4 14 19 20 
25 44 60 67 52 24 19 64 61 69 63 34 7 18 109 129 133 133 133 133 
133 128 66 10 11 14 0 17 0 6 10 22 26 47 46 39 35 3 10 59 
19 24 28 21 5 27 106 86 104 132 132 132 133 128 102 16 18 19 13 22 
15 15 12 20 24 3 8 21 43 43 53 56 14 10 24 18 4 33 91 73 
69 113 117 76 84 105 103 69 22 23 29 27 29 23 21 19 23 0 4 24 
29 28 45 59 7 5 24 17 8 27 110 113 82 114 103 74 74 103 73 66 
14 20 25 6 19 24 21 20 19 0 4 27 17 2 18 49 40 37 25 17 
3 23 120 132 107 126 107 116 120 119 100 59 9 23 13 3 13 23 21 20 
19 0 3 43 29 18 37 36 52 40 21 13 1 22 116 112 104 131 126 119 
131 122 111 26 14 28 19 14 15 22 21 19 19 0 2 27 14 27 51 49 
47 26 16 5 2 24 108 85 114 123 121 92 122 123 41 7 18 23 19 24 
23 22 21 19 19 0 1 24 8 25 26 25 33 25 22 7 4 13 115 88 
118 117 128 101 118 110 12 11 16 23 25 23 22 21 20 16 20 35 35 25 
6 23 26 26 38 25 16 13 2 4 93 115 112 121 106 107 129 77 11 10 
11 22 24 22 21 19 17 14 20 39 35 20 5 22 28 28 37 36 22 12 
5 4 41 129 123 129 130 132 115 21 11 9 21 23 22 21 19 17 15 15 
5 9 3 1 8 23 22 24 38 31 23 6 6 5 8 108 129 125 133 125 
92 11 13 13 16 12 24 21 18 16 13 11 0 20 14 2 7 19 33 31 
34 29 17 12 10 6 9 91 129 134 121 124 67 14 16 20 15 25 31 29 
22 11 15 16 11 0 6 1 6 19 24 23 35 24 10 6 11 4 7 74 
114 111 117 121 31 16 15 9 11 13 25 23 16 1 4 4 1 15 18 20 
26 18 21 25 18 10 7 6 7 6 8 72 116 114 123 100 34 22 15 13 
15 14 14 19 12 0 3 1 0 46 44 43 38 25 20 14 18 19 11 10 
18 20 83 127 129 124 124 101 37 24 14 15 6 11 13 19 11 0 0 0 
0 4 2 3 17 20 15 20 19 22 23 19 24 23 109 136 135 134 134 123 
87 36 12 13 10 13 20 23 18 0 0 0 0 0 0 5 17 19 14 20 
20 16 20 20 21 23 59 135 135 135 134 134 122 25 21 15 17 15 18 21 
16 4 0 0 0 0 0 7 16 19 14 18 22 12 18 23 20 23 28 88 
136 136 135 133 60 22 22 13 22 15 14 17 15 8 3 3 10 0 0 8 
17 18 15 16 23 12 16 24 21 24 25 32 62 101 103 53 24 23 26 16 
25 16 17 13 18 13 5 7 18 0 0 7 16 15 15 13 21 12 15 21 
20 23 18 25 23 26 23 22 22 20 24 16 24 15 14 13 19 14 11 10 
