P2 
32 30
155
10 5 0 27 49 0 0 54 24 10 13 11 5 32 18 24 45 9 30 46 
55 32 41 39 33 35 24 27 21 19 21 19 21 45 55 66 51 43 44 50 
16 2 19 27 6 31 8 7 48 7 19 12 6 27 15 22 2 14 0 1 
10 5 22 20 22 39 40 42 19 5 12 54 8 5 9 16 3 31 44 41 
48 15 17 13 4 27 4 5 0 15 1 7 13 5 25 22 24 0 17 40 
40 17 20 56 6 24 39 20 14 31 18 15 37 37 43 46 45 31 3 11 
34 36 18 13 24 33 25 22 24 3 17 47 23 3 10 58 4 18 67 18 
13 10 20 27 37 34 29 27 15 32 50 46 20 33 12 5 6 21 25 23 
21 15 15 35 71 64 61 60 26 25 66 23 15 17 26 46 54 68 61 50 
20 30 27 37 0 14 3 4 1 22 17 24 21 43 34 14 22 41 21 53 
64 72 105 19 21 31 52 76 111 140 139 126 47 33 7 7 6 14 0 8 
1 22 8 24 23 45 16 7 1 28 13 60 35 90 30 14 30 51 71 106 
138 142 141 141 118 40 11 7 42 44 17 15 8 18 5 21 22 40 30 24 
5 29 10 45 97 77 9 12 13 42 86 129 142 141 142 141 137 41 31 28 
41 38 40 35 35 33 24 22 22 67 40 44 43 58 36 47 109 41 16 15 
25 50 91 132 142 142 142 141 140 52 41 43 17 8 24 8 17 5 15 22 
24 59 58 72 69 31 16 36 44 13 18 18 31 68 121 136 109 82 73 110 
125 28 18 37 19 4 14 2 18 1 7 14 25 52 52 47 50 9 13 21 
20 25 9 25 40 78 71 26 57 40 8 17 48 1 6 37 21 11 24 16 
27 19 17 17 25 1 2 30 33 47 56 23 22 24 21 21 14 29 113 125 
99 60 5 16 89 0 6 38 32 28 31 34 32 34 27 25 25 0 0 31 
27 27 31 27 25 23 26 81 78 71 138 137 89 19 4 56 141 47 4 36 
20 0 31 24 6 26 27 25 25 0 0 32 28 3 16 20 31 36 36 70 
91 112 134 141 133 47 26 115 142 131 6 33 8 1 29 12 1 20 26 24 
24 0 0 35 49 19 24 21 32 28 30 72 101 129 137 142 143 142 141 140 
136 125 6 30 26 29 37 15 12 19 25 24 22 0 0 31 14 26 30 22 
26 30 32 29 111 125 132 141 143 143 142 142 140 128 7 30 23 20 25 15 
27 26 25 24 22 0 0 30 9 26 25 19 19 32 37 13 16 76 125 143 
144 144 143 139 129 116 22 32 24 20 21 28 26 26 24 22 19 39 38 42 
12 24 17 21 23 21 31 14 13 65 114 138 144 143 142 142 138 91 24 26 
23 21 21 24 24 23 21 19 16 47 45 40 14 25 24 18 26 28 16 14 
21 41 110 112 123 136 141 142 142 95 22 24 27 27 25 24 22 21 19 18 
16 17 7 7 12 6 18 22 22 31 19 17 17 31 95 123 100 89 91 90 
82 45 18 16 29 21 20 23 22 19 18 14 12 31 19 6 12 11 20 16 
24 16 24 12 22 31 79 138 136 114 52 6 15 12 26 36 31 27 28 30 
30 19 17 19 18 2 3 9 8 9 5 12 23 24 24 16 16 29 53 121 
141 135 43 10 19 5 16 42 41 39 34 29 25 16 3 5 3 8 12 14 
16 8 14 15 18 27 16 16 19 25 50 100 126 110 14 13 17 13 17 26 
38 35 32 28 24 12 2 4 1 53 54 51 27 20 25 20 17 19 13 16 
20 20 47 96 113 75 8 19 22 15 15 12 38 37 34 29 25 9 0 0 
0 16 12 11 17 23 26 27 14 6 14 6 15 17 47 91 113 66 11 9 
13 14 10 9 27 34 30 26 23 6 0 0 0 0 0 7 18 25 22 29 
20 15 10 1 7 20 87 134 140 95 17 15 17 18 12 8 15 34 29 25 
22 4 0 0 0 0 0 9 19 27 22 25 15 15 21 10 12 22 52 101 
115 42 18 17 19 22 12 7 13 29 29 25 18 0 3 4 5 0 0 12 
20 25 23 18 13 15 23 14 16 24 28 27 28 23 20 19 20 24 12 9 
10 21 22 5 1 0 2 4 8 0 4 14 21 22 23 13 13 14 23 19 
11 23 26 24 26 23 20 19 21 24 10 12 7 18 30 22 0 0 3 11 
