P2 
32 30
156
10 5 0 27 50 0 0 55 25 10 13 11 6 32 17 24 46 9 31 46 
55 32 41 39 33 35 25 28 22 19 21 19 21 45 55 66 51 44 44 50 
16 2 18 28 6 30 8 8 49 7 19 12 7 27 15 22 2 14 0 1 
10 5 22 20 21 39 40 42 18 5 12 54 7 4 8 16 3 30 43 41 
47 14 16 12 4 26 4 5 0 14 1 6 12 5 24 21 23 0 17 39 
39 16 19 55 6 23 38 20 14 25 18 17 33 35 42 45 44 31 2 10 
33 34 17 12 23 32 24 22 23 3 17 48 23 4 10 59 5 19 68 18 
12 12 21 30 40 38 30 30 18 33 51 47 21 33 12 5 6 21 26 23 
22 14 15 35 70 63 62 61 26 25 76 30 16 19 25 47 54 73 68 57 
23 29 27 37 0 13 3 4 1 21 17 24 21 43 33 14 21 40 20 52 
64 77 102 16 22 34 55 78 109 139 140 130 59 33 6 7 6 14 0 7 
1 21 7 23 22 45 15 7 1 28 13 61 51 104 19 13 26 48 67 103 
138 143 143 142 127 41 12 7 43 44 17 16 8 18 6 21 22 41 30 24 
6 30 9 46 111 73 10 14 14 39 87 127 143 142 143 142 140 46 32 29 
42 39 41 36 36 33 25 23 23 68 40 43 41 57 35 46 94 31 17 15 
26 51 89 130 143 142 142 142 141 58 41 43 18 8 25 8 17 5 16 22 
24 58 59 72 70 33 17 33 26 13 17 25 34 69 123 121 95 65 56 91 
127 28 15 37 19 4 14 2 18 1 7 14 25 52 52 47 51 9 13 16 
21 28 9 17 34 52 48 43 73 60 8 10 44 1 6 37 21 11 25 17 
27 19 17 16 25 1 2 30 34 48 52 24 22 22 25 55 22 43 136 133 
92 43 4 13 97 1 5 37 32 29 31 34 31 33 27 25 24 0 0 31 
27 27 29 24 27 27 32 66 96 85 136 136 101 15 3 60 141 52 3 35 
19 0 30 23 5 25 26 24 24 0 0 32 27 2 18 19 31 36 33 70 
89 121 136 141 140 72 46 121 142 133 12 32 8 1 30 12 0 20 26 24 
24 0 0 35 49 19 26 23 33 29 32 68 111 132 139 143 143 143 142 140 
136 128 18 31 27 29 37 16 13 20 26 24 22 0 0 31 14 26 28 22 
22 30 34 17 82 109 132 140 143 143 142 137 133 112 3 30 23 19 24 15 
27 26 25 24 21 0 0 30 9 24 24 18 17 27 39 13 11 69 122 140 
144 144 141 136 137 92 20 32 24 20 21 27 26 25 24 22 19 39 39 43 
13 26 19 20 26 21 26 14 17 56 112 134 144 144 143 143 140 76 25 27 
24 21 22 25 25 24 22 19 17 49 46 41 14 23 24 20 27 30 19 16 
23 34 103 110 118 136 143 143 143 82 23 25 29 28 27 25 24 22 21 19 
18 18 7 6 12 7 21 20 23 27 22 14 19 31 86 122 104 91 89 79 
62 32 19 16 29 21 20 23 22 19 18 14 12 31 19 7 11 11 16 13 
24 13 28 14 19 34 74 133 138 118 50 6 15 8 22 35 30 27 28 31 
30 19 16 19 17 2 4 9 8 10 5 9 20 27 22 15 16 30 51 114 
138 133 33 12 18 9 16 39 42 39 35 30 26 16 3 5 4 9 12 14 
17 10 16 17 16 24 17 19 18 24 54 99 121 95 13 14 18 15 16 21 
39 36 33 28 24 12 2 4 2 53 54 52 30 20 25 23 15 13 13 11 
17 17 44 92 109 60 7 17 19 12 13 10 35 36 33 28 24 8 0 0 
0 16 12 11 17 23 26 28 21 7 7 3 10 16 49 96 115 56 10 7 
13 16 9 9 23 34 30 25 22 6 0 0 0 0 0 7 19 25 23 29 
22 16 16 2 6 31 110 137 139 73 17 15 18 19 11 8 13 33 29 25 
22 4 0 0 0 0 0 9 18 27 24 23 16 15 22 13 12 25 58 105 
110 29 18 16 19 22 14 6 12 26 29 25 18 0 3 4 5 0 0 13 
20 25 24 17 16 13 22 17 13 22 27 27 29 23 19 20 23 24 13 9 
10 20 23 5 1 0 2 3 8 0 4 14 22 22 24 13 16 12 22 22 
11 20 27 24 25 23 18 21 24 25 11 13 8 17 30 23 0 0 4 11 
