P2 
32 30
152
10 5 0 28 51 0 0 56 26 11 14 12 6 33 18 24 47 9 31 47 
57 33 43 41 35 36 25 29 23 21 22 21 22 46 57 67 52 45 46 51 
16 2 19 28 6 30 8 8 49 6 20 12 7 29 15 23 2 15 0 1 
11 5 23 21 23 40 41 43 19 5 12 55 8 4 8 16 3 30 43 41 
47 13 17 13 4 27 4 5 1 15 1 7 13 5 25 22 23 0 18 41 
41 18 20 57 7 25 39 20 14 37 17 11 48 36 33 22 23 26 4 12 
37 38 19 14 26 34 26 24 26 3 18 49 23 4 11 60 4 19 69 17 
34 58 40 35 29 20 15 12 9 9 25 49 108 84 15 6 7 22 27 25 
24 15 15 36 72 65 63 62 27 25 65 40 45 36 36 43 68 65 46 35 
25 19 7 21 109 143 26 4 1 22 18 25 22 43 34 14 22 41 20 53 
64 66 79 68 47 8 38 118 134 121 94 80 54 27 14 6 70 137 25 8 
1 22 7 24 23 46 16 7 1 29 13 62 27 21 13 39 60 64 113 144 
144 138 120 96 57 37 22 7 7 88 19 17 9 19 6 22 24 42 31 26 
6 31 10 46 25 24 7 37 19 30 133 145 145 145 135 92 57 50 24 8 
6 12 37 38 38 36 27 25 24 69 41 45 43 59 36 48 23 22 18 17 
46 51 133 145 145 144 143 124 98 69 34 13 10 12 24 10 18 6 16 23 
25 60 59 74 71 32 17 42 77 75 78 75 31 30 126 70 32 50 79 112 
128 77 43 25 15 13 20 3 19 1 8 15 27 53 53 48 51 9 13 39 
48 20 22 32 6 6 39 3 1 44 88 105 74 38 40 51 26 29 22 16 
28 21 17 18 27 1 2 30 34 48 65 63 42 13 11 39 6 2 51 1 
2 50 117 145 128 66 115 133 32 23 22 32 32 35 28 26 25 0 0 32 
27 27 35 68 42 6 3 56 43 29 128 26 0 59 136 145 141 132 127 136 
31 15 20 28 6 27 28 26 26 0 0 32 27 2 4 46 54 47 54 52 
16 106 147 107 72 126 145 145 143 144 142 99 20 21 12 28 5 21 28 26 
25 0 0 35 49 19 30 47 51 62 56 30 28 64 139 143 146 146 145 145 
145 142 127 31 24 30 17 17 19 21 27 26 24 0 0 32 14 24 51 58 
58 57 49 46 49 65 129 145 146 146 145 145 144 117 50 17 31 28 21 26 
26 28 27 25 23 0 0 30 5 21 37 32 32 47 44 44 43 43 115 128 
144 146 145 145 141 104 33 21 21 29 18 19 20 27 25 24 21 40 40 44 
5 19 37 31 34 55 53 52 48 29 105 146 147 146 145 136 127 78 29 17 
13 18 9 12 18 27 24 21 19 48 47 43 4 18 37 36 37 66 81 58 
37 27 109 147 140 124 110 117 130 79 26 22 29 24 24 13 16 20 22 21 
19 17 7 2 5 16 32 27 30 52 51 51 51 21 26 43 56 80 119 138 
128 72 23 21 14 13 29 7 13 7 15 15 13 30 20 4 7 14 36 36 
36 41 37 35 31 20 14 9 9 46 132 132 108 44 16 25 22 11 11 16 
19 5 12 20 19 2 4 7 5 15 32 27 26 48 44 46 50 19 12 9 
7 12 101 117 81 37 19 19 13 15 15 24 30 27 9 7 5 9 12 16 
22 22 28 26 47 53 50 53 59 11 12 9 5 4 58 111 65 31 18 21 
12 9 19 26 31 33 21 6 3 48 53 54 52 41 20 20 22 21 19 16 
11 8 11 10 7 13 70 110 70 22 11 3 2 12 19 23 26 32 28 8 
0 13 11 9 10 9 12 18 21 21 19 16 8 9 12 10 13 29 115 126 
86 22 4 9 9 17 14 19 26 30 30 19 0 0 0 2 7 8 12 17 
20 21 19 13 8 9 11 10 14 16 76 92 44 16 11 6 16 19 13 16 
25 24 30 26 6 0 0 2 7 8 11 16 20 20 18 10 9 9 11 11 
15 15 19 21 24 20 19 14 17 17 13 13 24 21 29 28 15 0 0 2 
6 7 10 15 18 19 15 6 8 8 15 12 15 16 17 22 20 20 14 19 
15 20 6 16 22 17 29 29 22 0 0 2 7 7 10 14 18 18 13 7 
8 8 22 12 14 17 17 20 14 23 14 23 14 24 3 18 18 15 28 30 
