P2 
32 30
148
10 0 1 49 17 1 21 43 22 5 15 10 17 25 23 39 21 26 47 52 
37 38 39 37 38 27 28 24 21 20 18 19 21 29 47 61 41 31 36 39 
1 6 22 9 6 26 15 37 10 9 23 12 26 20 28 4 15 1 2 11 
1 22 19 19 23 51 49 33 5 15 39 25 2 5 19 4 7 47 33 43 
15 9 22 6 21 5 3 3 11 2 6 9 0 22 20 20 24 2 14 56 
20 12 42 17 9 23 26 9 8 34 10 36 34 33 44 34 32 6 2 28 
29 18 11 22 28 25 20 21 24 4 20 52 5 4 43 17 6 44 41 15 
38 47 21 20 16 19 28 21 30 39 38 27 32 16 4 4 15 23 19 19 
22 15 3 55 54 45 57 24 13 35 48 30 41 54 14 10 15 21 24 26 
21 29 37 8 4 11 2 1 16 14 20 17 24 35 20 24 30 39 33 65 
60 69 74 52 90 43 14 17 23 39 46 51 40 33 7 8 8 7 5 2 
17 8 20 20 26 31 9 3 2 29 32 54 18 15 26 105 49 10 19 41 
59 80 107 132 124 96 18 35 40 20 13 8 16 5 19 22 27 41 20 14 
5 31 13 52 17 8 40 107 9 12 15 39 69 105 135 138 137 135 67 39 
37 39 37 33 33 26 22 22 26 54 33 34 34 48 21 48 18 8 24 49 
15 12 20 40 92 129 138 138 137 137 97 27 7 28 8 20 5 15 20 22 
27 46 62 70 55 27 20 67 65 56 24 14 12 17 30 62 103 134 138 138 
138 137 100 25 2 14 0 18 0 7 10 24 27 49 49 41 37 3 11 62 
21 22 17 25 10 24 45 101 137 138 130 116 115 137 92 23 9 21 14 24 
17 17 13 23 26 3 9 23 46 47 56 60 17 18 24 18 27 23 32 90 
120 115 115 132 112 121 73 25 29 28 32 30 32 26 23 22 26 0 5 26 
32 30 48 63 11 20 27 23 34 66 63 107 139 137 120 95 102 122 41 33 
19 21 27 7 21 25 24 22 22 0 4 29 19 3 19 52 34 22 28 31 
35 47 102 120 138 138 127 134 116 136 60 29 5 21 15 4 15 25 23 22 
21 0 3 46 31 19 39 37 37 24 29 29 36 68 104 123 137 137 136 130 
133 137 114 32 28 35 17 15 16 24 23 21 21 0 2 28 15 28 53 49 
34 22 23 26 35 42 88 120 133 137 137 137 135 127 105 24 19 20 17 26 
24 24 22 20 20 0 1 26 9 27 27 26 27 23 27 27 34 19 22 111 
137 138 138 138 138 136 96 26 20 19 26 25 24 23 21 18 22 38 37 27 
7 25 28 27 31 25 28 26 32 22 19 96 137 139 138 138 128 120 63 24 
21 20 24 24 23 22 19 16 23 42 38 22 7 24 31 26 18 25 27 20 
27 24 15 72 111 133 138 138 138 123 37 27 27 26 24 23 22 20 17 17 
6 10 3 2 9 25 24 23 17 18 26 20 34 30 18 47 96 98 117 135 
138 119 17 20 20 20 22 22 20 18 15 13 1 22 15 3 8 21 31 18 
20 21 22 16 23 34 22 37 86 106 69 71 68 42 12 6 29 33 34 33 
24 13 17 17 13 1 7 1 8 21 26 13 14 14 14 10 22 26 21 61 
81 115 81 53 18 20 7 14 25 31 29 25 19 2 7 5 2 16 19 21 
27 19 22 12 9 6 5 9 25 20 23 56 84 121 118 47 18 22 16 10 
15 19 23 23 13 1 3 1 0 48 47 45 40 27 21 18 8 6 9 12 
14 20 30 53 91 112 122 41 19 14 16 9 19 22 19 22 10 0 0 0 
0 4 2 4 19 22 19 9 8 7 5 4 6 13 41 82 114 127 138 115 
43 21 20 14 25 20 19 19 8 0 0 0 0 0 0 7 20 21 14 15 
13 15 7 6 9 18 102 126 139 140 139 133 31 25 20 15 24 17 18 18 
5 0 1 0 0 0 0 9 20 18 19 23 17 22 19 13 22 25 115 142 
141 141 140 82 24 24 20 14 20 18 20 16 1 2 4 5 12 0 0 8 
19 17 17 23 17 19 21 18 24 24 32 88 133 135 88 26 24 24 22 16 
16 17 21 18 3 1 4 7 18 0 0 8 16 16 15 21 16 16 18 19 
21 21 29 27 27 29 23 24 22 23 23 17 12 19 20 19 6 2 12 11 
