P2 
32 30
123
10 25 23 22 20 18 17 16 14 13 12 10 8 12 11 10 7 4 6 9 
11 12 13 14 15 17 18 20 21 22 22 22 22 25 23 22 21 20 18 16 
15 14 14 12 12 15 12 13 11 7 10 12 14 14 15 16 18 19 20 20 
21 22 22 22 23 25 24 23 21 20 19 18 17 16 14 14 15 17 12 15 
13 11 13 15 16 16 17 18 19 20 20 21 22 23 23 23 23 25 24 23 
22 21 20 19 18 17 16 15 18 19 13 18 16 14 16 17 18 18 19 20 
20 22 22 23 23 23 23 24 24 26 25 24 23 22 21 20 19 18 17 17 
19 20 17 20 16 16 18 19 20 20 21 21 22 23 24 24 24 25 24 24 
24 25 25 24 23 22 21 21 20 19 19 12 9 14 13 15 12 13 14 20 
20 21 21 22 22 23 24 24 24 24 24 24 24 25 25 24 24 23 22 21 
21 20 6 11 22 21 16 17 13 9 9 10 20 22 23 23 23 24 25 25 
24 25 24 24 24 25 25 25 25 24 23 22 16 5 14 30 47 34 32 31 
16 5 7 7 11 23 24 24 25 25 25 26 25 25 24 24 24 17 26 26 
25 25 24 23 6 14 55 91 83 45 26 35 20 5 5 12 8 24 25 25 
25 25 25 25 25 25 24 24 24 20 27 28 31 27 25 24 9 32 81 99 
100 54 25 30 20 7 1 1 1 21 25 25 25 25 25 25 25 25 24 24 
24 9 16 11 3 10 0 8 13 39 84 103 109 72 34 20 17 6 0 1 
1 9 26 27 27 26 26 26 26 26 25 25 25 4 1 3 0 12 4 7 
6 55 73 76 86 76 38 21 14 18 5 4 3 8 28 28 28 29 28 28 
27 27 27 27 26 4 0 15 16 23 11 12 29 49 2 42 89 99 71 41 
73 99 33 5 0 11 28 28 28 28 28 25 22 20 17 15 13 22 26 25 
30 23 7 6 6 7 0 33 103 113 110 105 104 99 59 7 0 17 25 23 
21 19 18 19 19 21 22 22 21 17 27 18 0 15 2 2 1 43 3 27 
105 114 112 107 102 100 52 5 0 19 23 25 26 24 18 12 26 26 25 23 
22 8 3 6 2 11 0 9 8 96 47 65 108 114 108 102 105 94 63 9 
5 28 28 29 29 27 24 11 25 23 22 20 18 7 3 13 24 18 3 5 
27 87 85 96 109 113 106 96 97 101 76 8 18 29 28 28 28 28 25 23 
23 20 19 17 15 13 4 20 32 32 31 28 28 49 80 99 108 109 105 89 
94 104 78 28 24 29 29 29 29 28 26 24 20 18 16 15 13 22 34 32 
16 28 24 24 22 29 62 94 103 104 97 85 97 102 78 45 29 30 29 28 
28 22 21 22 18 16 15 14 12 20 27 24 0 16 1 11 9 10 61 84 
98 96 87 92 104 102 79 68 41 13 7 8 26 4 11 21 17 16 15 14 
13 11 12 15 0 12 0 9 9 5 64 88 78 77 87 104 106 105 81 87 
67 29 4 6 27 6 8 16 17 15 14 13 12 1 13 13 22 30 30 32 
28 35 38 54 55 66 92 108 110 109 84 98 84 89 27 8 28 4 2 7 
14 15 14 13 12 0 15 20 9 21 27 27 22 30 28 53 79 42 79 96 
109 111 91 107 103 112 111 107 81 25 6 12 13 16 15 13 13 0 13 19 
0 9 23 9 14 69 91 105 113 104 106 101 99 112 102 113 113 113 112 113 
113 110 67 23 8 16 14 13 12 0 12 11 0 11 37 73 114 117 105 107 
117 117 116 115 103 114 114 115 114 88 110 113 113 113 113 106 32 7 12 15 
15 0 11 17 29 44 109 118 118 118 109 101 117 117 116 116 116 116 115 115 
113 91 112 114 114 114 113 113 106 17 32 30 30 0 12 16 14 80 117 118 
118 117 114 103 112 117 116 116 116 116 115 115 113 109 114 114 114 113 113 113 
113 78 31 30 29 6 9 15 53 115 115 116 116 117 116 106 105 115 115 115 
114 114 114 113 113 113 112 113 113 112 112 112 111 107 54 28 27 0 6 31 
106 117 112 116 116 116 116 115 114 115 115 114 114 114 114 114 113 113 112 113 
112 112 112 112 112 110 94 28 27 2 5 62 112 117 111 116 116 116 116 116 
115 115 115 115 115 114 114 114 112 113 113 113 113 113 113 112 112 111 111 43 
