P2 
32 30
125
10 25 23 22 20 19 16 15 14 12 11 9 7 10 10 10 7 4 6 9 
12 12 13 14 16 17 19 20 21 22 22 22 22 24 23 22 20 19 17 16 
15 13 12 11 11 14 11 12 10 7 10 13 14 15 16 17 18 19 20 21 
21 21 22 22 23 25 24 23 22 20 19 18 16 15 14 13 15 16 12 15 
14 11 14 16 17 18 18 19 20 20 21 22 22 23 23 23 24 25 24 23 
22 21 20 19 18 16 16 14 16 19 13 17 16 14 17 19 19 19 20 21 
21 22 23 23 24 24 24 24 24 26 25 24 23 22 21 20 19 18 17 16 
18 20 15 19 16 12 17 19 21 18 21 22 23 23 24 24 25 24 24 25 
24 26 25 24 24 23 22 21 20 19 18 18 20 22 17 10 1 0 0 3 
12 10 8 19 24 25 25 25 25 25 25 25 25 26 25 25 24 23 22 22 
21 20 20 19 21 24 15 12 12 4 6 11 9 9 3 4 16 26 26 26 
26 26 26 25 25 26 26 25 25 24 23 23 22 21 21 20 22 23 18 3 
10 10 14 14 17 11 4 1 5 26 27 27 26 26 26 25 25 17 26 27 
26 25 24 23 26 23 22 21 21 6 6 4 8 14 18 23 13 12 6 11 
19 26 26 26 27 27 26 25 25 21 28 28 32 27 26 26 24 25 23 22 
19 3 4 0 6 20 26 26 20 19 9 13 22 28 27 27 28 26 27 26 
26 10 17 12 4 11 0 9 7 8 24 24 13 5 9 4 12 20 29 59 
84 65 50 58 40 28 28 28 28 27 27 27 26 4 1 2 0 11 3 6 
6 7 25 24 14 0 1 4 9 27 24 77 113 112 94 91 55 28 28 28 
28 27 27 27 26 4 0 14 16 22 11 12 28 29 26 25 12 1 8 62 
90 61 45 92 99 97 77 25 25 25 28 26 22 20 18 16 13 21 26 25 
30 23 6 5 8 23 25 24 13 1 8 92 102 110 96 112 113 84 37 45 
25 16 19 19 20 22 23 22 21 16 26 17 0 14 1 2 1 24 23 26 
16 0 6 79 99 111 104 111 113 105 57 65 64 20 18 13 27 26 26 24 
22 8 3 6 2 10 0 8 1 25 13 26 24 2 6 51 107 106 99 106 
113 109 81 87 97 31 25 12 28 26 24 22 18 7 3 13 24 18 2 5 
0 18 6 26 27 10 9 64 95 96 94 105 113 111 98 87 60 32 27 27 
28 26 23 20 16 13 4 19 33 33 33 29 28 30 24 27 28 24 19 72 
108 91 90 102 109 110 100 83 43 31 30 30 29 26 22 18 15 19 31 31 
16 28 25 24 22 23 25 30 28 33 41 72 101 96 84 96 102 104 94 67 
32 25 26 29 28 24 20 16 14 16 22 20 0 16 2 11 9 7 5 18 
29 33 59 73 102 105 89 84 92 96 89 66 28 6 15 29 27 22 18 16 
15 11 11 12 0 12 0 9 9 5 5 16 42 66 82 79 106 109 101 89 
74 74 84 65 29 9 11 22 26 22 18 16 14 1 12 10 19 28 29 32 
29 36 24 25 82 79 98 83 107 109 102 90 53 44 27 17 29 6 3 11 
21 22 18 15 13 0 13 15 7 19 26 27 22 30 30 61 109 104 106 90 
109 110 98 92 69 98 86 66 49 10 8 17 20 21 17 14 13 0 12 13 
0 9 23 9 21 78 110 106 116 116 111 101 112 109 110 113 111 112 107 114 
114 97 46 14 13 21 16 14 12 0 11 5 0 10 37 82 117 118 117 109 
109 117 117 114 114 109 116 116 116 113 91 114 114 114 114 95 16 7 13 16 
15 0 9 9 24 48 110 118 118 118 117 111 98 117 117 117 117 116 116 115 
115 108 81 114 114 114 114 114 97 11 32 30 30 0 8 9 11 94 118 118 
118 118 117 115 97 116 117 116 116 116 115 115 115 108 106 114 114 114 113 113 
113 79 31 29 29 7 7 10 66 117 118 118 118 118 118 117 105 114 116 116 
116 116 116 115 115 114 112 114 114 114 114 114 113 112 53 30 29 0 3 28 
111 119 117 118 118 118 118 118 117 116 117 117 116 116 116 116 115 115 114 115 
115 114 114 114 113 113 82 29 28 2 4 71 116 118 116 118 118 118 117 117 
117 116 116 116 116 116 116 116 114 114 114 114 115 114 114 114 113 113 100 26 
