P2 
32 30
133
10 28 26 24 23 21 20 18 17 15 14 12 10 14 13 13 10 7 9 12 
13 14 16 16 18 20 21 23 24 25 24 25 26 27 26 24 23 21 19 18 
17 16 14 13 14 16 13 15 12 9 12 15 16 16 17 19 20 21 22 22 
23 24 24 24 25 27 26 25 24 22 20 20 19 17 16 15 17 19 14 17 
15 13 16 18 18 19 20 21 21 22 23 24 25 25 25 25 26 28 27 26 
24 23 22 21 20 19 18 17 19 21 15 20 19 17 19 20 21 21 22 22 
23 24 25 26 26 26 26 27 26 28 27 26 25 24 23 22 21 20 19 18 
20 22 20 22 15 22 22 21 22 22 23 24 25 25 26 26 27 27 27 27 
26 28 28 27 25 25 24 24 22 22 21 19 19 12 24 26 14 7 12 16 
22 24 25 25 26 26 27 27 27 27 27 27 27 28 28 27 27 26 25 24 
24 23 22 21 10 7 19 26 28 25 29 24 21 27 26 26 27 28 28 28 
28 28 28 28 27 28 28 27 27 26 26 25 24 23 23 21 2 3 21 56 
98 103 91 49 18 31 27 27 27 28 28 28 28 27 27 26 27 19 28 29 
28 27 27 26 28 25 24 14 1 1 7 59 116 112 101 73 25 16 27 28 
28 28 28 28 28 28 27 27 27 22 30 31 34 30 28 28 26 27 25 13 
3 7 34 103 114 113 103 83 31 7 28 29 29 29 29 28 28 28 27 27 
27 11 18 12 4 11 0 9 8 9 26 16 5 50 88 104 114 112 82 55 
19 14 29 29 30 29 30 29 29 29 28 29 28 5 1 3 0 12 4 8 
6 8 27 18 1 18 36 6 55 37 10 35 2 20 30 30 30 31 31 30 
30 29 29 29 28 5 0 16 17 24 12 13 31 31 27 20 8 5 13 0 
37 43 0 2 6 35 30 30 31 31 30 28 24 21 19 17 15 23 28 26 
32 25 8 7 9 24 27 28 46 13 0 1 65 81 8 2 30 42 27 25 
23 22 20 21 22 23 24 24 23 19 29 19 0 15 2 2 1 25 25 28 
54 57 45 69 77 89 91 81 72 39 25 27 28 26 19 13 28 27 26 24 
22 9 3 6 2 11 0 9 1 26 14 28 53 65 99 108 75 82 103 100 
70 34 31 31 31 29 26 13 28 25 23 21 18 8 3 14 25 20 3 6 
1 19 6 27 34 55 95 101 86 87 96 96 58 31 31 31 31 31 28 27 
27 24 21 18 15 14 4 22 35 35 34 31 30 32 25 29 30 45 82 92 
89 92 91 89 49 33 33 32 33 32 31 30 27 23 19 18 15 22 35 34 
17 30 27 26 24 25 26 32 30 39 61 77 98 105 91 73 39 34 33 32 
31 26 27 30 26 21 18 17 15 19 26 25 1 18 2 12 10 9 5 19 
30 42 51 56 83 98 73 58 41 16 9 10 29 7 17 30 25 20 18 17 
16 13 12 16 1 14 1 10 10 5 6 17 39 55 67 55 61 65 61 77 
59 13 6 8 30 9 11 23 24 20 17 16 16 1 14 13 23 32 32 34 
30 38 26 30 94 65 93 86 89 94 97 99 77 49 4 7 31 7 3 11 
20 20 17 16 15 0 15 20 9 22 29 30 24 32 29 60 112 85 104 112 
111 114 116 108 97 108 88 65 49 9 8 17 19 20 17 15 14 0 14 19 
0 10 25 10 5 57 85 112 119 114 113 120 119 120 119 117 115 116 116 118 
118 90 26 9 12 20 17 15 14 0 13 11 0 12 34 65 116 122 112 111 
122 122 121 121 119 120 120 120 119 91 113 118 118 118 117 71 4 7 14 17 
17 0 12 18 31 51 112 122 122 122 115 102 121 122 121 121 120 120 120 120 
116 93 116 118 118 118 117 116 66 3 33 32 32 0 12 16 16 87 122 122 
122 122 119 105 115 121 121 121 120 120 119 119 117 113 117 118 118 118 118 117 
112 30 33 32 31 8 11 17 60 119 121 122 122 122 121 111 112 121 121 120 
120 120 119 119 118 119 117 118 118 118 118 117 115 98 33 31 31 0 9 35 
111 122 119 122 122 122 122 121 120 121 121 120 120 120 120 119 118 119 118 118 
118 118 118 117 116 114 59 31 30 4 7 81 122 122 116 122 122 122 122 121 
120 121 121 120 120 120 120 120 117 119 118 118 119 118 118 117 116 116 91 28 
