P2 
32 30
122
10 24 23 21 20 18 17 15 14 13 11 10 8 12 11 10 7 4 6 9 
10 11 13 13 15 17 18 19 20 21 21 22 22 24 23 22 20 19 18 16 
15 14 13 12 12 14 12 13 10 7 10 13 13 14 15 16 17 19 19 20 
21 21 21 22 22 24 23 22 21 20 18 17 16 15 14 13 15 17 12 15 
13 11 13 15 15 16 17 17 18 19 20 21 21 22 22 22 22 25 24 23 
21 21 19 19 17 16 16 15 16 19 14 18 16 14 16 17 18 18 18 19 
20 21 22 22 23 23 23 23 23 25 24 24 23 22 21 20 19 18 17 17 
18 14 15 19 21 17 18 19 19 20 20 21 22 22 23 24 24 24 24 24 
23 25 24 24 23 22 21 20 19 19 23 12 9 16 29 19 17 16 16 17 
20 21 21 22 22 23 23 24 24 24 24 23 24 25 24 24 23 23 22 21 
21 13 9 14 26 35 35 24 29 20 8 4 13 22 22 23 24 24 24 24 
24 24 24 24 23 25 25 25 24 24 22 22 22 8 16 55 89 89 65 32 
35 27 5 2 6 16 23 23 24 25 25 25 24 24 23 23 23 17 25 26 
25 24 24 23 23 9 46 86 100 102 76 30 31 30 5 1 10 15 24 24 
25 25 25 24 24 24 24 23 23 19 27 28 31 27 24 25 18 8 60 90 
102 107 87 47 25 16 7 0 1 10 24 25 25 25 24 24 24 24 24 23 
23 9 16 11 3 10 0 8 7 5 72 86 97 109 108 56 22 16 3 0 
0 3 24 25 26 26 26 25 25 25 25 24 24 4 1 3 0 11 4 7 
6 8 43 39 77 87 88 73 21 36 58 11 1 1 20 28 28 28 28 27 
27 27 27 27 26 4 0 15 16 22 11 12 22 14 49 38 51 99 112 104 
85 98 104 47 2 0 24 27 27 27 27 25 21 19 17 14 12 21 26 24 
30 23 7 6 9 20 67 60 72 107 112 110 100 103 97 47 5 6 24 22 
20 19 18 18 19 20 21 21 20 17 26 17 0 14 2 2 1 57 104 70 
90 112 113 107 100 102 101 31 2 11 23 25 25 24 18 11 25 24 23 22 
21 8 3 6 2 11 0 8 1 58 90 85 105 113 112 102 94 96 80 33 
3 22 28 28 28 26 23 11 24 22 20 19 17 7 3 13 23 18 2 5 
0 19 64 85 100 112 109 100 84 91 88 30 11 28 28 28 28 28 24 23 
23 20 18 16 14 12 4 19 32 32 30 27 26 29 47 79 91 106 105 94 
77 93 83 39 18 28 28 28 28 28 25 24 21 17 16 14 12 21 33 31 
16 27 24 23 21 23 42 92 93 99 95 83 80 97 79 46 29 29 29 27 
28 22 22 23 19 16 14 13 12 17 25 23 0 16 2 10 9 7 36 92 
94 81 74 83 93 101 78 64 35 13 6 7 26 4 12 23 18 16 14 14 
13 10 11 14 0 12 0 9 9 4 21 62 64 64 81 101 104 106 79 80 
59 29 4 5 26 6 8 17 18 15 14 13 12 1 12 12 21 29 29 31 
27 34 24 24 43 33 76 100 107 109 82 91 77 87 5 5 27 4 2 8 
15 15 14 13 12 0 13 19 8 20 26 27 22 30 27 43 107 71 90 90 
108 112 88 100 96 109 103 82 61 12 6 13 14 16 14 13 12 0 13 17 
0 9 23 9 4 57 90 100 116 108 111 109 105 113 96 108 110 112 110 112 
112 106 57 19 9 17 13 12 12 0 11 10 0 11 28 53 105 116 110 100 
116 116 115 115 104 112 109 114 114 107 104 112 113 112 112 105 30 7 12 15 
15 0 10 16 27 39 94 117 116 116 111 96 116 116 115 115 114 114 114 114 
113 98 91 113 112 112 112 112 107 24 31 29 29 0 11 15 13 71 117 117 
117 116 115 110 106 116 115 115 115 115 114 114 113 100 111 113 113 113 113 112 
112 94 33 30 29 6 9 14 47 113 116 116 116 116 115 114 96 113 115 114 
114 113 113 113 112 112 110 112 112 112 111 111 111 109 67 28 27 0 6 20 
101 115 114 115 115 115 115 114 113 114 114 114 113 113 113 113 111 112 111 111 
111 111 111 111 110 110 100 28 26 2 5 51 112 116 114 115 115 115 115 114 
114 112 114 114 114 113 113 113 112 112 112 112 112 112 112 111 110 111 111 40 
