P2 
32 30
126
10 26 24 22 21 19 18 16 14 13 12 10 8 11 11 11 8 5 7 10 
12 13 14 15 16 18 20 20 22 22 23 23 23 25 24 23 21 20 18 17 
16 14 13 12 12 15 12 13 11 8 11 14 15 16 16 18 19 20 21 21 
22 22 23 23 24 26 24 23 22 21 19 18 17 16 15 13 15 17 13 15 
14 12 15 16 17 18 19 19 20 21 22 23 23 24 24 24 24 26 25 24 
23 22 20 19 18 17 16 15 17 19 14 18 17 15 18 19 20 20 20 21 
22 23 24 24 24 25 25 25 25 26 25 24 23 22 21 20 19 18 17 16 
18 21 16 19 16 15 18 19 14 18 22 23 23 23 24 25 25 25 24 25 
24 26 25 24 24 23 22 21 20 19 18 18 19 21 9 1 0 2 5 8 
6 5 10 23 24 24 25 25 25 25 25 25 25 26 26 25 24 23 23 22 
21 20 20 19 21 12 9 3 6 11 14 11 6 3 4 19 25 26 26 26 
26 26 25 25 25 26 26 25 25 24 23 23 22 21 20 20 19 9 4 11 
13 20 14 11 7 6 13 24 26 26 26 27 26 26 25 25 25 17 26 27 
26 25 24 23 26 23 21 21 18 10 3 11 18 22 22 18 12 5 26 26 
26 26 26 26 26 26 26 25 25 20 28 29 31 27 25 26 24 24 22 17 
6 1 1 11 21 30 67 88 84 80 75 31 27 27 26 26 26 26 25 25 
25 10 17 12 4 11 0 9 7 9 25 19 7 8 4 14 17 27 63 56 
33 9 41 41 29 29 29 28 29 28 28 28 27 4 1 3 0 11 3 7 
6 8 25 14 2 3 5 20 29 24 87 110 84 10 2 11 29 29 29 28 
29 28 28 28 27 4 0 15 16 23 11 12 29 30 26 18 0 6 57 101 
93 73 108 113 78 7 9 41 28 29 28 26 23 20 18 16 14 22 26 24 
30 23 7 6 9 23 26 18 1 3 70 103 106 104 113 114 108 37 53 94 
28 21 19 19 21 22 23 23 22 17 27 18 0 14 2 2 1 24 23 21 
0 5 49 106 105 103 108 114 113 103 92 92 50 25 18 13 27 27 26 24 
22 8 3 6 2 11 0 8 1 25 13 26 4 2 26 89 106 96 103 113 
114 108 91 71 31 29 25 12 28 26 24 22 18 7 3 13 24 18 2 5 
0 19 6 26 16 3 35 99 99 89 100 110 113 110 85 58 31 30 27 26 
27 25 22 18 15 12 4 19 32 32 32 29 27 29 23 27 25 3 46 92 
106 86 92 103 107 104 92 54 30 30 29 28 26 22 18 16 14 18 31 31 
16 28 25 24 22 23 25 29 28 24 57 84 107 96 82 86 93 92 93 57 
30 25 25 28 25 20 17 15 13 15 22 22 0 16 1 11 9 7 4 18 
28 34 68 82 111 103 93 85 72 70 70 40 27 5 14 28 23 19 16 15 
14 11 11 13 0 12 0 9 9 5 5 16 57 59 80 87 113 109 104 91 
57 29 13 8 28 8 10 21 23 19 16 15 14 1 13 12 21 30 30 32 
29 37 25 34 105 74 93 90 113 108 101 81 57 39 4 7 29 6 3 10 
19 19 16 15 14 0 14 17 8 20 27 28 23 31 30 75 112 100 99 93 
116 114 103 105 92 105 90 66 46 8 7 17 18 18 16 14 14 0 13 14 
0 10 24 9 20 74 101 111 118 116 108 100 116 113 116 114 112 112 111 115 
114 85 31 9 11 19 16 14 13 0 11 6 0 11 39 83 119 119 110 107 
119 119 118 112 114 112 117 117 116 92 109 115 115 115 114 74 5 7 13 16 
16 0 11 12 26 56 115 119 119 120 114 98 118 119 118 118 118 118 117 117 
114 87 111 116 115 115 115 114 65 3 33 31 31 0 8 10 15 98 119 118 
118 119 116 102 111 117 117 117 116 116 116 116 114 106 115 114 115 114 114 114 
108 31 31 29 29 6 7 11 70 116 117 118 118 118 118 111 109 117 117 116 
116 116 116 115 114 115 113 115 114 114 114 113 112 96 31 28 28 0 3 38 
111 118 117 118 118 118 118 118 116 117 117 117 116 116 116 116 115 115 114 114 
115 115 114 114 112 111 57 29 28 2 4 90 119 119 114 118 118 118 118 117 
117 117 117 116 116 116 116 116 113 115 115 114 115 114 114 114 112 112 87 26 
