P2 
32 30
125
10 26 25 23 21 20 18 17 15 14 12 10 8 12 11 12 8 5 8 11 
13 14 15 16 17 19 20 21 23 23 23 24 24 26 25 23 22 21 19 17 
16 15 14 13 13 15 12 14 12 9 12 15 16 17 17 18 19 21 22 22 
23 23 24 24 25 26 25 23 22 21 19 18 17 16 15 14 15 17 13 16 
14 12 15 17 18 18 19 19 20 21 22 22 23 24 24 24 24 26 25 24 
23 21 20 19 18 17 16 15 17 19 14 18 17 15 18 19 19 20 20 21 
21 23 23 24 24 24 24 25 25 26 25 24 24 22 21 20 19 18 17 16 
18 21 16 18 17 16 21 16 16 21 21 23 23 24 24 25 25 25 25 25 
24 26 25 25 23 23 22 21 20 19 18 18 20 19 5 0 1 2 7 9 
5 7 18 24 24 24 25 25 25 25 25 24 25 26 26 25 24 24 23 22 
21 20 20 19 18 7 9 4 5 11 11 10 6 2 4 22 25 26 26 26 
26 26 25 26 25 27 26 26 25 25 24 23 22 22 21 21 19 11 8 11 
14 14 15 14 4 4 10 22 27 27 27 27 26 26 26 25 25 18 27 27 
26 25 25 24 26 23 22 17 15 7 5 12 15 24 18 14 11 10 17 27 
27 27 27 27 27 27 26 26 26 21 28 29 32 28 26 26 24 25 23 8 
3 1 1 13 25 29 35 28 19 16 42 27 27 28 27 27 27 26 26 26 
25 9 16 12 3 10 0 8 7 8 24 8 8 5 4 16 19 36 97 113 
103 87 75 29 27 27 27 27 27 26 26 26 25 5 1 3 0 11 4 7 
6 8 26 4 2 3 2 9 19 34 66 54 32 3 32 25 29 29 29 29 
29 28 28 28 27 5 0 15 16 23 11 12 29 30 27 6 1 9 68 80 
62 53 113 113 55 4 8 11 29 30 29 26 23 20 18 16 14 22 27 25 
31 23 8 7 9 23 25 6 1 15 106 103 108 105 114 113 65 1 52 39 
22 21 19 20 21 23 23 23 22 18 27 18 0 15 2 2 1 25 24 10 
1 14 95 100 113 109 114 115 99 44 91 83 28 26 19 13 28 27 27 24 
23 8 3 6 2 11 0 9 1 26 14 19 1 9 65 111 107 101 110 116 
112 98 94 77 33 29 26 13 29 27 24 22 19 8 4 13 24 19 2 5 
0 18 6 26 4 10 63 95 96 97 108 114 114 100 92 42 31 30 27 26 
27 24 21 18 15 12 4 19 32 32 31 28 27 29 23 26 12 14 71 106 
90 89 102 108 109 94 66 34 30 30 28 28 25 22 18 16 13 20 32 32 
16 28 25 24 22 23 25 30 26 36 70 100 96 84 94 101 102 94 75 31 
29 24 25 28 24 20 16 15 13 17 24 23 0 16 2 11 9 7 4 18 
29 53 71 100 106 91 83 84 92 94 81 11 28 5 15 28 23 18 16 15 
14 12 12 14 1 13 0 10 10 5 6 24 56 75 77 104 110 103 93 76 
69 67 50 8 29 9 10 21 23 19 16 15 14 1 13 12 22 30 31 33 
29 36 25 79 73 91 81 105 111 104 94 50 54 26 5 8 29 6 3 10 
19 19 16 15 14 0 14 18 9 21 27 28 23 31 36 111 96 104 86 106 
113 104 100 93 108 108 108 84 60 10 7 16 18 18 16 14 13 0 13 16 
0 10 24 9 14 73 100 118 116 111 97 108 113 113 117 113 113 108 115 115 
115 104 57 11 11 19 15 13 13 0 11 8 0 11 37 81 118 114 102 118 
119 118 115 115 115 117 117 116 96 95 115 115 115 115 114 86 6 7 13 16 
16 0 10 13 27 62 112 119 119 116 102 111 119 119 118 118 117 117 117 115 
97 108 115 115 115 115 115 113 61 3 32 30 30 0 10 12 21 114 120 120 
120 119 114 99 119 118 118 118 117 117 117 116 114 114 116 116 115 115 115 115 
109 37 32 30 30 7 8 13 80 119 119 119 119 119 119 103 115 118 118 117 
117 117 116 116 116 115 115 115 115 115 115 114 111 99 32 30 29 0 4 41 
116 117 119 118 119 119 118 117 117 118 117 117 116 116 116 115 115 115 114 115 
115 114 114 114 112 113 56 28 28 2 11 103 119 117 118 118 118 118 118 118 
116 117 117 117 116 116 116 115 114 115 115 115 115 114 114 114 113 113 81 26 
