P2 
32 30
125
10 26 24 23 21 19 18 16 15 13 12 10 8 12 11 11 8 5 8 11 
13 13 15 16 17 18 20 21 22 23 23 24 24 26 24 23 22 20 18 17 
16 14 13 12 12 15 11 14 12 8 11 14 15 16 17 18 19 20 21 22 
22 23 23 23 24 25 24 23 22 21 19 18 17 16 15 13 15 17 13 15 
14 12 14 17 18 18 19 19 20 21 22 22 23 23 24 24 24 26 25 24 
22 21 20 19 18 17 16 15 17 19 13 18 16 14 17 19 19 19 20 21 
21 22 23 24 24 24 24 24 24 26 25 24 23 22 21 20 19 18 17 16 
18 20 16 18 15 15 19 20 14 19 22 22 23 23 24 24 25 24 24 25 
24 25 25 24 23 22 22 21 20 19 18 17 19 21 9 2 0 1 3 6 
7 5 12 23 24 24 25 24 25 25 25 24 25 26 25 24 24 23 22 22 
21 20 19 18 20 10 7 4 4 7 13 9 7 2 1 16 24 25 25 26 
25 25 25 25 25 27 26 26 26 25 24 23 23 23 21 21 20 14 5 12 
11 17 16 15 6 3 10 20 27 28 28 28 27 27 27 26 26 18 27 28 
27 26 25 25 27 24 23 21 19 12 6 11 15 20 23 15 16 7 13 25 
28 28 28 27 27 27 27 26 26 21 29 29 32 28 26 27 24 25 23 16 
5 1 1 7 21 27 43 51 44 40 51 32 27 28 27 27 28 27 26 26 
26 10 17 12 4 10 0 8 7 8 24 16 6 9 4 13 16 25 70 100 
85 63 69 43 28 28 28 27 28 27 27 27 26 4 1 3 0 11 3 7 
6 7 25 11 2 3 3 10 18 24 58 77 71 15 1 26 29 29 28 28 
28 28 28 28 26 4 0 15 16 23 11 12 29 30 26 16 0 4 39 101 
87 57 95 114 94 14 1 16 28 29 29 26 23 20 18 16 13 21 26 25 
30 23 7 6 8 23 25 15 1 4 61 108 105 105 112 114 107 25 18 86 
23 20 19 19 20 22 23 23 22 17 27 18 0 14 2 2 1 24 24 20 
0 4 49 105 103 108 109 114 114 89 75 102 52 25 19 13 27 27 26 24 
23 8 3 6 2 11 0 9 1 26 14 26 3 3 27 92 111 99 103 113 
115 108 84 76 40 29 26 13 28 26 24 22 18 7 3 13 24 18 2 5 
0 18 6 26 13 3 34 95 97 92 100 110 112 102 77 62 30 29 27 26 
27 25 21 18 15 12 4 19 32 33 32 28 27 29 23 26 21 4 50 93 
104 86 92 103 103 92 95 50 30 30 29 28 26 22 19 16 13 19 32 32 
16 28 25 24 22 23 25 30 28 26 65 85 105 93 83 91 98 94 96 51 
30 25 26 28 26 21 17 15 14 17 23 23 0 17 2 11 9 8 5 18 
29 39 75 83 110 102 89 81 80 85 88 50 28 6 16 29 24 20 17 16 
15 11 11 14 0 13 0 10 10 5 6 17 63 63 85 88 113 108 101 89 
72 51 38 17 29 9 11 22 24 20 17 15 14 1 13 12 21 30 31 33 
29 37 26 51 94 81 92 91 113 106 101 76 45 27 4 8 29 6 3 11 
20 19 17 15 14 0 15 18 8 21 28 29 23 31 34 90 107 103 98 95 
114 111 101 100 94 107 101 76 54 10 8 17 19 20 17 15 14 0 13 15 
0 10 24 9 22 79 103 114 118 115 106 99 114 112 116 116 112 111 112 115 
115 95 49 11 12 19 16 13 13 0 10 6 0 10 39 86 118 118 106 109 
118 118 117 112 113 114 116 116 114 87 109 115 114 114 114 86 7 7 12 15 
15 0 9 11 25 62 115 119 119 119 111 99 118 118 118 117 117 117 116 116 
113 87 111 115 114 115 114 113 66 3 32 30 30 0 9 10 18 106 119 119 
119 119 115 102 113 118 117 117 117 117 117 116 114 109 115 115 115 114 114 114 
109 36 31 30 29 7 7 12 80 117 118 119 119 119 118 111 110 118 117 117 
117 117 116 116 116 115 114 115 115 115 114 114 111 99 32 30 29 0 4 43 
114 119 117 119 119 119 118 118 117 118 118 117 117 117 116 116 115 115 115 115 
115 115 115 114 112 113 58 29 28 3 6 101 119 118 117 119 119 118 118 118 
117 117 117 117 117 117 116 116 113 116 115 115 115 115 115 114 113 113 83 26 
