P2 
32 30
127
10 26 24 23 21 20 18 16 15 13 12 10 8 12 11 12 8 5 7 10 
12 13 14 15 16 18 19 21 22 23 23 23 23 26 25 23 22 21 19 17 
16 15 14 13 13 15 12 15 12 9 11 14 15 16 17 18 19 21 21 22 
23 23 24 24 24 27 26 25 24 23 21 20 19 18 17 15 17 19 15 17 
16 13 16 18 19 19 20 21 22 23 24 24 25 25 26 26 26 27 26 25 
24 23 22 21 20 18 18 16 18 20 15 19 19 18 19 20 20 21 21 22 
23 23 25 25 25 26 26 26 26 27 26 25 25 24 22 22 20 19 19 18 
20 20 19 22 14 22 22 20 22 22 22 23 24 25 25 26 26 26 26 26 
26 27 26 26 25 24 23 23 21 21 19 18 18 11 24 25 13 7 10 15 
20 23 24 24 25 26 26 26 26 27 27 26 26 27 27 26 25 25 24 23 
23 21 21 20 9 6 18 27 28 26 32 27 19 30 25 25 26 27 27 27 
27 26 27 26 26 27 27 26 26 25 24 24 24 23 22 20 2 3 23 59 
98 104 94 57 19 27 25 26 27 27 27 27 27 27 26 26 26 18 27 28 
27 26 26 25 28 24 23 15 1 1 9 70 115 114 103 78 33 10 25 27 
27 28 27 27 27 27 26 26 26 22 29 29 33 29 27 28 25 26 24 16 
3 5 34 105 115 114 106 88 40 3 27 28 28 28 28 28 28 27 27 27 
26 10 17 12 4 11 0 9 8 8 25 19 5 47 97 112 115 115 102 80 
41 8 28 28 28 28 28 28 28 27 27 27 26 4 1 3 0 11 4 7 
6 7 25 21 5 45 61 52 77 73 53 59 41 15 28 29 29 29 29 28 
28 27 28 28 27 4 0 16 17 23 11 13 30 31 27 24 10 40 45 46 
64 68 54 42 44 38 29 29 29 30 29 27 23 21 18 16 14 23 27 26 
31 24 7 7 9 24 26 26 45 51 61 69 70 85 76 81 60 49 27 25 
23 21 20 20 22 23 24 24 22 18 28 18 0 14 2 2 1 25 25 28 
50 56 70 82 77 92 88 82 72 45 25 27 28 26 20 13 28 27 26 24 
22 9 3 6 2 11 0 9 1 26 14 28 47 59 95 105 68 78 100 101 
75 35 31 31 31 30 26 13 28 26 24 21 18 8 4 14 25 19 3 6 
0 19 7 28 31 50 89 100 89 94 95 97 66 32 31 31 31 31 28 27 
28 25 21 19 16 14 4 21 34 34 34 30 29 31 24 28 29 40 76 89 
75 80 84 91 55 32 32 32 32 32 31 30 27 24 20 17 15 20 33 33 
17 29 25 24 23 24 25 30 28 35 55 76 89 91 91 77 42 32 31 30 
30 25 26 29 26 21 17 15 13 17 24 23 0 16 2 11 9 7 4 18 
29 36 49 58 87 105 82 56 44 15 8 8 27 5 15 29 24 19 17 16 
15 12 11 14 0 13 0 10 10 5 5 16 32 51 65 53 60 72 59 72 
57 25 6 7 30 9 11 22 25 20 17 16 15 1 13 13 22 31 31 33 
29 37 25 25 74 62 84 79 77 84 88 96 71 80 3 7 30 6 3 11 
20 20 17 15 14 0 15 20 9 21 28 29 23 32 29 38 107 97 103 110 
106 111 114 109 96 111 87 68 54 11 8 17 19 20 17 15 14 0 14 18 
0 10 25 9 1 52 88 104 120 116 113 119 118 118 118 115 114 115 113 117 
116 105 51 16 13 21 16 15 14 0 13 11 0 12 29 48 103 121 118 106 
118 120 119 120 119 118 118 118 118 110 101 117 117 117 116 104 24 7 14 17 
17 0 12 17 30 41 94 121 121 121 118 105 112 120 120 119 119 119 118 118 
118 105 93 117 117 117 116 116 107 20 33 32 31 0 11 16 14 65 121 121 
121 120 120 116 104 120 119 119 119 119 118 118 117 107 113 117 117 116 116 116 
116 94 35 31 31 8 11 17 41 117 121 121 121 121 120 120 103 117 119 119 
119 118 118 118 117 117 115 117 117 117 117 116 116 114 70 32 31 1 8 19 
99 121 119 121 121 121 120 120 119 119 119 119 119 119 119 118 117 117 116 117 
117 117 116 117 116 115 102 32 30 3 6 44 116 121 119 120 120 120 120 119 
119 118 119 118 118 118 118 118 115 117 116 116 116 116 116 116 115 115 114 40 
