P2 
32 30
126
10 26 25 23 22 20 18 17 15 14 13 11 9 12 12 12 9 6 8 11 
13 14 14 16 17 18 20 21 22 23 23 24 24 26 25 24 22 21 19 17 
17 15 14 13 13 16 13 14 12 9 12 14 15 16 17 18 19 20 21 22 
23 24 24 24 24 26 25 24 22 21 20 19 17 17 15 14 16 18 13 16 
15 12 14 16 17 18 19 20 20 21 22 23 23 24 24 24 25 26 25 24 
23 22 21 19 18 18 17 15 17 19 14 18 19 17 18 19 19 19 20 21 
22 23 24 24 24 24 25 25 25 26 25 24 24 23 22 21 20 19 18 17 
19 19 22 16 13 18 19 19 21 21 22 23 23 24 24 25 25 25 25 25 
25 27 26 25 25 24 23 22 21 20 20 19 14 13 27 22 14 7 12 15 
22 22 23 24 24 25 26 26 26 26 26 25 25 27 26 26 25 24 24 23 
22 22 21 19 5 10 18 29 37 40 46 27 23 29 24 25 25 26 27 27 
26 26 26 26 25 26 26 25 25 25 24 24 23 22 21 15 1 5 26 71 
108 107 92 52 17 25 25 25 26 27 27 27 26 25 25 25 25 17 27 27 
27 25 25 24 27 24 22 9 0 1 10 81 114 112 102 75 26 10 26 26 
27 27 27 26 26 26 26 25 25 21 29 29 33 28 27 27 25 25 23 11 
2 9 53 112 114 114 108 84 30 9 27 27 27 27 27 27 28 26 26 26 
26 10 17 12 4 11 0 9 8 8 25 10 11 58 101 111 112 108 84 69 
31 15 28 28 28 28 28 28 28 27 27 27 26 4 1 3 0 11 4 7 
6 8 26 15 13 47 65 59 77 73 57 55 37 23 28 29 29 29 29 28 
28 28 28 28 27 5 0 15 16 23 11 13 30 30 26 16 9 44 43 50 
65 72 62 54 48 40 29 29 29 29 29 27 23 21 18 16 14 22 27 25 
31 24 8 6 9 24 26 28 44 56 66 75 70 90 75 86 62 44 26 25 
23 21 20 20 21 23 24 24 22 18 28 18 0 15 2 2 1 25 24 27 
53 61 73 90 75 94 95 90 78 40 25 27 28 26 19 14 28 27 26 23 
22 8 3 6 2 11 0 8 1 25 13 26 51 60 96 109 72 81 97 104 
74 31 29 30 29 28 25 12 27 24 22 20 17 7 3 13 24 19 2 5 
0 18 6 26 34 50 90 102 87 91 89 96 66 30 30 30 30 30 27 26 
27 24 20 17 14 12 4 20 32 33 32 29 27 29 22 26 27 39 75 93 
75 86 87 92 54 31 30 30 30 30 29 28 26 22 18 16 13 21 33 32 
16 29 25 24 22 23 25 30 28 35 57 80 93 98 97 78 42 32 31 29 
30 24 26 28 25 20 17 15 13 17 25 24 0 17 2 11 9 8 4 18 
29 38 50 58 82 106 88 56 44 15 8 9 28 6 15 29 24 20 17 16 
15 12 12 15 0 13 1 10 10 5 6 17 33 52 67 55 55 70 60 74 
58 29 6 7 29 9 11 22 24 20 17 16 15 1 13 13 22 31 31 33 
29 37 25 25 76 64 90 82 81 90 90 99 71 86 4 7 30 6 3 10 
20 19 17 15 14 0 14 20 9 21 27 28 23 31 28 38 108 96 104 109 
106 111 113 110 96 110 85 65 52 9 8 16 19 19 16 14 13 0 13 19 
0 10 25 9 2 53 87 103 119 116 114 118 117 118 117 115 113 114 113 116 
116 104 48 15 12 20 16 14 13 0 13 11 0 12 29 49 104 121 116 104 
119 120 119 119 118 118 118 118 118 115 104 116 116 116 116 104 26 8 14 17 
16 0 12 17 29 40 94 120 120 120 117 103 116 119 119 119 119 118 118 118 
118 111 83 115 116 116 116 116 109 24 33 31 31 0 11 16 14 66 120 120 
120 120 119 114 105 119 119 118 118 118 117 117 116 108 104 116 116 116 116 115 
115 97 35 31 30 8 11 16 44 116 120 120 120 120 119 118 100 117 119 118 
118 118 117 117 116 116 114 116 116 116 116 115 115 113 74 31 30 0 8 21 
101 120 118 120 120 119 119 119 117 118 118 118 118 117 117 117 116 116 115 116 
116 116 115 115 115 114 107 32 29 3 6 51 115 120 117 119 120 119 119 119 
118 116 118 118 117 117 117 117 115 116 115 115 116 115 115 115 114 114 114 48 
