P2 
32 30
123
10 24 22 21 19 18 16 15 14 13 11 9 8 11 10 10 6 4 6 8 
10 11 12 14 15 16 18 19 20 21 21 21 21 24 23 21 20 19 18 16 
15 14 13 12 12 15 11 13 10 7 10 12 13 14 15 16 17 18 20 20 
21 21 22 22 22 25 23 22 21 20 18 17 16 15 14 13 15 17 12 15 
13 11 12 15 16 16 17 17 19 19 20 21 21 22 22 22 23 24 23 22 
21 20 19 18 17 16 15 14 16 18 13 16 15 13 15 17 17 17 18 18 
19 20 21 22 22 22 22 22 23 25 24 23 22 22 21 19 18 17 17 16 
18 19 16 19 17 15 18 19 19 19 20 21 21 22 23 23 23 23 23 24 
23 25 24 24 23 22 21 21 20 19 19 16 6 15 15 16 16 13 12 17 
21 21 21 22 23 24 24 24 24 24 24 23 24 25 25 24 24 23 22 21 
21 22 11 7 17 26 21 20 19 10 6 8 14 22 23 23 24 24 25 25 
25 24 25 24 24 25 25 25 25 25 23 23 20 6 12 26 46 56 34 36 
30 11 2 8 7 23 24 24 25 26 26 26 25 25 25 24 24 17 26 27 
26 25 24 24 17 6 36 83 95 78 38 30 36 15 2 7 7 21 25 25 
26 26 25 26 26 26 25 25 24 21 28 29 31 28 26 26 19 10 67 94 
102 95 49 29 27 16 3 0 0 13 26 26 26 26 26 26 26 25 25 25 
25 10 16 11 4 10 0 8 15 16 71 95 107 104 63 30 18 13 1 0 
0 1 23 25 26 26 25 25 25 25 25 25 24 3 1 3 0 11 3 6 
5 23 82 88 104 110 101 34 17 24 31 3 1 0 24 26 26 26 26 26 
26 25 26 25 24 4 0 15 16 22 11 12 28 36 40 62 93 93 98 73 
58 92 101 20 2 4 27 27 27 27 27 25 21 18 16 14 12 21 26 24 
30 23 7 6 7 17 50 32 65 106 113 109 103 98 96 33 3 9 24 22 
21 19 18 18 19 21 21 22 20 17 27 17 0 14 2 2 2 23 58 46 
86 110 113 106 102 101 98 25 0 12 23 25 25 24 18 12 26 25 24 23 
22 8 3 6 2 11 0 8 1 51 94 67 93 112 113 103 97 101 80 35 
6 24 28 29 29 27 24 12 25 23 22 21 18 7 3 13 23 18 2 5 
0 57 90 83 102 112 111 100 88 95 92 39 11 29 28 28 28 28 25 23 
23 21 19 17 15 13 4 19 31 32 31 28 26 29 66 85 103 108 106 99 
82 95 88 55 17 29 29 28 28 28 26 24 21 18 17 15 13 21 33 32 
16 27 24 23 22 23 41 67 98 103 100 90 80 98 86 64 27 29 29 28 
28 23 22 23 19 17 15 14 12 19 26 24 0 16 2 11 9 7 22 76 
90 98 90 83 91 103 85 77 45 15 7 8 26 4 12 22 18 16 15 15 
14 11 12 15 1 12 0 9 9 5 20 83 88 74 76 94 103 107 88 87 
57 64 4 6 27 7 9 17 18 16 15 14 13 1 12 13 21 29 29 31 
28 35 26 46 52 50 73 98 107 109 90 92 86 97 31 6 27 4 2 8 
15 16 14 13 12 0 14 19 8 20 26 26 22 29 27 41 86 55 74 84 
102 110 94 98 105 105 107 101 77 26 6 13 14 15 14 13 12 0 12 17 
0 9 23 8 9 66 97 99 111 110 108 109 99 109 101 108 112 111 110 111 
112 112 80 37 9 17 14 12 11 0 11 10 0 10 30 62 111 116 115 101 
108 115 115 115 110 108 111 114 114 112 92 109 112 112 112 111 62 7 11 15 
14 0 10 14 26 36 92 116 116 116 113 106 102 115 115 115 114 114 114 114 
114 110 84 110 112 112 112 111 111 56 30 29 28 0 10 15 12 65 115 117 
117 117 116 111 101 114 116 115 115 115 114 114 114 110 105 113 113 113 113 113 
112 109 46 29 28 7 9 15 39 114 116 117 117 117 117 116 104 110 116 115 
115 115 115 114 114 114 112 113 114 113 113 113 112 111 91 30 29 0 6 15 
94 117 116 117 117 117 116 116 116 114 115 115 115 115 114 114 114 113 112 113 
113 113 113 113 112 112 112 40 28 2 5 23 110 117 116 116 116 116 116 116 
116 114 115 115 115 114 114 114 113 112 113 113 113 113 112 112 111 112 111 61 
