P2 
32 30
123
10 24 23 21 20 19 17 15 14 12 11 9 8 11 10 10 7 4 6 8 
10 11 12 13 15 16 18 19 20 21 21 21 22 25 23 22 21 19 18 17 
15 14 13 11 12 15 11 13 11 7 10 12 14 14 15 16 17 19 20 20 
21 22 22 22 23 25 24 22 21 20 19 18 17 15 14 13 15 17 13 15 
13 11 13 15 16 17 17 18 19 19 21 21 22 22 23 23 23 25 24 23 
22 21 20 19 18 17 16 15 17 19 14 17 16 14 16 17 18 18 19 20 
20 21 23 23 23 23 23 24 24 25 25 24 23 22 21 20 19 18 17 16 
19 18 17 20 19 16 18 19 20 20 20 22 22 23 23 24 24 24 24 24 
24 25 25 24 23 23 22 21 20 19 22 14 9 17 22 14 17 15 17 18 
21 21 22 23 23 23 24 24 24 24 24 24 24 26 25 25 24 23 22 22 
21 19 11 10 19 28 21 23 22 13 7 7 17 22 23 23 24 25 25 25 
25 25 25 25 24 26 25 25 25 24 23 23 21 4 15 44 73 70 45 31 
34 14 3 7 3 22 24 24 25 25 25 26 25 25 24 24 24 18 27 27 
26 26 25 24 24 5 48 89 100 96 48 25 37 20 2 6 10 20 26 26 
26 26 26 26 26 26 25 25 25 20 28 29 31 27 26 26 22 8 65 91 
102 104 62 32 25 15 4 1 1 15 25 26 26 26 26 26 26 25 25 25 
24 10 16 11 3 10 0 8 7 12 72 81 77 93 83 34 18 14 1 0 
0 5 26 26 26 26 26 26 26 25 25 25 25 4 1 3 0 11 4 7 
6 16 43 1 38 69 67 31 12 25 32 3 1 1 23 27 27 28 27 27 
27 26 26 26 25 4 0 15 16 22 11 12 28 5 8 0 47 110 109 88 
78 96 102 13 1 2 27 27 27 27 27 24 21 18 16 14 12 21 26 24 
29 23 7 5 7 10 34 0 47 108 113 108 105 98 94 20 2 9 24 22 
20 19 18 18 19 20 21 21 20 16 26 17 0 13 2 2 1 52 87 29 
84 113 113 104 104 101 88 16 0 13 22 25 25 23 17 11 25 24 24 22 
21 8 3 6 2 11 0 9 1 80 101 89 105 114 113 102 98 99 77 25 
3 25 29 30 30 28 24 11 25 23 22 21 18 8 3 14 25 19 3 5 
1 28 77 93 110 113 111 99 89 101 86 26 14 30 29 29 29 29 25 23 
23 21 19 18 15 13 4 20 32 32 32 28 27 31 61 81 108 109 107 94 
83 101 82 42 20 29 29 29 29 28 26 24 20 18 16 15 13 22 33 32 
16 28 25 23 22 23 51 84 97 103 97 85 88 103 79 52 29 30 29 28 
29 22 22 22 19 16 15 14 12 18 25 24 0 16 1 11 9 8 38 89 
92 85 80 89 98 103 79 72 38 13 6 8 26 4 12 22 18 16 15 14 
13 11 11 14 0 12 0 9 9 5 33 75 72 70 84 104 107 108 81 86 
66 27 4 6 27 7 8 16 18 16 14 13 12 1 13 13 21 30 30 32 
28 35 25 32 42 36 80 102 109 111 84 96 84 86 17 6 28 4 2 8 
15 15 15 14 12 0 13 19 8 20 26 27 22 30 27 48 104 54 86 90 
109 112 91 104 103 111 111 98 74 20 6 13 14 15 14 13 12 0 13 17 
0 9 24 9 11 64 88 104 115 105 106 110 104 112 101 112 113 112 111 113 
113 108 61 20 9 17 14 13 12 0 11 10 0 11 33 65 112 117 106 102 
116 117 116 116 110 114 114 115 114 85 107 113 113 113 112 103 28 6 12 15 
14 0 10 15 27 42 105 117 117 117 110 98 116 116 116 115 115 115 115 114 
112 90 111 113 112 112 112 112 103 15 30 29 29 0 10 14 14 75 118 118 
118 117 116 103 107 116 116 116 116 115 115 115 113 111 112 114 113 113 113 112 
111 77 31 29 29 7 10 16 51 115 116 117 117 118 117 109 106 116 116 116 
115 115 115 115 114 114 113 114 113 113 112 112 112 107 56 29 28 0 7 30 
105 117 114 118 117 117 117 116 115 116 116 115 115 115 115 114 114 114 113 113 
113 113 112 112 112 110 95 29 27 3 6 67 113 118 112 116 117 117 117 117 
116 115 116 116 115 115 115 115 113 114 113 113 113 113 113 112 112 111 111 45 
