P2 
32 30
127
10 26 25 23 21 20 18 16 15 14 13 10 8 12 11 12 8 5 7 10 
12 13 14 16 17 19 20 21 22 23 23 24 24 27 26 25 23 21 20 19 
17 16 15 13 14 16 13 15 13 10 13 15 16 17 18 19 20 21 22 24 
24 24 25 25 25 27 26 24 24 22 21 19 18 17 16 15 16 18 14 17 
16 13 16 18 19 19 20 20 21 22 23 24 24 25 25 25 25 27 26 25 
24 22 21 20 19 18 17 16 18 20 15 19 18 16 18 20 20 20 21 22 
22 23 24 25 25 25 25 25 25 27 26 25 24 23 22 21 20 19 18 17 
20 21 17 17 18 19 21 21 21 21 22 23 24 24 25 26 25 26 26 26 
25 27 26 26 25 24 23 22 21 20 19 19 20 19 11 18 19 23 23 23 
23 23 23 24 25 25 26 26 26 26 26 25 25 27 26 26 25 24 23 23 
22 21 20 19 19 5 14 43 92 85 61 23 27 24 24 25 25 26 27 27 
26 26 26 26 25 27 26 26 26 26 25 24 23 22 22 21 14 3 26 73 
85 82 70 41 33 31 25 26 26 27 28 27 26 26 26 26 26 18 27 28 
27 26 25 25 27 24 23 22 11 14 51 56 61 67 65 49 25 32 27 27 
27 28 27 27 27 27 26 26 26 21 29 29 32 28 27 27 25 25 23 23 
6 28 55 56 55 63 52 47 27 14 27 27 27 28 27 27 28 26 26 26 
26 10 17 12 3 11 0 8 7 8 25 22 3 34 63 63 62 81 68 79 
44 4 27 28 28 28 28 27 27 27 27 27 26 4 1 3 0 11 3 7 
6 7 26 23 1 44 77 88 72 90 86 89 68 7 28 29 29 29 29 28 
28 28 28 28 27 5 0 16 17 23 11 13 30 31 27 26 3 45 88 96 
89 85 93 91 76 21 29 29 29 30 29 27 23 21 18 16 14 22 27 25 
31 24 7 7 9 24 26 26 18 48 87 96 96 101 98 95 74 46 26 24 
22 21 20 20 21 23 23 23 22 18 28 18 0 14 2 2 1 25 24 27 
38 49 76 90 92 105 93 86 67 50 26 27 28 25 19 13 28 27 25 23 
22 9 3 6 2 11 0 9 1 27 15 28 41 52 66 72 78 98 81 65 
57 42 31 32 32 30 27 13 29 26 24 21 18 8 4 14 26 20 3 6 
0 19 7 28 31 33 50 58 57 72 59 53 38 26 32 32 32 31 29 27 
28 25 21 19 16 12 4 20 33 33 32 29 27 29 23 26 27 18 47 59 
65 84 66 65 48 31 30 30 30 30 29 28 26 21 17 16 14 19 32 32 
17 29 25 24 22 23 25 30 28 29 63 66 77 94 84 80 62 32 31 30 
30 25 25 28 24 20 17 15 13 16 23 22 0 16 2 11 9 8 4 18 
29 34 73 77 91 109 94 94 68 15 8 9 28 6 15 28 23 18 16 16 
15 12 11 13 0 13 0 10 10 5 6 17 32 57 84 92 96 109 102 103 
74 36 6 7 29 9 11 21 23 19 17 16 14 1 13 11 21 30 31 34 
30 37 26 26 67 76 94 106 109 114 112 110 84 91 8 7 30 6 3 10 
18 19 17 15 14 0 14 17 8 21 28 29 24 31 29 42 101 103 105 116 
115 118 118 115 104 110 99 81 64 16 7 17 18 18 16 15 14 0 13 15 
0 10 25 10 15 70 100 105 118 118 117 119 116 115 119 118 118 115 113 116 
117 112 63 24 11 20 16 14 14 0 12 8 0 11 39 80 119 121 119 108 
104 120 120 119 118 117 119 118 118 113 88 114 116 116 116 110 34 7 13 17 
16 0 10 13 28 45 111 121 121 121 120 113 103 120 120 119 119 119 118 118 
117 111 95 115 117 116 116 116 112 30 33 32 31 0 10 13 14 89 121 121 
122 121 121 119 97 118 120 120 119 119 118 118 117 116 112 117 117 117 116 116 
116 101 38 32 31 8 9 14 63 119 120 121 121 121 120 120 113 118 119 119 
119 119 118 118 117 117 117 117 117 116 116 116 115 113 77 32 31 0 5 26 
113 121 119 120 121 120 120 120 120 118 119 119 118 118 118 118 117 116 116 116 
116 116 116 116 114 115 107 31 29 3 5 51 116 121 119 120 120 120 120 119 
119 118 119 118 119 118 118 118 117 115 116 116 116 116 116 116 115 115 114 46 
