P2 
32 30
131
10 28 27 25 23 22 20 18 17 15 14 12 9 13 13 13 9 6 9 12 
14 14 15 17 18 20 21 23 24 25 25 25 25 29 27 26 24 22 21 20 
18 17 16 14 15 17 14 16 13 10 13 16 17 18 18 20 21 22 24 24 
25 25 25 26 27 29 28 27 25 24 23 21 19 19 18 16 18 20 15 18 
17 15 17 19 20 21 21 22 23 24 25 25 26 26 27 27 27 29 28 27 
26 24 23 22 21 20 19 18 20 22 17 21 20 18 21 22 22 22 22 24 
24 25 26 21 12 9 12 23 27 29 28 28 27 25 24 23 22 21 20 19 
22 24 20 16 16 17 22 23 23 24 25 25 26 27 24 5 0 0 0 8 
23 30 29 28 28 27 26 25 24 23 22 21 23 22 14 19 32 36 29 25 
25 25 26 27 27 28 18 2 11 6 0 0 6 30 29 28 28 27 26 25 
25 24 23 22 24 11 10 29 85 98 86 41 23 27 27 27 28 29 23 22 
36 18 1 0 0 29 28 28 27 27 26 25 24 24 23 22 22 2 16 57 
89 106 90 56 27 34 26 27 27 28 27 27 29 27 8 0 0 20 29 30 
29 28 27 26 29 26 25 24 19 3 17 9 1 40 8 4 18 28 28 29 
29 29 26 19 17 33 30 15 1 23 31 32 35 30 28 29 27 27 25 25 
12 7 3 11 5 76 26 0 0 13 26 29 30 30 29 32 36 39 31 17 
1 11 18 13 4 12 0 10 8 9 27 26 4 19 33 27 62 78 64 29 
18 2 26 30 30 31 31 26 24 32 27 22 7 5 1 3 0 12 4 8 
6 8 28 27 5 29 81 103 92 100 91 99 79 13 28 30 31 31 31 28 
19 14 15 22 15 5 0 17 18 25 13 14 32 33 29 28 10 33 88 109 
92 95 96 99 87 26 28 30 31 31 31 29 22 14 14 16 15 24 29 27 
33 26 8 7 10 25 28 28 37 52 89 109 95 103 101 100 89 49 23 23 
23 22 21 21 22 13 2 5 10 20 30 19 0 16 2 3 1 27 26 29 
39 53 80 95 83 111 104 82 82 51 20 24 27 27 20 14 29 14 4 10 
14 9 3 7 2 12 0 10 1 28 15 29 39 62 64 77 68 89 80 64 
64 50 27 28 30 31 28 14 28 9 5 14 15 8 4 15 28 21 3 6 
1 21 8 29 28 17 50 63 64 82 70 57 42 20 27 28 31 33 30 29 
23 7 10 17 16 14 4 22 36 36 36 32 31 33 25 30 30 23 61 68 
74 91 75 70 44 27 27 27 29 30 31 30 18 6 13 17 17 21 34 34 
18 31 27 26 24 25 27 32 31 34 77 75 84 100 87 79 55 27 26 25 
26 22 25 29 16 5 13 17 17 18 24 24 1 18 2 12 10 9 5 20 
32 38 84 85 93 112 96 94 56 13 6 6 23 3 13 27 16 3 13 17 
18 14 13 14 0 14 1 11 11 5 6 18 44 57 92 99 102 112 103 103 
71 15 4 4 24 6 8 19 16 4 11 16 17 1 15 12 22 32 33 36 
32 39 27 28 100 71 98 111 114 118 114 109 80 64 2 4 24 3 1 8 
13 5 12 17 14 0 15 17 8 21 29 30 24 33 30 53 119 93 105 119 
119 121 120 114 99 114 96 71 50 6 3 14 13 7 13 17 11 0 15 16 
0 11 27 11 11 65 92 114 123 120 116 123 120 120 123 122 119 120 119 121 
121 97 32 8 9 9 14 13 11 0 14 9 0 13 40 76 121 125 116 109 
125 125 124 124 121 122 123 123 122 95 116 121 121 121 120 85 7 5 12 11 
14 0 12 15 30 52 118 125 125 125 120 104 124 124 123 123 123 123 122 122 
120 97 118 121 120 120 120 120 83 7 11 13 14 0 11 15 16 90 125 125 
125 125 123 109 115 124 124 123 123 122 122 122 120 116 120 121 121 120 120 119 
117 37 5 8 12 9 10 16 63 123 123 124 124 124 124 116 116 123 123 123 
122 122 122 121 121 121 120 121 120 120 120 120 118 104 6 0 1 1 6 38 
115 125 120 124 124 124 124 123 122 123 123 123 122 122 122 122 120 121 120 120 
120 120 120 119 119 116 56 0 0 3 7 80 122 124 118 123 124 124 123 123 
122 122 123 122 122 122 122 122 119 120 120 120 120 120 120 119 118 117 104 1 
