P2 
32 30
133
10 17 12 15 28 26 26 24 23 22 22 21 20 19 20 25 21 19 20 18 
18 21 21 21 22 22 23 24 24 24 24 24 23 36 39 17 29 31 33 29 
26 24 26 25 21 20 21 25 19 20 21 19 20 22 22 22 23 23 24 23 
23 24 24 24 24 5 17 13 19 19 5 13 2 7 11 3 23 21 22 27 
22 21 22 20 20 23 23 23 23 23 24 24 24 24 24 24 24 2 9 6 
1 2 0 10 1 2 8 2 22 20 21 26 22 20 21 19 19 22 22 21 
22 22 23 23 23 23 23 23 23 17 22 6 0 10 12 20 9 9 24 22 
23 21 22 27 25 21 22 20 20 22 23 23 23 23 23 24 24 24 24 23 
23 12 22 16 24 24 30 27 6 3 5 17 22 18 25 37 39 40 27 20 
20 23 23 23 24 23 22 19 17 15 14 13 11 0 16 18 28 23 0 12 
2 1 1 19 15 19 72 96 96 77 44 22 16 16 14 15 16 16 17 18 
17 13 21 21 21 1 7 12 4 8 1 10 0 6 1 19 17 79 110 120 
121 121 104 36 17 20 21 23 23 24 24 21 14 10 23 23 24 12 26 12 
4 10 22 19 2 4 0 11 49 90 112 121 121 121 120 83 17 24 24 24 
24 25 25 24 20 16 24 24 23 4 26 16 4 15 30 31 29 25 23 11 
66 90 115 121 120 106 108 105 15 23 24 24 24 24 25 24 23 23 24 23 
23 0 22 22 36 35 16 24 24 20 20 11 65 73 76 108 109 96 95 88 
21 21 24 24 24 24 24 24 24 24 23 23 23 10 25 20 27 27 1 12 
3 8 10 18 83 73 55 89 115 69 84 97 37 21 24 13 9 13 20 5 
15 24 23 22 23 26 26 25 25 15 1 10 2 7 9 17 79 88 78 93 
114 109 114 89 68 43 24 5 2 6 19 3 13 24 23 23 23 0 0 0 
26 11 21 23 29 31 27 37 69 90 80 74 93 113 117 117 99 66 24 4 
0 6 20 2 7 20 23 22 22 0 0 0 25 21 8 12 24 25 19 60 
74 111 108 104 118 121 121 120 101 61 22 4 0 6 19 4 5 13 18 21 
21 0 0 0 22 20 1 6 23 8 0 51 77 103 99 91 102 112 120 120 
109 37 22 5 0 5 22 11 3 20 16 21 21 0 0 0 20 15 0 8 
24 8 2 34 70 98 87 95 108 121 121 119 62 17 21 15 3 6 11 11 
5 8 15 21 21 0 0 0 20 18 28 29 23 12 17 19 45 86 96 107 
122 122 119 101 33 16 19 8 4 18 22 22 23 7 1 5 35 0 0 0 
19 17 11 11 19 19 22 21 25 69 77 90 102 106 101 82 27 21 12 8 
3 18 23 26 26 8 3 15 26 18 19 22 22 17 11 14 20 20 22 22 
22 62 77 83 107 115 109 88 17 11 8 3 5 17 22 26 28 9 4 16 
24 27 17 3 2 21 15 8 19 21 21 21 20 69 84 88 103 111 113 95 
21 11 16 8 6 17 22 25 28 9 0 14 24 38 23 14 0 7 19 2 
12 18 16 19 36 71 93 94 108 117 118 103 53 18 13 4 2 5 7 7 
9 15 21 14 20 7 6 5 0 15 25 1 5 22 30 47 62 77 98 97 
108 117 122 104 84 78 72 43 12 1 1 0 0 1 0 3 12 16 20 14 
8 21 38 47 66 70 68 65 63 71 99 102 114 122 121 93 94 92 93 90 
82 57 23 0 0 0 0 0 0 28 19 11 8 21 75 83 88 91 87 87 
86 71 83 106 114 114 95 88 100 96 100 95 90 87 88 53 3 0 0 0 
0 24 7 27 38 55 90 87 92 93 90 95 90 90 76 77 83 84 89 96 
105 98 102 96 94 89 98 92 43 0 0 0 0 19 8 22 46 67 92 87 
95 96 96 97 93 97 93 88 90 95 101 101 106 98 101 98 97 86 97 95 
92 17 0 0 0 13 11 17 65 68 95 85 97 98 97 96 94 99 101 101 
101 103 102 103 103 96 100 101 92 88 96 96 101 77 2 0 0 21 14 38 
77 71 94 80 95 97 96 96 96 99 100 101 103 104 102 103 102 95 98 102 
87 91 94 96 101 99 42 0 0 23 11 59 82 73 92 75 96 97 97 96 
96 99 101 102 103 103 101 102 99 94 101 103 85 91 93 91 99 100 91 8 
