P2 
32 30
133
10 28 30 30 29 27 26 25 24 23 22 21 20 19 18 21 22 17 18 16 
14 17 19 19 20 21 21 22 23 23 23 23 24 19 14 15 24 29 27 27 
26 25 24 23 23 22 21 23 24 20 21 19 17 20 21 22 23 23 23 24 
25 25 25 25 25 34 38 31 22 29 35 32 29 26 26 31 27 22 21 23 
24 20 21 20 18 21 22 22 23 23 24 24 24 24 25 25 25 17 13 22 
18 28 15 14 14 9 18 6 12 22 22 24 24 22 20 20 19 21 22 22 
22 23 24 23 24 24 24 24 24 13 3 13 4 1 3 0 10 2 8 2 
10 23 22 24 26 25 20 21 19 22 23 23 23 23 24 24 24 24 24 24 
24 25 14 18 5 0 9 6 19 9 12 20 21 23 23 26 26 25 20 21 
20 22 23 23 24 24 24 24 25 25 25 25 24 33 21 25 18 17 28 40 
22 8 9 13 26 26 22 26 31 34 21 21 19 22 23 24 23 24 24 24 
21 21 16 15 14 23 4 19 23 33 16 2 15 1 2 10 26 24 16 18 
26 39 44 16 16 19 18 15 17 16 15 16 17 15 16 20 21 21 1 12 
10 10 8 0 11 1 10 27 32 25 17 21 35 46 50 23 15 15 20 21 
23 24 25 24 17 9 19 25 24 25 15 27 8 4 13 19 12 1 35 53 
61 53 35 43 48 54 41 20 18 21 24 25 25 25 25 25 24 14 21 24 
24 23 7 30 12 0 23 34 30 21 81 106 121 122 112 82 57 41 21 10 
14 22 23 24 24 24 24 24 23 21 23 24 23 23 0 29 29 38 33 20 
32 36 93 116 124 123 123 122 72 28 14 5 9 22 23 24 24 24 24 24 
23 24 23 24 23 24 6 28 25 31 22 1 18 26 95 116 125 125 124 124 
111 36 14 5 7 23 24 23 14 12 20 15 8 23 24 24 23 33 32 31 
30 17 18 1 12 33 93 95 83 106 107 125 109 57 54 86 8 22 24 20 
2 0 14 12 2 22 24 23 23 0 0 0 7 21 18 19 20 27 51 71 
63 68 80 85 107 109 105 112 18 21 24 20 0 0 14 12 2 16 24 23 
23 0 0 0 5 26 21 12 19 21 43 95 92 87 84 124 125 123 117 98 
20 22 24 20 0 0 14 12 6 8 19 23 23 0 0 0 3 31 20 0 
14 38 88 125 101 98 111 126 125 125 121 75 37 24 23 20 0 0 14 18 
9 13 18 23 23 0 0 0 2 27 11 1 15 48 88 103 108 108 124 125 
124 123 107 51 34 25 18 20 7 1 8 12 4 6 10 21 22 0 0 0 
1 27 22 30 33 33 77 98 123 104 111 125 123 118 106 35 37 29 14 15 
3 11 18 19 21 13 1 8 26 0 0 0 1 27 18 12 14 23 66 67 
104 120 123 125 122 118 105 29 48 31 17 10 3 12 20 24 26 17 1 6 
30 17 17 21 22 24 15 13 17 21 42 74 111 127 125 119 116 122 111 21 
25 19 8 5 2 12 18 23 25 17 5 7 24 29 27 12 4 5 24 12 
12 22 23 66 113 117 115 117 121 125 117 22 7 9 9 12 1 13 17 21 
24 16 0 6 23 43 36 16 13 1 12 17 1 21 20 23 62 88 107 116 
124 126 117 76 37 8 4 10 0 5 7 9 10 7 34 10 17 6 8 6 
4 1 26 17 1 19 31 46 62 80 80 107 124 126 118 93 89 86 64 33 
4 1 1 0 0 1 0 2 8 14 19 23 12 12 31 50 48 47 51 54 
60 83 100 107 124 125 113 93 99 99 94 88 78 47 10 0 0 0 0 0 
0 26 28 15 11 16 74 85 88 86 83 82 80 68 96 114 119 109 90 97 
103 102 100 97 88 91 84 28 0 0 0 0 0 29 18 6 47 57 91 89 
94 95 91 94 90 89 77 81 85 89 97 104 105 104 98 101 91 101 98 86 
13 0 0 0 0 25 13 10 47 67 95 90 98 99 97 97 94 97 93 91 
94 101 106 106 105 104 97 103 86 105 97 96 72 1 0 0 0 18 14 13 
63 69 96 87 98 99 98 96 93 101 101 101 103 106 102 105 103 102 96 104 
83 104 95 99 101 39 0 0 0 27 22 27 78 74 93 80 96 99 97 96 
94 102 100 102 104 104 102 102 103 99 96 101 85 98 96 98 102 90 9 0 
