P2 
32 30
127
10 28 31 30 29 28 27 26 24 23 22 21 20 19 18 21 22 19 19 17 
15 18 19 19 20 20 21 21 22 23 22 22 23 18 13 13 23 28 27 26 
25 24 23 22 21 20 19 22 23 20 21 19 17 20 20 21 21 21 22 22 
22 23 23 22 23 33 38 31 21 29 34 31 28 25 24 29 25 21 20 23 
23 20 21 20 18 20 21 22 22 22 22 22 22 22 22 23 22 17 13 22 
17 27 15 13 13 8 17 6 11 21 21 23 24 22 20 20 18 21 22 22 
22 22 22 22 22 22 22 23 23 13 3 13 4 1 3 0 10 2 8 2 
10 22 22 24 25 24 20 21 19 22 23 22 22 23 23 23 23 23 23 23 
23 25 14 18 5 0 9 6 18 9 11 19 21 22 21 24 24 24 20 21 
19 22 23 23 23 23 23 23 23 23 23 23 23 34 21 26 18 17 28 40 
23 8 9 13 23 18 12 28 40 29 18 21 20 23 24 24 24 24 25 24 
21 20 16 15 14 23 4 20 23 33 17 2 17 2 2 4 18 5 20 58 
43 55 28 11 16 19 18 16 18 17 16 15 16 15 16 20 20 21 1 12 
10 10 8 1 11 1 7 1 2 7 38 89 68 67 35 11 8 16 20 22 
23 24 24 24 17 8 18 23 23 26 15 26 8 4 12 19 13 0 4 0 
8 59 108 118 118 115 101 38 5 21 23 24 24 24 25 24 23 13 20 23 
22 24 7 30 12 0 23 34 32 26 22 7 46 101 118 118 118 118 118 106 
11 19 23 24 24 24 24 24 23 21 22 23 22 24 0 28 28 37 33 21 
32 27 25 8 63 107 119 119 118 118 118 117 29 19 23 24 24 23 23 23 
23 22 22 22 22 24 6 27 24 30 21 1 17 0 15 4 70 107 118 119 
118 117 114 116 33 19 23 22 14 11 18 14 7 21 22 21 21 33 32 31 
30 17 18 1 13 0 15 18 68 84 78 102 119 98 98 113 49 41 24 21 
2 1 14 12 3 21 23 22 22 0 0 0 8 22 18 20 29 29 33 37 
54 65 65 82 116 100 80 90 63 57 25 21 1 1 15 12 3 16 24 23 
23 0 0 0 5 26 20 12 24 28 25 57 80 99 118 98 120 119 119 104 
93 45 24 20 0 0 14 11 6 7 18 22 21 0 0 0 3 31 19 0 
16 20 9 40 78 105 113 90 110 116 118 112 110 27 22 20 0 0 13 17 
9 11 17 22 21 0 0 0 2 28 11 1 17 21 9 10 76 111 118 98 
115 118 119 119 77 25 19 21 9 1 8 12 4 6 10 21 21 0 0 0 
1 29 22 30 35 19 17 17 53 105 115 107 108 113 118 118 52 26 14 16 
3 11 18 18 20 13 1 9 25 0 0 0 1 29 17 13 18 24 23 24 
35 95 102 92 109 118 120 104 33 27 17 10 3 11 19 22 24 15 1 6 
30 17 19 22 23 24 14 12 20 21 22 23 14 64 96 115 121 121 110 68 
25 16 9 6 2 12 17 22 23 15 6 7 23 30 28 14 5 4 24 12 
13 22 22 23 8 61 83 87 95 102 104 69 14 5 10 12 2 11 15 20 
22 15 0 6 22 43 39 17 13 1 11 16 1 20 19 21 31 67 96 86 
89 100 116 93 48 9 4 9 0 5 7 9 9 7 32 9 16 5 9 5 
4 1 26 18 0 12 26 45 69 84 107 101 105 118 120 103 90 88 67 39 
7 0 1 0 0 1 0 2 7 13 19 22 10 14 29 55 61 64 69 71 
79 87 111 120 121 121 118 97 108 104 103 96 87 57 16 0 0 0 0 0 
0 27 33 20 11 12 73 95 99 101 100 102 102 87 100 120 119 112 98 105 
111 108 109 106 99 100 94 38 0 0 0 0 0 32 24 9 42 63 100 104 
107 108 106 110 102 104 89 91 95 99 104 111 114 110 110 109 101 108 105 96 
21 0 0 0 0 32 19 11 36 77 107 105 108 111 110 110 105 110 106 103 
105 110 114 114 114 110 109 111 97 111 106 105 85 2 0 0 0 19 21 14 
66 86 107 102 108 112 111 108 107 113 113 113 114 115 112 115 113 109 110 111 
97 110 106 108 109 49 0 0 0 29 26 30 92 94 101 96 106 110 109 107 
109 113 113 112 114 114 112 114 112 107 109 110 98 106 106 105 109 100 13 0 
