P2 
32 30
125
10 29 31 31 29 28 27 26 25 23 22 21 20 19 18 21 23 19 20 19 
17 19 20 20 21 21 21 22 23 23 23 23 24 18 13 14 23 28 27 26 
25 23 22 21 20 19 19 21 23 20 21 19 17 20 21 21 21 21 22 22 
22 23 22 22 23 32 36 29 20 27 32 29 26 23 22 27 24 18 18 20 
22 18 19 19 17 20 21 20 20 20 21 21 21 21 21 21 21 16 13 22 
16 26 14 12 13 8 16 5 11 20 20 22 23 21 19 20 19 21 22 21 
22 22 22 22 22 21 22 22 22 13 2 12 4 0 3 0 10 2 7 2 
9 21 21 23 25 24 20 21 19 22 23 22 22 22 23 23 23 22 22 22 
22 25 14 18 5 0 9 6 18 8 11 19 21 22 22 24 25 25 20 21 
20 23 23 23 23 23 23 23 23 23 23 23 23 33 21 25 18 17 27 39 
22 7 9 12 23 22 20 23 29 28 17 19 21 23 24 24 24 24 24 23 
22 20 16 15 14 23 4 19 22 32 16 2 16 1 2 4 24 13 22 32 
29 29 59 29 14 20 19 16 17 17 16 15 17 15 16 19 20 21 1 12 
10 10 8 0 10 1 7 1 12 5 17 31 33 35 74 68 18 16 20 22 
23 24 24 24 17 9 18 23 23 25 15 26 7 4 12 18 12 0 4 0 
1 4 14 38 69 101 116 115 101 35 23 24 24 24 24 24 23 13 20 23 
22 23 7 30 11 0 23 34 31 26 22 11 1 6 20 93 117 117 117 117 
117 83 23 24 24 24 25 24 23 21 23 23 22 24 0 29 28 37 33 21 
32 27 25 13 1 3 44 114 118 118 118 118 118 103 26 25 25 24 25 24 
24 24 23 23 23 24 6 27 24 30 22 1 17 0 16 3 1 4 63 111 
119 119 118 118 118 115 27 23 15 12 19 16 8 22 23 23 22 32 31 30 
29 16 17 0 12 0 14 5 29 14 93 115 98 105 103 108 113 91 30 21 
2 1 14 11 2 21 22 22 21 0 0 0 7 20 16 19 27 27 30 38 
88 41 68 70 74 78 79 99 103 66 28 31 0 0 14 12 2 15 22 22 
21 0 0 0 5 25 19 11 22 26 24 31 86 81 94 114 89 117 117 108 
112 112 37 26 0 0 13 11 6 7 17 21 21 0 0 0 3 29 18 0 
15 19 8 4 82 93 91 101 108 117 118 111 117 114 50 19 0 0 12 16 
9 11 16 21 20 0 0 0 1 26 9 1 15 20 8 8 34 85 91 98 
119 119 116 101 108 117 54 20 8 1 7 11 4 6 9 20 20 0 0 0 
1 29 22 30 36 19 18 19 13 47 90 101 120 120 120 118 113 117 41 17 
3 12 19 19 21 13 2 10 26 0 0 0 1 28 17 13 19 24 25 16 
15 33 88 98 112 120 110 103 103 99 22 11 3 12 20 23 25 16 1 6 
30 17 18 22 23 24 14 12 19 21 28 17 22 29 94 92 96 112 119 117 
118 50 10 6 2 12 17 21 23 15 5 7 23 30 28 13 5 4 23 12 
14 24 29 8 19 40 100 95 90 92 97 99 69 6 10 12 2 12 16 20 
23 16 0 6 22 42 39 17 12 1 11 16 1 23 15 5 25 52 101 103 
95 98 98 101 50 10 4 10 0 5 7 9 9 7 32 9 16 5 9 5 
4 1 26 17 2 23 32 48 67 81 103 112 108 98 100 111 89 72 58 31 
5 1 1 0 0 1 0 2 7 13 19 21 9 13 33 66 82 88 88 86 
91 86 101 115 119 118 119 99 102 100 100 94 84 52 14 0 0 0 0 0 
0 27 33 19 10 15 80 97 101 104 103 104 103 95 87 110 117 113 99 98 
110 104 108 103 98 97 92 38 0 0 0 0 0 31 23 9 42 65 101 104 
107 108 108 109 104 106 95 91 95 97 101 109 113 106 109 107 104 103 104 95 
21 0 0 0 0 31 19 10 39 76 106 105 108 110 110 108 106 110 108 102 
103 108 113 111 112 107 107 109 99 105 104 102 85 3 0 0 0 19 20 12 
69 84 105 103 107 111 109 107 107 111 112 111 112 114 112 112 110 107 107 112 
96 106 104 106 106 52 0 0 0 28 25 31 91 93 100 98 105 110 108 108 
108 111 112 111 113 114 112 112 111 106 107 112 97 105 104 104 107 100 16 0 
