P2 
32 30
137
10 18 13 16 29 28 28 26 25 24 24 22 21 20 20 26 22 20 21 20 
20 23 23 23 24 24 25 25 26 26 26 26 25 38 42 18 31 33 35 31 
27 25 27 26 21 20 21 26 19 21 22 20 21 24 24 24 24 25 25 25 
25 25 26 26 25 5 18 13 20 20 5 14 2 8 11 3 23 21 22 27 
23 21 23 21 22 25 25 25 25 25 26 25 25 25 26 26 25 3 9 7 
1 3 0 11 2 3 9 2 24 22 23 28 23 21 23 21 22 25 25 25 
25 26 26 26 26 26 26 26 26 19 24 7 0 11 13 21 10 9 26 24 
25 22 24 28 25 23 22 21 22 25 25 25 25 26 26 26 26 26 26 25 
26 13 24 18 26 25 32 28 7 4 6 19 23 20 25 30 23 18 29 24 
20 26 25 25 26 26 24 22 20 18 16 14 13 0 18 20 29 25 0 13 
2 1 1 21 20 15 29 29 23 21 27 55 27 18 17 18 18 18 19 21 
19 16 23 24 24 1 8 13 4 8 1 11 0 7 1 21 4 12 26 35 
37 36 61 99 89 37 23 25 26 27 27 23 16 11 27 26 26 14 28 13 
4 11 24 20 2 4 0 12 1 7 22 31 64 105 123 126 126 116 29 27 
27 27 27 27 23 18 26 26 26 5 28 18 4 16 33 33 31 28 25 12 
0 4 12 42 110 125 126 127 126 126 56 27 27 27 28 27 26 26 27 27 
26 0 24 24 38 38 17 27 27 22 22 7 0 3 11 70 120 126 127 127 
127 126 76 28 27 27 27 27 27 27 27 26 26 11 26 21 28 28 0 13 
4 8 10 0 0 1 14 92 120 123 114 110 118 125 86 15 10 13 21 6 
17 25 24 24 24 27 27 26 26 15 1 10 2 7 10 0 42 26 10 18 
27 29 45 43 36 95 43 7 2 7 21 4 15 26 25 25 24 0 0 0 
27 12 22 24 31 33 28 20 82 71 61 93 88 35 9 4 1 19 4 0 
1 7 22 3 8 23 26 25 25 0 0 0 27 23 8 14 26 27 20 27 
59 79 85 93 100 62 2 0 8 92 10 0 1 7 22 6 6 16 22 25 
24 0 0 0 25 22 1 7 24 8 0 22 36 93 90 91 85 72 9 1 
47 105 25 1 0 6 25 14 3 24 20 25 24 0 0 0 22 17 1 9 
27 10 2 17 14 72 83 93 95 107 90 95 117 119 84 16 4 7 13 12 
6 9 18 24 24 0 0 0 22 21 31 33 25 14 20 25 18 48 82 93 
101 119 127 126 118 107 94 9 5 21 25 26 27 9 2 6 39 0 0 0 
22 20 14 13 22 22 25 27 7 39 89 91 96 110 124 119 113 112 63 11 
5 21 27 29 30 10 3 18 31 20 21 24 24 18 12 15 20 21 23 20 
4 34 94 94 91 96 110 123 128 116 20 4 5 18 24 28 30 10 4 17 
27 30 19 4 2 23 17 8 20 23 18 9 13 38 97 99 92 95 99 93 
91 36 19 10 7 20 24 28 31 10 0 16 26 41 26 15 0 7 21 3 
14 20 11 13 43 57 98 105 102 100 100 97 71 37 28 6 2 6 8 9 
10 16 22 15 22 8 6 6 0 16 27 21 40 52 55 59 63 77 98 111 
112 105 97 108 80 73 77 75 53 28 4 0 0 0 0 4 13 18 23 15 
9 24 62 83 89 94 93 92 89 74 90 109 120 122 124 95 95 96 97 93 
91 92 77 16 0 0 0 0 1 31 22 13 9 40 88 92 96 97 98 97 
95 89 74 92 106 103 90 92 103 101 102 96 99 98 102 78 12 0 0 0 
0 26 9 30 46 71 96 90 98 97 99 99 99 98 93 89 89 90 95 101 
108 104 101 102 100 98 103 86 70 1 0 0 0 20 9 24 61 73 98 86 
98 99 102 101 101 102 103 97 99 103 107 103 106 105 96 108 96 98 93 93 
101 42 0 0 0 16 14 32 76 70 101 82 99 99 103 103 103 105 106 107 
108 110 104 108 107 107 98 111 97 99 90 95 103 96 14 0 0 25 18 62 
82 74 96 76 101 97 105 105 105 106 107 108 110 108 107 110 108 100 105 110 
97 99 92 90 104 104 71 1 0 27 32 74 85 82 86 73 103 92 104 103 
104 105 106 107 108 106 108 107 102 102 108 107 97 95 94 83 101 103 99 38 
