P2 
32 30
142
10 18 13 17 30 28 27 26 25 24 25 22 21 20 21 26 22 20 21 20 
20 22 22 23 23 24 25 25 25 26 25 25 25 37 41 18 30 32 34 30 
27 25 26 26 21 20 21 26 19 20 22 20 20 23 23 23 24 24 24 24 
24 24 25 25 25 5 18 13 20 19 5 13 1 7 11 3 23 21 22 28 
23 21 23 21 21 24 24 23 24 24 25 25 24 25 25 25 25 3 9 7 
1 3 0 11 2 3 8 2 24 22 23 28 24 22 23 21 21 24 24 24 
24 25 25 25 25 25 25 25 25 19 24 7 0 11 13 21 10 10 26 24 
25 23 24 29 27 23 24 22 22 25 25 25 25 26 26 26 26 26 25 26 
26 13 24 18 26 26 32 29 8 5 6 19 24 19 34 52 56 40 27 22 
22 25 24 25 26 26 23 21 19 17 15 14 13 0 17 19 28 24 0 13 
2 1 1 20 18 39 94 115 118 104 54 22 16 17 15 16 16 17 18 19 
18 14 21 22 22 1 8 13 4 8 1 10 0 7 1 20 27 91 115 124 
124 123 110 40 16 21 22 23 24 25 25 21 14 10 25 25 24 13 26 12 
4 10 23 20 2 4 0 12 58 92 116 123 122 89 64 37 21 24 25 25 
25 26 26 25 21 17 25 24 24 4 27 16 4 16 32 32 30 26 23 14 
17 4 17 59 40 9 2 1 17 25 25 25 25 26 26 26 24 25 25 25 
25 0 23 23 37 36 16 26 25 20 20 6 0 9 5 27 33 1 2 16 
13 25 25 25 25 25 25 25 25 25 25 24 24 11 27 22 29 29 0 13 
4 8 10 3 25 8 0 65 93 4 5 77 30 27 27 15 11 14 22 7 
18 26 26 25 25 28 27 27 27 16 1 11 2 8 11 14 41 13 28 76 
99 87 74 98 80 43 27 6 2 7 21 5 15 26 25 25 25 0 0 0 
28 12 22 24 31 33 29 42 72 106 115 102 120 123 125 124 107 55 26 5 
0 7 22 3 8 22 25 24 24 0 0 0 27 23 8 14 26 27 22 75 
80 110 106 97 108 115 124 125 108 45 25 5 0 6 21 6 6 15 20 24 
23 0 0 0 24 22 1 7 24 8 0 58 77 106 104 104 116 125 124 123 
99 24 24 5 0 6 25 13 3 23 19 24 23 0 0 0 22 16 1 8 
26 9 2 33 66 95 103 112 126 125 123 113 40 19 22 16 4 7 12 12 
6 8 16 23 23 0 0 0 22 20 30 32 25 14 19 21 35 79 82 91 
105 111 107 84 30 18 21 9 5 21 24 25 26 8 1 6 37 0 0 0 
21 20 13 13 22 22 24 23 23 65 78 90 114 122 115 89 29 23 14 10 
4 20 26 28 28 10 3 17 29 19 20 23 24 18 12 15 21 21 23 23 
23 72 83 93 111 120 119 95 17 12 9 4 5 19 24 28 30 9 4 17 
26 29 18 4 2 23 16 8 19 22 22 22 22 77 92 100 118 125 124 101 
17 9 16 9 6 19 23 27 28 9 0 15 25 40 24 14 0 7 20 3 
13 20 18 30 52 75 97 102 120 125 126 109 74 65 55 29 6 5 8 8 
9 15 22 14 21 7 7 6 0 16 27 27 51 60 63 60 65 77 104 108 
123 127 125 98 91 98 98 95 83 62 27 0 0 1 0 3 13 18 22 15 
9 24 62 84 91 96 94 92 85 73 100 110 123 124 103 92 101 107 103 100 
94 97 95 46 0 0 0 0 1 30 21 13 9 40 84 95 95 97 97 94 
93 85 78 86 92 88 91 100 108 107 105 95 103 99 106 89 32 0 0 0 
0 26 9 30 45 75 89 95 95 98 98 98 98 97 89 90 91 95 102 107 
109 107 101 102 103 99 105 90 90 9 0 0 0 21 11 25 58 80 91 92 
95 100 102 101 102 102 103 100 102 107 107 109 106 107 97 109 101 100 93 89 
102 66 0 0 0 15 13 28 67 76 91 87 94 99 101 102 103 104 104 104 
106 108 107 106 106 103 103 107 99 99 83 83 101 100 33 0 0 23 15 53 
73 65 88 79 94 95 101 102 103 103 104 104 106 106 105 104 104 98 106 105 
98 99 77 73 99 101 87 9 0 25 23 69 79 68 83 74 96 90 100 101 
102 103 103 104 105 106 105 105 98 105 104 103 97 96 79 67 96 101 98 62 
