P2 
32 30
147
10 19 14 17 30 29 28 27 26 25 25 23 22 21 22 27 23 21 22 20 
20 23 23 24 24 24 25 26 26 26 26 26 25 38 42 18 31 33 35 31 
28 26 27 27 22 22 22 27 20 21 22 20 21 24 24 24 24 25 25 25 
25 25 25 26 26 5 19 14 20 20 5 14 2 8 12 3 24 22 23 28 
23 22 23 22 22 24 25 24 25 25 26 25 25 25 26 25 25 3 10 7 
1 3 0 11 2 3 9 2 25 22 23 27 24 22 23 21 21 25 24 24 
25 25 25 26 25 25 26 25 26 20 24 8 0 11 14 22 11 10 27 25 
26 23 23 23 26 24 23 22 23 26 26 26 27 27 27 27 27 27 27 27 
27 14 25 19 27 27 34 30 9 6 8 20 25 19 10 25 44 41 35 20 
24 26 26 26 28 28 25 23 21 20 17 16 15 0 19 20 30 26 0 14 
3 2 1 22 17 3 11 43 68 49 49 22 14 19 17 18 18 19 20 21 
20 16 24 24 24 1 8 14 5 9 2 11 0 8 1 22 4 15 62 108 
119 112 89 44 9 19 24 25 26 27 27 23 16 11 27 26 26 14 28 14 
4 11 24 21 2 5 0 16 6 60 100 122 127 127 126 118 34 15 26 27 
27 27 27 27 22 18 27 26 26 5 28 18 4 16 33 33 31 28 25 17 
15 82 106 125 127 126 126 126 84 11 27 26 26 26 27 27 25 26 26 26 
26 0 24 24 39 38 17 27 27 22 22 12 29 90 115 127 127 127 127 127 
97 10 26 27 27 26 27 26 26 26 26 25 25 11 27 23 30 29 1 13 
4 8 10 2 29 63 32 55 115 107 62 55 91 34 28 15 11 14 22 7 
18 27 26 25 25 28 27 27 27 16 1 10 2 8 11 20 11 35 1 0 
29 24 0 7 40 40 28 7 3 7 22 5 16 27 26 26 25 0 0 0 
28 12 23 25 32 33 29 47 20 3 0 0 54 35 0 1 7 54 28 6 
1 7 22 3 8 23 26 25 25 0 0 0 27 24 8 14 26 27 21 53 
48 1 0 9 101 89 8 6 15 65 25 5 0 6 22 6 6 16 21 25 
24 0 0 0 25 23 1 7 25 9 0 33 76 70 74 75 84 103 84 73 
96 57 25 6 0 6 25 13 3 24 20 25 24 0 0 0 23 17 1 9 
27 10 2 22 51 96 120 116 118 124 128 128 108 24 24 17 4 7 13 13 
6 9 18 24 24 0 0 0 23 21 32 34 26 15 21 22 35 89 107 88 
104 112 119 128 85 20 22 9 5 22 26 26 27 9 1 7 39 0 0 0 
23 20 14 14 23 23 25 24 25 73 98 102 111 122 129 121 50 25 16 11 
5 22 27 30 30 10 3 18 31 21 22 25 25 19 14 16 22 23 25 25 
24 58 82 96 119 127 115 89 21 14 11 4 6 20 26 30 31 10 5 18 
28 31 20 5 2 24 18 9 21 24 25 24 23 62 85 84 86 100 108 85 
17 11 18 10 7 21 25 29 31 10 0 17 27 41 26 15 0 7 21 3 
13 20 18 28 50 66 97 88 87 98 114 106 57 37 27 6 2 5 8 9 
9 16 23 15 22 8 7 6 0 16 27 18 32 40 45 55 64 79 106 105 
106 118 128 104 85 92 91 81 52 26 3 0 0 1 0 4 13 19 24 16 
10 24 61 84 89 89 86 83 79 74 104 118 126 130 122 92 101 100 101 97 
93 93 75 13 0 0 0 0 1 31 23 14 10 39 88 93 97 97 99 99 
94 82 80 104 112 105 91 97 106 104 104 100 99 99 103 76 9 0 0 0 
0 28 10 31 47 71 98 91 98 97 101 101 99 98 90 87 90 93 98 105 
109 107 103 106 99 101 102 90 67 0 0 0 0 22 10 25 62 75 99 87 
99 100 103 102 102 103 101 97 99 105 109 107 108 108 99 110 96 102 93 96 
102 38 0 0 0 16 14 31 76 70 101 81 97 99 103 103 103 105 106 107 
107 110 104 109 107 107 100 110 95 100 89 95 104 94 11 0 0 25 17 61 
82 75 95 75 98 98 104 104 104 106 107 107 109 109 106 109 107 100 104 109 
96 99 92 90 104 104 67 0 0 27 32 75 86 83 85 74 100 92 103 104 
104 105 106 107 108 107 108 107 102 103 108 107 96 94 94 83 101 104 99 35 
