P2 
32 30
127
10 28 30 30 29 28 26 25 24 23 22 20 19 18 18 21 22 18 19 17 
15 18 18 19 19 20 20 21 21 22 22 22 22 17 12 13 22 27 26 25 
24 23 22 21 20 19 18 21 22 19 20 18 15 18 19 19 20 20 20 21 
22 22 21 21 22 33 37 30 21 29 34 31 28 25 24 29 26 21 20 22 
24 20 21 19 17 20 22 21 22 22 22 22 22 22 22 23 23 17 14 23 
18 28 16 14 14 9 18 6 12 22 22 24 25 23 21 21 20 22 23 23 
23 23 23 23 23 23 23 23 23 13 3 13 4 1 3 0 10 2 8 2 
10 22 22 24 25 24 20 21 19 22 23 23 23 23 23 23 23 23 23 23 
23 26 14 18 5 0 9 6 18 9 11 20 21 22 22 23 23 25 20 21 
20 23 23 23 23 24 24 23 24 24 23 23 23 33 21 25 18 17 28 40 
23 8 9 12 22 13 16 37 37 23 17 22 19 22 23 24 24 24 24 23 
21 20 15 14 13 23 4 19 22 32 17 2 15 1 2 4 10 7 38 51 
50 46 17 10 16 18 18 15 17 16 16 15 16 14 15 19 20 21 1 12 
10 10 8 0 11 1 7 0 2 15 61 75 65 54 23 8 11 16 20 22 
23 24 24 23 16 8 18 22 23 26 15 27 8 4 13 19 13 0 4 1 
18 75 114 117 117 111 86 17 9 22 23 24 24 24 25 24 23 13 20 23 
22 24 7 30 12 0 24 34 32 26 22 6 72 111 119 119 118 118 118 74 
6 23 24 24 24 24 24 24 23 21 23 23 23 24 0 29 29 37 33 21 
32 27 23 11 91 114 119 119 119 119 118 101 5 23 24 24 24 24 23 23 
23 23 23 22 22 24 6 27 24 30 22 1 17 0 15 16 92 116 119 119 
119 118 115 111 11 23 23 22 14 11 19 15 7 21 22 22 21 32 32 31 
30 17 17 1 12 0 17 27 75 86 83 111 115 88 100 98 54 40 24 20 
2 1 14 11 2 21 23 22 22 0 0 0 7 22 17 20 28 29 38 27 
59 68 66 94 112 85 98 82 82 40 24 21 1 0 14 12 2 15 23 22 
22 0 0 0 5 26 21 11 23 28 27 63 75 112 108 103 119 119 119 97 
107 25 23 20 0 0 14 12 6 7 18 22 22 0 0 0 3 30 19 0 
16 20 9 52 85 117 107 102 112 116 119 118 92 24 22 20 0 0 13 17 
10 12 18 22 21 0 0 0 2 29 11 1 17 21 10 22 88 116 101 92 
114 117 111 119 59 26 20 21 9 1 8 13 5 6 10 22 22 0 0 0 
1 30 23 30 36 20 18 18 74 110 95 103 113 114 119 119 44 27 15 17 
4 12 19 19 21 13 2 10 26 0 0 0 1 27 16 12 18 23 22 23 
50 109 99 97 112 119 119 95 31 26 17 9 3 10 19 21 23 15 1 5 
29 17 19 22 23 24 14 12 19 21 22 23 16 76 101 119 121 120 110 61 
25 15 9 5 2 11 17 21 23 15 5 6 22 30 28 14 5 4 24 12 
14 23 22 23 9 60 83 91 98 104 105 63 14 5 10 12 2 11 15 20 
22 15 0 6 21 43 40 18 13 1 11 17 1 20 19 21 32 68 92 83 
89 101 118 90 48 9 4 10 0 5 7 9 9 7 32 9 16 5 9 5 
4 1 27 18 0 13 28 46 70 86 106 98 104 118 121 102 91 90 69 41 
8 1 1 0 0 1 0 2 7 13 19 22 10 14 29 55 60 63 67 70 
78 86 110 119 121 121 117 98 108 105 103 96 88 58 17 0 0 0 0 0 
0 27 33 20 10 12 74 95 98 101 100 102 102 87 98 119 119 111 97 105 
111 109 109 105 98 100 94 39 0 0 0 0 0 32 23 9 42 62 100 103 
106 108 105 109 101 104 90 91 95 98 105 111 113 110 109 109 101 108 105 96 
21 0 0 0 0 31 19 11 36 76 106 104 108 110 109 109 104 110 106 102 
104 110 113 113 113 109 108 110 96 111 104 104 84 2 0 0 0 19 21 13 
66 86 107 101 108 112 111 107 106 112 113 113 113 115 111 114 112 108 109 111 
97 110 105 107 108 49 0 0 0 29 26 30 93 93 101 95 106 110 109 106 
108 112 113 112 114 113 111 113 111 106 109 110 98 106 106 105 109 100 13 0 
