P2 
32 30
146
10 19 14 18 31 29 29 27 26 25 25 23 22 22 22 28 23 22 22 21 
22 24 24 24 25 25 26 26 27 27 27 27 26 38 43 19 31 33 35 32 
29 26 27 28 23 22 22 27 20 22 23 21 22 24 24 25 25 25 25 26 
26 25 26 26 26 5 18 14 20 20 5 14 2 8 12 4 24 22 23 28 
24 22 23 22 23 25 25 24 25 25 26 25 25 25 26 25 25 3 10 7 
1 3 0 11 2 3 9 2 25 23 24 29 24 23 24 22 22 25 25 25 
25 26 26 26 26 26 26 26 26 19 24 8 0 11 13 22 11 10 26 24 
26 23 21 23 31 26 23 22 22 25 25 25 26 26 26 27 26 26 26 26 
27 14 24 18 26 26 32 29 8 5 7 19 23 14 12 38 38 46 31 19 
22 25 25 25 26 26 24 22 20 18 15 14 13 0 18 19 29 25 0 13 
2 1 1 21 10 3 23 69 60 57 41 16 15 18 16 17 17 17 18 20 
19 15 22 23 23 2 8 14 4 9 2 11 0 8 1 20 3 35 90 121 
124 121 100 42 11 22 24 26 27 28 28 24 16 12 27 27 27 15 28 14 
5 11 25 21 2 5 0 10 20 80 109 125 127 127 127 113 22 21 27 27 
28 28 28 27 23 19 27 26 26 5 29 18 4 17 33 34 31 28 25 10 
39 89 113 126 127 127 126 125 58 18 27 27 26 27 27 27 25 26 26 26 
26 0 25 24 39 39 18 27 27 22 23 7 51 89 112 126 126 126 113 105 
70 19 27 27 27 26 27 27 26 26 27 26 25 11 27 23 30 30 1 14 
4 8 11 2 41 45 5 29 96 36 5 22 93 27 28 16 11 15 22 7 
19 27 26 25 25 28 28 27 27 16 1 10 2 8 12 21 13 15 0 2 
31 11 0 8 20 57 28 7 3 7 21 5 16 26 25 25 25 0 0 0 
28 12 23 24 32 34 29 49 11 1 0 7 98 26 0 2 17 72 27 6 
1 7 22 3 8 23 26 25 25 0 0 0 27 24 9 15 26 27 21 58 
44 5 4 41 111 74 24 24 71 63 26 6 0 7 22 6 6 16 22 25 
24 0 0 0 25 23 1 7 25 9 0 41 78 92 111 82 104 115 113 122 
117 40 25 6 0 6 25 14 3 23 20 25 24 0 0 0 23 17 1 9 
26 10 2 22 59 95 104 100 106 111 117 123 97 20 23 17 4 7 12 12 
6 9 17 24 24 0 0 0 22 21 31 33 25 14 20 22 40 98 102 79 
107 118 126 127 71 19 21 9 4 21 25 26 27 8 1 6 38 0 0 0 
22 20 14 14 23 23 25 24 26 75 99 110 123 130 127 111 36 24 15 11 
5 21 27 30 30 10 3 18 31 20 21 25 25 18 13 16 22 22 24 24 
24 56 81 90 110 116 112 81 20 14 11 4 6 20 25 29 31 10 4 17 
27 30 19 4 2 24 17 9 21 23 24 24 23 60 84 85 91 107 109 78 
16 10 18 10 7 20 25 29 31 10 0 17 27 42 26 15 0 8 22 3 
15 22 19 29 51 67 97 88 90 102 117 101 58 39 29 6 2 5 9 9 
10 17 22 16 23 8 7 6 0 17 28 19 33 42 46 55 65 80 106 104 
107 119 129 101 89 95 93 82 52 26 3 1 0 1 0 4 14 18 24 16 
9 24 61 84 89 90 87 84 80 74 102 116 124 130 120 91 103 101 101 97 
93 93 74 12 0 0 0 0 1 31 22 12 9 38 87 92 96 96 98 97 
92 81 75 101 110 102 89 98 106 104 103 99 98 98 101 75 8 0 0 0 
0 27 9 30 46 70 97 90 97 97 100 100 98 96 89 88 90 93 100 105 
109 107 103 105 98 101 101 90 65 0 0 0 0 21 10 25 60 73 99 86 
98 100 102 101 101 103 102 97 100 105 109 107 108 108 99 109 96 101 93 96 
102 38 0 0 0 16 14 30 76 69 101 81 97 99 103 102 102 105 106 106 
107 109 105 109 107 107 100 109 95 100 89 95 104 94 11 0 0 25 17 60 
82 76 95 75 98 97 104 104 104 106 107 108 108 109 106 109 108 100 104 109 
96 99 92 89 104 104 67 0 0 27 31 75 86 83 85 73 100 92 104 104 
104 105 107 107 108 107 107 108 102 104 108 107 97 94 95 83 102 104 99 34 
