P2 
32 30
133
10 30 32 31 30 29 28 27 26 25 24 23 22 20 20 22 23 19 20 18 
16 19 20 21 22 22 22 23 24 25 25 25 25 18 13 14 22 28 27 26 
25 24 23 22 22 20 19 22 23 20 20 18 16 19 20 20 21 22 22 23 
23 24 23 24 23 32 37 30 20 28 33 31 28 25 24 29 25 21 20 22 
23 18 19 18 16 19 20 21 21 21 22 22 22 22 23 23 23 17 13 22 
17 27 15 13 14 8 17 6 12 22 21 24 24 22 19 20 18 20 22 22 
22 22 23 23 23 23 23 23 23 13 3 12 4 1 3 0 10 3 8 2 
10 23 22 24 26 25 20 20 19 22 23 23 23 23 24 24 24 24 24 24 
24 25 14 18 5 0 9 6 19 9 12 20 21 23 23 26 26 25 20 21 
20 23 23 23 24 24 24 24 25 24 25 25 24 33 21 25 19 18 28 40 
23 8 9 13 26 26 22 27 32 34 21 22 20 23 24 24 24 24 25 24 
22 21 17 15 14 23 4 19 23 33 17 2 16 2 2 10 27 24 17 19 
26 39 43 16 16 19 18 16 17 17 16 16 17 15 16 21 21 21 1 12 
11 10 8 0 11 2 11 26 32 26 17 21 34 45 50 24 15 16 20 21 
23 24 25 25 17 9 19 24 24 25 15 26 8 4 13 19 13 1 35 52 
59 52 34 42 47 54 42 21 18 21 24 25 25 25 25 25 24 14 21 25 
24 23 7 30 12 0 23 34 31 22 81 108 122 122 111 80 58 42 23 12 
15 23 24 24 24 25 25 25 24 22 24 25 24 24 0 30 30 38 33 21 
33 37 95 118 124 124 123 122 69 28 15 6 10 23 24 25 25 24 24 25 
24 25 25 24 24 24 6 28 25 30 22 1 17 27 96 117 124 124 123 123 
106 30 13 5 7 22 24 22 14 11 19 15 8 23 23 23 23 32 31 30 
29 17 17 0 12 34 95 99 88 104 112 124 119 57 42 68 6 22 23 19 
1 0 14 11 2 21 23 22 22 0 0 0 7 21 17 19 20 28 53 73 
65 74 79 87 95 99 100 111 19 21 24 20 0 0 14 11 2 15 23 23 
22 0 0 0 5 26 21 11 19 19 42 95 93 86 84 122 124 121 114 101 
19 21 23 19 0 0 13 11 5 7 18 22 22 0 0 0 3 29 19 0 
13 34 87 122 99 103 110 124 123 123 119 79 35 23 20 18 0 0 13 16 
9 11 17 21 21 0 0 0 2 27 10 1 14 41 89 104 110 120 125 124 
124 123 109 52 34 24 18 20 7 1 8 12 4 6 9 20 22 0 0 0 
1 29 24 32 35 36 83 109 124 120 127 126 125 120 108 37 38 31 16 17 
3 12 20 21 22 14 2 9 28 0 0 0 1 28 18 13 14 26 66 79 
109 109 124 126 122 118 108 30 49 31 18 11 3 13 21 24 26 17 1 6 
31 17 17 21 22 24 15 13 17 22 48 74 113 126 119 116 116 122 112 21 
29 19 9 6 2 12 18 23 25 17 5 7 25 29 27 12 5 5 24 12 
12 23 24 70 111 112 110 115 121 125 118 22 7 10 10 12 1 12 16 21 
24 17 0 7 23 42 36 16 13 1 12 17 1 20 20 23 59 91 109 117 
124 126 118 74 35 7 4 10 0 5 7 9 10 7 33 10 17 6 8 6 
4 1 26 17 0 19 30 45 62 80 81 110 124 126 118 93 88 83 64 31 
3 0 0 0 0 1 0 2 7 14 19 22 12 11 30 49 47 46 50 53 
60 84 100 111 125 125 115 92 98 99 94 88 76 43 8 0 0 0 0 0 
0 26 29 15 11 15 72 85 88 86 82 82 79 68 101 117 123 113 89 97 
103 102 100 96 88 91 82 26 0 0 0 0 0 29 18 6 46 56 90 89 
94 95 91 93 89 85 75 82 86 87 94 103 105 104 98 100 90 100 97 85 
12 0 0 0 0 24 12 9 45 64 93 89 97 98 95 96 92 95 90 88 
91 99 104 105 104 103 96 102 85 104 95 95 69 1 0 0 0 18 14 12 
61 68 95 87 98 99 99 97 92 100 100 101 102 105 102 104 103 102 96 103 
82 103 95 99 101 36 0 0 0 27 23 27 78 77 92 81 97 99 98 96 
95 102 99 102 104 104 102 103 103 101 97 101 85 98 97 99 103 90 8 0 
