P2 
32 30
135
10 17 12 16 29 27 27 26 25 23 23 21 20 19 20 25 21 20 20 19 
20 22 23 23 23 24 24 25 25 25 25 25 24 37 41 17 30 32 34 30 
27 25 26 26 21 20 21 26 19 20 21 20 21 24 24 23 24 25 25 25 
24 25 25 25 25 5 18 13 20 20 4 13 2 8 11 3 23 21 22 27 
22 21 22 21 21 24 24 24 24 25 25 25 25 25 26 25 25 3 10 7 
1 3 0 11 2 3 9 2 25 22 23 28 23 22 23 21 21 25 25 25 
25 26 26 26 26 26 26 26 26 19 24 7 0 11 13 21 10 9 26 24 
25 22 24 29 25 23 23 21 22 26 26 25 26 26 26 27 26 26 26 26 
27 14 24 18 26 25 32 28 7 4 6 19 23 21 25 30 23 18 24 27 
20 25 25 25 26 26 24 22 20 18 16 15 13 0 17 19 29 25 0 13 
2 1 1 21 20 15 28 28 22 17 21 41 42 17 17 17 17 18 19 21 
19 15 23 24 24 1 8 13 4 8 1 10 0 7 1 21 6 9 25 32 
33 30 36 69 96 43 21 25 26 26 26 23 15 11 26 26 26 14 27 13 
4 10 23 20 2 4 0 16 1 6 19 32 42 78 111 124 125 122 52 27 
27 27 27 27 23 18 26 26 26 4 28 17 4 16 32 33 31 27 25 18 
0 3 12 22 79 122 125 126 125 125 90 27 26 27 27 26 25 26 26 26 
26 0 24 23 37 37 16 26 26 21 21 11 0 2 7 35 106 125 125 126 
125 125 108 27 26 26 26 26 26 26 26 25 25 11 26 21 28 28 0 13 
4 8 10 0 0 2 5 45 106 113 114 112 118 125 121 18 10 14 21 6 
17 26 25 24 24 27 26 26 26 15 1 10 2 7 10 0 22 59 10 24 
42 35 22 23 8 56 57 5 1 7 21 4 15 26 25 25 24 0 0 0 
27 12 22 23 31 32 27 25 52 90 61 81 90 67 14 5 0 9 6 0 
0 6 21 2 8 22 25 24 24 0 0 0 26 22 8 13 25 25 20 27 
40 79 88 90 101 96 27 1 1 56 45 0 1 6 21 5 6 15 20 24 
23 0 0 0 25 22 1 7 25 8 0 21 17 101 91 93 94 84 63 9 
20 96 90 0 2 6 25 14 3 24 20 25 24 0 0 0 23 17 1 9 
26 10 2 19 18 64 86 95 97 115 120 117 119 119 114 38 5 7 13 13 
6 9 18 25 25 0 0 0 22 21 31 33 25 14 19 28 18 42 85 92 
99 115 126 127 123 112 104 23 5 22 25 26 27 9 1 6 38 0 0 0 
21 19 13 13 22 22 23 25 8 34 92 91 96 107 122 122 112 110 91 12 
5 20 26 29 29 10 3 17 30 19 20 23 23 17 12 15 20 21 20 16 
6 29 94 96 91 94 108 122 127 126 47 4 5 19 24 28 30 10 4 17 
26 29 18 4 2 23 16 8 19 22 17 6 11 35 96 101 94 90 97 94 
94 67 20 10 7 19 24 27 29 9 0 15 26 40 25 14 0 7 21 3 
13 20 12 12 42 56 98 107 105 101 100 96 76 35 26 6 2 5 8 8 
9 16 22 15 22 8 6 6 0 16 27 18 38 49 54 59 63 77 98 112 
114 108 97 106 78 70 73 71 48 25 3 0 0 0 0 4 13 18 23 15 
9 23 59 82 88 93 92 91 89 73 92 110 122 124 125 99 92 94 96 92 
89 91 73 13 0 0 0 0 1 31 21 12 9 37 86 91 95 95 98 97 
94 86 73 95 111 109 94 89 101 99 101 94 97 97 101 75 9 0 0 0 
0 26 9 29 45 68 96 90 97 97 98 99 99 97 90 87 87 89 92 100 
107 102 101 101 98 98 101 87 66 1 0 0 0 21 10 24 59 72 98 87 
98 100 102 101 101 102 102 96 98 101 107 103 107 104 97 107 95 99 92 94 
101 38 0 0 0 16 14 30 76 69 100 81 98 98 102 102 103 104 105 106 
108 109 104 107 106 106 98 109 95 98 88 94 103 93 11 0 0 24 17 60 
81 76 93 74 100 95 103 103 104 105 106 107 109 108 104 109 107 101 102 109 
95 97 90 89 103 103 66 0 0 26 31 74 85 84 82 73 102 91 103 103 
103 104 105 107 108 106 106 107 103 101 108 107 96 92 93 82 101 102 98 34 
