P2 
32 30
133
10 29 32 31 30 29 28 26 25 24 23 23 22 20 20 22 23 19 19 18 
16 19 20 21 21 22 23 24 24 25 25 25 25 19 14 15 24 29 28 27 
26 25 25 24 23 22 21 23 24 21 21 19 17 20 21 22 23 23 24 24 
25 25 25 25 25 33 38 30 21 29 34 32 28 26 25 30 26 22 20 22 
23 19 20 19 17 20 21 21 22 22 23 23 23 23 23 24 24 17 13 22 
17 27 15 13 13 8 17 6 11 22 21 23 24 21 19 19 18 20 21 21 
22 22 23 23 23 23 23 23 23 13 3 13 4 1 3 0 10 2 8 2 
10 23 22 24 26 24 20 21 19 22 23 23 23 23 24 24 24 24 24 24 
24 26 14 18 5 0 9 6 19 9 12 20 21 23 23 26 26 25 20 21 
20 22 23 23 23 24 24 24 25 24 25 25 24 34 21 26 19 17 28 40 
22 8 9 13 25 25 23 28 32 34 21 22 20 23 24 24 24 24 25 24 
22 22 17 16 14 23 4 20 23 33 16 2 16 2 2 10 28 24 16 19 
29 42 43 16 16 19 18 16 17 17 16 16 17 15 17 21 22 22 1 12 
11 10 8 1 11 2 9 28 32 25 18 23 38 48 49 23 15 16 20 22 
23 25 25 25 17 9 19 25 25 25 15 27 8 4 13 19 12 1 32 52 
59 54 38 46 50 55 39 19 18 22 24 25 25 25 25 25 24 14 21 25 
25 23 8 30 12 0 23 34 31 19 79 107 121 123 115 86 56 39 21 10 
15 23 24 24 24 24 25 25 24 22 24 24 24 23 0 29 30 38 33 21 
32 33 94 117 124 124 123 123 78 25 14 5 10 23 24 24 25 24 25 24 
24 25 24 25 24 25 7 29 25 31 22 1 18 23 95 117 125 125 124 124 
113 36 13 5 8 23 25 23 15 12 20 16 8 24 24 24 24 32 31 31 
30 17 18 1 12 27 95 106 96 106 108 124 122 65 41 77 10 22 24 20 
2 0 14 11 2 21 23 23 22 0 0 0 7 21 17 19 21 28 59 73 
72 85 85 79 94 102 99 110 25 21 24 20 0 0 14 11 2 15 23 23 
23 0 0 0 5 26 21 11 18 18 37 90 92 69 83 114 124 122 117 103 
22 21 23 19 0 0 14 11 6 7 18 22 22 0 0 0 3 29 19 0 
14 28 77 123 102 103 106 125 124 124 120 83 34 23 21 19 0 0 13 16 
9 12 18 22 22 0 0 0 2 27 10 1 14 36 84 103 114 115 125 124 
124 123 108 50 32 24 18 20 8 1 8 11 4 6 9 20 21 0 0 0 
1 28 22 31 33 26 84 103 124 121 125 125 124 120 106 33 36 28 15 16 
3 11 19 19 21 13 1 8 27 0 0 0 1 29 19 14 15 25 67 72 
106 113 125 127 125 117 106 32 48 32 18 11 4 14 22 25 27 18 1 6 
32 18 18 22 23 24 15 13 18 21 45 73 105 125 123 120 115 122 111 22 
27 21 9 6 2 13 19 24 26 17 5 7 25 29 27 13 5 5 25 12 
12 22 23 65 111 117 111 113 120 125 118 21 8 9 10 12 1 13 17 22 
24 17 0 6 23 43 36 17 13 1 12 17 1 21 20 23 60 87 108 116 
123 126 117 74 34 7 4 10 0 6 7 10 10 7 34 10 17 6 8 6 
4 1 26 17 0 19 30 45 61 80 80 107 123 126 117 92 88 83 62 30 
2 0 0 0 0 1 0 2 8 14 19 22 12 12 30 48 46 46 50 53 
60 84 100 108 124 124 115 92 98 99 93 87 76 42 8 0 0 0 0 0 
0 26 29 15 11 15 73 85 88 85 82 81 79 69 100 116 123 112 90 97 
103 102 100 97 88 91 81 24 0 0 0 0 0 29 18 6 46 56 91 89 
94 95 91 93 90 86 75 83 86 88 95 103 105 104 99 100 91 101 97 84 
10 0 0 0 0 25 13 9 46 66 94 90 97 98 96 96 93 96 91 89 
92 99 105 105 104 104 97 103 85 104 96 96 67 0 0 0 0 17 13 12 
61 69 96 87 98 99 98 96 93 100 100 100 102 106 102 104 103 102 96 103 
81 103 95 99 100 34 0 0 0 27 23 27 78 76 93 80 97 99 98 96 
94 102 99 102 104 104 102 103 103 100 96 101 85 98 96 99 102 88 7 0 
