P2 
32 30
143
10 17 12 15 28 27 26 25 24 23 23 21 21 20 20 25 21 19 18 17 
17 20 21 21 22 22 23 23 23 24 24 24 24 36 40 17 29 31 33 29 
26 25 26 25 21 20 21 25 18 19 20 18 18 21 21 21 22 23 23 23 
23 23 24 24 23 5 17 12 19 19 4 13 1 7 11 3 22 21 22 26 
22 20 21 19 19 22 22 22 22 23 24 24 23 23 24 23 24 2 9 7 
1 3 0 10 2 3 8 2 23 21 22 27 23 20 21 19 20 22 22 22 
23 23 24 24 24 24 24 24 24 18 22 6 0 10 13 20 10 9 24 22 
24 23 25 28 23 21 21 20 20 23 23 23 23 24 23 24 24 24 24 24 
24 13 23 17 25 24 31 27 7 4 6 19 28 17 16 26 35 33 22 20 
21 24 23 23 24 24 22 20 18 16 14 13 12 0 17 19 28 24 0 13 
2 2 9 29 29 21 21 31 45 47 33 15 16 17 15 16 16 17 17 19 
18 14 22 23 23 1 8 13 4 8 1 10 0 7 39 62 72 70 51 52 
52 50 36 17 15 20 22 23 24 25 25 21 14 10 24 24 24 13 27 13 
4 11 23 20 2 17 87 111 122 122 119 91 51 33 19 15 20 24 24 24 
25 25 25 25 21 16 24 24 24 4 28 17 4 16 32 32 29 42 95 117 
124 123 123 122 73 20 11 8 21 24 25 25 25 25 25 25 23 24 25 24 
24 0 24 24 38 37 17 26 25 53 99 119 124 121 121 121 106 24 8 4 
20 24 25 25 24 24 25 24 24 24 24 24 24 10 25 21 28 28 1 12 
3 54 97 95 45 64 38 25 23 16 33 51 19 23 24 13 9 12 19 4 
15 23 23 22 22 26 26 25 25 15 1 10 7 17 55 37 2 31 12 71 
117 102 101 103 18 23 24 5 1 6 19 2 13 23 22 22 22 0 0 0 
27 12 22 12 0 0 5 22 0 1 4 88 123 120 112 88 21 24 24 4 
1 6 20 2 7 21 24 23 23 0 0 0 27 23 8 8 0 0 29 98 
8 0 4 100 123 123 119 75 24 22 23 5 0 6 20 5 5 14 20 23 
22 0 0 0 24 22 1 6 2 0 38 102 77 52 91 125 123 123 104 36 
29 19 23 5 0 5 23 12 3 22 18 23 22 0 0 0 22 16 1 9 
21 11 59 100 122 124 125 125 124 120 87 38 29 18 22 16 3 6 11 11 
5 8 15 22 22 0 0 0 22 20 31 32 25 27 73 69 100 112 123 124 
123 117 85 35 32 17 20 8 4 20 23 24 25 8 1 6 36 0 0 0 
21 19 13 13 22 23 63 71 101 125 124 121 117 121 84 42 33 21 13 9 
4 19 25 27 27 9 2 16 28 18 20 23 23 18 12 15 20 21 36 76 
111 118 115 119 121 124 91 34 25 11 8 3 5 17 22 26 28 9 3 16 
25 28 18 4 2 23 16 8 20 22 24 39 71 99 120 123 124 125 104 31 
13 10 16 9 6 18 23 26 28 9 0 14 24 40 24 14 0 7 21 3 
13 20 19 31 65 79 97 119 126 125 113 82 75 58 51 26 5 5 8 8 
9 15 21 14 21 7 6 5 0 16 27 18 25 35 45 48 71 88 90 116 
125 125 108 93 93 98 94 90 80 61 20 0 0 1 0 3 11 17 22 14 
9 26 64 79 76 75 70 62 62 93 106 118 125 116 92 97 101 103 103 90 
96 96 91 27 0 0 0 0 0 29 20 12 10 50 83 92 93 92 92 89 
78 67 87 99 96 88 94 103 106 105 93 98 98 101 100 86 15 0 0 0 
0 25 8 29 48 81 84 94 92 94 94 92 92 87 82 85 89 96 103 106 
104 101 91 105 93 104 95 97 78 4 0 0 0 19 8 24 60 89 79 95 
91 97 97 97 95 96 91 93 99 106 103 103 102 96 99 102 92 101 85 97 
100 57 0 0 0 14 13 37 64 88 77 96 91 98 99 99 99 99 100 102 
105 104 103 103 104 95 106 101 97 92 79 98 103 97 36 0 0 23 18 61 
64 80 71 96 89 99 100 101 102 101 102 104 105 104 103 104 97 102 105 100 
98 87 75 95 103 101 88 14 0 25 35 68 70 69 67 94 86 98 100 101 
101 101 102 103 103 103 102 100 97 105 101 97 99 82 72 92 99 100 96 72 
