P2 
32 30
146
10 22 32 31 30 29 28 27 26 25 23 22 21 22 23 22 25 24 22 25 
25 26 27 28 30 30 32 32 33 34 34 35 35 28 31 31 30 29 28 28 
26 25 24 23 22 23 24 22 26 24 23 26 26 27 28 29 30 31 33 33 
34 35 34 35 35 17 21 25 29 29 29 27 26 26 25 24 22 24 25 24 
27 25 24 26 27 28 29 29 31 32 33 34 33 34 34 35 35 31 28 16 
29 31 31 28 27 29 30 24 23 22 23 25 21 21 19 26 28 29 30 31 
32 32 33 33 33 34 34 35 35 19 26 23 30 29 23 23 18 24 13 25 
18 3 5 25 26 20 9 8 26 30 31 31 32 33 33 33 34 34 34 35 
35 11 1 13 1 7 1 9 2 9 0 24 11 8 28 40 23 18 8 6 
8 30 32 33 33 34 34 34 35 35 35 36 36 19 8 15 1 4 3 16 
7 14 13 27 24 43 52 83 50 26 19 12 1 22 32 33 34 35 35 35 
35 35 37 36 36 31 24 21 16 21 37 26 12 14 24 25 30 99 118 125 
126 78 23 3 0 10 32 33 33 32 31 28 26 25 24 23 21 19 4 19 
30 29 3 15 2 3 18 23 34 109 131 132 132 131 123 74 10 4 25 25 
25 26 25 26 30 32 32 31 29 18 0 15 6 10 1 9 2 6 16 16 
30 104 129 133 132 130 115 84 36 6 33 34 34 29 19 25 36 36 36 33 
32 20 14 24 4 8 23 17 2 5 13 7 25 67 70 112 129 70 21 26 
19 8 34 35 35 35 28 31 36 36 36 36 29 19 9 25 11 16 33 34 
33 29 29 24 10 11 5 20 66 8 0 3 11 55 34 36 36 36 35 37 
37 37 37 36 30 19 4 25 33 36 14 28 20 24 16 24 6 0 0 4 
88 5 0 0 14 75 35 35 36 34 36 37 37 37 37 37 31 24 17 28 
31 32 3 14 0 17 1 9 7 0 0 27 120 43 2 1 39 72 11 17 
28 9 30 38 37 37 37 37 32 10 10 10 11 19 8 14 6 19 10 13 
48 46 55 84 122 82 96 105 69 37 4 12 29 11 27 36 35 31 15 36 
30 0 0 0 0 12 29 29 32 32 34 31 37 90 117 98 97 89 107 101 
62 14 2 12 29 8 26 36 33 11 2 35 30 0 0 0 0 10 10 11 
28 15 23 29 29 69 111 90 115 106 80 105 61 15 4 11 32 20 31 37 
28 2 1 31 31 0 0 0 0 8 11 11 21 8 15 30 30 50 109 105 
117 109 103 90 45 22 10 13 32 34 37 27 6 3 1 16 29 0 0 0 
0 7 25 34 26 18 19 29 30 32 78 117 114 110 110 63 38 31 23 16 
29 24 8 10 11 6 24 38 41 0 0 0 0 7 22 20 23 26 28 28 
29 28 59 99 119 115 89 52 34 22 25 17 28 17 0 0 0 0 8 31 
29 12 15 17 16 18 22 21 23 26 27 27 27 28 71 75 89 86 64 73 
35 17 20 15 25 5 0 0 0 5 0 18 23 4 16 19 0 2 4 11 
24 25 25 25 23 33 80 107 106 101 99 96 43 25 22 19 21 1 1 0 
0 3 0 8 23 7 20 16 5 1 0 7 18 24 25 28 26 42 87 127 
128 126 131 101 42 27 33 36 24 11 2 0 0 0 0 3 21 5 22 11 
25 7 0 3 22 38 38 47 36 40 84 125 136 135 126 69 33 24 43 42 
45 46 44 36 10 0 0 0 10 11 15 5 5 1 12 39 41 42 35 41 
40 39 72 114 137 127 100 24 29 37 43 41 40 44 44 44 29 3 0 0 
9 0 3 16 14 5 35 36 42 45 39 37 41 41 38 100 90 46 35 34 
36 47 44 43 42 43 44 44 33 24 0 0 8 0 0 13 11 34 38 39 
45 39 44 40 45 44 43 36 56 68 47 67 68 48 45 45 44 42 45 57 
36 77 30 0 9 1 0 9 35 107 40 69 68 45 55 47 88 96 89 100 
120 137 135 136 136 132 118 113 90 102 128 132 64 127 90 0 4 2 0 8 
90 140 75 129 139 136 138 133 138 137 137 137 133 130 136 135 134 133 132 132 
131 131 130 130 118 128 121 27 0 1 0 17 131 139 137 138 139 138 138 137 
137 137 136 136 129 130 135 134 133 133 132 131 131 130 130 129 126 128 125 78 
