P2 
32 30
135
10 20 27 27 26 26 25 23 22 22 21 20 18 20 20 18 21 19 17 20 
21 22 23 24 25 27 27 28 29 30 30 31 31 24 27 27 26 25 25 24 
23 22 22 21 20 21 21 19 22 20 19 21 22 23 24 25 26 27 28 29 
30 30 30 30 31 13 17 20 25 24 24 23 23 22 21 21 19 20 21 19 
22 20 18 21 22 23 24 24 26 27 28 28 28 29 29 29 29 26 23 13 
25 27 27 24 23 25 27 22 21 22 22 21 23 22 20 23 24 24 25 26 
27 27 28 28 28 29 29 29 30 16 22 19 26 25 20 19 16 20 12 22 
20 15 13 12 20 23 22 24 25 25 26 27 27 28 28 28 29 29 30 30 
30 9 1 11 1 6 0 8 1 7 0 10 5 6 10 6 5 19 23 25 
26 26 27 28 28 29 29 30 30 30 31 31 31 16 7 12 0 3 2 13 
6 6 1 1 3 9 12 15 9 8 18 26 27 27 28 29 29 30 30 30 
31 31 32 32 31 28 21 18 14 19 34 23 9 2 0 3 10 13 16 17 
14 10 12 23 27 28 29 29 29 29 28 25 23 22 21 20 18 17 3 16 
27 26 2 13 1 0 1 3 9 17 15 12 12 10 10 12 22 21 22 22 
22 23 22 23 28 29 29 28 26 16 0 13 5 8 1 5 0 0 6 15 
13 16 16 10 9 6 7 10 24 28 29 30 31 25 15 22 32 32 32 30 
27 17 12 22 3 7 20 10 9 64 98 71 22 17 25 56 13 8 2 3 
22 29 30 31 31 31 25 27 32 32 32 32 26 17 8 23 10 14 30 31 
61 74 58 57 65 74 103 119 44 6 7 3 19 30 30 31 32 31 31 32 
33 32 32 32 26 17 3 23 30 33 13 25 8 45 105 125 120 118 116 119 
64 10 5 3 21 30 30 30 31 29 31 32 32 32 32 32 27 21 15 25 
28 28 3 13 5 52 117 125 124 123 110 120 72 16 2 1 22 14 7 12 
24 5 25 32 32 31 31 32 27 9 9 9 10 17 8 13 2 28 119 126 
125 124 123 101 101 35 0 0 24 11 2 10 26 9 24 32 32 28 12 32 
26 0 0 0 0 11 27 27 36 17 121 126 125 124 122 121 111 57 7 0 
23 11 1 9 26 6 23 32 29 9 1 31 26 0 0 0 0 9 9 20 
105 78 120 126 125 123 115 122 112 71 27 1 25 11 1 8 28 16 26 32 
24 1 0 27 26 0 0 0 0 7 10 14 68 91 117 125 125 120 111 120 
114 84 45 10 27 18 7 10 28 29 28 19 3 1 0 12 23 0 0 0 
0 6 23 32 34 82 109 122 118 110 109 122 117 92 87 34 27 27 20 13 
26 20 3 3 5 3 20 31 34 0 0 0 0 6 20 18 22 53 103 111 
108 104 112 117 117 93 107 72 27 20 22 14 24 15 0 0 0 0 7 27 
25 11 13 15 14 16 20 19 21 27 88 96 94 101 111 115 116 94 106 93 
37 16 17 12 21 4 0 0 0 4 0 15 19 4 14 17 0 1 3 10 
21 23 54 59 55 53 97 114 119 99 102 84 38 22 26 23 19 0 0 0 
0 2 0 7 19 5 18 14 5 1 0 6 16 21 23 22 5 43 85 113 
120 108 97 66 35 24 40 40 39 27 14 4 0 0 0 2 18 5 19 9 
22 6 0 3 19 34 32 37 18 50 104 111 112 114 96 31 29 27 40 36 
42 42 41 40 16 0 0 0 8 9 13 4 4 1 10 34 36 37 30 33 
20 33 110 122 106 86 62 13 31 37 39 37 40 41 41 40 29 5 0 0 
6 0 3 14 12 3 29 36 40 39 37 30 33 24 74 60 79 33 31 34 
32 39 39 40 41 42 41 40 30 24 2 0 6 0 0 11 9 25 32 37 
42 37 40 35 39 40 38 34 72 76 56 74 73 58 44 42 38 42 40 42 
31 58 48 0 7 0 0 7 30 74 34 54 51 40 47 47 86 83 89 97 
122 127 126 126 126 125 124 118 94 96 108 120 55 112 102 2 3 1 0 6 
82 124 53 129 129 124 127 121 127 127 127 126 119 125 125 125 124 124 123 123 
123 123 123 122 105 122 119 37 0 0 0 15 121 129 121 129 129 128 128 128 
127 127 127 126 115 126 125 125 124 124 124 123 124 123 123 123 121 122 121 88 
