P2 
32 30
146
10 22 31 31 30 29 28 27 26 25 24 23 22 23 23 21 24 23 21 23 
25 25 26 28 29 30 31 32 33 34 34 35 35 29 32 32 31 30 30 28 
27 27 26 25 24 25 25 23 26 24 23 26 27 27 28 30 30 32 33 34 
34 35 35 36 36 18 22 26 30 30 29 29 28 27 27 26 25 26 26 25 
28 25 24 27 27 29 29 30 32 33 33 34 34 35 35 35 36 32 29 17 
30 32 32 30 28 30 32 27 25 27 27 26 29 27 25 28 29 29 30 31 
32 33 33 34 34 35 35 35 35 20 26 24 31 30 24 23 20 25 15 27 
27 28 27 25 29 28 27 29 29 30 30 31 32 33 33 34 34 34 35 35 
36 11 1 14 2 7 1 10 2 10 0 26 20 18 14 12 17 20 25 30 
30 31 32 33 33 34 34 34 35 35 36 36 36 19 8 16 1 4 3 16 
7 15 8 11 9 7 12 19 25 13 12 28 31 32 33 33 34 35 35 35 
36 35 37 37 36 32 25 22 17 22 39 27 13 11 3 10 12 15 21 23 
17 16 14 14 31 32 33 34 34 33 32 29 28 26 25 24 22 21 5 20 
32 30 3 17 2 0 0 2 11 18 22 20 18 15 14 9 17 25 26 26 
26 27 26 27 32 33 34 33 31 20 0 16 7 11 1 10 1 1 0 10 
19 25 18 20 16 14 12 8 7 31 34 35 35 29 18 26 37 37 37 34 
32 21 15 26 5 8 24 17 3 46 89 127 118 72 37 26 12 8 8 6 
3 27 34 35 35 35 28 31 36 36 36 36 30 20 10 27 12 16 35 36 
34 93 127 135 135 117 43 23 14 11 6 4 0 22 34 35 36 36 35 37 
37 37 37 37 30 20 4 27 35 38 15 29 31 92 84 111 132 135 91 45 
61 97 51 8 0 16 34 34 35 33 36 37 37 37 37 37 31 26 19 29 
33 33 4 15 23 36 75 122 136 136 129 116 129 127 89 0 2 5 10 16 
28 8 29 37 37 36 37 37 31 11 11 11 12 21 10 16 11 96 91 131 
137 137 133 131 127 131 78 2 0 5 5 13 30 11 28 37 37 32 15 37 
32 0 0 0 0 14 32 32 41 129 116 127 137 137 135 135 132 129 60 1 
0 7 3 13 31 9 27 37 34 11 2 37 32 0 0 0 0 11 11 13 
79 134 121 132 138 137 134 132 127 102 72 3 0 12 4 12 33 20 31 38 
29 2 1 33 32 0 0 0 0 8 11 11 59 110 115 134 137 136 134 127 
114 117 78 13 1 17 9 12 31 33 36 26 6 2 1 15 28 0 0 0 
0 7 26 35 27 70 116 132 137 136 133 121 107 119 80 28 11 29 21 14 
27 22 6 8 8 5 23 37 40 0 0 0 0 7 22 20 24 48 99 122 
136 132 124 109 108 124 88 44 15 20 23 14 26 15 0 0 0 0 8 31 
28 14 16 18 17 19 22 21 23 31 89 120 123 118 102 100 121 123 91 81 
21 10 18 13 24 5 0 0 0 4 0 17 22 4 17 19 0 2 4 11 
24 26 63 115 108 94 98 114 125 123 89 103 53 25 20 18 19 0 1 0 
0 3 0 8 23 8 21 17 6 2 0 7 18 25 38 76 65 46 77 121 
126 124 89 110 65 32 16 1 0 0 0 0 0 0 0 3 21 6 23 12 
26 7 0 0 9 24 22 24 23 18 70 113 126 128 92 107 58 32 23 29 
15 8 0 0 0 0 0 0 10 10 15 5 5 1 0 1 18 38 36 43 
24 43 95 107 121 129 101 96 55 31 29 44 45 45 36 24 6 0 0 0 
8 0 3 16 14 1 6 36 42 43 37 44 26 37 94 125 116 126 98 82 
36 27 34 43 42 44 43 43 34 6 0 0 7 0 0 12 10 1 29 39 
45 45 39 41 31 38 95 117 134 118 90 51 17 31 40 40 39 41 43 43 
32 25 1 0 8 1 0 8 21 18 35 39 47 47 44 38 39 40 75 108 
120 69 53 23 28 46 41 42 40 41 41 41 34 43 53 0 4 2 0 8 
47 60 36 40 47 44 42 40 43 42 39 44 43 44 41 43 43 41 42 46 
44 42 44 42 36 97 127 12 0 1 0 13 105 113 39 68 58 49 55 42 
49 58 58 63 93 125 110 126 123 107 87 98 98 82 86 112 93 132 131 67 
