P2 
32 30
148
10 23 32 31 31 30 29 27 26 25 24 23 21 23 24 22 25 24 22 25 
25 26 27 29 30 31 32 33 34 34 35 35 36 28 32 31 30 30 29 28 
27 26 25 23 22 24 25 23 27 25 23 26 27 27 29 30 31 32 33 34 
34 35 35 35 36 18 22 26 31 30 29 29 28 27 26 25 24 25 26 25 
28 26 25 28 28 29 30 31 32 33 34 34 35 35 35 36 36 32 29 17 
30 32 33 30 28 30 31 26 25 26 20 19 30 22 21 28 30 30 31 32 
33 34 34 35 35 35 36 36 36 20 27 25 32 30 24 24 20 24 14 26 
24 9 17 28 20 18 10 8 29 31 32 33 34 34 34 35 36 36 36 36 
37 11 1 14 2 7 1 10 2 9 0 25 8 3 11 31 27 18 8 8 
10 32 33 34 35 35 36 36 36 36 37 37 37 20 8 16 1 4 3 16 
7 15 13 24 16 19 41 41 24 20 6 3 0 27 34 34 35 36 36 36 
37 37 38 38 37 32 25 22 17 22 39 27 13 15 25 21 39 51 61 87 
36 23 17 7 0 16 34 34 35 34 33 30 28 27 26 25 22 20 4 20 
31 30 3 16 2 3 18 17 52 102 110 113 116 54 10 1 0 6 27 27 
26 28 26 27 33 33 34 33 30 19 0 16 6 11 1 10 2 6 17 13 
48 117 135 135 134 134 115 75 17 10 34 35 35 30 19 26 37 37 37 35 
33 21 15 25 4 8 24 18 2 5 14 7 36 109 132 135 134 134 125 89 
36 11 35 36 37 36 29 32 38 37 37 37 31 19 9 26 11 16 34 35 
34 30 30 22 27 89 114 125 128 99 55 27 15 45 35 35 36 36 35 37 
37 37 37 37 30 19 4 26 34 37 15 28 20 24 17 25 16 16 9 21 
67 10 0 1 6 70 35 35 36 34 37 38 38 37 38 37 32 25 17 28 
31 32 3 14 0 17 1 9 3 0 0 1 68 6 0 0 6 67 11 16 
29 9 30 38 37 37 38 38 32 10 10 10 11 19 9 15 7 20 11 14 
5 0 1 11 122 45 4 2 31 40 5 13 30 12 28 38 37 33 15 38 
32 0 0 0 0 12 30 30 33 33 35 32 43 27 27 62 124 82 93 84 
62 14 3 12 30 8 27 37 34 11 2 36 31 0 0 0 0 10 11 12 
30 16 24 31 30 76 121 117 99 87 126 107 61 16 4 12 33 21 32 38 
29 2 1 33 32 0 0 0 0 9 12 12 23 9 16 31 31 62 111 119 
118 107 108 93 57 23 11 15 34 36 39 28 8 3 1 17 31 0 0 0 
0 7 27 35 27 19 20 30 31 44 95 106 93 94 99 80 43 32 24 17 
30 25 8 11 12 7 26 39 42 0 0 0 0 7 22 21 24 27 29 29 
30 30 68 105 108 107 103 63 35 24 26 17 29 17 0 0 0 0 9 32 
30 14 15 17 17 19 23 22 24 26 27 27 28 29 69 81 111 112 81 63 
32 18 21 16 26 5 0 0 0 5 0 18 24 4 17 19 0 2 4 11 
24 26 27 26 24 35 78 92 78 68 70 85 42 28 23 20 21 1 2 0 
0 3 0 9 24 8 21 17 6 2 0 7 18 24 27 32 26 47 87 122 
122 120 122 107 47 30 32 39 26 12 4 0 0 0 0 3 22 6 23 12 
26 7 0 4 23 40 41 48 33 43 93 132 137 137 133 85 34 26 42 44 
45 47 45 37 11 0 0 0 10 11 15 5 6 1 13 41 42 43 38 41 
37 41 86 121 139 136 114 38 26 36 43 42 43 45 45 46 33 2 0 0 
9 0 3 17 15 5 34 41 46 46 42 38 41 42 57 109 113 60 40 31 
34 49 46 46 44 45 46 46 36 20 0 0 8 0 0 13 11 29 37 41 
48 42 45 40 45 45 40 38 52 58 44 57 64 51 45 47 44 45 46 47 
37 57 26 0 9 2 0 10 35 84 39 62 56 44 50 47 76 91 81 87 
111 139 131 138 138 135 119 113 94 98 118 128 68 117 85 0 4 3 1 8 
92 137 60 142 141 132 138 126 140 140 139 139 137 134 138 137 136 135 133 133 
133 132 131 131 116 129 123 27 0 1 0 19 133 142 134 141 141 141 141 141 
140 140 139 138 132 129 137 137 135 135 134 133 133 132 132 131 129 129 126 78 
