P2 
32 30
142
10 20 29 28 27 27 26 24 23 22 21 20 19 21 21 19 23 22 20 24 
24 25 25 26 27 28 29 30 31 31 32 32 32 25 29 28 27 27 26 25 
24 23 22 21 20 22 23 21 25 23 22 25 26 26 27 27 28 30 31 31 
32 32 32 32 33 16 19 23 27 27 26 26 25 24 23 22 21 23 24 23 
26 24 24 26 26 27 28 29 30 30 31 32 32 32 32 33 33 29 26 15 
27 29 29 26 25 27 28 23 23 24 25 24 27 26 24 27 27 28 29 30 
30 31 31 32 32 32 32 33 32 17 23 21 28 27 21 21 17 22 12 24 
23 25 25 17 18 20 24 25 28 29 29 30 31 31 31 32 32 32 32 33 
33 10 1 12 1 6 0 8 1 8 0 24 25 21 15 17 15 15 18 23 
20 23 31 31 32 33 33 33 33 33 34 34 34 18 7 13 0 3 3 15 
6 13 13 26 23 8 9 19 28 47 61 47 29 20 22 32 33 34 34 34 
34 34 35 35 34 29 23 20 15 20 36 24 11 14 23 27 11 9 12 22 
29 91 125 117 72 18 6 29 32 31 31 28 26 25 24 23 20 18 4 18 
29 27 3 15 2 3 18 22 13 25 24 26 33 99 129 129 120 71 13 18 
25 26 25 26 31 32 32 31 28 18 0 14 6 10 1 9 2 6 16 19 
34 37 28 28 40 89 126 129 127 110 54 22 34 28 18 25 35 35 35 33 
31 19 13 23 3 7 22 16 2 5 13 22 38 33 20 28 39 84 126 129 
127 115 78 32 34 34 27 30 35 35 35 35 29 17 8 23 10 14 31 32 
31 27 27 26 11 12 13 28 45 113 128 106 81 69 77 41 34 34 33 34 
35 35 35 34 28 17 3 23 31 34 13 26 19 23 15 15 3 80 102 108 
118 128 127 113 75 43 60 27 33 31 34 35 35 35 35 34 29 22 15 25 
29 29 3 12 0 16 1 9 4 124 123 126 121 130 129 127 99 99 86 15 
27 8 28 35 34 34 34 35 29 9 9 9 10 18 8 13 6 19 10 7 
1 105 125 130 123 129 129 129 110 123 122 29 29 11 26 35 34 30 14 34 
29 0 0 0 0 12 29 28 32 32 34 16 5 65 130 130 126 128 129 129 
119 121 127 72 29 8 26 35 32 10 2 34 29 0 0 0 0 10 10 11 
28 15 22 23 5 35 110 120 126 129 129 129 125 114 89 24 32 19 30 36 
27 2 1 30 29 0 0 0 0 7 10 10 20 7 14 28 5 19 99 107 
124 130 129 129 127 117 81 14 31 33 36 26 6 3 1 15 28 0 0 0 
0 6 23 32 24 16 18 27 18 18 90 105 114 126 129 129 120 99 46 15 
27 22 7 10 11 6 23 36 38 0 0 0 0 6 19 17 21 24 25 26 
24 22 87 114 97 111 119 121 117 100 36 15 25 15 0 0 0 0 8 29 
27 11 13 15 14 16 19 19 21 23 24 25 24 44 88 122 105 97 100 106 
111 95 25 14 24 5 0 0 0 4 0 16 21 3 14 17 0 1 3 10 
21 22 23 23 26 68 89 120 118 106 83 69 77 60 22 18 19 0 1 0 
0 2 0 7 21 5 18 14 4 1 0 6 16 21 21 20 32 89 92 118 
121 113 65 22 16 16 15 1 0 0 0 0 0 0 0 3 19 4 20 9 
22 6 0 0 7 22 31 29 37 75 95 113 123 107 89 56 30 18 33 26 
16 7 0 0 0 0 0 0 8 8 13 4 5 1 1 15 28 37 42 31 
34 65 82 108 119 109 110 59 31 23 39 40 43 41 31 13 2 0 0 0 
7 0 2 13 11 2 30 39 38 37 38 35 31 51 84 102 112 118 102 27 
30 28 39 35 39 40 39 31 12 0 0 0 6 0 0 10 8 18 32 39 
42 40 36 36 37 30 107 90 105 90 65 5 36 35 36 35 37 40 38 32 
30 7 0 0 7 1 0 7 25 34 32 38 45 45 35 38 43 31 75 64 
56 38 28 33 39 38 40 38 40 41 37 34 45 89 1 0 4 2 0 7 
77 37 33 37 44 44 37 42 43 41 40 36 78 66 58 75 61 41 43 42 
43 43 57 57 98 128 45 0 0 1 0 39 135 69 63 85 80 85 75 59 
86 98 97 103 131 131 131 130 129 120 113 120 109 115 125 114 124 123 103 8 
