P2 
32 30
148
10 23 32 31 31 30 29 28 26 25 24 23 22 23 24 22 25 24 22 25 
26 26 27 28 30 31 32 33 34 34 35 35 36 28 32 31 30 30 29 28 
26 26 25 24 23 24 25 23 27 24 23 26 27 27 28 29 30 32 33 34 
34 35 34 35 36 18 22 26 30 30 29 28 27 26 26 24 24 26 26 25 
28 26 24 27 28 29 30 30 32 33 34 34 34 35 35 35 36 32 29 17 
29 32 32 29 28 30 31 26 25 27 27 26 29 27 26 28 29 30 31 32 
32 33 33 34 34 35 35 35 36 20 27 24 32 30 24 24 20 25 14 26 
26 27 27 25 29 29 27 30 31 31 32 33 33 34 34 35 35 35 36 36 
36 11 1 14 2 7 1 10 2 9 0 26 27 27 30 30 29 30 28 31 
32 31 32 33 34 34 35 35 35 36 36 37 37 19 8 15 1 4 3 16 
7 15 13 28 14 9 21 33 28 27 28 31 32 32 33 34 34 35 35 36 
36 36 37 37 36 32 25 22 17 22 39 27 13 15 24 16 10 55 101 91 
62 33 15 31 32 32 33 34 34 33 32 29 28 26 26 24 22 20 4 19 
31 29 3 16 2 3 14 3 48 83 127 107 89 85 21 17 25 24 26 26 
25 27 26 26 31 33 33 32 30 19 0 16 6 10 1 9 2 6 15 9 
59 107 121 108 96 97 71 13 26 31 33 34 34 29 18 25 36 36 36 33 
32 20 14 25 4 8 23 17 2 5 13 21 84 63 107 103 105 122 100 29 
20 34 34 35 35 35 28 31 36 36 36 36 30 20 9 27 12 17 36 36 
34 31 30 29 97 119 105 117 109 130 117 52 16 35 35 36 37 36 36 37 
38 38 38 38 31 20 4 26 34 37 15 29 21 25 17 30 99 129 114 119 
117 118 114 75 24 35 35 35 36 33 36 37 37 37 37 37 32 25 18 28 
32 32 3 14 0 17 1 15 97 127 116 127 132 122 107 84 68 20 10 15 
28 8 29 37 37 36 37 37 31 10 10 11 11 20 9 15 7 20 11 13 
81 117 127 125 122 113 99 86 83 32 5 13 30 11 28 37 37 32 15 37 
31 0 0 0 0 13 31 30 33 33 35 21 63 107 114 118 120 101 76 70 
36 17 3 12 30 8 27 37 34 11 2 36 31 0 0 0 0 10 10 11 
29 15 24 32 78 96 92 99 93 76 51 53 19 14 3 11 33 20 31 38 
28 2 1 32 31 0 0 0 0 8 11 10 21 8 15 31 93 78 73 77 
92 74 64 60 29 21 9 13 32 34 37 27 5 2 0 16 29 0 0 0 
0 7 25 34 26 18 19 29 37 35 69 85 102 97 75 77 34 30 22 15 
29 23 7 9 9 5 23 38 41 0 0 0 0 6 21 19 22 26 27 28 
28 38 66 91 117 114 85 97 39 21 24 15 27 16 0 0 0 0 8 31 
29 13 15 17 15 18 21 20 22 25 26 26 26 36 96 91 127 124 95 107 
47 10 19 14 24 5 0 0 0 4 0 17 22 4 16 19 0 2 3 11 
23 24 25 25 22 31 110 98 126 126 108 113 54 21 21 18 19 0 1 0 
0 2 0 8 23 7 20 16 5 1 0 7 18 23 24 23 19 39 110 115 
125 131 123 117 66 29 15 1 0 0 0 0 0 0 0 3 22 5 22 11 
25 7 0 0 8 23 25 31 26 47 107 131 129 137 132 123 67 31 18 23 
11 5 0 0 1 0 0 0 10 10 15 5 5 1 0 10 29 44 43 47 
31 43 93 134 136 135 137 117 49 31 26 45 46 45 34 21 3 0 0 0 
8 0 3 16 14 1 20 44 44 45 42 44 35 40 84 117 138 131 127 95 
11 31 31 43 43 45 44 43 29 1 0 0 8 0 0 13 10 6 38 44 
48 47 43 44 42 45 62 115 134 125 74 34 15 41 39 40 42 43 44 46 
35 14 0 0 9 1 0 8 22 31 37 40 49 46 43 43 45 44 31 56 
62 60 40 36 37 38 40 42 40 41 41 43 36 39 21 0 4 2 0 8 
78 48 37 42 48 44 44 46 47 46 48 43 47 95 76 79 79 66 44 45 
45 40 43 43 38 90 101 1 0 1 0 21 135 90 58 108 100 92 99 82 
105 124 120 123 125 137 136 136 135 134 126 122 127 106 91 100 95 127 126 51 
