P2 
32 30
136
10 19 27 26 26 25 24 23 22 21 20 19 18 19 20 17 20 19 17 20 
21 21 22 23 24 25 27 27 28 29 29 29 30 23 26 26 25 25 24 23 
22 21 21 20 19 20 21 19 22 20 18 21 21 22 23 24 25 26 28 28 
29 29 29 30 30 14 18 21 25 25 24 24 23 22 21 21 20 21 22 20 
23 21 19 22 23 24 24 25 26 27 28 28 29 29 29 30 30 26 23 13 
25 27 27 24 23 25 26 22 21 22 22 19 22 22 21 23 23 24 25 26 
26 27 28 28 28 29 29 30 29 15 21 19 25 25 19 19 16 20 11 21 
14 7 5 7 4 9 11 23 24 25 26 26 27 27 28 28 29 29 29 29 
30 9 1 11 1 6 0 8 1 7 0 9 5 0 3 5 17 10 5 13 
26 27 27 28 28 29 29 30 30 31 31 31 31 16 7 13 0 3 3 14 
6 7 0 1 3 5 11 14 11 15 12 7 21 28 29 29 30 31 31 31 
31 31 33 33 32 28 21 18 15 19 34 23 10 3 0 1 3 8 10 14 
15 14 14 11 12 27 29 29 29 29 28 25 24 22 21 21 18 17 3 16 
27 25 2 13 1 2 23 40 43 28 16 21 19 11 10 10 8 18 22 22 
22 23 22 23 27 29 29 28 26 16 0 13 5 8 1 8 2 27 102 122 
123 91 32 18 15 8 7 5 4 14 29 30 30 25 15 22 32 32 32 29 
27 17 12 22 3 7 20 15 1 29 34 36 52 60 47 40 53 69 10 5 
0 10 30 31 31 31 25 27 32 32 32 32 26 17 8 22 10 14 30 30 
29 10 15 104 122 124 115 110 115 120 27 5 1 5 30 30 31 31 30 31 
32 32 32 31 25 16 3 22 30 33 12 24 17 5 11 96 125 125 121 122 
113 118 26 2 3 9 30 30 31 28 31 32 32 32 32 32 26 22 15 25 
28 29 3 12 0 21 3 95 126 126 124 125 118 101 31 2 1 4 8 13 
25 6 25 33 32 32 32 32 27 9 9 9 10 17 8 13 19 95 45 121 
126 125 124 124 112 96 51 0 0 3 3 10 26 9 24 32 32 28 12 32 
26 0 0 0 0 11 27 27 48 103 92 121 126 125 124 120 122 112 57 4 
0 6 1 9 25 6 23 32 29 9 1 31 26 0 0 0 0 9 9 10 
26 35 94 105 126 126 123 113 119 111 61 17 1 10 2 10 28 17 27 33 
24 1 1 28 26 0 0 0 0 7 10 10 19 16 71 98 122 121 115 109 
119 112 68 28 11 19 8 11 28 31 32 21 4 1 0 13 24 0 0 0 
0 6 23 31 23 16 68 111 112 110 103 109 121 112 77 60 21 27 20 13 
25 20 5 6 5 3 20 31 34 0 0 0 0 6 19 18 21 24 46 105 
100 97 103 110 117 110 82 94 34 23 22 14 24 14 0 0 0 0 7 27 
25 11 13 15 14 16 20 19 21 23 34 76 69 73 90 111 113 111 81 103 
50 21 17 13 22 4 0 0 0 4 0 15 20 3 14 17 0 2 3 10 
22 22 23 24 21 18 59 107 116 115 88 90 43 26 21 23 19 0 1 0 
0 2 0 7 20 5 17 13 5 1 0 6 15 20 25 31 21 33 77 98 
111 120 94 70 37 23 33 40 36 24 14 4 0 0 0 2 17 4 19 9 
21 5 0 4 21 35 33 40 27 34 85 112 103 120 88 47 22 24 37 35 
40 40 40 40 21 0 0 0 7 8 13 4 4 1 10 35 35 37 30 35 
31 31 77 105 119 86 56 16 26 38 39 35 39 40 40 40 30 9 0 0 
6 0 2 13 11 3 28 34 39 39 37 33 36 37 35 59 62 36 34 36 
34 40 39 40 39 41 41 40 31 27 5 0 6 0 0 11 9 27 32 36 
42 35 40 38 41 41 42 36 69 86 69 84 81 66 48 42 38 41 41 44 
32 51 67 0 7 0 0 7 29 90 35 63 61 43 57 53 95 98 101 113 
121 127 127 126 126 126 125 119 93 90 108 123 64 108 113 9 3 1 0 7 
82 130 61 128 130 129 129 128 128 128 127 127 121 121 126 126 125 124 124 124 
124 123 123 123 108 122 120 51 0 0 0 14 121 130 126 129 129 129 128 128 
128 128 127 126 120 125 125 125 124 124 124 123 123 123 123 122 119 121 120 100 
