P2 
32 30
148
10 23 32 32 31 30 29 28 26 25 24 23 21 23 24 22 26 24 23 25 
26 26 27 29 30 31 32 33 34 35 35 35 36 27 31 30 30 29 28 27 
25 25 24 23 22 23 24 22 26 24 23 26 27 27 28 29 30 31 33 33 
34 34 34 35 35 18 22 25 30 29 28 28 27 26 25 25 23 25 26 24 
28 26 25 28 28 29 30 30 32 33 33 34 34 35 35 35 36 31 29 17 
29 32 32 29 28 30 31 25 25 26 27 26 29 27 26 29 30 30 31 32 
33 33 34 35 34 35 35 36 36 19 26 24 31 30 24 23 20 24 15 26 
26 27 27 25 29 29 27 30 31 31 32 33 33 34 34 34 35 36 36 36 
36 11 1 14 2 7 1 10 2 9 0 26 27 28 29 25 28 31 29 32 
32 32 33 34 34 35 35 35 36 36 37 37 37 20 8 16 1 4 3 16 
7 15 14 28 27 27 21 10 22 31 30 32 33 33 33 34 35 36 36 36 
37 36 38 38 37 32 25 22 17 22 39 27 13 15 25 29 26 10 17 67 
105 80 49 27 31 33 34 34 35 33 33 30 28 27 26 25 22 20 4 20 
31 30 3 16 2 3 18 27 26 7 55 108 127 118 120 74 11 25 26 26 
26 28 26 27 32 33 34 33 30 19 0 16 6 11 1 10 2 7 17 18 
28 34 106 90 122 88 92 99 25 22 33 35 36 30 19 26 37 37 37 35 
32 21 15 26 4 8 24 18 2 5 14 7 27 59 108 110 106 99 122 115 
54 15 36 36 37 37 29 33 38 38 38 38 31 19 9 26 11 16 35 36 
34 30 30 26 26 68 129 116 121 112 114 132 77 11 32 36 36 36 36 37 
38 37 38 37 31 19 4 26 34 37 15 28 20 24 17 24 27 77 134 109 
86 77 109 129 89 18 30 35 36 34 37 37 37 37 37 37 32 25 17 28 
32 32 3 14 0 17 1 9 8 72 130 112 108 112 105 118 92 41 9 16 
28 8 29 38 37 37 37 37 32 10 10 10 11 19 9 15 7 20 11 14 
7 70 118 121 126 119 111 100 92 69 19 13 30 11 28 37 36 32 15 37 
31 0 0 0 0 12 30 30 33 33 35 32 39 86 105 104 121 124 96 78 
79 78 33 12 30 8 27 37 34 11 2 36 31 0 0 0 0 10 10 11 
29 15 24 30 41 96 93 86 104 101 74 61 64 13 6 11 32 20 31 38 
29 2 1 32 31 0 0 0 0 8 11 11 22 8 15 31 32 34 76 74 
85 89 67 59 56 8 11 14 33 35 39 27 7 2 1 17 31 0 0 0 
0 7 26 35 26 18 20 29 30 20 65 80 97 101 88 71 63 19 23 16 
30 24 8 10 11 7 25 39 42 0 0 0 0 6 22 19 22 26 28 28 
29 21 85 83 111 121 103 74 79 16 25 16 27 16 0 0 0 0 9 32 
30 12 15 17 16 18 21 21 22 25 26 26 26 24 95 98 115 134 107 87 
86 8 19 14 25 5 0 0 0 5 0 17 23 3 16 19 0 2 4 11 
23 24 25 25 22 23 99 112 116 136 109 101 86 19 21 19 20 0 1 0 
0 3 0 8 23 6 18 16 5 1 0 7 17 23 24 22 19 37 96 125 
120 132 117 114 82 32 15 2 0 0 0 0 0 0 0 3 21 4 19 10 
25 7 0 0 8 23 25 32 27 44 100 134 126 138 125 126 80 35 15 22 
9 4 1 0 1 0 0 0 9 9 12 4 5 1 0 11 29 44 43 47 
34 41 86 131 135 136 132 123 70 35 22 44 44 42 33 20 3 0 0 0 
8 0 2 14 13 1 20 44 43 45 42 43 37 38 78 116 138 132 133 109 
22 32 26 41 41 43 43 43 27 1 0 0 7 0 0 11 10 6 38 42 
47 47 42 44 41 42 56 116 135 131 93 53 9 35 35 38 40 41 43 45 
33 12 0 0 8 1 0 8 22 31 36 40 49 47 42 42 46 43 27 67 
70 88 36 32 35 37 41 41 38 40 41 43 36 40 18 0 3 2 0 8 
79 49 37 42 48 45 45 46 46 45 48 44 43 78 63 61 70 56 42 46 
45 41 45 43 39 96 96 0 0 1 0 22 136 92 56 105 96 89 96 77 
94 114 109 111 110 138 137 137 135 134 111 110 117 97 85 95 91 129 127 44 
