P2 
32 30
144
10 21 30 29 28 28 26 25 24 23 21 20 19 20 21 20 23 22 20 23 
24 24 25 27 28 29 30 31 31 32 32 33 33 26 29 29 28 27 27 25 
24 23 22 21 20 21 22 21 24 22 21 25 25 25 26 27 28 30 31 32 
32 33 33 33 33 17 21 25 29 29 28 27 26 26 24 23 22 24 25 24 
27 25 24 27 28 28 29 30 31 32 33 33 34 34 34 34 35 30 27 16 
28 31 30 28 27 28 29 25 23 25 25 24 27 26 25 28 29 29 30 30 
31 32 33 33 33 34 34 35 34 18 24 22 30 28 22 22 18 23 13 24 
24 25 25 23 27 27 26 28 29 29 30 31 32 32 32 32 33 33 34 34 
34 10 1 13 1 6 0 9 1 8 0 24 25 26 27 27 27 22 16 28 
30 30 31 32 32 33 33 33 34 34 34 35 35 18 7 14 0 4 3 15 
6 13 13 26 25 27 28 25 12 8 15 15 25 31 31 32 33 34 34 34 
34 34 35 35 35 30 22 20 16 20 36 24 11 13 23 27 25 27 23 11 
6 25 75 45 19 23 32 32 32 32 31 28 26 25 24 23 20 19 4 18 
29 27 3 14 2 2 17 25 25 24 18 25 2 61 94 1 0 16 18 25 
25 26 25 26 31 32 32 31 29 18 0 14 5 10 1 9 2 6 16 16 
26 26 20 29 30 81 98 33 28 0 10 33 34 29 18 25 36 36 36 33 
31 19 13 23 4 7 22 16 2 4 13 7 26 27 21 81 107 113 110 91 
75 47 7 32 35 35 27 31 35 35 35 35 29 17 8 24 10 15 32 33 
32 28 28 24 26 28 26 107 114 121 118 104 110 76 11 24 34 34 34 35 
36 35 35 35 28 18 3 23 31 35 13 26 19 23 16 23 28 28 35 101 
112 113 110 109 101 80 15 20 34 32 35 36 35 35 35 35 30 23 16 26 
30 30 3 13 0 16 1 9 17 30 52 93 103 119 109 93 92 72 15 13 
28 8 29 37 36 36 36 36 30 10 10 10 10 18 8 14 6 20 11 14 
16 33 82 80 81 94 93 77 81 66 52 13 29 11 27 37 36 32 14 36 
30 0 0 0 0 12 29 29 33 33 34 31 28 33 63 74 81 98 83 68 
76 62 77 17 30 9 27 36 33 11 2 35 30 0 0 0 0 10 10 11 
29 15 24 30 29 30 28 70 99 118 108 90 72 32 36 15 33 21 31 38 
29 2 1 32 31 0 0 0 0 8 11 11 21 8 15 30 30 30 37 88 
99 126 116 86 72 28 6 15 33 35 38 28 7 3 1 17 30 0 0 0 
0 7 25 33 26 17 19 29 29 28 49 99 104 129 114 82 90 23 20 16 
29 24 8 11 11 7 24 37 40 0 0 0 0 6 21 19 22 25 27 28 
28 27 59 110 111 130 116 89 101 25 24 16 27 16 0 0 0 0 8 30 
28 6 9 14 15 17 21 20 22 25 26 26 26 29 68 118 120 133 124 107 
101 32 20 14 25 5 0 0 0 5 0 17 22 1 11 15 0 2 3 11 
23 24 25 25 22 35 82 124 130 133 126 123 86 36 21 19 20 0 1 0 
0 3 0 8 22 5 14 6 3 1 0 7 18 23 26 32 27 40 78 124 
135 134 132 122 50 34 19 27 24 10 2 0 0 0 0 3 21 4 14 3 
18 6 0 5 24 39 40 46 37 39 65 114 135 134 122 84 24 34 25 42 
43 45 45 33 9 0 0 0 9 9 9 2 4 1 12 39 41 42 38 40 
39 43 27 85 115 125 50 30 27 37 43 43 40 44 44 45 33 2 0 0 
8 0 1 8 10 3 32 39 45 43 42 37 38 34 36 33 39 69 44 38 
42 43 39 47 43 45 44 45 35 15 0 0 8 0 0 7 8 29 36 41 
46 40 45 44 51 62 67 74 81 133 122 121 125 114 82 75 57 44 52 48 
38 46 15 0 9 1 0 8 35 87 39 84 87 76 92 90 129 136 136 135 
133 129 133 133 133 132 131 131 129 124 128 127 79 102 71 0 4 1 0 7 
93 134 62 137 137 137 136 136 136 136 135 135 131 119 134 132 131 131 129 129 
128 128 127 127 114 125 116 15 0 0 0 18 131 137 135 136 136 136 135 136 
135 135 134 134 133 133 132 132 130 130 129 128 127 127 126 126 125 124 121 59 
