P2 
32 30
142
10 21 29 29 28 27 26 25 23 22 21 20 19 20 21 20 23 22 20 23 
23 24 24 26 27 28 29 30 31 31 32 33 33 26 29 28 28 27 26 25 
24 23 22 21 20 22 23 21 24 22 21 24 25 25 26 27 28 29 30 31 
32 32 32 32 33 16 20 24 28 27 27 26 25 24 24 22 22 23 24 23 
26 24 23 26 26 27 28 28 30 31 31 32 32 33 33 33 34 29 26 15 
27 30 30 27 26 27 28 24 22 24 25 23 27 25 24 27 27 28 29 30 
31 31 32 32 32 33 33 33 33 18 24 22 29 27 22 21 18 23 13 24 
23 25 25 23 26 27 25 28 28 29 29 30 31 31 31 32 33 33 33 33 
34 10 1 13 1 6 1 9 2 8 0 24 25 26 27 22 9 17 25 30 
29 30 30 31 32 32 33 33 33 33 34 35 34 18 7 14 1 4 3 15 
6 14 13 26 25 25 15 11 42 53 21 21 27 31 31 32 33 33 34 34 
34 34 35 35 34 29 22 20 15 20 35 24 11 13 22 27 25 11 5 0 
46 78 0 0 9 25 31 32 31 31 30 27 25 24 23 22 19 18 3 17 
28 27 2 14 1 2 16 25 25 6 34 5 73 96 29 20 2 17 24 24 
24 25 24 25 30 31 30 30 27 17 0 14 5 9 1 8 2 5 16 15 
26 17 56 89 108 109 96 89 39 13 31 32 33 27 17 24 34 34 34 31 
29 18 12 23 3 7 22 16 2 4 13 6 25 24 109 113 113 118 103 115 
72 6 33 33 34 34 27 30 34 34 34 34 28 18 8 24 10 15 32 33 
31 28 28 24 26 30 108 113 114 107 98 106 77 11 31 33 34 34 33 35 
35 35 35 34 28 18 3 24 31 35 13 26 19 23 16 23 26 32 101 100 
114 118 92 83 73 15 30 33 34 32 34 35 35 35 35 35 29 23 16 26 
29 30 3 13 0 16 1 8 14 53 94 86 97 97 79 70 67 50 10 15 
27 8 28 36 35 34 35 35 30 9 9 9 10 18 8 14 6 19 10 13 
25 85 83 79 91 95 71 67 61 77 12 12 28 10 26 35 35 30 14 35 
29 0 0 0 0 11 28 29 31 31 33 30 33 54 66 86 103 104 87 78 
51 16 8 12 29 8 26 35 32 10 2 34 29 0 0 0 0 10 10 11 
28 15 23 29 29 12 68 80 114 119 97 73 46 2 4 12 32 20 30 36 
27 2 1 30 29 0 0 0 0 8 11 11 21 8 15 29 29 18 85 86 
116 125 95 82 54 12 10 14 32 34 37 26 6 2 0 15 28 0 0 0 
0 6 24 33 25 17 19 28 29 22 89 95 118 128 96 93 61 27 22 16 
28 23 7 9 10 5 22 35 39 0 0 0 0 6 21 19 22 25 27 27 
28 24 92 110 122 129 108 108 67 22 24 15 26 16 0 0 0 0 8 29 
27 7 12 15 15 17 21 20 22 24 26 26 26 31 86 120 125 131 119 115 
67 21 19 14 24 5 0 0 0 4 0 16 21 2 12 16 0 2 3 11 
22 24 25 24 22 40 91 128 130 132 129 116 52 26 21 18 19 0 1 0 
0 2 0 7 22 4 14 11 5 1 0 7 17 23 27 34 27 42 86 127 
133 132 125 94 20 27 26 36 27 15 8 0 0 0 0 3 19 4 16 6 
22 6 0 9 27 41 38 45 36 40 78 116 133 128 86 43 20 31 37 41 
42 44 44 39 13 0 0 0 9 9 10 3 5 1 18 40 40 42 39 39 
41 41 35 76 99 76 37 34 32 43 42 43 41 44 44 45 32 3 0 0 
9 0 1 11 12 7 34 40 45 40 43 39 39 39 40 35 48 74 52 61 
52 44 45 47 43 44 43 44 35 22 0 0 8 0 0 10 10 34 35 42 
45 39 45 46 74 84 88 99 109 134 133 133 132 123 102 94 64 53 68 66 
42 58 29 0 8 1 0 8 47 85 45 96 99 90 111 117 135 135 134 134 
129 128 132 132 132 131 131 130 130 129 128 128 73 115 84 0 3 1 0 8 
100 132 75 136 135 135 135 135 134 134 133 133 127 127 132 132 131 130 129 129 
129 128 127 127 117 126 119 20 0 0 0 23 133 136 135 135 135 135 134 134 
134 134 133 132 132 132 132 131 130 130 129 129 128 128 127 127 125 126 123 68 
