P2 
32 30
157
10 48 45 42 38 35 32 29 27 23 7 6 10 15 6 0 1 0 1 5 
12 20 25 28 30 33 36 39 41 44 46 47 48 48 45 42 40 37 34 31 
29 26 20 21 21 26 19 11 13 14 23 26 28 30 33 35 38 40 43 45 
46 47 48 48 48 50 47 44 41 39 36 34 32 29 27 31 27 32 26 22 
21 29 32 33 34 36 39 41 43 45 47 48 48 49 49 49 49 50 47 45 
43 40 38 35 34 32 30 35 30 34 31 27 27 33 35 36 38 39 41 43 
45 46 47 48 49 49 50 50 49 49 47 45 44 41 39 37 35 33 32 37 
31 34 33 30 31 35 37 38 39 40 42 44 46 47 48 48 49 49 49 49 
49 49 48 46 44 42 40 38 36 34 33 36 27 24 24 25 33 37 38 39 
40 42 43 45 47 48 48 48 49 48 49 49 49 50 48 46 45 43 41 39 
38 36 28 15 8 7 8 9 16 35 40 40 42 43 44 46 47 48 48 49 
49 49 48 49 48 49 48 47 45 43 42 40 39 32 12 8 2 0 1 2 
5 14 39 41 43 44 45 47 48 48 49 49 48 48 48 48 47 49 48 47 
46 44 43 41 40 29 6 2 11 14 1 3 4 4 17 43 44 45 46 48 
49 49 49 49 48 49 48 48 47 42 49 50 47 45 44 47 41 26 4 37 
77 64 9 4 3 3 1 39 45 46 47 48 48 49 49 48 48 49 48 47 
46 46 53 47 53 39 46 40 39 30 43 88 102 99 46 7 2 3 0 22 
45 46 47 47 47 48 48 48 48 48 48 47 46 17 29 5 22 1 5 16 
17 38 76 106 111 108 86 36 8 24 12 5 41 46 46 47 47 48 48 47 
48 48 47 47 47 9 5 3 20 4 14 21 17 50 91 111 121 125 106 44 
40 123 88 1 29 45 46 47 47 47 47 47 48 46 42 37 32 14 7 50 
50 29 23 39 51 56 92 75 110 133 124 36 73 115 112 3 18 45 46 44 
43 37 34 32 31 29 27 33 33 49 59 24 37 19 9 12 40 57 47 62 
107 134 138 76 59 119 117 18 7 33 33 35 32 37 42 43 43 42 32 32 
40 23 34 6 16 4 12 3 38 38 89 67 120 130 139 78 59 114 106 19 
6 36 43 35 21 39 46 46 45 43 40 21 37 13 7 20 24 1 10 1 
34 13 106 97 107 135 129 70 45 97 94 29 1 0 13 44 33 43 46 46 
45 44 41 22 36 17 3 52 58 37 33 26 37 32 134 129 118 120 100 46 
34 54 94 49 13 2 2 39 44 46 46 46 45 44 43 23 35 45 51 47 
42 53 44 43 42 61 126 122 106 93 53 26 19 10 77 65 9 1 0 31 
45 45 45 44 44 42 41 23 34 40 46 21 6 22 10 18 13 18 65 56 
46 74 28 14 2 17 88 89 11 2 2 7 39 45 43 42 42 42 40 22 
32 38 42 24 3 16 6 19 10 4 21 31 74 35 15 5 1 39 105 104 
36 2 4 6 34 42 19 38 41 40 38 20 32 0 33 40 35 42 45 43 
50 33 35 23 37 12 1 1 10 87 111 104 72 20 12 10 33 26 1 32 
41 40 38 21 32 0 30 33 16 36 41 29 44 40 39 17 2 3 0 0 
59 130 120 104 82 24 26 19 35 8 0 27 42 41 40 20 31 0 26 20 
0 37 17 0 36 40 39 22 1 1 0 0 82 138 123 113 44 30 28 28 
19 8 0 15 39 43 40 19 27 0 23 22 15 41 23 9 32 39 39 36 
9 1 3 48 95 132 123 111 33 17 26 16 26 23 21 32 46 61 56 26 
17 0 21 37 42 42 18 36 36 39 31 17 22 18 22 106 122 120 110 63 
15 2 32 15 25 23 27 38 35 45 41 28 2 15 27 31 27 29 37 36 
34 33 27 14 10 8 26 79 129 114 70 36 18 9 24 31 57 51 47 77 
33 39 34 24 0 20 29 31 30 28 33 25 35 42 33 29 24 25 16 22 
67 96 34 18 26 37 28 23 25 24 26 39 18 31 26 33 0 29 25 32 
33 33 34 39 59 41 39 26 42 28 28 28 17 28 19 31 29 48 39 25 
26 27 32 45 21 26 10 29 0 21 16 29 29 30 26 22 38 24 21 27 
49 34 28 31 17 19 19 28 24 40 33 23 25 26 33 40 21 34 20 20 
