P2 
32 30
157
10 49 46 42 39 36 33 31 28 24 7 6 10 15 6 0 1 0 1 6 
13 21 26 28 31 34 37 40 43 45 47 48 49 49 47 44 41 38 35 32 
30 27 21 22 21 27 21 13 14 15 23 27 29 32 34 36 39 42 44 46 
48 48 49 49 50 50 47 44 41 38 36 34 31 29 26 30 26 31 26 21 
21 28 32 33 34 36 38 41 43 44 47 48 48 48 49 49 49 50 47 45 
42 40 37 35 33 31 30 34 29 33 29 27 26 32 34 36 37 39 40 43 
44 46 47 47 48 49 49 49 49 49 47 45 43 41 38 36 35 32 31 37 
31 32 28 25 27 34 36 38 39 40 41 43 45 47 47 48 49 49 49 49 
49 51 49 47 45 43 41 39 37 35 34 40 33 17 14 11 12 20 33 40 
42 44 45 47 48 49 50 50 50 50 50 51 51 50 49 48 46 44 42 40 
38 37 36 40 24 8 6 3 4 8 14 34 43 45 46 47 49 49 50 50 
50 50 50 50 50 50 49 47 46 44 43 41 40 38 37 37 13 2 5 4 
0 2 3 13 40 45 46 48 49 49 50 50 50 49 49 49 49 51 49 48 
47 46 44 42 40 39 38 39 24 47 68 57 8 2 3 4 26 46 48 49 
50 50 50 50 49 50 49 49 48 43 50 50 48 46 44 47 42 40 39 41 
75 96 101 88 14 4 4 3 6 45 48 48 49 49 49 49 49 49 48 48 
47 46 54 47 53 39 46 40 39 41 39 62 102 111 110 102 42 4 3 1 
0 39 47 47 48 48 48 48 48 48 48 47 46 18 30 6 23 1 5 17 
17 42 43 84 109 117 122 118 73 20 4 3 0 34 47 48 48 48 49 49 
49 49 48 48 48 9 5 3 21 4 14 21 18 42 49 81 29 34 69 81 
44 20 25 26 1 24 48 49 49 48 49 49 49 48 43 38 34 14 6 50 
51 29 23 40 52 42 41 27 1 54 130 136 50 51 107 114 2 16 46 45 
43 37 35 33 31 29 28 33 33 49 59 24 36 18 9 12 39 36 7 18 
0 44 130 141 64 61 111 113 3 11 33 35 33 36 42 43 43 43 33 32 
40 23 34 6 15 4 12 3 37 33 63 94 12 80 137 135 57 77 119 103 
6 12 43 35 21 39 46 46 45 44 39 21 38 13 7 20 24 1 10 1 
35 22 126 134 109 126 126 106 40 84 124 77 4 18 45 45 33 43 46 46 
45 44 41 22 36 17 2 52 57 36 33 26 37 29 74 101 109 105 102 58 
37 47 108 63 9 2 20 42 44 46 46 46 45 44 43 23 35 45 51 48 
42 53 44 44 42 39 31 21 36 79 46 29 24 20 90 66 24 5 1 26 
46 46 46 45 45 44 42 24 36 42 48 22 6 22 10 19 14 11 30 53 
82 46 26 12 2 5 81 70 27 2 2 4 40 46 45 44 44 44 42 23 
34 39 43 25 3 16 7 20 11 4 31 11 37 9 6 3 1 43 113 83 
40 1 2 2 35 44 19 40 43 42 39 22 34 0 33 41 36 43 45 43 
51 33 33 1 5 1 0 0 18 86 118 85 71 5 1 0 32 27 1 33 
41 41 39 21 33 0 30 32 16 35 41 29 44 40 39 8 0 0 0 4 
82 125 120 82 96 21 18 16 34 8 0 27 42 41 39 20 31 0 26 19 
0 37 16 0 36 40 39 36 14 3 3 22 107 128 120 91 64 28 24 27 
18 8 0 15 39 43 41 19 27 0 24 22 15 40 23 9 32 40 39 39 
31 18 17 87 102 118 119 104 39 17 22 13 24 23 19 32 47 61 56 26 
17 0 22 38 42 42 18 36 36 38 38 21 20 8 20 57 125 107 117 66 
21 3 21 18 35 28 25 40 35 46 42 28 2 15 28 32 28 30 38 37 
36 35 29 15 18 16 11 40 97 109 85 27 20 16 20 21 37 42 36 72 
30 37 35 25 0 20 29 32 30 29 33 30 25 52 34 26 29 38 18 18 
17 62 33 19 27 35 45 22 27 26 20 46 18 27 28 33 0 28 25 32 
33 33 33 41 31 56 29 27 36 42 26 30 21 18 23 29 27 39 40 24 
26 27 24 49 19 24 9 31 0 20 16 29 30 30 22 23 26 40 19 27 
39 45 24 28 19 23 19 26 23 36 34 25 23 24 27 37 19 34 17 20 
