P2 
32 30
158
10 50 47 44 41 37 34 31 29 25 8 6 10 16 6 0 1 0 1 6 
13 21 27 30 32 36 38 41 44 46 48 49 51 51 48 45 42 39 36 33 
30 28 21 23 22 27 21 13 14 15 24 28 30 33 35 37 40 43 46 47 
49 49 50 51 51 51 48 45 43 40 37 35 32 30 27 30 26 32 26 22 
22 29 32 34 35 37 39 42 45 46 48 49 49 50 50 50 50 51 48 46 
44 41 39 36 34 32 30 35 30 34 30 27 27 34 36 37 39 40 42 44 
46 47 49 49 49 50 51 51 51 51 49 47 45 43 40 38 36 34 33 39 
32 34 34 31 32 37 38 40 41 42 43 45 48 49 50 50 51 51 52 51 
51 51 49 47 45 43 41 38 37 35 33 39 35 35 35 33 34 38 39 40 
41 43 45 47 48 49 50 50 50 50 51 50 50 51 49 47 46 44 42 40 
38 36 35 41 37 36 36 35 35 39 40 41 43 45 46 47 48 49 50 50 
50 50 50 50 50 50 49 48 46 45 42 41 39 38 36 41 38 38 38 36 
36 38 39 43 44 45 46 48 50 50 50 51 50 50 50 50 49 50 49 48 
46 45 43 42 40 38 37 43 39 40 39 32 34 30 30 40 44 46 48 49 
50 50 50 50 50 50 49 49 48 43 49 50 47 45 44 47 42 39 38 43 
39 41 39 44 93 84 51 40 45 46 47 48 49 49 49 49 48 49 48 48 
47 46 54 47 53 39 46 40 40 40 39 44 37 39 54 65 111 97 68 74 
28 41 47 48 48 49 49 49 48 49 49 48 47 19 31 6 23 1 5 17 
17 43 42 46 43 44 74 69 77 69 96 98 40 25 48 49 49 50 50 50 
51 50 50 49 50 9 6 3 21 4 14 21 18 42 42 47 39 44 91 56 
92 79 75 100 55 7 46 49 49 49 50 49 50 48 44 39 34 14 6 51 
51 29 22 39 51 42 42 46 28 34 46 65 44 57 60 75 51 1 43 45 
44 37 35 33 32 30 28 33 34 50 60 24 37 19 9 12 40 40 42 41 
20 16 24 24 9 12 20 34 21 1 31 36 33 38 43 45 45 44 34 33 
41 23 34 6 16 4 12 2 38 34 42 41 27 3 2 3 4 3 1 3 
4 31 39 36 22 40 47 47 47 45 41 22 38 13 7 19 24 1 9 1 
34 17 42 42 38 2 0 1 1 1 1 1 2 70 50 46 34 44 47 47 
46 45 42 23 37 17 2 53 58 36 33 25 37 26 42 43 47 17 0 0 
1 2 0 0 1 55 48 46 45 47 47 47 47 45 44 24 36 46 52 48 
42 53 44 44 43 39 43 44 43 19 0 0 8 15 3 0 7 25 46 45 
46 46 46 46 46 44 43 24 36 42 48 22 6 23 10 19 13 11 37 45 
36 25 27 27 71 89 51 50 46 25 34 13 40 46 45 44 44 44 42 24 
35 37 42 25 3 16 7 19 10 4 32 44 29 35 68 59 106 126 94 107 
73 17 33 14 35 43 19 39 42 41 39 21 33 0 33 42 36 43 46 44 
52 33 37 42 40 35 87 87 119 141 115 120 80 25 34 11 34 27 1 33 
42 41 40 21 33 0 30 34 17 37 43 30 46 42 40 44 36 26 92 105 
120 143 126 132 66 25 36 19 36 8 0 28 43 43 41 22 33 0 25 20 
0 38 17 0 38 41 40 42 28 28 79 118 125 146 135 129 40 21 31 28 
19 8 0 16 40 44 42 20 28 0 23 23 16 42 24 10 33 41 40 38 
30 20 46 127 125 139 130 65 12 15 21 18 26 24 22 34 49 63 58 27 
18 0 21 39 44 44 20 37 38 40 29 22 15 1 19 87 133 137 100 46 
25 10 33 25 37 25 52 41 40 48 44 29 2 14 28 33 29 31 39 38 
36 35 22 24 24 22 34 28 91 125 53 17 24 18 25 31 43 41 60 40 
41 40 36 26 0 19 28 32 31 29 33 23 46 34 36 40 50 20 23 20 
22 50 19 30 28 49 38 24 24 22 47 24 20 26 29 34 0 29 25 32 
33 33 33 39 65 34 38 26 56 25 32 32 18 25 23 33 28 46 37 25 
23 25 49 26 26 20 17 36 0 23 17 30 30 29 33 21 42 25 24 28 
57 32 31 31 17 29 20 27 22 42 34 26 25 23 43 23 28 31 28 18 
