P2 
32 30
156
10 49 45 42 39 36 33 30 27 24 7 6 10 15 6 0 1 0 1 6 
13 20 26 29 31 34 37 40 42 45 47 48 49 49 46 44 40 37 35 32 
29 27 21 22 21 27 20 12 14 15 23 27 29 32 34 36 39 42 44 46 
47 48 49 49 50 50 47 44 42 39 36 34 32 29 27 30 26 32 26 22 
21 29 31 33 35 36 39 41 43 45 47 48 48 49 49 49 49 50 47 44 
42 40 37 35 33 31 29 34 29 33 30 27 26 33 35 36 37 39 40 43 
44 45 47 47 48 49 49 49 49 49 47 45 43 41 38 36 34 32 31 37 
31 32 32 29 30 35 36 38 39 40 41 43 45 47 47 48 48 49 49 49 
49 49 48 46 44 42 39 37 36 34 32 38 34 34 34 31 30 35 38 38 
40 42 43 45 47 48 48 48 49 49 49 49 49 49 48 46 44 42 40 39 
37 35 34 39 36 34 26 16 15 26 37 40 42 43 44 46 47 48 48 49 
48 48 48 49 48 49 48 46 44 43 41 40 38 36 35 40 37 20 13 37 
36 24 34 40 42 43 45 47 48 48 48 49 48 48 48 48 47 49 48 47 
45 43 42 40 39 37 36 41 37 28 81 100 101 79 40 24 39 44 46 47 
48 48 48 48 48 48 47 47 46 43 50 50 47 46 44 47 42 39 38 43 
26 53 64 109 111 68 70 19 31 46 47 48 49 49 49 49 49 49 48 48 
47 45 53 46 53 39 45 40 40 40 39 31 33 83 61 101 109 65 90 48 
14 45 47 47 47 48 48 48 48 48 48 47 46 17 29 5 22 1 5 16 
16 41 40 18 50 91 82 80 90 96 108 77 3 43 46 47 47 48 48 48 
48 48 47 47 47 8 5 3 20 4 13 20 18 41 40 8 55 105 119 58 
60 89 126 83 6 41 46 47 47 47 48 48 48 46 42 38 33 13 6 49 
49 27 22 38 50 41 40 8 50 94 64 87 108 64 73 71 14 39 46 44 
42 36 34 32 30 29 27 32 32 48 58 23 36 18 8 11 38 39 40 14 
34 59 59 77 51 76 64 44 19 33 33 35 32 36 42 43 43 42 32 31 
39 23 33 6 15 3 11 2 37 33 41 31 9 31 38 20 12 21 19 16 
32 55 45 35 21 39 46 46 45 44 40 21 37 12 7 19 23 1 9 1 
33 17 41 49 11 4 4 9 8 6 2 1 31 57 46 45 33 43 46 45 
45 44 41 22 36 16 2 51 56 35 32 24 35 25 40 50 27 0 1 1 
2 1 0 0 26 46 46 45 44 45 46 45 45 44 42 23 35 44 49 46 
41 51 42 43 41 37 38 26 17 0 0 0 0 0 0 2 39 44 44 43 
45 45 44 44 43 42 41 23 34 40 46 21 6 22 9 18 13 10 35 37 
35 18 1 1 3 3 9 36 17 25 32 12 39 45 43 43 43 43 41 23 
33 38 42 24 3 16 7 18 10 4 31 44 40 53 47 46 81 74 72 85 
9 18 33 14 35 43 19 38 41 41 38 21 33 0 33 41 35 42 45 44 
51 33 36 41 39 49 91 77 116 107 102 98 17 17 32 10 33 26 1 33 
41 41 39 21 32 0 30 33 16 36 42 29 44 40 39 42 36 28 102 98 
124 118 118 103 25 22 36 18 35 8 0 27 42 41 40 21 32 0 26 20 
0 38 16 0 36 40 39 41 35 23 102 113 126 129 131 97 26 26 32 25 
18 8 0 15 40 43 41 20 27 0 24 23 15 41 23 10 33 40 39 37 
27 25 89 123 124 133 136 69 27 22 18 22 24 26 15 34 47 61 56 26 
17 0 21 37 42 42 18 35 36 37 25 21 23 22 50 125 130 136 108 39 
4 16 20 18 24 21 40 31 42 45 41 28 2 16 27 31 27 29 37 35 
36 35 16 18 1 7 38 94 132 134 62 31 11 15 20 46 59 45 80 37 
40 36 34 24 0 21 29 31 30 28 28 26 35 22 18 27 36 20 20 37 
112 111 29 16 23 33 24 22 24 18 45 18 22 25 37 33 0 32 25 32 
33 29 31 53 60 53 42 22 48 21 27 20 27 35 18 31 26 60 28 23 
27 21 52 20 23 15 28 37 0 25 17 29 30 31 35 32 30 25 24 24 
63 24 32 30 15 21 23 29 23 50 24 23 24 23 48 18 28 25 25 28 
