P2 
32 30
157
10 48 44 41 38 35 32 29 26 23 7 5 9 14 6 0 1 0 1 5 
12 20 25 28 30 33 36 38 41 43 45 47 48 48 45 43 40 37 34 31 
28 26 20 21 21 26 20 12 14 15 23 27 29 31 33 35 38 41 43 45 
46 47 47 48 48 49 46 43 41 38 35 33 31 29 26 29 26 31 25 21 
21 28 31 32 34 36 38 41 43 44 46 47 47 47 48 48 48 49 46 44 
42 39 37 35 33 31 29 34 28 33 30 23 22 29 34 36 37 39 40 43 
44 45 46 47 48 48 49 49 48 49 47 45 43 40 38 36 34 32 31 36 
30 32 24 10 7 9 25 37 39 40 42 43 45 47 48 48 48 48 49 49 
48 49 47 46 44 42 39 38 36 34 33 38 34 19 3 3 5 4 9 23 
40 42 44 45 47 48 49 48 49 49 49 49 49 49 48 46 45 43 41 39 
37 36 34 40 33 6 2 1 0 1 2 10 25 42 45 46 48 49 49 49 
49 49 48 49 49 49 48 47 45 43 42 40 38 37 36 40 21 2 7 22 
37 35 20 2 14 33 45 47 48 49 49 49 49 48 49 48 47 49 47 47 
45 44 42 41 40 38 37 35 8 16 67 94 104 95 79 24 5 29 46 47 
48 48 48 48 48 48 47 47 46 42 49 49 46 45 44 47 42 39 38 30 
8 61 97 116 120 111 97 65 9 21 47 47 48 48 49 48 48 48 47 47 
46 45 52 46 52 39 45 40 40 40 39 20 22 76 109 130 133 131 110 79 
22 14 46 47 47 48 48 47 47 48 47 46 45 17 29 5 22 1 5 16 
17 41 39 12 29 86 116 134 139 137 121 89 30 19 46 47 47 47 47 47 
48 47 46 46 46 8 5 3 20 4 13 20 18 41 40 20 28 61 65 109 
145 98 58 54 38 12 45 47 47 47 47 47 48 46 42 37 33 13 6 49 
49 28 22 38 50 41 41 29 27 56 66 61 122 75 62 73 45 31 45 44 
42 36 34 32 30 28 27 32 32 47 58 23 35 17 8 12 38 39 40 35 
40 79 77 88 108 95 95 101 63 40 33 34 32 35 41 42 42 41 31 30 
38 22 32 6 15 3 11 2 36 32 40 30 37 103 125 106 114 108 134 120 
63 57 43 34 20 37 45 44 44 42 38 20 36 12 7 19 24 1 9 1 
34 18 41 37 32 94 141 104 128 102 147 124 47 56 46 45 33 42 45 45 
44 43 40 22 35 16 2 51 56 35 33 25 36 27 41 42 20 70 127 95 
72 88 140 97 30 47 46 45 44 45 46 45 45 44 42 23 35 44 50 46 
42 52 43 43 42 38 42 43 20 35 74 32 51 25 44 67 14 38 44 43 
45 45 45 44 43 43 42 23 35 40 46 21 6 22 10 18 13 10 36 44 
23 11 35 69 95 90 49 35 3 24 32 12 39 44 43 42 43 42 40 22 
33 37 41 24 3 15 7 18 10 4 31 44 32 1 14 56 21 40 32 6 
2 17 32 14 34 42 18 38 41 40 38 20 32 0 32 40 35 41 44 43 
49 32 35 40 38 3 2 10 8 8 5 0 4 18 32 10 33 26 1 32 
41 40 38 21 32 0 29 32 16 35 40 29 43 39 38 42 33 8 1 2 
1 1 1 15 13 21 36 18 34 8 0 27 41 41 39 21 31 0 25 19 
0 36 16 0 35 39 38 40 26 13 52 16 1 1 30 79 16 23 30 26 
18 8 0 15 39 42 40 19 27 0 23 22 14 39 22 9 31 38 38 34 
24 16 70 106 92 96 119 77 22 19 17 20 23 24 17 32 46 60 55 26 
16 0 21 36 40 41 17 35 35 37 22 20 21 19 38 125 128 131 123 48 
9 11 18 17 23 20 35 29 38 45 40 27 2 15 27 31 27 28 36 35 
34 37 16 18 2 6 30 92 133 129 82 34 12 10 19 39 59 46 66 45 
36 36 34 24 0 21 29 31 30 28 28 23 40 24 17 29 39 18 20 33 
104 117 42 15 23 32 25 22 25 20 39 22 18 23 34 33 0 32 25 32 
33 30 32 43 72 46 47 21 49 20 27 22 23 39 17 31 26 54 34 24 
27 23 43 29 20 17 24 37 0 25 17 29 29 27 35 23 40 25 23 25 
63 23 32 30 15 21 22 29 23 44 27 22 24 23 40 25 23 27 22 26 
