P2 
32 30
157
10 48 45 42 39 36 33 30 27 24 7 6 10 15 6 0 1 0 1 6 
13 20 26 28 31 34 37 39 42 44 46 47 48 49 46 43 40 37 34 31 
29 27 21 22 21 27 21 12 13 15 23 27 29 31 33 36 38 41 44 46 
47 47 48 48 49 49 46 44 41 38 36 33 31 29 27 30 26 31 26 21 
21 28 31 32 34 36 38 40 42 44 46 47 47 48 48 48 48 49 46 44 
42 39 37 35 33 31 29 34 29 33 29 26 26 32 34 36 37 38 40 42 
44 45 46 47 47 48 48 48 48 49 47 45 42 40 38 36 34 32 31 36 
31 30 28 27 30 35 36 38 38 40 41 42 45 46 47 47 48 48 48 48 
48 49 47 45 44 41 40 38 36 34 33 37 22 14 9 11 16 26 37 38 
40 42 43 45 46 48 48 48 48 48 49 49 48 49 48 46 45 43 41 39 
37 36 34 30 10 7 3 2 6 9 23 39 42 43 45 46 47 48 48 49 
49 48 48 48 48 49 47 46 45 43 41 40 38 37 34 21 3 3 7 2 
0 3 7 29 42 43 45 47 48 48 48 49 48 48 48 48 47 49 48 47 
45 44 42 41 39 38 35 18 29 60 67 26 2 4 4 10 42 44 46 47 
48 48 48 48 48 48 47 47 46 42 49 49 47 45 44 47 42 39 36 49 
86 99 98 56 9 3 4 1 31 46 47 47 47 48 48 48 48 48 47 47 
46 45 53 46 53 39 46 40 39 40 42 84 107 111 108 81 22 2 3 1 
20 46 46 47 47 48 48 48 48 48 48 47 46 17 30 6 23 1 5 17 
17 41 58 98 112 120 122 106 46 11 23 5 13 46 47 48 48 48 48 48 
49 48 47 47 47 9 6 3 21 4 14 21 18 42 69 57 73 111 132 114 
41 60 125 65 3 42 47 48 48 48 48 48 49 47 42 38 33 14 7 50 
50 29 23 40 51 42 66 57 84 115 134 124 26 83 119 76 1 38 47 45 
43 37 35 33 31 29 28 33 33 49 59 24 36 19 9 13 39 40 53 110 
93 119 132 129 51 87 122 75 1 24 33 34 32 36 41 42 43 42 32 31 
39 22 33 6 15 4 11 2 36 33 106 132 108 129 127 106 37 91 120 62 
0 26 43 34 20 37 45 44 44 42 38 20 36 12 7 19 24 1 9 1 
34 30 128 128 105 114 109 63 38 64 104 46 1 27 44 44 32 42 45 44 
44 43 40 21 35 16 2 52 56 35 32 24 36 32 73 73 88 74 59 35 
29 32 98 65 11 0 10 42 43 45 45 45 44 43 41 22 34 44 50 47 
42 52 43 43 42 39 29 34 47 50 32 21 8 5 74 69 25 1 0 30 
45 45 45 44 44 43 41 23 34 41 47 21 6 22 10 18 13 11 29 41 
103 39 17 9 1 23 102 86 31 1 0 5 39 45 44 43 43 43 41 23 
33 38 42 24 3 16 7 19 10 4 31 23 28 10 2 1 1 55 121 99 
63 5 1 3 35 42 19 38 41 40 38 20 32 0 33 40 35 42 45 43 
50 32 35 6 3 2 0 1 38 111 127 99 104 23 4 0 31 26 1 32 
41 40 38 20 32 0 30 32 16 36 41 29 43 40 39 13 1 0 0 4 
83 137 132 103 87 28 11 6 34 8 0 27 41 41 39 20 31 0 25 19 
0 37 16 0 36 40 39 37 10 1 1 15 108 138 134 116 39 26 24 23 
22 8 0 15 39 42 40 19 27 0 23 22 15 40 23 9 32 40 39 39 
33 17 14 81 101 126 128 85 25 5 30 14 27 26 24 26 42 61 56 26 
17 0 21 37 41 42 18 35 36 37 37 26 17 10 23 57 125 112 84 47 
23 2 31 27 40 41 32 64 26 33 40 28 2 14 27 30 27 29 37 35 
36 34 25 14 13 12 12 42 100 112 59 16 20 16 26 20 35 39 30 63 
31 40 36 23 0 19 28 31 30 28 32 34 24 48 28 21 27 38 17 17 
19 53 21 26 29 37 50 24 27 28 21 52 21 21 19 17 0 28 24 31 
32 32 33 34 34 61 31 26 33 39 25 29 16 26 22 30 27 40 40 24 
26 28 23 55 22 28 16 14 0 19 14 28 29 29 26 28 19 36 19 25 
37 42 23 27 15 27 17 25 22 40 39 31 26 24 22 40 20 29 28 23 
