P2 
32 30
157
10 52 48 45 42 38 35 33 29 26 8 7 11 16 7 0 1 0 1 6 
15 23 29 31 34 37 40 42 45 48 50 51 52 52 49 46 43 40 37 34 
32 29 22 23 23 28 22 14 15 16 25 29 32 35 37 39 42 45 47 49 
50 51 52 52 53 53 50 47 44 41 38 36 33 31 28 32 28 33 27 23 
22 30 33 35 37 39 42 44 46 48 49 51 51 51 52 52 52 52 50 47 
45 42 39 37 35 33 31 36 30 34 31 28 28 34 36 38 40 42 44 46 
47 48 49 50 51 52 52 52 52 52 50 48 46 43 41 39 37 35 33 39 
33 35 34 32 33 37 39 40 42 43 45 47 49 50 51 51 52 52 52 53 
52 53 51 49 47 45 43 40 38 36 35 41 37 37 37 35 36 39 31 27 
26 31 45 49 50 52 52 52 52 52 53 52 52 53 51 50 48 46 44 42 
40 38 37 42 39 38 39 37 36 23 12 6 6 7 16 41 51 52 52 53 
52 53 52 53 52 53 52 50 49 47 45 43 41 40 38 44 41 40 40 38 
24 7 3 1 1 2 8 24 51 53 53 53 53 53 53 53 51 53 52 51 
49 47 46 44 42 41 40 46 42 42 42 31 3 6 5 14 13 3 0 19 
46 53 53 53 53 54 52 52 51 46 53 53 50 48 47 50 45 42 41 46 
42 44 43 12 2 7 21 73 76 49 15 15 45 52 53 53 53 53 52 52 
50 48 55 48 55 41 47 42 41 42 41 46 39 40 37 0 4 11 54 100 
106 102 81 27 45 49 51 50 50 51 50 49 48 18 31 6 23 1 5 17 
18 43 42 47 43 43 28 0 2 28 87 112 118 115 106 70 47 49 51 51 
51 51 50 50 50 9 6 3 22 4 15 22 19 44 43 48 44 43 9 0 
8 43 95 124 127 131 117 90 52 51 51 51 52 50 45 41 36 14 7 53 
52 30 23 41 53 44 43 49 43 33 23 48 9 26 85 132 133 134 120 98 
54 39 37 35 33 31 30 35 35 52 62 25 38 20 9 13 42 42 44 42 
29 21 69 114 54 49 90 46 44 53 107 106 47 40 46 46 47 46 36 35 
43 25 36 6 16 4 13 3 40 36 44 43 38 37 72 117 43 69 142 93 
18 0 14 73 13 39 49 50 49 47 43 24 41 14 8 21 26 1 10 1 
36 19 44 44 44 40 67 117 51 72 138 100 3 0 20 12 0 37 49 49 
49 47 44 24 39 18 3 54 60 38 34 26 38 27 43 45 43 18 8 113 
41 49 125 118 16 22 107 44 6 48 49 48 48 46 45 25 37 47 53 49 
44 54 46 46 44 40 44 45 44 10 0 37 11 28 99 124 135 126 129 81 
33 47 47 47 46 45 44 25 37 43 50 23 6 23 10 19 14 11 39 47 
44 12 1 30 8 22 55 97 125 124 93 64 42 48 47 46 47 46 44 26 
37 37 43 26 3 17 7 20 11 5 33 47 42 16 1 32 8 12 26 65 
56 33 24 17 38 46 21 42 45 44 41 23 36 0 33 42 37 44 47 45 
53 34 38 43 41 25 0 38 24 2 7 31 62 76 29 6 35 28 1 35 
44 43 41 23 35 0 29 35 17 38 43 31 46 42 41 44 35 32 12 45 
59 1 0 2 23 4 3 14 37 9 0 29 45 44 42 22 34 0 25 20 
0 39 17 0 38 42 40 42 29 30 17 45 83 31 0 1 4 3 2 23 
20 9 0 16 42 45 43 21 29 0 23 23 16 42 24 9 33 41 40 40 
37 29 26 37 93 88 21 2 0 2 10 15 16 23 14 36 49 64 59 28 
18 0 20 39 43 44 19 37 37 39 38 37 30 20 15 35 87 125 95 84 
37 15 8 17 15 23 24 40 40 48 43 29 2 14 28 33 29 31 39 38 
38 38 35 26 19 6 5 34 67 123 134 96 29 11 15 21 45 48 39 73 
30 37 37 26 0 19 30 34 33 31 36 37 34 29 31 18 31 46 22 19 
15 88 105 21 20 25 44 21 23 24 24 39 19 32 30 36 0 29 26 34 
35 35 35 34 32 48 39 49 25 46 20 29 23 23 23 26 29 33 48 24 
25 26 31 39 22 24 10 32 0 22 17 31 32 32 33 30 25 30 25 26 
24 55 22 30 25 14 23 24 24 35 34 21 23 23 31 31 23 32 23 21 
