P2 
32 30
155
10 53 50 46 43 39 36 33 30 26 8 7 11 17 7 1 1 0 1 6 
15 23 29 31 34 37 40 43 46 49 51 52 53 53 50 47 44 41 38 35 
32 30 23 24 24 29 23 14 16 17 27 30 33 35 37 39 42 45 48 50 
52 52 53 53 54 55 52 49 46 44 40 38 35 33 30 34 30 35 29 25 
25 33 36 37 39 41 43 46 48 50 52 53 53 54 54 54 55 55 52 49 
47 44 41 39 37 35 33 39 33 37 34 31 30 37 39 40 42 43 45 48 
50 50 52 53 53 54 55 54 54 54 52 50 48 45 43 40 38 36 35 41 
34 37 36 33 33 38 40 42 43 45 46 48 50 52 53 53 54 54 54 54 
53 54 52 51 48 46 44 42 40 38 37 43 38 38 35 21 17 15 23 42 
44 46 48 50 52 53 53 53 54 54 54 54 54 54 52 51 49 47 45 43 
41 39 38 44 40 35 10 9 5 6 9 19 41 47 49 51 52 53 53 54 
53 54 53 54 53 54 53 51 50 48 46 44 43 41 39 45 41 20 3 0 
1 2 2 6 22 46 50 52 53 54 54 54 54 54 53 53 52 54 53 52 
51 49 47 45 44 42 41 46 37 10 1 3 5 8 9 1 9 28 51 53 
54 54 54 54 53 54 53 53 52 47 54 54 51 49 48 51 46 43 42 47 
24 5 16 29 54 56 63 37 4 16 51 53 53 53 54 54 53 53 52 52 
51 49 57 50 57 43 50 43 43 44 43 47 14 18 72 87 102 104 99 80 
24 6 49 51 51 52 52 52 52 53 52 51 50 19 32 6 24 1 6 18 
19 45 44 46 7 50 99 118 130 126 113 98 55 4 45 52 52 52 52 52 
53 52 51 51 51 10 6 4 22 5 16 23 20 46 45 41 3 71 102 125 
139 138 129 106 68 6 46 52 52 52 52 52 53 51 46 42 36 15 7 55 
54 32 26 43 56 46 46 43 5 76 103 134 148 148 143 110 76 9 41 48 
47 40 38 36 34 32 31 36 36 53 64 26 40 21 11 14 44 44 45 43 
22 67 107 141 150 150 148 109 77 14 37 38 36 40 46 47 47 46 36 35 
44 26 37 6 17 4 14 4 41 38 45 43 23 43 43 75 131 130 51 17 
20 29 55 40 24 43 51 51 50 48 44 25 42 14 9 22 27 2 11 2 
38 21 46 41 31 2 4 1 26 37 0 2 6 37 57 50 37 48 51 51 
51 49 46 26 41 19 4 57 62 40 37 28 40 30 46 47 43 4 0 0 
22 82 0 1 4 44 54 50 49 51 51 50 50 49 48 27 40 48 54 51 
45 56 46 47 45 42 45 46 38 18 5 6 61 120 62 42 60 29 48 47 
49 49 48 47 48 46 45 25 37 44 50 23 7 24 11 20 14 11 39 47 
41 21 84 118 101 125 123 138 67 15 35 14 42 48 46 46 46 46 44 25 
36 42 46 26 3 17 7 20 11 5 34 48 42 10 59 99 70 73 105 109 
38 14 36 16 38 46 21 42 44 44 42 23 36 0 36 44 39 46 48 47 
54 36 39 45 43 14 27 32 20 39 23 35 15 10 35 13 37 29 1 36 
45 45 43 24 36 0 33 36 18 39 45 32 48 43 43 46 36 24 6 33 
68 65 71 22 3 4 30 21 38 9 0 30 46 45 43 23 35 0 28 21 
0 41 18 0 39 43 42 44 30 29 4 5 19 7 16 3 8 9 23 29 
20 9 0 17 43 47 45 23 31 0 26 25 17 44 25 10 35 43 42 42 
39 23 6 1 2 2 1 6 23 17 25 22 26 25 13 37 52 66 61 29 
19 0 24 41 45 45 20 39 39 41 40 40 33 15 5 18 34 17 18 39 
21 1 26 14 24 26 27 44 45 50 45 31 3 17 30 35 31 32 41 39 
39 39 35 30 18 4 6 33 73 116 94 43 30 7 27 26 50 51 37 76 
29 37 38 27 0 23 32 35 34 32 36 38 36 28 31 16 28 39 20 17 
28 91 67 16 24 22 38 22 24 25 18 45 21 33 34 36 0 34 29 36 
37 36 37 36 32 47 47 45 26 46 20 29 21 20 26 27 30 30 53 24 
26 27 25 48 23 26 13 32 0 26 20 33 33 33 34 30 29 33 26 23 
26 56 23 31 24 15 25 24 23 32 37 21 24 24 27 38 23 35 17 22 
