P2 
32 30
158
10 50 47 44 40 37 34 31 28 24 8 6 10 16 7 0 1 0 1 6 
14 22 28 30 32 36 38 41 43 46 48 49 50 50 47 44 41 39 35 33 
30 27 21 22 21 27 21 12 14 16 24 28 30 33 34 37 40 42 45 47 
48 49 49 50 51 50 47 44 42 39 36 34 31 29 26 30 26 31 26 21 
21 29 32 33 35 37 39 41 44 45 47 48 49 49 49 49 49 50 48 45 
43 40 38 35 33 31 30 34 29 33 30 27 26 32 35 37 38 40 41 44 
45 46 47 48 49 50 50 50 50 50 48 46 43 41 39 37 35 33 31 37 
31 33 33 29 30 33 34 38 40 41 43 44 46 48 48 49 49 49 50 50 
49 50 48 46 44 42 40 38 36 34 33 39 35 34 30 15 9 10 15 33 
41 43 44 46 47 49 49 49 50 49 50 50 49 49 48 47 44 43 41 39 
37 35 34 39 36 31 12 3 1 1 4 22 38 43 45 47 48 49 49 49 
49 49 49 49 49 51 49 48 46 44 43 41 40 38 37 42 37 18 5 0 
11 29 35 36 40 44 47 49 50 50 51 51 50 50 50 50 49 51 50 49 
47 45 43 42 41 39 38 43 35 7 5 18 66 84 88 91 65 46 48 50 
50 51 51 51 50 51 50 49 48 43 50 50 47 45 44 47 43 40 39 44 
27 1 5 37 91 107 113 112 100 63 48 48 49 49 49 49 49 49 48 48 
47 46 54 47 53 40 46 40 40 41 40 44 17 2 7 52 105 119 92 58 
67 93 48 48 48 49 49 49 48 49 49 48 47 17 30 5 22 1 5 17 
17 42 41 45 11 0 4 54 75 59 40 3 2 50 11 41 49 49 49 49 
50 50 49 48 48 8 5 3 20 4 13 20 18 41 41 45 13 0 7 19 
90 137 79 5 0 49 14 30 48 49 49 48 49 47 43 38 34 14 6 50 
50 28 22 39 51 42 41 45 14 47 64 25 86 133 113 26 19 106 101 32 
43 37 35 33 31 29 28 33 33 49 59 23 36 18 8 12 39 40 42 38 
11 95 112 35 54 121 132 132 122 118 101 42 32 37 42 43 44 43 33 32 
40 23 34 6 15 4 12 3 37 34 42 34 6 63 124 72 30 72 112 118 
123 85 42 35 22 39 47 46 46 44 40 22 38 13 7 19 24 1 9 1 
34 17 42 24 19 13 105 101 15 32 62 78 59 43 42 33 33 43 46 46 
45 44 41 22 36 16 2 51 56 35 32 25 36 26 41 41 36 7 31 59 
6 24 38 41 68 109 44 29 44 46 46 45 45 44 42 23 35 45 50 47 
42 53 44 44 42 39 42 43 41 15 17 65 17 7 13 17 15 43 2 22 
46 46 46 45 45 44 43 24 36 41 47 22 6 22 10 18 14 10 37 45 
29 0 10 55 52 1 0 1 2 10 4 6 41 46 45 44 44 44 42 23 
35 37 43 25 3 16 7 19 10 4 32 45 23 0 2 59 97 36 3 0 
0 0 0 11 36 44 19 40 42 41 39 21 34 0 33 41 36 43 45 44 
51 33 36 41 26 2 8 64 118 101 71 20 1 3 21 10 34 27 1 33 
42 42 40 21 33 0 30 33 17 37 42 30 45 41 40 43 31 17 19 70 
113 136 129 100 56 16 31 19 36 8 0 28 43 42 40 21 33 0 25 20 
0 38 16 0 36 40 39 41 27 24 22 68 101 143 126 123 53 21 24 25 
19 8 0 16 40 43 41 20 27 0 22 21 15 39 22 8 32 39 38 37 
31 20 19 49 88 134 127 104 24 0 18 12 19 21 18 32 47 60 55 25 
16 0 20 37 41 42 18 35 36 37 36 24 20 3 4 32 69 123 119 57 
24 8 19 20 34 25 46 42 38 46 41 28 2 14 26 31 28 30 38 36 
35 33 30 18 31 36 23 19 17 79 63 14 22 23 32 20 31 30 40 29 
29 38 36 25 0 19 28 32 30 28 33 29 27 54 44 38 25 43 23 29 
23 19 23 26 28 32 47 23 24 23 39 27 17 18 33 33 0 29 25 32 
34 33 32 38 29 40 24 23 30 56 26 31 26 15 23 25 25 32 39 20 
22 22 38 24 23 21 23 37 0 22 16 30 30 30 20 22 31 36 23 25 
28 49 23 26 26 66 51 54 45 56 70 48 51 29 32 21 21 22 18 23 
