P2 
32 30
156
10 53 50 46 43 40 36 34 31 27 8 7 11 17 7 1 1 0 1 7 
15 23 29 32 34 37 40 43 46 49 51 52 53 53 51 47 44 41 38 35 
32 29 23 25 24 29 23 15 16 17 26 30 33 35 37 40 43 46 49 50 
52 52 53 53 54 54 51 49 46 43 40 37 35 33 29 33 29 35 29 25 
24 32 35 36 38 40 42 45 47 49 51 52 52 53 53 54 54 54 52 49 
46 44 41 39 36 34 33 38 32 37 33 30 30 36 38 40 41 43 45 47 
49 50 51 52 53 53 54 54 54 54 51 50 47 45 43 40 38 36 35 41 
34 36 35 33 32 36 39 42 43 44 46 48 50 52 52 52 53 53 54 54 
53 54 52 50 48 46 44 42 40 38 36 42 38 37 37 28 15 12 15 33 
44 46 48 49 51 53 53 53 53 53 54 53 54 54 53 51 49 47 45 43 
41 39 38 44 40 39 27 5 4 6 5 13 34 47 49 51 52 53 53 54 
54 54 53 54 54 55 53 52 50 48 46 44 43 41 40 45 41 39 9 2 
1 1 1 3 15 41 50 52 54 54 54 55 54 54 54 54 53 54 53 52 
50 48 46 45 43 42 41 46 42 23 3 5 13 22 19 9 4 20 47 52 
53 53 53 54 53 53 52 52 52 46 53 54 50 49 47 50 46 43 41 47 
41 7 18 60 75 87 81 64 11 9 44 51 52 53 53 53 52 53 52 51 
50 49 57 50 57 43 49 43 43 44 43 47 32 7 63 100 118 121 108 93 
45 4 39 51 51 52 52 51 52 52 52 51 50 19 32 6 24 1 6 18 
19 45 44 49 24 22 81 108 128 132 124 103 69 7 33 51 51 52 52 52 
52 52 51 50 51 10 6 3 22 4 15 22 19 45 44 48 20 29 88 118 
138 143 141 112 76 10 40 51 51 51 51 51 52 50 45 41 36 15 7 54 
53 30 24 42 55 45 44 49 34 28 84 117 146 148 145 110 80 11 37 47 
46 39 37 35 33 31 30 35 35 54 64 26 40 21 11 15 44 44 45 44 
33 17 22 16 63 128 39 17 32 14 35 40 37 41 47 49 48 48 37 37 
45 26 37 6 17 4 14 4 41 37 45 43 33 10 2 0 2 45 0 1 
3 24 53 40 24 43 51 51 50 48 44 24 42 14 8 21 26 1 11 1 
37 19 45 44 46 23 1 0 17 108 10 1 3 42 53 49 36 47 50 50 
49 48 45 25 40 19 3 56 61 38 35 27 39 29 45 46 44 29 53 55 
80 120 92 67 64 38 50 48 47 49 50 49 48 47 46 26 38 48 54 51 
45 56 47 47 45 41 45 46 44 18 78 127 88 99 118 135 66 24 48 47 
48 48 48 47 47 46 45 25 37 44 50 23 7 23 11 20 14 11 39 48 
44 15 41 85 39 44 63 87 33 18 36 14 42 48 47 46 47 46 44 26 
37 40 45 26 3 17 7 20 11 5 34 48 42 19 15 33 68 87 49 30 
8 16 35 16 38 46 21 42 45 44 41 23 36 0 36 43 38 45 48 47 
54 35 39 44 42 28 1 20 44 18 46 8 1 14 35 12 36 29 1 36 
45 44 42 24 36 0 32 36 18 39 44 32 47 43 42 45 36 32 6 3 
7 6 5 1 11 11 33 21 38 9 0 30 45 45 43 23 35 0 28 21 
0 39 17 0 39 42 41 43 29 28 9 0 1 1 1 5 47 22 27 27 
20 9 0 17 43 46 44 21 30 0 25 24 16 43 24 10 34 42 41 41 
38 27 10 37 33 13 28 86 38 17 27 20 26 25 15 36 51 65 61 28 
19 0 23 41 45 46 20 38 39 41 40 39 34 23 17 36 115 121 124 74 
18 0 35 16 26 25 25 42 40 50 45 31 3 16 30 34 31 32 40 39 
40 39 36 28 19 6 4 31 89 132 102 45 26 8 27 29 50 51 39 77 
32 41 37 27 0 22 32 35 34 31 37 38 35 29 34 18 29 44 20 19 
17 74 49 18 28 28 39 24 25 25 24 44 20 30 28 36 0 33 28 36 
37 36 37 35 34 48 40 44 25 50 23 31 23 19 27 30 30 40 45 26 
27 28 31 44 23 27 11 29 0 26 20 33 33 34 35 30 27 30 27 26 
27 59 25 32 24 20 24 28 25 38 31 24 25 25 33 35 24 34 25 22 
