P2 
32 30
158
10 52 49 45 42 38 35 33 30 25 8 6 11 16 6 0 1 0 1 6 
14 22 28 31 34 36 39 42 45 48 50 51 52 52 49 47 43 40 37 34 
31 29 23 24 23 28 22 13 15 16 25 29 32 34 36 38 42 45 47 49 
50 51 52 52 52 52 50 47 44 41 38 36 33 31 28 31 27 33 27 23 
22 30 33 35 36 38 40 43 46 47 49 50 51 51 52 52 52 52 50 47 
44 42 39 37 35 32 31 36 31 34 31 28 28 34 36 38 39 41 43 45 
47 48 50 50 51 51 52 52 52 53 51 49 47 44 42 40 38 36 34 40 
33 36 35 32 33 38 40 41 43 44 45 47 49 51 52 52 53 53 54 53 
53 53 52 50 47 45 43 41 39 37 35 41 37 37 37 35 36 40 41 42 
44 45 47 49 50 52 52 52 53 53 53 53 53 53 51 50 48 46 44 42 
40 38 37 42 38 38 38 37 37 42 42 43 45 46 48 50 51 51 52 52 
52 52 52 53 52 53 52 50 48 47 44 43 41 39 38 44 40 40 39 38 
38 43 44 45 46 47 49 50 52 52 52 53 52 52 52 52 51 53 51 50 
49 47 45 44 42 40 39 45 41 42 41 38 39 42 44 46 46 48 49 51 
52 52 52 52 52 52 51 51 50 45 52 52 49 47 46 49 44 41 40 45 
41 43 42 40 79 42 23 31 44 49 50 50 51 51 51 51 51 51 50 50 
49 47 56 49 55 41 48 42 41 42 40 46 38 31 11 1 92 52 2 12 
35 49 49 50 50 51 51 51 51 51 50 50 49 19 32 6 23 1 6 17 
18 43 42 47 43 17 27 22 65 71 59 71 33 48 50 50 50 51 51 51 
52 51 50 50 50 9 6 3 22 4 14 22 18 43 43 47 43 36 67 60 
85 75 58 62 27 39 49 51 51 51 51 50 52 50 45 40 35 15 7 53 
52 29 23 40 53 43 42 48 41 32 52 37 15 10 14 20 12 23 49 47 
45 38 36 35 32 31 30 35 35 51 62 25 38 19 9 13 41 41 43 42 
30 11 13 4 6 5 2 0 2 13 35 37 35 39 45 46 46 45 35 34 
43 25 35 6 16 4 12 3 39 36 43 43 29 1 4 0 1 2 1 1 
0 31 47 38 23 42 49 49 49 47 43 24 40 14 8 21 26 1 10 1 
36 19 44 44 38 6 0 0 1 4 2 0 0 44 49 48 35 46 49 49 
49 47 44 25 39 18 3 55 60 38 34 27 38 28 44 45 43 52 0 0 
2 19 13 1 1 19 49 48 47 49 49 49 49 48 46 25 39 48 54 50 
45 55 46 47 45 41 45 46 44 28 2 3 29 87 77 41 43 24 48 47 
49 49 48 48 48 46 45 26 38 44 51 23 7 24 11 20 15 12 40 48 
45 40 13 53 58 116 111 92 92 26 35 14 43 49 48 47 47 47 45 26 
37 38 45 26 3 17 7 20 11 5 34 48 41 31 26 83 79 133 130 116 
103 26 35 15 37 45 21 41 44 43 41 22 35 0 33 42 37 44 48 45 
53 34 38 43 33 32 34 87 100 135 141 128 111 30 32 11 34 27 1 34 
43 43 40 22 34 0 29 35 17 39 44 31 47 43 42 45 35 33 29 73 
112 138 147 140 101 28 24 20 37 9 0 29 45 44 42 22 34 0 24 20 
0 40 18 0 39 43 41 43 29 30 29 57 125 137 149 130 43 13 25 31 
20 9 0 16 42 46 43 21 29 0 22 23 17 43 24 10 35 42 41 41 
38 24 10 36 115 139 132 62 20 1 27 18 26 25 23 32 50 65 60 28 
18 0 20 40 45 45 20 38 39 41 40 38 29 13 5 15 62 131 93 37 
35 9 34 28 40 40 31 63 34 47 45 30 2 12 26 33 30 32 40 39 
39 37 33 23 33 36 23 23 13 49 37 21 28 26 49 24 30 33 30 55 
31 41 37 27 0 17 28 34 33 31 35 38 31 37 48 44 24 50 25 32 
25 20 31 31 31 39 49 26 28 28 30 46 22 24 20 35 0 28 26 34 
36 35 36 35 35 43 26 21 26 59 26 31 22 23 23 29 26 40 34 25 
25 26 35 37 25 31 12 25 0 22 17 31 32 32 34 22 23 41 23 24 
25 53 23 35 35 88 48 67 49 70 70 54 46 30 36 24 23 31 27 15 
