P2 
32 30
145
10 32 29 27 24 22 20 18 16 14 3 2 4 8 3 0 0 0 0 3 
7 11 15 17 18 21 23 25 27 29 30 31 32 32 30 28 26 23 22 20 
18 16 11 13 12 17 12 6 8 8 14 16 18 19 21 22 25 27 29 30 
31 31 32 32 32 33 31 29 26 24 23 21 19 17 15 18 16 20 16 13 
12 18 20 21 22 23 25 27 28 29 30 31 31 32 32 32 32 33 31 29 
27 26 24 22 20 19 18 22 19 22 20 16 16 21 22 23 24 25 27 28 
29 30 31 31 32 32 32 32 32 32 31 29 28 26 25 23 22 21 19 24 
19 21 17 15 16 22 24 25 26 26 27 28 30 31 31 31 32 32 32 32 
32 33 32 31 29 27 26 25 24 22 22 23 15 6 6 11 16 14 21 27 
28 29 30 31 32 33 33 33 33 33 33 33 33 34 33 32 31 30 28 27 
26 24 23 20 6 13 20 23 14 12 16 24 30 31 31 32 33 34 34 34 
34 34 33 33 33 33 32 32 31 29 28 27 26 24 22 15 41 101 104 82 
29 19 19 16 22 30 31 33 34 33 33 33 33 33 32 32 32 33 33 32 
31 30 29 28 27 24 27 21 96 128 132 130 111 51 14 6 5 31 32 33 
33 33 33 33 32 32 31 31 31 28 33 34 32 31 30 32 29 23 25 36 
112 132 134 134 133 126 47 0 0 26 32 32 33 33 33 32 32 32 31 31 
30 29 36 32 36 27 31 27 27 19 12 45 112 131 134 133 133 132 116 16 
0 17 32 32 32 32 32 32 31 32 31 31 30 10 20 2 13 0 3 11 
11 17 5 50 105 105 122 135 125 99 99 57 0 15 32 32 32 32 33 32 
33 32 31 31 31 4 2 1 13 1 7 14 12 20 2 55 71 80 90 131 
101 84 95 81 5 17 33 33 33 33 33 32 33 31 28 24 20 7 3 35 
35 18 14 27 36 25 6 74 71 63 88 120 99 78 75 95 25 20 33 31 
29 24 22 20 18 17 15 19 19 33 41 16 24 10 4 7 27 28 79 89 
108 121 102 116 113 112 125 105 82 36 22 22 20 23 28 28 28 27 19 19 
25 13 22 4 10 2 6 1 26 24 91 91 127 134 108 117 122 124 132 107 
105 43 31 23 12 25 30 30 29 28 25 12 22 7 3 12 15 0 5 0 
23 11 86 92 120 135 108 81 94 129 133 102 101 33 32 31 21 28 31 30 
30 29 26 13 22 9 0 35 40 25 22 16 25 18 58 78 109 135 120 117 
115 130 131 89 67 32 31 31 29 31 30 30 30 28 27 14 21 29 35 33 
29 37 30 30 30 27 30 30 96 128 110 112 115 119 126 71 30 31 31 30 
31 31 30 29 29 28 27 13 21 27 32 13 3 15 6 13 8 6 26 32 
76 107 81 90 92 97 110 60 12 17 22 6 27 31 30 28 28 28 26 13 
20 25 28 16 1 11 5 13 7 2 23 33 60 81 101 112 114 104 85 60 
4 11 22 7 23 25 18 28 27 27 25 13 20 0 22 28 24 29 32 31 
36 23 25 30 59 60 77 84 89 80 77 70 2 10 22 5 19 12 0 28 
28 27 25 13 20 0 19 21 10 23 28 20 30 27 27 30 45 83 54 47 
49 65 103 86 0 8 24 9 18 1 0 23 27 26 24 12 18 0 16 12 
0 24 10 0 25 27 22 17 38 97 96 106 117 115 121 95 1 1 6 13 
6 2 0 14 25 27 25 11 14 0 15 13 9 27 13 4 15 8 1 2 
38 117 117 113 126 126 124 103 3 2 3 5 5 4 4 13 33 42 37 16 
10 0 14 24 28 28 8 7 5 4 8 5 31 122 126 122 124 127 128 99 
7 5 4 4 4 5 4 2 10 18 26 18 1 10 18 19 11 4 4 5 
5 8 10 8 12 115 130 129 126 131 129 85 10 7 7 5 5 6 6 4 
4 3 9 15 0 13 14 4 2 4 5 7 7 10 9 10 21 113 136 111 
124 135 125 108 9 7 6 6 5 7 7 5 6 5 2 18 0 20 3 3 
4 5 6 7 9 9 10 10 33 126 103 124 110 131 129 93 10 8 8 7 
6 5 7 6 5 5 2 17 0 13 1 4 5 6 6 4 8 8 8 9 
33 131 90 134 118 119 133 98 10 8 7 8 6 4 6 6 5 1 1 11 
