P2 
32 30
155
10 36 34 31 28 25 23 21 19 16 4 3 5 9 3 0 0 0 0 4 
9 15 20 22 23 25 27 30 32 34 35 36 37 36 34 31 29 26 24 22 
20 18 13 14 14 18 13 7 9 10 17 20 22 24 25 27 30 32 33 35 
35 36 36 36 37 37 35 33 30 28 26 24 22 20 18 21 18 23 19 16 
15 22 24 26 27 28 30 32 34 35 36 36 37 36 37 37 37 37 35 33 
31 29 27 25 24 22 21 25 21 25 22 20 20 26 27 29 30 31 33 35 
35 36 36 37 37 37 38 37 38 38 35 34 32 30 28 27 25 24 23 28 
23 25 25 24 25 28 29 31 32 33 34 35 36 37 37 37 38 38 38 38 
37 38 36 35 33 31 29 28 27 25 24 29 26 27 27 16 11 17 14 24 
29 32 35 36 37 38 38 38 38 38 38 38 38 38 36 35 34 33 31 30 
28 27 26 31 28 27 11 2 0 1 0 4 9 15 27 35 38 39 39 39 
39 38 38 38 38 38 37 36 35 34 32 31 29 28 27 32 29 14 4 4 
2 2 1 3 3 8 12 13 28 39 40 40 39 39 39 38 37 36 36 35 
34 33 31 30 29 28 27 32 22 8 9 7 5 1 4 3 10 31 66 23 
9 35 38 38 37 37 36 36 36 31 37 37 34 34 32 35 31 29 29 32 
14 8 12 12 9 7 12 8 22 60 103 87 2 29 38 38 37 37 36 36 
35 34 40 35 40 29 34 30 30 31 30 27 12 10 12 12 17 15 17 22 
48 99 121 116 25 31 38 37 37 38 37 36 35 12 22 3 15 0 3 12 
13 32 31 22 12 12 11 13 20 24 23 33 76 125 139 121 56 38 38 38 
39 38 37 36 37 5 3 2 15 2 9 15 14 33 32 13 14 18 15 12 
27 24 29 77 135 141 142 123 79 39 39 38 39 37 33 29 25 9 4 38 
38 21 16 30 41 33 31 11 19 19 14 62 121 90 108 141 142 142 136 85 
51 30 27 25 24 23 21 25 25 37 46 18 28 13 6 9 31 32 31 15 
14 16 18 101 132 135 143 143 143 142 123 76 90 30 34 35 35 34 25 24 
31 17 26 4 12 2 8 1 30 27 33 13 5 15 29 125 139 109 143 143 
143 143 137 108 137 64 38 37 36 34 31 16 29 8 4 14 17 0 7 0 
27 14 34 11 2 12 44 111 135 140 141 142 143 142 142 121 138 114 37 36 
36 35 32 16 27 11 0 40 44 28 25 20 29 21 34 15 3 7 57 120 
117 131 134 143 143 142 142 118 120 116 40 36 36 35 33 17 26 33 39 36 
32 41 34 35 34 32 34 23 3 8 79 132 145 144 137 138 142 142 136 103 
89 51 37 35 35 34 33 17 26 30 35 15 4 17 7 15 10 8 29 33 
3 12 95 130 144 144 140 134 138 139 115 94 52 37 35 34 34 33 31 16 
24 28 31 18 1 12 5 15 8 4 25 37 23 54 126 127 144 144 142 132 
125 126 117 104 36 29 22 33 32 31 29 15 24 0 25 31 27 33 35 34 
41 26 29 34 36 93 132 122 144 144 140 125 117 117 122 76 25 14 1 33 
33 32 30 15 24 0 22 25 12 27 32 23 35 32 31 33 42 104 129 117 
143 143 138 125 109 96 88 44 25 2 0 28 32 32 30 15 23 0 18 14 
0 28 12 0 28 31 24 14 46 113 125 112 143 144 141 107 54 23 6 14 
7 3 0 17 30 33 30 14 18 0 17 16 11 31 17 6 19 13 9 7 
54 124 109 117 144 144 136 100 7 3 2 6 9 8 8 18 39 49 44 19 
12 0 17 29 33 32 11 10 8 9 13 9 47 129 127 112 145 140 138 91 
11 9 9 9 10 10 9 9 15 23 32 22 2 12 21 23 14 7 7 8 
8 13 15 12 42 131 139 137 138 141 139 70 15 12 12 9 9 11 10 9 
8 7 15 19 0 15 17 6 5 7 9 9 10 13 13 13 58 141 136 135 
125 130 131 98 14 12 11 11 10 12 11 9 11 8 7 23 0 23 5 5 
7 8 9 8 13 13 13 14 36 144 137 109 138 103 132 112 15 14 13 12 
12 10 12 11 10 7 4 24 0 17 2 7 7 8 8 6 11 11 11 13 
34 136 131 104 145 128 124 111 15 15 13 13 9 9 10 10 7 4 2 15 
