P2 
32 30
153
10 36 33 31 28 25 23 21 19 15 4 3 6 10 4 0 0 0 0 4 
9 14 18 20 22 24 27 29 31 32 34 35 36 37 34 32 29 27 24 22 
20 19 13 15 14 19 14 8 9 10 17 19 21 23 24 26 29 31 33 34 
35 35 36 37 37 36 34 32 30 27 25 23 22 20 18 21 18 23 19 15 
15 21 23 24 25 26 28 30 32 33 34 35 35 36 36 36 36 36 34 32 
30 28 26 25 23 21 20 25 20 24 21 19 19 24 26 27 27 29 30 32 
32 33 34 35 35 36 36 36 36 36 34 33 31 29 27 26 24 23 22 27 
22 24 24 22 23 27 28 29 29 29 31 32 34 35 35 35 36 36 36 36 
35 36 35 34 32 30 28 27 26 24 23 28 25 25 25 23 25 28 29 29 
30 31 32 33 35 35 36 36 36 36 36 35 36 36 35 33 32 31 29 28 
26 25 24 29 26 26 20 4 10 26 30 30 32 33 33 34 35 35 36 36 
35 35 35 36 35 36 35 34 33 32 31 29 28 27 26 31 28 27 40 55 
57 34 21 32 33 34 34 36 36 37 37 36 36 36 36 36 35 37 37 36 
34 33 32 31 30 29 28 30 15 7 19 46 90 37 8 13 31 36 37 37 
38 38 37 37 37 37 36 36 36 31 36 37 35 34 33 36 32 30 29 20 
23 0 24 30 126 41 5 15 22 36 36 36 37 37 37 37 36 36 36 35 
34 33 40 35 40 29 34 30 30 30 29 12 21 17 25 82 98 66 5 6 
11 36 36 36 36 37 37 36 36 36 36 35 34 12 22 3 15 0 3 12 
12 31 29 6 57 86 110 110 116 107 102 80 5 35 36 36 36 36 36 36 
37 36 35 35 35 5 3 2 15 2 9 15 13 32 25 2 73 121 124 115 
124 115 121 114 17 30 36 37 36 36 36 36 36 35 31 27 23 9 4 38 
38 20 15 29 40 32 20 2 87 122 129 130 123 133 127 118 34 21 36 34 
32 27 25 23 21 20 19 22 22 36 45 17 27 12 5 8 30 30 19 14 
90 119 132 124 138 129 128 118 47 10 25 26 24 26 31 32 32 31 23 22 
29 16 25 4 11 2 8 1 29 26 21 67 87 109 107 112 119 116 105 112 
84 27 35 27 15 29 35 35 34 32 29 15 26 8 4 14 17 0 6 0 
26 13 30 112 88 87 79 85 106 95 87 95 100 57 36 35 24 32 34 34 
34 32 29 15 25 10 0 39 43 27 24 18 27 19 39 78 59 77 80 93 
116 109 98 87 45 59 36 34 33 34 34 33 33 32 31 15 24 33 38 36 
32 40 33 34 32 30 33 4 83 95 93 104 120 117 107 103 36 14 35 33 
35 35 34 33 33 32 30 16 25 30 35 15 4 17 7 14 10 7 29 7 
52 105 101 116 133 133 117 116 60 15 25 8 30 35 33 32 32 32 30 15 
24 28 31 18 1 12 5 15 8 3 25 19 31 107 109 122 143 142 127 125 
78 13 25 9 26 27 20 31 31 30 28 14 23 0 25 30 27 32 35 34 
40 26 28 28 11 101 113 118 143 141 129 131 79 12 25 7 22 14 1 32 
31 30 28 15 23 0 22 25 12 28 32 23 35 32 31 34 13 82 115 115 
133 135 136 137 95 12 29 14 23 1 0 27 32 30 29 15 22 0 20 15 
0 29 12 0 29 32 32 33 18 102 118 125 135 142 142 141 105 3 4 12 
9 4 0 17 30 32 31 14 19 0 17 15 10 30 16 5 24 23 14 3 
4 109 129 131 142 143 142 140 106 5 2 5 6 6 5 6 32 46 41 18 
12 0 15 27 31 31 11 17 9 8 7 5 6 94 137 138 141 143 142 136 
101 10 6 5 4 6 7 6 6 14 21 20 1 11 20 23 19 13 6 6 
8 8 11 12 9 70 134 125 130 144 141 137 101 12 9 8 6 7 9 9 
7 6 5 10 0 14 20 15 4 4 6 8 9 9 11 13 13 97 131 100 
128 135 140 141 94 12 9 8 8 7 10 10 8 8 5 3 0 23 17 4 
4 6 7 8 7 12 12 13 15 105 128 110 136 120 142 137 93 13 12 11 
10 8 8 10 8 8 5 2 0 17 9 2 5 6 6 6 7 11 11 12 
13 103 124 133 138 129 133 134 106 13 12 11 10 4 7 9 8 6 3 1 
