P2 
32 30
156
10 39 36 34 31 28 26 24 21 19 5 4 7 11 4 0 0 0 0 4 
9 15 19 22 24 26 29 31 33 36 37 38 39 39 37 34 32 29 27 25 
23 21 16 18 17 21 15 9 10 11 18 21 23 24 26 28 30 33 35 37 
38 38 38 39 39 39 37 35 33 31 28 27 25 24 21 24 21 25 21 17 
17 22 25 26 27 28 30 32 35 36 37 38 38 39 39 39 39 40 38 36 
34 32 30 28 26 25 24 29 24 28 25 22 22 26 28 29 30 31 33 35 
36 37 38 38 39 39 39 39 39 40 38 37 35 33 32 30 28 27 26 32 
26 28 27 25 26 30 30 31 32 33 34 36 37 39 39 39 39 40 40 40 
40 39 38 37 35 33 31 30 29 27 27 32 28 19 14 9 12 21 29 31 
33 34 34 36 37 38 38 38 38 39 39 39 38 39 38 37 35 34 32 31 
30 28 27 22 7 0 0 2 2 3 6 22 34 35 36 37 37 38 38 39 
38 39 38 38 38 40 39 38 36 35 34 33 32 25 8 1 0 0 2 3 
3 1 2 6 24 36 37 38 39 39 40 40 39 39 39 39 38 40 39 38 
37 36 35 33 21 4 0 1 2 1 7 5 5 9 8 4 9 35 38 39 
40 40 40 39 39 39 38 38 37 34 40 41 38 37 36 33 2 0 1 5 
3 1 3 8 14 13 11 9 7 27 40 39 39 40 40 39 39 39 38 38 
37 37 44 38 44 33 38 28 1 29 20 15 11 11 15 14 13 9 12 13 
10 19 39 39 39 40 40 39 39 40 39 38 37 14 24 4 18 1 4 14 
14 17 115 101 40 15 20 20 13 12 11 16 17 19 39 40 39 39 39 39 
40 39 38 38 38 7 4 2 17 3 11 17 63 100 139 140 98 29 23 17 
18 17 22 20 22 20 38 40 39 39 39 39 39 38 34 30 25 10 5 42 
42 24 19 33 27 11 30 52 68 71 32 48 62 24 24 26 21 18 36 37 
36 30 28 26 24 23 21 25 25 41 50 20 31 15 7 11 8 28 133 148 
148 147 107 109 141 55 18 18 18 15 26 29 27 29 34 35 35 34 25 25 
32 19 29 5 14 3 11 3 15 23 117 149 148 148 148 109 138 65 14 13 
13 13 34 30 17 32 39 38 37 35 32 17 30 10 6 17 21 1 9 38 
66 12 124 148 148 148 144 128 140 108 28 11 13 10 36 37 27 35 37 37 
36 35 32 17 28 13 1 44 48 31 29 91 107 61 140 148 148 147 140 144 
136 136 46 9 9 16 37 37 35 37 37 36 36 34 33 17 26 37 43 40 
36 45 38 102 128 110 143 148 148 147 139 140 143 144 60 8 2 17 37 35 
37 37 36 35 35 34 32 17 26 34 40 18 5 19 9 25 72 116 142 148 
148 147 146 147 147 145 94 16 1 19 26 9 32 36 35 34 34 34 32 17 
25 31 35 21 2 14 6 17 36 105 139 145 143 142 146 147 147 144 119 77 
8 14 26 10 27 28 21 33 32 31 29 15 24 0 27 34 31 36 39 38 
49 97 121 132 132 138 146 148 147 144 126 118 41 14 27 8 24 14 1 33 
33 32 31 16 25 0 26 29 15 32 37 27 41 70 110 120 122 132 146 149 
148 144 124 123 77 9 17 12 25 1 0 30 35 34 32 16 25 0 22 16 
0 33 15 0 32 38 55 66 83 108 141 149 148 145 119 109 106 7 4 5 
8 6 0 18 32 35 33 15 20 0 20 19 13 35 20 9 28 23 9 2 
3 49 120 149 149 148 112 141 111 11 10 7 8 10 8 7 32 50 45 20 
13 0 18 32 36 37 15 20 11 6 3 6 7 46 124 133 146 146 146 141 
108 13 11 11 8 9 10 9 7 14 21 22 1 13 23 26 22 16 9 10 
11 11 12 14 10 22 129 131 132 149 146 141 103 16 12 11 10 9 11 10 
8 8 7 7 0 17 23 20 7 7 9 11 12 11 15 14 14 36 126 107 
131 148 143 146 100 14 12 11 11 9 11 12 10 10 10 4 0 26 20 9 
8 9 10 11 12 14 15 14 15 54 129 102 127 144 146 145 106 16 14 13 
12 12 7 12 11 9 8 4 0 20 13 5 8 10 10 11 10 15 15 13 
16 59 132 131 136 127 147 139 122 16 14 13 13 6 9 11 11 9 5 2 
