P2 
32 30
156
10 40 37 34 32 29 27 24 22 19 5 4 7 11 5 0 0 0 0 4 
9 15 20 22 25 27 30 32 34 36 38 39 40 39 36 34 32 29 27 25 
22 21 15 17 16 21 15 8 9 10 17 20 21 24 25 28 30 32 35 36 
37 38 38 38 39 40 37 35 33 30 29 27 24 23 21 24 21 25 20 17 
16 22 24 25 26 28 30 33 35 36 38 38 38 39 39 39 39 40 38 36 
34 32 30 28 27 25 25 28 24 27 24 21 21 26 27 29 30 31 33 35 
36 37 38 38 39 40 40 40 40 40 38 37 35 33 31 30 29 27 26 31 
26 28 27 24 25 28 29 31 31 32 34 35 37 38 38 39 39 39 40 40 
39 40 39 37 36 34 33 31 30 29 28 31 22 14 14 16 20 27 31 32 
33 34 35 37 38 39 39 39 40 40 40 40 40 40 39 38 37 35 34 33 
31 30 23 6 1 1 1 5 5 7 22 33 35 36 37 38 39 40 40 40 
40 40 40 40 39 41 40 39 37 36 35 31 28 11 1 0 0 3 5 2 
3 3 8 23 36 36 38 39 40 40 40 40 40 39 39 40 39 41 40 39 
38 37 36 29 5 0 0 0 1 4 2 7 11 6 5 10 34 38 39 40 
41 41 40 40 40 40 39 39 39 35 41 41 39 38 24 3 0 0 1 0 
3 6 10 12 15 11 9 10 25 39 40 40 40 40 40 40 40 40 39 39 
38 38 44 39 44 33 11 0 0 0 0 1 2 5 10 16 13 13 14 10 
18 40 40 40 40 40 41 40 40 40 40 39 38 14 25 4 18 1 2 0 
0 4 6 6 8 16 15 15 10 13 17 18 20 38 39 40 40 41 40 40 
40 40 39 39 39 7 4 2 17 3 10 1 13 9 19 22 24 22 19 16 
17 20 19 22 21 36 40 41 40 40 40 39 40 39 34 30 26 11 5 43 
43 24 20 45 90 92 48 62 39 25 24 25 22 25 27 21 15 34 40 38 
36 30 28 26 24 22 21 26 26 42 51 20 31 16 8 67 109 147 146 146 
125 71 79 109 65 21 18 14 12 23 27 29 27 30 34 35 35 34 26 25 
32 19 29 5 13 3 11 41 79 132 148 148 148 147 130 127 112 19 12 8 
9 28 37 29 16 31 37 37 37 35 32 16 30 11 6 17 20 1 9 81 
97 135 148 149 148 146 114 135 127 44 12 10 12 29 38 36 26 34 37 36 
36 35 32 16 28 14 2 46 50 32 44 143 115 141 150 149 149 147 137 146 
131 75 13 13 11 34 38 38 37 38 38 37 37 36 34 17 28 39 45 42 
38 47 81 145 110 146 150 150 150 149 132 137 145 98 12 4 12 36 38 37 
38 38 37 36 36 35 33 18 28 36 41 19 6 20 50 109 92 130 150 150 
150 148 149 149 148 113 28 2 8 22 27 10 33 37 36 35 35 34 33 17 
26 33 37 21 3 14 6 20 74 107 142 147 148 145 149 149 148 125 100 18 
7 14 27 11 29 29 22 34 33 33 30 15 25 0 28 35 31 37 40 40 
69 110 126 138 138 142 149 149 148 125 123 69 4 13 27 8 23 14 1 34 
34 32 30 16 25 0 25 29 14 32 37 27 65 119 119 124 131 138 149 149 
149 125 128 102 12 10 27 15 24 1 0 29 34 33 31 16 24 0 22 17 
0 33 15 0 38 107 120 113 118 129 146 149 149 122 120 111 20 4 5 15 
9 3 0 18 32 34 32 14 20 0 20 20 14 36 21 9 25 35 58 58 
63 103 146 150 149 127 108 138 26 9 8 8 10 9 8 15 40 51 45 21 
13 0 19 33 37 38 14 11 2 1 5 6 4 107 132 148 149 135 146 137 
23 11 12 9 9 11 10 8 14 24 31 23 1 13 23 27 19 11 9 10 
11 11 15 11 9 94 137 115 143 149 141 136 21 12 12 10 8 10 10 9 
9 7 10 17 0 17 22 11 7 9 11 11 12 15 15 14 15 96 131 117 
146 146 141 131 21 12 11 10 10 11 12 11 10 10 7 13 0 26 12 8 
10 11 12 13 14 16 16 15 19 121 96 141 134 145 147 133 25 14 14 13 
13 10 13 12 11 11 6 10 0 20 7 8 11 12 13 12 15 15 14 16 
19 131 109 146 134 143 148 132 33 15 14 13 13 7 12 11 10 8 4 6 
