P2 
32 30
156
10 39 36 33 31 28 26 23 21 19 5 4 7 11 5 0 0 0 0 4 
9 15 20 22 24 26 29 31 33 35 37 38 39 39 37 34 32 29 27 25 
23 21 16 17 17 22 16 9 10 11 18 21 23 24 26 28 31 33 35 37 
37 38 39 39 39 40 37 35 33 31 29 27 25 24 21 25 21 26 21 17 
17 23 25 26 27 28 30 33 34 35 37 38 38 38 39 39 39 40 37 36 
34 32 30 28 26 25 24 29 24 28 25 22 22 27 28 29 30 31 32 34 
36 37 38 38 38 39 40 39 39 39 38 36 34 32 31 29 28 26 26 31 
26 28 27 25 26 29 30 30 32 32 33 35 37 38 38 38 39 39 39 39 
39 40 39 37 36 34 32 30 29 27 27 32 28 20 10 7 5 13 23 31 
33 34 35 36 38 39 39 39 39 39 39 39 39 40 39 38 37 35 33 32 
31 29 27 17 6 1 0 1 3 2 5 11 31 36 37 38 39 40 40 40 
39 40 39 40 39 41 39 39 37 36 34 34 30 20 4 1 1 1 1 3 
5 4 1 4 9 34 38 40 40 40 40 40 40 40 40 40 39 41 39 38 
37 36 35 34 19 1 0 1 2 3 2 10 6 6 8 4 5 21 39 40 
40 40 40 40 39 40 39 39 38 34 40 41 38 37 36 38 19 3 11 4 
12 5 4 5 9 14 13 12 7 13 38 39 39 40 40 39 39 39 38 38 
37 36 44 38 43 32 38 33 28 8 55 74 33 18 17 17 15 14 10 12 
13 9 32 39 39 39 39 39 38 39 38 37 37 14 24 4 18 1 4 13 
20 85 79 145 129 39 15 22 19 13 10 13 19 15 30 39 39 39 39 39 
39 38 38 38 38 6 4 2 17 3 11 17 25 45 56 66 73 43 29 23 
17 16 19 23 19 22 30 40 40 39 39 39 40 38 34 29 25 11 5 42 
42 23 18 33 23 13 65 118 128 129 88 41 70 55 23 24 22 16 27 37 
35 29 27 25 24 22 21 25 25 42 51 20 32 17 9 12 21 12 64 148 
148 148 146 119 128 135 13 20 20 15 21 30 28 31 35 36 36 35 27 26 
32 19 29 5 13 4 11 10 80 10 76 149 149 148 148 125 123 129 20 13 
11 13 25 30 18 32 38 38 37 36 32 17 30 11 6 17 21 1 9 58 
109 44 108 149 149 148 147 136 142 129 54 11 11 12 25 38 27 36 38 37 
36 35 32 17 28 14 1 44 49 31 29 93 128 107 142 149 148 148 146 137 
141 135 77 11 11 12 31 37 36 37 37 36 36 35 34 17 27 37 43 40 
36 45 38 46 74 102 133 148 148 147 146 137 145 146 91 10 3 9 36 36 
37 37 36 35 35 34 33 17 26 34 39 18 5 19 9 16 21 86 104 139 
144 146 143 147 147 147 105 20 1 15 27 9 32 37 36 34 34 34 32 17 
25 31 35 21 3 14 6 17 10 77 111 119 132 135 144 147 148 147 118 78 
5 15 27 11 28 29 22 33 33 32 30 15 24 0 28 34 30 36 39 38 
45 53 122 124 122 133 141 148 148 146 118 114 42 14 28 8 24 14 1 34 
33 32 30 16 25 0 25 28 14 31 36 26 39 42 90 103 111 125 141 148 
148 146 116 119 77 9 19 12 25 1 0 29 34 33 32 16 24 0 21 16 
0 31 14 0 32 36 34 31 45 86 132 148 148 146 115 101 107 6 3 5 
9 5 0 17 32 34 32 14 20 0 19 18 12 34 20 8 28 25 10 3 
5 44 111 147 148 148 115 138 116 10 9 6 7 9 8 7 32 50 44 20 
13 0 18 31 36 37 15 20 12 9 6 8 7 42 126 122 140 147 147 142 
108 12 11 11 8 9 10 8 7 14 22 22 1 13 23 26 22 16 9 10 
11 11 12 15 11 23 128 133 127 149 147 141 104 14 12 11 10 9 11 10 
8 8 7 8 0 17 24 20 8 8 10 10 12 11 15 15 15 43 127 107 
131 148 143 145 101 15 12 10 11 9 12 12 10 10 8 4 0 26 20 10 
8 9 10 11 12 15 15 15 16 61 133 101 130 143 147 146 107 16 14 14 
12 13 8 12 11 10 7 4 0 20 14 5 8 10 11 12 11 15 15 15 
17 62 126 134 137 127 146 140 128 16 15 14 13 6 10 11 11 9 5 2 
