P2 
32 30
148
10 35 32 29 26 24 22 20 18 15 3 3 6 9 4 0 0 0 0 4 
8 13 17 19 21 23 25 27 30 31 33 34 35 35 32 30 28 26 24 21 
20 18 13 14 14 18 14 8 9 10 17 19 21 22 23 25 27 30 31 33 
34 34 35 35 35 35 32 30 28 26 24 22 21 19 17 19 17 22 18 15 
14 20 22 23 24 25 26 28 30 31 32 33 33 34 34 33 34 34 32 30 
28 26 25 23 21 20 19 23 19 23 20 18 18 23 24 25 26 27 28 30 
30 31 32 33 33 33 34 34 34 35 33 32 30 28 26 25 23 22 21 26 
21 22 23 19 16 19 25 27 28 28 30 30 32 33 34 34 34 34 35 34 
34 35 34 32 30 29 27 26 25 24 22 27 22 13 9 4 4 15 16 22 
30 30 31 32 34 34 34 35 35 35 35 35 34 35 34 32 31 30 29 27 
26 25 24 25 17 4 3 7 12 8 12 12 24 32 32 33 34 35 35 35 
35 35 34 34 34 35 34 33 32 31 30 29 28 26 25 18 15 24 76 74 
39 15 10 14 22 26 33 34 35 35 35 35 35 35 34 34 33 35 34 33 
33 31 30 30 28 27 24 21 24 87 124 118 88 29 20 19 16 10 34 35 
35 35 35 35 34 34 33 33 33 29 35 36 34 32 31 34 30 28 23 31 
39 111 135 137 132 94 36 15 4 4 29 35 35 35 35 34 34 34 33 33 
32 31 38 33 38 28 33 28 28 29 18 26 48 118 136 137 136 136 89 18 
1 0 21 34 34 35 34 34 34 34 34 33 32 11 21 3 14 0 3 12 
12 30 14 13 52 115 137 139 138 138 137 93 21 0 13 35 34 34 34 34 
35 34 33 33 33 5 2 2 14 2 8 15 13 31 14 6 59 83 70 103 
137 124 74 81 56 2 17 35 35 36 36 35 35 34 30 26 22 8 4 36 
36 19 15 28 38 30 18 10 83 81 73 85 127 107 79 82 92 17 20 33 
31 26 24 22 20 19 17 20 21 34 43 16 25 11 5 7 28 28 45 79 
94 86 97 104 120 115 99 100 102 72 26 24 22 25 29 30 30 29 21 20 
27 15 24 4 11 2 7 1 27 24 50 99 96 128 135 115 118 124 124 136 
113 108 39 25 14 27 33 32 31 30 27 14 24 7 3 12 16 0 5 0 
24 12 39 106 95 131 138 114 115 130 116 136 114 99 34 32 23 30 32 31 
31 30 27 13 23 9 0 36 41 25 23 17 25 17 31 88 86 120 138 107 
80 93 100 126 107 81 33 32 30 32 32 31 31 29 28 14 22 30 36 33 
30 38 31 31 30 28 31 33 48 103 131 117 117 112 102 124 92 33 32 31 
32 32 31 31 30 29 28 14 22 29 34 14 4 16 7 14 9 6 28 34 
52 90 116 87 119 131 94 125 70 20 24 8 29 33 32 31 31 30 28 15 
22 27 30 17 1 12 5 13 7 2 24 35 46 77 107 109 105 110 110 116 
34 12 24 8 25 26 19 30 29 28 27 13 22 0 23 29 25 30 33 32 
38 24 26 31 38 82 76 113 123 119 125 89 13 11 24 5 20 12 0 30 
29 29 27 13 21 0 21 23 11 25 30 22 32 29 29 32 29 90 66 71 
105 109 87 80 20 10 26 12 21 1 0 25 30 29 27 13 21 0 18 13 
0 26 11 0 26 29 24 18 21 92 94 73 53 56 85 111 22 0 3 10 
8 2 0 15 27 30 28 12 16 0 16 14 10 28 15 5 17 10 1 2 
14 102 112 108 133 124 121 125 19 1 0 3 7 5 5 11 34 44 38 17 
10 0 14 26 29 30 9 9 6 6 7 6 11 121 121 121 113 116 133 126 
19 5 5 5 5 7 6 4 9 17 25 20 1 10 19 21 13 5 5 6 
7 9 12 10 10 98 131 123 123 131 135 113 13 9 8 6 5 7 7 6 
6 5 7 15 0 13 16 5 2 5 6 8 7 11 10 11 15 95 135 119 
120 139 130 127 16 8 8 6 7 8 8 8 7 7 4 13 0 21 5 3 
4 6 7 7 9 10 11 11 21 124 122 108 115 134 130 123 12 9 9 8 
8 6 9 8 7 6 3 10 0 15 2 4 6 7 6 5 9 9 9 11 
18 134 106 118 125 121 136 111 16 10 9 9 8 4 7 7 6 4 1 5 
