P2 
32 30
143
10 32 30 27 25 22 20 18 16 13 3 3 5 8 3 0 0 0 0 3 
7 11 15 17 19 21 23 25 27 29 30 32 32 32 30 28 26 24 22 20 
18 16 11 12 13 17 12 6 8 9 14 17 18 20 21 23 25 27 29 30 
31 31 32 32 33 33 31 29 27 24 22 21 19 18 16 19 16 21 16 13 
13 18 20 22 22 24 25 27 28 29 30 31 32 32 32 32 32 32 31 29 
27 25 23 22 20 19 18 22 18 22 19 17 16 21 23 24 25 25 26 28 
29 30 30 31 32 32 32 32 32 33 31 30 28 26 25 24 22 21 20 24 
20 20 19 13 13 18 23 26 26 27 28 29 30 32 32 32 32 32 33 33 
32 33 32 30 29 28 26 25 24 22 21 25 20 8 2 4 15 15 13 22 
28 29 30 31 32 33 33 33 33 33 33 33 33 32 31 30 29 28 27 25 
24 23 22 21 16 10 41 46 35 13 10 16 24 29 30 31 32 32 32 32 
32 32 32 32 31 33 32 31 29 29 28 27 25 24 22 22 14 73 117 119 
105 56 22 22 12 26 30 32 32 32 33 32 32 32 32 32 30 33 32 31 
30 29 28 27 26 25 21 29 35 107 131 132 132 126 79 8 5 13 31 32 
33 32 32 32 31 32 31 31 30 27 32 32 30 30 29 31 28 26 16 20 
54 117 131 132 132 131 128 64 0 3 31 32 32 32 32 31 31 31 30 30 
29 28 34 30 35 26 30 26 26 27 9 9 62 115 132 133 132 132 131 112 
14 0 24 31 31 32 31 31 30 31 30 29 29 10 19 2 13 0 2 10 
11 28 8 5 69 88 72 110 133 115 76 83 45 0 24 33 33 33 32 32 
33 32 31 31 31 4 2 1 13 2 8 14 12 29 12 6 80 87 90 90 
128 98 88 94 68 0 29 34 34 34 34 33 33 32 28 24 21 8 3 34 
34 18 14 26 36 29 24 39 91 75 85 95 120 99 85 83 86 14 31 31 
30 24 22 20 19 17 16 20 20 32 41 15 24 10 4 6 27 27 58 91 
96 124 128 108 118 116 118 127 99 81 21 22 20 23 27 28 28 27 20 18 
25 14 22 4 10 2 6 1 25 23 50 97 93 131 134 107 114 120 121 132 
108 82 31 23 12 25 30 30 30 28 25 12 23 7 3 12 15 0 5 0 
22 11 38 107 88 122 132 103 82 89 110 130 103 70 31 30 21 28 30 30 
29 28 25 12 21 9 0 35 39 24 21 16 24 17 29 55 61 107 99 102 
114 109 96 115 74 42 31 30 29 30 30 29 29 27 26 13 21 29 34 31 
28 36 29 30 29 26 29 31 51 101 116 92 124 114 104 113 53 31 31 30 
30 30 30 29 28 27 26 13 21 26 31 13 3 15 6 12 8 6 25 32 
50 80 115 113 101 111 118 95 17 17 22 6 26 30 28 28 28 28 26 13 
20 24 27 16 1 10 4 12 7 2 21 32 45 72 83 114 129 127 102 75 
4 10 21 6 22 23 17 27 26 26 24 12 19 0 20 26 23 28 30 29 
35 21 24 28 37 87 59 71 85 84 66 83 1 9 21 3 18 11 0 27 
26 26 24 12 19 0 19 21 10 24 28 20 30 27 26 29 28 93 84 60 
49 57 92 100 2 9 24 10 19 1 0 24 27 27 25 12 18 0 17 12 
0 25 10 0 25 27 19 12 23 99 108 115 131 122 120 112 2 0 3 12 
7 2 0 14 26 28 26 11 15 0 15 13 9 27 14 4 15 9 3 3 
19 114 125 115 123 121 125 113 4 2 3 5 6 4 4 12 33 42 37 16 
10 0 14 24 28 27 7 7 5 5 8 6 14 121 122 130 125 127 129 110 
8 5 4 4 5 5 5 3 10 18 26 18 1 9 17 19 11 4 4 5 
6 7 10 8 9 102 130 127 127 132 129 97 11 8 7 5 4 6 6 5 
4 3 8 15 0 13 14 4 2 4 6 7 7 10 9 10 16 105 135 107 
126 135 126 115 9 7 6 6 6 8 7 6 6 6 2 18 0 19 4 2 
3 4 4 6 7 8 8 8 21 122 91 123 110 130 129 95 9 7 7 6 
6 4 6 5 5 4 1 15 0 13 1 3 4 5 4 3 7 7 7 9 
18 128 97 132 116 121 132 96 10 8 7 7 5 4 6 5 3 1 0 10 
