P2 
32 30
155
10 36 33 30 27 25 23 21 19 15 4 3 6 10 4 0 0 0 0 4 
9 14 18 20 22 24 26 28 31 32 34 35 36 36 34 31 29 27 25 22 
20 19 13 15 15 19 15 8 10 10 17 20 22 23 24 26 28 30 33 34 
35 35 36 36 36 36 34 32 30 27 26 24 22 20 18 21 19 23 19 15 
15 21 24 25 26 26 28 31 32 33 34 35 35 35 35 35 36 37 35 33 
31 29 27 25 24 22 21 26 22 25 22 20 20 25 26 28 29 30 31 32 
33 34 35 35 35 36 36 36 36 37 35 34 32 30 29 27 26 24 23 28 
23 25 23 20 20 25 28 30 31 31 32 33 35 36 36 36 37 37 37 37 
36 37 36 34 32 31 29 28 27 25 24 29 25 17 4 5 11 14 18 26 
31 32 33 35 36 36 37 37 37 37 37 36 36 35 34 33 32 31 30 28 
27 25 24 27 21 10 32 43 33 13 11 17 28 32 33 34 35 35 36 35 
35 35 35 35 34 35 35 34 33 32 30 29 28 27 26 25 16 63 118 121 
99 31 18 20 18 30 33 35 36 36 36 36 35 35 35 35 34 36 35 35 
34 33 32 30 29 28 26 30 31 107 136 139 138 113 39 30 1 13 35 36 
36 36 36 36 35 35 34 34 34 31 36 37 35 34 32 35 32 29 26 18 
51 118 138 140 139 138 118 35 13 1 34 36 36 36 36 35 35 35 35 34 
33 33 39 35 39 29 34 30 30 31 21 6 61 113 136 139 139 139 138 97 
44 2 24 35 35 36 36 35 35 35 35 34 33 12 22 3 16 0 3 12 
13 32 19 10 38 16 8 47 130 75 19 32 44 16 22 37 37 37 37 37 
37 36 35 35 35 5 3 2 15 2 9 15 14 32 21 4 64 25 1 4 
57 23 1 58 38 10 25 37 37 37 37 36 36 35 31 27 23 9 4 38 
38 20 15 29 40 32 28 27 16 3 0 11 115 51 0 4 11 23 30 34 
33 27 25 24 22 20 19 22 23 36 45 17 27 13 5 8 29 31 39 96 
38 4 1 40 122 95 10 6 24 93 29 27 24 28 32 32 32 31 23 22 
29 17 25 4 11 2 7 2 29 26 37 103 94 93 106 104 117 123 99 107 
105 111 37 27 16 29 35 34 34 33 29 15 27 8 4 13 17 0 6 0 
26 13 33 99 97 124 138 104 87 94 109 137 109 95 36 34 24 32 34 34 
33 32 29 15 25 10 0 38 43 26 24 18 27 19 32 59 65 107 107 100 
118 117 97 119 81 56 35 34 33 34 34 33 33 31 30 15 23 32 38 35 
31 40 32 33 32 29 32 34 40 98 125 97 131 126 115 123 68 34 34 33 
34 34 33 32 32 31 29 15 23 29 34 15 3 16 7 14 9 7 28 35 
35 79 117 118 110 117 126 108 44 20 24 8 29 34 32 31 31 30 29 14 
23 27 30 18 1 12 5 14 8 3 24 35 32 69 81 114 134 134 113 86 
45 13 24 9 25 26 19 30 29 29 27 13 22 0 23 29 25 31 33 33 
39 24 27 31 31 69 66 72 90 91 76 92 54 11 24 5 20 13 0 30 
30 29 27 14 21 0 22 24 11 27 32 23 34 31 31 34 27 62 93 68 
54 61 89 115 76 11 26 13 22 1 0 27 32 31 29 14 22 0 19 14 
0 28 11 0 28 31 30 26 13 65 108 108 132 137 126 129 85 3 0 5 
8 5 0 16 29 32 30 13 18 0 17 15 10 30 16 5 23 20 8 2 
5 70 124 122 120 128 134 132 87 6 5 6 7 7 6 6 31 46 41 18 
12 0 15 27 31 32 11 14 8 8 7 10 6 60 132 133 128 132 134 136 
86 9 7 7 6 7 8 6 5 12 20 20 1 11 19 22 18 11 5 6 
8 8 10 12 8 37 129 136 127 136 141 131 82 11 10 8 6 7 8 7 
6 5 4 9 0 14 20 14 3 3 6 7 9 8 11 12 12 50 128 118 
120 141 137 134 84 11 8 7 7 7 9 9 7 7 5 3 0 22 16 4 
4 5 6 7 7 11 12 11 12 72 131 92 127 127 136 139 76 12 10 10 
9 8 7 9 8 7 4 1 0 15 9 2 5 6 7 7 6 10 9 10 
12 72 131 119 138 115 136 138 84 12 10 10 9 4 6 8 8 5 2 0 
