P2 
32 30
151
10 39 37 36 34 32 30 28 27 26 24 21 19 23 21 22 17 13 16 20 
22 23 25 26 28 30 32 33 35 36 36 37 37 39 38 36 34 33 31 29 
28 27 25 24 24 26 22 24 21 17 20 24 25 26 28 29 30 32 34 35 
35 36 36 37 38 39 38 36 35 34 32 31 29 28 27 26 27 29 23 26 
24 21 24 27 27 29 30 31 32 33 34 35 36 37 37 37 38 39 38 37 
36 34 33 32 31 30 28 27 29 31 24 28 26 24 27 29 29 31 31 33 
34 35 36 37 37 37 38 38 38 39 38 37 37 36 34 33 32 31 30 29 
30 33 27 31 29 27 28 30 31 32 33 35 35 36 37 38 38 38 38 39 
39 39 39 38 37 36 35 34 34 32 31 30 32 35 29 33 31 28 31 33 
33 34 35 36 36 37 38 38 39 39 40 39 39 39 39 38 37 37 36 35 
35 33 33 31 33 36 29 34 32 30 31 34 34 35 36 36 37 38 39 39 
39 39 39 39 39 41 41 40 40 39 38 38 37 36 37 36 33 36 33 36 
34 33 34 36 37 38 38 39 40 41 41 41 41 41 41 40 41 31 42 43 
42 40 39 39 46 42 44 42 30 33 31 28 33 34 35 37 38 39 40 40 
41 41 41 41 41 41 41 41 41 35 43 43 47 42 40 49 58 64 97 59 
40 38 38 33 28 33 36 38 39 39 40 40 41 41 41 41 41 41 41 41 
41 17 24 17 10 18 7 51 64 86 118 66 48 42 43 40 35 35 37 40 
40 40 41 41 42 42 42 41 41 41 42 42 41 9 2 5 1 18 26 48 
59 93 116 72 60 49 48 51 45 43 46 40 40 40 41 42 42 42 42 42 
42 41 42 42 41 10 1 25 26 35 39 30 14 38 71 78 77 69 56 62 
55 53 59 41 41 41 42 42 42 43 42 39 35 32 30 27 25 35 39 38 
45 36 24 11 37 102 134 116 99 93 74 78 65 60 67 39 38 37 37 35 
33 31 30 30 32 34 35 36 35 30 42 26 1 23 10 9 49 131 144 140 
123 104 102 94 74 63 63 38 31 32 36 38 39 37 29 19 40 40 40 40 
38 14 5 9 4 17 70 31 99 144 144 142 129 102 108 101 77 63 46 53 
39 41 42 42 43 41 36 19 41 40 40 40 38 14 9 21 37 50 124 93 
139 144 143 143 130 106 106 104 80 64 35 51 40 41 41 41 42 41 38 37 
40 40 39 39 37 23 8 30 47 49 72 96 125 145 144 143 129 106 104 106 
84 64 29 41 43 41 41 41 42 42 40 40 39 38 37 35 35 38 51 47 
24 40 37 86 104 144 145 142 127 88 101 104 86 61 20 28 43 42 41 40 
41 35 35 40 38 35 33 32 32 38 44 37 2 25 3 93 122 140 145 135 
126 88 103 103 90 59 15 18 35 22 11 13 39 10 20 39 35 31 29 29 
28 31 29 24 1 19 8 117 143 138 130 111 128 89 105 102 86 59 15 17 
22 17 7 9 40 13 14 28 33 29 27 26 25 5 33 22 34 44 48 91 
104 111 125 115 125 84 96 95 86 60 16 11 16 19 5 9 40 9 4 13 
24 27 25 24 23 2 37 32 16 32 40 41 39 68 105 112 121 84 86 90 
82 55 33 13 11 18 12 9 40 12 10 19 23 26 25 24 23 1 36 33 
1 14 34 15 0 39 24 89 116 78 81 84 79 62 44 43 37 35 29 12 
27 17 1 9 13 33 24 23 22 0 32 22 1 16 37 15 13 28 15 69 
112 72 82 86 77 73 90 53 14 28 30 28 18 15 18 15 2 14 19 24 
24 0 30 31 42 52 37 24 26 30 19 66 121 73 87 91 76 68 110 53 
18 28 33 26 29 31 26 19 1 3 45 44 44 0 28 28 23 31 31 20 
24 44 25 48 125 92 92 91 73 65 106 26 13 19 26 17 27 27 26 20 
7 6 44 44 43 21 26 28 27 31 28 18 36 58 31 18 84 105 91 94 
76 64 33 17 14 21 21 18 25 19 24 19 0 6 43 44 43 4 19 27 
26 24 26 15 47 65 39 18 56 44 62 92 82 76 33 31 22 24 15 16 
20 13 23 20 47 11 33 42 42 11 16 28 21 16 21 14 55 65 44 20 
49 56 43 88 88 83 39 31 24 20 12 13 14 12 21 10 2 3 11 37 
