P2 
32 30
151
10 38 36 34 33 30 28 26 25 23 22 19 17 21 21 22 17 13 15 19 
21 23 24 25 27 29 31 32 33 35 35 36 36 38 36 35 33 31 29 28 
26 25 23 22 23 26 22 24 21 18 19 23 25 26 27 29 30 31 33 34 
35 35 36 36 37 39 37 35 34 33 31 29 28 26 25 24 26 28 23 26 
25 22 24 26 28 29 30 31 32 33 34 35 36 36 37 37 37 38 37 36 
34 33 31 31 29 28 27 25 28 31 24 29 27 25 27 29 30 30 31 32 
33 34 35 36 36 37 37 37 37 38 37 37 35 34 33 32 30 29 28 27 
29 33 27 31 29 27 29 30 31 32 33 34 35 36 36 37 37 37 37 38 
38 39 38 37 36 36 34 33 32 31 30 29 32 35 29 34 32 29 31 33 
34 34 35 36 37 38 38 38 39 39 39 39 39 39 39 38 37 37 36 35 
34 33 32 31 34 37 31 35 33 31 33 35 35 36 37 37 38 39 40 40 
40 39 40 39 39 39 39 39 38 38 37 36 35 34 33 33 35 38 33 36 
35 33 34 36 37 38 38 38 39 40 41 41 40 40 40 39 40 29 40 41 
40 39 38 37 40 36 35 34 36 40 35 35 36 34 35 38 38 39 40 40 
41 41 40 40 41 41 40 40 40 34 43 42 46 41 38 41 37 37 36 35 
39 48 51 46 42 36 37 39 39 40 40 41 41 41 41 41 41 41 40 40 
41 17 24 16 9 17 1 13 12 13 37 38 25 20 100 83 31 33 35 40 
41 40 41 41 42 42 42 41 41 41 41 41 41 8 2 4 0 17 7 12 
9 10 37 9 4 17 119 81 3 15 23 40 40 40 41 42 42 42 42 41 
41 41 41 41 40 8 1 23 25 34 19 20 42 42 37 39 90 116 122 119 
104 64 34 39 41 41 41 41 42 42 42 38 34 31 29 26 24 33 38 36 
43 36 15 14 17 35 34 73 140 122 135 131 132 132 59 38 38 38 37 35 
33 31 30 30 31 34 35 36 35 28 40 25 0 22 4 6 3 36 32 96 
136 125 143 142 126 136 83 32 31 33 36 38 39 37 29 19 40 40 40 39 
37 14 5 9 4 16 1 15 3 37 33 98 133 139 143 143 140 134 93 41 
40 42 42 42 43 41 37 19 41 40 40 40 38 13 8 20 37 27 4 10 
2 28 52 94 128 135 143 143 140 136 91 39 42 42 42 42 43 42 39 38 
41 41 40 40 39 22 7 29 46 46 45 41 39 42 90 90 113 130 142 142 
135 123 93 76 41 42 42 42 42 42 41 41 40 40 39 38 37 36 49 46 
23 40 35 34 32 33 64 63 102 129 143 143 134 107 99 74 42 42 41 40 
42 35 36 41 40 39 37 35 33 36 42 36 1 24 3 16 13 13 26 54 
96 121 144 142 133 111 50 35 41 21 12 13 39 10 21 42 39 37 34 31 
30 29 27 24 1 19 1 14 15 17 35 49 109 127 145 144 143 123 57 31 
40 16 8 11 40 15 15 32 39 36 31 28 26 4 30 21 33 43 42 45 
41 43 40 51 120 133 144 144 143 129 76 39 35 16 4 9 40 10 4 15 
31 32 28 25 23 1 32 31 15 31 39 39 33 38 38 56 127 134 144 144 
143 137 62 39 29 17 5 8 39 13 9 22 28 29 25 23 22 0 29 32 
0 13 34 14 6 38 40 44 128 136 143 144 143 128 56 40 31 39 18 7 
26 17 1 11 16 34 24 22 21 0 25 21 1 16 37 18 20 48 47 47 
123 143 144 144 143 121 68 45 34 36 31 21 17 16 18 15 2 14 19 25 
24 0 21 28 41 51 38 23 28 58 57 62 122 144 144 144 143 114 83 57 
41 28 31 35 27 26 26 18 1 3 44 43 43 0 18 25 22 29 26 19 
36 70 66 37 89 142 144 144 143 118 93 68 46 25 26 25 24 30 25 19 
7 6 43 42 42 14 18 26 27 30 27 16 47 81 65 34 28 52 99 125 
120 101 93 70 51 32 24 19 24 27 22 20 0 6 43 44 43 2 14 24 
26 23 21 17 55 81 62 29 22 21 21 20 21 54 90 59 61 39 19 15 
21 17 21 24 49 11 34 42 42 7 11 24 20 14 13 17 55 75 57 25 
24 19 19 17 18 54 77 65 65 41 20 10 17 13 18 18 4 3 11 37 
