P2 
32 30
145
10 35 34 32 30 28 26 25 25 23 21 19 16 20 19 19 14 11 13 17 
19 20 22 23 25 27 28 29 31 32 33 33 33 36 34 33 32 30 29 27 
26 25 23 22 22 24 20 23 20 16 18 21 23 24 25 27 28 29 31 31 
32 33 33 34 35 37 35 34 33 31 30 29 27 26 25 24 25 27 22 25 
23 20 22 25 26 27 27 29 30 31 32 33 33 34 35 35 35 37 35 35 
33 32 31 30 29 28 27 26 28 29 23 27 25 23 26 27 28 28 29 31 
31 33 33 34 35 35 35 36 36 37 36 35 34 34 32 31 30 29 28 28 
29 31 25 30 28 25 27 29 30 31 32 33 33 34 35 35 36 36 36 36 
36 37 37 36 36 35 34 33 32 31 31 30 33 34 28 32 30 27 30 31 
32 32 33 34 35 36 36 36 37 37 37 36 37 37 37 36 36 35 34 34 
33 32 33 33 29 32 29 31 31 28 30 32 32 33 34 35 35 36 37 37 
37 36 37 36 37 37 36 36 36 36 34 34 38 42 38 40 33 31 34 25 
25 30 30 32 33 34 34 35 36 37 37 37 36 36 36 36 36 28 38 39 
38 36 36 39 57 56 76 86 57 38 42 35 28 29 32 34 34 36 36 37 
37 37 37 36 37 37 37 36 36 31 40 40 44 39 37 56 72 74 107 115 
89 60 51 42 38 35 36 36 36 36 36 37 37 38 37 37 37 37 37 37 
37 16 23 16 9 16 14 64 79 84 119 124 100 94 69 58 48 44 48 37 
37 37 37 38 39 39 38 38 38 38 38 38 37 8 2 4 0 17 24 62 
82 87 115 135 111 109 92 78 57 59 60 38 37 38 38 39 38 39 39 38 
38 38 38 38 37 9 1 22 24 33 31 59 56 76 88 119 120 101 91 103 
67 70 63 45 38 38 39 39 39 40 39 36 32 29 27 24 22 32 36 35 
42 34 15 37 52 92 110 123 119 108 106 116 79 77 59 57 35 35 34 32 
30 28 27 27 29 31 32 33 32 27 39 24 1 21 4 77 63 113 136 138 
138 137 130 115 92 78 53 60 28 30 33 35 36 33 26 17 37 37 37 36 
34 13 5 9 4 15 30 129 103 131 138 138 137 137 133 118 104 83 47 61 
39 38 38 39 39 37 33 16 37 36 36 36 34 12 8 19 35 26 49 118 
103 135 138 138 138 138 136 92 107 83 47 45 42 39 39 39 39 39 36 35 
37 36 35 33 32 21 6 28 43 44 43 67 107 124 139 138 138 136 118 77 
105 82 40 31 38 39 39 38 39 38 37 37 36 33 31 30 28 34 47 43 
22 37 33 38 103 112 138 138 138 127 103 92 102 81 34 18 27 38 38 37 
38 31 32 35 33 30 27 25 24 34 39 34 1 22 3 18 108 127 136 134 
123 116 66 89 98 78 37 10 20 22 10 11 35 7 17 35 31 26 24 23 
22 27 25 22 1 17 1 19 114 121 106 101 123 129 92 105 96 78 44 9 
19 20 9 7 36 11 11 25 28 25 22 21 20 3 29 19 30 39 38 42 
42 52 63 86 126 137 115 114 90 75 54 13 12 16 15 8 35 7 3 11 
21 23 21 20 19 1 32 28 13 28 36 36 29 39 27 17 93 130 109 112 
86 76 61 29 6 12 13 13 35 10 8 17 20 23 21 20 19 0 33 30 
0 13 32 13 0 31 36 28 99 101 100 105 87 78 65 51 11 21 25 16 
24 16 1 9 13 31 22 21 20 0 29 20 1 15 35 15 18 34 39 35 
104 109 88 105 90 72 52 23 6 17 23 27 25 22 19 14 2 13 18 23 
22 0 26 27 39 48 36 13 18 40 44 36 73 112 97 103 91 61 38 16 
17 22 24 21 26 26 27 17 1 3 42 41 41 0 24 25 21 26 20 10 
20 47 44 39 20 22 38 72 100 62 48 22 20 19 18 20 22 17 22 19 
6 5 41 40 40 16 22 25 24 24 17 8 24 48 47 43 25 17 11 34 
106 66 62 24 5 13 14 12 15 11 16 22 2 5 39 40 39 3 15 23 
22 15 12 9 27 48 48 45 26 20 13 17 96 70 74 37 5 11 12 13 
11 14 16 14 37 10 30 38 38 8 13 26 18 13 10 8 27 49 48 44 
27 23 18 15 71 62 77 43 8 8 11 12 8 10 14 5 6 3 10 34 
