P2 
32 30
141
10 33 31 30 28 26 25 23 22 20 19 17 15 19 18 18 14 11 13 16 
19 19 20 22 24 25 27 28 29 31 31 31 31 33 32 30 29 27 26 24 
23 22 21 19 20 23 19 21 18 15 17 20 21 22 24 25 26 27 29 29 
30 30 31 32 32 34 33 31 30 29 28 26 25 24 23 21 23 25 20 23 
22 19 21 23 25 26 26 27 28 29 30 31 32 32 33 33 33 33 32 31 
30 29 27 26 25 25 23 22 24 26 20 25 23 21 23 25 25 26 27 28 
28 30 30 31 31 32 32 32 32 33 32 32 31 30 28 27 26 25 24 24 
25 28 22 27 25 23 25 26 27 27 28 29 30 30 31 32 32 32 32 33 
33 33 33 32 32 31 30 29 28 27 26 25 30 44 37 35 30 25 27 29 
29 29 30 31 32 32 33 33 33 34 34 33 33 34 33 33 32 31 30 30 
29 28 28 33 64 54 41 47 60 34 28 30 30 31 32 32 33 33 34 34 
34 34 34 34 34 34 34 34 33 33 32 31 30 30 33 75 59 49 36 35 
47 56 33 31 32 33 33 34 34 35 35 35 35 34 34 34 34 25 35 36 
35 34 33 32 35 33 51 81 87 72 59 57 67 77 52 33 33 34 34 35 
35 35 35 35 35 35 35 34 34 29 37 37 40 36 33 35 32 34 41 86 
103 97 94 88 94 103 69 36 34 34 34 35 35 35 35 35 35 34 34 34 
34 13 21 14 6 15 1 11 10 17 38 93 106 112 118 113 108 107 75 35 
35 35 35 35 36 36 36 35 35 35 35 36 35 6 1 3 0 15 6 10 
8 13 39 80 100 106 119 120 115 106 75 31 35 35 36 36 36 37 36 36 
36 35 36 36 35 7 0 20 22 30 16 17 37 23 35 62 97 98 86 96 
107 111 73 26 36 36 37 37 37 38 37 34 30 27 25 23 21 29 34 32 
39 31 12 11 15 31 37 73 84 97 98 96 86 86 51 23 34 34 33 31 
29 27 26 26 28 30 31 31 30 24 35 22 0 19 2 4 4 51 75 108 
120 105 102 91 115 119 88 49 28 28 31 33 34 32 24 16 35 34 34 34 
32 11 4 7 3 14 0 12 7 58 85 119 124 115 114 112 125 125 96 60 
39 36 36 36 37 35 31 15 34 34 34 33 31 10 5 17 31 23 3 8 
7 51 82 107 116 103 91 98 109 126 94 74 47 36 36 36 37 36 33 33 
35 34 33 31 29 18 5 25 40 40 38 35 36 48 53 100 102 96 111 111 
96 115 86 67 48 37 36 36 37 36 35 35 34 33 31 28 25 31 43 39 
20 34 30 29 33 48 36 108 126 96 120 117 115 127 76 60 48 36 35 34 
35 30 30 34 33 31 28 24 21 30 36 30 1 19 2 13 25 58 28 58 
118 119 126 127 126 118 48 55 48 17 9 10 33 6 17 35 33 29 25 22 
21 24 23 20 1 16 1 12 27 82 43 35 87 115 132 133 114 88 48 56 
45 13 5 8 35 11 12 27 33 29 25 22 20 3 26 18 28 37 37 40 
43 94 73 38 85 69 85 84 82 90 57 55 38 14 2 7 35 8 3 13 
26 27 23 20 18 1 28 26 12 26 33 34 36 103 88 45 99 94 102 107 
123 95 71 61 32 24 6 5 34 10 8 18 23 25 21 19 18 0 28 27 
0 12 29 12 20 103 90 58 110 116 127 133 133 92 88 72 33 26 27 15 
24 15 1 9 14 31 21 18 18 0 24 18 0 13 32 16 30 91 86 60 
111 123 121 129 127 84 95 77 38 20 25 29 23 17 14 12 2 12 15 20 
19 0 22 24 36 44 28 11 35 82 81 65 114 130 130 133 120 89 95 74 
43 25 19 22 25 24 23 15 1 2 39 37 37 0 20 23 18 24 12 13 
44 87 84 60 39 73 98 95 82 78 95 69 47 31 16 22 18 17 21 16 
6 5 38 38 37 13 19 22 22 21 11 19 47 102 96 68 22 15 15 15 
44 66 91 62 51 43 14 14 14 12 17 17 0 5 37 37 37 2 13 21 
19 14 7 19 43 95 89 66 23 16 15 20 32 52 85 50 44 49 17 11 
12 15 17 8 43 9 28 36 36 5 10 19 16 7 7 18 40 75 75 55 
26 21 18 23 27 40 78 45 34 48 19 10 7 9 9 5 2 2 9 31 
