P2 
32 30
151
10 35 33 31 29 28 26 24 23 21 20 17 16 20 19 19 15 11 14 17 
19 20 22 23 25 26 28 29 31 32 32 33 33 35 34 32 31 29 27 26 
24 23 22 20 21 24 20 22 19 16 18 22 23 24 25 26 28 29 31 31 
32 32 33 34 34 35 34 33 31 30 28 27 26 25 23 22 24 26 21 24 
22 19 21 24 26 26 27 28 29 30 31 32 33 34 34 34 35 35 35 33 
32 30 29 28 26 25 24 23 25 28 21 26 24 22 24 26 27 28 28 30 
30 31 33 33 34 34 34 35 35 35 34 33 33 32 30 29 28 27 26 25 
27 29 24 28 26 24 26 28 29 29 30 32 32 33 33 34 34 35 35 35 
35 36 35 34 33 32 31 30 29 28 27 26 29 32 26 30 29 26 28 30 
30 31 32 33 33 34 35 35 35 35 36 35 35 35 35 34 34 33 32 31 
31 29 29 28 33 44 32 36 30 28 29 31 32 32 33 34 34 35 36 36 
36 35 35 36 36 35 35 35 35 34 33 32 31 31 30 38 52 38 29 38 
46 30 30 32 33 34 34 35 36 36 36 36 36 36 35 35 35 27 37 38 
37 35 35 34 37 34 40 62 67 58 54 56 59 48 33 35 35 36 37 37 
37 38 37 37 37 37 37 37 37 31 39 39 43 38 36 37 34 37 67 81 
90 100 103 105 88 87 45 36 36 36 36 37 38 38 37 37 38 37 37 37 
37 14 22 15 7 16 1 12 11 24 83 94 106 117 128 122 110 106 74 37 
36 36 37 38 38 38 38 37 37 37 37 37 37 7 1 4 0 16 6 11 
9 34 67 83 84 114 135 108 108 97 87 42 36 37 38 38 38 39 38 38 
38 37 38 38 37 7 0 21 23 31 17 18 40 42 26 21 15 23 108 56 
14 13 21 46 38 38 39 39 39 40 39 36 32 29 27 24 22 31 35 33 
40 32 13 12 18 27 7 11 2 32 81 18 8 16 5 47 35 35 34 33 
30 28 27 28 29 31 32 33 32 26 37 23 0 20 3 5 5 22 25 32 
3 22 112 45 13 27 8 40 29 30 33 35 36 34 27 17 37 37 37 36 
35 12 4 8 3 14 1 13 8 50 69 39 39 86 123 101 51 28 44 42 
37 38 39 39 40 37 34 17 37 37 37 36 35 12 7 18 33 25 4 8 
9 58 85 127 126 111 103 106 123 133 78 54 39 38 39 38 39 39 35 34 
37 37 36 35 34 19 6 27 42 42 41 37 40 57 90 115 108 106 121 113 
103 123 81 67 42 38 38 38 39 39 37 37 37 36 34 33 30 33 46 42 
21 36 32 31 38 49 59 124 122 103 128 118 115 134 79 73 45 38 38 36 
37 31 32 37 36 34 31 29 27 33 39 33 1 22 2 14 34 49 31 113 
131 125 135 134 132 132 48 79 48 19 10 11 36 9 19 38 35 32 29 26 
24 26 25 21 1 17 1 13 41 55 23 57 114 127 138 136 121 107 34 89 
47 14 6 8 37 12 13 28 35 31 27 23 22 4 29 19 30 40 39 42 
56 74 40 51 78 87 106 102 91 95 48 92 46 14 3 8 37 9 3 14 
27 29 25 22 20 1 32 29 13 28 36 37 59 86 63 52 92 72 72 84 
99 117 71 83 48 17 4 7 37 12 9 20 25 28 24 21 20 0 32 30 
0 13 31 14 49 98 71 55 121 107 124 127 133 123 94 77 44 40 18 5 
25 16 1 10 15 33 23 20 20 0 28 20 1 15 34 15 54 103 80 56 
118 116 130 137 137 123 104 80 40 31 33 20 16 15 16 13 2 13 18 22 
22 0 25 26 38 46 33 19 57 88 79 61 111 124 124 136 136 117 103 84 
43 22 27 32 24 23 23 16 1 2 41 39 39 0 23 24 20 27 25 11 
52 78 85 64 115 133 125 130 137 117 102 75 48 21 23 24 21 26 23 17 
6 5 40 39 39 16 22 25 24 27 23 14 51 80 94 47 54 119 137 136 
138 119 89 69 45 22 20 15 20 24 18 17 0 5 38 39 39 3 16 23 
24 23 18 13 57 91 99 45 21 22 54 77 69 75 85 73 52 29 17 12 
17 14 18 21 46 10 30 38 38 9 14 23 20 12 12 13 56 102 94 45 
22 17 16 14 15 60 81 70 66 37 15 8 14 10 15 16 3 3 10 34 
