P2 
32 30
151
10 40 38 36 34 33 31 29 27 26 24 21 19 23 21 22 18 14 17 20 
23 24 25 27 29 31 32 34 35 37 37 38 38 39 38 37 35 33 31 30 
28 27 25 24 24 26 22 25 21 17 20 24 26 27 28 30 31 33 34 35 
36 36 37 37 38 40 38 37 35 34 32 31 29 28 27 25 27 29 23 26 
25 22 24 27 28 29 30 32 32 34 35 36 37 37 37 38 38 40 39 38 
36 35 34 32 31 30 29 27 29 31 24 29 27 25 28 29 30 31 32 33 
34 36 37 37 38 38 38 39 39 40 39 38 37 36 34 34 33 31 30 29 
31 34 27 32 29 27 29 31 32 33 34 36 36 37 38 39 39 39 39 39 
39 40 39 38 37 37 36 35 34 32 31 30 32 35 28 33 31 29 31 33 
34 35 35 36 37 38 39 39 39 40 40 39 40 40 39 39 39 38 37 36 
35 34 33 33 35 37 31 35 33 31 33 35 36 36 37 38 39 40 40 41 
40 40 41 40 40 42 42 41 40 40 39 38 38 37 37 36 33 33 31 33 
35 34 35 37 37 39 40 40 41 42 42 42 42 42 41 41 41 31 42 43 
42 41 40 39 44 44 44 45 35 36 33 27 26 33 36 38 39 40 41 41 
42 42 42 42 42 42 42 41 41 35 44 43 48 42 40 43 57 59 81 64 
45 43 39 35 31 32 38 39 40 40 41 41 42 42 41 41 42 42 41 41 
41 18 25 17 9 18 2 39 61 72 99 70 52 49 45 38 41 36 46 40 
40 41 41 42 43 42 43 42 42 42 42 42 42 9 2 5 1 18 10 54 
59 71 102 74 60 61 57 44 51 47 60 42 41 41 42 43 43 43 43 42 
43 42 42 43 42 10 1 25 26 35 24 57 27 18 46 76 78 81 78 53 
57 61 60 48 42 42 43 43 43 44 43 40 36 32 30 28 25 36 40 38 
45 37 18 34 4 59 113 122 106 94 100 77 60 71 47 50 39 39 38 36 
34 32 31 31 33 35 37 37 36 30 43 26 1 23 4 15 2 69 139 142 
124 105 107 98 66 80 43 45 32 33 36 39 40 38 30 20 42 41 41 40 
39 14 5 9 4 17 2 88 13 93 145 143 127 110 106 105 75 85 43 36 
40 42 42 43 43 41 37 19 41 41 40 40 39 14 9 21 37 28 51 135 
91 139 145 142 128 112 106 108 81 92 43 25 41 41 42 42 42 42 39 38 
40 40 40 39 37 23 8 31 47 47 57 101 104 141 145 143 129 106 102 108 
82 95 42 19 38 42 42 42 43 42 41 41 41 39 37 36 35 39 51 48 
24 41 36 55 104 126 146 143 128 96 100 104 79 95 39 16 36 43 42 41 
42 36 36 41 39 36 34 32 31 38 44 38 2 25 3 21 116 126 146 139 
123 84 99 103 77 91 39 14 33 21 12 13 40 10 21 41 37 33 30 28 
28 30 29 25 1 19 1 23 125 141 139 117 117 83 101 100 69 90 39 15 
28 16 7 10 40 13 14 29 35 30 27 26 25 5 33 22 35 44 44 49 
91 101 96 96 108 86 96 98 66 86 38 25 17 16 5 9 41 10 4 14 
26 28 26 25 24 2 37 33 16 32 40 41 34 46 38 64 102 88 94 94 
68 80 44 32 24 20 9 9 41 13 10 20 25 28 26 25 24 0 35 33 
1 14 34 14 0 35 28 45 96 78 94 94 70 74 60 55 28 18 22 14 
27 17 1 10 14 33 24 23 22 0 32 23 1 17 37 15 10 30 28 46 
109 75 96 102 72 63 77 106 43 18 28 27 23 18 19 15 2 14 20 25 
24 0 29 31 43 52 38 25 20 20 37 47 116 88 97 106 67 56 89 117 
35 17 28 33 27 29 29 20 1 3 46 45 45 0 27 29 24 31 32 19 
21 29 44 49 100 91 99 109 65 57 102 83 27 12 21 25 20 30 27 21 
7 6 46 45 45 19 25 29 28 28 30 18 16 44 45 42 77 23 87 111 
69 68 48 14 29 18 21 19 22 28 19 25 3 6 43 44 44 4 18 26 
27 21 24 14 17 59 45 40 85 10 59 102 70 79 34 16 24 18 19 14 
19 19 16 25 46 11 34 43 43 10 16 30 21 16 15 10 14 62 49 45 
85 16 45 93 70 83 37 16 27 20 18 12 14 14 15 22 7 3 12 38 
