P2 
32 30
149
10 34 32 30 29 27 25 23 22 20 19 16 15 19 18 18 14 10 12 16 
18 20 21 22 24 25 27 29 30 31 31 32 32 34 33 31 29 28 26 25 
23 22 20 19 20 23 19 21 18 14 17 20 22 23 24 25 26 28 29 30 
31 32 32 32 33 36 34 33 31 30 29 27 26 25 23 22 24 27 21 24 
23 20 22 24 26 27 27 28 29 31 31 32 33 34 34 35 35 35 34 33 
32 31 29 28 27 26 25 23 26 28 22 27 25 22 25 26 27 28 28 30 
31 32 33 34 34 34 35 35 35 36 34 34 32 32 31 29 28 27 25 25 
27 30 24 28 26 24 26 28 28 29 31 32 32 33 34 34 34 35 35 35 
35 35 35 34 33 33 31 30 29 28 27 27 28 31 26 30 29 26 28 30 
31 31 32 33 33 34 35 35 35 35 35 35 35 35 35 35 34 33 32 31 
30 30 29 28 31 41 32 35 30 27 29 31 32 32 33 34 35 35 36 36 
36 36 36 36 35 35 35 35 34 34 33 32 31 31 30 35 55 44 34 44 
47 29 30 32 33 33 34 35 35 36 36 36 36 36 35 35 35 26 36 37 
36 35 34 33 36 33 37 62 65 47 40 46 59 41 32 34 34 35 36 36 
37 37 36 36 36 36 36 36 36 29 38 38 42 37 34 36 33 36 63 85 
88 86 81 92 89 82 40 35 35 35 36 36 37 37 36 36 36 36 36 36 
36 14 22 15 7 15 1 11 11 23 74 103 106 120 114 126 115 108 69 35 
36 36 36 37 37 37 37 37 37 36 36 37 36 6 1 4 0 16 6 11 
8 26 73 102 105 121 133 109 118 108 87 39 36 36 37 38 38 38 38 37 
37 37 37 37 36 7 0 21 22 30 17 18 39 30 51 53 50 101 135 92 
65 63 58 48 37 37 38 38 38 38 38 35 31 28 26 24 21 31 35 33 
40 33 13 12 19 22 15 5 3 23 76 16 8 7 12 47 36 35 34 33 
31 29 28 28 29 32 33 33 32 26 37 23 0 20 3 5 5 15 9 38 
2 30 110 15 19 31 9 33 29 30 33 35 36 34 26 18 37 37 37 36 
35 12 4 7 3 15 1 13 7 57 27 8 1 49 120 47 5 5 20 34 
37 38 39 39 40 38 34 17 38 37 37 37 35 11 6 19 33 25 4 8 
11 76 77 66 85 100 118 106 83 64 69 40 38 39 39 39 40 39 36 35 
38 38 37 36 34 20 6 27 43 43 41 38 43 79 83 121 136 115 121 124 
136 128 72 51 39 39 39 39 39 39 38 38 38 37 35 34 32 33 45 42 
21 36 32 31 43 56 71 108 133 111 111 113 134 124 81 68 41 39 38 36 
37 31 32 37 36 34 32 30 28 32 37 32 1 20 2 14 42 44 37 103 
131 110 122 122 131 123 47 71 42 17 9 10 35 7 17 37 34 32 29 26 
24 26 25 20 1 16 1 12 53 46 26 83 124 136 136 136 131 107 39 76 
43 13 5 7 36 11 12 27 34 31 27 24 21 4 29 19 30 39 38 42 
66 60 31 51 80 111 128 122 96 80 52 90 45 14 3 7 36 8 3 13 
27 29 25 22 20 1 32 28 13 28 35 38 71 85 43 56 80 62 58 65 
87 94 50 97 51 16 3 6 36 11 9 20 25 28 24 21 20 0 31 29 
0 13 31 14 67 101 68 55 110 107 129 126 130 101 74 90 49 30 8 3 
24 16 1 10 15 32 22 20 19 0 28 20 1 15 34 17 72 112 80 56 
118 114 134 135 136 104 93 76 41 35 37 15 14 14 16 13 2 13 17 22 
21 0 26 27 38 47 34 24 76 107 80 57 112 117 124 129 136 99 104 63 
26 23 31 31 24 20 23 16 1 2 41 40 40 0 24 25 20 27 26 19 
76 85 79 62 115 132 125 135 135 100 103 58 23 19 25 23 21 27 25 17 
6 5 40 39 39 18 23 25 25 27 22 27 75 82 84 33 77 131 135 137 
135 104 97 54 16 15 20 16 21 25 18 16 0 5 38 39 39 3 16 24 
24 24 19 34 79 99 95 29 21 36 77 95 86 102 91 58 23 21 18 14 
20 17 18 20 44 10 30 38 38 9 14 24 19 14 14 36 78 105 99 25 
19 16 16 15 22 95 85 64 19 16 15 12 17 11 15 17 4 3 10 33 
