P2 
32 30
151
10 38 36 35 33 31 29 27 25 24 22 20 18 22 21 22 17 13 15 19 
22 23 25 26 27 29 31 33 34 35 36 36 36 38 37 35 34 32 30 28 
27 26 24 23 24 27 23 24 21 17 20 24 25 26 28 29 30 32 33 34 
35 36 36 36 37 39 37 36 35 33 31 30 28 27 26 25 26 29 23 27 
25 22 24 26 28 29 30 31 32 33 34 35 36 36 37 38 38 39 37 36 
35 34 32 31 30 28 27 26 28 31 25 30 27 25 27 29 30 31 32 33 
34 35 36 37 37 38 38 38 38 39 38 37 36 35 34 32 31 30 29 28 
30 33 28 32 30 27 29 31 31 33 34 35 36 36 37 38 38 38 38 38 
39 40 39 38 37 36 35 34 33 32 31 30 33 36 30 34 32 30 32 34 
34 35 36 37 38 38 39 39 39 40 40 39 39 39 39 38 37 37 35 35 
34 33 32 31 34 37 31 35 33 31 33 35 35 36 37 37 38 39 40 40 
40 40 40 39 39 39 39 39 38 37 37 36 35 34 33 32 35 38 33 35 
34 32 33 36 36 37 38 38 39 40 40 40 40 40 39 39 39 29 40 41 
40 38 37 37 40 36 34 34 36 39 36 36 36 34 35 37 38 39 39 39 
40 41 40 40 40 40 40 39 39 33 42 42 46 40 38 40 36 37 35 35 
38 40 28 42 37 35 36 38 38 39 39 40 41 41 40 40 41 40 40 40 
40 16 23 16 8 17 1 13 12 12 34 38 25 54 94 69 45 36 36 39 
40 39 40 40 41 41 41 41 40 40 41 41 40 8 2 5 0 17 7 12 
9 10 24 10 0 11 120 48 11 29 30 40 40 40 41 42 42 42 42 41 
42 41 42 41 40 9 1 25 26 35 20 22 43 44 29 48 60 98 123 91 
35 31 25 42 42 42 43 43 43 44 43 40 36 33 30 28 26 35 39 38 
45 37 16 15 17 36 39 104 135 126 137 132 125 77 30 40 39 39 38 36 
34 32 31 31 32 35 37 37 36 29 41 26 1 23 4 7 3 40 52 114 
136 134 141 140 125 116 35 31 31 33 36 39 40 37 29 20 41 40 41 39 
38 14 5 9 4 16 1 16 3 43 63 111 140 143 143 143 136 117 52 39 
40 42 42 43 43 41 37 19 41 40 40 40 38 13 8 21 37 28 5 10 
3 40 69 111 139 140 143 143 139 123 54 42 41 42 42 43 43 42 39 38 
41 41 40 40 39 22 7 30 46 46 45 41 40 78 90 100 124 137 143 142 
133 116 58 41 41 42 42 42 42 42 41 41 41 40 39 39 38 37 50 46 
24 40 36 35 33 77 90 86 122 140 143 142 127 102 75 41 42 43 41 40 
41 35 36 41 40 39 37 36 35 37 42 36 1 24 3 16 17 42 43 91 
111 134 144 141 122 68 62 42 42 21 12 13 39 10 21 41 39 36 34 32 
32 29 28 23 1 19 1 14 23 38 32 104 122 135 144 143 132 77 31 41 
41 16 8 10 40 14 14 31 38 34 30 28 27 4 32 21 33 43 42 44 
40 40 26 107 129 139 144 144 138 100 49 38 41 15 4 9 39 10 4 15 
29 31 27 24 24 2 35 31 15 31 39 40 36 47 28 102 131 140 145 144 
141 115 40 35 40 17 5 8 39 12 9 21 26 28 24 23 23 0 34 32 
1 14 35 20 38 49 19 96 136 137 145 145 144 105 39 33 43 36 16 6 
27 17 1 10 16 34 24 23 22 0 30 23 1 17 38 23 45 51 22 70 
139 142 145 145 144 102 54 37 33 37 32 19 17 17 19 15 2 14 20 25 
24 0 27 30 43 52 39 28 53 60 33 78 133 145 145 145 145 100 71 46 
25 30 34 33 27 27 26 19 1 3 45 44 44 0 25 28 24 32 32 36 
62 73 43 51 127 146 146 145 145 107 83 51 27 23 30 22 27 29 26 20 
7 6 45 44 44 17 23 28 28 30 40 47 77 77 45 30 43 102 140 146 
142 107 88 53 30 20 24 19 25 26 23 20 0 6 43 43 43 3 17 25 
27 28 43 55 85 80 37 27 20 19 23 32 28 83 86 56 35 25 19 14 
21 16 22 22 46 11 33 42 41 8 14 25 22 29 41 58 83 77 31 22 
21 18 18 17 24 77 83 64 43 21 14 12 18 12 19 14 3 3 11 36 
