P2 
32 30
145
10 35 33 32 30 28 27 25 24 23 21 19 17 20 19 19 15 11 13 16 
19 20 22 23 25 26 28 29 31 32 32 33 33 36 34 33 31 30 28 27 
26 24 23 21 22 24 20 22 19 15 17 21 23 23 25 26 28 29 30 31 
32 33 33 33 34 36 35 33 32 30 29 28 27 26 25 24 25 27 21 24 
22 19 21 24 25 26 27 28 29 30 31 32 33 33 34 34 35 36 35 34 
32 32 30 29 28 27 26 25 27 28 22 27 25 22 25 26 27 28 29 30 
31 32 33 34 34 34 35 35 35 36 35 35 34 33 31 30 30 29 28 27 
28 31 25 29 27 24 26 28 29 29 30 32 32 33 34 34 35 35 35 35 
35 36 36 35 34 33 33 32 31 30 29 29 31 33 26 30 29 26 28 30 
30 31 32 33 33 34 35 35 35 36 36 35 36 37 37 36 36 35 34 33 
33 33 33 34 30 34 30 33 30 28 30 32 32 33 34 34 35 36 37 37 
36 37 37 37 36 37 37 37 36 36 35 34 41 43 38 39 33 32 32 26 
29 30 31 33 33 34 35 36 37 37 37 37 37 37 37 36 36 27 37 39 
37 36 35 44 63 57 74 82 56 36 40 33 26 30 32 34 34 35 36 36 
36 37 37 36 37 37 36 36 36 31 40 39 43 38 39 64 78 76 106 113 
87 54 47 40 33 33 33 35 35 35 36 36 37 37 36 36 37 36 36 36 
36 15 23 15 8 16 29 70 87 85 116 119 100 86 60 50 45 41 41 35 
36 36 36 37 37 37 37 37 37 37 37 37 36 7 2 4 0 17 38 70 
89 90 115 130 106 106 80 69 56 51 49 36 36 37 37 38 38 38 38 37 
37 37 37 37 36 7 1 22 23 32 40 62 60 80 95 123 118 101 91 92 
63 63 55 36 37 37 37 38 38 38 37 34 31 28 25 23 21 32 36 35 
41 34 20 48 60 94 111 121 112 99 93 113 74 72 55 40 35 35 34 32 
30 29 27 28 29 31 32 33 32 28 39 24 1 22 20 97 70 128 138 137 
137 136 115 118 83 75 44 41 29 30 33 35 36 34 26 17 37 37 37 36 
34 13 5 8 4 15 79 123 106 138 137 137 137 137 119 119 93 76 41 38 
36 37 38 38 39 37 33 16 37 36 36 35 34 12 8 19 34 26 66 102 
96 136 137 137 137 136 135 106 99 80 35 36 38 38 38 38 38 38 35 34 
36 36 34 33 32 21 7 28 43 43 42 61 101 111 138 137 137 134 100 84 
99 80 32 28 38 38 38 38 38 38 37 36 35 33 31 30 29 34 46 43 
22 37 33 51 115 111 134 137 137 123 99 93 94 79 25 18 35 38 37 36 
37 31 31 36 33 30 27 25 25 34 39 34 1 22 3 25 120 133 131 133 
123 104 65 87 94 78 24 13 27 18 9 10 35 7 17 35 31 26 24 23 
23 27 26 21 1 17 1 55 129 130 115 110 125 116 86 99 93 81 26 13 
18 13 5 7 36 10 11 25 28 24 22 21 20 4 30 19 31 40 39 47 
52 68 95 118 134 134 108 114 88 81 31 18 13 13 3 6 36 7 3 11 
21 23 22 21 19 1 33 29 14 28 35 36 30 39 27 72 131 133 108 110 
83 76 39 19 20 17 8 6 35 10 8 16 20 22 21 20 19 0 32 29 
0 12 31 12 0 32 24 55 98 119 100 107 87 75 68 23 20 28 21 15 
25 15 1 8 12 29 20 20 19 0 29 20 1 15 35 15 14 31 34 65 
113 93 96 108 94 74 51 13 14 25 29 28 28 22 18 13 2 13 17 23 
21 0 27 28 39 48 35 15 21 42 41 53 118 104 94 110 95 62 30 17 
24 18 23 25 28 27 27 17 1 2 41 40 40 0 25 25 21 27 20 10 
25 51 45 30 39 62 69 103 96 57 34 25 35 16 18 26 20 18 23 19 
6 5 41 40 40 18 24 26 25 24 15 11 29 55 48 33 22 13 11 79 
101 63 36 4 11 15 15 16 13 12 18 20 0 5 39 40 40 3 17 24 
22 17 12 12 30 55 50 36 22 16 9 52 108 74 47 6 8 15 16 12 
11 12 18 11 47 10 31 39 39 9 14 25 20 11 10 12 31 57 50 40 
23 22 12 35 102 82 60 6 8 11 11 14 10 11 12 7 4 3 10 34 
