P2 
32 30
151
10 37 36 34 32 30 28 26 25 23 22 19 17 22 21 21 17 12 15 18 
21 22 23 25 27 29 30 32 33 35 35 35 36 38 36 34 33 31 29 28 
26 25 23 22 23 25 22 24 21 17 19 23 25 26 27 28 29 31 32 33 
34 35 35 36 36 39 37 35 34 33 31 29 28 27 26 24 26 29 23 27 
25 21 24 26 28 29 29 31 32 33 34 35 36 37 37 37 37 38 38 36 
35 34 32 31 30 28 27 26 29 31 25 29 27 25 28 29 30 30 32 33 
33 34 36 37 37 37 37 38 38 39 38 37 36 35 33 32 31 30 29 29 
31 33 27 32 30 27 29 31 32 32 33 35 35 36 37 38 38 38 38 39 
38 39 38 38 37 36 35 34 33 32 31 30 32 36 30 34 32 29 32 33 
34 34 36 36 37 37 38 39 39 39 39 39 39 40 39 39 38 37 36 35 
34 33 32 32 34 37 31 36 34 32 33 35 35 36 37 38 38 39 40 40 
40 40 40 40 40 39 39 39 38 38 37 36 35 34 33 32 35 39 33 36 
35 32 33 36 36 37 38 38 39 40 40 40 39 40 39 39 39 28 39 40 
39 38 37 36 39 36 34 33 35 38 35 35 35 33 34 37 37 38 38 39 
39 40 39 39 39 39 39 39 38 33 42 41 46 40 38 39 36 36 35 35 
38 39 28 42 37 35 36 38 38 39 39 40 40 40 40 40 40 40 40 39 
40 16 24 16 9 17 1 13 12 13 33 40 24 50 103 56 41 36 37 40 
40 40 40 41 42 41 41 41 41 41 41 41 40 8 2 5 0 18 8 13 
9 10 24 4 2 38 118 47 8 23 32 40 40 41 42 42 42 43 42 42 
42 41 41 42 41 9 1 24 25 34 19 21 42 43 27 64 109 119 126 109 
85 52 28 40 41 41 42 42 42 43 42 39 35 32 30 27 25 34 39 37 
44 36 15 14 17 35 38 127 138 116 132 116 135 108 30 39 38 38 37 35 
33 31 30 30 32 34 35 36 35 29 41 25 1 22 4 7 3 40 57 137 
132 117 141 139 121 130 37 31 31 33 36 38 39 37 29 19 40 40 40 39 
37 14 5 9 4 16 1 15 3 41 70 135 129 138 142 141 124 126 55 39 
39 41 42 42 43 40 36 18 40 40 40 39 38 13 8 20 36 27 4 10 
2 42 77 126 135 138 142 142 137 123 54 41 41 42 42 42 42 42 39 38 
41 40 40 40 39 23 7 30 47 47 45 41 40 82 88 109 125 137 143 141 
133 115 71 42 42 42 42 42 43 42 41 41 41 40 40 39 38 36 49 46 
24 40 35 35 33 73 79 87 126 140 143 141 130 96 84 41 41 42 41 40 
41 35 36 41 40 38 36 35 34 36 41 36 1 24 3 16 17 36 40 91 
115 134 143 140 127 65 42 42 41 21 12 13 38 10 21 41 38 35 33 31 
31 29 27 24 1 19 1 13 23 36 30 101 124 136 144 143 135 79 30 41 
41 15 7 10 39 14 14 30 37 33 29 27 26 4 32 21 33 43 42 44 
39 41 21 103 129 139 144 143 137 102 49 39 40 15 4 8 39 10 3 14 
28 30 26 24 23 2 34 30 15 31 38 39 38 45 22 100 130 140 144 143 
141 112 33 36 39 16 4 7 38 12 9 21 25 27 24 22 22 0 33 32 
1 13 34 20 38 46 14 91 135 135 143 143 142 96 38 35 41 39 19 6 
26 17 1 10 14 33 23 22 21 0 30 23 1 18 38 25 43 50 22 68 
138 142 145 145 144 92 53 42 31 36 32 22 18 17 20 16 2 14 20 26 
25 0 26 31 43 52 39 31 52 61 33 79 132 145 145 145 144 92 73 50 
22 29 34 31 28 29 26 19 1 3 45 44 44 0 24 27 23 30 29 39 
66 70 38 42 119 145 144 144 142 102 87 54 19 23 28 21 27 29 25 20 
7 6 43 43 43 16 21 27 27 28 36 51 79 69 43 28 31 78 119 133 
120 102 83 56 20 20 23 18 25 23 23 19 0 6 42 43 42 3 17 25 
25 27 43 60 89 67 33 27 20 20 20 21 29 93 77 59 24 23 19 15 
21 15 22 21 46 11 32 41 41 8 13 23 20 23 48 64 84 65 27 21 
22 19 18 17 34 81 77 64 29 20 14 12 16 12 20 13 2 3 11 36 
