P2 
32 30
144
10 35 33 31 29 28 26 24 23 21 20 18 16 20 19 20 15 11 14 17 
19 20 22 23 25 26 28 30 31 32 33 33 33 35 34 32 30 29 27 25 
24 23 21 20 21 24 20 22 19 15 18 21 23 24 24 26 27 29 30 30 
32 32 33 33 34 35 34 32 31 30 28 27 26 24 23 22 24 26 21 24 
23 20 22 24 25 26 27 28 29 30 31 32 33 33 34 34 34 36 35 34 
32 31 29 28 27 26 25 24 26 29 22 27 26 23 25 27 28 28 29 30 
31 32 33 34 34 34 35 35 35 36 35 35 33 32 31 30 28 28 26 26 
28 31 25 29 27 25 27 28 29 30 31 33 33 33 34 35 35 35 35 35 
35 36 35 34 33 33 32 31 30 29 28 27 29 32 26 31 29 26 29 30 
31 31 32 33 33 34 35 35 35 36 36 35 36 35 35 35 34 33 32 32 
31 30 29 28 30 34 27 32 30 28 30 32 32 33 33 34 35 36 36 36 
36 36 36 36 36 36 36 36 35 35 34 33 32 32 30 30 32 36 29 33 
32 31 31 33 34 35 35 36 36 37 37 37 37 37 36 36 36 27 37 38 
37 36 35 35 37 34 32 32 41 53 63 46 44 34 33 35 36 36 37 37 
38 38 37 37 37 37 37 37 37 30 39 39 43 38 35 37 34 34 33 36 
56 95 87 76 63 45 34 36 36 36 37 38 38 38 37 37 38 37 37 37 
37 15 22 15 8 16 1 12 11 12 36 40 100 100 109 99 95 82 38 37 
37 37 38 38 39 38 38 38 38 38 38 38 38 7 2 4 0 17 7 12 
8 10 40 74 106 106 115 103 104 97 38 38 38 38 39 39 40 40 40 39 
39 39 39 39 38 7 1 21 23 32 17 19 39 40 42 96 134 124 120 116 
133 125 57 39 38 38 39 39 39 39 39 36 32 29 27 24 22 30 35 33 
40 32 12 11 14 33 44 113 137 110 126 125 118 135 78 39 35 34 33 32 
30 28 26 26 28 30 31 32 31 25 37 23 0 20 3 4 2 39 44 120 
136 112 131 132 115 135 95 32 29 30 33 35 36 34 26 17 37 36 36 36 
34 12 4 8 3 14 1 13 2 44 71 117 133 117 135 135 122 130 101 48 
37 38 39 39 39 37 34 16 37 37 37 36 35 11 6 18 33 25 4 9 
2 46 98 102 125 118 122 127 120 125 103 74 39 39 39 39 39 39 36 35 
38 37 37 36 34 20 6 27 43 43 41 37 36 49 86 79 102 104 121 128 
111 109 99 68 39 39 39 39 39 39 38 38 38 37 35 33 31 34 46 42 
21 37 32 32 29 37 19 70 89 114 122 127 119 98 43 38 39 40 39 37 
39 32 33 38 37 35 32 30 28 33 39 33 1 21 2 14 12 30 24 61 
90 110 133 135 121 107 42 39 41 19 10 11 36 9 19 38 35 32 29 26 
24 25 24 21 1 16 1 12 14 39 31 55 105 116 138 137 134 119 62 43 
42 14 6 8 37 12 12 28 34 30 26 23 22 3 27 19 30 39 39 41 
38 51 33 57 117 120 138 138 137 124 44 41 40 15 3 7 37 9 3 13 
26 28 24 22 20 1 31 29 14 28 36 36 33 55 39 66 124 118 139 138 
136 121 34 38 35 23 6 7 37 11 9 20 24 26 23 21 20 0 28 29 
0 13 31 13 17 57 47 54 123 119 132 137 137 112 36 39 40 32 29 18 
25 16 1 10 14 31 21 20 19 0 24 19 1 14 34 16 28 69 56 57 
117 131 135 138 137 103 46 47 54 34 31 30 22 16 16 13 2 13 17 22 
21 0 21 26 38 46 33 17 38 81 67 43 116 132 136 138 136 86 64 68 
67 41 26 27 29 28 26 17 1 2 41 40 40 0 19 23 20 26 17 27 
46 92 65 25 30 63 93 95 87 56 75 88 83 54 22 23 24 20 25 19 
6 5 40 40 40 12 17 23 23 23 15 36 49 99 71 24 18 17 15 16 
45 35 75 92 90 61 27 16 18 12 17 21 1 5 38 39 39 1 13 21 
20 15 13 41 45 87 73 22 20 18 16 16 45 31 63 81 83 63 37 14 
10 10 16 15 45 10 29 38 38 6 11 22 19 11 20 42 42 77 65 23 
21 24 21 29 36 31 56 71 79 64 51 17 11 11 14 8 5 3 10 35 
