P2 
32 30
139
10 31 29 28 26 25 22 21 20 18 17 15 13 17 16 17 12 9 11 14 
16 17 18 20 21 23 24 25 27 28 28 29 29 31 30 28 27 26 24 23 
22 20 19 18 18 21 17 19 17 13 15 18 20 21 22 23 24 26 27 28 
28 29 29 29 30 33 32 30 29 28 26 25 24 23 22 21 22 25 20 23 
21 18 20 22 24 25 25 26 27 28 29 30 30 31 32 32 32 33 32 31 
29 28 27 26 25 24 23 22 24 26 20 24 22 21 23 24 25 25 26 27 
28 29 30 31 31 32 31 32 32 33 32 31 30 29 28 27 26 25 24 24 
25 28 22 26 25 23 24 26 26 27 28 29 29 30 31 32 31 32 32 32 
32 32 32 31 31 30 29 28 27 27 26 25 27 31 26 28 27 24 26 28 
28 28 29 30 31 31 32 32 33 33 33 32 32 33 32 32 31 30 30 29 
28 27 27 29 49 48 37 47 32 26 27 29 29 29 31 31 31 32 33 33 
33 33 33 33 33 33 32 32 32 32 31 30 29 29 33 56 47 34 31 36 
52 31 28 30 31 31 32 32 33 34 34 34 33 33 33 33 32 24 33 35 
33 32 31 31 34 32 62 67 66 53 45 51 57 54 31 32 32 33 33 33 
34 34 33 33 34 34 33 33 33 28 36 35 39 34 32 34 31 39 81 89 
88 84 78 79 81 91 46 33 33 33 33 34 34 34 34 34 34 33 33 33 
33 13 20 14 6 14 1 11 11 31 77 101 108 109 106 101 94 106 58 35 
34 33 34 34 35 35 34 34 34 34 34 34 33 6 1 3 0 14 5 10 
9 29 75 102 110 119 122 118 104 100 60 39 34 33 34 35 35 35 35 34 
34 34 34 34 33 6 0 19 21 29 15 17 35 26 65 93 93 97 119 109 
109 103 56 35 35 35 35 35 35 36 35 32 29 25 24 22 19 28 33 31 
38 30 11 11 16 23 42 94 94 100 118 100 104 99 46 30 33 32 32 30 
28 26 25 25 27 28 29 30 29 23 35 22 0 18 2 4 10 29 82 102 
104 76 119 90 104 97 45 29 27 28 31 32 33 31 24 15 34 34 34 33 
32 11 4 7 3 13 0 12 17 65 96 119 118 102 119 109 123 118 87 44 
35 35 36 36 36 34 31 15 34 34 34 33 32 10 5 17 31 23 4 8 
25 77 90 129 131 93 113 115 129 124 93 49 39 36 36 36 36 36 33 32 
35 34 34 33 31 18 6 26 40 40 39 36 50 67 82 121 129 109 115 124 
130 118 91 68 44 36 36 36 36 36 35 35 35 34 33 31 28 30 41 38 
19 33 29 29 51 47 59 109 119 101 108 109 128 111 70 70 50 36 35 34 
35 28 29 34 33 31 29 26 24 29 35 29 1 19 2 13 46 39 40 108 
121 108 115 115 128 111 50 69 56 16 8 9 32 6 16 34 32 29 26 23 
21 24 23 19 1 15 1 11 55 44 20 87 118 129 130 130 123 86 45 68 
59 12 4 6 33 10 11 25 32 29 25 21 19 3 26 17 27 36 36 39 
63 61 23 57 75 110 117 110 85 67 56 67 58 12 2 6 33 7 3 12 
25 27 23 19 17 1 29 26 12 26 33 35 65 89 36 59 76 60 52 62 
99 77 59 67 57 14 3 5 33 9 8 18 24 26 21 19 17 0 29 26 
0 11 28 13 58 104 59 57 102 106 124 123 128 89 71 70 55 34 18 4 
22 15 1 9 14 31 21 18 17 0 26 17 0 13 31 15 58 106 76 52 
112 107 125 127 128 87 82 86 54 28 29 23 15 13 14 11 2 12 15 20 
19 0 24 24 35 44 31 18 59 90 68 49 110 108 113 124 119 74 92 98 
68 20 27 26 27 25 21 15 1 2 38 37 37 0 22 22 18 24 14 13 
54 72 60 49 112 124 121 130 108 75 96 101 76 26 19 21 23 21 24 15 
6 5 37 36 36 17 21 22 22 22 9 19 54 71 61 29 36 72 90 87 
78 65 96 103 83 40 15 22 15 13 19 17 0 5 35 36 36 2 14 21 
21 18 9 31 58 88 74 36 18 15 14 14 53 58 95 109 89 59 18 12 
9 9 15 16 42 10 27 35 35 8 12 22 16 10 6 41 58 107 91 45 
17 15 13 17 45 51 85 97 90 71 22 10 7 8 13 6 2 2 8 30 
