P2 
32 30
150
10 39 38 36 34 32 30 29 27 25 23 20 18 22 21 21 16 12 15 19 
21 23 25 26 27 29 31 33 34 35 36 36 37 39 37 36 34 33 31 30 
28 27 25 23 23 26 21 23 21 16 19 23 25 26 27 28 30 32 33 34 
35 35 36 37 37 39 38 37 35 34 33 31 30 28 26 25 26 28 22 25 
23 21 23 26 27 29 30 31 32 33 34 35 36 37 37 37 38 40 38 38 
36 35 34 33 31 29 28 26 28 30 23 28 26 24 27 28 29 30 31 33 
33 35 36 37 37 38 38 38 39 40 39 39 37 37 35 34 33 32 30 29 
31 33 27 31 29 27 29 31 32 33 34 35 36 37 37 38 38 39 39 39 
39 40 39 39 38 37 36 35 34 33 31 30 32 35 28 32 30 28 31 32 
33 34 35 36 37 37 38 39 39 39 40 39 39 40 39 39 39 38 37 36 
35 34 33 32 33 36 29 34 31 29 31 34 34 35 36 37 37 39 40 39 
39 39 40 40 40 40 40 40 39 39 38 37 37 37 35 33 35 38 32 35 
33 31 33 35 36 37 37 38 39 40 40 40 40 40 40 39 39 30 41 42 
41 40 39 40 39 31 31 28 28 31 35 34 35 33 34 36 37 38 39 39 
40 40 40 40 40 40 39 40 40 34 43 42 47 42 47 46 41 33 36 35 
30 26 28 36 36 34 35 38 38 38 39 39 40 40 40 40 40 40 40 40 
40 17 24 17 9 38 59 76 79 47 42 42 38 34 33 44 37 34 35 38 
38 39 39 40 41 40 40 40 40 40 40 40 40 10 3 5 3 67 73 106 
108 61 50 49 45 47 45 61 47 37 37 40 40 41 41 42 42 43 43 42 
42 42 42 43 42 10 1 25 35 79 80 122 111 78 58 62 51 58 59 74 
70 37 37 40 41 41 41 42 42 43 42 39 35 32 30 28 26 36 40 38 
54 81 82 125 122 93 75 81 60 63 74 72 81 42 37 39 37 37 37 35 
33 31 30 30 32 34 36 36 35 30 42 26 37 69 79 117 144 116 95 104 
82 69 84 66 75 50 28 30 30 32 35 37 39 36 28 19 40 40 40 39 
38 15 5 9 28 53 49 79 108 103 102 109 104 75 91 69 53 68 32 38 
39 40 41 42 42 40 36 18 40 40 40 40 38 14 9 21 38 47 99 133 
144 143 127 108 112 83 93 64 39 56 38 40 40 41 41 41 41 41 38 37 
40 40 40 40 39 24 8 31 67 92 108 143 144 144 131 115 112 90 97 54 
36 34 39 40 40 41 41 41 42 41 40 40 40 40 39 38 37 38 51 48 
106 108 124 144 144 144 126 117 107 91 98 50 24 25 35 40 40 41 40 39 
40 34 35 40 38 36 35 34 34 38 43 38 40 82 121 144 144 144 122 115 
105 94 97 44 16 19 31 40 40 19 10 11 38 9 19 39 35 33 32 31 
31 30 29 24 1 79 108 144 145 145 116 104 99 92 94 35 18 15 24 39 
40 14 6 8 38 12 12 27 32 29 27 26 26 5 33 22 34 76 112 138 
145 143 94 96 94 89 91 37 24 18 21 37 40 15 3 7 37 8 3 12 
23 27 25 24 24 2 37 32 16 72 124 126 125 114 92 95 85 90 88 63 
27 35 17 25 36 16 4 6 38 11 9 17 21 25 24 23 23 1 38 33 
1 24 81 85 95 115 96 90 80 87 91 96 57 39 45 39 34 26 10 4 
25 16 1 8 13 32 24 22 22 0 35 23 2 18 39 20 23 51 95 85 
79 83 91 105 113 105 59 27 34 32 33 24 18 16 18 15 2 14 20 25 
24 0 34 32 43 53 38 24 27 23 48 77 84 84 85 113 124 133 36 29 
27 33 33 33 35 29 25 19 1 3 45 44 44 0 33 29 24 32 33 19 
26 21 42 87 91 82 74 113 128 102 27 29 26 26 26 30 24 32 27 20 
7 7 45 44 44 28 30 29 28 32 16 15 31 26 27 94 94 73 64 99 
82 28 17 21 37 18 22 21 16 19 26 20 0 6 42 43 43 5 20 27 
27 25 12 23 43 31 16 91 89 68 63 32 12 15 21 9 29 13 14 17 
9 11 19 16 46 11 32 41 41 17 20 31 23 21 12 29 52 34 15 84 
82 71 66 33 10 11 12 11 23 12 9 9 9 12 14 9 1 3 11 37 
