P2 
32 30
144
10 13 19 16 16 15 15 14 13 12 11 11 10 10 11 9 11 10 10 11 
11 13 13 14 14 15 16 16 16 16 16 16 17 1 15 17 17 16 15 15 
14 13 13 12 11 11 14 11 12 12 11 13 13 13 13 14 14 15 15 15 
15 15 15 15 15 3 15 17 16 16 16 15 14 14 13 12 12 12 14 11 
13 12 11 13 13 14 14 14 15 15 15 15 15 15 15 15 15 10 13 15 
16 16 16 15 14 14 13 12 8 6 6 4 8 11 12 14 14 14 14 15 
15 16 15 15 15 15 15 15 14 19 15 12 9 17 18 16 15 14 9 2 
0 1 1 1 1 3 5 11 14 15 15 15 15 15 15 15 15 15 15 15 
15 2 13 18 13 18 14 15 9 7 1 0 0 0 1 2 1 0 1 1 
10 15 15 15 16 16 15 16 15 15 15 15 15 1 6 1 8 2 3 3 
2 0 0 0 0 0 0 1 9 18 9 2 2 12 16 16 16 16 16 16 
16 16 16 15 16 8 9 4 8 1 4 5 5 1 1 0 2 0 1 1 
7 37 43 24 1 4 16 16 17 17 16 16 14 13 12 10 9 2 18 14 
12 11 15 21 4 1 1 1 1 1 0 2 6 44 51 44 13 1 11 13 
13 12 12 10 12 12 13 13 14 0 11 3 11 17 12 1 3 5 2 3 
2 2 1 1 7 46 57 46 27 0 8 13 15 11 7 14 16 16 15 15 
15 5 11 1 10 2 3 2 3 2 2 3 2 1 2 2 6 44 60 48 
35 2 7 4 2 1 3 14 16 16 16 15 15 5 13 10 15 2 8 15 
3 0 0 1 2 3 1 1 10 47 59 38 25 9 17 16 1 9 15 16 
16 16 16 15 15 5 13 5 15 12 16 15 1 0 0 0 1 2 1 1 
7 19 20 15 3 3 17 10 0 9 17 17 17 16 16 16 16 3 12 2 
15 18 16 1 1 0 0 2 8 1 1 7 42 59 34 3 1 3 8 4 
0 2 14 17 16 16 16 16 14 20 18 16 17 18 18 2 0 0 0 5 
13 7 4 28 57 63 45 4 5 22 4 3 0 2 13 17 16 9 15 15 
13 14 2 2 1 1 10 12 4 0 0 2 45 23 34 49 56 61 62 11 
20 48 7 8 16 25 25 14 10 1 13 15 14 15 0 0 0 0 8 10 
6 0 0 0 37 41 53 53 54 57 62 48 35 51 20 5 15 12 13 12 
4 0 10 15 15 15 1 0 0 0 7 6 7 3 1 0 21 55 49 52 
53 57 56 50 35 17 7 4 12 8 13 6 1 0 3 12 13 14 2 0 
0 0 5 10 12 7 0 1 16 43 43 52 54 56 55 39 38 18 5 12 
11 9 13 7 1 4 15 17 18 13 2 0 0 0 5 15 14 7 0 2 
27 48 45 50 55 56 52 35 33 14 4 10 11 10 13 7 0 0 8 15 
16 13 7 7 8 8 11 13 11 11 1 11 34 51 45 45 52 54 49 40 
36 7 15 22 6 6 12 7 0 2 4 15 14 7 8 10 17 3 3 4 
7 10 9 31 36 50 50 41 45 48 46 46 34 29 41 30 4 1 6 3 
0 0 1 11 16 2 4 10 13 6 2 1 5 10 19 36 36 47 51 43 
36 35 36 40 25 47 27 18 18 21 22 9 0 0 0 6 16 3 7 10 
10 20 9 1 22 49 35 39 35 45 52 43 35 21 36 37 22 18 12 26 
30 27 31 10 2 0 0 1 14 4 11 7 7 14 36 56 66 69 55 43 
41 42 51 39 33 27 48 52 53 51 41 32 22 15 20 1 1 0 0 1 
14 1 0 9 41 64 68 64 68 68 68 59 52 45 48 37 39 46 62 58 
56 61 63 60 52 14 3 2 1 0 0 2 14 0 24 61 46 33 61 64 
65 69 69 68 65 55 50 44 56 65 66 64 61 63 66 65 65 55 30 3 
2 0 0 2 13 20 63 66 65 52 60 61 62 69 68 68 68 65 64 62 
65 66 66 65 65 61 65 65 64 63 57 26 2 0 0 0 1 59 69 65 
64 56 66 69 68 68 68 68 68 68 66 66 66 66 65 64 65 63 64 64 
63 63 63 58 16 0 0 0 5 67 69 63 60 15 45 53 49 67 68 68 
68 68 67 67 67 67 67 64 65 65 63 65 64 63 64 63 53 7 0 0 
