P2 
32 30
144
10 14 34 33 32 30 29 27 25 24 23 21 20 20 24 18 22 20 19 22 
23 23 24 25 26 27 28 28 28 28 29 28 28 2 27 32 31 30 29 28 
26 25 24 22 20 21 26 19 23 22 20 24 25 24 25 26 27 28 28 28 
29 28 28 28 28 12 30 33 32 30 30 28 27 26 25 24 22 23 27 22 
24 23 21 25 26 26 27 27 28 29 29 29 29 29 29 28 28 16 20 24 
27 31 30 29 28 27 26 25 23 12 5 3 7 15 20 27 27 28 28 29 
30 30 30 30 30 29 29 29 28 34 32 31 19 32 35 33 30 28 32 19 
5 0 0 0 2 1 4 16 28 29 29 30 30 30 29 30 30 29 29 29 
28 2 20 25 23 30 21 22 10 14 11 1 1 0 3 9 16 9 2 3 
15 29 29 30 30 30 30 30 29 29 29 29 28 3 11 1 14 0 3 5 
4 5 3 1 1 1 1 13 64 73 54 9 5 23 30 31 31 31 31 31 
30 30 31 30 30 18 25 17 16 1 13 18 18 9 1 2 0 1 2 23 
97 109 102 61 7 10 31 31 32 32 30 26 24 22 19 18 16 1 30 17 
22 30 28 31 18 6 2 4 0 2 3 26 104 116 121 99 32 3 20 23 
22 22 21 22 25 26 27 27 27 0 20 6 19 24 20 1 12 3 2 3 
2 2 4 24 107 116 119 106 65 6 13 20 25 14 8 26 31 30 29 29 
29 12 23 6 21 2 4 6 9 1 1 1 4 3 4 33 115 114 104 100 
80 27 11 13 3 3 10 31 33 32 32 31 30 9 24 17 29 4 18 40 
27 5 0 2 2 1 3 36 80 67 40 20 54 24 7 23 1 20 32 33 
33 32 32 31 30 5 23 6 28 31 35 29 37 7 0 2 0 0 9 58 
59 25 1 0 5 2 0 10 1 15 33 33 32 31 31 30 29 13 24 6 
28 32 29 1 17 0 0 10 3 4 47 110 109 37 0 0 21 14 0 4 
0 2 27 33 31 31 31 30 27 34 31 29 28 28 30 4 11 0 0 55 
27 32 71 107 122 58 0 11 74 66 3 7 3 7 24 31 32 10 27 28 
26 26 0 0 0 0 17 28 28 32 9 46 86 86 82 91 115 111 51 48 
104 104 24 16 35 50 50 27 14 1 23 27 27 27 1 0 0 0 14 14 
17 29 10 6 109 102 82 87 104 114 114 81 93 71 29 7 26 19 24 20 
7 0 17 29 28 27 2 0 0 0 11 11 14 18 3 3 26 76 80 89 
107 109 96 100 108 70 19 11 23 15 25 13 5 2 5 24 28 26 3 0 
0 0 9 25 30 20 14 10 4 64 76 92 107 106 90 87 80 55 10 23 
22 19 25 14 0 8 31 32 34 24 3 0 0 0 8 25 20 18 23 18 
6 65 72 85 104 103 93 87 85 46 11 27 21 20 25 14 0 0 14 30 
30 23 18 18 20 19 21 23 20 19 20 20 17 65 78 74 92 97 94 97 
79 30 41 46 8 7 23 13 0 4 6 30 29 8 10 15 32 1 1 3 
11 19 19 18 24 65 89 74 69 79 88 98 74 82 82 50 8 2 7 4 
0 0 1 18 32 3 10 18 25 17 8 1 6 13 15 23 39 65 93 89 
69 56 53 57 58 83 39 45 53 61 62 24 2 0 0 9 30 4 13 20 
16 37 13 0 2 35 70 107 65 67 81 95 74 61 61 69 80 109 83 79 
60 41 48 14 4 0 0 1 27 6 15 9 9 5 16 63 111 122 125 130 
108 73 77 98 89 87 97 91 121 117 109 115 118 104 81 13 2 1 0 2 
27 1 0 0 29 82 92 89 126 123 128 134 133 121 91 96 97 102 112 128 
132 126 120 125 126 124 122 96 22 0 0 4 29 0 0 5 90 127 115 82 
123 114 125 135 135 133 125 122 121 129 129 130 131 130 126 126 128 127 125 120 
101 23 0 2 19 1 3 77 124 127 123 127 132 135 135 135 135 134 132 129 
128 130 131 130 130 127 128 125 127 126 124 123 121 101 18 0 1 2 46 121 
132 121 82 62 107 103 117 135 135 135 134 134 133 133 133 132 131 128 129 127 
128 128 123 125 126 122 86 2 9 2 105 130 133 114 82 40 135 103 111 135 
135 135 134 134 133 133 132 132 131 127 129 127 129 128 123 125 126 126 118 46 
