P2 
32 30
149
10 15 36 34 33 32 31 29 27 25 24 23 21 21 26 19 23 22 21 24 
25 25 26 27 28 28 30 30 30 30 31 30 30 2 29 34 33 32 31 29 
28 27 25 23 22 22 28 21 24 23 22 26 27 27 28 28 28 30 30 30 
31 31 30 30 30 13 32 34 33 32 31 30 28 27 26 25 24 24 29 23 
25 24 23 27 27 28 29 29 30 31 31 31 31 31 30 30 30 18 21 25 
28 33 32 30 30 28 27 26 25 24 18 9 10 15 20 28 28 29 30 30 
31 31 32 31 31 30 30 30 29 36 34 32 20 34 37 35 32 29 34 30 
18 5 1 1 2 3 7 15 27 30 31 31 32 32 31 31 31 31 31 30 
30 3 22 26 24 32 22 24 11 15 13 7 3 1 2 5 6 1 2 3 
5 26 32 32 32 33 32 32 32 32 32 31 31 3 12 2 16 0 3 6 
5 5 9 3 0 2 1 2 10 21 14 2 2 5 30 33 33 34 33 33 
33 33 33 32 32 18 26 18 17 1 13 19 19 12 20 3 0 1 2 2 
4 39 72 55 18 3 16 33 34 34 32 28 26 23 21 19 17 1 32 18 
24 32 30 33 19 6 8 2 6 1 2 2 6 69 114 111 76 12 5 24 
25 25 23 25 28 29 29 30 29 0 22 6 21 26 21 1 13 3 3 4 
2 4 3 2 12 76 119 127 111 48 1 16 27 16 10 29 33 33 32 32 
31 13 25 7 22 2 4 6 10 5 0 1 2 5 2 3 11 76 116 123 
112 75 6 5 3 3 11 32 34 34 33 32 31 10 25 18 31 4 19 41 
29 17 0 0 0 2 3 3 13 82 115 121 110 83 26 13 1 21 34 35 
35 33 33 33 32 6 25 7 31 33 37 30 40 30 0 0 0 1 1 3 
26 104 113 93 62 70 37 3 1 16 35 35 35 34 33 33 31 14 26 7 
30 34 32 1 19 3 4 0 8 0 0 2 34 39 31 22 6 15 12 0 
0 3 29 36 34 34 34 33 29 36 33 31 29 29 31 4 11 1 11 0 
18 2 3 35 103 109 42 5 0 2 4 0 3 7 26 33 33 11 29 30 
27 27 0 0 0 0 18 29 29 33 24 0 72 29 39 73 110 124 65 3 
1 41 46 7 38 53 52 29 15 1 25 29 29 29 1 0 0 0 15 15 
18 30 15 4 54 92 90 87 96 120 94 8 18 89 95 7 28 21 26 22 
7 0 18 31 30 29 2 0 0 0 12 12 15 19 3 15 10 113 98 86 
92 107 118 99 71 112 104 21 24 17 26 14 5 2 6 26 30 28 3 0 
0 0 10 26 32 22 15 20 1 41 71 85 93 107 109 99 87 86 44 26 
24 20 27 15 0 9 33 34 36 26 4 0 0 0 9 27 22 21 25 23 
5 34 74 83 97 106 103 82 102 88 37 29 24 22 28 16 0 1 15 33 
33 24 19 20 22 21 23 24 21 20 22 21 15 44 77 76 92 104 99 80 
77 72 50 49 10 9 25 15 0 4 7 32 32 8 11 16 33 1 2 3 
11 20 20 20 19 54 78 74 81 95 94 87 85 73 86 52 8 3 8 4 
0 0 1 20 33 4 11 19 26 18 8 1 6 14 16 15 30 63 77 78 
67 71 80 91 92 65 41 47 55 63 64 25 2 0 0 10 32 5 14 21 
18 40 14 0 0 15 46 84 75 68 72 92 65 53 52 61 67 106 84 76 
54 43 50 16 5 0 0 1 29 7 16 9 10 6 5 45 90 125 127 128 
106 71 72 96 82 49 42 74 98 113 106 110 102 86 73 7 2 1 0 2 
29 1 0 0 26 65 97 93 125 127 128 136 136 116 83 89 89 86 99 118 
135 129 122 126 127 125 126 97 25 1 0 4 30 0 0 1 68 129 122 84 
120 122 124 139 139 136 128 109 107 120 131 134 134 135 132 132 133 131 132 126 
112 28 0 2 21 2 3 52 123 133 132 130 132 135 139 139 139 138 136 128 
130 132 135 135 135 134 134 130 133 132 129 130 129 111 26 0 1 2 24 118 
136 127 102 63 113 113 120 139 139 138 138 137 136 136 136 136 135 135 134 131 
133 134 126 131 132 128 106 9 11 0 77 133 135 120 98 34 131 108 111 139 
138 138 137 137 137 136 136 136 135 133 134 133 133 133 124 131 132 131 126 71 
