P2 
32 30
146
10 15 35 33 32 31 29 27 26 25 23 22 20 20 25 18 22 20 18 22 
22 23 24 25 26 27 28 29 29 29 29 29 29 2 28 33 32 31 30 28 
27 26 24 23 21 22 27 20 23 22 20 24 24 25 26 26 27 28 29 29 
29 29 29 29 29 13 31 33 32 31 31 29 28 27 26 24 23 23 28 22 
25 23 22 25 26 26 27 28 29 30 30 30 30 30 30 29 29 17 20 25 
28 32 31 30 29 28 27 26 25 25 25 16 17 22 23 27 27 28 29 29 
30 30 30 30 30 30 29 30 29 34 33 31 19 32 35 33 30 28 32 29 
18 7 0 0 0 1 10 25 28 28 28 29 29 29 29 29 29 29 29 28 
28 2 20 25 23 31 20 22 10 14 12 3 0 0 0 0 0 0 0 5 
27 29 29 30 30 30 30 30 30 30 30 29 28 3 11 2 15 0 3 5 
4 1 3 0 0 0 0 0 0 2 1 0 10 30 31 31 31 32 32 32 
31 31 31 30 30 18 25 17 17 1 13 18 10 0 0 0 0 0 0 1 
3 1 1 0 1 27 32 32 32 32 31 27 24 22 20 18 16 1 31 18 
23 31 28 28 3 0 0 0 0 0 2 4 5 4 2 4 5 15 23 24 
24 24 22 23 26 27 28 28 28 0 21 6 20 26 20 1 5 0 0 0 
0 1 3 7 7 2 0 3 3 8 22 21 26 15 9 28 32 32 31 31 
31 12 24 6 21 2 4 6 7 0 0 0 0 0 2 5 4 0 0 2 
3 1 12 14 3 3 11 31 33 32 32 32 31 9 24 18 30 4 19 39 
24 12 11 1 0 2 5 5 5 0 0 2 3 1 13 30 1 20 32 33 
33 32 32 31 30 5 23 6 29 31 36 29 36 31 25 38 62 56 25 4 
3 2 2 2 3 1 10 17 0 15 33 33 33 32 31 31 30 13 25 7 
29 33 30 1 18 14 51 48 93 117 100 31 2 7 34 18 1 0 2 4 
0 3 27 34 32 32 32 31 28 36 33 31 29 29 31 4 11 1 81 49 
87 122 125 110 37 37 71 20 0 0 4 7 3 7 25 32 33 11 29 29 
27 27 0 0 0 0 18 29 29 49 112 65 104 127 125 119 111 86 96 11 
0 0 6 16 36 51 51 28 14 1 24 28 28 28 1 0 0 0 15 14 
18 75 112 77 107 117 115 117 112 106 96 13 0 0 9 7 27 19 25 20 
7 0 17 30 28 28 2 0 0 0 12 11 15 69 91 72 104 115 116 119 
114 89 82 28 0 2 12 10 23 15 25 13 4 2 6 25 29 26 3 0 
0 0 10 25 31 21 62 81 98 114 118 121 110 92 89 43 3 5 9 23 
22 18 25 14 0 8 32 33 34 25 4 0 0 0 8 25 21 19 48 67 
93 109 115 112 98 88 101 65 19 13 10 26 21 20 25 14 0 0 14 31 
30 23 18 19 21 20 22 24 21 19 34 72 78 99 106 98 85 100 106 82 
64 11 42 47 9 7 23 14 0 4 7 31 30 9 11 16 33 1 2 3 
11 20 21 57 94 92 89 82 93 107 104 82 81 78 84 52 8 3 8 4 
0 0 1 20 33 4 10 19 26 17 8 1 7 14 16 35 77 69 68 79 
96 106 104 81 87 67 72 53 54 62 63 24 2 0 0 10 31 4 13 20 
16 38 13 0 0 8 27 48 77 75 37 64 85 101 104 85 99 84 122 124 
106 76 51 15 4 0 0 1 27 6 14 9 9 5 1 7 36 62 84 93 
101 107 74 76 77 96 101 92 111 124 131 122 120 127 112 67 20 1 0 2 
27 1 0 0 24 30 52 110 71 82 125 117 130 131 121 110 103 95 105 111 
131 132 131 128 128 128 124 122 113 53 1 4 29 0 0 0 5 71 123 126 
123 120 125 125 133 133 134 131 132 129 127 131 132 132 131 130 127 128 127 126 
122 118 53 2 21 1 2 1 44 126 127 118 74 127 128 120 136 136 136 135 
134 132 132 133 132 132 131 130 127 129 128 125 126 125 114 35 2 1 5 12 
112 131 128 112 30 105 94 112 137 136 135 135 134 134 134 133 133 132 131 131 
129 129 129 123 126 127 124 103 18 0 1 66 129 133 129 100 27 120 101 114 
136 135 135 135 135 134 134 133 132 132 131 130 130 128 129 122 126 127 126 120 
