P2 
32 30
141
10 13 32 31 30 29 27 26 24 23 21 20 19 19 23 17 20 19 17 21 
21 21 23 24 24 25 26 27 27 27 27 27 27 1 26 31 30 29 28 26 
25 24 23 21 20 21 25 19 22 21 19 23 23 23 24 25 25 27 27 27 
27 27 27 27 27 12 29 31 30 29 28 27 26 25 24 23 22 22 27 21 
24 22 21 24 25 25 26 26 27 27 28 28 28 28 28 27 27 15 18 22 
25 29 29 28 27 25 25 24 23 23 28 24 24 23 22 25 26 27 27 27 
28 28 28 28 28 27 27 27 26 32 30 29 17 30 33 31 28 26 31 27 
22 20 24 22 23 24 23 26 27 27 27 27 27 28 28 27 27 27 27 26 
26 2 19 24 22 29 20 21 10 13 11 13 13 0 0 7 18 25 25 27 
28 28 28 29 29 29 29 29 28 28 28 28 27 2 11 1 14 0 3 5 
4 5 8 9 5 4 22 15 3 7 23 29 29 29 30 30 30 31 30 30 
30 30 30 29 29 17 24 16 16 1 12 18 17 11 26 22 11 55 74 75 
48 16 5 27 30 30 30 30 31 31 29 25 23 21 19 17 15 1 29 17 
21 30 27 31 17 5 6 5 32 61 90 96 92 57 45 8 26 24 22 23 
23 22 20 22 25 26 26 27 26 0 19 6 19 24 20 1 12 3 1 5 
63 49 60 89 73 61 67 16 15 25 21 20 25 14 8 27 30 30 29 29 
28 11 22 6 20 2 4 5 9 4 0 12 67 77 75 68 74 76 92 58 
4 18 17 13 3 2 10 29 31 30 30 29 29 8 22 16 27 3 17 38 
25 16 0 18 81 105 86 82 80 86 108 89 10 23 31 27 1 18 29 30 
30 29 29 28 27 5 21 5 27 30 33 26 36 28 0 23 90 110 81 87 
88 74 100 93 23 13 31 15 0 13 30 30 30 29 28 28 27 12 23 6 
26 31 28 1 17 2 1 20 84 105 84 102 99 93 102 91 39 5 8 3 
0 2 25 31 30 29 29 28 25 33 30 28 27 26 29 3 10 1 3 17 
78 106 100 92 93 92 94 92 61 33 5 6 3 6 23 30 30 9 26 27 
24 25 0 0 0 0 16 27 27 30 18 41 70 97 91 95 99 89 75 82 
60 30 6 15 34 49 49 26 13 1 22 27 27 27 1 0 0 0 14 13 
16 28 15 74 60 80 75 73 80 71 63 65 16 0 9 7 26 19 24 19 
7 0 16 28 27 27 2 0 0 0 11 11 14 17 2 19 11 55 57 68 
84 76 69 66 6 0 11 10 22 14 24 12 4 1 5 24 27 25 3 0 
0 0 9 24 29 19 13 13 1 52 64 73 94 92 82 83 18 4 9 22 
21 18 24 13 0 7 30 31 32 22 3 0 0 0 8 24 20 18 23 21 
10 57 76 84 111 105 88 85 40 17 10 25 20 19 24 13 0 0 13 29 
28 22 17 17 19 19 21 22 19 18 20 19 17 51 85 83 109 102 92 93 
66 11 40 45 8 7 21 12 0 4 6 29 28 8 9 14 31 1 1 3 
10 18 18 18 18 48 94 90 99 109 101 105 69 78 80 49 7 2 7 3 
0 0 1 18 30 2 9 17 23 16 7 1 6 12 14 14 15 40 99 90 
106 113 104 111 75 76 41 44 52 59 60 22 1 0 0 9 28 3 11 19 
15 36 12 0 0 7 21 35 75 70 95 91 103 114 108 112 90 82 96 64 
51 38 46 13 3 0 0 1 25 5 13 8 9 4 1 9 40 90 113 114 
126 115 101 100 103 115 114 112 115 126 119 108 113 95 72 13 1 0 0 2 
25 0 0 0 22 33 69 89 57 120 117 119 130 130 128 123 123 125 125 124 
128 127 125 120 122 122 117 113 58 3 0 3 26 0 0 0 15 99 128 119 
115 123 123 130 131 131 131 129 129 127 127 128 128 128 127 124 124 125 122 123 
118 75 2 2 18 1 2 4 90 125 129 87 91 126 109 126 133 132 132 131 
131 130 130 129 129 129 127 127 123 126 123 125 123 119 63 0 1 1 5 56 
121 129 130 68 54 111 89 125 133 133 132 132 132 131 131 130 130 129 127 128 
124 127 122 124 124 124 116 37 10 0 8 114 128 129 129 63 49 126 93 123 
132 132 132 131 131 131 130 130 129 128 127 127 125 125 123 121 124 125 123 98 
