P2 
32 30
141
10 13 33 31 30 29 27 26 24 23 21 20 18 18 23 17 20 19 18 21 
22 23 23 24 25 26 26 27 27 27 27 27 27 1 26 31 30 29 28 26 
25 24 22 20 19 20 24 18 22 21 19 23 24 24 25 25 26 27 27 27 
28 27 27 27 27 11 28 31 30 28 28 27 25 24 23 22 20 21 26 20 
22 19 18 24 25 25 26 26 27 27 28 28 27 27 27 27 27 14 18 22 
25 29 28 27 26 25 24 23 22 22 21 12 3 3 5 9 16 24 27 28 
28 28 28 28 28 27 27 27 26 33 32 30 18 31 34 32 29 27 31 28 
24 11 0 0 0 2 1 1 2 6 23 30 29 29 29 29 29 29 29 28 
28 2 20 24 23 30 20 21 10 14 11 14 16 0 0 1 0 3 12 17 
9 2 5 26 30 30 30 30 29 29 29 29 29 2 10 1 14 0 3 5 
4 4 7 12 4 0 2 2 1 2 11 64 71 40 3 10 31 31 31 31 
31 30 30 29 29 17 24 16 15 0 12 17 17 10 27 23 1 4 2 2 
2 1 18 94 105 94 39 1 21 31 30 26 24 21 19 17 15 1 29 17 
21 29 27 30 17 5 7 11 4 3 4 2 3 4 25 103 115 103 80 11 
6 22 21 22 26 26 27 27 27 0 19 5 18 23 19 1 12 3 1 10 
3 3 5 3 2 3 23 107 118 106 87 32 3 14 8 26 30 30 29 29 
28 11 22 5 19 2 3 5 8 5 1 6 1 0 4 5 3 4 42 111 
112 89 83 51 1 2 10 30 31 31 30 30 29 8 22 16 28 3 17 38 
26 19 14 6 0 1 5 2 1 12 71 111 96 65 45 48 2 19 31 32 
32 31 30 30 28 5 22 6 27 29 34 27 36 31 30 8 0 18 6 2 
4 31 99 110 88 53 53 44 4 14 32 32 32 30 30 29 28 12 23 5 
26 30 28 1 16 2 15 2 0 25 45 13 13 91 117 117 93 60 89 55 
0 2 26 32 30 30 30 29 26 33 29 28 27 26 28 3 10 1 16 2 
0 21 83 59 74 98 114 121 108 78 105 89 4 7 24 30 31 10 27 27 
25 25 0 0 0 0 17 27 27 31 32 34 4 1 97 94 91 93 102 119 
124 94 98 108 47 50 49 27 14 1 23 27 27 27 1 0 0 0 14 13 
16 28 15 31 16 0 45 104 88 90 103 113 115 85 83 80 40 20 25 20 
7 0 17 29 28 26 2 0 0 0 11 11 14 17 2 24 22 0 23 65 
84 94 105 112 100 81 95 58 23 15 25 13 4 1 5 24 28 25 3 0 
0 0 9 24 29 20 14 21 23 0 32 71 79 95 108 107 91 74 76 46 
22 19 26 14 0 8 31 32 33 24 3 0 0 0 8 24 20 19 23 22 
23 3 49 79 73 86 103 102 88 89 81 39 22 21 26 14 0 0 14 30 
30 22 17 17 19 18 20 22 19 18 19 19 19 17 60 83 79 75 91 95 
92 92 67 45 8 7 22 13 0 4 6 29 29 7 9 13 30 1 1 2 
9 17 17 17 17 25 64 80 90 74 71 77 88 95 62 49 7 2 7 3 
0 0 1 17 30 2 9 17 24 16 7 1 6 12 14 15 41 50 68 79 
99 80 66 60 56 56 35 44 52 59 61 23 2 0 0 9 29 3 11 19 
15 36 12 0 1 34 75 106 125 76 72 71 98 83 67 50 52 81 93 71 
55 39 46 14 4 0 0 1 25 5 13 8 9 5 7 52 104 129 121 125 
130 115 85 78 93 90 82 89 81 113 110 104 110 91 71 9 1 0 0 2 
25 0 0 0 23 55 110 76 70 121 122 129 133 131 123 98 92 93 98 106 
125 127 120 117 123 124 116 103 38 0 0 4 27 0 0 0 48 117 131 122 
108 124 111 131 133 132 131 125 121 120 127 128 127 127 126 122 125 123 122 120 
111 44 0 2 19 1 2 25 116 125 129 94 115 134 127 131 133 132 132 130 
128 125 128 128 128 128 126 123 123 125 122 123 120 109 34 0 1 1 5 90 
126 128 127 53 67 102 89 127 133 132 132 131 131 131 130 129 128 128 126 126 
124 125 122 123 123 121 102 13 9 0 31 125 130 128 124 49 66 123 92 126 
133 132 132 131 131 131 130 130 128 128 126 126 124 125 123 121 124 124 120 68 
