P2 
32 30
143
10 34 34 32 31 29 27 26 24 22 20 19 18 16 20 17 19 18 16 13 
18 19 19 20 21 21 23 24 24 25 25 26 26 35 33 32 31 29 28 26 
25 23 21 20 19 18 22 19 18 20 18 17 20 21 21 22 22 22 23 24 
25 26 26 26 26 36 33 32 31 30 28 27 25 24 23 21 20 19 23 21 
21 22 20 19 22 22 22 22 24 24 25 26 27 27 27 27 27 30 33 32 
31 30 29 27 26 25 24 23 22 21 25 23 23 23 22 20 24 24 24 24 
25 26 26 27 27 27 28 28 27 32 33 33 32 31 30 29 27 26 25 24 
23 23 27 25 23 18 17 19 25 26 26 26 27 27 28 29 29 29 29 28 
28 25 30 32 32 31 30 29 28 27 26 25 24 24 27 26 24 22 20 17 
17 20 27 27 27 28 29 29 29 29 29 28 28 23 19 12 30 31 31 29 
28 28 29 26 25 24 15 17 21 32 27 17 18 11 17 28 28 29 29 29 
29 28 28 28 27 35 42 26 33 35 35 35 30 30 29 28 26 16 3 16 
25 40 76 69 31 14 9 24 28 29 29 29 29 29 28 28 28 13 5 18 
15 24 2 14 1 7 11 10 27 5 2 4 30 80 118 117 105 72 35 21 
29 30 30 30 29 29 29 28 28 12 2 16 1 3 0 12 2 6 9 9 
25 0 0 15 51 91 119 123 120 104 79 33 30 30 31 30 30 29 29 29 
29 33 27 22 1 6 22 27 13 12 31 33 20 0 0 17 53 98 122 125 
123 110 87 42 31 31 31 31 29 27 23 20 17 24 11 22 35 33 26 35 
12 8 10 27 21 0 0 11 61 112 124 121 121 114 93 43 27 25 23 22 
21 21 24 25 26 17 6 20 24 35 1 13 4 3 1 26 16 63 55 16 
75 120 112 83 63 74 67 22 29 30 31 21 11 30 30 30 30 17 2 20 
4 5 3 12 0 8 1 27 10 107 92 67 105 126 107 73 43 109 53 24 
33 33 33 30 13 30 30 30 29 24 18 31 7 5 32 34 9 10 4 20 
6 74 109 98 113 126 126 111 101 116 80 34 32 33 32 31 28 31 30 30 
29 21 9 28 17 14 36 36 37 35 35 34 22 32 125 101 112 125 129 124 
98 108 107 40 32 32 32 31 31 30 27 29 28 20 3 27 30 35 18 15 
27 18 19 18 18 13 83 92 111 122 126 121 101 100 68 38 25 31 23 20 
31 27 21 21 15 27 19 26 27 28 11 3 12 5 14 7 5 7 86 87 
109 118 121 115 91 86 54 19 2 26 13 8 32 15 11 5 4 13 11 9 
9 15 8 3 14 8 21 15 8 9 90 91 103 115 117 116 117 97 51 7 
2 25 16 8 25 26 30 9 10 0 0 0 0 10 22 25 30 35 32 37 
29 22 96 103 86 102 111 117 119 107 48 3 3 23 14 5 28 31 8 0 
7 0 0 0 0 8 9 2 23 26 13 31 29 55 97 111 88 84 94 100 
108 91 48 2 1 19 22 17 21 21 7 0 2 0 0 0 0 7 7 0 
22 11 0 23 33 65 98 110 104 85 71 69 56 39 29 11 5 25 28 14 
18 1 2 0 0 0 0 0 0 6 12 13 27 16 9 21 39 49 86 113 
116 102 80 59 35 27 27 21 14 28 27 6 0 0 1 0 11 0 0 0 
0 5 15 15 21 11 32 45 49 32 38 90 123 121 116 54 17 21 35 45 
64 50 31 5 0 0 0 0 4 6 5 6 6 9 11 8 19 54 51 36 
43 48 28 71 130 134 100 25 44 42 45 36 64 92 50 31 7 0 0 2 
1 19 15 11 8 9 14 30 74 91 58 39 45 92 49 35 95 133 53 53 
97 64 44 42 48 90 69 37 24 8 0 3 0 13 35 30 16 15 35 46 
84 98 63 36 56 120 115 76 59 70 60 107 134 92 71 60 64 118 119 60 
41 46 11 0 0 17 15 19 19 48 35 40 113 119 85 62 77 121 135 93 
77 50 79 111 134 96 75 62 65 124 129 68 58 88 64 0 0 19 19 23 
67 69 61 54 116 126 85 63 81 117 135 97 77 57 80 113 133 100 74 64 
67 120 128 69 63 100 108 6 0 32 31 56 90 71 70 64 115 129 79 62 
73 107 125 89 68 48 68 98 117 88 60 43 55 102 117 69 57 90 79 18 
