P2 
32 30
144
10 34 33 32 31 29 27 25 23 21 20 19 17 16 20 17 18 17 15 12 
17 18 18 19 20 21 22 23 23 24 25 25 26 35 33 32 31 29 28 26 
25 23 22 20 19 18 22 19 18 19 18 17 20 20 20 21 21 22 23 24 
25 26 26 26 26 36 34 33 31 30 29 28 26 25 23 22 21 20 24 22 
22 22 20 19 22 22 22 23 24 24 25 26 26 27 27 27 27 31 33 33 
32 30 29 28 27 26 25 23 22 21 25 24 23 24 22 20 24 24 24 24 
25 26 26 27 27 27 28 28 27 32 33 33 32 31 30 29 28 27 25 24 
24 23 27 24 19 20 20 20 25 26 26 26 27 27 27 28 28 29 28 28 
27 26 31 33 32 32 31 30 29 28 27 26 25 25 24 20 27 20 17 16 
12 27 27 28 28 29 29 30 30 29 29 29 28 24 19 13 32 32 32 30 
29 28 30 26 26 16 7 19 40 55 36 19 12 15 28 29 29 29 30 30 
29 29 29 29 28 34 41 26 32 34 35 35 29 30 28 28 22 3 8 38 
102 112 107 87 58 18 24 28 28 28 28 28 28 28 28 27 27 13 5 18 
15 24 3 14 1 7 11 10 12 0 20 67 107 118 122 112 99 61 27 29 
29 30 30 30 29 29 28 28 28 12 2 17 1 3 0 12 2 6 9 9 
5 2 31 74 111 123 126 119 104 80 32 30 30 31 31 31 30 30 29 29 
29 33 27 22 1 6 22 27 14 13 32 33 2 1 24 80 114 118 103 117 
107 85 35 31 31 31 31 31 30 27 23 21 18 24 12 21 34 33 26 34 
11 7 10 26 6 3 25 96 114 92 87 69 88 49 25 28 26 24 23 21 
20 20 23 24 25 17 6 19 24 35 1 13 4 3 1 27 84 64 38 110 
120 91 58 83 113 39 22 26 29 30 30 20 11 30 30 30 29 17 3 20 
4 5 3 12 0 8 1 25 98 95 87 114 125 120 104 109 108 69 49 32 
32 33 32 29 13 30 30 29 29 24 18 31 7 5 32 34 9 9 3 18 
54 114 93 110 120 126 112 97 95 81 55 32 32 32 32 30 28 30 30 29 
29 21 9 28 17 14 36 36 38 35 35 32 19 96 91 108 114 118 93 110 
97 51 47 32 32 32 32 31 31 31 27 29 28 20 3 26 30 36 19 16 
27 18 19 17 14 49 82 105 112 106 90 94 80 48 51 29 25 31 23 20 
32 27 21 21 15 26 18 26 26 29 11 4 12 5 14 6 5 36 82 99 
111 110 116 118 91 53 29 6 2 26 13 8 32 15 11 5 3 13 11 9 
9 14 9 3 14 9 21 14 8 31 95 89 104 111 120 121 110 61 24 3 
2 25 15 7 24 26 29 8 8 0 0 0 0 10 22 27 31 35 32 37 
30 37 106 93 93 102 107 109 95 64 24 2 2 23 14 4 28 30 8 0 
6 0 0 0 0 9 9 2 25 27 13 31 27 58 106 104 91 91 91 78 
54 33 25 1 1 19 22 17 20 20 7 0 1 0 0 0 0 7 7 0 
24 12 0 23 30 66 104 112 103 86 60 48 41 25 27 10 5 24 28 14 
18 1 2 0 0 0 0 0 0 5 12 13 29 16 9 20 36 49 90 119 
118 106 103 98 45 26 33 26 13 27 26 5 0 0 0 0 10 0 0 0 
0 5 16 17 24 13 33 44 48 32 40 99 128 127 121 58 18 22 37 47 
65 53 34 5 0 0 0 0 3 5 5 5 6 9 12 10 21 53 50 37 
43 47 28 75 133 136 108 26 45 43 46 39 61 94 54 34 10 0 0 2 
1 18 14 10 8 9 13 30 71 91 61 39 45 92 48 35 97 135 58 52 
99 68 45 41 45 91 75 36 26 10 0 3 0 12 33 29 15 13 34 46 
79 96 65 36 56 119 113 76 58 74 57 105 134 96 72 59 61 119 120 62 
45 47 15 0 0 16 15 19 18 48 37 39 110 119 87 62 78 121 136 94 
77 50 80 109 134 100 76 62 66 123 130 71 62 91 72 1 0 19 19 23 
66 70 63 54 115 125 87 64 82 117 135 99 77 56 82 112 134 104 74 63 
69 117 129 73 66 98 109 13 0 32 32 56 90 74 69 64 112 128 80 63 
74 106 125 91 68 48 70 95 117 92 60 43 56 97 117 70 60 88 75 26 
