P2 
32 30
149
10 37 36 35 33 31 29 27 26 24 22 20 19 19 22 19 20 19 16 14 
18 19 20 21 21 22 24 25 25 26 27 27 28 37 35 34 33 31 30 28 
26 24 23 22 20 20 24 21 20 21 18 17 20 21 22 22 23 24 25 26 
27 28 28 28 28 37 35 34 33 32 30 29 27 26 24 23 22 21 25 23 
22 22 21 20 22 23 23 23 24 25 26 27 28 28 29 28 28 32 35 34 
33 32 30 29 28 27 25 24 23 22 26 24 24 24 23 21 24 25 25 25 
26 26 27 27 28 28 28 29 28 33 34 34 33 32 31 30 28 27 26 25 
24 23 27 26 25 25 23 22 25 26 26 26 27 27 27 29 29 29 29 28 
28 27 32 35 34 33 32 31 30 29 28 27 26 26 24 13 22 19 23 24 
28 28 28 29 29 30 31 31 31 31 30 30 30 26 21 15 34 34 34 32 
31 30 32 28 27 26 22 68 84 69 27 23 29 29 30 30 31 31 31 31 
31 31 30 30 30 37 45 28 35 37 38 37 32 32 31 31 28 25 84 108 
112 97 66 22 30 30 30 30 31 31 31 31 30 31 30 30 29 14 6 21 
16 26 3 16 1 7 12 11 28 46 72 85 106 95 75 43 26 31 31 31 
31 32 32 32 31 31 31 31 31 13 2 18 1 4 0 13 2 7 9 10 
23 65 68 85 100 77 61 59 24 32 31 32 32 33 33 33 32 32 32 31 
32 36 29 24 1 7 23 28 15 13 33 35 23 85 100 105 94 84 93 81 
33 32 32 32 32 32 33 33 31 28 25 22 19 25 12 23 36 35 27 36 
12 8 10 26 26 94 120 96 95 87 101 94 44 27 29 29 27 25 23 22 
21 21 24 25 27 18 7 21 25 37 1 13 4 3 1 26 29 100 116 105 
109 99 99 98 54 14 25 27 29 31 31 21 11 31 31 31 31 19 3 21 
4 6 3 12 0 9 2 28 46 98 109 106 120 104 87 91 53 36 34 34 
34 34 34 31 14 31 32 31 31 26 20 33 7 6 33 36 9 10 4 30 
74 98 103 97 108 94 74 77 48 51 33 33 34 34 34 31 29 32 32 31 
30 22 10 30 18 14 37 38 39 36 36 34 74 88 87 86 98 87 64 61 
33 34 32 33 33 33 33 32 32 32 28 30 29 21 4 28 32 38 20 16 
28 19 21 17 16 62 75 81 97 85 61 54 25 29 31 30 27 33 24 21 
33 29 22 22 15 29 21 28 29 30 12 4 13 6 15 7 6 53 76 85 
98 89 71 64 40 22 23 7 3 27 14 9 34 16 12 5 3 14 12 10 
10 16 9 4 16 9 22 15 8 80 100 101 112 106 85 93 59 29 25 4 
3 27 17 9 27 27 29 8 8 0 0 0 0 11 25 30 34 37 35 39 
30 89 112 108 119 113 96 105 72 31 25 2 3 25 16 6 29 31 8 0 
6 0 0 0 0 10 11 2 28 30 14 34 32 91 120 117 125 121 113 114 
86 35 27 3 3 21 24 19 22 22 7 0 2 0 0 0 0 7 8 0 
27 13 0 25 35 62 118 129 134 129 123 115 55 33 29 12 6 27 30 15 
19 1 2 0 0 0 0 0 0 6 13 13 30 18 10 22 37 38 63 110 
136 131 123 58 30 27 46 29 15 28 28 6 0 0 1 0 10 0 0 0 
0 5 16 16 24 13 32 45 50 32 35 62 118 134 86 18 28 35 43 46 
60 56 36 5 0 0 0 0 3 6 6 6 6 10 12 9 21 54 57 39 
49 75 34 34 115 140 51 31 57 65 44 42 54 103 68 36 11 0 0 2 
1 22 17 12 8 11 14 31 66 95 70 37 46 96 83 43 50 104 45 72 
118 90 51 41 45 99 89 39 30 14 0 3 0 14 37 32 17 14 37 49 
76 101 82 44 71 115 132 91 71 57 76 104 138 112 78 62 65 122 127 74 
55 42 20 0 0 18 16 21 17 56 46 39 101 124 96 70 82 118 140 102 
82 58 88 109 138 113 78 65 73 120 135 81 70 87 76 6 0 21 21 24 
65 82 67 62 105 130 97 70 86 114 140 109 78 61 87 107 134 113 75 65 
76 114 134 83 72 93 112 30 0 35 34 45 98 85 70 68 104 134 84 60 
74 101 128 99 65 47 67 86 116 98 55 40 54 90 119 81 64 82 85 43 
