P2 
32 30
156
10 40 38 37 36 34 32 30 28 26 24 23 21 20 24 21 22 21 18 16 
20 21 22 23 24 25 26 27 28 29 30 30 30 40 38 37 35 34 32 30 
28 27 26 24 23 22 26 23 22 23 21 19 23 23 24 25 25 26 27 28 
29 30 30 30 30 40 38 37 35 34 33 31 29 28 27 25 24 24 27 25 
24 24 23 21 24 25 25 25 26 27 28 29 30 30 31 30 31 34 38 37 
36 35 34 32 31 29 28 27 26 25 29 27 26 26 25 23 27 27 27 28 
28 29 30 30 31 31 31 32 31 36 38 37 36 35 34 33 32 30 29 28 
27 26 30 27 27 27 25 24 28 29 29 29 30 30 30 32 32 32 32 32 
31 29 34 36 36 35 34 33 32 31 30 29 27 27 17 8 9 4 18 25 
29 29 29 30 30 31 32 33 33 32 32 31 31 28 22 15 35 36 36 34 
33 32 33 30 29 13 3 13 15 9 7 15 30 31 31 32 32 33 33 33 
33 32 32 32 31 40 47 30 38 39 39 39 34 34 33 32 20 34 66 57 
61 64 51 12 26 31 32 32 32 33 33 32 32 33 32 32 31 15 6 22 
17 27 3 18 1 8 13 11 15 84 115 126 126 118 96 55 14 32 32 32 
33 33 33 33 32 32 32 32 32 14 2 19 2 4 0 14 3 8 10 1 
24 95 124 136 133 125 105 71 14 32 33 33 33 34 34 34 33 33 33 32 
33 38 32 26 2 8 26 31 17 16 36 15 30 104 127 140 139 130 109 77 
14 26 35 35 35 35 36 35 33 31 27 24 22 27 13 25 39 37 30 39 
14 9 12 11 19 72 60 74 115 52 62 15 4 18 32 32 30 28 26 24 
24 24 27 28 29 20 7 23 28 40 1 14 5 4 1 19 17 16 15 5 
49 10 15 2 20 23 27 30 32 34 35 24 13 34 34 34 33 20 4 23 
5 6 4 13 0 10 2 52 45 1 0 9 104 18 0 3 39 53 36 36 
36 37 36 33 15 34 34 34 33 27 22 35 9 6 36 38 10 11 5 47 
77 46 33 71 113 68 54 49 50 49 34 36 36 36 36 34 31 34 34 33 
33 23 10 32 19 16 40 40 42 39 39 44 80 105 128 104 92 82 122 97 
49 43 33 35 35 36 36 34 34 34 31 33 31 23 4 30 34 40 21 18 
30 20 22 22 58 101 124 104 104 95 111 93 45 28 35 32 28 34 26 22 
35 30 23 23 17 29 20 29 30 33 13 5 13 6 16 8 31 93 120 88 
92 81 106 86 44 34 27 8 3 29 15 10 36 18 12 5 4 14 12 10 
10 17 11 4 17 10 24 17 16 78 110 120 123 116 99 66 36 36 27 4 
4 28 19 10 28 29 31 9 9 0 0 0 0 12 26 31 36 39 37 41 
35 56 85 109 123 112 71 43 39 37 27 3 4 26 17 6 31 33 9 0 
7 0 0 0 0 10 11 3 29 31 14 35 36 69 57 70 88 72 41 53 
49 35 28 3 2 22 25 19 23 22 8 0 2 0 0 0 0 8 9 0 
29 14 0 27 37 83 93 61 60 53 66 88 44 34 31 13 8 28 32 16 
20 1 2 0 0 0 0 0 0 7 15 15 34 21 12 25 39 56 91 121 
115 117 116 51 32 38 38 30 17 31 31 7 0 1 1 0 12 0 0 0 
0 6 18 20 28 15 35 45 46 37 39 104 137 132 76 22 36 34 41 46 
77 56 33 7 0 0 0 0 4 6 6 7 7 12 15 13 28 59 54 41 
53 57 30 87 144 139 32 46 83 45 36 47 86 97 51 41 13 0 0 2 
1 22 17 13 10 13 22 39 88 100 58 41 52 107 62 50 81 82 58 116 
130 70 63 53 72 104 71 48 28 18 0 3 0 14 36 32 17 22 33 48 
96 109 64 59 73 138 133 86 67 58 78 142 141 80 78 78 85 134 116 75 
47 84 17 0 0 19 16 21 33 68 46 55 133 133 78 74 78 143 143 85 
74 77 79 142 142 82 78 79 81 136 124 71 65 119 92 0 0 22 22 37 
91 77 56 79 142 135 80 75 80 144 144 84 68 72 68 135 133 75 74 66 
70 129 124 64 56 121 96 15 0 37 37 79 82 104 58 75 139 123 70 63 
64 127 119 61 52 49 42 108 105 50 46 42 38 100 100 43 35 101 73 45 
