P2 
32 30
149
10 37 36 35 34 32 29 28 26 24 23 21 20 19 22 19 20 18 16 13 
18 19 20 21 22 22 24 25 26 26 27 27 28 38 36 35 34 32 31 29 
27 26 24 23 22 21 24 21 20 21 19 18 21 22 22 23 23 24 25 26 
27 28 28 28 29 38 36 35 34 33 32 30 28 27 25 24 23 22 26 23 
23 23 21 20 23 24 24 24 25 26 27 28 28 29 29 29 29 33 36 35 
34 33 32 30 29 28 26 26 24 24 27 25 25 25 24 22 25 26 26 26 
27 27 28 29 29 30 30 30 29 35 36 35 35 34 33 31 30 29 28 27 
25 25 29 26 26 26 24 24 27 27 27 27 28 29 29 30 31 31 30 30 
30 28 33 35 35 34 33 32 31 30 29 28 25 18 10 4 7 13 21 24 
28 28 28 29 29 30 31 31 31 31 31 30 30 27 21 15 34 35 34 32 
32 31 32 20 7 14 17 13 7 2 2 16 29 29 30 30 31 31 32 32 
31 31 31 31 30 38 46 29 36 37 38 38 33 33 32 13 28 53 65 51 
22 16 6 2 25 30 31 31 31 31 32 31 31 31 31 30 30 15 6 21 
17 27 3 17 1 8 13 47 102 116 115 108 68 17 2 0 12 32 32 32 
32 32 32 32 32 32 31 31 31 14 3 20 2 4 0 14 3 8 13 98 
119 126 123 117 84 36 5 0 1 31 32 33 33 33 33 33 33 33 32 32 
33 36 30 25 2 7 24 29 15 14 44 109 123 131 126 117 94 30 4 0 
0 23 32 33 33 33 33 33 31 28 25 22 20 26 12 23 37 35 28 37 
13 8 28 101 85 38 25 33 48 23 2 1 0 18 30 30 28 26 24 22 
22 22 25 26 27 19 7 21 27 38 1 14 4 1 0 16 13 0 1 70 
118 92 29 62 58 15 25 28 30 31 32 21 12 32 32 32 31 19 3 21 
4 6 4 12 0 6 0 32 48 1 0 75 127 105 76 96 90 23 34 34 
34 34 34 31 14 32 32 31 31 26 20 33 7 6 34 36 10 12 1 87 
95 35 33 116 119 103 81 103 64 27 33 33 34 34 34 32 29 32 32 31 
31 23 10 32 19 16 39 40 41 38 42 95 100 117 133 130 115 101 85 108 
20 29 34 35 34 35 35 34 34 33 30 32 31 21 4 29 34 40 21 18 
30 20 38 89 117 125 133 127 113 101 78 52 11 26 34 31 27 33 25 22 
34 30 23 23 16 26 17 27 29 32 13 5 13 6 22 70 92 105 130 123 
113 98 71 64 12 28 26 7 3 28 14 9 34 16 12 5 4 12 10 9 
10 17 10 4 17 9 23 67 101 124 123 117 106 85 79 74 17 32 26 4 
2 27 17 9 27 27 28 8 9 0 0 0 0 12 25 31 34 38 36 65 
118 123 112 103 91 81 96 84 27 34 26 2 3 25 16 5 30 31 8 0 
6 0 0 0 0 10 11 3 29 30 14 46 89 93 93 91 85 89 104 90 
56 33 27 2 2 21 24 18 21 21 7 0 2 0 0 0 0 8 8 0 
27 13 0 26 35 51 60 71 90 105 111 92 52 30 30 12 6 27 30 15 
19 1 1 0 0 0 0 0 0 6 14 14 32 19 11 24 35 40 72 96 
113 121 114 66 36 32 39 29 15 30 29 6 0 1 1 0 11 0 0 0 
0 6 17 19 26 14 34 40 46 32 31 95 131 131 92 22 29 29 40 46 
59 46 30 5 0 0 0 0 4 4 4 6 6 10 13 12 26 53 53 39 
44 56 30 71 136 140 53 33 59 47 42 42 74 97 51 30 6 0 0 2 
1 14 11 9 8 10 16 36 71 94 64 37 44 99 59 41 79 102 42 88 
117 64 50 48 57 97 68 43 28 8 0 2 0 8 29 28 16 16 34 45 
79 103 71 44 66 128 125 83 65 55 74 131 138 84 79 72 76 126 118 65 
40 55 9 0 0 14 13 18 23 65 49 45 118 132 83 68 79 133 141 88 
77 67 78 135 139 84 82 75 76 133 131 67 58 108 73 1 0 17 17 24 
82 85 48 69 136 140 82 69 82 132 140 90 73 67 68 130 131 81 75 66 
66 133 133 68 63 117 108 19 0 33 31 62 90 106 50 71 133 138 68 59 
69 122 124 71 61 49 52 110 110 60 51 42 45 106 109 54 46 108 72 51 
