P2 
32 30
144
10 35 34 33 32 30 28 26 24 23 21 20 19 18 21 18 19 17 14 12 
17 17 19 19 20 21 22 23 24 25 25 26 26 35 33 33 31 30 28 26 
25 24 22 21 19 19 23 19 18 19 17 15 19 19 20 20 21 22 23 24 
25 26 26 26 26 35 33 33 31 30 29 28 26 25 23 22 21 20 24 21 
21 21 19 18 21 21 21 22 23 23 24 25 26 26 26 26 26 31 34 33 
32 31 30 29 27 26 25 24 22 22 26 24 23 23 21 20 23 24 23 24 
24 25 26 27 27 27 27 27 27 33 34 33 32 31 30 29 28 27 26 25 
24 23 24 19 20 24 22 21 25 25 25 26 26 26 27 28 28 28 28 28 
27 26 31 33 33 32 31 30 29 28 27 26 19 11 2 1 1 4 15 23 
26 26 26 27 27 28 29 29 29 29 29 28 28 25 20 13 32 33 32 31 
30 29 29 14 9 11 8 6 2 1 1 15 28 28 28 28 29 30 30 30 
30 29 29 29 28 37 43 27 35 36 37 36 31 32 21 8 20 29 32 22 
11 9 1 1 27 29 29 30 30 30 30 30 29 30 29 29 29 13 5 19 
16 24 3 15 1 7 11 37 70 98 105 88 44 6 0 0 14 28 29 29 
29 29 29 29 29 28 28 28 28 12 2 17 1 3 0 12 2 7 37 101 
120 124 119 114 80 27 1 0 4 30 29 29 30 30 30 30 29 29 29 29 
29 34 28 23 1 7 22 27 14 13 62 113 125 130 126 117 87 29 2 0 
0 28 30 31 30 30 31 30 29 26 23 20 17 25 12 22 35 33 26 35 
11 8 63 118 129 132 127 117 102 40 1 1 1 26 27 27 25 24 22 20 
20 20 22 24 25 18 6 20 25 36 1 13 4 3 52 109 114 80 82 92 
108 87 16 36 67 21 23 26 28 29 30 20 10 29 30 30 29 18 3 20 
4 6 3 12 0 9 32 57 100 74 69 89 117 104 61 80 102 28 32 32 
32 33 32 29 13 30 30 29 29 24 20 32 7 5 32 34 9 10 19 74 
120 113 104 125 123 103 69 95 79 29 31 32 32 32 32 30 27 30 30 29 
29 21 9 29 18 14 36 36 38 35 59 102 111 119 127 129 119 99 72 108 
35 24 30 32 31 32 32 31 30 30 27 29 28 19 3 27 32 38 19 16 
28 18 57 97 100 108 129 128 114 95 67 47 11 22 31 28 25 30 23 19 
31 27 20 21 15 23 16 25 28 31 12 4 12 6 49 80 104 123 123 123 
109 92 58 56 14 27 23 5 1 25 12 7 32 15 11 5 4 10 9 9 
9 16 10 4 16 9 33 75 88 98 116 117 107 86 56 70 25 32 24 3 
2 25 16 8 25 26 28 8 9 0 0 0 0 11 26 31 33 36 34 75 
108 124 117 108 94 66 70 83 39 33 24 1 2 23 14 4 27 30 8 0 
6 0 0 0 0 9 10 3 28 28 13 60 114 120 106 93 75 63 88 91 
50 43 25 1 1 19 21 17 20 20 6 0 1 0 0 0 0 7 7 0 
27 13 0 33 79 81 80 71 64 80 103 97 67 25 27 10 5 24 28 14 
18 1 1 0 0 0 0 0 0 6 12 14 32 18 10 21 32 31 51 56 
89 108 113 89 44 25 41 28 15 27 27 5 0 0 0 0 10 0 0 0 
0 5 16 19 26 13 31 38 41 28 27 90 121 121 112 46 16 24 39 45 
53 56 37 6 0 0 0 0 3 4 4 5 6 9 13 13 25 52 54 37 
43 48 28 59 127 133 98 23 43 54 44 41 47 99 70 36 14 0 0 2 
1 12 10 9 8 10 15 34 65 92 68 37 45 86 62 34 76 131 53 51 
101 81 45 37 41 94 88 38 31 18 0 3 0 6 26 25 15 13 37 47 
74 97 77 38 61 107 120 80 63 63 63 99 134 109 74 57 62 113 123 73 
57 40 27 0 0 10 10 15 16 58 44 36 100 120 93 65 78 110 136 99 
76 53 82 103 135 112 75 60 72 111 131 85 70 79 78 15 0 13 14 19 
66 78 64 58 104 126 94 67 83 108 135 105 74 58 84 105 134 115 75 62 
74 106 130 87 69 85 111 40 0 27 26 41 95 81 67 65 102 129 83 61 
73 97 125 98 64 50 70 86 114 100 54 43 55 87 118 84 62 71 88 47 
