P2 
32 30
143
10 34 33 32 30 29 27 25 23 22 20 19 17 16 20 17 18 17 15 12 
17 18 19 19 20 20 22 23 23 24 25 25 25 34 33 32 30 29 27 26 
24 23 21 19 19 18 22 19 18 19 17 16 19 20 20 21 21 22 23 24 
25 26 25 26 26 35 33 32 31 29 28 27 26 24 22 22 20 20 23 21 
21 21 20 19 22 22 22 22 23 24 25 26 26 26 27 26 27 30 33 32 
31 29 29 27 26 25 24 23 22 21 25 23 23 23 22 20 23 24 23 23 
24 25 26 26 26 27 27 27 26 31 32 32 31 30 29 27 27 26 24 24 
22 22 26 20 17 18 20 19 24 25 25 25 25 26 26 27 27 27 27 27 
27 25 29 32 31 30 29 28 27 26 25 24 23 23 24 22 27 22 16 16 
11 24 26 26 26 27 28 28 28 28 28 27 27 23 18 12 30 31 31 29 
28 27 28 26 24 17 15 27 36 47 36 17 12 14 27 28 28 28 28 28 
28 27 27 27 27 34 41 25 32 33 34 34 29 29 28 27 17 5 14 28 
86 113 108 91 66 25 27 27 27 28 28 27 28 27 27 26 26 13 5 18 
15 23 2 14 1 7 11 10 6 3 11 50 100 116 119 115 101 70 29 29 
29 29 29 29 29 29 28 28 28 12 2 17 1 3 0 12 2 7 9 7 
0 1 25 64 100 120 124 124 109 88 38 30 31 31 31 31 30 31 30 30 
30 33 27 22 1 6 22 27 14 13 32 25 0 1 18 62 109 120 114 111 
111 91 36 31 31 31 31 31 29 27 23 21 18 24 11 20 34 32 25 34 
11 7 9 19 0 0 11 69 117 110 85 67 76 61 26 28 26 24 22 21 
20 20 23 24 25 17 6 19 24 34 1 12 3 3 1 23 36 61 20 81 
124 107 76 44 116 73 18 26 28 29 30 20 11 29 29 29 29 17 2 19 
4 5 3 11 0 8 1 25 83 99 78 106 126 124 113 100 114 99 43 31 
31 32 32 28 13 29 29 28 28 23 18 30 6 5 31 33 8 9 3 19 
49 112 98 103 118 125 122 108 102 95 53 31 31 31 31 29 27 30 29 29 
28 20 9 28 16 14 35 35 37 35 34 31 12 109 106 103 116 123 123 109 
107 89 45 32 31 32 32 30 31 30 26 28 27 20 3 25 30 35 19 15 
27 18 19 16 10 55 81 101 113 118 122 106 95 71 39 28 25 30 22 19 
31 27 20 20 14 25 17 24 25 28 11 4 12 5 14 6 5 35 93 97 
111 115 119 107 102 67 30 6 2 25 12 7 31 15 11 5 3 12 10 8 
8 14 8 3 14 8 20 14 8 26 101 94 104 111 113 113 114 94 29 2 
1 24 15 7 24 25 28 8 8 0 0 0 0 10 22 27 31 34 32 36 
26 33 104 105 93 98 99 104 109 84 27 2 2 22 14 4 27 29 8 0 
6 0 0 0 0 8 9 2 26 27 13 30 20 60 101 113 97 93 92 85 
61 38 25 2 1 20 22 17 20 20 7 0 2 0 0 0 0 7 7 0 
25 11 0 23 22 67 98 113 107 93 67 49 35 25 28 10 6 25 28 14 
18 1 2 0 0 0 0 0 0 6 12 13 29 16 9 20 34 52 86 117 
117 105 97 97 45 27 34 27 14 27 27 5 0 0 0 0 10 0 0 0 
0 5 15 17 24 12 32 43 46 31 42 99 127 124 120 60 18 21 36 46 
65 56 35 7 0 0 0 0 3 5 5 5 5 9 11 10 22 53 49 36 
42 45 26 79 133 135 113 27 45 42 44 40 62 95 56 36 12 0 0 2 
1 16 12 9 6 8 13 29 71 89 58 37 44 88 45 36 97 133 60 51 
98 67 44 40 44 89 76 35 25 13 0 2 0 11 31 27 15 14 33 44 
81 95 62 35 55 118 111 74 56 75 56 105 132 95 73 59 61 118 120 62 
46 49 20 0 0 15 14 18 20 47 35 39 112 118 84 62 77 121 135 93 
76 49 79 110 133 98 75 61 65 121 128 71 62 93 79 3 0 19 19 23 
68 68 61 52 117 125 84 63 81 117 134 98 76 56 81 111 133 103 74 62 
69 115 128 73 65 96 108 18 0 32 31 60 88 70 69 63 115 128 78 62 
74 106 124 89 68 47 68 96 116 91 58 41 54 94 116 70 59 85 71 32 
