P2 
32 30
150
10 37 36 35 33 32 30 28 26 24 22 21 19 18 22 19 20 19 16 14 
19 20 20 21 22 23 24 25 26 27 27 28 28 38 36 35 33 32 30 28 
27 25 24 22 21 20 24 21 20 21 19 18 22 22 22 23 23 24 25 26 
27 28 28 28 28 38 36 35 34 32 31 29 28 27 25 23 22 22 25 23 
23 23 21 20 24 23 24 24 25 26 27 28 28 29 29 29 29 33 35 35 
34 32 31 30 28 27 26 24 24 23 27 25 24 25 23 21 25 25 25 25 
26 27 28 28 29 29 29 29 29 34 35 35 34 33 31 30 29 28 27 26 
25 24 28 26 25 25 24 23 26 26 26 27 27 28 28 30 30 30 30 30 
29 27 32 35 34 33 32 31 30 29 28 27 26 26 28 22 24 22 22 16 
27 28 28 29 29 30 31 31 31 31 31 30 30 26 21 14 34 34 34 33 
31 31 32 29 27 24 18 29 29 24 17 16 9 28 30 31 31 32 32 32 
32 31 31 31 30 38 45 29 36 38 38 38 33 33 32 31 25 8 16 36 
93 106 85 56 33 15 31 31 31 32 32 31 31 31 31 30 30 14 6 21 
17 26 3 17 1 8 12 11 11 5 18 67 113 118 120 109 90 38 32 32 
32 33 33 33 32 32 31 31 31 13 2 19 2 4 0 14 3 8 10 9 
1 3 38 78 114 126 127 118 101 62 33 33 34 34 34 34 33 33 33 32 
33 36 30 25 1 7 24 29 16 14 34 28 0 4 29 82 116 106 103 114 
106 73 33 33 33 33 34 33 32 29 26 22 20 25 12 22 36 34 27 36 
12 8 10 19 0 0 12 45 46 17 0 1 48 12 0 19 27 26 24 22 
22 22 24 26 27 18 7 21 26 37 1 13 4 3 1 23 39 33 24 106 
118 37 0 0 36 3 0 21 30 31 32 22 12 31 32 32 31 19 3 21 
4 6 3 12 0 9 2 26 97 90 75 119 128 61 2 10 90 37 0 31 
34 35 35 31 14 32 32 32 31 26 21 33 8 6 34 36 10 10 4 22 
76 107 97 117 127 121 77 71 97 76 24 34 34 35 34 32 30 33 32 32 
31 22 10 31 18 15 38 39 41 38 37 35 29 126 100 115 127 128 120 106 
99 62 42 34 34 34 35 33 33 33 29 31 30 22 4 29 33 39 21 17 
29 20 21 18 10 71 88 113 122 131 124 97 84 53 39 31 27 33 25 22 
34 29 23 23 16 29 20 28 29 32 12 5 13 6 16 6 6 50 85 109 
121 123 128 122 97 59 28 7 3 28 14 9 34 16 12 5 4 14 12 10 
10 16 10 4 16 9 22 15 9 40 94 95 112 118 122 125 110 61 26 4 
3 27 17 9 27 28 30 8 9 0 0 0 0 12 24 29 34 38 35 40 
31 40 110 88 90 99 104 107 94 54 27 2 3 25 16 6 30 32 8 0 
6 0 0 0 0 10 11 2 28 29 14 34 33 55 110 108 89 85 82 69 
42 35 28 3 3 22 25 19 23 22 8 0 2 0 0 0 0 8 8 0 
27 13 0 25 39 67 106 117 109 90 57 51 32 33 30 12 6 27 31 16 
19 1 2 0 0 0 0 0 0 6 13 14 31 18 10 23 37 63 96 123 
122 110 109 72 32 33 34 29 15 29 29 6 0 1 1 0 11 0 0 0 
0 5 16 17 24 12 32 41 47 37 47 109 131 128 94 19 29 28 39 46 
62 39 29 5 0 0 0 0 4 6 6 6 6 10 13 10 17 45 44 38 
45 40 31 89 137 137 46 31 55 43 42 35 89 87 38 21 3 0 0 2 
1 20 16 11 8 10 12 24 68 92 58 44 53 85 38 46 111 112 35 78 
108 54 42 42 70 91 50 39 24 4 0 3 0 13 36 31 16 11 32 46 
91 103 52 41 55 129 106 74 59 57 71 131 137 78 72 65 80 123 96 63 
31 56 3 0 0 19 16 22 17 43 37 45 110 117 73 70 75 141 141 87 
74 62 78 137 139 80 78 74 80 132 116 71 63 105 51 0 0 22 22 26 
61 73 50 66 139 134 76 72 79 139 141 87 77 69 75 138 136 81 78 73 
76 134 124 68 66 119 96 2 0 35 35 62 97 90 48 75 138 135 75 69 
68 129 130 77 65 55 56 114 116 62 57 47 49 113 116 54 49 113 80 21 
