P2 
32 30
143
10 34 33 32 30 29 27 25 23 22 20 18 17 16 20 17 18 17 15 13 
17 18 19 19 20 21 22 23 23 25 25 25 26 34 33 32 30 28 27 26 
24 22 21 20 18 18 21 18 18 19 17 16 19 20 20 21 21 22 22 24 
25 26 26 25 26 35 33 32 31 29 28 27 25 24 22 21 20 19 23 21 
21 21 20 18 21 22 22 22 23 24 25 25 26 27 26 26 27 30 33 32 
31 30 28 27 26 25 24 23 22 21 25 23 23 23 22 20 24 24 24 24 
25 25 26 26 27 27 27 27 27 31 32 32 31 30 29 28 27 25 24 24 
22 22 26 24 20 17 17 19 24 25 25 25 25 26 26 27 27 27 27 27 
26 24 29 32 31 30 29 28 27 26 25 24 23 23 26 27 22 23 21 19 
18 22 26 26 27 27 28 28 28 28 27 27 27 23 18 12 30 31 31 29 
28 27 28 26 24 23 15 17 27 31 25 15 16 8 21 28 28 29 29 28 
28 28 27 27 27 35 41 25 32 34 34 34 29 29 29 28 26 9 8 17 
28 55 94 74 32 13 10 26 28 29 29 28 28 28 28 27 27 13 5 18 
15 23 2 14 1 7 11 10 23 1 2 10 40 95 117 115 103 71 27 25 
28 29 29 29 28 28 28 27 27 12 2 16 1 3 0 12 2 7 9 9 
16 0 2 27 61 99 120 120 116 99 65 30 30 31 31 31 30 30 30 29 
30 34 28 22 1 6 22 27 14 13 32 34 13 0 2 24 68 109 121 123 
124 104 77 34 32 31 31 32 30 27 24 21 18 24 11 21 34 33 26 34 
11 7 9 26 11 6 3 20 81 120 120 89 85 94 82 31 26 25 23 21 
20 21 23 24 25 17 6 19 24 34 1 12 3 3 1 26 21 102 53 29 
102 122 103 97 69 78 43 22 28 29 30 20 11 29 29 29 28 17 2 19 
4 5 3 11 0 8 1 26 24 113 95 85 120 128 102 61 71 117 30 29 
32 32 32 29 13 29 29 29 28 23 18 31 6 5 31 33 8 9 3 20 
5 98 109 100 118 128 125 108 107 114 66 32 32 32 32 30 27 30 29 29 
28 20 8 28 17 14 35 35 37 34 34 34 15 61 112 101 115 125 127 120 
100 100 88 33 31 32 32 30 31 30 27 28 28 20 3 26 30 35 18 15 
27 17 19 17 15 32 88 99 114 121 126 116 105 100 58 30 25 31 23 19 
31 26 20 21 15 26 18 26 26 28 11 3 11 5 14 6 6 25 94 96 
112 118 122 111 93 78 43 6 2 25 12 8 31 15 11 5 4 13 11 9 
9 15 8 3 14 8 20 14 10 27 99 94 106 114 115 112 109 70 35 3 
2 25 15 8 24 26 29 8 9 0 0 0 0 10 21 25 29 34 31 36 
21 41 103 101 94 102 107 112 114 95 30 2 2 22 13 4 27 30 8 0 
6 0 0 0 0 8 9 2 24 26 13 31 31 64 103 109 93 94 96 97 
100 78 28 2 1 19 22 17 20 21 7 0 2 0 0 0 0 7 7 0 
23 12 0 23 32 74 102 112 102 88 81 73 47 30 28 11 6 25 28 14 
18 1 2 0 0 0 0 0 0 6 12 12 28 16 9 22 37 60 90 117 
113 94 76 54 38 27 27 23 14 27 27 6 0 0 0 0 11 0 0 0 
0 5 15 15 22 12 34 46 43 35 45 104 124 123 116 47 21 20 36 45 
73 55 31 7 0 0 0 0 3 5 5 5 5 9 12 9 22 57 47 37 
45 43 27 91 133 135 95 27 49 38 41 39 77 93 48 37 11 0 0 2 
1 18 14 10 7 9 15 32 82 92 48 42 50 85 39 48 107 130 45 67 
104 58 45 44 54 90 66 38 24 13 0 3 0 11 32 27 15 16 33 46 
93 96 48 40 56 127 105 71 57 69 57 119 132 80 75 62 67 118 117 59 
37 59 15 0 0 16 14 18 25 47 27 50 122 119 73 67 71 133 134 85 
72 51 75 122 132 84 77 66 67 125 128 62 56 100 72 0 0 19 19 25 
76 64 56 55 129 128 72 68 75 130 134 85 79 60 73 125 133 90 77 66 
66 127 129 66 62 105 104 2 0 32 30 73 85 63 67 63 128 131 67 66 
66 120 125 76 67 53 62 109 115 75 57 44 47 104 115 62 54 90 73 13 
