P2 
32 30
152
10 40 38 38 36 34 32 30 28 26 24 23 21 20 24 21 22 20 18 15 
20 21 22 23 24 25 26 27 28 29 30 30 30 40 38 37 36 34 32 30 
29 27 25 24 22 21 25 22 22 22 21 19 23 23 24 25 25 26 27 28 
29 30 30 31 31 40 38 37 36 34 33 31 29 28 27 25 24 23 27 24 
24 24 22 21 24 25 25 25 27 28 29 29 30 30 31 31 31 34 37 36 
36 34 33 31 30 29 28 26 25 24 29 26 26 26 24 22 26 27 27 27 
28 29 29 30 30 31 31 31 31 36 37 37 35 35 33 32 31 30 29 27 
26 25 30 28 27 28 25 24 28 28 28 29 29 30 30 32 32 32 32 31 
31 29 34 36 36 35 34 33 31 30 29 28 27 26 31 29 29 28 26 25 
28 29 29 30 30 31 32 32 32 32 32 31 31 27 22 15 35 35 35 33 
32 31 33 29 28 28 31 19 25 25 27 26 30 30 31 31 32 32 33 32 
33 32 32 32 31 39 47 30 37 39 39 39 34 34 33 32 29 29 22 59 
79 61 26 26 31 31 32 32 32 33 33 32 32 32 32 32 31 15 6 22 
17 27 3 17 1 8 13 12 31 22 28 51 80 39 15 9 30 33 33 33 
33 34 34 34 33 33 33 33 33 14 2 19 1 4 0 13 2 7 10 10 
29 9 15 19 82 24 16 11 24 34 33 34 34 35 35 35 34 34 34 33 
34 37 31 25 1 7 25 30 15 14 35 37 24 26 7 61 85 72 29 19 
20 34 34 34 34 34 35 34 33 30 26 23 21 27 13 24 38 37 29 38 
14 8 11 29 19 72 99 95 92 83 97 80 26 32 31 31 29 27 25 23 
23 23 26 27 29 19 7 23 28 40 1 14 5 4 1 29 25 91 110 104 
107 103 94 88 39 24 26 30 32 33 34 23 13 33 34 34 33 20 4 22 
5 6 4 13 0 10 2 30 24 93 108 106 115 111 88 84 48 25 35 36 
36 36 36 33 16 34 34 34 33 28 22 36 9 7 36 38 10 11 4 23 
44 90 106 100 110 105 78 77 52 46 36 36 36 37 36 34 31 35 35 34 
34 24 11 34 20 17 41 41 43 39 39 38 74 87 97 93 105 100 71 66 
46 48 36 36 36 37 37 36 36 35 32 34 32 23 5 32 36 42 22 18 
30 21 22 19 48 69 86 87 104 96 70 65 34 27 34 32 29 34 26 22 
36 31 24 24 17 31 23 33 32 34 13 5 13 6 16 7 8 55 86 94 
108 101 82 77 41 28 24 7 2 28 14 9 35 17 12 5 4 16 14 13 
11 18 10 4 17 9 23 16 10 79 105 107 122 118 93 97 63 23 25 4 
3 28 18 10 27 28 29 8 9 0 0 0 0 13 26 30 35 40 37 42 
31 96 114 112 125 119 101 108 78 31 26 3 4 26 17 6 31 33 8 0 
6 0 0 0 0 10 11 3 29 31 15 35 33 94 121 120 132 127 116 115 
82 32 28 3 2 22 25 20 23 22 7 0 2 0 0 0 0 8 9 0 
27 14 0 26 36 68 122 133 140 134 125 116 43 36 31 13 7 28 32 16 
20 1 2 0 0 0 0 0 0 7 15 15 31 20 12 25 36 42 61 110 
142 138 116 37 27 33 41 31 16 31 31 6 0 1 1 1 12 0 0 0 
0 6 18 17 24 14 33 40 52 34 40 61 119 134 55 25 26 40 43 43 
58 41 30 5 0 0 0 0 4 8 8 8 7 11 14 10 17 44 53 41 
47 72 34 35 108 135 29 39 71 57 47 42 70 99 50 24 3 0 0 2 
1 25 21 14 10 12 13 25 57 94 70 41 46 102 84 47 48 86 52 88 
125 81 54 48 57 100 71 41 26 4 0 3 0 17 42 35 19 12 33 48 
72 101 77 43 70 125 136 94 73 56 83 118 143 100 81 70 74 128 123 66 
41 45 4 0 0 21 19 24 17 53 45 42 101 132 91 72 83 127 144 97 
86 61 89 124 143 99 82 72 74 134 137 68 59 103 56 0 0 23 25 27 
61 91 51 70 123 142 88 71 85 124 144 104 80 58 77 117 133 97 76 65 
69 136 137 70 66 118 110 9 0 37 38 48 104 106 53 73 121 143 80 61 
73 113 127 83 62 41 60 92 110 74 51 43 46 105 116 63 55 111 80 41 
