P2 
32 30
144
10 35 34 33 31 30 28 26 25 23 21 20 19 18 21 18 18 17 15 12 
17 18 19 19 20 21 22 23 24 25 25 25 26 36 34 33 32 30 29 27 
25 24 23 21 20 19 23 20 19 19 17 16 19 20 20 21 22 22 23 24 
25 26 26 26 27 36 34 33 32 31 29 28 26 25 24 23 21 20 24 22 
21 21 19 18 21 22 22 22 23 24 25 26 26 27 27 27 27 30 33 33 
32 31 29 28 27 26 25 23 22 22 25 23 22 23 21 20 23 23 23 23 
24 25 25 26 26 27 27 27 27 32 33 33 32 31 30 29 28 26 26 25 
24 22 22 19 22 24 22 21 24 25 25 25 26 26 27 28 28 28 28 28 
27 26 31 33 33 32 31 30 29 28 27 26 17 8 2 2 2 6 18 23 
26 26 27 27 27 28 29 29 29 29 29 29 28 25 20 14 32 33 33 31 
30 29 27 8 10 16 13 10 7 1 3 19 27 28 29 29 29 30 30 30 
29 29 29 29 28 36 43 27 35 36 36 36 31 31 18 14 28 50 55 35 
12 8 1 5 29 29 29 29 29 30 30 30 29 29 29 29 28 14 5 20 
16 26 3 16 1 7 18 61 100 115 111 101 50 9 0 0 20 30 30 30 
30 31 31 30 30 30 30 30 30 13 2 18 2 4 0 13 2 8 54 108 
123 125 120 111 72 24 1 0 11 31 30 31 31 31 31 31 31 30 31 30 
30 34 28 23 1 6 22 27 14 13 74 113 124 127 123 113 82 19 1 0 
4 30 30 30 30 30 31 30 28 26 22 20 17 24 12 21 35 33 27 34 
11 8 77 118 125 107 98 108 104 43 1 7 10 29 28 27 25 24 22 20 
20 20 23 24 25 17 7 20 25 36 1 13 4 4 37 89 85 76 99 96 
112 88 30 73 69 23 23 25 28 29 29 20 11 29 29 29 29 18 3 20 
4 5 3 12 0 8 32 74 122 73 75 108 122 100 70 92 81 29 31 32 
32 32 32 29 13 29 30 29 28 24 19 32 7 5 32 35 9 10 32 90 
113 120 121 128 117 98 72 104 51 29 31 32 32 32 32 30 27 30 30 29 
29 21 10 30 18 15 37 37 39 36 61 109 104 114 130 127 113 96 75 87 
14 26 31 32 32 32 32 31 31 31 27 29 28 19 4 27 32 38 20 16 
28 18 57 81 99 119 127 124 110 96 69 47 9 25 31 29 25 30 22 19 
31 27 20 20 14 22 16 25 27 31 12 4 12 5 46 78 98 103 120 121 
109 93 61 56 12 28 23 5 1 25 12 7 32 15 11 4 3 10 9 8 
9 15 10 4 15 9 29 69 86 114 118 116 103 82 64 70 22 31 24 2 
1 25 15 7 24 25 27 7 8 0 0 0 0 11 26 31 33 36 34 64 
111 123 115 104 89 70 82 82 37 33 24 2 2 23 14 4 27 29 7 0 
5 0 0 0 0 9 10 3 29 29 14 44 103 112 96 90 81 73 95 91 
51 39 26 2 1 20 22 17 20 20 6 0 1 0 0 0 0 7 7 0 
27 13 0 25 50 62 75 72 72 90 107 95 63 27 28 10 5 24 28 14 
18 1 1 0 0 0 0 0 0 6 13 14 32 18 10 21 33 30 57 70 
97 113 114 87 49 27 40 28 14 27 27 5 0 0 0 0 10 0 0 0 
0 5 16 20 26 13 33 41 45 32 27 91 124 124 113 48 18 24 40 46 
56 53 36 5 0 0 0 0 3 3 4 4 5 9 12 13 23 51 51 36 
41 47 30 59 124 134 99 22 43 48 46 40 51 97 64 35 12 0 0 2 
1 11 9 8 7 9 13 32 64 89 66 37 44 90 53 30 82 132 52 48 
95 68 44 39 41 93 83 36 26 15 0 2 0 6 26 26 15 13 35 47 
74 96 73 36 57 116 115 77 58 69 58 106 134 99 72 57 61 119 123 68 
53 40 22 0 0 11 11 16 16 51 42 37 103 120 92 63 79 119 137 94 
76 50 81 112 135 103 78 63 70 121 132 79 68 83 76 8 0 14 15 19 
62 77 64 56 108 126 92 65 83 116 136 97 77 58 81 114 134 107 76 63 
73 115 132 79 71 91 111 34 0 28 27 43 96 80 68 65 106 129 81 64 
75 105 126 91 69 49 71 100 121 97 63 46 61 99 120 77 63 80 88 44 
