P2 
32 30
150
10 37 36 35 34 32 30 27 26 24 22 21 19 18 21 19 20 19 17 14 
19 20 21 21 22 23 24 25 26 27 27 28 28 38 36 35 34 32 30 29 
27 25 24 22 21 20 24 21 20 21 19 18 21 22 22 23 23 24 25 26 
27 28 28 28 28 38 35 35 34 32 31 29 27 26 24 23 22 21 25 23 
23 23 21 20 23 23 24 24 25 26 26 28 28 29 29 28 29 32 35 34 
33 32 31 29 28 27 25 24 23 22 26 24 24 24 22 21 24 25 25 25 
26 27 27 28 28 29 29 29 29 34 35 35 34 33 32 31 30 28 27 26 
25 24 29 26 26 24 24 23 27 27 27 27 28 28 29 30 30 30 30 30 
29 27 33 35 35 33 33 32 31 29 28 27 26 26 30 24 24 22 21 19 
25 28 28 29 29 30 31 31 31 31 31 30 30 26 21 14 34 34 34 32 
32 30 32 28 27 24 16 23 31 28 20 16 7 24 30 31 31 32 32 32 
31 31 31 31 30 38 45 29 36 37 38 38 33 33 32 31 28 9 13 29 
81 110 93 62 34 12 30 31 31 32 32 32 31 32 31 30 30 14 6 21 
17 26 3 17 1 8 12 11 18 4 12 54 106 117 120 110 95 43 31 32 
32 33 33 33 32 32 32 32 32 14 2 19 1 4 0 13 2 7 10 10 
8 1 30 69 106 123 126 120 102 72 32 32 33 33 33 33 32 32 32 31 
32 36 29 23 1 7 23 28 15 13 33 34 3 1 19 71 112 111 110 121 
107 84 35 32 32 32 33 33 30 28 24 22 19 25 12 23 36 35 28 36 
12 8 10 27 1 0 8 42 48 24 0 3 53 32 6 16 28 26 24 23 
22 22 25 26 27 18 7 21 26 37 1 14 4 3 1 27 52 66 23 99 
121 50 0 0 24 4 0 16 30 31 32 22 12 32 32 32 32 19 3 21 
4 6 3 12 0 9 2 29 81 102 84 116 126 74 2 7 78 37 0 25 
35 35 35 32 14 32 32 32 31 26 20 34 8 5 34 36 9 10 4 22 
50 116 99 114 123 125 69 63 108 84 21 33 34 34 34 32 30 33 32 32 
31 23 10 31 18 15 38 39 41 37 37 36 15 116 100 112 119 123 100 106 
88 52 47 35 34 35 34 34 34 33 30 31 30 22 4 29 33 38 20 17 
29 20 21 19 12 57 87 108 116 111 91 98 83 48 48 31 27 33 25 21 
34 30 23 23 16 29 20 28 28 31 12 4 13 6 15 7 6 44 90 104 
114 111 117 120 96 54 30 6 2 27 14 8 34 16 12 5 4 14 12 10 
10 16 10 4 16 9 22 16 9 38 102 97 109 115 122 123 112 60 26 4 
3 27 17 9 26 28 30 8 9 0 0 0 0 12 24 29 34 38 36 40 
32 42 113 102 99 106 111 113 99 66 27 3 4 25 16 6 30 33 9 0 
6 0 0 0 0 10 11 2 27 29 14 34 35 57 110 110 97 94 93 83 
56 37 28 3 2 21 24 19 23 22 8 0 2 0 0 0 0 7 8 0 
25 13 0 25 41 67 107 117 108 89 59 47 28 32 30 12 6 26 30 15 
19 1 2 0 0 0 0 0 0 6 13 13 30 18 10 23 35 66 97 124 
121 107 110 69 31 33 33 28 15 29 29 6 0 0 1 0 11 0 0 0 
0 5 16 16 23 13 32 41 46 38 47 113 131 130 91 19 30 28 39 47 
65 43 29 5 0 0 0 0 4 6 6 6 6 10 12 9 16 46 45 38 
44 39 32 98 139 138 43 33 59 41 39 36 93 87 38 24 3 0 0 2 
1 20 16 11 8 11 12 24 72 92 56 44 53 82 38 52 110 105 39 88 
114 54 42 43 73 93 50 40 24 6 0 3 0 15 38 32 18 13 34 48 
96 104 51 44 61 132 107 75 62 58 74 137 138 77 74 68 86 126 97 66 
34 61 4 0 0 19 17 22 18 46 36 48 115 118 73 72 75 142 141 85 
73 67 77 139 139 77 77 76 82 132 111 72 68 106 53 0 0 21 22 27 
65 71 50 71 139 127 78 72 78 140 140 84 71 73 72 135 131 75 72 69 
77 134 119 71 68 117 93 2 0 35 35 66 95 89 53 76 139 129 73 67 
66 131 129 73 58 55 52 117 113 57 54 49 48 107 107 49 46 109 78 20 
