P2 
32 30
156
10 40 39 38 36 34 32 30 28 27 25 23 21 21 24 21 22 21 19 16 
21 21 23 23 24 25 27 28 28 30 30 30 31 41 39 38 36 35 33 31 
29 27 26 24 23 22 26 23 22 23 21 20 23 24 24 25 26 26 27 28 
30 30 31 31 31 41 39 38 37 35 34 32 30 29 28 26 25 24 28 26 
25 25 24 22 25 26 26 27 28 29 29 30 31 32 32 32 32 35 38 38 
37 36 34 33 31 30 29 27 26 25 29 27 26 27 26 24 27 28 28 28 
29 30 30 31 32 32 32 32 32 37 38 37 37 35 34 33 32 31 29 28 
27 26 30 27 27 27 25 25 28 29 29 29 30 30 31 32 32 32 32 32 
32 29 35 37 37 36 35 34 33 31 30 29 28 27 19 10 9 4 16 25 
29 30 30 31 31 32 33 33 33 33 33 32 32 28 23 16 36 36 36 35 
33 32 34 30 29 16 2 9 13 5 3 12 31 31 32 33 33 33 34 33 
33 33 33 32 32 40 48 30 37 40 40 40 34 34 34 33 22 23 44 35 
41 43 37 7 23 32 32 33 33 34 33 33 33 33 32 32 32 15 6 22 
18 28 4 18 1 8 13 11 14 81 113 116 114 111 95 53 10 33 33 33 
33 34 34 34 33 33 32 33 33 15 3 21 2 4 0 15 3 9 11 2 
23 95 123 135 135 127 106 75 16 30 35 35 36 36 36 36 35 35 35 34 
35 39 32 27 2 8 26 32 17 16 36 15 29 101 126 138 137 131 111 82 
17 21 35 35 35 36 36 36 34 31 27 25 22 28 13 25 39 37 30 39 
14 10 12 11 27 89 97 117 134 91 89 41 8 11 32 32 30 28 26 24 
24 24 27 28 29 20 8 23 28 40 1 15 5 4 1 18 10 13 14 8 
48 12 16 4 19 23 27 30 33 34 35 24 13 34 35 34 34 20 4 22 
5 6 4 14 0 10 2 51 33 0 0 1 91 10 0 1 30 55 35 36 
37 37 37 34 16 35 35 35 34 28 22 36 9 6 36 38 10 11 4 42 
70 11 3 31 109 50 18 28 47 50 35 36 36 37 37 35 32 35 35 34 
33 24 11 33 20 16 40 41 43 39 39 44 78 108 100 91 103 72 104 109 
55 42 34 36 36 36 36 35 35 35 31 33 32 23 4 31 35 41 22 18 
31 21 22 22 59 101 100 106 98 95 92 93 54 29 35 32 29 35 27 23 
36 31 24 24 17 30 21 30 31 34 14 5 14 6 17 8 34 101 109 87 
99 84 93 107 54 34 27 8 4 30 15 10 36 18 13 6 4 14 12 11 
10 17 11 4 17 9 24 17 19 83 115 116 119 112 101 86 39 36 27 4 
3 29 19 10 28 29 32 9 10 0 0 0 0 12 27 32 36 40 37 42 
36 62 95 111 127 115 83 55 38 37 28 3 4 26 17 6 31 34 9 0 
7 0 0 0 0 11 12 3 31 32 15 36 36 65 67 86 110 95 54 48 
50 37 29 4 3 23 26 21 24 24 8 0 2 0 0 0 0 9 9 0 
30 14 0 27 38 89 81 59 70 59 51 81 49 35 32 14 8 29 33 17 
21 1 3 0 0 0 0 0 0 7 15 16 34 21 12 25 39 60 106 111 
94 97 112 69 35 39 38 31 17 32 32 7 1 1 1 1 12 0 0 0 
0 6 19 20 28 15 35 43 50 39 43 111 135 131 91 21 33 34 43 49 
66 44 31 5 0 0 0 0 4 6 7 7 7 12 15 14 21 50 50 42 
48 48 33 91 143 143 43 37 66 48 45 41 89 95 47 27 4 0 0 2 
1 21 17 12 9 13 15 28 71 95 66 46 53 96 49 47 100 102 43 95 
121 62 48 48 70 99 59 45 28 5 0 3 0 13 35 32 18 13 34 51 
87 106 62 44 63 137 120 80 65 57 77 139 142 83 78 72 82 129 107 68 
36 58 4 0 0 19 16 21 18 49 43 46 119 128 81 73 79 143 145 89 
77 71 81 142 143 83 81 78 81 136 123 75 62 111 58 0 0 23 23 26 
66 80 54 69 142 141 81 74 82 142 145 90 74 75 72 136 135 79 77 70 
76 138 130 72 67 124 106 4 0 38 37 58 100 105 49 77 141 141 72 66 
71 132 133 73 62 53 54 118 114 59 55 50 49 110 114 54 48 118 82 29 
