P2 
32 30
151
10 44 43 41 40 37 35 33 31 28 26 24 22 20 19 18 24 18 20 17 
14 14 19 21 22 23 24 25 27 29 29 30 31 44 43 41 39 37 36 33 
31 29 27 25 24 22 21 21 27 18 22 20 18 19 22 23 24 25 26 27 
28 29 31 32 32 49 45 41 40 38 36 34 33 31 29 27 25 24 23 23 
29 21 25 23 21 22 24 25 26 26 28 29 30 31 33 33 33 6 49 41 
40 38 37 35 33 32 29 28 27 25 24 24 30 23 27 25 22 23 26 27 
27 28 29 30 31 32 33 33 33 8 48 42 40 39 38 36 34 33 31 30 
28 26 24 23 27 23 27 26 24 25 28 28 29 30 31 31 32 33 33 34 
34 30 46 42 41 39 38 36 35 33 32 31 29 23 8 3 5 6 7 9 
21 26 30 30 30 31 32 33 34 34 35 35 35 24 29 32 36 40 38 37 
35 34 33 32 27 3 0 0 0 0 1 1 4 20 30 31 32 33 33 34 
35 35 35 35 35 50 38 35 20 39 39 40 36 34 33 37 11 0 1 1 
0 0 14 34 11 11 22 31 32 32 33 33 33 33 33 34 34 25 33 46 
29 41 39 30 37 23 29 23 3 1 4 5 1 1 32 91 76 10 16 30 
31 32 33 33 33 33 33 34 33 19 4 5 22 8 17 2 17 1 2 10 
4 4 10 8 7 4 45 111 119 57 14 29 32 33 34 34 34 34 34 34 
35 24 3 5 21 5 4 1 18 2 11 3 3 4 6 9 16 16 67 118 
119 95 16 29 33 34 34 35 35 35 35 35 35 45 40 51 21 6 17 40 
40 23 16 1 5 6 5 5 7 24 101 115 90 97 31 28 34 34 35 35 
35 32 29 26 23 36 1 13 29 50 46 17 33 13 5 3 7 7 6 3 
10 78 136 125 94 117 36 23 26 26 25 24 23 24 23 29 30 33 1 11 
24 22 30 0 16 2 5 4 4 45 47 31 67 129 138 136 106 126 50 26 
29 31 33 33 29 21 16 34 34 37 15 16 28 4 7 8 15 0 4 7 
4 52 109 96 104 133 140 141 127 136 65 32 33 34 34 34 34 29 20 34 
33 34 8 37 29 6 13 44 46 20 11 8 6 19 115 116 115 128 140 142 
127 131 92 33 33 34 34 34 34 31 32 33 33 35 3 28 29 33 36 41 
42 44 23 3 6 19 95 90 107 126 138 139 125 100 63 33 33 33 33 34 
33 33 33 34 33 38 1 25 27 42 42 10 12 22 5 2 8 23 97 91 
89 121 136 136 103 90 37 33 29 25 25 31 18 25 34 33 32 46 38 39 
35 35 27 9 7 12 0 3 4 26 101 112 87 106 127 128 123 72 32 32 
11 6 7 28 7 18 32 31 31 15 15 14 15 33 13 15 13 24 17 16 
1 54 104 128 105 87 91 113 128 61 31 31 11 2 6 29 6 13 32 31 
30 0 0 0 0 29 14 31 30 35 36 29 9 75 100 133 116 88 49 51 
67 35 29 31 11 2 5 29 5 4 26 30 30 0 0 0 0 26 39 12 
1 37 24 7 28 90 93 134 135 125 79 49 43 36 26 30 11 1 4 29 
20 5 29 23 30 0 0 0 0 23 21 3 1 36 11 2 48 97 91 132 
136 123 114 61 46 36 23 27 17 4 4 18 11 1 17 18 29 0 0 0 
0 22 26 24 28 40 16 31 70 79 95 129 143 134 119 56 63 50 25 26 
16 7 19 22 25 26 5 6 18 0 0 0 0 21 27 23 22 30 27 58 
73 69 92 122 143 144 84 75 93 70 66 42 26 11 25 30 33 32 5 0 
28 11 9 14 15 26 25 25 25 45 65 60 77 73 85 123 142 131 76 64 
97 93 65 86 67 65 46 37 32 33 6 4 26 26 30 20 18 17 35 37 
59 68 56 43 69 40 63 104 135 101 88 16 83 96 76 80 82 68 66 65 
38 32 4 0 24 38 55 45 7 27 46 46 66 62 55 61 77 49 64 75 
71 103 97 93 64 90 76 65 79 72 50 71 38 19 29 9 23 22 24 16 
26 49 49 68 71 62 65 96 91 97 96 76 84 105 100 102 99 109 63 54 
69 88 46 64 40 14 0 0 8 1 7 17 39 56 57 67 74 61 63 108 
92 113 95 90 89 107 101 104 102 121 96 73 64 85 34 58 36 22 0 0 
