P2 
32 30
154
10 46 45 44 42 40 37 35 33 30 28 26 24 22 21 20 26 19 21 19 
15 15 21 22 24 25 26 27 29 31 31 33 33 46 44 43 41 39 37 35 
33 31 29 27 25 24 22 22 28 19 23 21 18 19 23 24 25 26 28 29 
29 31 32 33 34 51 47 43 41 39 38 36 34 32 30 28 26 25 24 24 
30 21 25 24 21 22 25 26 26 27 29 30 31 32 34 34 34 6 50 43 
41 39 38 36 35 33 31 29 28 26 25 25 32 23 27 25 22 23 27 27 
28 29 30 31 32 33 34 34 34 9 49 43 41 40 39 37 35 34 32 31 
29 28 25 26 32 25 28 26 24 25 28 29 29 30 32 32 33 34 34 35 
35 31 48 43 42 40 39 38 36 34 33 32 30 26 19 13 22 23 25 26 
26 26 30 30 31 32 32 33 34 35 36 36 35 25 29 33 37 41 39 38 
36 35 34 33 28 6 0 0 1 1 2 7 22 27 31 32 32 33 34 35 
35 36 36 35 36 53 40 37 22 41 41 42 37 36 34 37 9 0 0 0 
0 0 2 3 7 24 31 32 33 34 34 34 35 34 35 35 35 26 34 49 
30 44 41 32 38 25 31 20 1 1 0 2 1 1 18 63 19 17 31 33 
33 34 34 35 35 35 35 36 35 20 5 5 24 8 18 2 18 1 2 4 
5 5 8 7 1 2 28 100 86 8 28 34 34 35 35 36 36 36 36 37 
36 25 4 6 23 5 5 1 19 3 11 4 4 6 9 12 10 5 58 116 
111 36 22 34 35 36 36 36 37 37 37 37 36 48 42 53 23 6 18 42 
42 24 9 3 5 4 3 9 16 20 57 50 37 55 13 35 35 36 36 37 
36 34 30 27 25 38 2 14 32 53 48 17 34 14 4 6 9 6 8 13 
15 87 135 75 13 25 12 28 28 28 27 25 25 26 25 30 32 34 2 13 
27 24 32 0 17 2 4 4 4 29 84 56 54 130 143 81 10 6 16 28 
31 34 35 36 31 22 18 36 36 39 15 17 30 5 7 8 16 1 4 7 
5 16 120 108 116 137 143 123 14 57 30 33 34 35 35 35 35 30 20 35 
35 35 8 37 30 6 13 46 48 21 6 8 9 8 93 127 126 136 142 145 
109 123 73 33 33 34 34 34 34 31 32 34 34 36 3 29 30 34 37 42 
44 42 5 3 10 24 108 113 115 136 142 143 117 90 55 34 34 34 34 34 
34 34 34 34 34 39 1 26 29 43 44 10 13 23 1 4 9 31 109 119 
98 125 141 141 104 72 34 34 29 25 25 32 18 26 34 34 34 48 40 41 
37 37 29 10 9 12 1 3 8 49 115 132 110 109 126 132 121 57 33 33 
12 6 7 29 7 19 34 33 32 16 15 15 16 35 14 15 14 26 13 1 
13 97 120 142 120 101 92 105 119 43 32 33 11 3 7 30 7 13 33 33 
33 0 0 0 0 32 14 33 32 37 33 3 47 105 117 143 125 88 45 48 
56 30 30 32 12 3 7 30 5 3 27 32 32 0 0 0 0 28 41 12 
1 39 26 7 85 105 112 145 136 103 57 50 44 37 27 31 12 2 5 31 
20 5 31 25 31 0 0 0 0 25 23 4 1 38 13 41 95 104 113 147 
131 112 61 52 44 37 24 29 18 5 5 19 11 1 18 19 31 0 0 0 
0 23 28 26 29 42 31 70 76 101 116 144 136 95 74 59 52 37 24 26 
17 7 21 24 26 28 6 5 19 0 0 0 0 22 28 24 23 35 56 74 
73 88 125 137 138 70 79 87 70 63 46 38 15 8 25 31 33 32 4 0 
29 11 10 15 16 28 30 26 41 58 60 76 58 86 128 135 101 75 30 94 
93 75 85 66 68 54 44 29 33 34 6 3 27 27 32 21 23 41 36 59 
65 50 39 70 30 70 102 90 95 88 50 80 101 77 82 83 62 43 68 32 
30 33 4 0 25 39 57 47 36 45 50 63 59 54 75 81 59 78 67 81 
110 98 103 83 102 70 61 76 76 46 71 44 17 19 29 10 23 23 25 33 
53 50 74 71 60 66 96 89 104 100 83 93 109 101 105 97 117 75 56 75 
85 35 63 26 26 0 0 0 8 1 13 44 61 59 69 76 61 57 109 96 
115 94 93 88 112 103 105 101 121 96 89 69 81 40 50 41 34 0 0 0 
