P2 
32 30
155
10 46 45 44 42 40 37 35 33 30 28 26 24 22 21 20 26 20 21 19 
15 15 20 22 23 25 26 27 29 30 31 33 33 46 45 44 41 39 37 35 
34 31 29 27 25 24 22 22 28 19 23 21 18 19 23 24 25 26 27 28 
30 31 32 33 34 51 47 43 41 39 37 36 34 31 30 28 26 24 23 24 
30 21 25 23 20 22 25 26 26 27 28 30 31 32 34 34 34 6 50 43 
41 40 38 36 34 33 31 29 27 26 25 25 32 24 27 25 22 23 27 27 
28 29 30 31 32 33 34 34 35 9 50 43 42 41 39 37 36 34 32 31 
29 28 26 26 33 26 28 27 24 25 29 30 30 31 32 32 33 34 35 36 
36 31 48 44 43 41 39 37 36 34 33 32 30 27 19 16 25 23 25 27 
26 27 30 30 31 32 33 33 35 35 36 36 36 25 29 33 37 41 40 38 
37 35 34 32 27 5 1 1 1 1 2 10 24 27 31 32 33 33 34 35 
36 36 36 36 36 53 41 38 22 42 42 42 38 36 35 37 7 0 0 1 
0 0 3 3 10 26 32 33 34 34 35 36 35 36 36 36 36 27 35 50 
32 45 42 32 40 26 32 18 1 1 0 2 1 1 19 59 15 22 32 34 
35 35 36 36 36 36 36 37 36 20 4 5 24 9 18 2 18 1 2 2 
4 4 6 6 1 1 24 94 76 7 30 34 34 35 35 36 36 36 36 36 
36 25 4 5 22 5 4 1 19 3 9 4 3 5 9 10 7 2 49 110 
104 30 23 33 34 35 35 35 36 36 36 36 36 47 42 53 22 6 18 42 
42 23 7 3 4 4 3 9 15 16 51 41 17 41 16 34 35 35 36 36 
36 34 30 26 24 38 2 14 31 52 47 17 34 14 3 3 8 5 6 13 
16 74 136 86 17 10 17 28 27 27 26 24 24 25 24 30 32 34 1 12 
26 23 32 0 17 2 3 5 5 15 80 53 49 118 143 100 13 8 19 27 
30 33 34 35 30 22 17 36 35 39 16 17 30 5 7 9 16 1 4 6 
5 4 119 103 117 136 144 140 38 63 47 33 34 35 36 36 36 30 21 35 
35 36 9 38 31 7 14 47 48 21 7 9 10 5 82 130 126 138 141 146 
123 117 84 34 34 35 35 36 35 32 33 35 35 36 3 29 30 34 37 43 
44 43 6 4 9 18 99 120 115 135 142 144 117 92 47 34 35 34 34 35 
34 34 35 35 34 39 1 26 29 43 44 10 13 23 2 3 8 26 101 127 
104 119 140 141 108 69 34 34 29 25 25 32 18 26 34 34 33 48 40 41 
37 37 29 10 9 12 0 2 7 39 106 137 119 109 121 131 122 66 33 34 
13 6 8 29 7 20 34 33 33 16 16 16 16 36 15 16 15 26 11 2 
8 86 120 145 129 108 92 93 113 53 32 33 12 4 7 31 7 13 34 33 
33 0 0 0 0 31 14 33 32 37 31 1 29 101 118 145 131 99 48 38 
40 30 30 32 11 3 6 30 5 3 27 32 32 0 0 0 0 27 41 12 
1 39 25 4 75 104 113 146 139 104 73 50 44 37 26 31 11 1 5 30 
20 5 30 25 31 0 0 0 0 25 23 4 1 38 12 40 87 102 115 147 
133 113 65 52 43 37 24 29 18 4 5 19 11 1 18 18 31 0 0 0 
0 22 27 26 29 42 27 69 73 97 119 142 129 105 68 62 51 37 24 26 
17 6 20 23 25 27 6 5 19 0 0 0 0 21 27 23 22 35 51 73 
70 81 127 134 135 73 77 88 67 62 44 36 14 7 24 29 32 32 5 0 
28 12 10 15 16 27 30 25 39 58 60 75 60 81 128 133 103 77 26 96 
91 75 85 66 67 52 43 29 32 33 5 3 27 28 33 22 23 42 37 61 
66 53 40 69 38 61 104 88 93 93 51 78 101 79 84 85 64 46 69 33 
32 34 4 0 27 40 58 48 36 46 51 64 61 55 77 81 63 77 68 78 
108 102 102 83 100 72 63 78 76 47 72 45 18 20 29 10 24 24 26 33 
53 51 74 73 61 64 102 87 107 97 91 89 108 103 104 97 117 74 56 74 
86 36 64 27 26 0 0 0 8 1 13 46 61 61 68 77 63 57 108 97 
117 96 100 85 112 106 104 104 120 96 88 69 83 41 51 42 35 0 0 0 
