P2 
32 30
153
10 45 44 42 40 38 36 34 31 29 27 25 23 21 19 19 25 19 20 18 
15 15 20 21 22 23 25 26 28 29 30 31 32 44 43 42 40 38 36 33 
32 29 28 25 23 22 21 21 27 18 22 20 18 19 22 23 24 25 26 27 
28 30 31 32 32 49 45 41 40 38 36 34 33 30 28 27 25 24 22 23 
29 21 25 23 20 21 24 25 26 26 28 29 30 31 32 33 33 6 49 42 
40 39 37 35 34 32 30 28 27 25 24 24 31 23 27 25 23 23 26 27 
28 28 29 31 31 32 33 34 34 8 48 42 41 39 38 36 35 33 31 30 
28 26 24 23 29 23 26 26 24 25 28 29 29 30 31 31 32 33 34 34 
35 30 47 42 41 39 38 37 35 34 32 31 29 19 7 3 6 3 4 8 
21 26 30 30 30 31 32 33 33 34 35 35 35 24 28 32 36 40 39 37 
36 35 34 32 22 1 0 0 0 0 1 1 7 18 30 31 32 33 34 34 
35 35 36 35 35 52 40 37 22 41 41 41 38 36 34 36 5 0 1 1 
0 1 21 37 12 14 26 33 33 34 35 35 35 35 35 36 35 25 33 47 
29 42 40 30 37 24 30 19 1 0 3 2 0 1 36 91 76 10 21 31 
31 33 33 34 33 34 33 34 34 20 4 5 22 8 17 2 17 1 2 5 
5 4 7 8 3 3 45 112 115 56 18 31 32 33 34 34 34 34 35 35 
34 25 3 5 21 5 4 1 19 3 11 3 4 3 10 10 15 12 62 116 
101 93 15 31 33 34 35 35 35 35 35 35 35 46 40 51 21 6 17 40 
41 23 13 1 3 6 4 6 10 20 87 119 107 103 28 30 33 34 35 35 
35 33 29 26 23 37 2 13 30 50 46 17 33 13 4 1 8 6 4 5 
6 42 131 131 90 114 45 26 26 26 26 24 23 25 23 28 30 33 1 12 
25 22 31 0 16 2 4 4 7 13 19 13 30 117 141 136 110 128 48 27 
29 32 34 34 30 21 16 34 35 37 15 16 29 5 7 8 15 0 5 4 
4 41 95 83 86 131 142 144 129 136 90 33 34 34 35 35 34 29 20 34 
34 35 8 37 29 6 13 45 46 20 8 8 8 14 120 119 111 123 137 143 
132 126 115 34 34 33 34 35 34 31 32 33 33 35 3 28 29 33 36 41 
42 44 20 5 8 7 81 101 103 120 133 142 128 115 58 33 34 33 34 34 
33 33 34 33 33 38 1 26 27 42 43 10 12 23 6 2 5 14 86 107 
87 114 133 140 119 90 43 34 29 25 25 31 18 26 34 33 32 47 39 40 
36 36 28 10 8 12 0 3 7 16 86 122 96 100 123 132 125 96 36 33 
12 6 7 29 7 19 33 32 32 15 15 15 15 34 14 15 13 25 17 11 
4 32 91 131 118 97 92 102 126 92 31 32 12 3 6 30 7 13 32 32 
31 0 0 0 0 29 13 32 30 35 36 27 3 56 95 132 124 101 64 46 
56 43 29 31 11 2 5 29 5 3 26 31 31 0 0 0 0 27 39 12 
1 38 25 7 20 85 90 131 138 124 89 52 43 37 26 30 11 1 5 30 
21 5 30 24 30 0 0 0 0 23 21 3 1 37 11 1 44 93 90 128 
140 123 113 62 46 37 23 28 18 5 5 18 11 1 18 19 30 0 0 0 
0 21 26 24 27 40 15 27 69 76 93 124 142 129 124 52 62 46 24 25 
16 6 19 22 24 25 5 6 18 0 0 0 0 21 27 22 22 30 25 54 
74 69 85 120 139 142 91 70 90 67 64 39 25 10 24 29 32 32 5 0 
28 11 10 14 16 27 25 26 25 44 64 62 77 76 79 125 139 138 79 65 
95 92 65 86 67 63 45 37 33 34 6 4 27 27 31 20 19 17 34 37 
59 68 58 44 68 48 55 105 131 105 91 24 75 95 76 80 82 68 67 65 
38 33 4 0 25 38 56 46 8 25 46 46 66 62 56 63 77 54 62 76 
70 101 99 93 65 88 77 66 78 73 51 70 39 20 30 9 23 23 25 17 
26 49 51 68 72 62 64 101 89 99 93 82 80 103 102 101 97 107 64 56 
67 89 49 63 41 13 1 0 8 1 7 17 39 56 59 66 74 63 62 109 
92 115 95 98 84 106 102 103 102 122 95 76 63 86 37 57 35 21 0 0 
