P2 
32 30
154
10 46 44 43 41 39 37 34 32 30 28 26 24 22 20 20 25 18 20 17 
13 13 19 21 23 24 25 27 28 30 31 32 33 46 45 44 42 40 38 36 
34 32 30 28 27 25 23 23 29 19 22 20 18 19 23 25 26 26 28 29 
30 31 33 34 34 51 47 43 41 40 38 36 34 32 30 29 27 26 24 24 
30 21 24 22 20 22 25 25 26 28 29 30 31 33 34 34 35 6 50 43 
41 40 38 37 35 33 32 30 29 27 25 25 32 23 26 24 22 23 26 27 
27 29 30 31 32 33 34 34 35 9 49 43 42 40 39 37 36 34 32 31 
28 26 26 27 33 24 27 25 23 24 28 29 29 30 31 31 32 34 34 35 
35 31 47 43 42 40 39 37 36 34 30 15 4 5 10 19 34 27 26 26 
24 25 29 29 30 31 31 32 34 34 35 35 35 24 29 32 36 40 39 38 
35 25 5 0 0 2 7 5 14 29 27 27 26 26 30 30 31 32 33 34 
34 35 35 35 35 53 40 37 22 41 41 41 34 5 1 2 5 5 3 7 
10 14 28 28 27 27 31 32 32 33 34 34 34 34 35 35 35 27 34 49 
31 44 41 30 19 1 15 19 2 2 4 4 12 10 19 30 28 28 32 33 
32 33 34 35 35 35 35 36 35 20 4 5 24 8 18 3 2 6 32 49 
9 0 4 4 10 16 8 30 29 29 33 33 33 34 35 35 35 35 35 36 
35 25 4 6 22 5 5 1 6 11 16 29 17 4 5 3 7 13 11 26 
29 29 33 33 33 34 34 35 35 36 36 36 35 47 42 52 22 6 18 36 
19 5 5 72 86 42 3 7 10 11 14 18 29 29 33 34 34 34 35 36 
35 33 29 26 24 38 2 14 32 53 47 17 36 5 2 74 123 110 38 38 
49 13 12 16 27 28 31 28 27 27 26 24 24 24 23 29 31 34 2 12 
27 24 32 0 7 2 0 88 136 137 100 118 103 20 8 18 19 18 24 27 
30 32 33 34 29 21 16 35 35 39 16 18 31 5 8 3 41 47 34 125 
137 140 141 130 118 8 7 12 24 27 32 33 34 35 35 35 35 29 20 35 
34 37 9 39 31 7 14 29 81 125 91 134 141 145 138 126 97 11 9 10 
24 28 33 34 34 34 35 35 35 32 33 35 34 37 3 30 31 35 37 38 
52 81 90 118 140 145 125 120 121 14 10 10 16 29 33 33 34 34 34 34 
34 34 34 35 34 38 1 26 29 43 44 10 14 60 81 105 138 135 112 124 
135 23 5 8 14 27 32 32 28 23 24 30 17 24 33 32 31 48 40 41 
38 37 28 10 8 43 105 113 119 110 116 131 138 64 1 4 13 27 31 32 
11 5 6 27 6 18 32 32 31 16 15 15 16 35 15 16 14 39 95 102 
85 93 114 134 141 100 5 6 15 25 30 31 10 2 6 29 6 12 32 32 
31 0 1 0 0 31 14 33 32 37 44 42 44 67 113 140 139 108 27 26 
22 26 28 31 10 2 5 29 3 1 26 31 31 0 1 0 0 28 41 12 
1 39 26 7 45 72 118 142 139 108 66 50 43 36 26 30 11 1 4 30 
17 4 30 24 31 0 0 0 0 25 23 4 2 38 13 17 63 86 103 135 
139 109 65 67 43 37 24 28 18 4 5 18 10 1 18 19 31 0 0 0 
0 23 28 26 30 42 19 50 61 117 106 119 138 110 53 90 59 55 23 26 
16 6 20 23 25 27 6 6 19 0 0 0 0 22 28 24 23 32 35 64 
55 113 137 109 136 99 72 101 88 64 59 50 29 10 24 29 32 32 5 0 
29 11 10 15 16 28 29 25 31 45 46 71 69 90 139 122 130 78 51 94 
93 73 84 84 64 67 54 38 32 33 6 4 27 28 32 21 20 31 35 55 
61 56 46 63 31 72 112 123 97 89 45 65 99 93 72 86 74 61 56 58 
31 33 4 0 26 40 57 47 16 43 42 63 66 51 51 66 45 65 73 69 
106 104 102 92 86 93 62 69 80 63 52 70 26 20 29 9 23 23 25 21 
42 51 66 73 64 54 100 85 101 96 84 79 106 106 108 105 111 88 71 55 
87 58 50 50 47 3 0 0 8 1 7 30 51 62 62 75 64 57 102 90 
114 96 97 86 107 103 106 109 114 106 99 66 81 61 41 54 21 27 0 0 
