P2 
32 30
155
10 45 44 43 41 39 36 34 32 29 27 26 24 22 20 19 25 19 20 17 
13 14 19 21 22 23 25 26 28 29 30 31 32 46 45 44 42 40 38 36 
34 32 30 28 26 24 23 23 29 20 23 21 19 19 24 25 26 27 28 29 
30 31 33 34 35 51 47 44 42 40 38 36 34 33 31 29 27 26 24 24 
30 22 25 23 21 22 25 26 27 27 29 30 31 33 34 34 35 6 50 43 
41 39 38 37 35 33 31 30 28 27 25 25 32 23 27 24 22 23 27 27 
28 29 30 31 32 33 34 34 35 8 49 43 42 40 39 37 35 34 33 31 
29 25 23 26 34 25 27 26 24 24 28 29 29 30 31 31 32 34 35 35 
35 31 47 43 41 40 39 37 36 34 33 26 8 4 2 2 11 22 27 27 
25 26 29 30 30 31 32 33 34 35 35 35 35 24 29 32 36 41 39 38 
36 34 25 5 0 1 3 4 5 5 18 28 26 27 30 31 31 33 33 34 
35 35 35 35 35 53 40 37 22 41 41 42 38 28 5 0 0 0 7 7 
8 10 6 22 27 28 31 32 33 33 34 34 35 35 35 36 35 27 35 49 
31 44 41 32 38 13 0 1 4 6 5 2 5 15 12 9 27 29 33 33 
33 34 34 35 35 35 35 36 35 20 4 5 24 8 18 2 15 0 3 14 
17 6 3 5 4 11 16 13 23 30 34 34 34 34 35 35 35 36 36 36 
36 25 4 5 22 5 4 1 12 2 6 37 66 29 6 2 2 12 13 9 
13 30 34 34 34 35 35 35 36 36 36 36 36 47 42 52 23 6 18 41 
28 5 13 29 45 56 16 2 1 6 10 18 9 27 34 34 34 35 35 36 
35 33 30 26 24 38 2 14 31 52 47 17 28 11 16 22 68 98 85 25 
5 11 15 13 22 23 31 28 27 27 26 24 24 25 24 30 31 34 2 12 
26 24 32 0 16 14 54 53 107 125 126 106 57 69 71 2 10 17 24 27 
30 32 34 34 30 22 16 35 35 39 16 17 31 5 7 9 16 16 78 68 
103 131 143 139 116 114 100 8 4 16 33 34 35 35 36 35 35 30 20 35 
35 36 9 39 31 7 14 47 48 23 93 106 98 134 141 142 142 133 72 7 
3 15 33 34 34 35 35 35 35 32 33 35 35 37 3 30 31 35 38 43 
45 48 109 116 88 126 138 143 131 122 90 5 6 13 33 34 35 35 35 35 
35 35 35 35 35 39 1 26 29 43 44 10 13 24 89 101 90 114 139 140 
118 123 115 7 6 11 32 33 29 25 25 31 18 25 34 33 32 47 39 41 
37 36 28 10 8 12 22 71 69 103 135 132 112 129 130 40 1 19 31 32 
11 5 7 28 6 18 33 32 31 16 15 15 15 35 14 15 14 25 19 45 
96 105 118 106 115 132 133 79 9 25 31 32 11 3 6 30 6 13 33 33 
32 0 1 0 0 31 14 33 31 37 38 40 86 112 80 82 109 135 133 102 
23 27 29 32 11 2 6 30 5 3 27 31 32 0 1 0 0 28 41 12 
1 39 26 8 54 57 25 54 106 142 132 108 53 37 27 31 11 1 5 31 
22 5 31 25 32 0 0 0 0 25 23 4 2 39 13 2 22 37 51 77 
113 136 134 109 60 55 26 29 19 5 5 19 12 2 19 21 32 0 0 0 
0 22 27 26 29 42 17 15 29 61 74 107 96 125 135 103 57 79 60 42 
17 7 20 23 26 27 6 9 19 0 0 0 0 22 28 24 22 31 15 35 
49 68 58 130 123 111 134 96 74 101 82 71 41 32 29 30 33 33 5 0 
29 11 10 15 16 27 26 21 28 33 49 49 58 71 79 106 144 113 134 82 
79 103 98 63 89 75 64 49 39 34 7 6 27 27 31 20 19 17 26 37 
39 62 69 54 46 72 27 92 129 123 106 90 26 99 99 78 80 84 72 75 
70 45 4 0 26 40 57 47 8 1 32 48 48 69 64 55 48 71 22 68 
99 89 96 85 75 63 98 82 70 86 76 58 72 49 31 10 24 23 25 17 
16 13 52 50 73 75 63 70 95 88 94 95 62 83 108 92 109 99 103 65 
58 75 92 52 68 56 12 0 8 1 7 13 23 39 60 58 71 76 62 73 
103 88 106 104 75 96 111 97 112 108 119 99 70 69 88 34 62 29 31 1 
