P2 
32 30
152
10 44 43 41 39 38 35 33 31 28 26 24 23 21 19 19 25 18 20 17 
13 14 19 21 21 23 24 25 27 28 29 30 31 44 43 41 39 38 35 34 
31 29 28 26 24 22 21 21 27 18 22 20 17 18 21 22 23 25 26 26 
28 29 31 31 32 49 45 41 39 38 36 34 32 30 28 27 25 24 22 23 
29 21 25 22 20 21 24 25 25 26 27 28 30 31 32 32 33 6 48 41 
40 38 36 35 33 31 30 28 27 25 24 24 31 23 26 24 22 23 26 26 
27 28 29 30 31 32 33 33 33 8 47 41 40 39 37 35 34 32 31 29 
28 26 25 26 32 25 27 26 24 24 27 28 28 29 30 30 31 33 33 34 
34 29 46 41 40 39 37 36 34 33 31 30 29 27 26 26 30 25 26 26 
24 25 28 29 29 30 31 32 32 33 34 34 34 23 27 31 35 39 38 36 
35 34 32 31 29 28 27 13 7 8 11 22 26 26 29 30 31 31 32 33 
33 34 34 34 34 51 39 36 21 40 40 40 37 35 33 37 33 20 13 19 
28 14 8 5 21 27 30 31 32 32 33 33 34 34 34 34 34 25 33 47 
29 42 40 31 37 24 30 27 15 2 39 66 91 66 18 12 8 27 31 32 
32 33 33 34 34 33 34 34 34 19 4 5 23 8 17 2 17 1 2 14 
0 13 52 90 119 124 90 42 12 20 31 32 32 33 33 34 34 34 34 34 
34 24 3 5 21 4 4 1 18 2 10 13 1 23 71 75 85 107 87 90 
24 9 32 32 32 33 34 34 34 34 34 35 34 44 39 50 21 6 17 40 
40 22 17 13 2 40 93 93 85 115 113 118 59 4 31 32 32 33 34 34 
33 31 28 25 22 36 1 13 29 49 45 16 32 12 5 4 0 62 109 123 
93 109 115 135 97 6 23 26 25 25 24 22 22 23 22 27 29 31 1 11 
24 21 30 0 15 2 4 1 0 68 114 102 91 109 109 133 107 1 15 25 
27 30 32 32 28 20 15 33 32 36 14 16 28 4 6 8 14 0 5 0 
5 63 105 105 111 120 126 129 109 8 21 32 33 33 34 34 33 28 19 33 
33 34 8 37 29 6 13 45 46 21 18 1 46 66 95 95 109 122 124 119 
106 30 10 33 34 34 34 35 34 31 32 34 34 35 3 28 28 32 36 40 
42 44 39 4 38 55 67 58 63 76 78 91 75 18 7 32 33 34 33 33 
33 33 33 33 33 37 1 25 27 41 42 9 12 22 7 2 1 24 47 49 
59 65 76 76 16 0 22 32 28 24 24 31 17 25 33 33 32 46 38 39 
35 35 27 9 7 11 2 7 0 26 68 69 106 114 104 98 23 2 28 32 
11 5 7 28 6 18 32 31 31 15 14 14 15 33 13 15 13 25 18 17 
0 25 87 82 116 132 116 116 36 9 30 31 11 2 6 29 6 12 32 32 
31 0 0 0 0 29 13 31 29 35 36 29 1 21 99 92 119 140 124 128 
48 20 28 30 10 2 5 29 4 2 25 30 30 0 0 0 0 26 39 11 
1 37 24 7 3 24 104 103 121 141 133 137 70 35 25 29 10 1 5 29 
19 4 29 24 30 0 0 0 0 23 21 3 1 36 11 1 14 49 107 121 
123 144 138 142 85 49 23 27 18 4 5 18 11 1 17 18 29 0 0 0 
0 21 25 24 27 39 16 13 34 66 88 130 127 141 143 131 71 78 53 32 
16 6 19 22 24 26 5 5 18 0 0 0 0 20 26 22 20 29 13 32 
58 71 72 126 143 144 144 90 82 100 78 69 30 21 24 28 31 30 4 0 
27 11 9 14 15 25 24 19 23 27 47 52 58 73 63 98 140 144 126 76 
54 102 95 62 87 69 60 41 33 32 5 3 25 26 30 19 18 15 25 33 
39 56 65 50 47 70 22 82 118 135 97 76 13 94 98 74 81 84 71 73 
65 39 4 0 24 38 55 45 7 1 29 44 49 66 59 54 62 74 39 76 
78 78 106 96 99 61 92 78 69 85 74 54 72 43 29 10 22 22 24 16 
15 13 50 50 68 71 56 82 85 93 95 99 69 90 109 96 110 104 106 61 
54 79 89 48 71 51 6 0 8 1 7 13 22 39 62 54 72 73 58 83 
100 100 106 104 78 94 114 100 113 108 119 99 62 73 86 34 63 24 30 0 
