P2 
32 30
157
10 49 47 46 44 42 39 37 35 32 30 27 25 23 22 21 27 20 22 19 
15 16 21 23 24 26 27 29 30 32 33 34 35 48 48 46 44 42 40 38 
36 33 31 29 27 25 24 24 30 21 24 22 19 20 24 26 27 28 29 30 
32 33 35 35 36 54 50 46 44 42 40 38 36 34 32 30 29 27 25 26 
32 23 27 25 22 23 27 28 28 29 31 32 33 35 36 36 37 7 53 46 
44 43 41 39 37 35 33 32 30 28 27 27 34 25 28 27 24 25 29 29 
30 31 32 33 34 35 37 37 37 10 53 46 44 43 41 40 38 36 34 33 
31 29 28 28 35 27 29 28 26 26 31 31 32 33 34 34 35 37 37 38 
38 34 51 46 45 43 42 40 38 37 35 34 30 26 21 7 7 10 18 26 
27 28 32 32 33 34 35 36 37 38 38 38 38 27 31 35 39 44 42 40 
39 38 36 34 15 3 1 1 2 5 8 10 26 29 33 34 34 35 36 37 
38 38 38 38 38 56 43 40 24 44 44 44 40 38 36 26 2 2 22 15 
6 5 4 11 11 29 34 34 35 36 37 37 37 37 37 38 38 29 37 52 
33 47 44 34 41 26 32 9 1 39 80 65 21 18 21 6 4 26 34 35 
35 36 37 37 37 37 37 38 38 22 5 6 26 9 19 3 20 1 4 3 
6 68 103 101 52 31 32 21 1 20 36 36 36 37 37 38 38 39 38 39 
39 27 5 6 24 6 5 1 21 3 11 9 8 73 97 116 95 49 35 22 
2 15 36 36 36 37 37 38 38 38 38 39 38 49 44 55 24 7 19 44 
44 25 7 3 16 40 43 85 135 68 23 32 7 11 35 36 36 37 37 38 
37 35 32 28 25 40 2 15 33 55 50 18 36 15 1 0 15 10 2 11 
68 9 10 30 12 9 33 30 29 29 28 26 26 27 25 31 33 36 2 13 
28 25 34 0 17 2 1 0 27 30 0 10 99 10 4 31 7 8 26 29 
32 35 37 37 32 23 18 38 37 41 16 18 32 5 7 9 16 1 1 11 
46 14 2 48 133 54 9 29 14 7 34 35 36 37 37 38 37 32 22 37 
36 38 9 40 32 7 14 48 50 19 4 31 65 99 114 88 128 115 128 115 
22 9 33 35 35 36 36 37 36 33 34 36 36 39 3 32 34 37 40 45 
47 49 27 13 68 99 111 97 114 119 133 117 20 30 35 36 37 37 37 37 
37 37 38 38 37 41 2 28 31 46 47 11 14 25 7 2 23 90 107 70 
95 98 129 87 12 32 36 36 32 28 28 34 20 28 37 37 36 51 43 44 
40 40 31 11 9 13 3 16 15 76 104 110 117 131 120 36 18 30 34 35 
13 7 8 31 8 21 36 35 35 17 17 17 17 38 16 17 16 27 20 33 
18 63 67 108 129 116 77 21 19 29 34 35 13 5 8 32 8 14 36 36 
35 1 2 0 0 33 15 35 34 39 40 38 34 81 54 51 67 65 88 34 
24 29 32 34 13 3 7 32 6 2 29 34 35 1 2 0 0 29 43 13 
1 42 27 8 37 100 105 117 132 121 111 54 46 39 28 33 13 2 5 32 
21 5 33 27 34 1 1 0 0 26 25 4 2 41 13 3 45 107 130 129 
140 142 97 73 46 39 26 31 20 5 6 20 12 2 20 20 34 0 0 0 
0 24 30 28 31 44 19 36 58 87 140 146 150 143 66 94 54 51 25 28 
18 7 22 25 28 29 6 5 21 0 0 0 0 23 30 26 24 33 24 63 
73 63 136 151 150 96 67 102 83 76 57 49 31 13 27 32 36 35 5 0 
31 12 11 16 17 29 30 29 29 51 47 61 72 51 109 148 128 92 23 83 
95 85 86 86 65 70 60 44 35 36 6 4 29 30 34 22 21 27 45 42 
62 65 49 44 63 29 90 90 103 105 75 67 95 103 73 87 74 56 58 61 
33 36 4 0 28 43 61 50 11 43 52 63 70 55 73 79 76 70 82 69 
107 120 98 103 92 98 63 68 82 64 56 73 40 21 31 10 26 25 27 20 
38 62 57 77 71 60 88 94 98 102 109 78 110 113 104 106 109 99 79 58 
88 56 54 48 53 14 0 0 9 1 8 30 53 68 57 81 74 59 79 108 
104 111 104 89 106 113 108 113 110 113 107 68 83 61 40 60 29 36 0 0 
