P2 
32 30
155
10 47 46 44 42 40 37 35 33 31 29 26 25 23 21 20 26 20 21 18 
15 14 20 22 23 25 26 27 29 31 31 33 33 46 45 44 42 40 38 36 
34 32 29 28 26 24 23 23 29 19 23 21 18 19 23 25 26 27 28 29 
30 31 33 34 34 51 47 44 41 40 38 36 34 32 30 28 27 26 24 24 
31 21 25 23 20 22 25 26 27 27 29 30 31 33 34 34 35 6 51 43 
42 40 39 37 35 33 31 30 29 27 25 26 32 24 27 25 22 23 27 27 
28 29 30 31 32 33 34 35 35 9 50 43 42 41 39 37 35 34 32 31 
30 28 27 28 34 26 28 26 24 25 28 29 30 31 32 32 33 34 35 36 
36 32 48 44 43 41 40 38 36 35 33 32 31 29 27 28 35 28 28 27 
26 26 30 30 31 32 33 34 35 35 36 36 36 25 29 33 37 41 40 39 
37 36 34 33 32 25 14 15 19 26 28 28 27 27 31 31 32 33 34 35 
35 36 36 36 36 53 41 37 22 42 42 42 38 36 34 37 30 8 7 8 
6 6 21 29 27 28 32 32 33 33 34 35 34 35 35 35 35 27 35 49 
31 44 42 32 39 24 30 17 12 59 77 51 15 12 5 26 28 28 32 33 
33 34 34 35 35 35 35 35 35 20 4 5 24 8 18 2 18 1 2 2 
24 19 61 75 14 4 19 14 29 29 33 34 33 34 35 35 35 36 35 36 
36 25 4 6 22 5 4 1 19 2 4 3 33 12 9 47 18 0 7 2 
26 29 34 34 34 35 35 35 36 36 36 36 36 46 41 52 22 6 18 41 
41 22 2 4 13 14 51 125 46 16 26 1 19 29 33 33 33 34 35 35 
35 33 29 26 23 38 2 14 32 53 48 18 34 14 1 23 68 96 85 102 
116 131 112 12 15 29 31 28 27 27 26 24 24 25 24 30 32 34 2 13 
27 24 32 0 17 3 1 35 101 118 92 102 111 134 125 16 10 19 24 27 
30 33 35 35 30 22 17 36 35 39 16 17 31 5 7 9 16 0 1 32 
100 108 102 118 122 130 125 34 11 27 33 33 35 35 36 36 35 30 21 35 
35 36 9 39 30 7 14 46 48 12 5 45 92 101 111 125 127 125 116 68 
1 26 33 34 34 35 35 35 35 32 33 35 35 37 3 29 30 35 37 42 
44 35 10 69 71 74 70 87 87 93 83 46 1 23 33 33 34 34 34 35 
34 34 35 35 34 39 1 27 29 43 44 10 13 21 0 13 45 54 51 64 
73 86 47 0 10 28 33 34 29 25 25 31 18 26 34 34 33 48 40 42 
37 37 29 10 8 11 0 0 52 67 88 108 108 98 59 0 13 28 32 33 
12 5 7 29 6 19 33 33 32 16 15 15 16 36 15 16 15 26 5 0 
63 88 95 130 127 112 74 2 15 26 31 32 11 3 7 30 6 12 33 33 
32 0 1 0 0 31 14 33 32 36 19 0 66 108 102 138 134 126 84 10 
22 27 29 32 11 2 6 30 2 1 27 32 31 0 0 0 0 28 41 12 
1 39 24 0 66 119 108 132 138 136 99 32 43 37 26 31 11 1 4 30 
14 4 30 25 30 0 0 0 0 25 23 4 1 39 13 14 77 126 122 141 
143 145 98 66 43 37 24 28 18 4 5 18 7 1 18 18 30 0 0 0 
0 23 28 26 29 42 17 52 60 124 140 139 147 144 72 89 54 48 24 27 
16 7 20 23 25 27 6 5 19 0 0 0 0 22 29 24 23 32 36 71 
68 101 142 149 148 109 67 95 82 71 59 46 27 9 25 30 33 32 5 0 
29 12 10 15 17 28 28 22 28 48 49 68 62 70 115 148 137 90 32 68 
92 78 84 84 67 67 52 38 34 34 5 3 28 28 33 21 20 29 34 50 
60 56 47 58 52 44 89 99 104 101 82 65 86 93 73 87 77 59 57 58 
31 33 4 0 26 41 59 48 15 43 43 63 66 52 71 78 73 81 80 67 
102 119 100 107 95 92 61 67 82 67 53 68 22 20 30 9 24 24 26 21 
40 52 67 74 64 57 102 83 107 95 110 73 108 110 107 107 110 95 75 56 
87 57 50 50 40 2 0 0 8 1 7 30 51 65 62 76 65 57 104 98 
120 101 106 81 101 110 110 109 115 110 103 66 81 61 38 55 21 24 0 0 
