P2 
32 30
153
10 44 43 41 40 37 35 33 31 29 27 24 23 21 19 18 24 18 19 16 
13 12 18 20 21 22 24 25 27 28 29 30 31 45 44 43 40 39 37 35 
33 30 29 27 25 24 22 22 28 19 22 20 17 18 23 24 25 26 27 28 
29 30 32 33 33 50 46 43 41 39 38 36 34 32 30 28 27 25 24 24 
30 21 25 23 20 21 24 25 26 27 28 29 31 32 33 33 34 6 49 42 
41 39 38 36 34 32 31 29 28 26 24 25 31 23 26 24 22 22 26 26 
27 28 29 30 31 32 33 33 34 8 48 42 41 39 38 36 35 33 32 30 
27 21 19 23 31 25 26 25 23 24 27 28 28 30 30 31 32 33 34 34 
34 30 46 42 41 39 38 36 35 34 31 25 7 0 1 2 6 20 27 26 
24 25 28 29 29 30 31 32 33 34 34 34 34 24 28 32 35 40 38 37 
36 33 22 2 0 0 2 7 6 5 19 27 25 26 29 30 30 31 32 33 
34 34 34 34 34 52 39 36 22 40 41 41 37 31 3 0 1 4 4 4 
7 10 9 22 27 27 31 31 32 32 33 33 34 34 34 34 34 26 34 48 
30 43 41 31 37 14 0 5 14 8 4 3 4 11 12 10 27 28 32 32 
32 33 33 34 34 34 34 35 34 20 4 5 23 8 18 2 16 1 3 20 
49 42 5 3 2 8 14 10 24 29 33 33 32 33 34 34 35 35 35 35 
35 25 4 5 22 5 4 1 16 4 11 20 35 52 18 5 2 9 12 7 
16 29 33 33 33 34 34 35 35 35 35 35 35 46 41 51 22 6 17 41 
38 11 20 17 53 88 75 22 1 7 9 16 10 28 33 33 33 33 34 35 
34 32 28 25 23 37 2 14 31 51 47 17 31 12 70 59 94 121 123 94 
20 17 28 11 18 25 30 27 26 26 25 23 23 24 23 29 30 33 2 12 
26 23 31 0 16 17 83 75 98 125 138 134 81 96 86 4 10 17 23 26 
29 31 33 33 29 21 16 34 34 38 15 17 30 5 7 9 16 6 94 116 
101 136 141 138 130 124 102 6 5 20 32 32 33 34 34 35 34 28 20 34 
34 35 9 38 30 7 14 46 47 22 115 125 97 137 141 141 133 125 62 8 
5 20 32 33 34 34 34 35 34 31 32 34 34 36 3 29 30 34 37 42 
43 46 95 100 93 116 141 139 122 117 77 6 7 19 33 33 34 34 34 34 
33 33 34 34 34 38 1 26 28 43 44 10 13 23 49 77 73 115 137 136 
111 125 95 3 8 20 32 33 28 24 25 31 17 25 33 33 32 46 38 40 
36 35 27 10 7 12 15 55 110 113 127 115 111 133 117 12 3 20 30 31 
10 4 6 27 5 18 31 30 30 15 15 15 15 34 14 15 14 25 18 55 
108 116 101 98 116 136 123 38 10 24 30 31 10 2 6 29 6 12 32 32 
31 0 0 0 0 30 14 32 31 36 37 42 71 69 56 85 118 142 122 69 
21 26 28 31 10 2 5 29 5 3 26 30 30 0 0 0 0 27 40 12 
1 38 25 7 26 33 49 88 133 145 119 88 43 36 26 30 11 1 4 29 
20 5 29 24 30 0 0 0 0 24 23 4 1 38 13 2 25 55 86 89 
128 142 121 89 58 39 24 28 18 4 5 18 11 1 18 20 31 0 0 0 
0 22 27 25 29 41 17 17 43 54 108 112 113 138 124 66 78 57 49 27 
16 7 19 23 25 27 6 8 19 0 0 0 0 21 27 23 22 31 16 37 
64 64 84 138 122 128 129 61 87 93 64 61 29 17 24 29 32 32 5 0 
28 11 9 14 16 26 25 24 25 37 61 47 64 75 80 125 143 122 119 77 
81 95 83 71 84 61 56 38 33 33 6 6 26 26 31 19 19 16 26 36 
53 63 70 52 47 70 34 101 138 123 94 83 29 99 95 67 83 79 69 70 
60 33 4 0 25 39 56 46 7 4 43 43 60 71 58 60 53 64 27 76 
99 92 92 85 69 73 94 73 72 83 72 47 74 26 30 10 23 23 25 17 
16 31 56 57 73 70 56 94 91 88 90 93 61 87 112 91 103 101 95 58 
54 83 82 46 72 32 1 0 8 1 7 15 31 44 66 56 74 70 60 92 
94 98 100 108 65 100 110 101 105 114 110 93 58 78 73 38 56 18 16 0 
