P2 
32 30
157
10 50 49 47 45 43 40 38 36 33 31 29 27 25 23 23 28 21 24 20 
17 17 23 25 26 27 28 30 32 33 34 35 36 50 48 47 45 43 41 39 
37 34 32 30 28 27 25 25 31 22 26 23 21 22 26 27 28 29 30 32 
33 34 36 37 37 53 49 46 44 42 40 38 36 34 32 30 28 27 26 26 
32 23 27 25 22 23 27 28 28 29 30 32 33 35 36 36 36 6 53 45 
44 42 40 39 36 35 33 31 30 28 26 27 34 25 28 27 24 25 28 29 
29 30 32 33 34 35 36 36 37 9 52 46 44 43 41 39 37 36 34 33 
31 30 28 28 33 26 28 28 26 27 30 31 31 32 34 34 35 36 37 37 
38 33 50 46 45 43 41 40 38 37 35 33 28 24 15 3 5 9 15 26 
27 28 32 32 33 34 35 35 36 37 38 38 38 27 31 35 39 43 42 41 
39 37 36 30 9 1 1 1 3 7 7 11 26 29 33 34 34 35 36 37 
38 38 38 38 38 56 43 40 24 44 44 45 40 39 37 15 1 5 20 10 
6 4 7 13 12 30 34 34 35 36 37 37 37 37 38 38 38 29 37 52 
33 47 44 34 41 26 30 3 2 52 76 41 16 19 22 5 3 28 35 35 
35 36 36 37 37 37 37 38 37 22 5 6 26 9 20 2 19 1 5 2 
16 82 104 81 39 28 38 16 1 23 35 35 36 36 37 38 38 37 37 39 
38 27 5 6 24 6 5 1 21 4 11 8 20 86 110 107 66 44 38 20 
2 19 36 36 36 37 38 38 38 38 39 39 38 49 44 55 24 7 19 44 
45 25 4 3 29 68 73 122 117 48 29 30 2 14 36 36 36 37 38 38 
38 36 32 28 26 40 2 16 34 56 50 19 36 15 0 0 28 21 9 47 
88 10 20 60 6 14 34 30 30 29 29 27 26 27 26 32 34 36 2 13 
28 25 34 0 18 3 0 0 25 43 1 15 70 1 12 36 5 11 26 29 
32 35 37 37 33 24 18 37 37 41 17 18 32 5 8 10 17 1 0 4 
32 4 0 45 124 20 5 22 11 8 35 36 37 38 38 38 38 32 22 38 
37 38 9 41 32 7 15 48 50 19 4 34 62 51 56 90 140 100 97 102 
19 18 33 36 36 36 37 37 37 34 35 37 36 38 3 31 32 36 39 44 
46 46 24 19 74 103 113 83 111 126 138 116 16 30 35 35 36 36 36 36 
36 36 36 36 36 41 1 28 30 45 47 11 14 24 6 2 33 98 96 82 
109 95 130 94 14 31 34 35 31 27 27 33 19 27 36 35 35 50 42 44 
39 39 30 11 9 13 3 16 17 95 109 95 109 121 127 58 19 30 34 35 
13 7 8 31 8 21 36 35 35 17 17 17 17 39 16 17 16 28 20 34 
18 67 96 123 136 138 96 30 20 29 34 35 14 5 9 33 9 15 37 36 
36 2 2 1 0 33 16 36 34 40 41 38 36 68 49 77 97 74 64 35 
25 30 32 35 13 4 8 33 6 3 29 35 35 2 2 1 0 30 44 13 
2 42 28 8 37 88 88 105 129 110 93 54 47 40 29 33 13 3 5 33 
22 5 33 27 34 2 2 0 0 26 25 4 2 41 14 4 47 104 132 128 
138 143 100 73 46 40 27 31 20 6 6 20 12 2 20 21 34 0 0 0 
0 24 29 28 31 45 19 40 57 87 141 144 148 137 68 92 53 52 26 28 
18 7 22 25 27 29 6 6 20 0 0 0 0 23 30 25 24 33 26 65 
73 65 137 150 149 90 65 100 82 75 59 51 33 15 27 32 35 35 5 0 
31 12 11 16 17 30 32 30 31 55 47 61 72 51 112 147 121 92 24 81 
95 84 86 86 66 71 62 44 35 37 6 4 29 30 34 23 21 29 45 44 
63 65 50 45 62 31 89 86 103 107 78 66 94 100 73 87 74 54 59 59 
33 36 4 0 28 43 61 50 12 45 54 64 70 54 75 81 78 73 84 69 
107 119 97 103 94 92 60 66 82 63 56 71 39 21 30 10 25 25 27 21 
39 63 57 76 69 59 88 93 99 102 109 80 110 112 106 106 109 98 82 60 
88 53 54 45 53 12 0 0 9 1 8 33 54 67 58 81 73 57 81 109 
103 111 102 89 107 112 107 113 109 113 109 69 83 58 40 59 30 32 0 0 
