P2 
32 30
153
10 45 44 43 41 39 36 34 32 30 27 25 23 22 20 20 25 19 20 17 
14 14 19 21 22 24 25 26 28 29 30 31 32 44 43 42 40 38 36 34 
32 30 28 26 24 22 21 21 27 18 22 20 17 17 22 22 23 24 26 27 
28 29 31 32 32 50 46 42 40 39 37 35 33 31 29 28 26 24 23 23 
30 21 25 22 20 21 24 25 26 27 28 29 30 32 33 33 34 6 50 42 
41 39 37 36 34 32 30 29 27 26 24 25 31 23 27 25 22 23 26 27 
27 28 30 30 31 33 34 34 34 8 49 42 41 39 38 36 35 33 31 30 
28 27 25 22 21 17 25 26 23 24 28 29 28 30 31 31 32 33 34 35 
35 30 47 43 41 40 39 37 36 34 32 31 24 17 9 0 4 5 8 18 
25 26 29 30 30 31 32 33 34 34 35 35 35 24 28 32 36 40 39 38 
36 35 33 27 4 1 1 2 3 4 6 6 18 27 30 31 32 33 33 34 
35 35 35 35 35 52 40 36 21 41 41 41 37 35 34 12 1 5 24 14 
7 4 5 13 6 25 31 32 32 33 34 34 34 34 34 35 35 26 34 48 
30 43 41 32 38 24 28 2 1 41 75 55 18 17 21 7 3 16 32 32 
32 33 33 34 34 34 34 35 34 20 4 5 23 8 18 2 17 1 4 1 
9 69 99 97 46 27 33 23 0 10 33 33 33 34 34 35 35 35 35 35 
35 25 4 6 22 6 4 1 19 3 9 8 10 70 105 111 88 45 37 28 
2 7 33 34 34 35 35 35 36 36 36 36 36 46 41 51 22 6 17 42 
42 23 5 3 8 67 71 107 127 82 36 25 5 2 33 34 34 35 35 35 
35 33 29 25 23 37 2 13 31 51 47 17 32 13 1 0 16 64 110 114 
129 117 110 88 28 3 30 27 26 26 25 23 23 23 23 28 30 33 1 12 
26 23 31 0 16 2 1 0 32 76 79 104 117 116 98 108 53 1 21 26 
29 32 33 33 29 21 16 34 34 37 15 16 29 5 7 8 15 0 1 1 
39 99 124 116 116 129 139 139 64 2 21 32 33 34 34 35 34 29 20 34 
33 35 8 37 29 6 13 45 46 20 5 17 50 99 133 102 122 130 125 138 
69 16 29 32 33 33 33 34 33 30 32 33 33 35 3 28 29 33 36 41 
42 44 30 4 66 82 118 80 88 112 127 131 64 23 32 32 33 33 33 33 
33 33 33 33 32 39 1 26 28 43 44 10 13 23 10 6 11 81 110 76 
101 108 100 130 47 29 33 34 30 25 26 32 19 26 34 34 33 47 39 41 
37 37 28 10 8 12 3 20 0 70 111 88 110 114 116 118 24 29 32 33 
12 6 8 29 7 19 34 33 32 15 15 15 15 34 14 15 14 25 18 31 
12 47 84 104 111 124 126 64 17 26 31 32 11 3 6 30 7 13 33 32 
32 0 0 0 0 30 14 32 31 36 37 35 34 50 50 65 111 111 73 51 
22 27 29 32 11 2 6 30 5 3 26 31 31 0 0 0 0 27 40 12 
1 38 25 7 29 60 76 67 99 104 95 73 44 37 26 30 12 1 5 30 
21 5 30 24 31 0 0 0 0 23 22 4 1 37 11 1 32 67 111 115 
124 129 136 93 55 37 24 28 17 4 5 18 11 1 17 19 30 0 0 0 
0 22 26 25 28 41 16 20 60 64 119 131 134 142 135 66 77 55 39 26 
16 7 19 22 25 26 6 7 19 0 0 0 0 21 27 23 22 30 21 43 
73 66 99 142 142 146 96 71 94 82 66 57 38 23 25 29 33 32 5 0 
28 11 9 14 16 27 25 27 29 46 64 50 70 73 83 129 147 136 76 52 
90 91 66 84 78 64 59 46 34 33 6 5 26 26 30 20 19 17 33 36 
62 65 62 49 50 49 50 108 130 102 88 39 53 95 80 73 81 69 60 62 
47 33 4 0 24 38 56 45 7 17 50 46 63 71 52 70 64 58 54 70 
66 103 103 98 78 83 77 59 72 81 57 64 53 20 29 9 23 23 25 17 
26 44 61 62 74 67 57 104 86 99 86 91 73 105 106 100 98 116 75 66 
59 88 48 59 40 27 0 0 8 1 7 18 41 51 70 58 76 68 59 96 
96 105 95 105 81 104 103 100 103 122 98 86 65 84 48 51 50 22 8 0 
