P2 
32 30
151
10 44 43 41 39 37 35 33 31 28 26 24 22 21 19 19 24 18 20 17 
13 13 18 20 21 22 24 25 27 28 29 30 31 44 42 41 40 38 36 33 
31 29 27 25 23 22 21 21 27 18 22 20 17 18 22 23 23 25 26 27 
27 29 30 31 32 49 45 41 39 38 36 34 32 30 28 27 25 24 23 23 
29 20 24 22 20 21 24 24 25 26 27 28 29 30 32 32 33 6 48 41 
40 38 37 35 33 31 30 28 27 25 24 24 31 23 26 24 22 22 26 26 
27 28 29 30 30 31 33 33 33 8 48 41 40 39 37 35 34 32 31 29 
28 26 25 26 33 25 27 26 23 24 27 28 28 29 30 30 31 33 33 34 
34 30 46 41 40 39 37 36 34 33 31 30 29 27 26 26 31 26 27 26 
24 25 28 29 29 30 31 31 33 33 34 34 34 23 27 31 34 39 37 36 
35 33 32 31 29 28 23 10 10 10 18 26 25 26 29 30 31 31 32 33 
33 34 34 34 34 51 39 35 21 40 40 40 36 34 33 37 33 23 11 18 
20 11 6 12 26 27 30 31 32 32 33 33 33 33 33 34 34 26 33 47 
29 42 40 31 37 24 30 27 13 7 51 78 90 47 18 9 19 28 31 32 
32 32 33 34 34 34 33 35 34 19 4 5 23 8 17 2 17 1 2 13 
0 33 64 111 120 117 65 33 9 27 32 32 32 33 34 34 34 34 34 35 
34 24 3 5 20 4 4 1 18 3 10 8 0 49 67 72 99 100 102 82 
5 19 32 32 32 33 34 34 34 34 34 34 34 44 40 50 21 6 17 40 
40 22 16 6 3 64 98 86 99 110 115 116 33 13 32 32 32 33 34 34 
33 31 28 24 22 36 1 13 29 50 45 16 32 13 5 3 7 81 118 105 
96 106 118 135 62 8 29 26 25 25 24 22 22 23 22 27 29 32 1 11 
24 22 30 0 15 2 4 1 10 83 119 91 93 104 114 133 77 3 22 25 
28 30 32 32 28 20 15 33 32 36 14 15 27 4 6 7 14 0 2 0 
7 80 106 105 114 125 125 127 93 5 24 30 32 33 33 33 32 27 18 32 
32 34 8 36 29 5 13 44 46 21 11 1 32 71 95 92 102 112 108 111 
101 12 15 33 33 33 33 34 33 31 32 33 33 35 3 28 29 33 35 40 
42 44 34 1 58 61 68 56 59 71 74 86 49 5 14 32 34 33 33 34 
33 33 33 34 33 37 1 25 27 41 42 9 12 22 8 1 11 28 49 58 
73 86 93 87 11 1 28 33 29 25 25 31 17 25 33 32 32 45 38 39 
35 35 27 9 7 11 1 3 0 31 65 73 108 119 109 100 22 4 30 32 
11 5 7 28 6 18 32 31 31 15 15 14 15 33 13 15 13 24 17 14 
0 30 84 83 116 135 120 116 34 12 30 31 11 3 6 29 6 12 32 31 
31 0 0 0 0 29 13 31 29 35 36 23 0 25 98 93 120 142 127 129 
45 21 28 30 10 2 5 28 3 1 25 30 30 0 0 0 0 26 38 11 
1 37 24 6 1 27 105 101 117 140 134 137 67 34 25 29 11 1 4 29 
18 4 29 23 30 0 0 0 0 23 21 3 1 36 11 1 7 51 109 121 
120 144 140 141 81 50 23 27 17 4 5 18 11 1 17 18 29 0 0 0 
0 21 25 24 28 39 16 13 34 68 87 132 126 140 144 128 70 80 54 32 
16 6 19 22 24 26 5 5 18 0 0 0 0 20 26 22 21 29 13 32 
57 71 74 126 143 144 144 89 83 100 80 69 31 22 24 28 31 31 4 0 
27 10 8 13 15 25 24 19 24 28 48 54 57 73 58 99 137 144 125 78 
47 101 95 63 87 68 61 41 33 32 5 3 25 26 30 19 18 16 24 34 
38 57 65 49 46 69 25 77 114 132 96 78 16 89 97 75 80 84 70 73 
65 39 4 0 24 38 55 44 7 1 30 45 48 65 59 55 64 77 48 78 
73 77 108 96 102 63 91 78 68 85 74 52 72 41 29 9 22 22 24 16 
16 14 50 49 70 72 57 81 87 94 96 101 70 91 110 97 110 104 106 61 
53 79 89 47 72 50 7 0 8 1 7 13 23 39 62 54 71 74 58 81 
101 102 108 104 79 94 113 99 112 107 120 100 62 74 84 35 63 23 30 0 
