P2 
32 30
151
10 45 44 42 40 38 36 34 31 29 27 25 23 22 20 19 25 18 20 17 
13 14 19 21 22 23 25 26 28 29 30 31 32 44 43 42 40 38 36 34 
32 31 29 27 25 23 22 22 28 18 22 19 17 18 22 23 24 25 27 27 
28 30 31 32 33 49 45 42 40 38 37 35 33 31 29 28 26 25 23 24 
29 21 24 22 19 21 24 25 26 27 27 28 30 31 33 33 34 5 48 41 
39 38 36 34 33 31 29 28 26 25 23 24 30 22 24 22 20 21 24 25 
25 26 28 28 29 31 32 32 32 8 47 41 40 38 37 35 34 32 31 29 
25 16 14 18 28 24 26 24 22 23 26 27 28 28 29 30 31 32 32 33 
33 30 45 41 40 39 37 36 34 33 30 21 5 0 1 3 4 15 26 25 
24 24 28 28 29 29 30 31 33 33 33 34 34 23 27 31 35 40 38 37 
35 33 20 1 0 1 0 6 6 6 17 26 25 25 29 30 30 31 32 33 
34 34 34 34 34 51 39 36 21 40 40 40 37 30 4 0 3 5 6 5 
7 9 10 21 26 27 30 31 32 32 33 33 34 33 34 34 34 26 34 48 
30 43 41 31 37 11 1 8 24 19 4 2 4 8 12 11 27 28 32 31 
31 32 33 34 34 34 34 35 34 20 4 5 23 8 18 2 17 2 7 14 
39 62 18 4 2 6 15 9 23 29 32 32 32 33 33 34 34 35 34 35 
34 25 4 5 21 5 4 1 17 5 18 14 27 45 43 9 2 7 12 6 
14 29 32 32 33 34 34 34 35 35 35 35 34 45 41 51 22 6 17 41 
38 11 43 39 70 103 103 58 3 6 11 14 9 27 32 33 33 33 34 34 
34 31 28 25 22 37 2 14 31 51 46 17 32 9 77 72 87 119 128 118 
39 24 29 14 17 25 30 27 26 26 25 23 23 24 23 28 30 33 2 12 
26 23 31 0 16 12 77 105 90 124 139 139 93 102 86 17 7 17 23 25 
28 30 32 33 29 20 15 33 33 37 15 16 30 5 7 8 15 2 93 131 
105 133 140 138 130 125 117 9 5 19 31 31 33 33 33 33 33 28 19 33 
33 34 8 37 29 6 13 45 46 21 107 126 101 134 140 139 132 121 75 5 
6 19 31 32 32 32 33 33 33 30 31 32 32 35 3 28 29 33 36 40 
42 45 75 88 101 122 140 140 121 111 83 5 6 20 31 31 32 32 32 32 
32 32 32 32 32 37 1 25 27 42 42 9 12 22 39 76 86 125 139 136 
107 119 96 2 7 21 31 31 27 23 23 29 16 23 32 31 31 46 38 39 
35 35 27 9 7 11 11 62 109 118 126 110 105 129 114 10 3 23 30 30 
10 4 6 26 5 17 31 30 30 15 15 15 15 34 14 15 14 25 18 62 
110 111 89 89 111 134 120 34 10 25 30 31 11 3 6 29 6 13 32 32 
31 0 0 0 0 30 14 32 31 36 37 40 53 47 37 81 120 142 119 65 
22 26 29 31 11 2 6 29 5 3 26 30 30 0 0 0 0 27 40 12 
1 38 25 7 29 41 62 96 133 142 115 84 45 36 26 30 11 1 5 29 
20 5 29 24 30 0 0 0 0 24 22 3 1 38 12 1 25 58 93 92 
129 142 118 85 59 38 23 28 17 4 5 18 11 1 17 19 30 0 0 0 
0 22 26 24 28 40 16 16 44 55 111 117 123 141 123 65 78 55 48 26 
16 6 19 22 24 26 5 8 18 0 0 0 0 21 27 22 21 30 15 37 
63 61 86 137 127 131 129 60 87 91 63 60 29 17 24 28 31 31 4 0 
28 11 9 14 15 26 24 23 24 35 59 44 64 74 78 125 143 126 119 77 
80 94 82 71 83 60 55 38 32 32 6 6 25 26 30 19 18 16 25 35 
53 61 69 52 48 69 36 101 139 126 93 81 29 98 95 66 82 78 69 69 
59 32 4 0 24 38 55 45 7 4 42 41 61 70 57 57 52 62 27 75 
98 93 91 85 70 71 94 71 72 82 71 47 73 25 30 9 22 22 24 16 
16 31 54 56 71 69 53 94 89 87 88 92 61 85 112 91 102 101 94 57 
53 82 81 46 71 32 1 0 8 1 7 15 31 44 66 56 73 68 60 93 
92 99 98 108 64 99 110 101 105 113 109 92 58 78 72 37 55 17 16 0 
