P2 
32 30
158
10 32 58 50 50 46 44 43 41 39 37 36 34 32 29 28 29 32 26 28 
26 24 28 28 28 30 30 32 33 34 35 36 36 3 47 5 18 50 45 44 
42 40 39 37 35 33 31 30 31 35 28 31 29 27 30 31 31 32 33 33 
34 35 36 36 36 6 45 8 10 50 45 44 42 41 40 38 37 35 32 25 
29 36 30 33 31 28 32 33 33 34 35 35 36 37 37 37 38 33 39 27 
30 49 45 44 42 41 40 39 37 35 25 10 12 11 20 33 31 29 34 34 
34 35 35 36 37 37 37 37 37 30 40 29 28 28 31 38 42 41 40 38 
28 19 27 28 28 13 6 14 31 30 34 35 35 35 36 36 36 36 37 36 
36 16 42 37 46 46 44 33 44 49 45 38 13 30 54 88 92 66 43 15 
24 32 35 36 36 36 36 37 37 36 37 37 36 21 37 2 21 23 36 29 
43 17 29 14 55 111 137 138 135 128 105 62 15 30 36 37 36 37 37 38 
37 37 37 37 37 22 40 9 17 9 14 11 2 5 16 20 99 134 147 146 
145 139 126 102 36 30 37 37 37 38 38 38 38 39 38 38 38 12 36 29 
37 31 33 14 2 28 35 43 112 139 148 148 145 142 132 114 69 30 38 38 
38 38 39 39 39 37 32 29 27 21 31 5 27 25 30 34 42 38 43 58 
114 138 148 148 146 145 131 112 81 34 35 34 30 25 28 29 28 28 27 33 
34 26 33 6 21 11 21 29 40 15 13 54 81 73 69 113 123 51 26 57 
39 25 30 34 27 24 16 23 14 11 26 39 38 28 53 23 33 18 17 22 
5 10 18 21 77 13 0 22 46 3 8 66 22 39 47 38 25 26 24 5 
5 14 32 39 39 20 21 14 26 24 42 25 6 39 57 26 15 2 0 27 
103 8 0 2 15 96 76 32 41 40 38 2 18 38 39 39 39 17 12 13 
21 17 29 35 40 46 55 77 11 1 0 66 126 43 1 6 38 96 88 35 
41 40 19 0 12 38 39 39 38 9 12 17 29 17 26 33 45 29 20 96 
57 22 50 103 131 98 92 84 101 94 69 27 23 14 4 0 3 24 39 38 
37 51 48 44 47 44 41 39 40 31 9 93 101 138 129 75 101 75 131 128 
98 85 20 5 4 6 7 3 5 23 35 37 21 3 17 37 13 0 0 0 
0 36 32 81 94 128 130 112 112 113 125 123 95 49 8 0 0 7 17 37 
57 41 37 25 4 8 23 35 18 0 0 0 0 33 13 34 83 119 106 107 
113 102 102 115 92 19 2 0 0 10 8 29 20 25 23 17 0 17 22 33 
21 0 0 0 0 28 1 26 61 107 112 111 114 113 110 105 82 7 0 0 
0 11 6 26 13 25 18 4 1 11 19 30 22 0 0 0 0 26 21 33 
36 88 108 111 109 108 102 93 59 10 0 0 3 10 25 23 14 26 20 2 
1 18 14 27 23 0 0 0 0 25 33 31 20 70 90 107 112 106 97 75 
71 13 11 11 12 8 20 25 19 27 21 0 0 6 10 25 29 16 18 19 
21 29 27 19 9 76 72 97 97 98 69 85 80 7 61 76 15 31 47 17 
12 26 21 0 6 2 2 13 24 21 40 19 7 11 10 6 4 76 93 64 
40 44 67 100 89 0 0 1 10 59 61 4 1 11 9 2 0 3 3 5 
5 15 36 17 3 15 0 4 2 64 109 99 113 111 93 112 97 1 0 0 
2 1 10 5 6 12 10 0 0 0 3 4 15 4 27 7 3 1 1 0 
2 62 125 115 109 106 108 123 101 2 1 1 2 23 1 0 12 52 45 5 
0 0 7 10 18 5 1 0 1 0 0 1 2 40 116 123 115 115 117 116 
71 1 0 1 1 9 0 0 0 1 1 2 0 5 2 5 1 1 1 0 
2 1 0 2 1 8 82 121 114 110 121 102 13 1 1 1 2 1 1 6 
7 1 0 0 0 0 0 1 0 0 2 2 5 2 1 3 1 1 23 97 
123 122 123 49 0 2 1 1 2 1 5 21 13 6 1 1 0 1 0 0 
2 0 9 5 6 4 0 0 1 4 1 10 40 49 26 1 0 2 0 2 
1 1 21 19 10 9 3 1 1 4 0 1 10 0 7 8 5 4 0 1 
7 3 4 1 1 1 0 0 0 5 0 1 1 6 33 14 8 5 10 1 
