P2 
32 30
158
10 36 65 56 57 52 50 48 46 44 42 39 37 35 33 32 33 36 29 32 
29 28 32 32 33 34 35 36 38 40 40 41 41 5 53 6 20 56 50 48 
46 44 42 40 38 37 35 33 34 39 31 34 31 29 34 34 35 35 37 37 
38 40 40 41 41 8 50 9 11 56 50 49 47 46 44 42 41 39 37 36 
37 42 33 36 34 32 36 37 37 38 38 39 40 42 42 42 42 38 44 31 
35 54 50 49 48 46 44 43 42 41 39 37 38 44 35 38 35 33 38 38 
38 39 40 41 42 42 42 42 42 36 47 34 33 33 36 44 49 47 45 45 
43 42 40 40 40 46 39 38 37 35 39 40 40 41 42 42 42 43 43 42 
42 19 48 42 53 52 51 38 50 56 51 47 46 50 54 73 73 62 47 38 
39 37 41 41 41 42 42 43 42 42 43 43 43 24 42 3 25 26 41 33 
49 20 33 11 33 86 118 124 104 80 48 34 38 38 42 43 42 43 43 43 
43 43 43 43 43 26 45 11 20 10 17 13 2 6 18 9 40 22 31 66 
22 7 23 3 31 39 44 44 44 44 45 45 45 45 45 45 44 14 40 33 
42 35 38 17 2 32 39 9 31 0 26 116 23 11 2 4 29 38 44 45 
45 45 45 45 45 43 38 35 32 26 36 6 30 28 35 40 47 43 50 11 
4 20 51 112 84 26 27 43 36 37 42 39 36 30 34 34 34 34 33 39 
41 30 38 8 24 12 24 35 45 17 15 22 63 89 104 129 113 140 128 104 
52 30 34 38 31 28 18 26 17 13 30 45 44 31 60 27 37 21 20 25 
6 12 21 30 130 149 119 123 116 133 150 123 73 33 43 42 28 30 27 6 
6 17 37 45 44 24 23 16 30 27 48 30 8 44 59 50 136 134 114 137 
132 117 147 126 92 57 44 35 45 45 42 2 21 42 44 44 44 20 14 15 
24 19 33 40 46 52 48 73 132 129 119 126 130 117 146 122 93 116 49 39 
45 44 22 0 14 42 44 44 43 10 13 20 33 19 30 38 51 34 5 95 
120 130 134 130 129 125 133 120 92 111 66 31 27 16 5 0 4 28 44 43 
42 58 55 50 54 50 47 45 45 36 4 91 110 105 125 135 126 104 104 106 
95 110 32 7 6 8 9 4 7 28 41 43 24 5 22 44 16 2 2 1 
1 42 37 102 95 89 99 93 90 80 78 81 57 42 10 0 0 9 21 43 
64 46 42 29 5 11 29 42 22 4 4 4 3 39 16 52 61 64 77 103 
103 84 67 66 75 44 6 0 0 14 11 36 26 31 27 21 0 22 27 39 
25 3 4 3 2 34 3 31 37 69 76 101 105 94 86 95 81 36 2 0 
1 16 9 33 18 30 21 6 2 15 24 36 27 1 2 1 1 31 25 39 
40 98 85 105 110 102 100 116 79 22 1 0 4 13 30 28 18 31 23 4 
2 21 17 32 27 0 0 0 0 29 38 37 32 118 104 126 142 119 108 135 
82 14 6 10 14 9 24 29 22 31 23 0 0 7 12 29 33 18 20 23 
24 34 31 29 36 127 120 134 151 126 121 141 92 4 1 52 18 34 52 20 
14 29 24 0 7 2 3 15 28 25 45 21 8 15 13 19 14 122 138 120 
139 118 132 144 98 1 1 2 11 59 66 4 1 14 12 2 1 4 4 8 
7 18 42 20 6 13 1 5 5 103 148 127 135 126 141 143 97 2 3 2 
2 5 9 7 5 13 11 0 0 0 5 7 19 8 22 7 4 1 1 9 
3 82 144 135 139 128 142 138 88 4 2 2 1 31 1 1 5 37 49 7 
0 0 9 14 19 2 4 2 4 1 2 6 2 20 117 136 124 127 138 120 
17 3 1 4 1 2 2 3 4 3 1 3 0 7 3 7 1 4 5 4 
7 1 4 4 1 3 31 115 128 130 129 38 0 2 1 3 2 0 4 10 
5 2 2 0 0 0 0 2 1 2 4 8 11 3 1 3 0 9 2 9 
29 34 14 1 0 1 1 2 1 2 15 21 13 11 2 3 2 2 0 3 
4 4 10 2 11 5 1 7 1 8 7 4 4 4 3 2 0 4 1 0 
2 9 31 22 13 4 8 0 1 6 0 3 14 20 7 3 9 7 1 11 
2 8 10 6 7 7 7 2 0 4 2 3 6 19 25 26 13 3 25 3 
