P2 
32 30
152
10 31 56 48 49 45 43 41 40 38 37 35 33 31 29 27 28 31 24 27 
24 23 26 26 27 28 29 30 31 33 34 34 34 4 47 5 18 49 44 43 
41 40 38 36 35 33 31 29 30 34 27 29 27 25 29 29 29 31 31 32 
33 34 35 35 35 6 43 7 10 48 43 42 41 40 38 37 37 35 32 29 
30 35 28 31 28 26 30 30 31 31 32 33 33 34 35 35 35 32 37 26 
29 47 43 42 41 40 40 38 37 35 30 27 28 24 16 26 29 27 31 31 
31 33 33 34 35 35 35 35 35 30 40 29 28 28 31 38 42 41 40 35 
30 28 34 35 29 25 15 4 24 29 33 33 34 34 34 35 35 35 35 35 
35 14 41 36 45 45 43 32 43 48 37 35 40 47 49 56 39 32 13 6 
8 30 34 34 34 34 35 35 35 35 35 35 35 20 36 2 21 22 35 28 
42 19 46 65 66 71 67 62 59 54 32 10 0 21 35 35 35 35 35 36 
35 35 35 35 35 21 39 9 17 8 14 11 3 33 107 125 130 129 114 98 
93 81 65 40 10 14 35 36 35 36 36 36 37 36 36 36 36 12 36 29 
37 31 34 14 3 71 121 134 141 141 133 117 103 84 60 47 25 15 37 37 
38 38 38 38 38 36 31 28 26 22 31 5 27 25 30 34 41 96 123 139 
144 144 138 126 109 92 65 50 37 17 26 32 29 25 27 27 27 27 26 32 
33 25 33 7 20 10 20 30 40 103 128 143 145 145 142 137 117 97 81 74 
53 21 23 30 25 22 15 21 13 9 24 36 36 27 52 23 32 18 17 22 
13 105 111 90 105 123 141 140 124 104 110 121 121 27 16 30 23 24 22 4 
5 13 30 37 36 20 20 13 26 23 41 25 11 63 63 48 84 109 137 142 
129 113 133 135 140 57 7 26 38 37 35 2 17 35 36 37 36 16 12 13 
20 16 29 34 41 60 137 86 91 119 143 142 131 112 124 118 138 33 2 22 
37 37 17 0 11 35 36 36 35 8 12 17 28 16 26 33 44 92 146 128 
114 140 145 140 124 111 125 131 108 8 0 8 21 12 3 0 2 22 37 35 
35 50 47 43 47 43 41 39 41 120 144 140 128 143 140 129 116 108 117 131 
59 1 0 1 7 6 6 3 5 22 34 36 20 3 18 37 13 1 1 1 
12 137 134 121 121 131 133 126 116 104 83 99 38 0 1 1 2 7 16 36 
55 40 36 24 4 8 23 35 18 0 1 1 4 69 85 123 116 123 131 126 
119 104 84 101 36 1 15 2 1 10 8 28 19 23 21 16 0 17 22 33 
20 0 1 0 1 29 73 118 120 120 125 122 114 97 76 102 44 10 17 5 
1 11 5 25 12 24 17 3 1 12 20 30 22 0 0 0 0 27 59 98 
111 117 116 111 102 77 85 105 59 5 9 9 5 11 24 22 13 25 19 2 
1 17 13 27 23 0 0 0 0 25 43 100 120 115 109 99 76 70 94 109 
83 14 3 2 2 11 19 23 17 25 20 0 0 5 9 24 28 15 17 19 
20 29 31 105 114 106 99 75 70 83 113 113 97 14 0 0 2 21 42 16 
11 24 20 0 5 2 2 12 23 21 39 18 7 11 11 69 94 76 64 66 
87 104 120 117 106 45 1 0 0 0 5 3 1 12 10 2 0 3 2 6 
5 15 36 19 6 1 5 6 11 9 29 61 101 117 126 120 113 53 2 0 
2 2 4 1 2 1 6 0 0 0 2 3 14 4 34 21 15 3 1 0 
0 1 76 88 114 112 123 119 119 44 2 1 2 3 19 1 0 0 2 3 
0 0 5 7 22 13 28 0 2 1 2 1 0 2 53 90 87 113 121 118 
95 6 2 2 2 3 0 0 0 1 0 0 0 4 2 4 0 0 1 1 
2 1 4 0 1 1 11 93 98 105 117 100 13 3 2 3 4 1 0 2 
9 2 2 1 0 0 0 1 0 0 0 0 2 4 5 0 2 1 3 26 
82 77 58 11 0 8 0 2 5 0 1 12 16 5 2 1 1 1 0 0 
2 1 1 0 3 2 4 0 0 5 0 1 2 2 1 0 0 10 0 0 
1 1 8 17 12 6 1 5 0 4 0 0 5 0 2 0 3 0 3 0 
7 5 1 1 2 3 3 1 0 7 1 1 1 2 17 17 8 7 2 9 
