P2 
32 30
151
10 29 53 44 46 42 40 38 37 35 34 31 30 28 27 25 26 29 23 25 
23 22 25 25 25 26 27 28 30 31 31 32 32 3 43 5 16 45 40 38 
37 35 34 33 31 30 28 27 27 31 24 26 24 23 26 27 27 28 29 29 
30 31 31 32 32 5 40 5 8 45 40 39 37 36 35 34 33 31 30 29 
25 29 26 28 26 24 28 29 28 30 30 30 31 32 32 32 33 29 34 23 
26 43 40 39 37 36 36 35 33 30 28 31 25 25 24 30 28 26 30 30 
30 31 31 31 32 33 33 33 33 26 36 26 24 24 27 34 38 37 35 22 
14 18 25 36 31 31 29 28 30 28 31 31 31 32 32 33 33 33 33 32 
32 13 38 33 42 41 40 29 40 43 20 10 20 32 38 43 58 71 74 58 
36 30 32 32 32 32 33 33 33 32 33 32 32 19 34 2 19 20 33 26 
40 13 4 9 26 39 63 86 103 119 122 115 81 33 34 34 34 34 34 35 
34 34 34 34 34 20 37 8 16 7 13 10 2 6 0 8 47 74 99 109 
121 135 132 127 109 59 35 35 35 35 35 35 36 35 35 35 34 10 32 25 
33 28 31 12 1 7 3 36 63 81 101 117 130 138 139 133 119 90 37 35 
35 35 35 35 35 33 28 26 23 18 28 4 24 22 27 31 38 16 18 48 
60 85 102 118 130 124 119 104 72 88 59 31 28 23 26 26 25 25 24 30 
31 22 30 5 19 9 18 27 35 17 26 50 68 64 65 86 94 97 77 30 
4 5 43 25 25 22 14 20 12 9 23 35 35 24 48 21 29 16 15 20 
14 11 27 65 93 79 108 123 139 139 117 37 3 3 9 19 22 23 21 4 
4 12 28 35 34 18 18 12 23 21 38 24 12 6 27 107 137 125 130 137 
139 140 127 39 0 15 87 21 36 36 33 2 16 33 34 35 34 15 10 12 
18 15 26 27 9 6 19 126 142 116 139 132 137 140 138 84 15 67 133 69 
37 36 16 0 10 33 35 34 34 8 10 16 26 15 23 22 11 8 20 97 
135 114 138 130 129 136 137 134 110 119 125 108 21 12 3 0 2 21 35 33 
33 46 44 40 43 40 37 17 17 16 15 55 130 136 129 123 130 132 132 131 
116 107 89 29 4 5 5 3 5 20 32 33 18 2 15 34 12 0 6 10 
16 10 4 48 104 122 107 120 135 136 130 134 126 116 79 0 0 6 15 33 
52 38 33 22 4 7 21 33 16 0 14 13 10 22 1 45 110 129 111 113 
134 133 133 135 120 93 53 0 0 9 7 26 17 21 18 15 0 15 20 30 
19 1 15 15 10 14 7 37 113 132 110 100 123 129 128 128 118 103 49 0 
0 10 5 24 11 20 13 3 1 11 18 28 21 0 5 10 7 1 12 29 
113 132 123 84 94 117 122 119 107 104 24 0 3 9 23 20 11 20 14 2 
1 17 12 25 21 1 1 7 5 7 13 33 114 132 127 98 76 76 97 103 
104 105 35 10 11 7 17 20 13 19 14 0 0 6 8 22 27 14 16 16 
5 8 9 51 115 129 127 116 104 88 58 48 55 67 115 80 14 29 42 13 
8 18 14 0 5 1 1 11 21 19 21 21 15 17 6 64 111 125 130 126 
123 108 42 2 3 22 33 26 48 71 50 3 0 6 7 1 0 2 2 4 
2 4 16 5 3 4 4 69 112 124 133 128 120 97 67 0 0 0 0 11 
55 42 21 4 5 10 9 0 0 0 2 2 2 3 2 0 1 0 3 64 
122 123 131 129 115 77 81 1 0 0 11 17 0 2 27 78 70 67 33 2 
0 0 3 1 0 0 1 0 0 2 2 17 112 123 124 124 104 91 59 1 
0 0 2 3 2 1 2 4 15 17 6 1 0 4 0 0 0 0 0 0 
0 7 2 0 27 100 122 113 99 103 26 0 1 0 0 2 2 4 4 1 
5 17 8 0 0 1 0 0 3 2 1 1 0 6 4 0 1 13 66 100 
119 89 14 0 1 1 0 2 5 5 9 3 1 4 4 0 0 0 4 0 
2 4 4 4 1 0 2 1 5 1 0 4 7 3 1 0 1 2 0 2 
6 6 8 2 6 11 8 2 0 5 12 1 2 10 6 3 2 0 1 6 
3 5 2 1 0 1 0 0 2 1 2 2 1 7 8 2 10 0 8 3 
