P2 
32 30
151
10 29 53 45 46 42 40 38 37 35 33 31 30 28 26 25 26 29 23 25 
23 22 25 26 26 27 28 28 30 31 32 32 32 3 43 5 16 45 40 39 
37 35 34 33 31 29 28 26 27 32 25 27 25 24 27 28 28 28 29 30 
31 31 32 32 32 5 40 5 8 45 40 39 37 36 35 33 33 31 29 27 
27 33 26 29 27 25 29 29 29 30 30 31 31 32 33 33 33 29 35 23 
26 43 40 39 38 36 35 34 34 31 31 26 25 24 28 31 29 26 30 31 
31 31 31 32 33 33 33 33 33 28 37 26 25 25 28 35 38 38 37 36 
30 27 30 30 29 30 33 29 33 29 33 32 33 33 33 34 34 34 33 34 
33 13 39 34 43 42 40 30 40 45 39 16 11 21 36 45 56 75 87 78 
44 31 34 34 33 34 34 34 34 33 34 34 33 18 33 2 18 20 32 25 
39 16 14 7 23 40 45 74 102 123 126 117 93 37 34 34 34 34 34 34 
34 33 33 33 33 19 35 7 15 6 13 9 1 7 2 9 23 52 89 106 
124 135 134 129 115 79 35 35 34 34 34 35 35 34 34 34 34 10 32 25 
33 28 30 12 1 12 0 6 50 80 100 118 131 139 139 135 128 106 58 35 
35 35 35 35 35 33 28 26 23 18 28 4 24 22 27 31 36 12 1 30 
61 81 102 119 134 137 123 87 32 38 68 24 28 23 25 26 25 25 24 29 
31 22 30 5 18 9 18 26 35 11 9 41 54 82 99 104 95 84 72 26 
7 0 9 6 25 21 14 20 12 9 23 35 34 24 48 21 29 16 16 20 
4 9 16 42 59 59 56 91 129 140 126 38 6 2 60 22 23 24 22 4 
5 13 30 36 35 18 19 12 24 22 39 24 8 22 16 47 83 77 110 124 
139 141 138 69 6 22 101 108 41 37 35 2 17 34 36 36 35 15 10 11 
18 15 27 32 28 10 14 59 133 122 136 132 138 140 140 123 59 71 122 133 
75 36 17 0 10 34 35 35 34 8 10 16 26 15 24 29 19 4 12 75 
143 120 131 128 128 130 137 137 130 115 112 87 32 13 3 0 2 22 35 34 
33 46 44 40 43 40 38 35 11 4 8 45 141 122 122 125 122 125 131 130 
132 122 117 77 5 6 6 3 5 21 32 34 19 2 15 34 12 0 1 9 
12 12 4 23 90 134 138 118 122 133 132 131 138 129 120 78 0 6 15 34 
53 38 34 22 4 7 20 32 16 0 1 12 12 24 1 12 64 108 117 94 
118 132 132 133 136 120 97 64 0 9 7 26 18 22 20 15 0 15 20 30 
19 0 5 16 17 16 5 3 71 112 124 98 101 124 127 127 126 124 111 47 
1 11 5 24 12 22 15 3 1 10 17 27 20 0 10 15 11 12 1 0 
62 114 127 105 87 106 120 121 119 109 108 61 3 9 23 21 12 22 16 2 
1 16 11 24 20 0 6 12 3 1 1 0 49 113 128 122 85 82 93 99 
96 92 94 47 11 7 17 21 14 21 15 0 0 5 7 21 26 13 11 2 
3 1 1 0 56 113 126 119 92 73 68 62 51 43 94 81 14 29 43 14 
9 18 14 0 5 1 1 10 21 19 26 6 7 2 0 2 76 110 123 121 
114 103 88 44 8 12 26 25 49 74 53 3 0 7 7 1 0 3 2 4 
4 14 11 18 0 0 5 7 86 106 121 129 128 125 100 69 0 0 0 5 
40 41 23 5 6 10 9 0 0 0 2 3 8 2 3 3 0 0 3 3 
86 116 119 128 125 117 91 73 0 0 0 26 1 1 19 70 73 69 35 2 
0 0 7 5 1 1 0 1 0 0 3 3 38 123 120 123 125 102 83 58 
1 0 0 7 3 2 2 1 11 18 7 1 0 5 2 0 0 0 0 1 
0 1 8 1 1 59 113 124 115 95 104 19 1 0 0 1 2 2 4 2 
2 17 8 0 0 0 1 0 0 2 0 0 1 0 6 4 0 2 42 105 
104 119 83 7 1 1 0 0 3 4 9 6 1 4 4 0 0 0 2 1 
0 5 3 2 2 0 2 4 1 3 0 8 32 42 12 1 0 1 1 0 
4 2 10 4 4 6 8 2 0 3 10 4 0 9 9 4 3 0 0 4 
0 5 2 1 0 0 1 0 0 1 2 1 3 0 12 4 6 4 6 3 
