P2 
32 30
150
10 30 55 47 47 43 42 40 39 37 35 33 32 30 28 26 27 30 23 26 
23 22 25 26 26 27 28 29 30 32 33 33 33 3 45 5 17 47 42 41 
40 38 36 35 33 31 29 27 28 32 25 28 26 23 27 28 28 29 30 31 
31 32 33 33 34 5 41 6 9 47 42 40 39 38 37 35 34 33 32 29 
30 34 27 30 27 25 29 29 30 30 31 31 32 33 34 34 34 30 36 25 
28 45 42 40 39 38 37 36 35 33 32 28 28 35 30 31 29 26 30 30 
31 32 32 33 33 34 34 34 34 29 38 28 27 26 30 36 40 39 38 36 
32 27 24 23 27 30 23 18 28 29 32 33 33 33 33 34 34 34 34 34 
34 14 40 35 44 43 42 31 42 47 41 32 32 35 39 47 42 36 22 8 
7 29 34 34 34 34 35 34 34 34 35 35 34 20 35 2 20 21 34 27 
41 21 31 40 47 42 48 52 52 40 20 8 3 18 34 35 35 35 35 35 
35 35 35 35 35 21 38 8 16 7 14 10 2 12 62 76 87 90 76 76 
81 74 52 25 2 3 35 35 35 35 36 36 36 36 35 35 35 11 33 27 
34 29 31 12 3 46 111 128 135 129 111 104 97 84 67 49 22 1 33 35 
35 36 36 36 35 34 29 26 23 20 29 5 25 23 29 33 40 82 120 137 
140 139 129 114 103 82 63 56 35 10 32 30 28 23 26 26 26 25 25 30 
32 25 32 6 20 10 20 29 39 97 128 140 144 143 136 123 107 88 72 62 
46 16 29 19 23 22 14 21 12 9 23 36 36 26 51 22 31 17 17 21 
12 110 131 136 130 123 116 103 79 61 81 93 58 23 11 13 21 24 22 4 
5 13 30 36 36 19 20 13 25 23 41 25 28 85 29 18 64 91 107 111 
103 112 114 139 97 21 4 7 21 34 35 2 17 35 36 37 36 16 11 12 
20 16 29 29 6 22 1 10 49 132 145 142 130 136 126 144 124 22 4 2 
22 29 18 0 11 35 37 37 36 8 11 17 28 16 26 32 6 33 4 1 
55 134 145 144 132 135 117 135 108 25 1 0 15 27 10 0 2 23 37 35 
34 48 45 42 45 41 40 38 26 124 30 2 54 141 141 137 125 126 128 133 
80 20 0 0 2 14 19 3 4 21 32 34 19 3 17 36 13 1 1 1 
54 140 104 57 117 140 139 131 121 109 138 117 74 16 0 1 0 7 12 34 
54 39 35 23 4 8 22 34 17 0 1 1 87 118 120 114 132 140 137 131 
121 102 101 109 87 25 1 3 2 2 6 23 18 23 21 16 0 16 21 32 
20 0 1 1 18 68 115 116 130 136 132 132 120 96 106 121 93 33 7 12 
11 1 9 17 13 23 17 3 1 12 19 29 22 0 0 0 0 40 110 122 
127 131 128 125 115 83 100 122 102 41 7 22 18 3 13 16 23 25 19 2 
1 17 13 26 22 0 0 0 0 25 56 93 111 120 121 113 93 76 109 123 
112 56 7 8 16 2 3 0 11 26 20 0 0 6 9 23 27 15 17 18 
20 29 59 89 108 112 109 88 70 87 114 120 116 80 5 6 1 0 1 1 
5 16 19 0 5 1 1 12 22 20 37 18 6 10 28 106 106 95 78 66 
83 101 118 121 119 94 7 0 0 0 0 2 2 9 17 4 0 3 2 5 
4 13 34 18 6 2 8 77 77 46 44 66 95 115 121 124 123 112 15 0 
0 0 0 0 1 0 10 3 0 0 2 3 14 4 34 29 42 4 0 2 
2 1 3 56 112 117 121 123 124 112 16 3 2 6 1 6 0 1 1 2 
0 0 5 7 22 13 33 14 6 1 3 2 0 1 1 68 87 109 120 122 
125 90 7 4 7 4 7 16 1 0 1 0 0 4 2 3 0 0 12 12 
1 1 3 3 0 1 2 39 88 97 116 121 104 13 6 3 9 2 1 0 
1 0 0 1 1 0 0 1 0 0 4 6 1 3 5 3 0 1 1 18 
93 110 107 101 22 1 8 1 10 1 0 0 5 3 1 0 0 0 0 0 
1 1 0 2 4 2 2 3 1 5 0 7 42 87 63 12 0 7 3 1 
9 0 0 8 13 4 3 2 0 4 0 0 3 2 0 5 15 0 2 2 
5 7 0 0 1 1 1 0 0 11 1 1 3 0 4 19 10 7 3 5 
