P2 
32 30
152
10 29 54 45 46 42 40 39 37 35 33 31 30 28 26 25 26 30 24 26 
24 23 26 27 27 28 28 29 30 32 33 33 33 3 44 5 17 47 41 39 
38 36 35 33 31 30 28 27 28 33 26 28 27 25 29 29 29 29 30 31 
31 33 33 33 34 5 41 5 8 46 41 40 38 37 36 34 33 32 31 29 
30 33 27 30 28 26 30 31 31 31 32 32 33 34 34 34 34 30 35 24 
27 44 41 40 39 38 36 35 34 33 31 29 30 26 20 25 29 27 31 32 
31 32 33 33 34 35 35 34 34 28 37 27 26 25 28 36 39 38 37 36 
34 25 23 29 25 30 26 26 21 30 33 33 34 34 34 35 35 35 35 34 
34 13 39 34 43 42 41 30 41 46 42 37 15 8 12 22 33 34 28 31 
30 26 34 35 34 35 35 35 35 34 35 35 34 19 34 2 19 21 33 26 
40 15 27 6 5 13 28 38 39 46 57 66 67 57 40 37 36 36 35 36 
36 36 36 35 35 20 37 8 16 7 13 10 1 4 12 3 2 14 27 45 
62 86 103 122 125 116 85 37 36 36 37 36 37 36 36 36 35 11 32 25 
33 28 31 12 1 26 23 0 1 20 57 83 102 110 127 137 137 130 110 62 
37 36 36 36 36 35 30 27 24 18 28 4 24 22 28 31 38 35 33 2 
18 53 69 92 108 126 134 142 141 137 120 89 29 24 26 27 26 26 25 31 
32 23 30 5 19 9 18 26 36 13 12 11 34 52 69 89 112 123 138 142 
142 140 130 107 42 22 14 21 13 9 24 36 35 24 48 21 29 16 15 20 
3 10 19 15 38 54 75 86 99 115 126 135 128 102 69 77 48 19 22 4 
5 13 30 36 35 18 18 12 23 21 38 23 4 21 8 15 45 71 50 59 
79 94 97 92 54 12 0 8 9 26 35 2 17 35 36 37 36 15 11 12 
19 15 28 33 38 19 8 18 57 122 113 121 121 136 142 130 67 15 0 22 
22 31 18 0 12 36 37 37 36 8 11 16 27 15 24 31 39 19 14 14 
85 145 128 132 131 138 141 141 91 16 7 60 94 13 4 0 3 23 37 36 
35 48 45 41 44 41 39 37 31 14 23 12 75 144 101 128 127 131 129 137 
121 38 30 98 131 35 7 3 5 22 33 35 20 2 16 35 12 0 0 1 
17 16 11 2 32 128 128 129 120 123 127 133 138 128 102 99 102 57 17 35 
54 40 35 23 4 8 22 33 16 0 0 3 19 17 7 1 14 90 135 134 
112 125 132 132 134 120 108 109 46 12 8 28 19 23 21 16 0 15 20 30 
19 0 0 6 14 6 9 0 8 86 107 100 103 124 134 130 132 115 125 100 
33 12 6 25 12 23 17 3 1 10 18 28 21 0 0 1 3 0 4 0 
2 88 118 110 88 117 123 129 127 102 96 64 4 10 24 22 13 24 18 2 
1 16 11 25 21 0 1 0 1 4 1 0 0 88 119 115 83 99 115 119 
119 108 97 63 12 7 19 23 16 24 17 0 0 5 8 22 26 14 17 17 
12 11 2 0 5 96 119 121 95 70 86 103 107 109 97 58 15 30 44 16 
10 22 17 0 5 1 1 11 21 19 32 22 21 8 0 0 22 99 116 120 
102 70 59 59 69 91 102 61 49 77 57 3 1 8 8 1 0 3 2 4 
4 13 25 10 12 0 0 6 34 103 109 122 119 109 86 30 13 20 34 10 
7 32 24 5 7 11 9 0 0 0 2 3 13 3 2 3 1 2 4 4 
39 114 109 124 125 117 102 42 6 0 0 2 17 0 4 45 76 77 37 3 
0 0 7 8 3 1 0 1 0 1 0 4 17 116 116 117 122 108 73 90 
13 1 0 1 13 1 1 1 0 19 7 1 0 5 2 1 1 1 0 1 
0 0 6 2 1 57 114 115 118 95 99 61 1 1 0 1 1 2 5 5 
3 15 8 0 0 0 1 0 1 1 1 1 1 0 6 4 0 4 65 105 
108 105 116 25 0 1 1 0 1 6 8 11 4 0 2 1 0 1 0 2 
0 4 5 4 4 0 5 6 1 3 1 28 67 91 55 6 0 1 1 0 
1 13 7 13 5 4 2 3 0 4 4 11 0 10 12 5 3 1 0 3 
2 5 2 0 1 2 1 0 0 3 2 1 3 10 7 12 1 11 1 3 
